<svg width="14" height="12" viewBox="0 0 14 12" fill="none" xmlns="http://www.w3.org/2000/svg">
<path d="M4.52036 11.0532C4.12296 11.0533 3.74183 10.8954 3.46106 10.6141L0.258452 7.41271C-0.0861507 7.068 -0.0861507 6.50922 0.258452 6.16451C0.603165 5.81991 1.16194 5.81991 1.50666 6.16451L4.52036 9.17821L12.4933 1.20523C12.8381 0.860627 13.3968 0.860627 13.7415 1.20523C14.0862 1.54994 14.0862 2.10872 13.7415 2.45344L5.57966 10.6141C5.29889 10.8954 4.91776 11.0533 4.52036 11.0532Z" fill="#10AA7C"/>
<path d="M4.52036 11.0532C4.12296 11.0533 3.74183 10.8954 3.46106 10.6141L0.258452 7.41271C-0.0861507 7.068 -0.0861507 6.50922 0.258452 6.16451C0.603165 5.81991 1.16194 5.81991 1.50666 6.16451L4.52036 9.17821L12.4933 1.20523C12.8381 0.860627 13.3968 0.860627 13.7415 1.20523C14.0862 1.54994 14.0862 2.10872 13.7415 2.45344L5.57966 10.6141C5.29889 10.8954 4.91776 11.0533 4.52036 11.0532Z" fill="url(#paint0_linear_4333_9553)"/>
<defs>
<linearGradient id="paint0_linear_4333_9553" x1="9.57457" y1="0.946777" x2="9.57457" y2="11.0532" gradientUnits="userSpaceOnUse">
<stop stop-color="#24FDBC" stop-opacity="0"/>
<stop offset="1" stop-color="#24FDBC" stop-opacity="0.65"/>
</linearGradient>
</defs>
</svg>
