<svg width="11" height="14" viewBox="0 0 11 14" xmlns="http://www.w3.org/2000/svg">
<path d="M9.32979 8.55554H4.83055H0.779077C0.0857756 8.55554 -0.260875 9.38192 0.230213 9.86634L3.97115 13.5565C4.57057 14.1478 5.54552 14.1478 6.14494 13.5565L7.56765 12.1531L9.88587 9.86634C10.3697 9.38192 10.0231 8.55554 9.32979 8.55554Z" />
<path d="M0.779586 5.44434L5.27882 5.44434L9.3303 5.44434C10.0236 5.44434 10.3702 4.61796 9.87916 4.13354L6.13823 0.443354C5.53881 -0.147931 4.56385 -0.147931 3.96444 0.443354L2.54173 1.84676L0.2235 4.13354C-0.260365 4.61796 0.0862856 5.44434 0.779586 5.44434Z" />
</svg>
