<svg width="16" height="10" viewBox="0 0 16 10" fill="none" xmlns="http://www.w3.org/2000/svg">
<path d="M8.728 10C3.26109 10 0.146781 6.24653 0 0H2.73741C2.82469 4.5845 4.84403 6.52484 6.44284 6.92644V0H9.02156V3.95228C10.6085 3.78528 12.2589 1.96422 12.8182 0H15.393C15.1841 1.02655 14.7662 1.99915 14.1654 2.85734C13.5651 3.71486 12.7945 4.43951 11.9018 4.98609C12.9006 5.48358 13.7823 6.18767 14.4884 7.05172C15.1951 7.91651 15.7103 8.92139 16 10H13.1634C12.5564 8.09941 11.0369 6.62822 9.0295 6.42147V10H8.728Z" fill="white"/>
</svg>
