<svg width="32" height="32" viewBox="0 0 32 32" fill="none" xmlns="http://www.w3.org/2000/svg">
<path d="M17.0323 15.4839V14.4516C17.0323 13.8823 16.5693 13.4194 16 13.4194C14.8614 13.4194 13.9355 12.4934 13.9355 11.3548V9.29032H15.4839V8.25806H16.5161V9.36366C17.4045 9.59425 18.0645 10.3954 18.0645 11.3548H17.0323C17.0323 10.7855 16.5693 10.3226 16 10.3226H14.9677V11.3548C14.9677 11.9241 15.4307 12.3871 16 12.3871C17.1386 12.3871 18.0645 13.313 18.0645 14.4516V16.5161H16.5161V17.5484H15.4839V16.4428C14.5955 16.2122 13.9355 15.411 13.9355 14.4516H14.9677C14.9677 15.0209 15.4307 15.4839 16 15.4839H17.0323ZM11.3548 13.4194H12.3871V12.3871H11.3548V13.4194ZM20.6452 12.3871H19.6129V13.4194H20.6452V12.3871ZM16 27.6991L13.8065 24.7742L16 21.8493L18.1935 24.7742L16 27.6991ZM15.0968 24.7742L16 25.9783L16.9032 24.7742L16 23.5701L15.0968 24.7742ZM22.1935 27.6991L20 24.7742L22.1935 21.8493L24.3871 24.7742L22.1935 27.6991ZM21.2903 24.7742L22.1935 25.9783L23.0968 24.7742L22.1935 23.5701L21.2903 24.7742ZM9.80645 27.6991L7.6129 24.7742L9.80645 21.8493L12 24.7742L9.80645 27.6991ZM8.90323 24.7742L9.80645 25.9783L10.7097 24.7742L9.80645 23.5701L8.90323 24.7742ZM31.7301 25.8064L30.4919 28.9032L31.7301 32H21.1613V28.9032H10.8387V32H0.269909L1.50806 28.9032L0.269909 25.8064H5.67742V20.6452H11.8798C9.11391 19.1671 7.22581 16.2523 7.22581 12.9032C7.22581 8.06502 11.1618 4.12903 16 4.12903C20.8382 4.12903 24.7742 8.06502 24.7742 12.9032C24.7742 16.2523 22.8861 19.1671 20.1202 20.6452H26.3226V25.8064H31.7301ZM22.4289 17.2109L21.5312 16.6925C20.4128 18.3206 18.5955 19.4272 16.5161 19.5867V20.619C18.9771 20.4556 21.1283 19.1459 22.4289 17.2109ZM23.7419 12.9032C23.7419 11.6784 23.4483 10.5234 22.9398 9.49269L22.0517 10.0058C22.4791 10.8987 22.7097 11.8848 22.7097 12.9032C22.7097 13.94 22.466 14.9191 22.0444 15.7966L22.9398 16.3138C23.4483 15.283 23.7419 14.128 23.7419 12.9032ZM9.57107 8.59551L10.4688 9.11391C11.5872 7.48589 13.4045 6.37928 15.4839 6.21976V5.1875C13.0229 5.35081 10.8717 6.66053 9.57107 8.59551ZM8.25806 12.9032C8.25806 14.128 8.55166 15.283 9.06023 16.3138L9.94834 15.8007C9.52092 14.9078 9.29032 13.9216 9.29032 12.9032C9.29032 11.8664 9.53402 10.8873 9.95564 10.0098L9.06023 9.49269C8.55166 10.5234 8.25806 11.6784 8.25806 12.9032ZM15.4839 20.619V19.5907C14.4723 19.5113 13.4854 19.2026 12.6018 18.6817L13.1263 17.7926C14.0005 18.3082 14.994 18.5806 16 18.5806C19.1303 18.5806 21.6774 16.0335 21.6774 12.9032C21.6774 11.2046 20.9254 9.60837 19.6139 8.52445L20.2709 7.72908C20.7613 8.13407 21.1767 8.60484 21.5272 9.11593L22.4284 8.59551C21.1278 6.66104 18.9766 5.35131 16.5156 5.1875V6.21573C17.5267 6.29461 18.5141 6.60333 19.3977 7.12424L18.8732 8.01336C17.9995 7.49773 17.0055 7.22581 16 7.22581C12.8697 7.22581 10.3226 9.77293 10.3226 12.9032C10.3226 14.6018 11.0746 16.1981 12.3861 17.282L11.7291 18.0774C11.2387 17.6724 10.8233 17.2016 10.4728 16.6905L9.57157 17.2109C10.8717 19.1459 13.0229 20.4556 15.4839 20.619ZM6.70968 21.6774V27.871H25.2903V21.6774H6.70968ZM2.62046 28.9032L1.7941 30.9677H8.77419L5.67742 28.6452V26.8387H1.79461L2.62046 28.9032ZM9.80645 28.9032H7.74194L9.80645 30.4516V28.9032ZM22.1935 28.9032V30.4516L24.2581 28.9032H22.1935ZM29.3795 28.9032L30.2059 26.8387H26.3226V28.6452L23.2258 30.9677H30.2059L29.3795 28.9032ZM31.4839 2.06452H32V3.09677H31.4839C30.6303 3.09677 29.9355 3.79158 29.9355 4.64516V5.16129H28.9032V4.64516C28.9032 3.79158 28.2084 3.09677 27.3548 3.09677H26.8387V2.06452H27.3548C28.2084 2.06452 28.9032 1.36971 28.9032 0.516129V0H29.9355V0.516129C29.9355 1.36971 30.6303 2.06452 31.4839 2.06452ZM29.9514 2.58065C29.7487 2.42994 29.5701 2.25126 29.4194 2.04864C29.2686 2.25126 29.09 2.42994 28.8873 2.58065C29.09 2.73135 29.2686 2.91003 29.4194 3.11265C29.5701 2.91003 29.7487 2.73135 29.9514 2.58065ZM0.516129 9.29032H0V8.25806H0.516129C1.36971 8.25806 2.06452 7.56326 2.06452 6.70968V6.19355H3.09677V6.70968C3.09677 7.56326 3.79158 8.25806 4.64516 8.25806H5.16129V9.29032H4.64516C3.79158 9.29032 3.09677 9.98513 3.09677 10.8387V11.3548H2.06452V10.8387C2.06452 9.98513 1.36971 9.29032 0.516129 9.29032ZM2.04864 8.77419C2.25126 8.9249 2.42994 9.10358 2.58065 9.3062C2.73135 9.10358 2.91003 8.9249 3.11265 8.77419C2.91003 8.62349 2.73135 8.44481 2.58065 8.24219C2.42994 8.44481 2.25126 8.62349 2.04864 8.77419ZM7.22581 0H8.25806V0.516129C8.25806 1.36971 8.95287 2.06452 9.80645 2.06452H10.3226V3.09677H9.80645C8.95287 3.09677 8.25806 3.79158 8.25806 4.64516V5.16129H7.22581V4.64516C7.22581 3.79158 6.531 3.09677 5.67742 3.09677H5.16129V2.06452H5.67742C6.531 2.06452 7.22581 1.36971 7.22581 0.516129V0ZM7.74194 2.04864C7.59123 2.25126 7.41255 2.42994 7.20993 2.58065C7.41255 2.73135 7.59123 2.91003 7.74194 3.11265C7.89264 2.91003 8.07132 2.73135 8.27394 2.58065C8.07132 2.42994 7.89264 2.25126 7.74194 2.04864ZM28.9032 9.80645V10.3226C28.9032 11.1762 29.598 11.871 30.4516 11.871H30.9677V12.9032H30.4516C29.598 12.9032 28.9032 13.598 28.9032 14.4516V14.9677H27.871V14.4516C27.871 13.598 27.1762 12.9032 26.3226 12.9032H25.8064V11.871H26.3226C27.1762 11.871 27.871 11.1762 27.871 10.3226V9.80645H28.9032ZM28.3871 11.8551C28.2364 12.0577 28.0577 12.2364 27.8551 12.3871C28.0577 12.5378 28.2364 12.7165 28.3871 12.9191C28.5378 12.7165 28.7165 12.5378 28.9191 12.3871C28.7165 12.2364 28.5378 12.0577 28.3871 11.8551ZM22.1935 0H21.1613V1.03226H22.1935V0ZM22.1935 3.09677V2.06452H21.1613V3.09677H22.1935ZM23.2258 2.06452V1.03226H22.1935V2.06452H23.2258ZM20.129 1.03226V2.06452H21.1613V1.03226H20.129ZM4.64516 14.4516H3.6129V15.4839H4.64516V14.4516ZM3.6129 17.5484H4.64516V16.5161H3.6129V17.5484ZM4.64516 16.5161H5.67742V15.4839H4.64516V16.5161ZM2.58065 15.4839V16.5161H3.6129V15.4839H2.58065ZM2.06452 18.0645H1.03226V19.0968H2.06452V18.0645ZM1.03226 21.1613H2.06452V20.129H1.03226V21.1613ZM3.09677 20.129V19.0968H2.06452V20.129H3.09677ZM1.03226 19.0968H0V20.129H1.03226V19.0968ZM24.7742 4.12903V5.16129H25.8064V4.12903H24.7742ZM24.7742 7.22581H25.8064V6.19355H24.7742V7.22581ZM26.8387 6.19355V5.16129H25.8064V6.19355H26.8387ZM23.7419 5.16129V6.19355H24.7742V5.16129H23.7419ZM30.9677 18.0645H29.9355V19.0968H30.9677V18.0645ZM29.9355 21.1613H30.9677V20.129H29.9355V21.1613ZM30.9677 20.129H32V19.0968H30.9677V20.129ZM28.9032 19.0968V20.129H29.9355V19.0968H28.9032Z" fill="url(#paint0_linear_321_12636)"/>
<defs>
<linearGradient id="paint0_linear_321_12636" x1="16" y1="0" x2="16" y2="32" gradientUnits="userSpaceOnUse">
<stop stop-color="#FFA347"/>
<stop offset="1" stop-color="#BB4554"/>
</linearGradient>
</defs>
</svg>
