<svg width="18" height="18" viewBox="0 0 18 18" xmlns="http://www.w3.org/2000/svg">
<path d="M9.0013 0.666504C4.40964 0.666504 0.667969 4.40817 0.667969 8.99984C0.667969 13.5915 4.40964 17.3332 9.0013 17.3332C13.593 17.3332 17.3346 13.5915 17.3346 8.99984C17.3346 4.40817 13.593 0.666504 9.0013 0.666504ZM12.3346 9.62484H9.6263V12.3332C9.6263 12.6748 9.34297 12.9582 9.0013 12.9582C8.65964 12.9582 8.3763 12.6748 8.3763 12.3332V9.62484H5.66797C5.3263 9.62484 5.04297 9.3415 5.04297 8.99984C5.04297 8.65817 5.3263 8.37484 5.66797 8.37484H8.3763V5.6665C8.3763 5.32484 8.65964 5.0415 9.0013 5.0415C9.34297 5.0415 9.6263 5.32484 9.6263 5.6665V8.37484H12.3346C12.6763 8.37484 12.9596 8.65817 12.9596 8.99984C12.9596 9.3415 12.6763 9.62484 12.3346 9.62484Z"/>
</svg>
