<svg viewBox="0 0 24 24" xmlns="http://www.w3.org/2000/svg">
<path d="M22.8917 12.2788L20.5089 8.87562L22.8917 5.47246C23.0031 5.31013 23.0302 5.10752 22.9653 4.9232C22.8999 4.73887 22.75 4.59421 22.5593 4.53322L14.7821 2.03334C14.5038 1.94239 14.203 2.04492 14.0418 2.27929L12 5.2491L9.95812 2.27929C9.79574 2.04372 9.49234 1.94176 9.2179 2.03334L1.44061 4.53322C1.24992 4.59425 1.10009 4.73891 1.03465 4.9232C0.969807 5.10752 0.996877 5.31013 1.10829 5.4725L3.49107 8.87566L1.10834 12.2788C0.99692 12.4411 0.96985 12.6438 1.03469 12.8281C1.10013 13.0124 1.24996 13.1571 1.44065 13.2181L9.21795 15.7179C9.49165 15.8072 9.79613 15.7076 9.95816 15.472L12 12.5022L14.0419 15.472C14.204 15.7078 14.5087 15.8071 14.7821 15.7179L22.5594 13.2181C22.7501 13.157 22.8999 13.0124 22.9654 12.8281C23.0302 12.6438 23.0031 12.4411 22.8917 12.2788ZM12 10.717L6.30314 8.87566L12 7.03434L17.6969 8.87566L12 10.717Z"/>
<path d="M15.1899 16.9038C14.3786 17.1677 13.4614 16.8815 12.9693 16.1653L12 14.7555L11.0307 16.1653C10.5395 16.8801 9.62337 17.169 8.80693 16.9025L3.62115 15.2266V18.8751C3.62115 19.1443 3.79865 19.3829 4.06175 19.4678L11.7923 21.9664C11.8156 21.9743 11.8389 21.9805 11.8622 21.9853L11.8634 21.986C11.9088 21.9951 11.9547 22 12 22C12.0485 22 12.0963 21.9945 12.1442 21.9841C12.1656 21.9792 12.1863 21.9738 12.2071 21.967L19.9383 19.4678C20.2013 19.3829 20.3788 19.1443 20.3788 18.8751V15.2266L15.1899 16.9038Z"/>
</svg>
