<svg width="3000" height="118" viewBox="0 0 1148 118" fill="none" xmlns="http://www.w3.org/2000/svg">
<mask id="path-1-inside-1_4079_1619" fill="white">
<path fill-rule="evenodd" clip-rule="evenodd" d="M85 8C85 3.58172 81.4183 0 77 0H8C3.58172 0 0 3.58172 0 8V40V41V110C0 114.418 3.58169 118 7.99997 118H1140C1144.42 118 1148 114.418 1148 110V40C1148 35.5817 1144.42 32 1140 32H93C88.5817 32 85 28.4183 85 24V8Z"/>
</mask>
<path fill-rule="evenodd" clip-rule="evenodd" d="M85 8C85 3.58172 81.4183 0 77 0H8C3.58172 0 0 3.58172 0 8V40V41V110C0 114.418 3.58169 118 7.99997 118H1140C1144.42 118 1148 114.418 1148 110V40C1148 35.5817 1144.42 32 1140 32H93C88.5817 32 85 28.4183 85 24V8Z" fill="url(#paint0_linear_4079_1619)"/>
<path d="M8 1H77V-1H8V1ZM1 40V8H-1V40H1ZM1 41V40H-1V41H1ZM1 110V41H-1V110H1ZM7.99997 117C4.13398 117 1 113.866 1 110H-1C-1 114.971 3.02941 119 7.99997 119V117ZM1140 117H7.99997V119H1140V117ZM1147 110C1147 113.866 1143.87 117 1140 117V119C1144.97 119 1149 114.971 1149 110H1147ZM1147 40V110H1149V40H1147ZM1140 33C1143.87 33 1147 36.134 1147 40H1149C1149 35.0294 1144.97 31 1140 31V33ZM93 33H1140V31H93V33ZM84 8V24H86V8H84ZM77 1C80.866 1 84 4.13401 84 8H86C86 3.02944 81.9706 -1 77 -1V1ZM93 31C89.134 31 86 27.866 86 24H84C84 28.9706 88.0294 33 93 33V31ZM8 -1C3.02944 -1 -1 3.02944 -1 8H1C1 4.13401 4.13401 1 8 1V-1Z" fill="url(#paint1_linear_4079_1619)" mask="url(#path-1-inside-1_4079_1619)"/>
<defs>
<linearGradient id="paint0_linear_4079_1619" x1="574" y1="0" x2="574" y2="118" gradientUnits="userSpaceOnUse">
<stop stop-color="#191F2D"/>
<stop offset="1" stop-color="#191F2D" stop-opacity="0.25"/>
</linearGradient>
<linearGradient id="paint1_linear_4079_1619" x1="574" y1="0" x2="574" y2="118" gradientUnits="userSpaceOnUse">
<stop stop-color="#1F2534"/>
<stop offset="1" stop-color="#1F2534" stop-opacity="0.25"/>
</linearGradient>
</defs>
</svg>
