<svg width="43" height="43" viewBox="0 0 43 43" fill="none" xmlns="http://www.w3.org/2000/svg">
<path d="M36.2762 15.9592L36.0755 16.2459L36.2762 16.5327L40.4599 22.5079C40.4603 22.5085 40.4606 22.509 40.461 22.5096C40.5661 22.6638 40.5902 22.8521 40.5301 23.0236C40.4681 23.1974 40.3246 23.3387 40.1359 23.3991L40.1353 23.3993L26.4712 27.7914L26.4691 27.792C26.1936 27.8819 25.8916 27.7786 25.7357 27.552C25.7357 27.552 25.7357 27.552 25.7357 27.552L22.1483 22.3343L21.7363 21.735L21.3243 22.3343L17.737 27.5519C17.5812 27.7784 17.2793 27.882 17.0034 27.792L17.0015 27.7914L3.33736 23.3993L3.33669 23.3991C3.14801 23.3387 3.00451 23.1974 2.94253 23.0235C2.88246 22.8521 2.90661 22.6637 3.0116 22.5096C3.01198 22.5091 3.01235 22.5085 3.01273 22.508L7.19635 16.5328L7.39714 16.246L7.19635 15.9592L3.01155 9.98237C2.90652 9.8282 2.8824 9.63988 2.94245 9.46846C3.00442 9.29464 3.14793 9.1533 3.3367 9.09288L3.33728 9.09269L17.0014 4.70061L17.0014 4.70064L17.0066 4.69888C17.2783 4.60825 17.5787 4.71049 17.7372 4.94047L21.3242 10.1577L21.7363 10.757L22.1483 10.1577L25.7357 4.93998C25.8916 4.71317 26.1882 4.6081 26.4688 4.69985L26.4711 4.70061L40.1352 9.09269L40.1359 9.09291C40.3245 9.15324 40.468 9.29444 40.53 9.46826C40.5902 9.63975 40.566 9.82818 40.461 9.98232C40.4606 9.98287 40.4603 9.98343 40.4599 9.98398L36.2762 15.9592ZM21.5826 19.9568L21.7363 20.0065L21.8901 19.9568L31.8991 16.7218L33.3711 16.246L31.8991 15.7703L21.8901 12.5352L21.7363 12.4855L21.5826 12.5352L11.5736 15.7703L10.1016 16.246L11.5736 16.7218L21.5826 19.9568ZM35.9573 28.0913V33.8143C35.9573 34.062 35.7932 34.2947 35.5297 34.3797L35.5295 34.3798L21.9467 38.7707C21.9275 38.7769 21.9063 38.7827 21.8811 38.7885C21.8301 38.7994 21.7824 38.8045 21.7364 38.8045C21.7001 38.8045 21.6615 38.8012 21.6215 38.7945L21.5965 38.7893C21.5725 38.7842 21.5514 38.7785 21.5323 38.7721L21.5323 38.772L21.5251 38.7697L7.94319 34.3797L7.94285 34.3796C7.67933 34.2947 7.51532 34.062 7.51532 33.8143V28.0911L15.9712 30.824C15.9713 30.824 15.9715 30.824 15.9716 30.8241C17.6081 31.3579 19.4519 30.7824 20.4454 29.3365L21.7363 27.459L23.0272 29.3365C23.0272 29.3365 23.0272 29.3366 23.0272 29.3366C24.0226 30.785 25.868 31.3553 27.4946 30.8265L27.4945 30.8266L27.3407 30.3508L27.4954 30.8263L35.9573 28.0913Z" fill="#10AA7C"/>
<path d="M36.2762 15.9592L36.0755 16.2459L36.2762 16.5327L40.4599 22.5079C40.4603 22.5085 40.4606 22.509 40.461 22.5096C40.5661 22.6638 40.5902 22.8521 40.5301 23.0236C40.4681 23.1974 40.3246 23.3387 40.1359 23.3991L40.1353 23.3993L26.4712 27.7914L26.4691 27.792C26.1936 27.8819 25.8916 27.7786 25.7357 27.552C25.7357 27.552 25.7357 27.552 25.7357 27.552L22.1483 22.3343L21.7363 21.735L21.3243 22.3343L17.737 27.5519C17.5812 27.7784 17.2793 27.882 17.0034 27.792L17.0015 27.7914L3.33736 23.3993L3.33669 23.3991C3.14801 23.3387 3.00451 23.1974 2.94253 23.0235C2.88246 22.8521 2.90661 22.6637 3.0116 22.5096C3.01198 22.5091 3.01235 22.5085 3.01273 22.508L7.19635 16.5328L7.39714 16.246L7.19635 15.9592L3.01155 9.98237C2.90652 9.8282 2.8824 9.63988 2.94245 9.46846C3.00442 9.29464 3.14793 9.1533 3.3367 9.09288L3.33728 9.09269L17.0014 4.70061L17.0014 4.70064L17.0066 4.69888C17.2783 4.60825 17.5787 4.71049 17.7372 4.94047L21.3242 10.1577L21.7363 10.757L22.1483 10.1577L25.7357 4.93998C25.8916 4.71317 26.1882 4.6081 26.4688 4.69985L26.4711 4.70061L40.1352 9.09269L40.1359 9.09291C40.3245 9.15324 40.468 9.29444 40.53 9.46826C40.5902 9.63975 40.566 9.82818 40.461 9.98232C40.4606 9.98287 40.4603 9.98343 40.4599 9.98398L36.2762 15.9592ZM21.5826 19.9568L21.7363 20.0065L21.8901 19.9568L31.8991 16.7218L33.3711 16.246L31.8991 15.7703L21.8901 12.5352L21.7363 12.4855L21.5826 12.5352L11.5736 15.7703L10.1016 16.246L11.5736 16.7218L21.5826 19.9568ZM35.9573 28.0913V33.8143C35.9573 34.062 35.7932 34.2947 35.5297 34.3797L35.5295 34.3798L21.9467 38.7707C21.9275 38.7769 21.9063 38.7827 21.8811 38.7885C21.8301 38.7994 21.7824 38.8045 21.7364 38.8045C21.7001 38.8045 21.6615 38.8012 21.6215 38.7945L21.5965 38.7893C21.5725 38.7842 21.5514 38.7785 21.5323 38.7721L21.5323 38.772L21.5251 38.7697L7.94319 34.3797L7.94285 34.3796C7.67933 34.2947 7.51532 34.062 7.51532 33.8143V28.0911L15.9712 30.824C15.9713 30.824 15.9715 30.824 15.9716 30.8241C17.6081 31.3579 19.4519 30.7824 20.4454 29.3365L21.7363 27.459L23.0272 29.3365C23.0272 29.3365 23.0272 29.3366 23.0272 29.3366C24.0226 30.785 25.868 31.3553 27.4946 30.8265L27.4945 30.8266L27.3407 30.3508L27.4954 30.8263L35.9573 28.0913Z" fill="url(#paint0_linear_4129_5759)"/>
<path d="M36.2762 15.9592L36.0755 16.2459L36.2762 16.5327L40.4599 22.5079C40.4603 22.5085 40.4606 22.509 40.461 22.5096C40.5661 22.6638 40.5902 22.8521 40.5301 23.0236C40.4681 23.1974 40.3246 23.3387 40.1359 23.3991L40.1353 23.3993L26.4712 27.7914L26.4691 27.792C26.1936 27.8819 25.8916 27.7786 25.7357 27.552C25.7357 27.552 25.7357 27.552 25.7357 27.552L22.1483 22.3343L21.7363 21.735L21.3243 22.3343L17.737 27.5519C17.5812 27.7784 17.2793 27.882 17.0034 27.792L17.0015 27.7914L3.33736 23.3993L3.33669 23.3991C3.14801 23.3387 3.00451 23.1974 2.94253 23.0235C2.88246 22.8521 2.90661 22.6637 3.0116 22.5096C3.01198 22.5091 3.01235 22.5085 3.01273 22.508L7.19635 16.5328L7.39714 16.246L7.19635 15.9592L3.01155 9.98237C2.90652 9.8282 2.8824 9.63988 2.94245 9.46846C3.00442 9.29464 3.14793 9.1533 3.3367 9.09288L3.33728 9.09269L17.0014 4.70061L17.0014 4.70064L17.0066 4.69888C17.2783 4.60825 17.5787 4.71049 17.7372 4.94047L21.3242 10.1577L21.7363 10.757L22.1483 10.1577L25.7357 4.93998C25.8916 4.71317 26.1882 4.6081 26.4688 4.69985L26.4711 4.70061L40.1352 9.09269L40.1359 9.09291C40.3245 9.15324 40.468 9.29444 40.53 9.46826C40.5902 9.63975 40.566 9.82818 40.461 9.98232C40.4606 9.98287 40.4603 9.98343 40.4599 9.98398L36.2762 15.9592ZM21.5826 19.9568L21.7363 20.0065L21.8901 19.9568L31.8991 16.7218L33.3711 16.246L31.8991 15.7703L21.8901 12.5352L21.7363 12.4855L21.5826 12.5352L11.5736 15.7703L10.1016 16.246L11.5736 16.7218L21.5826 19.9568ZM35.9573 28.0913V33.8143C35.9573 34.062 35.7932 34.2947 35.5297 34.3797L35.5295 34.3798L21.9467 38.7707C21.9275 38.7769 21.9063 38.7827 21.8811 38.7885C21.8301 38.7994 21.7824 38.8045 21.7364 38.8045C21.7001 38.8045 21.6615 38.8012 21.6215 38.7945L21.5965 38.7893C21.5725 38.7842 21.5514 38.7785 21.5323 38.7721L21.5323 38.772L21.5251 38.7697L7.94319 34.3797L7.94285 34.3796C7.67933 34.2947 7.51532 34.062 7.51532 33.8143V28.0911L15.9712 30.824C15.9713 30.824 15.9715 30.824 15.9716 30.8241C17.6081 31.3579 19.4519 30.7824 20.4454 29.3365L21.7363 27.459L23.0272 29.3365C23.0272 29.3365 23.0272 29.3366 23.0272 29.3366C24.0226 30.785 25.868 31.3553 27.4946 30.8265L27.4945 30.8266L27.3407 30.3508L27.4954 30.8263L35.9573 28.0913Z" stroke="#10AA7C"/>
<path d="M36.2762 15.9592L36.0755 16.2459L36.2762 16.5327L40.4599 22.5079C40.4603 22.5085 40.4606 22.509 40.461 22.5096C40.5661 22.6638 40.5902 22.8521 40.5301 23.0236C40.4681 23.1974 40.3246 23.3387 40.1359 23.3991L40.1353 23.3993L26.4712 27.7914L26.4691 27.792C26.1936 27.8819 25.8916 27.7786 25.7357 27.552C25.7357 27.552 25.7357 27.552 25.7357 27.552L22.1483 22.3343L21.7363 21.735L21.3243 22.3343L17.737 27.5519C17.5812 27.7784 17.2793 27.882 17.0034 27.792L17.0015 27.7914L3.33736 23.3993L3.33669 23.3991C3.14801 23.3387 3.00451 23.1974 2.94253 23.0235C2.88246 22.8521 2.90661 22.6637 3.0116 22.5096C3.01198 22.5091 3.01235 22.5085 3.01273 22.508L7.19635 16.5328L7.39714 16.246L7.19635 15.9592L3.01155 9.98237C2.90652 9.8282 2.8824 9.63988 2.94245 9.46846C3.00442 9.29464 3.14793 9.1533 3.3367 9.09288L3.33728 9.09269L17.0014 4.70061L17.0014 4.70064L17.0066 4.69888C17.2783 4.60825 17.5787 4.71049 17.7372 4.94047L21.3242 10.1577L21.7363 10.757L22.1483 10.1577L25.7357 4.93998C25.8916 4.71317 26.1882 4.6081 26.4688 4.69985L26.4711 4.70061L40.1352 9.09269L40.1359 9.09291C40.3245 9.15324 40.468 9.29444 40.53 9.46826C40.5902 9.63975 40.566 9.82818 40.461 9.98232C40.4606 9.98287 40.4603 9.98343 40.4599 9.98398L36.2762 15.9592ZM21.5826 19.9568L21.7363 20.0065L21.8901 19.9568L31.8991 16.7218L33.3711 16.246L31.8991 15.7703L21.8901 12.5352L21.7363 12.4855L21.5826 12.5352L11.5736 15.7703L10.1016 16.246L11.5736 16.7218L21.5826 19.9568ZM35.9573 28.0913V33.8143C35.9573 34.062 35.7932 34.2947 35.5297 34.3797L35.5295 34.3798L21.9467 38.7707C21.9275 38.7769 21.9063 38.7827 21.8811 38.7885C21.8301 38.7994 21.7824 38.8045 21.7364 38.8045C21.7001 38.8045 21.6615 38.8012 21.6215 38.7945L21.5965 38.7893C21.5725 38.7842 21.5514 38.7785 21.5323 38.7721L21.5323 38.772L21.5251 38.7697L7.94319 34.3797L7.94285 34.3796C7.67933 34.2947 7.51532 34.062 7.51532 33.8143V28.0911L15.9712 30.824C15.9713 30.824 15.9715 30.824 15.9716 30.8241C17.6081 31.3579 19.4519 30.7824 20.4454 29.3365L21.7363 27.459L23.0272 29.3365C23.0272 29.3365 23.0272 29.3366 23.0272 29.3366C24.0226 30.785 25.868 31.3553 27.4946 30.8265L27.4945 30.8266L27.3407 30.3508L27.4954 30.8263L35.9573 28.0913Z" stroke="url(#paint1_linear_4129_5759)"/>
<defs>
<linearGradient id="paint0_linear_4129_5759" x1="28.8444" y1="4.16602" x2="28.8444" y2="39.3045" gradientUnits="userSpaceOnUse">
<stop stop-color="#24FDBC" stop-opacity="0"/>
<stop offset="1" stop-color="#24FDBC" stop-opacity="0.65"/>
</linearGradient>
<linearGradient id="paint1_linear_4129_5759" x1="28.8444" y1="4.16602" x2="28.8444" y2="39.3045" gradientUnits="userSpaceOnUse">
<stop stop-color="#24FDBC" stop-opacity="0"/>
<stop offset="1" stop-color="#24FDBC" stop-opacity="0.65"/>
</linearGradient>
</defs>
</svg>
