<svg width="24" height="24" viewBox="0 0 24 24" fill="none" xmlns="http://www.w3.org/2000/svg">
<path d="M11.9974 14.5C12.4736 14.5 12.8436 14.3696 13.1117 14.0971C13.3404 13.8646 13.4457 13.5688 13.5121 13.3824C13.5155 13.373 13.5187 13.3639 13.5219 13.355C13.6254 13.0661 13.6737 12.98 13.7611 12.9264C14.6961 12.3541 15.5 11.3141 15.5001 10C15.5001 8.067 13.9331 6.5 12.0001 6.5C10.7024 6.5 9.57197 7.20692 8.96921 8.24891C8.5544 8.966 8.79944 9.88359 9.51653 10.2984C10.2268 10.7093 11.1337 10.4728 11.554 9.77155C11.711 9.55097 11.8621 9.50479 11.9655 9.50195C12.0905 9.49853 12.2347 9.55705 12.3488 9.67346C12.4629 9.78999 12.5077 9.92352 12.4983 10.0292C12.4904 10.1165 12.4381 10.2712 12.1679 10.4319C11.8593 10.6153 11.4536 10.9204 11.1366 11.3068C10.837 11.6719 10.542 12.1968 10.5041 12.8578C10.4997 12.9047 10.4974 12.9522 10.4974 13C10.4974 13.8284 11.169 14.5 11.9974 14.5ZM11.9974 14.5C12.8259 14.5 13.4974 15.1716 13.4974 16C13.4974 16.8284 12.8259 17.5 11.9974 17.5C11.169 17.5 10.4974 16.8284 10.4974 16C10.4974 15.1716 11.169 14.5 11.9974 14.5ZM2.5 12C2.5 6.7533 6.7533 2.5 12 2.5C17.2467 2.5 21.5 6.7533 21.5 12C21.5 17.2467 17.2467 21.5 12 21.5C6.7533 21.5 2.5 17.2467 2.5 12Z" fill="#D1D9EB"/>
<path d="M11.9974 14.5C12.4736 14.5 12.8436 14.3696 13.1117 14.0971C13.3404 13.8646 13.4457 13.5688 13.5121 13.3824C13.5155 13.373 13.5187 13.3639 13.5219 13.355C13.6254 13.0661 13.6737 12.98 13.7611 12.9264C14.6961 12.3541 15.5 11.3141 15.5001 10C15.5001 8.067 13.9331 6.5 12.0001 6.5C10.7024 6.5 9.57197 7.20692 8.96921 8.24891C8.5544 8.966 8.79944 9.88359 9.51653 10.2984C10.2268 10.7093 11.1337 10.4728 11.554 9.77155C11.711 9.55097 11.8621 9.50479 11.9655 9.50195C12.0905 9.49853 12.2347 9.55705 12.3488 9.67346C12.4629 9.78999 12.5077 9.92352 12.4983 10.0292C12.4904 10.1165 12.4381 10.2712 12.1679 10.4319C11.8593 10.6153 11.4536 10.9204 11.1366 11.3068C10.837 11.6719 10.542 12.1968 10.5041 12.8578C10.4997 12.9047 10.4974 12.9522 10.4974 13C10.4974 13.8284 11.169 14.5 11.9974 14.5ZM11.9974 14.5C12.8259 14.5 13.4974 15.1716 13.4974 16C13.4974 16.8284 12.8259 17.5 11.9974 17.5C11.169 17.5 10.4974 16.8284 10.4974 16C10.4974 15.1716 11.169 14.5 11.9974 14.5ZM2.5 12C2.5 6.7533 6.7533 2.5 12 2.5C17.2467 2.5 21.5 6.7533 21.5 12C21.5 17.2467 17.2467 21.5 12 21.5C6.7533 21.5 2.5 17.2467 2.5 12Z" fill="url(#paint0_linear_2358_2935)"/>
<path d="M11.9974 14.5C12.4736 14.5 12.8436 14.3696 13.1117 14.0971C13.3404 13.8646 13.4457 13.5688 13.5121 13.3824C13.5155 13.373 13.5187 13.3639 13.5219 13.355C13.6254 13.0661 13.6737 12.98 13.7611 12.9264C14.6961 12.3541 15.5 11.3141 15.5001 10C15.5001 8.067 13.9331 6.5 12.0001 6.5C10.7024 6.5 9.57197 7.20692 8.96921 8.24891C8.5544 8.966 8.79944 9.88359 9.51653 10.2984C10.2268 10.7093 11.1337 10.4728 11.554 9.77155C11.711 9.55097 11.8621 9.50479 11.9655 9.50195C12.0905 9.49853 12.2347 9.55705 12.3488 9.67346C12.4629 9.78999 12.5077 9.92352 12.4983 10.0292C12.4904 10.1165 12.4381 10.2712 12.1679 10.4319C11.8593 10.6153 11.4536 10.9204 11.1366 11.3068C10.837 11.6719 10.542 12.1968 10.5041 12.8578C10.4997 12.9047 10.4974 12.9522 10.4974 13C10.4974 13.8284 11.169 14.5 11.9974 14.5ZM11.9974 14.5C12.8259 14.5 13.4974 15.1716 13.4974 16C13.4974 16.8284 12.8259 17.5 11.9974 17.5C11.169 17.5 10.4974 16.8284 10.4974 16C10.4974 15.1716 11.169 14.5 11.9974 14.5ZM2.5 12C2.5 6.7533 6.7533 2.5 12 2.5C17.2467 2.5 21.5 6.7533 21.5 12C21.5 17.2467 17.2467 21.5 12 21.5C6.7533 21.5 2.5 17.2467 2.5 12Z" stroke="#EDF2FF"/>
<path d="M11.9974 14.5C12.4736 14.5 12.8436 14.3696 13.1117 14.0971C13.3404 13.8646 13.4457 13.5688 13.5121 13.3824C13.5155 13.373 13.5187 13.3639 13.5219 13.355C13.6254 13.0661 13.6737 12.98 13.7611 12.9264C14.6961 12.3541 15.5 11.3141 15.5001 10C15.5001 8.067 13.9331 6.5 12.0001 6.5C10.7024 6.5 9.57197 7.20692 8.96921 8.24891C8.5544 8.966 8.79944 9.88359 9.51653 10.2984C10.2268 10.7093 11.1337 10.4728 11.554 9.77155C11.711 9.55097 11.8621 9.50479 11.9655 9.50195C12.0905 9.49853 12.2347 9.55705 12.3488 9.67346C12.4629 9.78999 12.5077 9.92352 12.4983 10.0292C12.4904 10.1165 12.4381 10.2712 12.1679 10.4319C11.8593 10.6153 11.4536 10.9204 11.1366 11.3068C10.837 11.6719 10.542 12.1968 10.5041 12.8578C10.4997 12.9047 10.4974 12.9522 10.4974 13C10.4974 13.8284 11.169 14.5 11.9974 14.5ZM11.9974 14.5C12.8259 14.5 13.4974 15.1716 13.4974 16C13.4974 16.8284 12.8259 17.5 11.9974 17.5C11.169 17.5 10.4974 16.8284 10.4974 16C10.4974 15.1716 11.169 14.5 11.9974 14.5ZM2.5 12C2.5 6.7533 6.7533 2.5 12 2.5C17.2467 2.5 21.5 6.7533 21.5 12C21.5 17.2467 17.2467 21.5 12 21.5C6.7533 21.5 2.5 17.2467 2.5 12Z" stroke="url(#paint1_linear_2358_2935)"/>
<defs>
<linearGradient id="paint0_linear_2358_2935" x1="12" y1="22.1429" x2="12" y2="1.85715" gradientUnits="userSpaceOnUse">
<stop stop-color="#1C2230" stop-opacity="0"/>
<stop offset="1" stop-color="#1C2230" stop-opacity="0.35"/>
</linearGradient>
<linearGradient id="paint1_linear_2358_2935" x1="12" y1="22.1429" x2="12" y2="1.85715" gradientUnits="userSpaceOnUse">
<stop stop-color="#1C2230" stop-opacity="0"/>
<stop offset="1" stop-color="#1C2230" stop-opacity="0.35"/>
</linearGradient>
</defs>
</svg>
