<svg width="16" height="16" viewBox="0 0 16 16" fill="none" xmlns="http://www.w3.org/2000/svg">
<path d="M4.3231 14.341C4.32799 14.3388 4.33286 14.3366 4.33772 14.3344L4.0389 14.1859C3.92632 14.2266 3.80778 14.2613 3.68327 14.2882L4.02099 14.4562C4.11737 14.4252 4.2099 14.3901 4.29857 14.3517M4.3231 14.341C4.31508 14.3408 4.30703 14.3405 4.29896 14.3403L4.29857 14.3517M4.3231 14.341C4.31496 14.3446 4.30678 14.3481 4.29857 14.3517M4.3231 14.341C4.33271 14.3412 4.34229 14.3413 4.35183 14.3415M4.29857 14.3517L4.29041 14.5901L4.40172 14.3663L4.35183 14.3415M7.12619 13.7089C7.25949 13.4921 7.19232 13.2073 6.98434 13.0708L6.98228 13.0694C6.76418 12.9293 6.47654 12.9982 6.34337 13.2181L6.55723 13.3476L6.34424 13.2167C6.31286 13.2677 5.63653 14.3555 4.35183 14.3415M7.12619 13.7089L4.35183 14.3415M7.12619 13.7089C7.12694 13.7076 7.12758 13.7065 7.1281 13.7056L6.91227 13.5795L7.12414 13.7122C7.12483 13.7111 7.12552 13.71 7.12619 13.7089ZM9.05416 8.70439L9.05442 8.70456L9.19169 8.49561L9.05392 8.70423M9.05416 8.70439L5.04934 12.542M9.05416 8.70439C9.05408 8.70433 9.054 8.70428 9.05392 8.70423M9.05416 8.70439L9.05392 8.70423M9.05392 8.70423L7.72249 7.82954L7.722 7.82922C7.61832 7.76076 7.46279 7.80949 7.42656 7.96256L7.42564 7.96643L7.42561 7.96642L7.25754 8.62925L7.20716 8.82794L7.00245 8.81748C6.297 8.78141 5.60575 9.19132 5.26181 9.9115L5.03621 9.80377L5.26195 9.9112C4.65557 11.1854 3.66434 12.2236 2.56056 13.1294C2.45077 13.2197 2.47348 13.4073 2.59862 13.4691L2.59933 13.4694L2.98638 13.6622C4.30692 13.7186 5.00834 12.6084 5.04934 12.542M5.04934 12.542C5.0489 12.5427 5.04847 12.5435 5.04803 12.5442L5.26311 12.6716L5.05012 12.5407C5.04989 12.5411 5.04963 12.5415 5.04934 12.542ZM5.14756 14.9226C5.3208 14.963 5.49429 14.9871 5.66652 14.996C5.83664 14.9173 5.99183 14.827 6.13214 14.7313C5.9629 14.7511 5.79085 14.7552 5.61786 14.7423C5.47316 14.8131 5.31639 14.8749 5.14756 14.9226ZM5.68811 12.3926C5.68743 12.3922 5.68675 12.3917 5.68606 12.3913L5.55092 12.6016L5.68811 12.3926ZM9.60608 7.02483C9.57161 7.20858 9.52471 7.38638 9.32912 7.7696L8.45959 7.19902C8.52913 7.00357 8.57054 6.80409 8.61436 6.59296C8.61637 6.5833 8.61838 6.57362 8.62039 6.56392C8.68276 6.26389 8.75697 5.913 8.92123 5.44603L8.9216 5.44493C9.10055 4.92859 9.25047 4.62575 10.1615 2.7856C10.3357 2.43379 10.5377 2.02578 10.773 1.54934L10.7733 1.54876C10.9084 1.27334 11.2253 1.17507 11.4761 1.31071L11.4776 1.3115C11.734 1.44792 11.844 1.78572 11.7048 2.06973C11.4539 2.57774 11.2417 3.00636 11.0615 3.37048C10.1794 5.15228 10.0619 5.38964 9.90762 5.82674L9.907 5.82856C9.71627 6.3824 9.66637 6.67511 9.62789 6.90086C9.6205 6.94419 9.61354 6.98506 9.60608 7.02483ZM13.75 7.80102C13.75 8.20119 13.44 8.50971 13.0778 8.50971C12.7174 8.50971 12.4072 8.20144 12.4072 7.80102C12.4072 7.39882 12.7177 7.09082 13.0778 7.09082C13.4397 7.09082 13.75 7.39909 13.75 7.80102ZM3.59282 8.14109C3.59282 8.54126 3.2828 8.84976 2.92068 8.84976C2.56026 8.84976 2.25 8.54151 2.25 8.14109C2.25 7.73888 2.56053 7.43089 2.92068 7.43089C3.28256 7.43089 3.59282 7.73915 3.59282 8.14109ZM11.9073 12.0611C11.9073 12.3377 11.6938 12.5457 11.4507 12.5457C11.2091 12.5457 10.9953 12.3379 10.9953 12.0611C10.9953 11.7829 11.2093 11.5754 11.4507 11.5754C11.6935 11.5754 11.9073 11.7832 11.9073 12.0611ZM7.19079 5.00316C7.19079 5.2797 6.97726 5.48774 6.73421 5.48774C6.49256 5.48774 6.27877 5.27996 6.27877 5.00316C6.27877 4.72497 6.49281 4.51745 6.73421 4.51745C6.97701 4.51745 7.19079 4.72523 7.19079 5.00316ZM4.6369 3.51443C4.6369 3.79096 4.42336 3.99901 4.18032 3.99901C3.93865 3.99901 3.72488 3.79123 3.72488 3.51443C3.72488 3.2362 3.9389 3.02869 4.18032 3.02869C4.42311 3.02869 4.6369 3.23647 4.6369 3.51443Z" fill="#D1D9EB"/>
<path d="M4.3231 14.341C4.32799 14.3388 4.33286 14.3366 4.33772 14.3344L4.0389 14.1859C3.92632 14.2266 3.80778 14.2613 3.68327 14.2882L4.02099 14.4562C4.11737 14.4252 4.2099 14.3901 4.29857 14.3517M4.3231 14.341C4.31508 14.3408 4.30703 14.3405 4.29896 14.3403L4.29857 14.3517M4.3231 14.341C4.31496 14.3446 4.30678 14.3481 4.29857 14.3517M4.3231 14.341C4.33271 14.3412 4.34229 14.3413 4.35183 14.3415M4.29857 14.3517L4.29041 14.5901L4.40172 14.3663L4.35183 14.3415M7.12619 13.7089C7.25949 13.4921 7.19232 13.2073 6.98434 13.0708L6.98228 13.0694C6.76418 12.9293 6.47654 12.9982 6.34337 13.2181L6.55723 13.3476L6.34424 13.2167C6.31286 13.2677 5.63653 14.3555 4.35183 14.3415M7.12619 13.7089L4.35183 14.3415M7.12619 13.7089C7.12694 13.7076 7.12758 13.7065 7.1281 13.7056L6.91227 13.5795L7.12414 13.7122C7.12483 13.7111 7.12552 13.71 7.12619 13.7089ZM9.05416 8.70439L9.05442 8.70456L9.19169 8.49561L9.05392 8.70423M9.05416 8.70439L5.04934 12.542M9.05416 8.70439C9.05408 8.70433 9.054 8.70428 9.05392 8.70423M9.05416 8.70439L9.05392 8.70423M9.05392 8.70423L7.72249 7.82954L7.722 7.82922C7.61832 7.76076 7.46279 7.80949 7.42656 7.96256L7.42564 7.96643L7.42561 7.96642L7.25754 8.62925L7.20716 8.82794L7.00245 8.81748C6.297 8.78141 5.60575 9.19132 5.26181 9.9115L5.03621 9.80377L5.26195 9.9112C4.65557 11.1854 3.66434 12.2236 2.56056 13.1294C2.45077 13.2197 2.47348 13.4073 2.59862 13.4691L2.59933 13.4694L2.98638 13.6622C4.30692 13.7186 5.00834 12.6084 5.04934 12.542M5.04934 12.542C5.0489 12.5427 5.04847 12.5435 5.04803 12.5442L5.26311 12.6716L5.05012 12.5407C5.04989 12.5411 5.04963 12.5415 5.04934 12.542ZM5.14756 14.9226C5.3208 14.963 5.49429 14.9871 5.66652 14.996C5.83664 14.9173 5.99183 14.827 6.13214 14.7313C5.9629 14.7511 5.79085 14.7552 5.61786 14.7423C5.47316 14.8131 5.31639 14.8749 5.14756 14.9226ZM5.68811 12.3926C5.68743 12.3922 5.68675 12.3917 5.68606 12.3913L5.55092 12.6016L5.68811 12.3926ZM9.60608 7.02483C9.57161 7.20858 9.52471 7.38638 9.32912 7.7696L8.45959 7.19902C8.52913 7.00357 8.57054 6.80409 8.61436 6.59296C8.61637 6.5833 8.61838 6.57362 8.62039 6.56392C8.68276 6.26389 8.75697 5.913 8.92123 5.44603L8.9216 5.44493C9.10055 4.92859 9.25047 4.62575 10.1615 2.7856C10.3357 2.43379 10.5377 2.02578 10.773 1.54934L10.7733 1.54876C10.9084 1.27334 11.2253 1.17507 11.4761 1.31071L11.4776 1.3115C11.734 1.44792 11.844 1.78572 11.7048 2.06973C11.4539 2.57774 11.2417 3.00636 11.0615 3.37048C10.1794 5.15228 10.0619 5.38964 9.90762 5.82674L9.907 5.82856C9.71627 6.3824 9.66637 6.67511 9.62789 6.90086C9.6205 6.94419 9.61354 6.98506 9.60608 7.02483ZM13.75 7.80102C13.75 8.20119 13.44 8.50971 13.0778 8.50971C12.7174 8.50971 12.4072 8.20144 12.4072 7.80102C12.4072 7.39882 12.7177 7.09082 13.0778 7.09082C13.4397 7.09082 13.75 7.39909 13.75 7.80102ZM3.59282 8.14109C3.59282 8.54126 3.2828 8.84976 2.92068 8.84976C2.56026 8.84976 2.25 8.54151 2.25 8.14109C2.25 7.73888 2.56053 7.43089 2.92068 7.43089C3.28256 7.43089 3.59282 7.73915 3.59282 8.14109ZM11.9073 12.0611C11.9073 12.3377 11.6938 12.5457 11.4507 12.5457C11.2091 12.5457 10.9953 12.3379 10.9953 12.0611C10.9953 11.7829 11.2093 11.5754 11.4507 11.5754C11.6935 11.5754 11.9073 11.7832 11.9073 12.0611ZM7.19079 5.00316C7.19079 5.2797 6.97726 5.48774 6.73421 5.48774C6.49256 5.48774 6.27877 5.27996 6.27877 5.00316C6.27877 4.72497 6.49281 4.51745 6.73421 4.51745C6.97701 4.51745 7.19079 4.72523 7.19079 5.00316ZM4.6369 3.51443C4.6369 3.79096 4.42336 3.99901 4.18032 3.99901C3.93865 3.99901 3.72488 3.79123 3.72488 3.51443C3.72488 3.2362 3.9389 3.02869 4.18032 3.02869C4.42311 3.02869 4.6369 3.23647 4.6369 3.51443Z" fill="url(#paint0_linear_2487_9674)"/>
<path d="M4.3231 14.341C4.32799 14.3388 4.33286 14.3366 4.33772 14.3344L4.0389 14.1859C3.92632 14.2266 3.80778 14.2613 3.68327 14.2882L4.02099 14.4562C4.11737 14.4252 4.2099 14.3901 4.29857 14.3517M4.3231 14.341C4.31508 14.3408 4.30703 14.3405 4.29896 14.3403L4.29857 14.3517M4.3231 14.341C4.31496 14.3446 4.30678 14.3481 4.29857 14.3517M4.3231 14.341C4.33271 14.3412 4.34229 14.3413 4.35183 14.3415M4.29857 14.3517L4.29041 14.5901L4.40172 14.3663L4.35183 14.3415M7.12619 13.7089C7.25949 13.4921 7.19232 13.2073 6.98434 13.0708L6.98228 13.0694C6.76418 12.9293 6.47654 12.9982 6.34337 13.2181L6.55723 13.3476L6.34424 13.2167C6.31286 13.2677 5.63653 14.3555 4.35183 14.3415M7.12619 13.7089L4.35183 14.3415M7.12619 13.7089C7.12694 13.7076 7.12758 13.7065 7.1281 13.7056L6.91227 13.5795L7.12414 13.7122C7.12483 13.7111 7.12552 13.71 7.12619 13.7089ZM9.05416 8.70439L9.05442 8.70456L9.19169 8.49561L9.05392 8.70423M9.05416 8.70439L5.04934 12.542M9.05416 8.70439C9.05408 8.70433 9.054 8.70428 9.05392 8.70423M9.05416 8.70439L9.05392 8.70423M9.05392 8.70423L7.72249 7.82954L7.722 7.82922C7.61832 7.76076 7.46279 7.80949 7.42656 7.96256L7.42564 7.96643L7.42561 7.96642L7.25754 8.62925L7.20716 8.82794L7.00245 8.81748C6.297 8.78141 5.60575 9.19132 5.26181 9.9115L5.03621 9.80377L5.26195 9.9112C4.65557 11.1854 3.66434 12.2236 2.56056 13.1294C2.45077 13.2197 2.47348 13.4073 2.59862 13.4691L2.59933 13.4694L2.98638 13.6622C4.30692 13.7186 5.00834 12.6084 5.04934 12.542M5.04934 12.542C5.0489 12.5427 5.04847 12.5435 5.04803 12.5442L5.26311 12.6716L5.05012 12.5407C5.04989 12.5411 5.04963 12.5415 5.04934 12.542ZM5.14756 14.9226C5.3208 14.963 5.49429 14.9871 5.66652 14.996C5.83664 14.9173 5.99183 14.827 6.13214 14.7313C5.9629 14.7511 5.79085 14.7552 5.61786 14.7423C5.47316 14.8131 5.31639 14.8749 5.14756 14.9226ZM5.68811 12.3926C5.68743 12.3922 5.68675 12.3917 5.68606 12.3913L5.55092 12.6016L5.68811 12.3926ZM9.60608 7.02483C9.57161 7.20858 9.52471 7.38638 9.32912 7.7696L8.45959 7.19902C8.52913 7.00357 8.57054 6.80409 8.61436 6.59296C8.61637 6.5833 8.61838 6.57362 8.62039 6.56392C8.68276 6.26389 8.75697 5.913 8.92123 5.44603L8.9216 5.44493C9.10055 4.92859 9.25047 4.62575 10.1615 2.7856C10.3357 2.43379 10.5377 2.02578 10.773 1.54934L10.7733 1.54876C10.9084 1.27334 11.2253 1.17507 11.4761 1.31071L11.4776 1.3115C11.734 1.44792 11.844 1.78572 11.7048 2.06973C11.4539 2.57774 11.2417 3.00636 11.0615 3.37048C10.1794 5.15228 10.0619 5.38964 9.90762 5.82674L9.907 5.82856C9.71627 6.3824 9.66637 6.67511 9.62789 6.90086C9.6205 6.94419 9.61354 6.98506 9.60608 7.02483ZM13.75 7.80102C13.75 8.20119 13.44 8.50971 13.0778 8.50971C12.7174 8.50971 12.4072 8.20144 12.4072 7.80102C12.4072 7.39882 12.7177 7.09082 13.0778 7.09082C13.4397 7.09082 13.75 7.39909 13.75 7.80102ZM3.59282 8.14109C3.59282 8.54126 3.2828 8.84976 2.92068 8.84976C2.56026 8.84976 2.25 8.54151 2.25 8.14109C2.25 7.73888 2.56053 7.43089 2.92068 7.43089C3.28256 7.43089 3.59282 7.73915 3.59282 8.14109ZM11.9073 12.0611C11.9073 12.3377 11.6938 12.5457 11.4507 12.5457C11.2091 12.5457 10.9953 12.3379 10.9953 12.0611C10.9953 11.7829 11.2093 11.5754 11.4507 11.5754C11.6935 11.5754 11.9073 11.7832 11.9073 12.0611ZM7.19079 5.00316C7.19079 5.2797 6.97726 5.48774 6.73421 5.48774C6.49256 5.48774 6.27877 5.27996 6.27877 5.00316C6.27877 4.72497 6.49281 4.51745 6.73421 4.51745C6.97701 4.51745 7.19079 4.72523 7.19079 5.00316ZM4.6369 3.51443C4.6369 3.79096 4.42336 3.99901 4.18032 3.99901C3.93865 3.99901 3.72488 3.79123 3.72488 3.51443C3.72488 3.2362 3.9389 3.02869 4.18032 3.02869C4.42311 3.02869 4.6369 3.23647 4.6369 3.51443Z" stroke="#EDF2FF" stroke-width="0.5"/>
<path d="M4.3231 14.341C4.32799 14.3388 4.33286 14.3366 4.33772 14.3344L4.0389 14.1859C3.92632 14.2266 3.80778 14.2613 3.68327 14.2882L4.02099 14.4562C4.11737 14.4252 4.2099 14.3901 4.29857 14.3517M4.3231 14.341C4.31508 14.3408 4.30703 14.3405 4.29896 14.3403L4.29857 14.3517M4.3231 14.341C4.31496 14.3446 4.30678 14.3481 4.29857 14.3517M4.3231 14.341C4.33271 14.3412 4.34229 14.3413 4.35183 14.3415M4.29857 14.3517L4.29041 14.5901L4.40172 14.3663L4.35183 14.3415M7.12619 13.7089C7.25949 13.4921 7.19232 13.2073 6.98434 13.0708L6.98228 13.0694C6.76418 12.9293 6.47654 12.9982 6.34337 13.2181L6.55723 13.3476L6.34424 13.2167C6.31286 13.2677 5.63653 14.3555 4.35183 14.3415M7.12619 13.7089L4.35183 14.3415M7.12619 13.7089C7.12694 13.7076 7.12758 13.7065 7.1281 13.7056L6.91227 13.5795L7.12414 13.7122C7.12483 13.7111 7.12552 13.71 7.12619 13.7089ZM9.05416 8.70439L9.05442 8.70456L9.19169 8.49561L9.05392 8.70423M9.05416 8.70439L5.04934 12.542M9.05416 8.70439C9.05408 8.70433 9.054 8.70428 9.05392 8.70423M9.05416 8.70439L9.05392 8.70423M9.05392 8.70423L7.72249 7.82954L7.722 7.82922C7.61832 7.76076 7.46279 7.80949 7.42656 7.96256L7.42564 7.96643L7.42561 7.96642L7.25754 8.62925L7.20716 8.82794L7.00245 8.81748C6.297 8.78141 5.60575 9.19132 5.26181 9.9115L5.03621 9.80377L5.26195 9.9112C4.65557 11.1854 3.66434 12.2236 2.56056 13.1294C2.45077 13.2197 2.47348 13.4073 2.59862 13.4691L2.59933 13.4694L2.98638 13.6622C4.30692 13.7186 5.00834 12.6084 5.04934 12.542M5.04934 12.542C5.0489 12.5427 5.04847 12.5435 5.04803 12.5442L5.26311 12.6716L5.05012 12.5407C5.04989 12.5411 5.04963 12.5415 5.04934 12.542ZM5.14756 14.9226C5.3208 14.963 5.49429 14.9871 5.66652 14.996C5.83664 14.9173 5.99183 14.827 6.13214 14.7313C5.9629 14.7511 5.79085 14.7552 5.61786 14.7423C5.47316 14.8131 5.31639 14.8749 5.14756 14.9226ZM5.68811 12.3926C5.68743 12.3922 5.68675 12.3917 5.68606 12.3913L5.55092 12.6016L5.68811 12.3926ZM9.60608 7.02483C9.57161 7.20858 9.52471 7.38638 9.32912 7.7696L8.45959 7.19902C8.52913 7.00357 8.57054 6.80409 8.61436 6.59296C8.61637 6.5833 8.61838 6.57362 8.62039 6.56392C8.68276 6.26389 8.75697 5.913 8.92123 5.44603L8.9216 5.44493C9.10055 4.92859 9.25047 4.62575 10.1615 2.7856C10.3357 2.43379 10.5377 2.02578 10.773 1.54934L10.7733 1.54876C10.9084 1.27334 11.2253 1.17507 11.4761 1.31071L11.4776 1.3115C11.734 1.44792 11.844 1.78572 11.7048 2.06973C11.4539 2.57774 11.2417 3.00636 11.0615 3.37048C10.1794 5.15228 10.0619 5.38964 9.90762 5.82674L9.907 5.82856C9.71627 6.3824 9.66637 6.67511 9.62789 6.90086C9.6205 6.94419 9.61354 6.98506 9.60608 7.02483ZM13.75 7.80102C13.75 8.20119 13.44 8.50971 13.0778 8.50971C12.7174 8.50971 12.4072 8.20144 12.4072 7.80102C12.4072 7.39882 12.7177 7.09082 13.0778 7.09082C13.4397 7.09082 13.75 7.39909 13.75 7.80102ZM3.59282 8.14109C3.59282 8.54126 3.2828 8.84976 2.92068 8.84976C2.56026 8.84976 2.25 8.54151 2.25 8.14109C2.25 7.73888 2.56053 7.43089 2.92068 7.43089C3.28256 7.43089 3.59282 7.73915 3.59282 8.14109ZM11.9073 12.0611C11.9073 12.3377 11.6938 12.5457 11.4507 12.5457C11.2091 12.5457 10.9953 12.3379 10.9953 12.0611C10.9953 11.7829 11.2093 11.5754 11.4507 11.5754C11.6935 11.5754 11.9073 11.7832 11.9073 12.0611ZM7.19079 5.00316C7.19079 5.2797 6.97726 5.48774 6.73421 5.48774C6.49256 5.48774 6.27877 5.27996 6.27877 5.00316C6.27877 4.72497 6.49281 4.51745 6.73421 4.51745C6.97701 4.51745 7.19079 4.72523 7.19079 5.00316ZM4.6369 3.51443C4.6369 3.79096 4.42336 3.99901 4.18032 3.99901C3.93865 3.99901 3.72488 3.79123 3.72488 3.51443C3.72488 3.2362 3.9389 3.02869 4.18032 3.02869C4.42311 3.02869 4.6369 3.23647 4.6369 3.51443Z" stroke="url(#paint1_linear_2487_9674)" stroke-width="0.5"/>
<defs>
<linearGradient id="paint0_linear_2487_9674" x1="8" y1="15.1" x2="8" y2="0.900005" gradientUnits="userSpaceOnUse">
<stop stop-color="#1C2230" stop-opacity="0"/>
<stop offset="1" stop-color="#1C2230" stop-opacity="0.35"/>
</linearGradient>
<linearGradient id="paint1_linear_2487_9674" x1="8" y1="15.1" x2="8" y2="0.900005" gradientUnits="userSpaceOnUse">
<stop stop-color="#1C2230" stop-opacity="0"/>
<stop offset="1" stop-color="#1C2230" stop-opacity="0.35"/>
</linearGradient>
</defs>
</svg>
