<svg width="16" height="16" viewBox="0 0 16 16" fill="none" xmlns="http://www.w3.org/2000/svg">
<path d="M7.22307 10.6087L4.33911 7.21739C3.98786 6.80435 3.90948 6.33174 4.10396 5.79957C4.29844 5.26739 4.64489 5.00087 5.14329 5H10.8557C11.3549 5 11.7017 5.26652 11.8962 5.79957C12.0907 6.33261 12.0119 6.80522 11.6599 7.21739L8.77596 10.6087C8.66504 10.7391 8.54488 10.837 8.41547 10.9022C8.28606 10.9674 8.14741 11 7.99952 11C7.85162 11 7.71297 10.9674 7.58356 10.9022C7.45415 10.837 7.33399 10.7391 7.22307 10.6087Z" fill="#D1D9EB"/>
<path d="M7.22307 10.6087L4.33911 7.21739C3.98786 6.80435 3.90948 6.33174 4.10396 5.79957C4.29844 5.26739 4.64489 5.00087 5.14329 5H10.8557C11.3549 5 11.7017 5.26652 11.8962 5.79957C12.0907 6.33261 12.0119 6.80522 11.6599 7.21739L8.77596 10.6087C8.66504 10.7391 8.54488 10.837 8.41547 10.9022C8.28606 10.9674 8.14741 11 7.99952 11C7.85162 11 7.71297 10.9674 7.58356 10.9022C7.45415 10.837 7.33399 10.7391 7.22307 10.6087Z" fill="url(#paint0_linear_39_12738)"/>
<defs>
<linearGradient id="paint0_linear_39_12738" x1="8" y1="11.0429" x2="8" y2="4.95714" gradientUnits="userSpaceOnUse">
<stop stop-color="#1C2230" stop-opacity="0"/>
<stop offset="1" stop-color="#1C2230" stop-opacity="0.35"/>
</linearGradient>
</defs>
</svg>
