<svg width="16" height="16" viewBox="0 0 16 16" fill="none" xmlns="http://www.w3.org/2000/svg">
<path d="M4 10.6667C3.87619 10.6667 3.75483 10.6322 3.64951 10.5671C3.54419 10.502 3.45908 10.4089 3.40371 10.2981C3.34834 10.1874 3.3249 10.0634 3.33602 9.94013C3.34714 9.81682 3.39238 9.69905 3.46666 9.6L7.46666 4.26667C7.52876 4.18387 7.60928 4.11667 7.70185 4.07038C7.79442 4.0241 7.8965 4 8 4C8.10349 4 8.20557 4.0241 8.29814 4.07038C8.39071 4.11667 8.47123 4.18387 8.53333 4.26667L12.5333 9.6C12.6076 9.69905 12.6529 9.81682 12.664 9.94013C12.6751 10.0634 12.6516 10.1874 12.5963 10.2981C12.5409 10.4089 12.4558 10.502 12.3505 10.5671C12.2452 10.6322 12.1238 10.6667 12 10.6667H4Z" fill="black"/>
</svg>
