<svg width="16" height="16" viewBox="0 0 16 16" fill="none" xmlns="http://www.w3.org/2000/svg">
    <path d="M7.99992 1.33325C4.31802 1.33325 1.33325 4.31802 1.33325 7.99992C1.33325 11.6818 4.31802 14.6666 7.99992 14.6666C11.6818 14.6666 14.6666 11.6818 14.6666 7.99992C14.6666 4.31802 11.6818 1.33325 7.99992 1.33325Z" fill="#2F374A" fill-opacity="0.25"/>
    <path fill-rule="evenodd" clip-rule="evenodd" d="M7.42207 6.3339C7.23771 6.65261 6.82989 6.76151 6.51118 6.57715C6.19248 6.39279 6.08357 5.98497 6.26793 5.66626C6.61273 5.0702 7.25884 4.66675 7.99996 4.66675C9.10453 4.66675 9.99996 5.56218 9.99996 6.66675C9.99995 7.39857 9.55103 7.99607 8.99996 8.33341C8.5573 8.60439 8.83329 9.33341 7.99821 9.33341C7.63002 9.33341 7.33154 9.03494 7.33154 8.66675C7.33154 8.64334 7.33275 8.62022 7.3351 8.59743C7.35359 8.24485 7.51081 7.95798 7.68198 7.74937C7.86276 7.52907 8.10044 7.34922 8.28219 7.24118C9.29333 6.64008 8.06007 5.41035 7.42207 6.3339ZM7.99821 10.0001C7.63002 10.0001 7.33154 10.2986 7.33154 10.6667C7.33154 11.0349 7.63002 11.3334 7.99821 11.3334C8.3664 11.3334 8.66488 11.0349 8.66488 10.6667C8.66488 10.2986 8.3664 10.0001 7.99821 10.0001Z" fill="#2F374A"/>
</svg>