<svg width="10" height="10" viewBox="0 0 10 10" fill="none" xmlns="http://www.w3.org/2000/svg">
<g clip-path="url(#clip0_4009_400)">
<path d="M3.33304 9.58332L3.33304 1.11707L3.33929 1.1229L4.29138 2.0579C4.32981 2.09882 4.37612 2.13154 4.42752 2.15411C4.47891 2.17668 4.53434 2.18863 4.59047 2.18925C4.6466 2.18987 4.70228 2.17914 4.75416 2.1577C4.80604 2.13627 4.85305 2.10457 4.89238 2.06451C4.9317 2.02446 4.96253 1.97687 4.98301 1.9246C5.00348 1.87234 5.01319 1.81647 5.01154 1.76036C5.00989 1.70425 4.99692 1.64905 4.97341 1.59808C4.94989 1.54711 4.91632 1.50141 4.87471 1.46374L3.92596 0.530821C3.85804 0.462904 3.75388 0.367904 3.64429 0.270821C3.44716 0.0964795 3.19308 0.000244061 2.92992 0.00024405C2.66676 0.000244038 2.41268 0.0964794 2.21554 0.27082C2.10638 0.367904 2.00221 0.462904 1.93638 0.528321L0.984712 1.46374C0.911041 1.54215 0.870561 1.64603 0.871744 1.75361C0.872927 1.8612 0.915683 1.96416 0.99106 2.04094C1.06644 2.11771 1.16859 2.16236 1.27614 2.16552C1.38369 2.16868 1.48829 2.13012 1.56804 2.0579L2.49971 1.14332L2.49971 9.58332C2.49971 9.69383 2.54361 9.79981 2.62175 9.87795C2.69989 9.95609 2.80587 9.99999 2.91638 9.99999C3.02688 9.99999 3.13287 9.95609 3.21101 9.87795C3.28915 9.79981 3.33304 9.69383 3.33304 9.58332Z" fill="#60719A"/>
<path d="M6.6663 0.416667L6.6663 8.85625L5.73589 7.94208C5.69745 7.90117 5.65115 7.86845 5.59975 7.84588C5.54835 7.82331 5.49293 7.81135 5.4368 7.81074C5.38066 7.81012 5.32499 7.82085 5.27311 7.84228C5.22123 7.86372 5.17421 7.89542 5.13489 7.93547C5.09556 7.97553 5.06473 8.02312 5.04426 8.07538C5.02378 8.12765 5.01408 8.18352 5.01573 8.23963C5.01738 8.29574 5.03035 8.35093 5.05386 8.40191C5.07737 8.45288 5.11094 8.49857 5.15255 8.53625L6.10214 9.46917C6.17005 9.53708 6.27422 9.63208 6.38339 9.72917C6.58052 9.90351 6.8346 9.99974 7.09776 9.99974C7.36093 9.99974 7.61501 9.90351 7.81214 9.72917C7.92172 9.63208 8.02589 9.53708 8.0913 9.47167L9.0413 8.53625C9.11497 8.45783 9.15545 8.35396 9.15427 8.24637C9.15309 8.13879 9.11033 8.03583 9.03496 7.95905C8.95958 7.88227 8.85742 7.83763 8.74988 7.83447C8.64233 7.83131 8.53773 7.86987 8.45797 7.94208L7.5038 8.88L7.49964 8.88333L7.49964 0.416667C7.49964 0.30616 7.45574 0.200179 7.3776 0.122039C7.29946 0.0438986 7.19348 -8.57101e-08 7.08297 -9.05405e-08C6.97246 -9.53709e-08 6.86648 0.0438986 6.78834 0.122039C6.7102 0.200179 6.6663 0.30616 6.6663 0.416667Z" fill="#60719A"/>
</g>
<defs>
<clipPath id="clip0_4009_400">
<rect width="10" height="10" fill="white" transform="translate(10) rotate(90)"/>
</clipPath>
</defs>
</svg>
