<svg viewBox="0 0 16 16" xmlns="http://www.w3.org/2000/svg">
<path d="M12.06 3.21591V4.3369H10.6925V3.56991C10.6925 3.41087 10.5558 3.28261 10.3862 3.28261H5.61926C5.4497 3.28261 5.31295 3.41087 5.31295 3.56991V4.3369H3.9455V3.21591C3.9455 2.54383 4.5253 2.00001 5.24184 2.00001H10.7609C11.4774 1.99744 12.06 2.54383 12.06 3.21591Z" fill="black"/>
<path d="M2.60813 4.54212H13.3919C14.2807 4.54212 15 5.21676 15 6.05045V12.4917C15 13.3253 14.2807 14 13.3919 14H2.60813C1.71928 14.0026 1 13.3253 1 12.4917V6.05045C1 5.21676 1.71928 4.54212 2.60813 4.54212Z" />
</svg>
