<svg  viewBox="0 0 18 18" xmlns="http://www.w3.org/2000/svg">
<path fill-rule="evenodd" clip-rule="evenodd" d="M0 6.4C0 4.15979 0 3.03969 0.435974 2.18404C0.819467 1.43139 1.43139 0.819467 2.18404 0.435974C3.03969 0 4.15979 0 6.4 0H11.6C13.8402 0 14.9603 0 15.816 0.435974C16.5686 0.819467 17.1805 1.43139 17.564 2.18404C18 3.03969 18 4.15979 18 6.4V11.6C18 13.8402 18 14.9603 17.564 15.816C17.1805 16.5686 16.5686 17.1805 15.816 17.564C14.9603 18 13.8402 18 11.6 18H6.4C4.15979 18 3.03969 18 2.18404 17.564C1.43139 17.1805 0.819467 16.5686 0.435974 15.816C0 14.9603 0 13.8402 0 11.6V6.4ZM9 8C9.55229 8 10 8.44771 10 9V13C10 13.5523 9.55229 14 9 14C8.44771 14 8 13.5523 8 13V9C8 8.44771 8.44771 8 9 8ZM9 4C8.44771 4 8 4.44772 8 5C8 5.55228 8.44771 6 9 6C9.55229 6 10 5.55228 10 5C10 4.44772 9.55229 4 9 4Z" fill="#5F6C87"/>
</svg>
