<svg viewBox="0 0 24 24" xmlns="http://www.w3.org/2000/svg">
<path d="M20.6114 11.9975C20.6121 11.7067 20.6742 11.4196 20.7933 11.1568C20.9124 10.894 21.0855 10.6619 21.3003 10.4772C21.6068 10.2145 21.8276 9.85872 21.9321 9.45912C22.0367 9.05952 22.0199 8.63582 21.884 8.24665C21.6757 7.64199 21.4197 7.0565 21.1185 6.49625C20.8051 5.93847 20.4466 5.40975 20.0469 4.91589C19.7901 4.60048 19.4465 4.37554 19.0629 4.27172C18.6794 4.1679 18.2745 4.19026 17.9036 4.33576C17.6447 4.43934 17.367 4.48141 17.0906 4.45892C16.8143 4.43643 16.5461 4.34994 16.3057 4.20573C16.0655 4.05966 15.8588 3.8604 15.7002 3.62194C15.5415 3.38349 15.4346 3.11162 15.3872 2.82542C15.3201 2.41216 15.1324 2.03071 14.8497 1.73343C14.5671 1.43615 14.2033 1.2376 13.8084 1.16504C12.612 0.944987 11.388 0.944987 10.1916 1.16504C9.79537 1.23437 9.42993 1.43187 9.14671 1.72973C8.86349 2.02759 8.67678 2.4108 8.61285 2.82542C8.56348 3.11093 8.45589 3.38198 8.29739 3.62016C8.13889 3.85834 7.9332 4.05805 7.6943 4.20573C7.45358 4.34873 7.18599 4.43532 6.91009 4.4595C6.63418 4.48368 6.35654 4.44487 6.0964 4.34576C5.72095 4.19888 5.31108 4.17775 4.92362 4.28528C4.53616 4.39281 4.1903 4.62368 3.93398 4.9459C3.15095 5.91755 2.53577 7.02434 2.11602 8.21664C1.98008 8.61056 1.96317 9.03862 2.06756 9.44291C2.17195 9.84721 2.3926 10.2082 2.69968 10.4772C2.91502 10.6614 3.08853 10.8934 3.20767 11.1564C3.32682 11.4193 3.38862 11.7066 3.38862 11.9975C3.38862 12.2884 3.32682 12.5757 3.20767 12.8386C3.08853 13.1016 2.91502 13.3336 2.69968 13.5178C2.39322 13.7805 2.17244 14.1363 2.06787 14.5359C1.96331 14.9355 1.98013 15.3592 2.11602 15.7484C2.32426 16.353 2.5803 16.9385 2.88148 17.4988C3.19491 18.0565 3.55343 18.5852 3.95312 19.0791C4.21128 19.3926 4.55488 19.6161 4.93792 19.7198C5.32096 19.8235 5.72516 19.8023 6.0964 19.6592C6.3553 19.5557 6.63299 19.5136 6.90936 19.5361C7.18573 19.5586 7.45385 19.6451 7.6943 19.7893C7.93448 19.9353 8.14116 20.1346 8.29985 20.3731C8.45853 20.6115 8.56536 20.8834 8.61285 21.1696C8.67678 21.5842 8.86349 21.9674 9.14671 22.2653C9.42993 22.5631 9.79537 22.7606 10.1916 22.83C10.7821 22.9411 11.3808 22.998 11.9809 23C12.5936 22.9984 13.205 22.9416 13.8084 22.83C14.2046 22.7606 14.5701 22.5631 14.8533 22.2653C15.1365 21.9674 15.3232 21.5842 15.3872 21.1696C15.4365 20.8841 15.5441 20.613 15.7026 20.3748C15.8611 20.1367 16.0668 19.937 16.3057 19.7893C16.5464 19.6461 16.8139 19.5594 17.0899 19.5352C17.3658 19.511 17.6435 19.5499 17.9036 19.6492C18.2784 19.8016 18.6897 19.8255 19.0784 19.7177C19.467 19.6098 19.8129 19.3757 20.066 19.0491C20.851 18.0789 21.4664 16.9717 21.884 15.7784C22.0199 15.3844 22.0368 14.9564 21.9324 14.5521C21.8281 14.1478 21.6074 13.7868 21.3003 13.5178C21.0855 13.3331 20.9124 13.101 20.7933 12.8382C20.6742 12.5754 20.6121 12.2883 20.6114 11.9975ZM8.17921 14.4052C8.09042 14.4981 7.98499 14.5718 7.86895 14.622C7.75291 14.6723 7.62853 14.6981 7.50293 14.6981C7.43511 14.6979 7.36748 14.6904 7.30114 14.6756C7.14488 14.6404 6.99955 14.5649 6.87843 14.4559C6.75731 14.3468 6.66427 14.2078 6.60782 14.0515C6.37344 13.3946 6.25526 12.6986 6.25906 11.9975C6.26073 10.4064 6.86612 8.88092 7.94239 7.75583C9.01866 6.63073 10.4779 5.99788 12 5.99614C12.6707 5.99208 13.3366 6.11554 13.965 6.36052C14.0826 6.40695 14.1902 6.47713 14.2818 6.56706C14.3734 6.65698 14.4472 6.76489 14.4989 6.88462C14.5506 7.00434 14.5793 7.13355 14.5832 7.26485C14.5872 7.39615 14.5664 7.52698 14.5219 7.64986C14.4775 7.77275 14.4104 7.88529 14.3244 7.98105C14.2383 8.07681 14.1351 8.15392 14.0206 8.20798C13.9061 8.26205 13.7825 8.292 13.6569 8.29612C13.5313 8.30025 13.4061 8.27848 13.2886 8.23204C12.8762 8.0726 12.4396 7.99282 12 7.99659C11.0578 7.99774 10.1491 8.36159 9.44722 9.01869C8.74538 9.67578 8.29964 10.5801 8.1951 11.5589L8.45344 11.2903C8.6339 11.1081 8.87559 11.0073 9.12647 11.0096C9.37735 11.0119 9.61733 11.1171 9.79473 11.3025C9.97213 11.488 10.0728 11.7388 10.0749 12.0011C10.0771 12.2634 9.98068 12.516 9.80639 12.7047L8.17921 14.4052ZM12 17.9989C11.3293 18.0029 10.6634 17.8795 10.035 17.6345C9.79756 17.5407 9.60551 17.3522 9.50107 17.1104C9.39663 16.8686 9.38835 16.5933 9.47805 16.3451C9.56776 16.097 9.7481 15.8962 9.97941 15.787C10.2107 15.6778 10.474 15.6692 10.7114 15.763C11.1238 15.9224 11.5604 16.0022 12 15.9984C12.9422 15.9973 13.8509 15.6334 14.5528 14.9763C15.2546 14.3192 15.7004 13.4149 15.8049 12.4361L15.5466 12.7047C15.3661 12.8869 15.1244 12.9877 14.8735 12.9854C14.6227 12.9831 14.3827 12.8779 14.2053 12.6925C14.0279 12.507 13.9272 12.2562 13.9251 11.9939C13.9229 11.7316 14.0193 11.479 14.1936 11.2903L15.8202 9.58995C15.9333 9.47177 16.0728 9.38509 16.2262 9.33782C16.3796 9.29056 16.5418 9.28422 16.6981 9.31938C16.8544 9.35455 16.9998 9.4301 17.121 9.53913C17.2421 9.64816 17.3353 9.7872 17.3918 9.94353C17.6263 10.6004 17.7446 11.2964 17.7409 11.9975C17.7393 13.5886 17.1339 15.1141 16.0576 16.2392C14.9813 17.3643 13.5221 17.9971 12 17.9989Z" />
</svg>
