<svg viewBox="0 0 20 21" xmlns="http://www.w3.org/2000/svg">
<path fill-rule="evenodd" clip-rule="evenodd" d="M11.5057 5.13154L12.9512 6.53487L6.54231 12.9506C6.22072 13.2741 6.22072 13.7949 6.54231 14.1185C6.84747 14.4256 7.35726 14.4242 7.65917 14.1168L14.7103 7.05526C15.7397 6.01964 15.7397 4.35643 14.7103 3.32081C13.7282 2.33272 11.9904 2.3547 11.0279 3.32269L3.33168 11.0248C1.59409 12.7722 1.59409 15.5782 3.33168 17.3256C5.01897 19.0224 7.91747 18.9947 9.5784 17.324L18.5544 8.33682L20 9.74003L11.0256 18.7255C8.57708 21.1886 4.37194 21.2287 1.88297 18.7256C-0.627946 16.2005 -0.627946 12.1498 1.8847 9.623L9.5809 1.92089C11.3291 0.162837 14.3735 0.124331 16.1593 1.92104C17.9617 3.73429 17.9617 6.64178 16.1577 8.45667L9.11078 15.5139C8.02068 16.6239 6.19703 16.6289 5.0932 15.5182C3.99882 14.417 3.99882 12.6521 5.09503 11.5491L11.5057 5.13154Z" />
</svg>
