<svg viewBox="0 0 17 16" xmlns="http://www.w3.org/2000/svg">
<path d="M13.8346 8.00016V12.0002C13.8346 13.4735 12.6413 14.6668 11.168 14.6668H5.83464C4.3613 14.6668 3.16797 13.4735 3.16797 12.0002V8.00016C3.16797 7.6335 3.46797 7.3335 3.83464 7.3335H5.14797C5.51464 7.3335 5.81464 7.6335 5.81464 8.00016V10.0935C5.81464 10.5868 6.08797 11.0402 6.5213 11.2735C6.71464 11.3802 6.92797 11.4335 7.14797 11.4335C7.4013 11.4335 7.65464 11.3602 7.87464 11.2135L8.50797 10.8002L9.09464 11.1935C9.5013 11.4668 10.0213 11.5002 10.4546 11.2668C10.8946 11.0335 11.168 10.5868 11.168 10.0868V8.00016C11.168 7.6335 11.468 7.3335 11.8346 7.3335H13.168C13.5346 7.3335 13.8346 7.6335 13.8346 8.00016Z"/>
<path d="M14.8346 4.66683V5.3335C14.8346 6.06683 14.4813 6.66683 13.5013 6.66683H3.5013C2.4813 6.66683 2.16797 6.06683 2.16797 5.3335V4.66683C2.16797 3.9335 2.4813 3.3335 3.5013 3.3335H13.5013C14.4813 3.3335 14.8346 3.9335 14.8346 4.66683Z"/>
<path d="M8.25921 3.33329H4.57921C4.35254 3.08663 4.35921 2.70663 4.59921 2.46663L5.54587 1.51996C5.79254 1.27329 6.19921 1.27329 6.44587 1.51996L8.25921 3.33329Z"/>
<path d="M12.4144 3.33329H8.73438L10.5477 1.51996C10.7944 1.27329 11.201 1.27329 11.4477 1.51996L12.3944 2.46663C12.6344 2.70663 12.641 3.08663 12.4144 3.33329Z"/>
<path d="M9.81427 7.3335C10.1809 7.3335 10.4809 7.6335 10.4809 8.00016V10.0868C10.4809 10.6202 9.8876 10.9402 9.4476 10.6402L8.8476 10.2402C8.6276 10.0935 8.34094 10.0935 8.11427 10.2402L7.4876 10.6535C7.0476 10.9468 6.46094 10.6268 6.46094 10.1002V8.00016C6.46094 7.6335 6.76094 7.3335 7.1276 7.3335H9.81427Z"/>
</svg>
