<svg width="16" height="20" viewBox="0 0 16 20" fill="none" xmlns="http://www.w3.org/2000/svg">
<mask id="path-1-inside-1_2358_655" fill="white">
<path fill-rule="evenodd" clip-rule="evenodd" d="M0 4.8C0 3.11984 0 2.27976 0.32698 1.63803C0.614601 1.07354 1.07354 0.614601 1.63803 0.32698C2.27976 0 3.11984 0 4.8 0H8.22222C8.48131 0 8.61085 0 8.71131 0.0468461C8.81785 0.0965254 8.90347 0.182153 8.95315 0.288691C9 0.389153 9 0.518694 9 0.777778C9 2.85044 9 3.88678 9.37477 4.69047C9.7722 5.54277 10.4572 6.2278 11.3095 6.62523C12.1132 7 13.1496 7 15.2222 7C15.4813 7 15.6108 7 15.7113 7.04685C15.8178 7.09653 15.9035 7.18215 15.9532 7.28869C16 7.38915 16 7.51869 16 7.77778V15.2C16 16.8802 16 17.7202 15.673 18.362C15.3854 18.9265 14.9265 19.3854 14.362 19.673C13.7202 20 12.8802 20 11.2 20H4.8C3.11984 20 2.27976 20 1.63803 19.673C1.07354 19.3854 0.614601 18.9265 0.32698 18.362C0 17.7202 0 16.8802 0 15.2V4.8ZM8.46173 8.31018C8.29094 7.89954 7.70921 7.89954 7.53841 8.31018L6.74899 10.2082C6.67745 10.3802 6.51622 10.4982 6.33064 10.5143L4.46228 10.6767C4.03355 10.714 3.84906 11.2395 4.16041 11.5366L5.57961 12.8908C5.7083 13.0136 5.76206 13.1956 5.72079 13.3686L5.24015 15.3835C5.13696 15.8161 5.60758 16.158 5.98713 15.9262L7.73945 14.8559C7.89945 14.7582 8.10069 14.7582 8.2607 14.8559L10.013 15.9262C10.3926 16.158 10.8632 15.8161 10.76 15.3835L10.2795 13.3692C10.2382 13.1958 10.2922 13.0136 10.4214 12.8908L11.8454 11.5373C12.1577 11.2404 11.9734 10.7139 11.5441 10.6767L9.6696 10.5142C9.48397 10.4981 9.32268 10.3802 9.25112 10.2081L8.46173 8.31018Z"/>
<path d="M10.9999 0.707129C10.9999 0.316604 11.3165 2.19345e-05 11.707 2.19345e-05C11.8945 2.19345e-05 12.0744 0.0745205 12.207 0.207129L15.7928 3.79292C15.9254 3.92552 15.9999 4.10538 15.9999 4.29292C15.9999 4.68344 15.6833 5.00002 15.2928 5.00002H12.9999C11.8953 5.00002 10.9999 4.10459 10.9999 3.00002V0.707129Z"/>
</mask>
<path fill-rule="evenodd" clip-rule="evenodd" d="M0 4.8C0 3.11984 0 2.27976 0.32698 1.63803C0.614601 1.07354 1.07354 0.614601 1.63803 0.32698C2.27976 0 3.11984 0 4.8 0H8.22222C8.48131 0 8.61085 0 8.71131 0.0468461C8.81785 0.0965254 8.90347 0.182153 8.95315 0.288691C9 0.389153 9 0.518694 9 0.777778C9 2.85044 9 3.88678 9.37477 4.69047C9.7722 5.54277 10.4572 6.2278 11.3095 6.62523C12.1132 7 13.1496 7 15.2222 7C15.4813 7 15.6108 7 15.7113 7.04685C15.8178 7.09653 15.9035 7.18215 15.9532 7.28869C16 7.38915 16 7.51869 16 7.77778V15.2C16 16.8802 16 17.7202 15.673 18.362C15.3854 18.9265 14.9265 19.3854 14.362 19.673C13.7202 20 12.8802 20 11.2 20H4.8C3.11984 20 2.27976 20 1.63803 19.673C1.07354 19.3854 0.614601 18.9265 0.32698 18.362C0 17.7202 0 16.8802 0 15.2V4.8ZM8.46173 8.31018C8.29094 7.89954 7.70921 7.89954 7.53841 8.31018L6.74899 10.2082C6.67745 10.3802 6.51622 10.4982 6.33064 10.5143L4.46228 10.6767C4.03355 10.714 3.84906 11.2395 4.16041 11.5366L5.57961 12.8908C5.7083 13.0136 5.76206 13.1956 5.72079 13.3686L5.24015 15.3835C5.13696 15.8161 5.60758 16.158 5.98713 15.9262L7.73945 14.8559C7.89945 14.7582 8.10069 14.7582 8.2607 14.8559L10.013 15.9262C10.3926 16.158 10.8632 15.8161 10.76 15.3835L10.2795 13.3692C10.2382 13.1958 10.2922 13.0136 10.4214 12.8908L11.8454 11.5373C12.1577 11.2404 11.9734 10.7139 11.5441 10.6767L9.6696 10.5142C9.48397 10.4981 9.32268 10.3802 9.25112 10.2081L8.46173 8.31018Z" fill="#12131A"/>
<path fill-rule="evenodd" clip-rule="evenodd" d="M0 4.8C0 3.11984 0 2.27976 0.32698 1.63803C0.614601 1.07354 1.07354 0.614601 1.63803 0.32698C2.27976 0 3.11984 0 4.8 0H8.22222C8.48131 0 8.61085 0 8.71131 0.0468461C8.81785 0.0965254 8.90347 0.182153 8.95315 0.288691C9 0.389153 9 0.518694 9 0.777778C9 2.85044 9 3.88678 9.37477 4.69047C9.7722 5.54277 10.4572 6.2278 11.3095 6.62523C12.1132 7 13.1496 7 15.2222 7C15.4813 7 15.6108 7 15.7113 7.04685C15.8178 7.09653 15.9035 7.18215 15.9532 7.28869C16 7.38915 16 7.51869 16 7.77778V15.2C16 16.8802 16 17.7202 15.673 18.362C15.3854 18.9265 14.9265 19.3854 14.362 19.673C13.7202 20 12.8802 20 11.2 20H4.8C3.11984 20 2.27976 20 1.63803 19.673C1.07354 19.3854 0.614601 18.9265 0.32698 18.362C0 17.7202 0 16.8802 0 15.2V4.8ZM8.46173 8.31018C8.29094 7.89954 7.70921 7.89954 7.53841 8.31018L6.74899 10.2082C6.67745 10.3802 6.51622 10.4982 6.33064 10.5143L4.46228 10.6767C4.03355 10.714 3.84906 11.2395 4.16041 11.5366L5.57961 12.8908C5.7083 13.0136 5.76206 13.1956 5.72079 13.3686L5.24015 15.3835C5.13696 15.8161 5.60758 16.158 5.98713 15.9262L7.73945 14.8559C7.89945 14.7582 8.10069 14.7582 8.2607 14.8559L10.013 15.9262C10.3926 16.158 10.8632 15.8161 10.76 15.3835L10.2795 13.3692C10.2382 13.1958 10.2922 13.0136 10.4214 12.8908L11.8454 11.5373C12.1577 11.2404 11.9734 10.7139 11.5441 10.6767L9.6696 10.5142C9.48397 10.4981 9.32268 10.3802 9.25112 10.2081L8.46173 8.31018Z" fill="#D1D9EB"/>
<path fill-rule="evenodd" clip-rule="evenodd" d="M0 4.8C0 3.11984 0 2.27976 0.32698 1.63803C0.614601 1.07354 1.07354 0.614601 1.63803 0.32698C2.27976 0 3.11984 0 4.8 0H8.22222C8.48131 0 8.61085 0 8.71131 0.0468461C8.81785 0.0965254 8.90347 0.182153 8.95315 0.288691C9 0.389153 9 0.518694 9 0.777778C9 2.85044 9 3.88678 9.37477 4.69047C9.7722 5.54277 10.4572 6.2278 11.3095 6.62523C12.1132 7 13.1496 7 15.2222 7C15.4813 7 15.6108 7 15.7113 7.04685C15.8178 7.09653 15.9035 7.18215 15.9532 7.28869C16 7.38915 16 7.51869 16 7.77778V15.2C16 16.8802 16 17.7202 15.673 18.362C15.3854 18.9265 14.9265 19.3854 14.362 19.673C13.7202 20 12.8802 20 11.2 20H4.8C3.11984 20 2.27976 20 1.63803 19.673C1.07354 19.3854 0.614601 18.9265 0.32698 18.362C0 17.7202 0 16.8802 0 15.2V4.8ZM8.46173 8.31018C8.29094 7.89954 7.70921 7.89954 7.53841 8.31018L6.74899 10.2082C6.67745 10.3802 6.51622 10.4982 6.33064 10.5143L4.46228 10.6767C4.03355 10.714 3.84906 11.2395 4.16041 11.5366L5.57961 12.8908C5.7083 13.0136 5.76206 13.1956 5.72079 13.3686L5.24015 15.3835C5.13696 15.8161 5.60758 16.158 5.98713 15.9262L7.73945 14.8559C7.89945 14.7582 8.10069 14.7582 8.2607 14.8559L10.013 15.9262C10.3926 16.158 10.8632 15.8161 10.76 15.3835L10.2795 13.3692C10.2382 13.1958 10.2922 13.0136 10.4214 12.8908L11.8454 11.5373C12.1577 11.2404 11.9734 10.7139 11.5441 10.6767L9.6696 10.5142C9.48397 10.4981 9.32268 10.3802 9.25112 10.2081L8.46173 8.31018Z" fill="url(#paint0_linear_2358_655)"/>
<path d="M10.9999 0.707129C10.9999 0.316604 11.3165 2.19345e-05 11.707 2.19345e-05C11.8945 2.19345e-05 12.0744 0.0745205 12.207 0.207129L15.7928 3.79292C15.9254 3.92552 15.9999 4.10538 15.9999 4.29292C15.9999 4.68344 15.6833 5.00002 15.2928 5.00002H12.9999C11.8953 5.00002 10.9999 4.10459 10.9999 3.00002V0.707129Z" fill="#12131A"/>
<path d="M10.9999 0.707129C10.9999 0.316604 11.3165 2.19345e-05 11.707 2.19345e-05C11.8945 2.19345e-05 12.0744 0.0745205 12.207 0.207129L15.7928 3.79292C15.9254 3.92552 15.9999 4.10538 15.9999 4.29292C15.9999 4.68344 15.6833 5.00002 15.2928 5.00002H12.9999C11.8953 5.00002 10.9999 4.10459 10.9999 3.00002V0.707129Z" fill="#D1D9EB"/>
<path d="M10.9999 0.707129C10.9999 0.316604 11.3165 2.19345e-05 11.707 2.19345e-05C11.8945 2.19345e-05 12.0744 0.0745205 12.207 0.207129L15.7928 3.79292C15.9254 3.92552 15.9999 4.10538 15.9999 4.29292C15.9999 4.68344 15.6833 5.00002 15.2928 5.00002H12.9999C11.8953 5.00002 10.9999 4.10459 10.9999 3.00002V0.707129Z" fill="url(#paint1_linear_2358_655)"/>
<path d="M0.32698 1.63803L1.21799 2.09202L0.32698 1.63803ZM1.63803 0.32698L2.09202 1.21799L1.63803 0.32698ZM8.71131 0.0468461L9.13393 -0.859462V-0.859462L8.71131 0.0468461ZM8.95315 0.288691L8.04684 0.711305L8.04685 0.711311L8.95315 0.288691ZM9.37477 4.69047L10.2811 4.26786L10.2811 4.26785L9.37477 4.69047ZM11.3095 6.62523L11.7321 5.71892H11.7321L11.3095 6.62523ZM15.7113 7.04685L16.1339 6.14054L16.1339 6.14054L15.7113 7.04685ZM15.9532 7.28869L15.0468 7.71131L15.0468 7.71131L15.9532 7.28869ZM15.673 18.362L14.782 17.908L14.782 17.908L15.673 18.362ZM14.362 19.673L14.816 20.564H14.816L14.362 19.673ZM1.63803 19.673L1.18404 20.564H1.18404L1.63803 19.673ZM0.32698 18.362L1.21799 17.908L1.21799 17.908L0.32698 18.362ZM7.53841 8.31018L6.61509 7.92615V7.92615L7.53841 8.31018ZM8.46173 8.31018L9.38505 7.92615V7.92615L8.46173 8.31018ZM6.74899 10.2082L5.82567 9.82416L5.82567 9.82416L6.74899 10.2082ZM6.33064 10.5143L6.24402 9.51805H6.24402L6.33064 10.5143ZM4.46228 10.6767L4.5489 11.673H4.5489L4.46228 10.6767ZM4.16041 11.5366L4.85076 10.8131L4.85076 10.8131L4.16041 11.5366ZM5.57961 12.8908L4.88925 13.6143L4.88926 13.6143L5.57961 12.8908ZM5.72079 13.3686L4.74808 13.1365V13.1365L5.72079 13.3686ZM5.24015 15.3835L6.21286 15.6155L5.24015 15.3835ZM5.98713 15.9262L6.50839 16.7796H6.50839L5.98713 15.9262ZM7.73945 14.8559L8.2607 15.7093L8.2607 15.7093L7.73945 14.8559ZM8.2607 14.8559L7.73944 15.7093L7.73945 15.7093L8.2607 14.8559ZM10.013 15.9262L10.5343 15.0728L10.5343 15.0728L10.013 15.9262ZM10.76 15.3835L11.7327 15.1515V15.1515L10.76 15.3835ZM10.2795 13.3692L9.3068 13.6012L9.3068 13.6012L10.2795 13.3692ZM10.4214 12.8908L11.1103 13.6156L11.1103 13.6156L10.4214 12.8908ZM11.8454 11.5373L11.1565 10.8125L11.8454 11.5373ZM11.5441 10.6767L11.6305 9.68047L11.5441 10.6767ZM9.6696 10.5142L9.75597 9.51796H9.75597L9.6696 10.5142ZM9.25112 10.2081L8.3278 10.5921L8.32781 10.5921L9.25112 10.2081ZM15.7928 3.79292L16.4999 3.08581L15.7928 3.79292ZM12.207 0.207129L11.4999 0.914236L12.207 0.207129ZM-0.564026 1.18404C-0.811317 1.66937 -0.909881 2.18608 -0.955806 2.74817C-1.00078 3.2986 -1 3.97642 -1 4.8H1C1 3.94342 1.00078 3.36113 1.03755 2.91104C1.07337 2.47262 1.1383 2.24842 1.21799 2.09202L-0.564026 1.18404ZM1.18404 -0.564026C0.43139 -0.180533 -0.180533 0.43139 -0.564026 1.18404L1.21799 2.09202C1.40973 1.71569 1.71569 1.40973 2.09202 1.21799L1.18404 -0.564026ZM4.8 -1C3.97642 -1 3.2986 -1.00078 2.74817 -0.955806C2.18608 -0.909881 1.66937 -0.811317 1.18404 -0.564026L2.09202 1.21799C2.24842 1.1383 2.47262 1.07337 2.91104 1.03755C3.36113 1.00078 3.94342 1 4.8 1V-1ZM8.22222 -1H4.8V1H8.22222V-1ZM9.13393 -0.859462C8.92877 -0.955127 8.73602 -0.981122 8.60176 -0.991289C8.47791 -1.00067 8.33652 -1 8.22222 -1V1C8.28911 1 8.33786 1.00002 8.37922 1.00063C8.42059 1.00123 8.44128 1.00228 8.45074 1.003C8.45984 1.00369 8.44506 1.00314 8.41662 0.996964C8.38539 0.990177 8.34028 0.977212 8.28869 0.953154L9.13393 -0.859462ZM9.85946 -0.133924C9.71043 -0.453539 9.45354 -0.710424 9.13393 -0.859462L8.28869 0.953154C8.18215 0.903475 8.09652 0.817846 8.04684 0.711305L9.85946 -0.133924ZM10 0.777778C10 0.663479 10.0007 0.522087 9.99129 0.398241C9.98112 0.263975 9.95513 0.0712262 9.85946 -0.13393L8.04685 0.711311C8.02279 0.659719 8.00982 0.614614 8.00304 0.583379C7.99686 0.554946 7.99631 0.540162 7.997 0.549261C7.99771 0.558717 7.99877 0.579415 7.99937 0.620779C7.99998 0.662137 8 0.710888 8 0.777778H10ZM10.2811 4.26785C10.1659 4.02093 10.0865 3.69617 10.044 3.13448C10.0007 2.56237 10 1.82935 10 0.777778H8C8 1.79887 7.99933 2.62035 8.0497 3.2855C8.10086 3.96107 8.20883 4.55632 8.46846 5.11309L10.2811 4.26785ZM11.7321 5.71892C11.0929 5.42085 10.5792 4.90708 10.2811 4.26786L8.46846 5.11309C8.96525 6.17847 9.82153 7.03475 10.8869 7.53154L11.7321 5.71892ZM15.2222 6C14.1706 6 13.4376 5.99933 12.8655 5.95601C12.3038 5.91347 11.9791 5.83407 11.7321 5.71892L10.8869 7.53154C11.4437 7.79117 12.0389 7.89914 12.7145 7.9503C13.3796 8.00067 14.2011 8 15.2222 8V6ZM16.1339 6.14054C15.9288 6.04487 15.736 6.01888 15.6018 6.00871C15.4779 5.99933 15.3365 6 15.2222 6V8C15.2891 8 15.3379 8.00002 15.3792 8.00063C15.4206 8.00123 15.4413 8.00229 15.4507 8.003C15.4598 8.00369 15.4451 8.00314 15.4166 7.99696C15.3854 7.99018 15.3403 7.97721 15.2887 7.95315L16.1339 6.14054ZM16.8595 6.86608C16.7104 6.54646 16.4535 6.28958 16.1339 6.14054L15.2887 7.95315C15.1822 7.90347 15.0965 7.81785 15.0468 7.71131L16.8595 6.86608ZM17 7.77778C17 7.66348 17.0007 7.52209 16.9913 7.39824C16.9811 7.26398 16.9551 7.07123 16.8595 6.86607L15.0468 7.71131C15.0228 7.65972 15.0098 7.61461 15.003 7.58338C14.9969 7.55495 14.9963 7.54016 14.997 7.54926C14.9977 7.55872 14.9988 7.57941 14.9994 7.62078C15 7.66214 15 7.71089 15 7.77778H17ZM17 15.2V7.77778H15V15.2H17ZM16.564 18.816C16.8113 18.3306 16.9099 17.8139 16.9558 17.2518C17.0008 16.7014 17 16.0236 17 15.2H15C15 16.0566 14.9992 16.6389 14.9624 17.089C14.9266 17.5274 14.8617 17.7516 14.782 17.908L16.564 18.816ZM14.816 20.564C15.5686 20.1805 16.1805 19.5686 16.564 18.816L14.782 17.908C14.5903 18.2843 14.2843 18.5903 13.908 18.782L14.816 20.564ZM11.2 21C12.0236 21 12.7014 21.0008 13.2518 20.9558C13.8139 20.9099 14.3306 20.8113 14.816 20.564L13.908 18.782C13.7516 18.8617 13.5274 18.9266 13.089 18.9624C12.6389 18.9992 12.0566 19 11.2 19V21ZM4.8 21H11.2V19H4.8V21ZM1.18404 20.564C1.66937 20.8113 2.18608 20.9099 2.74817 20.9558C3.2986 21.0008 3.97642 21 4.8 21V19C3.94342 19 3.36113 18.9992 2.91104 18.9624C2.47262 18.9266 2.24842 18.8617 2.09202 18.782L1.18404 20.564ZM-0.564026 18.816C-0.180533 19.5686 0.43139 20.1805 1.18404 20.564L2.09202 18.782C1.71569 18.5903 1.40973 18.2843 1.21799 17.908L-0.564026 18.816ZM-1 15.2C-1 16.0236 -1.00078 16.7014 -0.955806 17.2518C-0.909881 17.8139 -0.811317 18.3306 -0.564026 18.816L1.21799 17.908C1.1383 17.7516 1.07337 17.5274 1.03755 17.089C1.00078 16.6389 1 16.0566 1 15.2H-1ZM-1 4.8V15.2H1V4.8H-1ZM8.46173 8.69421C8.29093 9.10486 7.70921 9.10486 7.53841 8.69421L9.38505 7.92615C8.87266 6.69421 7.12748 6.69421 6.61509 7.92615L8.46173 8.69421ZM7.67231 10.5922L8.46173 8.69421L6.61509 7.92615L5.82567 9.82416L7.67231 10.5922ZM6.41725 11.5105C6.97401 11.4621 7.45769 11.1082 7.67231 10.5922L5.82567 9.82416C5.8972 9.65216 6.05843 9.53419 6.24402 9.51805L6.41725 11.5105ZM4.5489 11.673L6.41726 11.5105L6.24402 9.51805L4.37566 9.6805L4.5489 11.673ZM4.85076 10.8131C5.16211 11.1102 4.97763 11.6357 4.5489 11.673L4.37566 9.6805C3.08946 9.79233 2.53602 11.3688 3.47006 12.2601L4.85076 10.8131ZM6.26996 12.1674L4.85076 10.8131L3.47006 12.2601L4.88925 13.6143L6.26996 12.1674ZM6.69349 13.6006C6.81731 13.0815 6.65603 12.5358 6.26996 12.1674L4.88926 13.6143C4.76056 13.4915 4.7068 13.3096 4.74808 13.1365L6.69349 13.6006ZM6.21286 15.6155L6.69349 13.6006L4.74808 13.1365L4.26744 15.1515L6.21286 15.6155ZM5.46588 15.0728C5.84543 14.841 6.31606 15.1829 6.21286 15.6155L4.26744 15.1515C3.95786 16.4493 5.36974 17.4751 6.50839 16.7796L5.46588 15.0728ZM7.21819 14.0025L5.46588 15.0728L6.50839 16.7796L8.2607 15.7093L7.21819 14.0025ZM8.78196 14.0025C8.30193 13.7093 7.69821 13.7093 7.21819 14.0025L8.2607 15.7093C8.10069 15.807 7.89945 15.807 7.73944 15.7093L8.78196 14.0025ZM10.5343 15.0728L8.78195 14.0025L7.73945 15.7093L9.49176 16.7796L10.5343 15.0728ZM9.78728 15.6155C9.68409 15.1829 10.1547 14.841 10.5343 15.0728L9.49175 16.7796C10.6304 17.4751 12.0423 16.4493 11.7327 15.1515L9.78728 15.6155ZM9.3068 13.6012L9.78728 15.6155L11.7327 15.1515L11.2522 13.1372L9.3068 13.6012ZM9.73246 12.166C9.34491 12.5343 9.18274 13.0811 9.3068 13.6012L11.2522 13.1372C11.2936 13.3105 11.2395 13.4928 11.1103 13.6156L9.73246 12.166ZM11.1565 10.8125L9.73246 12.166L11.1103 13.6156L12.5343 12.2621L11.1565 10.8125ZM11.4577 11.673C11.0285 11.6358 10.8442 11.1093 11.1565 10.8125L12.5343 12.2621C13.4712 11.3716 12.9183 9.79211 11.6305 9.68047L11.4577 11.673ZM9.58323 11.5105L11.4577 11.673L11.6305 9.68047L9.75597 9.51796L9.58323 11.5105ZM8.32781 10.5921C8.54247 11.1083 9.02633 11.4622 9.58323 11.5105L9.75597 9.51796C9.94161 9.53406 10.1029 9.65204 10.1744 9.82407L8.32781 10.5921ZM7.53841 8.69421L8.3278 10.5921L10.1744 9.82408L9.38505 7.92615L7.53841 8.69421ZM15.2928 4.00002H12.9999V6.00002H15.2928V4.00002ZM11.9999 3.00002V0.707129H9.9999V3.00002H11.9999ZM11.4999 0.914236L15.0857 4.50002L16.4999 3.08581L12.9141 -0.499978L11.4999 0.914236ZM15.0857 4.50002C15.0308 4.44509 14.9999 4.37059 14.9999 4.29292H16.9999C16.9999 3.84016 16.82 3.40595 16.4999 3.08581L15.0857 4.50002ZM12.9999 4.00002C12.4476 4.00002 11.9999 3.55231 11.9999 3.00002H9.9999C9.9999 4.65688 11.343 6.00002 12.9999 6.00002V4.00002ZM15.2928 6.00002C16.2356 6.00002 16.9999 5.23572 16.9999 4.29292H14.9999C14.9999 4.13116 15.131 4.00002 15.2928 4.00002V6.00002ZM11.707 1.00002C11.6293 1.00002 11.5548 0.969164 11.4999 0.914236L12.9141 -0.499978C12.594 -0.820123 12.1598 -0.999978 11.707 -0.999978V1.00002ZM11.707 -0.999978C10.7642 -0.999978 9.9999 -0.23568 9.9999 0.707129H11.9999C11.9999 0.868889 11.8688 1.00002 11.707 1.00002V-0.999978Z" fill="#EDF2FF" mask="url(#path-1-inside-1_2358_655)"/>
<path d="M0.32698 1.63803L1.21799 2.09202L0.32698 1.63803ZM1.63803 0.32698L2.09202 1.21799L1.63803 0.32698ZM8.71131 0.0468461L9.13393 -0.859462V-0.859462L8.71131 0.0468461ZM8.95315 0.288691L8.04684 0.711305L8.04685 0.711311L8.95315 0.288691ZM9.37477 4.69047L10.2811 4.26786L10.2811 4.26785L9.37477 4.69047ZM11.3095 6.62523L11.7321 5.71892H11.7321L11.3095 6.62523ZM15.7113 7.04685L16.1339 6.14054L16.1339 6.14054L15.7113 7.04685ZM15.9532 7.28869L15.0468 7.71131L15.0468 7.71131L15.9532 7.28869ZM15.673 18.362L14.782 17.908L14.782 17.908L15.673 18.362ZM14.362 19.673L14.816 20.564H14.816L14.362 19.673ZM1.63803 19.673L1.18404 20.564H1.18404L1.63803 19.673ZM0.32698 18.362L1.21799 17.908L1.21799 17.908L0.32698 18.362ZM7.53841 8.31018L6.61509 7.92615V7.92615L7.53841 8.31018ZM8.46173 8.31018L9.38505 7.92615V7.92615L8.46173 8.31018ZM6.74899 10.2082L5.82567 9.82416L5.82567 9.82416L6.74899 10.2082ZM6.33064 10.5143L6.24402 9.51805H6.24402L6.33064 10.5143ZM4.46228 10.6767L4.5489 11.673H4.5489L4.46228 10.6767ZM4.16041 11.5366L4.85076 10.8131L4.85076 10.8131L4.16041 11.5366ZM5.57961 12.8908L4.88925 13.6143L4.88926 13.6143L5.57961 12.8908ZM5.72079 13.3686L4.74808 13.1365V13.1365L5.72079 13.3686ZM5.24015 15.3835L6.21286 15.6155L5.24015 15.3835ZM5.98713 15.9262L6.50839 16.7796H6.50839L5.98713 15.9262ZM7.73945 14.8559L8.2607 15.7093L8.2607 15.7093L7.73945 14.8559ZM8.2607 14.8559L7.73944 15.7093L7.73945 15.7093L8.2607 14.8559ZM10.013 15.9262L10.5343 15.0728L10.5343 15.0728L10.013 15.9262ZM10.76 15.3835L11.7327 15.1515V15.1515L10.76 15.3835ZM10.2795 13.3692L9.3068 13.6012L9.3068 13.6012L10.2795 13.3692ZM10.4214 12.8908L11.1103 13.6156L11.1103 13.6156L10.4214 12.8908ZM11.8454 11.5373L11.1565 10.8125L11.8454 11.5373ZM11.5441 10.6767L11.6305 9.68047L11.5441 10.6767ZM9.6696 10.5142L9.75597 9.51796H9.75597L9.6696 10.5142ZM9.25112 10.2081L8.3278 10.5921L8.32781 10.5921L9.25112 10.2081ZM15.7928 3.79292L16.4999 3.08581L15.7928 3.79292ZM12.207 0.207129L11.4999 0.914236L12.207 0.207129ZM-0.564026 1.18404C-0.811317 1.66937 -0.909881 2.18608 -0.955806 2.74817C-1.00078 3.2986 -1 3.97642 -1 4.8H1C1 3.94342 1.00078 3.36113 1.03755 2.91104C1.07337 2.47262 1.1383 2.24842 1.21799 2.09202L-0.564026 1.18404ZM1.18404 -0.564026C0.43139 -0.180533 -0.180533 0.43139 -0.564026 1.18404L1.21799 2.09202C1.40973 1.71569 1.71569 1.40973 2.09202 1.21799L1.18404 -0.564026ZM4.8 -1C3.97642 -1 3.2986 -1.00078 2.74817 -0.955806C2.18608 -0.909881 1.66937 -0.811317 1.18404 -0.564026L2.09202 1.21799C2.24842 1.1383 2.47262 1.07337 2.91104 1.03755C3.36113 1.00078 3.94342 1 4.8 1V-1ZM8.22222 -1H4.8V1H8.22222V-1ZM9.13393 -0.859462C8.92877 -0.955127 8.73602 -0.981122 8.60176 -0.991289C8.47791 -1.00067 8.33652 -1 8.22222 -1V1C8.28911 1 8.33786 1.00002 8.37922 1.00063C8.42059 1.00123 8.44128 1.00228 8.45074 1.003C8.45984 1.00369 8.44506 1.00314 8.41662 0.996964C8.38539 0.990177 8.34028 0.977212 8.28869 0.953154L9.13393 -0.859462ZM9.85946 -0.133924C9.71043 -0.453539 9.45354 -0.710424 9.13393 -0.859462L8.28869 0.953154C8.18215 0.903475 8.09652 0.817846 8.04684 0.711305L9.85946 -0.133924ZM10 0.777778C10 0.663479 10.0007 0.522087 9.99129 0.398241C9.98112 0.263975 9.95513 0.0712262 9.85946 -0.13393L8.04685 0.711311C8.02279 0.659719 8.00982 0.614614 8.00304 0.583379C7.99686 0.554946 7.99631 0.540162 7.997 0.549261C7.99771 0.558717 7.99877 0.579415 7.99937 0.620779C7.99998 0.662137 8 0.710888 8 0.777778H10ZM10.2811 4.26785C10.1659 4.02093 10.0865 3.69617 10.044 3.13448C10.0007 2.56237 10 1.82935 10 0.777778H8C8 1.79887 7.99933 2.62035 8.0497 3.2855C8.10086 3.96107 8.20883 4.55632 8.46846 5.11309L10.2811 4.26785ZM11.7321 5.71892C11.0929 5.42085 10.5792 4.90708 10.2811 4.26786L8.46846 5.11309C8.96525 6.17847 9.82153 7.03475 10.8869 7.53154L11.7321 5.71892ZM15.2222 6C14.1706 6 13.4376 5.99933 12.8655 5.95601C12.3038 5.91347 11.9791 5.83407 11.7321 5.71892L10.8869 7.53154C11.4437 7.79117 12.0389 7.89914 12.7145 7.9503C13.3796 8.00067 14.2011 8 15.2222 8V6ZM16.1339 6.14054C15.9288 6.04487 15.736 6.01888 15.6018 6.00871C15.4779 5.99933 15.3365 6 15.2222 6V8C15.2891 8 15.3379 8.00002 15.3792 8.00063C15.4206 8.00123 15.4413 8.00229 15.4507 8.003C15.4598 8.00369 15.4451 8.00314 15.4166 7.99696C15.3854 7.99018 15.3403 7.97721 15.2887 7.95315L16.1339 6.14054ZM16.8595 6.86608C16.7104 6.54646 16.4535 6.28958 16.1339 6.14054L15.2887 7.95315C15.1822 7.90347 15.0965 7.81785 15.0468 7.71131L16.8595 6.86608ZM17 7.77778C17 7.66348 17.0007 7.52209 16.9913 7.39824C16.9811 7.26398 16.9551 7.07123 16.8595 6.86607L15.0468 7.71131C15.0228 7.65972 15.0098 7.61461 15.003 7.58338C14.9969 7.55495 14.9963 7.54016 14.997 7.54926C14.9977 7.55872 14.9988 7.57941 14.9994 7.62078C15 7.66214 15 7.71089 15 7.77778H17ZM17 15.2V7.77778H15V15.2H17ZM16.564 18.816C16.8113 18.3306 16.9099 17.8139 16.9558 17.2518C17.0008 16.7014 17 16.0236 17 15.2H15C15 16.0566 14.9992 16.6389 14.9624 17.089C14.9266 17.5274 14.8617 17.7516 14.782 17.908L16.564 18.816ZM14.816 20.564C15.5686 20.1805 16.1805 19.5686 16.564 18.816L14.782 17.908C14.5903 18.2843 14.2843 18.5903 13.908 18.782L14.816 20.564ZM11.2 21C12.0236 21 12.7014 21.0008 13.2518 20.9558C13.8139 20.9099 14.3306 20.8113 14.816 20.564L13.908 18.782C13.7516 18.8617 13.5274 18.9266 13.089 18.9624C12.6389 18.9992 12.0566 19 11.2 19V21ZM4.8 21H11.2V19H4.8V21ZM1.18404 20.564C1.66937 20.8113 2.18608 20.9099 2.74817 20.9558C3.2986 21.0008 3.97642 21 4.8 21V19C3.94342 19 3.36113 18.9992 2.91104 18.9624C2.47262 18.9266 2.24842 18.8617 2.09202 18.782L1.18404 20.564ZM-0.564026 18.816C-0.180533 19.5686 0.43139 20.1805 1.18404 20.564L2.09202 18.782C1.71569 18.5903 1.40973 18.2843 1.21799 17.908L-0.564026 18.816ZM-1 15.2C-1 16.0236 -1.00078 16.7014 -0.955806 17.2518C-0.909881 17.8139 -0.811317 18.3306 -0.564026 18.816L1.21799 17.908C1.1383 17.7516 1.07337 17.5274 1.03755 17.089C1.00078 16.6389 1 16.0566 1 15.2H-1ZM-1 4.8V15.2H1V4.8H-1ZM8.46173 8.69421C8.29093 9.10486 7.70921 9.10486 7.53841 8.69421L9.38505 7.92615C8.87266 6.69421 7.12748 6.69421 6.61509 7.92615L8.46173 8.69421ZM7.67231 10.5922L8.46173 8.69421L6.61509 7.92615L5.82567 9.82416L7.67231 10.5922ZM6.41725 11.5105C6.97401 11.4621 7.45769 11.1082 7.67231 10.5922L5.82567 9.82416C5.8972 9.65216 6.05843 9.53419 6.24402 9.51805L6.41725 11.5105ZM4.5489 11.673L6.41726 11.5105L6.24402 9.51805L4.37566 9.6805L4.5489 11.673ZM4.85076 10.8131C5.16211 11.1102 4.97763 11.6357 4.5489 11.673L4.37566 9.6805C3.08946 9.79233 2.53602 11.3688 3.47006 12.2601L4.85076 10.8131ZM6.26996 12.1674L4.85076 10.8131L3.47006 12.2601L4.88925 13.6143L6.26996 12.1674ZM6.69349 13.6006C6.81731 13.0815 6.65603 12.5358 6.26996 12.1674L4.88926 13.6143C4.76056 13.4915 4.7068 13.3096 4.74808 13.1365L6.69349 13.6006ZM6.21286 15.6155L6.69349 13.6006L4.74808 13.1365L4.26744 15.1515L6.21286 15.6155ZM5.46588 15.0728C5.84543 14.841 6.31606 15.1829 6.21286 15.6155L4.26744 15.1515C3.95786 16.4493 5.36974 17.4751 6.50839 16.7796L5.46588 15.0728ZM7.21819 14.0025L5.46588 15.0728L6.50839 16.7796L8.2607 15.7093L7.21819 14.0025ZM8.78196 14.0025C8.30193 13.7093 7.69821 13.7093 7.21819 14.0025L8.2607 15.7093C8.10069 15.807 7.89945 15.807 7.73944 15.7093L8.78196 14.0025ZM10.5343 15.0728L8.78195 14.0025L7.73945 15.7093L9.49176 16.7796L10.5343 15.0728ZM9.78728 15.6155C9.68409 15.1829 10.1547 14.841 10.5343 15.0728L9.49175 16.7796C10.6304 17.4751 12.0423 16.4493 11.7327 15.1515L9.78728 15.6155ZM9.3068 13.6012L9.78728 15.6155L11.7327 15.1515L11.2522 13.1372L9.3068 13.6012ZM9.73246 12.166C9.34491 12.5343 9.18274 13.0811 9.3068 13.6012L11.2522 13.1372C11.2936 13.3105 11.2395 13.4928 11.1103 13.6156L9.73246 12.166ZM11.1565 10.8125L9.73246 12.166L11.1103 13.6156L12.5343 12.2621L11.1565 10.8125ZM11.4577 11.673C11.0285 11.6358 10.8442 11.1093 11.1565 10.8125L12.5343 12.2621C13.4712 11.3716 12.9183 9.79211 11.6305 9.68047L11.4577 11.673ZM9.58323 11.5105L11.4577 11.673L11.6305 9.68047L9.75597 9.51796L9.58323 11.5105ZM8.32781 10.5921C8.54247 11.1083 9.02633 11.4622 9.58323 11.5105L9.75597 9.51796C9.94161 9.53406 10.1029 9.65204 10.1744 9.82407L8.32781 10.5921ZM7.53841 8.69421L8.3278 10.5921L10.1744 9.82408L9.38505 7.92615L7.53841 8.69421ZM15.2928 4.00002H12.9999V6.00002H15.2928V4.00002ZM11.9999 3.00002V0.707129H9.9999V3.00002H11.9999ZM11.4999 0.914236L15.0857 4.50002L16.4999 3.08581L12.9141 -0.499978L11.4999 0.914236ZM15.0857 4.50002C15.0308 4.44509 14.9999 4.37059 14.9999 4.29292H16.9999C16.9999 3.84016 16.82 3.40595 16.4999 3.08581L15.0857 4.50002ZM12.9999 4.00002C12.4476 4.00002 11.9999 3.55231 11.9999 3.00002H9.9999C9.9999 4.65688 11.343 6.00002 12.9999 6.00002V4.00002ZM15.2928 6.00002C16.2356 6.00002 16.9999 5.23572 16.9999 4.29292H14.9999C14.9999 4.13116 15.131 4.00002 15.2928 4.00002V6.00002ZM11.707 1.00002C11.6293 1.00002 11.5548 0.969164 11.4999 0.914236L12.9141 -0.499978C12.594 -0.820123 12.1598 -0.999978 11.707 -0.999978V1.00002ZM11.707 -0.999978C10.7642 -0.999978 9.9999 -0.23568 9.9999 0.707129H11.9999C11.9999 0.868889 11.8688 1.00002 11.707 1.00002V-0.999978Z" fill="url(#paint2_linear_2358_655)" mask="url(#path-1-inside-1_2358_655)"/>
<defs>
<linearGradient id="paint0_linear_2358_655" x1="8" y1="20.1429" x2="8" y2="-0.14285" gradientUnits="userSpaceOnUse">
<stop stop-color="#1C2230" stop-opacity="0"/>
<stop offset="1" stop-color="#1C2230" stop-opacity="0.35"/>
</linearGradient>
<linearGradient id="paint1_linear_2358_655" x1="8" y1="20.1429" x2="8" y2="-0.14285" gradientUnits="userSpaceOnUse">
<stop stop-color="#1C2230" stop-opacity="0"/>
<stop offset="1" stop-color="#1C2230" stop-opacity="0.35"/>
</linearGradient>
<linearGradient id="paint2_linear_2358_655" x1="8" y1="20.1429" x2="8" y2="-0.14285" gradientUnits="userSpaceOnUse">
<stop stop-color="#1C2230" stop-opacity="0"/>
<stop offset="1" stop-color="#1C2230" stop-opacity="0.35"/>
</linearGradient>
</defs>
</svg>
