<svg width="18" height="18" viewBox="0 0 18 18" fill="none" xmlns="http://www.w3.org/2000/svg">
<path d="M13.5158 9.2475L12.6008 8.3325C12.3833 8.145 12.2558 7.8675 12.2483 7.56C12.2333 7.2225 12.3683 6.885 12.6158 6.6375L13.5158 5.7375C14.2958 4.9575 14.5883 4.2075 14.3408 3.615C14.1008 3.03 13.3583 2.7075 12.2633 2.7075H4.42578V2.0625C4.42578 1.755 4.17078 1.5 3.86328 1.5C3.55578 1.5 3.30078 1.755 3.30078 2.0625V15.9375C3.30078 16.245 3.55578 16.5 3.86328 16.5C4.17078 16.5 4.42578 16.245 4.42578 15.9375V12.2775H12.2633C13.3433 12.2775 14.0708 11.9475 14.3183 11.355C14.5658 10.7625 14.2808 10.02 13.5158 9.2475Z" fill="#1BD69E"/>
</svg>
