<svg width="22" height="22" viewBox="0 0 22 22" fill="none" xmlns="http://www.w3.org/2000/svg">
<path d="M20.318 9.24748L12.0949 9.24707C12.0086 9.24706 11.9231 9.26406 11.8433 9.29709C11.7635 9.33012 11.6911 9.37855 11.63 9.43959C11.569 9.50064 11.5206 9.57312 11.4875 9.65288C11.4545 9.73264 11.4375 9.81813 11.4375 9.90447V12.5314C11.4375 12.7057 11.5068 12.8729 11.63 12.9962C11.7533 13.1195 11.9205 13.1888 12.0949 13.1888H16.7256C16.2191 14.5006 15.2805 15.6005 14.0646 16.307L16.0392 19.7252C19.2066 17.8933 21.0792 14.6792 21.0792 11.0811C21.0792 10.5688 21.0415 10.2027 20.9659 9.79028C20.9085 9.47692 20.6365 9.24748 20.318 9.24748Z" fill="#8792B7"/>
<path d="M11.0024 17.1354C8.73624 17.1354 6.75789 15.8972 5.69534 14.0649L2.27734 16.0351C4.01673 19.0497 7.27518 21.0798 11.0024 21.0798C12.7719 21.0806 14.5104 20.6149 16.0424 19.7295V19.7249L14.0679 16.3067C13.1647 16.8305 12.1195 17.1354 11.0024 17.1354Z" fill="#8792B7"/>
<path d="M16.04 19.7295V19.7248L14.0654 16.3066C13.1623 16.8304 12.1172 17.1354 11 17.1354V21.0797C12.8285 21.0797 14.5538 20.5874 16.04 19.7295Z" fill="#8792B7"/>
<path d="M4.86627 10.9997C4.86627 9.88266 5.17109 8.83758 5.69478 7.93442L2.27679 5.96436C1.41414 7.44592 0.921875 9.16653 0.921875 10.9997C0.921875 12.8328 1.41414 14.5534 2.27679 16.035L5.69478 14.0649C5.17109 13.1618 4.86627 12.1167 4.86627 10.9997Z" fill="#8792B7"/>
<path d="M11.0024 4.86431C12.4802 4.86431 13.8376 5.3894 14.8979 6.26286C15.1594 6.47828 15.5396 6.46277 15.7792 6.22316L17.6405 4.36187C17.9123 4.09002 17.893 3.64508 17.6026 3.39316C15.8261 1.85204 13.5148 0.919922 11.0024 0.919922C7.27518 0.919922 4.01673 2.94995 2.27734 5.9646L5.69534 7.93466C6.75789 6.10249 8.73624 4.86431 11.0024 4.86431Z" fill="#8792B7"/>
<path d="M14.8954 6.26286C15.157 6.47828 15.5372 6.46277 15.7768 6.22316L17.6381 4.36187C17.9098 4.09002 17.8905 3.64508 17.6002 3.39316C15.8237 1.85204 13.5124 0.919922 11 0.919922V4.86431C12.4777 4.86431 13.8352 5.3894 14.8954 6.26286Z" fill="#8792B7"/>
</svg>
