<svg viewBox="0 0 21 21" fill="none" xmlns="http://www.w3.org/2000/svg">
<path d="M17.2285 8.04576C15.6771 8.04576 15.0428 6.94862 15.8142 5.60291C16.2599 4.82291 15.9942 3.82862 15.2142 3.38291L13.7314 2.53434C13.0542 2.13148 12.1799 2.37148 11.7771 3.04862L11.6828 3.21148C10.9114 4.55719 9.6428 4.55719 8.8628 3.21148L8.76852 3.04862C8.3828 2.37148 7.50852 2.13148 6.83138 2.53434L5.34852 3.38291C4.56852 3.82862 4.3028 4.83148 4.74852 5.61148C5.52852 6.94862 4.89423 8.04576 3.3428 8.04576C2.45138 8.04576 1.71423 8.77434 1.71423 9.67434V11.1829C1.71423 12.0743 2.4428 12.8115 3.3428 12.8115C4.89423 12.8115 5.52852 13.9086 4.74852 15.2543C4.3028 16.0343 4.56852 17.0286 5.34852 17.4743L6.83138 18.3229C7.50852 18.7258 8.3828 18.4858 8.78566 17.8086L8.87995 17.6458C9.65138 16.3001 10.9199 16.3001 11.6999 17.6458L11.7942 17.8086C12.1971 18.4858 13.0714 18.7258 13.7485 18.3229L15.2314 17.4743C16.0114 17.0286 16.2771 16.0258 15.8314 15.2543C15.0514 13.9086 15.6857 12.8115 17.2371 12.8115C18.1285 12.8115 18.8657 12.0829 18.8657 11.1829V9.67434C18.8571 8.78291 18.1285 8.04576 17.2285 8.04576ZM10.2857 13.2143C8.75138 13.2143 7.49995 11.9629 7.49995 10.4286C7.49995 8.89434 8.75138 7.64291 10.2857 7.64291C11.8199 7.64291 13.0714 8.89434 13.0714 10.4286C13.0714 11.9629 11.8199 13.2143 10.2857 13.2143Z" fill="currentColor"/>
</svg>
