<svg width="16" height="16" viewBox="0 0 16 16" fill="none" xmlns="http://www.w3.org/2000/svg">
<path d="M11.6867 5.17992C11.64 5.17325 11.5934 5.17325 11.5467 5.17992C10.5134 5.14658 9.69336 4.29992 9.69336 3.25992C9.69336 2.19992 10.5534 1.33325 11.62 1.33325C12.68 1.33325 13.5467 2.19325 13.5467 3.25992C13.54 4.29992 12.72 5.14658 11.6867 5.17992Z" fill="#10AA7C"/>
<path d="M11.6867 5.17992C11.64 5.17325 11.5934 5.17325 11.5467 5.17992C10.5134 5.14658 9.69336 4.29992 9.69336 3.25992C9.69336 2.19992 10.5534 1.33325 11.62 1.33325C12.68 1.33325 13.5467 2.19325 13.5467 3.25992C13.54 4.29992 12.72 5.14658 11.6867 5.17992Z" fill="url(#paint0_linear_4189_5038)"/>
<path d="M13.8597 9.80002C13.1131 10.3 12.0664 10.4867 11.0997 10.36C11.3531 9.81336 11.4864 9.20669 11.4931 8.56669C11.4931 7.90003 11.3464 7.26669 11.0664 6.71336C12.0531 6.58002 13.0997 6.76669 13.8531 7.26669C14.9064 7.96002 14.9064 9.10002 13.8597 9.80002Z" fill="#10AA7C"/>
<path d="M13.8597 9.80002C13.1131 10.3 12.0664 10.4867 11.0997 10.36C11.3531 9.81336 11.4864 9.20669 11.4931 8.56669C11.4931 7.90003 11.3464 7.26669 11.0664 6.71336C12.0531 6.58002 13.0997 6.76669 13.8531 7.26669C14.9064 7.96002 14.9064 9.10002 13.8597 9.80002Z" fill="url(#paint1_linear_4189_5038)"/>
<path d="M4.29279 5.17992C4.33945 5.17325 4.38612 5.17325 4.43279 5.17992C5.46612 5.14658 6.28612 4.29992 6.28612 3.25992C6.28612 2.19325 5.42612 1.33325 4.35945 1.33325C3.29945 1.33325 2.43945 2.19325 2.43945 3.25992C2.43945 4.29992 3.25945 5.14658 4.29279 5.17992Z" fill="#10AA7C"/>
<path d="M4.29279 5.17992C4.33945 5.17325 4.38612 5.17325 4.43279 5.17992C5.46612 5.14658 6.28612 4.29992 6.28612 3.25992C6.28612 2.19325 5.42612 1.33325 4.35945 1.33325C3.29945 1.33325 2.43945 2.19325 2.43945 3.25992C2.43945 4.29992 3.25945 5.14658 4.29279 5.17992Z" fill="url(#paint2_linear_4189_5038)"/>
<path d="M4.36674 8.56657C4.36674 9.21324 4.50674 9.82657 4.76008 10.3799C3.82008 10.4799 2.84008 10.2799 2.12008 9.80657C1.06674 9.10657 1.06674 7.96657 2.12008 7.26657C2.83341 6.78657 3.84008 6.59324 4.78674 6.69991C4.51341 7.25991 4.36674 7.89324 4.36674 8.56657Z" fill="#10AA7C"/>
<path d="M4.36674 8.56657C4.36674 9.21324 4.50674 9.82657 4.76008 10.3799C3.82008 10.4799 2.84008 10.2799 2.12008 9.80657C1.06674 9.10657 1.06674 7.96657 2.12008 7.26657C2.83341 6.78657 3.84008 6.59324 4.78674 6.69991C4.51341 7.25991 4.36674 7.89324 4.36674 8.56657Z" fill="url(#paint3_linear_4189_5038)"/>
<path d="M8.07922 10.58C8.02589 10.5733 7.96588 10.5733 7.90588 10.58C6.67922 10.54 5.69922 9.53333 5.69922 8.29333C5.70589 7.02667 6.72589 6 7.99922 6C9.26589 6 10.2926 7.02667 10.2926 8.29333C10.2859 9.53333 9.31255 10.54 8.07922 10.58Z" fill="#10AA7C"/>
<path d="M8.07922 10.58C8.02589 10.5733 7.96588 10.5733 7.90588 10.58C6.67922 10.54 5.69922 9.53333 5.69922 8.29333C5.70589 7.02667 6.72589 6 7.99922 6C9.26589 6 10.2926 7.02667 10.2926 8.29333C10.2859 9.53333 9.31255 10.54 8.07922 10.58Z" fill="url(#paint4_linear_4189_5038)"/>
<path d="M5.9132 11.96C4.90654 12.6333 4.90654 13.74 5.9132 14.4067C7.05987 15.1733 8.93987 15.1733 10.0865 14.4067C11.0932 13.7333 11.0932 12.6267 10.0865 11.96C8.94654 11.1933 7.06654 11.1933 5.9132 11.96Z" fill="#10AA7C"/>
<path d="M5.9132 11.96C4.90654 12.6333 4.90654 13.74 5.9132 14.4067C7.05987 15.1733 8.93987 15.1733 10.0865 14.4067C11.0932 13.7333 11.0932 12.6267 10.0865 11.96C8.94654 11.1933 7.06654 11.1933 5.9132 11.96Z" fill="url(#paint5_linear_4189_5038)"/>
<defs>
<linearGradient id="paint0_linear_4189_5038" x1="12.3286" y1="1.33325" x2="12.3286" y2="5.17992" gradientUnits="userSpaceOnUse">
<stop stop-color="#24FDBC" stop-opacity="0"/>
<stop offset="1" stop-color="#24FDBC" stop-opacity="0.65"/>
</linearGradient>
<linearGradient id="paint1_linear_4189_5038" x1="13.5131" y1="6.67163" x2="13.5131" y2="10.3984" gradientUnits="userSpaceOnUse">
<stop stop-color="#24FDBC" stop-opacity="0"/>
<stop offset="1" stop-color="#24FDBC" stop-opacity="0.65"/>
</linearGradient>
<linearGradient id="paint2_linear_4189_5038" x1="5.07018" y1="1.33325" x2="5.07018" y2="5.17992" gradientUnits="userSpaceOnUse">
<stop stop-color="#24FDBC" stop-opacity="0"/>
<stop offset="1" stop-color="#24FDBC" stop-opacity="0.65"/>
</linearGradient>
<linearGradient id="paint3_linear_4189_5038" x1="3.69408" y1="6.67139" x2="3.69408" y2="10.405" gradientUnits="userSpaceOnUse">
<stop stop-color="#24FDBC" stop-opacity="0"/>
<stop offset="1" stop-color="#24FDBC" stop-opacity="0.65"/>
</linearGradient>
<linearGradient id="paint4_linear_4189_5038" x1="8.84059" y1="6" x2="8.84059" y2="10.58" gradientUnits="userSpaceOnUse">
<stop stop-color="#24FDBC" stop-opacity="0"/>
<stop offset="1" stop-color="#24FDBC" stop-opacity="0.65"/>
</linearGradient>
<linearGradient id="paint5_linear_4189_5038" x1="9.04502" y1="11.385" x2="9.04502" y2="14.9817" gradientUnits="userSpaceOnUse">
<stop stop-color="#24FDBC" stop-opacity="0"/>
<stop offset="1" stop-color="#24FDBC" stop-opacity="0.65"/>
</linearGradient>
</defs>
</svg>
