<svg viewBox="0 0 24 24" xmlns="http://www.w3.org/2000/svg">
<path d="M11.026 1.40742C11.3796 0.530861 12.6206 0.530861 12.9742 1.40742L15.2995 7.1712C15.4906 7.6449 15.9327 7.9702 16.4418 8.01174L22.2825 8.48832C23.2064 8.56371 23.5868 9.71173 22.8908 10.3239L18.4588 14.222C18.0898 14.5465 17.9262 15.0459 18.0318 15.5259L19.4491 21.9678C19.6556 22.9066 18.5971 23.6067 17.8139 23.0491L12.7832 19.4672C12.3145 19.1334 11.6857 19.1334 11.217 19.4672L6.18625 23.0491C5.40315 23.6067 4.34458 22.9066 4.55112 21.9678L5.96838 15.5259C6.07397 15.0459 5.91044 14.5465 5.54142 14.222L1.10925 10.324C0.413155 9.71175 0.793561 8.5637 1.71754 8.48831L7.55843 8.01174C8.06753 7.9702 8.50961 7.64491 8.70072 7.1712L11.026 1.40742Z" stroke-width="1.5"/>
</svg>
