<svg viewBox="0 0 18 18" xmlns="http://www.w3.org/2000/svg">
<path d="M8.99997 8.97367L8.14038 10.3845L8.99997 11.7953L9.85956 10.3845L8.99997 8.97367ZM8.99997 8.97367L8.14038 10.3845L8.99997 11.7953L9.85956 10.3845L8.99997 8.97367ZM16.2507 6.78315L12.8942 9.24168L9.4068 3.23228C9.22713 2.92242 8.77281 2.92273 8.59314 3.23228L5.10574 9.24168L1.74926 6.78315C1.39586 6.52437 0.907171 6.84776 1.01528 7.26747L2.29638 12.2307H5.25041C5.50913 12.2307 5.71911 12.4375 5.71911 12.6922C5.71911 12.947 5.50913 13.1538 5.25041 13.1538H2.53448L2.92131 14.6523C2.97412 14.8566 3.16128 15 3.37563 15H14.6243C14.8387 15 15.0258 14.8566 15.0786 14.6523L15.4655 13.1538H12.7495C12.4908 13.1538 12.2808 12.947 12.2808 12.6922C12.2808 12.4375 12.4908 12.2307 12.7495 12.2307H15.7036L16.9847 7.26747C17.0931 6.84684 16.6035 6.52499 16.2507 6.78315ZM10.8079 10.622L9.4018 12.9298C9.22057 13.2273 8.78062 13.2292 8.59814 12.9298L7.19206 10.622C7.10301 10.4759 7.10301 10.2931 7.19206 10.1469L8.59814 7.83918C8.77937 7.54163 9.21932 7.53978 9.4018 7.83918L10.8079 10.1469C10.8969 10.2931 10.8969 10.4759 10.8079 10.622ZM8.14038 10.3845L8.99997 11.7953L9.85956 10.3845L8.99997 8.97367L8.14038 10.3845Z" />
<path d="M5.69942 6.35853L4.81671 7.8795L3.50749 6.92039L3.85338 5.21696C3.93275 4.82648 4.44519 4.71202 4.68797 5.03049L5.69942 6.35853Z" />
<path d="M14.4924 6.92039L13.1832 7.8795L12.3005 6.35853L13.312 5.03049C13.5544 4.71202 14.0672 4.82648 14.1465 5.21696L14.4924 6.92039Z" />
</svg>
