<svg width="18" height="18" viewBox="0 0 18 18" fill="none" xmlns="http://www.w3.org/2000/svg">
<path d="M15.4497 3.0752V4.7252C15.4497 5.3252 15.0747 6.0752 14.6997 6.4502L11.4747 9.30019C11.0247 9.67519 10.7247 10.4252 10.7247 11.0252V14.2502C10.7247 14.7002 10.4247 15.3002 10.0497 15.5252L8.99967 16.2002C8.02467 16.8002 6.67467 16.1252 6.67467 14.9252V10.9502C6.67467 10.4252 6.37467 9.75019 6.07467 9.3752L5.72217 9.0077C5.48967 8.7602 5.44467 8.3852 5.63217 8.0927L9.47217 1.9277C9.60717 1.7102 9.84717 1.5752 10.1097 1.5752H13.9497C14.7747 1.5752 15.4497 2.2502 15.4497 3.0752Z" fill="#5A6786"/>
<path d="M7.76328 2.7227L5.10078 6.99019C4.84578 7.40269 4.26078 7.46269 3.92328 7.11019L3.22578 6.3752C2.85078 6.0002 2.55078 5.3252 2.55078 4.8752V3.1502C2.55078 2.2502 3.22578 1.5752 4.05078 1.5752H7.12578C7.71078 1.5752 8.07078 2.2202 7.76328 2.7227Z" fill="#5A6786"/>
</svg>
