<svg viewBox="0 0 20 20" xmlns="http://www.w3.org/2000/svg">
<path d="M15.3454 6.58353V7.98853C15.3455 8.15333 15.3944 8.31441 15.4859 8.45142C15.5775 8.58842 15.7076 8.69521 15.8599 8.75826C16.0121 8.82132 16.1797 8.83783 16.3413 8.80569C16.5029 8.77355 16.6514 8.69421 16.7679 8.5777L19.7563 5.58937C19.9125 5.43309 20.0003 5.22117 20.0003 5.0002C20.0003 4.77923 19.9125 4.56731 19.7563 4.41103L16.7679 1.4227C16.6514 1.30619 16.5029 1.22685 16.3413 1.19471C16.1797 1.16257 16.0121 1.17908 15.8599 1.24214C15.7076 1.30519 15.5775 1.41198 15.4859 1.54898C15.3944 1.68599 15.3455 1.84707 15.3454 2.01187V4.01187C12.5538 4.62187 10.6788 6.32937 9.0871 8.10437C7.26543 6.09687 5.0671 4.18437 1.52543 3.82187C1.4871 3.81353 1.26627 3.78937 1.25043 3.78937C0.928805 3.79001 0.619801 3.9146 0.38768 4.13723C0.155559 4.35986 0.0181847 4.6634 0.00412557 4.98472C-0.00993359 5.30605 0.100404 5.62042 0.312193 5.86248C0.523983 6.10453 0.820924 6.25563 1.14127 6.28437C4.02793 6.53437 5.7246 8.08353 7.4321 9.99937C5.7271 11.916 4.02627 13.471 1.13877 13.7177C0.82141 13.7503 0.528546 13.9031 0.320163 14.1447C0.11178 14.3862 0.00365072 14.6984 0.0179246 15.0171C0.0321985 15.3358 0.167795 15.637 0.396938 15.8589C0.626082 16.0809 0.931429 16.2069 1.25043 16.211C1.2821 16.211 1.31127 16.211 1.34293 16.2044C5.70043 15.8335 8.04127 13.1277 10.1238 10.7169C11.7163 8.8752 13.1604 7.2502 15.3454 6.58353Z" />
<path d="M16.7679 11.4227C16.6514 11.3062 16.5029 11.2269 16.3413 11.1947C16.1797 11.1626 16.0122 11.1791 15.8599 11.2421C15.7077 11.3052 15.5775 11.412 15.4859 11.549C15.3944 11.686 15.3455 11.8471 15.3454 12.0119V13.4285C14.276 13.0904 13.294 12.5215 12.4688 11.7619C12.2232 11.5521 11.9046 11.4482 11.5826 11.4727C11.2606 11.4972 10.9614 11.6482 10.7504 11.8927L10.7296 11.916C10.6224 12.0402 10.5408 12.1844 10.4897 12.3403C10.4385 12.4962 10.4187 12.6607 10.4315 12.8243C10.4443 12.9879 10.4894 13.1473 10.5641 13.2933C10.6389 13.4394 10.7419 13.5692 10.8671 13.6752C12.1361 14.821 13.6782 15.6216 15.3454 16.0002V17.9927C15.3455 18.1575 15.3944 18.3186 15.4859 18.4556C15.5775 18.5926 15.7077 18.6994 15.8599 18.7624C16.0122 18.8255 16.1797 18.842 16.3413 18.8099C16.5029 18.7777 16.6514 18.6984 16.7679 18.5819L19.7563 15.5935C19.9125 15.4373 20.0003 15.2253 20.0003 15.0044C20.0003 14.7834 19.9125 14.5715 19.7563 14.4152L16.7679 11.4227Z" />
</svg>
