<svg viewBox="0 0 28 28" xmlns="http://www.w3.org/2000/svg">
<path d="M2.84696 15.4702L4.42196 17.3136C4.71363 17.6636 4.95863 18.3169 4.95863 18.7836L4.95863 20.7669C4.95863 22.0036 5.97363 23.0186 7.2103 23.0186L9.19363 23.0186C9.6603 23.0186 10.3253 23.2636 10.6753 23.5552L12.5186 25.1302C13.3236 25.8186 14.642 25.8186 15.447 25.1302L17.3136 23.5552C17.6636 23.2636 18.317 23.0186 18.7836 23.0186L20.802 23.0186C22.0386 23.0186 23.0536 22.0036 23.0536 20.7669L23.0536 18.7836C23.0536 18.3286 23.287 17.6752 23.5786 17.3252L25.1536 15.4702C25.8303 14.6536 25.8303 13.3469 25.1536 12.5536L23.5786 10.6986C23.287 10.3602 23.0536 9.69523 23.0536 9.24023L23.0536 7.24523C23.0536 6.00857 22.0386 4.99357 20.802 4.99357L18.772 4.99357C18.317 4.99357 17.652 4.74856 17.302 4.4569L15.4586 2.8819C14.6536 2.19356 13.3353 2.19356 12.5303 2.8819L10.687 4.4569C10.337 4.74856 9.68363 4.99357 9.21696 4.99357L7.23363 4.99356C5.99697 4.99356 4.98196 6.00856 4.98196 7.24523L4.98196 9.22857C4.98196 9.69523 4.73696 10.3486 4.44529 10.6986L2.87029 12.5419C2.15863 13.3352 2.15863 14.6536 2.84696 15.4702ZM14.8753 18.5152C14.8753 18.9936 14.4786 19.3902 14.0003 19.3902C13.522 19.3902 13.1253 18.9936 13.1253 18.5152L13.1253 12.8802C13.1253 12.4019 13.522 12.0052 14.0003 12.0052C14.4786 12.0052 14.8753 12.4019 14.8753 12.8802L14.8753 18.5152ZM14.0003 8.31856C14.642 8.31856 15.167 8.84357 15.167 9.48523C15.167 10.1269 14.6536 10.6519 14.0003 10.6519C13.3586 10.6519 12.8336 10.1269 12.8336 9.48523C12.8336 8.84357 13.347 8.31856 14.0003 8.31856Z" />
</svg>
