<svg width="8" height="6" viewBox="0 0 8 6" fill="none" xmlns="http://www.w3.org/2000/svg">
<path d="M3.22307 5.6087L0.339114 2.21739C-0.0121368 1.80435 -0.090521 1.33174 0.103961 0.799565C0.298443 0.267391 0.644887 0.000869565 1.14329 0H6.85574C7.35488 0 7.7017 0.266522 7.89618 0.799565C8.09066 1.33261 8.01191 1.80522 7.65992 2.21739L4.77596 5.6087C4.66504 5.73913 4.54488 5.83696 4.41547 5.90217C4.28606 5.96739 4.14741 6 3.99952 6C3.85162 6 3.71297 5.96739 3.58356 5.90217C3.45415 5.83696 3.33399 5.73913 3.22307 5.6087Z" fill="#D1D9EB"/>
<path d="M3.22307 5.6087L0.339114 2.21739C-0.0121368 1.80435 -0.090521 1.33174 0.103961 0.799565C0.298443 0.267391 0.644887 0.000869565 1.14329 0H6.85574C7.35488 0 7.7017 0.266522 7.89618 0.799565C8.09066 1.33261 8.01191 1.80522 7.65992 2.21739L4.77596 5.6087C4.66504 5.73913 4.54488 5.83696 4.41547 5.90217C4.28606 5.96739 4.14741 6 3.99952 6C3.85162 6 3.71297 5.96739 3.58356 5.90217C3.45415 5.83696 3.33399 5.73913 3.22307 5.6087Z" fill="url(#paint0_linear_2358_2462)"/>
<defs>
<linearGradient id="paint0_linear_2358_2462" x1="4" y1="6.04286" x2="4" y2="-0.0428551" gradientUnits="userSpaceOnUse">
<stop stop-color="#1C2230" stop-opacity="0"/>
<stop offset="1" stop-color="#1C2230" stop-opacity="0.35"/>
</linearGradient>
</defs>
</svg>
