<svg viewBox="0 0 24 25" xmlns="http://www.w3.org/2000/svg">
<path d="M18.5408 4.61984L13.0408 2.55984C12.4708 2.34984 11.5408 2.34984 10.9708 2.55984L5.47078 4.61984C4.41078 5.01984 3.55078 6.25984 3.55078 7.38984V15.4898C3.55078 16.2998 4.08078 17.3698 4.73078 17.8498L10.2308 21.9598C11.2008 22.6898 12.7908 22.6898 13.7608 21.9598L19.2608 17.8498C19.9108 17.3598 20.4408 16.2998 20.4408 15.4898V7.38984C20.4508 6.25984 19.5908 5.01984 18.5408 4.61984ZM15.4808 10.2198L11.1808 14.5198C11.0308 14.6698 10.8408 14.7398 10.6508 14.7398C10.4608 14.7398 10.2708 14.6698 10.1208 14.5198L8.52078 12.8998C8.23078 12.6098 8.23078 12.1298 8.52078 11.8398C8.81078 11.5498 9.29078 11.5498 9.58078 11.8398L10.6608 12.9198L14.4308 9.14984C14.7208 8.85984 15.2008 8.85984 15.4908 9.14984C15.7808 9.43984 15.7808 9.92984 15.4808 10.2198Z" fill="#5A6786"/>
</svg>
