<svg width="13" height="13" viewBox="0 0 13 13" fill="none" xmlns="http://www.w3.org/2000/svg">
<path d="M6.90625 8.62334H7.25833C7.61042 8.62334 7.90292 8.30917 7.90292 7.93001C7.90292 7.45876 7.735 7.36667 7.45875 7.26917L6.91167 7.07959V8.62334H6.90625Z" fill="#1BD69E"/>
<path d="M6.48444 1.02906C3.49444 1.0399 1.07319 3.47198 1.08402 6.46198C1.09485 9.45198 3.52694 11.8732 6.51694 11.8624C9.50694 11.8516 11.9282 9.41948 11.9174 6.42948C11.9065 3.43948 9.47444 1.02365 6.48444 1.02906ZM7.72485 6.4999C8.14735 6.64615 8.7161 6.96031 8.7161 7.9299C8.7161 8.76406 8.06069 9.43573 7.25902 9.43573H6.90694V9.7499C6.90694 9.97198 6.72277 10.1561 6.50069 10.1561C6.2786 10.1561 6.09444 9.97198 6.09444 9.7499V9.43573H5.89944C5.0111 9.43573 4.29069 8.68823 4.29069 7.7674C4.29069 7.54531 4.47485 7.36115 4.69694 7.36115C4.91902 7.36115 5.10319 7.54531 5.10319 7.7674C5.10319 8.23865 5.46069 8.62323 5.89944 8.62323H6.09444V6.7924L5.27652 6.4999C4.85402 6.35365 4.28527 6.03948 4.28527 5.06989C4.28527 4.23573 4.94069 3.56406 5.74235 3.56406H6.09444V3.2499C6.09444 3.02781 6.2786 2.84365 6.50069 2.84365C6.72277 2.84365 6.90694 3.02781 6.90694 3.2499V3.56406H7.10194C7.99027 3.56406 8.71069 4.31156 8.71069 5.2324C8.71069 5.45448 8.52652 5.63865 8.30444 5.63865C8.08235 5.63865 7.89819 5.45448 7.89819 5.2324C7.89819 4.76115 7.54069 4.37656 7.10194 4.37656H6.90694V6.2074L7.72485 6.4999Z" fill="#1BD69E"/>
<path d="M5.10156 5.07546C5.10156 5.54671 5.26948 5.63879 5.54573 5.73629L6.09281 5.92588V4.37671H5.74073C5.38865 4.37671 5.10156 4.69088 5.10156 5.07546Z" fill="#1BD69E"/>
</svg>
