<svg width="12" height="12" viewBox="0 0 12 12" fill="none" xmlns="http://www.w3.org/2000/svg">
<path d="M8.44547 0.166504H3.55714C1.4338 0.166504 0.167969 1.43234 0.167969 3.55567V8.43817C0.167969 10.5673 1.4338 11.8332 3.55714 11.8332H8.43964C10.563 11.8332 11.8288 10.5673 11.8288 8.44401V3.55567C11.8346 1.43234 10.5688 0.166504 8.44547 0.166504ZM7.1213 8.409H4.2513C4.01214 8.409 3.8138 8.21067 3.8138 7.9715C3.8138 7.73234 4.01214 7.534 4.2513 7.534H7.1213C7.86797 7.534 8.48047 6.92734 8.48047 6.17484C8.48047 5.42234 7.8738 4.81567 7.1213 4.81567H4.1638L4.31547 4.96734C4.48463 5.14234 4.48464 5.4165 4.30964 5.5915C4.22214 5.679 4.1113 5.71984 4.00047 5.71984C3.88964 5.71984 3.7788 5.679 3.6913 5.5915L2.77547 4.66984C2.6063 4.50067 2.6063 4.22067 2.77547 4.0515L3.6913 3.13567C3.86047 2.9665 4.14047 2.9665 4.30964 3.13567C4.4788 3.30484 4.4788 3.58484 4.30964 3.754L4.11714 3.9465H7.1213C8.35213 3.9465 9.35547 4.94984 9.35547 6.18067C9.35547 7.4115 8.35213 8.409 7.1213 8.409Z" fill="#338FFB"/>
</svg>
