<svg width="20" height="20" viewBox="0 0 20 20" fill="none" xmlns="http://www.w3.org/2000/svg">
<path d="M13.3327 10.7501V14.2501C13.3327 17.1667 12.166 18.3334 9.24935 18.3334H5.74935C2.83268 18.3334 1.66602 17.1667 1.66602 14.2501V10.7501C1.66602 7.83341 2.83268 6.66675 5.74935 6.66675H9.24935C12.166 6.66675 13.3327 7.83341 13.3327 10.7501Z" fill="#5F6C87"/>
<path d="M14.2508 1.66675H10.7508C8.24733 1.66675 7.03919 2.5324 6.74673 4.61583C6.66931 5.16733 7.13077 5.62508 7.68769 5.62508H9.25078C12.7508 5.62508 14.3758 7.25008 14.3758 10.7501V12.3132C14.3758 12.8701 14.8335 13.3315 15.385 13.2541C17.4685 12.9617 18.3341 11.7535 18.3341 9.25008V5.75008C18.3341 2.83341 17.1674 1.66675 14.2508 1.66675Z" fill="#5F6C87"/>
</svg>
