<svg width="16" height="20" viewBox="0 0 16 20" fill="none" xmlns="http://www.w3.org/2000/svg">
<path d="M13.9952 2.8225L8.95356 0.93417C8.43106 0.74167 7.57856 0.74167 7.05606 0.93417L2.01439 2.8225C1.04273 3.18917 0.254395 4.32584 0.254395 5.36167V12.7867C0.254395 13.5292 0.740228 14.51 1.33606 14.95L6.37773 18.7175C7.26689 19.3867 8.72439 19.3867 9.61356 18.7175L14.6552 14.95C15.2511 14.5008 15.7369 13.5292 15.7369 12.7867V5.36167C15.7461 4.32584 14.9577 3.18917 13.9952 2.8225ZM8.68773 10.7975V13.2083C8.68773 13.5842 8.37606 13.8958 8.00023 13.8958C7.62439 13.8958 7.31273 13.5842 7.31273 13.2083V10.7975C6.38689 10.5042 5.70856 9.6425 5.70856 8.625C5.70856 7.36 6.73523 6.33334 8.00023 6.33334C9.26523 6.33334 10.2919 7.36 10.2919 8.625C10.2919 9.65167 9.61356 10.5042 8.68773 10.7975Z" fill="#19D099"/>
</svg>
