<svg viewBox="0 0 16 16" fill="none" xmlns="http://www.w3.org/2000/svg">
<g clip-path="url(#clip0_2358_3570)">
<rect width="16" height="16" rx="4" fill="white"/>
<rect width="16" height="16" rx="4" fill="#E2B617"/>
<path d="M4.45494 12V3.6H8.76294C9.81894 3.6 10.5629 3.864 11.0549 4.344C11.3909 4.692 11.5949 5.136 11.5949 5.712V5.736C11.5949 6.708 11.0549 7.284 10.2989 7.608C11.3189 7.944 11.9669 8.52 11.9669 9.66V9.684C11.9669 11.136 10.8029 12 8.78694 12H4.45494ZM9.30294 6.216V6.192C9.30294 5.712 8.95494 5.472 8.24694 5.472H6.72294V6.948H8.18694C8.90694 6.948 9.30294 6.708 9.30294 6.216ZM9.63894 9.36V9.336C9.63894 8.868 9.27894 8.58 8.49894 8.58H6.72294V10.128H8.52294C9.24294 10.128 9.63894 9.852 9.63894 9.36Z" fill="#10151E"/>
</g>
<rect x="0.5" y="0.5" width="15" height="15" rx="3.5" stroke="#FDCD24"/>
<defs>
<clipPath id="clip0_2358_3570">
<rect width="16" height="16" rx="4" fill="white"/>
</clipPath>
</defs>
</svg>
