<svg viewBox="0 0 14 14" xmlns="http://www.w3.org/2000/svg">
<path d="M7.27199 0.442409L7.27197 0.442367C7.23129 0.327115 7.12229 0.25 7 0.25C6.87774 0.25 6.76875 0.327084 6.72801 0.442419L6.34641 1.52297L6.28752 1.68972H6.11068H4.84615C4.71913 1.68972 4.60702 1.77284 4.57013 1.89442C4.53323 2.016 4.58022 2.14739 4.68585 2.21799L4.68586 2.218L5.6692 2.8753L5.83068 2.98324L5.766 3.16639L5.39689 4.21163L5.39687 4.21168C5.3555 4.32876 5.39372 4.4592 5.49181 4.53546C5.58998 4.61171 5.72585 4.61654 5.82916 4.54753C5.82917 4.54752 5.82918 4.54751 5.82919 4.54751L6.86107 3.85776L7 3.76489L7.13893 3.85776L8.17081 4.54751C8.27412 4.61655 8.41002 4.6117 8.50812 4.53551L7.27199 0.442409ZM7.27199 0.442409L7.65365 1.52298L7.71254 1.68972M7.27199 0.442409L7.71254 1.68972M7.71254 1.68972H7.88938M7.71254 1.68972H7.88938M7.88938 1.68972H9.15384C9.28091 1.68972 9.39297 1.77283 9.42987 1.89442C9.46677 2.016 9.41978 2.14739 9.31415 2.21799L9.31414 2.218M7.88938 1.68972L9.31414 2.218M9.31414 2.218L8.3308 2.8753L8.16931 2.98325M9.31414 2.218L8.16931 2.98325M8.16931 2.98325L8.234 3.1664M8.16931 2.98325L8.234 3.1664M8.234 3.1664L8.60316 4.21163M8.234 3.1664L8.60316 4.21163M2.55809 3.55933H2.37368H2.15385C2.03016 3.55933 1.92023 3.63819 1.8806 3.75535L2.55809 3.55933ZM2.55809 3.55933L2.61253 3.38314L2.68594 3.1456C2.72329 3.02473 2.83503 2.94231 2.96154 2.94231C3.08804 2.94231 3.19979 3.02473 3.23714 3.1456L3.47599 3.07179M2.55809 3.55933L3.47599 3.07179M3.47599 3.07179L3.23714 3.1456L3.31054 3.38314L3.36499 3.55933M3.47599 3.07179L3.36499 3.55933M2.31802 4.33619L2.26654 4.50281L2.18676 4.761L2.18675 4.76101C2.14971 4.88088 2.1944 5.01095 2.29734 5.08277C2.40027 5.15452 2.53779 5.15153 2.63749 5.07539L2.80975 4.94377L2.96154 4.82779L3.11332 4.94377L3.28558 5.07539C3.28559 5.0754 3.28561 5.07541 3.28562 5.07542C3.38532 5.15153 3.52282 5.15451 3.62573 5.08277L2.31802 4.33619ZM2.31802 4.33619L2.17942 4.23033M2.31802 4.33619L2.17942 4.23033M2.17942 4.23033L1.97877 4.07707C1.97875 4.07706 1.97873 4.07704 1.97871 4.07703M2.17942 4.23033L1.97871 4.07703M3.60503 4.33618L3.74366 4.23032L3.94432 4.07708C4.04266 4.00192 4.08212 3.87252 4.0425 3.75536L3.60503 4.33618ZM3.60503 4.33618L3.65654 4.50283M3.60503 4.33618L3.65654 4.50283M3.65654 4.50283L3.73633 4.761M3.65654 4.50283L3.73633 4.761M3.36499 3.55933H3.5494M3.36499 3.55933H3.5494M3.73633 4.761C3.77336 4.88085 3.72868 5.01091 3.62577 5.08274L3.73633 4.761ZM3.5494 3.55933H3.76923C3.89293 3.55933 4.00286 3.63819 4.04249 3.75535L3.5494 3.55933ZM8.60316 4.21163C8.60317 4.21163 8.60317 4.21164 8.60317 4.21164M8.60316 4.21163L8.60317 4.21164M8.60317 4.21164C8.64452 4.32876 8.60626 4.45922 8.50816 4.53549L8.60317 4.21164ZM1.97871 4.07703C1.88041 4.00187 1.84097 3.87252 1.88059 3.75536L1.97871 4.07703ZM11.3874 3.38313L11.4419 3.55933H11.6263H11.8462C11.9699 3.55933 12.0798 3.6382 12.1194 3.75536C12.159 3.87252 12.1196 4.00191 12.0212 4.07708L11.8206 4.23032L11.682 4.33618L11.7335 4.50283L11.8133 4.761C11.8503 4.88087 11.8056 5.01096 11.7027 5.08278C11.5997 5.15452 11.4622 5.15153 11.3625 5.07538L11.1902 4.94376L11.0385 4.82779L10.8867 4.94376L10.7144 5.07538C10.7144 5.07539 10.7144 5.07541 10.7144 5.07542C10.6147 5.15153 10.4772 5.15451 10.3743 5.08278C10.2713 5.01096 10.2266 4.88089 10.2637 4.76102C10.2637 4.76101 10.2637 4.761 10.2637 4.761L10.3435 4.50283L10.395 4.33618L10.2563 4.23032L10.0557 4.07708C10.0557 4.07706 10.0556 4.07704 10.0556 4.07702C9.95732 4.00185 9.91789 3.87249 9.9575 3.75536C9.99713 3.6382 10.1071 3.55933 10.2308 3.55933H10.4506H10.635L10.6895 3.38313L10.7629 3.14561C10.7629 3.14561 10.7629 3.1456 10.7629 3.14559C10.8002 3.02471 10.912 2.94231 11.0385 2.94231C11.165 2.94231 11.2767 3.02471 11.314 3.14559C11.314 3.1456 11.3141 3.14561 11.3141 3.14561L11.3874 3.38313ZM13.6923 8.44231L13.6923 8.44233C13.7579 8.52969 13.7684 8.64662 13.7195 8.74438C13.6707 8.84213 13.5708 8.90385 13.4615 8.90385H8.61538C8.52455 8.90385 8.43907 8.86109 8.38463 8.78849L8.38461 8.78846L7.2 7.20899L7 6.94233L6.8 7.20899L5.61538 8.78846L5.61536 8.78849C5.56093 8.86109 5.47545 8.90385 5.38461 8.90385H0.538466C0.429201 8.90385 0.329321 8.84212 0.280459 8.74439C0.23159 8.64664 0.242143 8.52971 0.307691 8.44232L0.307697 8.44231L1.92308 6.28846C1.97756 6.21583 2.06305 6.17308 2.15385 6.17308H11.8462C11.9369 6.17308 12.0224 6.21581 12.0769 6.28849L13.6923 8.44231ZM7.09599 13.7336L7.09598 13.7336C7.0339 13.7555 6.9661 13.7555 6.90402 13.7336L6.904 13.7336L2.05784 12.0231L1.97538 12.2568L2.05783 12.0231C1.94251 11.9824 1.86538 11.8734 1.86538 11.7511V10.2115H5.38461C5.88701 10.2115 6.36011 9.97499 6.66154 9.57308C6.66154 9.57308 6.66154 9.57307 6.66154 9.57307L7 9.12181L7.33846 9.57307C7.33846 9.57307 7.33846 9.57308 7.33846 9.57308C7.63989 9.97499 8.11298 10.2115 8.61538 10.2115H12.1346V11.7511C12.1346 11.8734 12.0575 11.9824 11.9422 12.0231L12.0254 12.2589L11.9421 12.0231L7.09599 13.7336Z" />
</svg>
