<svg viewBox="0 0 20 20" xmlns="http://www.w3.org/2000/svg">
<path d="M17.749 6.31669H13.099C12.774 6.31669 12.5156 6.05836 12.5156 5.73336C12.5156 5.40836 12.774 5.15002 13.099 5.15002H17.749C18.074 5.15002 18.3323 5.40836 18.3323 5.73336C18.3323 6.05836 18.074 6.31669 17.749 6.31669Z"/>
<path d="M5.3513 6.31669H2.2513C1.9263 6.31669 1.66797 6.05836 1.66797 5.73336C1.66797 5.40836 1.9263 5.15002 2.2513 5.15002H5.3513C5.6763 5.15002 5.93464 5.40836 5.93464 5.73336C5.93464 6.05836 5.66797 6.31669 5.3513 6.31669Z"/>
<path d="M8.45182 9.02498C10.2698 9.02498 11.7435 7.55125 11.7435 5.73332C11.7435 3.91538 10.2698 2.44165 8.45182 2.44165C6.63389 2.44165 5.16016 3.91538 5.16016 5.73332C5.16016 7.55125 6.63389 9.02498 8.45182 9.02498Z"/>
<path d="M17.7497 14.8417H14.6497C14.3247 14.8417 14.0664 14.5834 14.0664 14.2584C14.0664 13.9334 14.3247 13.675 14.6497 13.675H17.7497C18.0747 13.675 18.3331 13.9334 18.3331 14.2584C18.3331 14.5834 18.0747 14.8417 17.7497 14.8417Z"/>
<path d="M6.9013 14.8417H2.2513C1.9263 14.8417 1.66797 14.5834 1.66797 14.2584C1.66797 13.9334 1.9263 13.675 2.2513 13.675H6.9013C7.2263 13.675 7.48463 13.9334 7.48463 14.2584C7.48463 14.5834 7.21797 14.8417 6.9013 14.8417Z"/>
<path d="M11.5495 17.5583C13.3674 17.5583 14.8411 16.0846 14.8411 14.2666C14.8411 12.4487 13.3674 10.975 11.5495 10.975C9.73154 10.975 8.25781 12.4487 8.25781 14.2666C8.25781 16.0846 9.73154 17.5583 11.5495 17.5583Z"/>
</svg>
