<svg viewBox="0 0 24 24" xmlns="http://www.w3.org/2000/svg">
<path d="M20.2159 4.63C18.7866 3 15.7181 2 12 2C8.28186 2 5.21339 3 3.78411 4.63C1.4053 7.39 1.4053 16.63 3.78411 19.37C5.21339 21 8.28186 22 12 22C15.7181 22 18.7866 21 20.2159 19.37C22.5947 16.61 22.5947 7.39 20.2159 4.63ZM12 17.5C11.8023 17.5 11.6091 17.4414 11.4447 17.3315C11.2803 17.2216 11.1522 17.0654 11.0766 16.8827C11.0009 16.7 10.9811 16.4989 11.0197 16.3049C11.0583 16.1109 11.1535 15.9327 11.2932 15.7929C11.433 15.653 11.6111 15.5578 11.805 15.5192C11.9989 15.4806 12.1999 15.5004 12.3825 15.5761C12.5651 15.6518 12.7212 15.78 12.8311 15.9444C12.9409 16.1089 12.9995 16.3022 12.9995 16.5C12.9995 16.7652 12.8942 17.0196 12.7068 17.2071C12.5193 17.3946 12.2651 17.5 12 17.5ZM12.9995 12.62V13.5C12.9995 13.7652 12.8942 14.0196 12.7068 14.2071C12.5193 14.3946 12.2651 14.5 12 14.5C11.7349 14.5 11.4807 14.3946 11.2932 14.2071C11.1058 14.0196 11.0005 13.7652 11.0005 13.5V12.57C10.9951 12.1623 11.1217 11.7638 11.3613 11.434C11.6009 11.1042 11.9406 10.8608 12.3298 10.74C12.5316 10.679 12.7124 10.5631 12.8523 10.4054C12.9922 10.2477 13.0856 10.0542 13.1221 9.84657C13.1587 9.63891 13.137 9.42518 13.0594 9.22913C12.9818 9.03308 12.8514 8.8624 12.6826 8.73607C12.5139 8.60974 12.3134 8.53271 12.1036 8.51354C11.8937 8.49437 11.6826 8.53381 11.4938 8.62748C11.305 8.72115 11.1458 8.86538 11.034 9.04413C10.9222 9.22288 10.8622 9.42915 10.8606 9.64C10.8606 9.90522 10.7553 10.1596 10.5678 10.3471C10.3804 10.5346 10.1262 10.64 9.86107 10.64C9.59598 10.64 9.34176 10.5346 9.15432 10.3471C8.96687 10.1596 8.86157 9.90522 8.86157 9.64C8.89869 8.90508 9.1918 8.20636 9.69003 7.66507C10.1883 7.12379 10.8602 6.7741 11.5892 6.67669C12.3182 6.57928 13.0583 6.7403 13.6811 7.1318C14.3038 7.5233 14.7699 8.12058 14.9985 8.82C15.2075 9.58891 15.1174 10.4085 14.7465 11.1136C14.3756 11.8187 13.7513 12.357 12.9995 12.62Z" />
</svg>
