<svg viewBox="0 0 19 19" xmlns="http://www.w3.org/2000/svg">
<path d="M14.8438 9.5C14.8438 9.81494 14.7186 10.117 14.4959 10.3397C14.2732 10.5624 13.9712 10.6875 13.6562 10.6875H10.6875V13.6562C10.6875 13.9712 10.5624 14.2732 10.3397 14.4959C10.117 14.7186 9.81494 14.8438 9.5 14.8438C9.18506 14.8438 8.88301 14.7186 8.66031 14.4959C8.43761 14.2732 8.3125 13.9712 8.3125 13.6562V10.6875H5.34375C5.02881 10.6875 4.72676 10.5624 4.50406 10.3397C4.28136 10.117 4.15625 9.81494 4.15625 9.5C4.15625 9.18506 4.28136 8.88301 4.50406 8.66031C4.72676 8.43761 5.02881 8.3125 5.34375 8.3125H8.3125V5.34375C8.3125 5.02881 8.43761 4.72676 8.66031 4.50406C8.88301 4.28136 9.18506 4.15625 9.5 4.15625C9.81494 4.15625 10.117 4.28136 10.3397 4.50406C10.5624 4.72676 10.6875 5.02881 10.6875 5.34375V8.3125H13.6562C13.9712 8.3125 14.2732 8.43761 14.4959 8.66031C14.7186 8.88301 14.8438 9.18506 14.8438 9.5ZM19 9.5C19 14.7383 14.7383 19 9.5 19C4.26168 19 0 14.7383 0 9.5C0 4.26168 4.26168 0 9.5 0C14.7383 0 19 4.26168 19 9.5ZM16.625 9.5C16.625 5.57127 13.4287 2.375 9.5 2.375C5.57127 2.375 2.375 5.57127 2.375 9.5C2.375 13.4287 5.57127 16.625 9.5 16.625C13.4287 16.625 16.625 13.4287 16.625 9.5Z" fill="#19D099"/>
</svg>
