<svg viewBox="0 0 20 20" xmlns="http://www.w3.org/2000/svg">
<path d="M16.8428 8.4915H14.5927C12.7474 8.4915 11.2447 6.88317 11.2447 4.90817V2.49984C11.2447 2.0415 10.8944 1.6665 10.4661 1.6665H7.1649C4.76683 1.6665 2.82812 3.33317 2.82812 6.30817V13.6915C2.82812 16.6665 4.76683 18.3332 7.1649 18.3332H13.2847C15.6827 18.3332 17.6214 16.6665 17.6214 13.6915V9.32484C17.6214 8.8665 17.2711 8.4915 16.8428 8.4915ZM10.4428 13.1498L8.88559 14.8165C8.83109 14.8748 8.76102 14.9248 8.69094 14.9498C8.62087 14.9832 8.5508 14.9998 8.47294 14.9998C8.39508 14.9998 8.32501 14.9832 8.25493 14.9498C8.19264 14.9248 8.13036 14.8748 8.08364 14.8248C8.07585 14.8165 8.06807 14.8165 8.06807 14.8082L6.51088 13.1415C6.28509 12.8998 6.28509 12.4998 6.51088 12.2582C6.73667 12.0165 7.1104 12.0165 7.33619 12.2582L7.88899 12.8665V9.37484C7.88899 9.03317 8.15371 8.74984 8.47294 8.74984C8.79216 8.74984 9.05688 9.03317 9.05688 9.37484V12.8665L9.61747 12.2665C9.84327 12.0248 10.217 12.0248 10.4428 12.2665C10.6686 12.5082 10.6686 12.9082 10.4428 13.1498Z"/>
<path d="M14.4536 7.34158C15.1933 7.34991 16.221 7.34991 17.1009 7.34991C17.5447 7.34991 17.7782 6.79158 17.4668 6.45825C16.3456 5.24991 14.3368 3.07491 13.1845 1.84158C12.8653 1.49991 12.3125 1.73325 12.3125 2.20825V5.11658C12.3125 6.33325 13.278 7.34158 14.4536 7.34158Z"/>
</svg>
