<svg width="16" height="16" viewBox="0 0 16 16" fill="none" xmlns="http://www.w3.org/2000/svg">
<path d="M6.00001 1.33325C4.25334 1.33325 2.83334 2.75325 2.83334 4.49992C2.83334 6.21325 4.17334 7.59992 5.92001 7.65992C5.97334 7.65325 6.02668 7.65325 6.06668 7.65992C6.08001 7.65992 6.08668 7.65992 6.10001 7.65992C6.10668 7.65992 6.10668 7.65992 6.11334 7.65992C7.82001 7.59992 9.16001 6.21325 9.16668 4.49992C9.16668 2.75325 7.74668 1.33325 6.00001 1.33325Z" fill="#17E2A5"/>
<path d="M9.38667 9.43342C7.52667 8.19342 4.49334 8.19342 2.62 9.43342C1.77334 10.0001 1.30667 10.7668 1.30667 11.5868C1.30667 12.4068 1.77334 13.1668 2.61334 13.7268C3.54667 14.3534 4.77334 14.6668 6 14.6668C7.22667 14.6668 8.45334 14.3534 9.38667 13.7268C10.2267 13.1601 10.6933 12.4001 10.6933 11.5734C10.6867 10.7534 10.2267 9.99342 9.38667 9.43342Z" fill="#17E2A5"/>
<path d="M13.3267 4.89332C13.4333 6.18665 12.5133 7.31998 11.24 7.47332C11.2333 7.47332 11.2333 7.47332 11.2267 7.47332H11.2067C11.1667 7.47332 11.1267 7.47332 11.0933 7.48665C10.4467 7.51998 9.85334 7.31332 9.40668 6.93332C10.0933 6.31998 10.4867 5.39998 10.4067 4.39998C10.36 3.85998 10.1733 3.36665 9.89334 2.94665C10.1467 2.81999 10.44 2.73999 10.74 2.71332C12.0467 2.59999 13.2133 3.57332 13.3267 4.89332Z" fill="#17E2A5" fill-opacity="0.35"/>
<path d="M14.66 11.0599C14.6067 11.7066 14.1933 12.2666 13.5 12.6466C12.8333 13.0133 11.9933 13.1866 11.16 13.1666C11.64 12.7333 11.92 12.1933 11.9733 11.6199C12.04 10.7933 11.6467 9.99994 10.86 9.36661C10.4133 9.01327 9.89333 8.73327 9.32666 8.52661C10.8 8.09994 12.6533 8.38661 13.7933 9.30661C14.4067 9.79994 14.72 10.4199 14.66 11.0599Z" fill="#17E2A5" fill-opacity="0.35"/>
</svg>
