<svg width="24" height="18" viewBox="0 0 24 18" fill="none" xmlns="http://www.w3.org/2000/svg">
<path d="M21.75 0.75H2.25C1.65326 0.75 1.08097 0.987053 0.65901 1.40901C0.237053 1.83097 0 2.40326 0 3L0 15C0 15.5967 0.237053 16.169 0.65901 16.591C1.08097 17.0129 1.65326 17.25 2.25 17.25H21.75C22.3467 17.25 22.919 17.0129 23.341 16.591C23.7629 16.169 24 15.5967 24 15V3C24 2.40326 23.7629 1.83097 23.341 1.40901C22.919 0.987053 22.3467 0.75 21.75 0.75ZM7.5 14.25H4.5C4.30109 14.25 4.11032 14.171 3.96967 14.0303C3.82902 13.8897 3.75 13.6989 3.75 13.5C3.75 13.3011 3.82902 13.1103 3.96967 12.9697C4.11032 12.829 4.30109 12.75 4.5 12.75H7.5C7.69891 12.75 7.88968 12.829 8.03033 12.9697C8.17098 13.1103 8.25 13.3011 8.25 13.5C8.25 13.6989 8.17098 13.8897 8.03033 14.0303C7.88968 14.171 7.69891 14.25 7.5 14.25ZM8.0325 9.9675C8.1028 10.0372 8.15859 10.1202 8.19667 10.2116C8.23475 10.303 8.25435 10.401 8.25435 10.5C8.25435 10.599 8.23475 10.697 8.19667 10.7884C8.15859 10.8798 8.1028 10.9628 8.0325 11.0325C7.96278 11.1028 7.87983 11.1586 7.78843 11.1967C7.69704 11.2347 7.59901 11.2543 7.5 11.2543C7.40099 11.2543 7.30296 11.2347 7.21157 11.1967C7.12017 11.1586 7.03722 11.1028 6.9675 11.0325L6 10.0575L5.0325 11.0325C4.96278 11.1028 4.87983 11.1586 4.78843 11.1967C4.69704 11.2347 4.59901 11.2543 4.5 11.2543C4.40099 11.2543 4.30296 11.2347 4.21157 11.1967C4.12017 11.1586 4.03722 11.1028 3.9675 11.0325C3.8972 10.9628 3.84141 10.8798 3.80333 10.7884C3.76526 10.697 3.74565 10.599 3.74565 10.5C3.74565 10.401 3.76526 10.303 3.80333 10.2116C3.84141 10.1202 3.8972 10.0372 3.9675 9.9675L4.9425 9L3.9675 8.0325C3.89757 7.96257 3.8421 7.87955 3.80426 7.78819C3.76641 7.69682 3.74693 7.59889 3.74693 7.5C3.74693 7.30027 3.82627 7.10873 3.9675 6.9675C4.10873 6.82627 4.30027 6.74693 4.5 6.74693C4.69973 6.74693 4.89127 6.82627 5.0325 6.9675L6 7.9425L6.9675 6.9675C7.10873 6.82627 7.30027 6.74693 7.5 6.74693C7.69973 6.74693 7.89127 6.82627 8.0325 6.9675C8.17373 7.10873 8.25307 7.30027 8.25307 7.5C8.25307 7.69973 8.17373 7.89127 8.0325 8.0325L7.0575 9L8.0325 9.9675ZM7.5 5.25H4.5C4.30109 5.25 4.11032 5.17098 3.96967 5.03033C3.82902 4.88968 3.75 4.69891 3.75 4.5C3.75 4.30109 3.82902 4.11032 3.96967 3.96967C4.11032 3.82902 4.30109 3.75 4.5 3.75H7.5C7.69891 3.75 7.88968 3.82902 8.03033 3.96967C8.17098 4.11032 8.25 4.30109 8.25 4.5C8.25 4.69891 8.17098 4.88968 8.03033 5.03033C7.88968 5.17098 7.69891 5.25 7.5 5.25ZM14.0325 9.9675C14.1028 10.0372 14.1586 10.1202 14.1967 10.2116C14.2347 10.303 14.2543 10.401 14.2543 10.5C14.2543 10.599 14.2347 10.697 14.1967 10.7884C14.1586 10.8798 14.1028 10.9628 14.0325 11.0325C13.9628 11.1028 13.8798 11.1586 13.7884 11.1967C13.697 11.2347 13.599 11.2543 13.5 11.2543C13.401 11.2543 13.303 11.2347 13.2116 11.1967C13.1202 11.1586 13.0372 11.1028 12.9675 11.0325L12 10.0575L11.0325 11.0325C10.9628 11.1028 10.8798 11.1586 10.7884 11.1967C10.697 11.2347 10.599 11.2543 10.5 11.2543C10.401 11.2543 10.303 11.2347 10.2116 11.1967C10.1202 11.1586 10.0372 11.1028 9.9675 11.0325C9.8972 10.9628 9.84141 10.8798 9.80333 10.7884C9.76525 10.697 9.74565 10.599 9.74565 10.5C9.74565 10.401 9.76525 10.303 9.80333 10.2116C9.84141 10.1202 9.8972 10.0372 9.9675 9.9675L10.9425 9L9.9675 8.0325C9.82627 7.89127 9.74693 7.69973 9.74693 7.5C9.74693 7.30027 9.82627 7.10873 9.9675 6.9675C10.1087 6.82627 10.3003 6.74693 10.5 6.74693C10.6997 6.74693 10.8913 6.82627 11.0325 6.9675L12 7.9425L12.9675 6.9675C13.0374 6.89757 13.1204 6.8421 13.2118 6.80426C13.3032 6.76641 13.4011 6.74693 13.5 6.74693C13.5989 6.74693 13.6968 6.76641 13.7882 6.80426C13.8796 6.8421 13.9626 6.89757 14.0325 6.9675C14.1024 7.03743 14.1579 7.12045 14.1957 7.21181C14.2336 7.30318 14.2531 7.40111 14.2531 7.5C14.2531 7.59889 14.2336 7.69682 14.1957 7.78819C14.1579 7.87955 14.1024 7.96257 14.0325 8.0325L13.0575 9L14.0325 9.9675ZM20.0325 9.9675C20.1028 10.0372 20.1586 10.1202 20.1967 10.2116C20.2347 10.303 20.2543 10.401 20.2543 10.5C20.2543 10.599 20.2347 10.697 20.1967 10.7884C20.1586 10.8798 20.1028 10.9628 20.0325 11.0325C19.9628 11.1028 19.8798 11.1586 19.7884 11.1967C19.697 11.2347 19.599 11.2543 19.5 11.2543C19.401 11.2543 19.303 11.2347 19.2116 11.1967C19.1202 11.1586 19.0372 11.1028 18.9675 11.0325L18 10.0575L17.0325 11.0325C16.9628 11.1028 16.8798 11.1586 16.7884 11.1967C16.697 11.2347 16.599 11.2543 16.5 11.2543C16.401 11.2543 16.303 11.2347 16.2116 11.1967C16.1202 11.1586 16.0372 11.1028 15.9675 11.0325C15.8972 10.9628 15.8414 10.8798 15.8033 10.7884C15.7653 10.697 15.7457 10.599 15.7457 10.5C15.7457 10.401 15.7653 10.303 15.8033 10.2116C15.8414 10.1202 15.8972 10.0372 15.9675 9.9675L16.9425 9L15.9675 8.0325C15.8976 7.96257 15.8421 7.87955 15.8043 7.78819C15.7664 7.69682 15.7469 7.59889 15.7469 7.5C15.7469 7.30027 15.8263 7.10873 15.9675 6.9675C16.1087 6.82627 16.3003 6.74693 16.5 6.74693C16.5989 6.74693 16.6968 6.76641 16.7882 6.80426C16.8796 6.8421 16.9626 6.89757 17.0325 6.9675L18 7.9425L18.9675 6.9675C19.0374 6.89757 19.1204 6.8421 19.2118 6.80426C19.3032 6.76641 19.4011 6.74693 19.5 6.74693C19.5989 6.74693 19.6968 6.76641 19.7882 6.80426C19.8796 6.8421 19.9626 6.89757 20.0325 6.9675C20.1024 7.03743 20.1579 7.12045 20.1957 7.21181C20.2336 7.30318 20.2531 7.40111 20.2531 7.5C20.2531 7.59889 20.2336 7.69682 20.1957 7.78819C20.1579 7.87955 20.1024 7.96257 20.0325 8.0325L19.0575 9L20.0325 9.9675Z" fill="#E9BC1B"/>
</svg>
