<svg width="14" height="14" viewBox="0 0 14 14" fill="none" xmlns="http://www.w3.org/2000/svg">
<path d="M6.99891 2.7124C4.21057 2.7124 1.94141 4.98157 1.94141 7.7699C1.94141 10.5582 4.21057 12.8332 6.99891 12.8332C9.78724 12.8332 12.0564 10.5641 12.0564 7.77574C12.0564 4.9874 9.78724 2.7124 6.99891 2.7124ZM7.43641 7.58324C7.43641 7.8224 7.23807 8.02074 6.99891 8.02074C6.75974 8.02074 6.56141 7.8224 6.56141 7.58324V4.66657C6.56141 4.4274 6.75974 4.22907 6.99891 4.22907C7.23807 4.22907 7.43641 4.4274 7.43641 4.66657V7.58324Z" fill="#E1B514"/>
<path d="M6.99891 2.7124C4.21057 2.7124 1.94141 4.98157 1.94141 7.7699C1.94141 10.5582 4.21057 12.8332 6.99891 12.8332C9.78724 12.8332 12.0564 10.5641 12.0564 7.77574C12.0564 4.9874 9.78724 2.7124 6.99891 2.7124ZM7.43641 7.58324C7.43641 7.8224 7.23807 8.02074 6.99891 8.02074C6.75974 8.02074 6.56141 7.8224 6.56141 7.58324V4.66657C6.56141 4.4274 6.75974 4.22907 6.99891 4.22907C7.23807 4.22907 7.43641 4.4274 7.43641 4.66657V7.58324Z" fill="url(#paint0_linear_4282_7930)"/>
<path d="M8.6862 2.01234H5.31453C5.0812 2.01234 4.89453 1.82567 4.89453 1.59234C4.89453 1.359 5.0812 1.1665 5.31453 1.1665H8.6862C8.91953 1.1665 9.1062 1.35317 9.1062 1.5865C9.1062 1.81984 8.91953 2.01234 8.6862 2.01234Z" fill="#E1B514"/>
<path d="M8.6862 2.01234H5.31453C5.0812 2.01234 4.89453 1.82567 4.89453 1.59234C4.89453 1.359 5.0812 1.1665 5.31453 1.1665H8.6862C8.91953 1.1665 9.1062 1.35317 9.1062 1.5865C9.1062 1.81984 8.91953 2.01234 8.6862 2.01234Z" fill="url(#paint1_linear_4282_7930)"/>
<defs>
<linearGradient id="paint0_linear_4282_7930" x1="12.8546" y1="2.7124" x2="12.8546" y2="12.8332" gradientUnits="userSpaceOnUse">
<stop stop-color="#FDCD24" stop-opacity="0"/>
<stop offset="1" stop-color="#FDCD24" stop-opacity="0.65"/>
</linearGradient>
<linearGradient id="paint1_linear_4282_7930" x1="9.43853" y1="1.1665" x2="9.43853" y2="2.01234" gradientUnits="userSpaceOnUse">
<stop stop-color="#FDCD24" stop-opacity="0"/>
<stop offset="1" stop-color="#FDCD24" stop-opacity="0.65"/>
</linearGradient>
</defs>
</svg>
