<svg width="16" height="16" viewBox="0 0 16 16" fill="none" xmlns="http://www.w3.org/2000/svg">
<path d="M8 15.5C12.14 15.5 15.5 12.14 15.5 8C15.5 3.86 12.14 0.5 8 0.500001C3.86 0.500001 0.499999 3.86 0.499999 8C0.5 12.14 3.86 15.5 8 15.5ZM5.375 7.4375L9.2675 7.4375L7.9775 6.1475C7.76 5.93 7.76 5.57 7.9775 5.3525C8.09 5.24 8.2325 5.1875 8.375 5.1875C8.5175 5.1875 8.66 5.24 8.7725 5.3525L11.0225 7.6025C11.24 7.82 11.24 8.18 11.0225 8.3975L8.7725 10.6475C8.555 10.865 8.195 10.865 7.9775 10.6475C7.76 10.43 7.76 10.07 7.9775 9.8525L9.2675 8.5625L5.375 8.5625C5.0675 8.5625 4.8125 8.3075 4.8125 8C4.8125 7.6925 5.0675 7.4375 5.375 7.4375Z" fill="#5A6786"/>
</svg>
