<svg width="20" height="22" viewBox="0 0 20 22" fill="none" xmlns="http://www.w3.org/2000/svg">
<path d="M9.12163 0.429448C9.6759 0.158474 10.3242 0.158476 10.8785 0.429452L18.8784 4.34056C19.5648 4.67611 20 5.37335 20 6.13733V15.8627C20 16.6267 19.5648 17.3239 18.8784 17.6594L10.8785 21.5705C10.3242 21.8415 9.6759 21.8415 9.12163 21.5706L1.12158 17.6594C0.435233 17.3239 0 16.6266 0 15.8627V6.13733C0 5.37335 0.435233 4.67611 1.12158 4.34056L9.12163 0.429448Z" fill="#121722"/>
<path d="M9.32922 2.89443C9.75151 2.68328 10.2486 2.68328 10.6709 2.89443L16.6708 5.89443C17.179 6.14851 17.5 6.66791 17.5 7.23607V14.7639C17.5 15.3321 17.179 15.8515 16.6708 16.1056L10.6709 19.1056C10.2486 19.3167 9.75151 19.3167 9.32922 19.1056L3.32918 16.1056C2.821 15.8515 2.5 15.3321 2.5 14.7639V7.23607C2.5 6.66791 2.821 6.14852 3.32918 5.89443L9.32922 2.89443Z" fill="#E2B617" stroke="#FDCD24"/>
</svg>
