<svg width="14" height="22" viewBox="0 0 14 22" fill="none" xmlns="http://www.w3.org/2000/svg">
<path d="M6.01346 15.12C4.4506 14.957 3.04146 14.572 1.83503 13.6285C1.68532 13.5111 1.53078 13.3979 1.39419 13.2668C0.866159 12.7596 0.81292 12.1788 1.23079 11.5802C1.5882 11.0679 2.18826 10.9309 2.81194 11.225C2.93277 11.282 3.04778 11.3532 3.15803 11.4296C5.40642 12.9746 8.49515 13.0172 10.7521 11.4991C10.9756 11.3276 11.2146 11.1879 11.4917 11.1165C12.0303 10.9783 12.5326 11.1761 12.8216 11.6473C13.1518 12.1855 13.1476 12.7109 12.7408 13.1286C12.1167 13.7693 11.366 14.2327 10.5321 14.5562C9.74342 14.8619 8.87963 15.0159 8.02478 15.1181C8.15373 15.2584 8.2146 15.3275 8.29524 15.4085C9.45606 16.5749 10.622 17.7363 11.779 18.9063C12.1732 19.3049 12.2555 19.7992 12.0385 20.2628C11.8012 20.7695 11.2699 21.103 10.7491 21.0673C10.4191 21.0445 10.1617 20.8802 9.93307 20.6498C9.05706 19.7683 8.16456 18.9031 7.30627 18.0049C7.05648 17.7437 6.93639 17.7932 6.71589 18.0199C5.83463 18.9272 4.93901 19.8205 4.03806 20.7087C3.63348 21.1076 3.15212 21.1794 2.68299 20.9516C2.18424 20.7098 1.86694 20.2007 1.89139 19.6892C1.90828 19.3431 2.0785 19.0788 2.31598 18.8416C3.46483 17.6946 4.61048 16.5445 5.75653 15.3955C5.83233 15.319 5.90304 15.2379 6.01346 15.12Z" fill="#8792B7"/>
<path d="M6.96438 11.1241C4.1763 11.1145 1.89009 8.80323 1.90634 6.01072C1.92241 3.18737 4.2101 0.912149 7.02558 0.919942C9.8468 0.927571 12.1113 3.23552 12.0972 6.08824C12.0828 8.875 9.78076 11.1337 6.96438 11.1241ZM9.49824 6.01745C9.4934 4.63095 8.3891 3.52706 7.00532 3.52583C5.60988 3.52435 4.49573 4.64826 4.50648 6.04747C4.51682 7.42871 5.63064 8.52473 7.01819 8.51965C8.40157 8.51481 9.50284 7.40377 9.49824 6.01745Z" fill="#8792B7"/>
</svg>
