<svg width="14" height="14" viewBox="0 0 14 14" xmlns="http://www.w3.org/2000/svg">
<path d="M9.7125 9.71261L9.71261 9.7125C9.92564 9.4994 10.0453 9.21041 10.0453 8.90909C10.0453 8.60777 9.92564 8.31878 9.71261 8.10568L9.71255 8.10563L8.13636 6.52944V3.18182C8.13636 2.88043 8.01664 2.5914 7.80353 2.37829C7.59042 2.16518 7.30138 2.04545 7 2.04545C6.69862 2.04545 6.40958 2.16518 6.19647 2.37829C5.98336 2.5914 5.86364 2.88043 5.86364 3.18182V7V7.00011C5.8637 7.30146 5.98347 7.59045 6.19659 7.80351L8.10563 9.71255L8.10568 9.71261C8.31878 9.92564 8.60777 10.0453 8.90909 10.0453C9.21042 10.0453 9.4994 9.92564 9.7125 9.71261ZM3.3888 1.59545C4.45764 0.881271 5.71424 0.500057 6.99971 0.5C8.72304 0.502113 10.3752 1.18764 11.5938 2.40622C12.8124 3.62488 13.498 5.27715 13.5 7.00059C13.4999 8.28596 13.1187 9.54245 12.4046 10.6112C11.6903 11.6801 10.6752 12.5132 9.48744 13.0052C8.29972 13.4972 6.99279 13.6259 5.73191 13.3751C4.47104 13.1243 3.31285 12.5052 2.40381 11.5962C1.49477 10.6872 0.875703 9.52896 0.624899 8.26809C0.374095 7.00721 0.502817 5.70028 0.994786 4.51256C1.48676 3.32484 2.31988 2.30968 3.3888 1.59545Z"/>
</svg>
