<svg viewBox="0 0 34 34" xmlns="http://www.w3.org/2000/svg">
<path d="M31.0515 23.7292C30.584 27.4975 27.4957 30.5858 23.7273 31.0533C21.4465 31.3367 19.3215 30.7133 17.664 29.495C16.7148 28.8008 16.9415 27.3275 18.0748 26.9875C22.339 25.6983 25.6965 22.3267 26.9998 18.0625C27.3398 16.9433 28.8132 16.7167 29.5073 17.6517C30.7115 19.3233 31.3348 21.4483 31.0515 23.7292Z"/>
<path d="M14.1512 2.8335C7.9037 2.8335 2.83203 7.90516 2.83203 14.1527C2.83203 20.4002 7.9037 25.4718 14.1512 25.4718C20.3987 25.4718 25.4704 20.4002 25.4704 14.1527C25.4562 7.90516 20.3987 2.8335 14.1512 2.8335ZM12.8195 12.566L16.2337 13.756C17.4662 14.1952 18.0612 15.0593 18.0612 16.391C18.0612 17.921 16.8429 19.1818 15.3554 19.1818H15.2279V19.2527C15.2279 19.8335 14.7462 20.3152 14.1654 20.3152C13.5845 20.3152 13.1029 19.8335 13.1029 19.2527V19.1677C11.5304 19.0968 10.2695 17.7793 10.2695 16.136C10.2695 15.5552 10.7512 15.0735 11.332 15.0735C11.9129 15.0735 12.3945 15.5552 12.3945 16.136C12.3945 16.646 12.7629 17.0568 13.2162 17.0568H15.3412C15.667 17.0568 15.922 16.7593 15.922 16.391C15.922 15.8952 15.837 15.8668 15.5112 15.7535L12.097 14.5635C10.8787 14.1385 10.2695 13.2743 10.2695 11.9285C10.2695 10.3985 11.4879 9.13766 12.9754 9.13766H13.1029V9.081C13.1029 8.50016 13.5845 8.0185 14.1654 8.0185C14.7462 8.0185 15.2279 8.50016 15.2279 9.081V9.166C16.8004 9.23683 18.0612 10.5543 18.0612 12.1977C18.0612 12.7785 17.5795 13.2602 16.9987 13.2602C16.4179 13.2602 15.9362 12.7785 15.9362 12.1977C15.9362 11.6877 15.5679 11.2768 15.1145 11.2768H12.9895C12.6637 11.2768 12.4087 11.5743 12.4087 11.9427C12.3945 12.4243 12.4795 12.4527 12.8195 12.566Z"/>
</svg>
