<svg viewBox="0 0 68 114" fill="none" xmlns="http://www.w3.org/2000/svg">
<mask id="path-1-outside-1_4149_8183" maskUnits="userSpaceOnUse" x="0.820312" y="6" width="60" height="108" fill="black">
<rect fill="white" x="0.820312" y="6" width="60" height="108"/>
<path fill-rule="evenodd" clip-rule="evenodd" d="M21.6403 111C16.3603 110.797 5.40431 108.38 3.82031 100.338C3.82031 98.8763 10.5219 79.2185 13.8726 69.5723C14.5834 68.1 16.9797 64.5766 20.8788 62.2615C24.7779 59.9465 27.9865 52.9708 29.1034 49.7723C28.4942 48.7569 27.824 46.4215 30.0172 45.2031C29.6111 44.3908 28.7988 42.1874 28.7988 39.8723C28.7988 36.9785 30.6265 33.1708 35.5003 30.2769C35.0434 31.5462 34.5255 34.2369 36.1095 34.8462C35.9572 34.44 35.744 33.6277 36.1095 33.6277C36.1678 33.6277 36.236 33.6425 36.3144 33.6596C36.8507 33.7765 37.8657 33.9978 39.4603 30.2769C39.2065 30.1754 38.6074 30.1551 38.2419 30.8862C38.0388 28.9062 38.3637 24.6111 41.288 23.2708C41.1865 24.0831 41.3489 25.7077 42.8111 25.7077C44.2732 25.7077 44.6388 23.2708 44.6388 22.0523C44.6388 20.9354 45.248 18.3969 47.6849 17.1785C47.2788 18.2954 46.9538 20.5292 48.9034 20.5292L47.6849 22.6615C49.1065 22.0015 51.9495 18.9452 51.9495 12C53.4726 13.0154 56.1532 15.8686 54.6911 19.1585C54.3997 19.8142 54.0734 20.4853 53.745 21.1609C52.0138 24.7222 50.2235 28.4052 53.168 30.5815C51.2388 31.0892 47.3803 32.7138 47.3803 35.1508L46.7711 33.6277C46.2126 35.0492 46.2837 37.8923 51.0357 37.8923C49.9695 41.4462 46.2532 48.5538 39.9172 48.5538C39.8931 48.5297 39.9073 48.5861 39.9367 48.703C40.0927 49.3226 40.6763 51.6411 38.2419 52.6662C37.6326 54.0369 36.4142 58.0578 36.4142 63.1754C36.4142 65.3686 37.8357 70.2831 38.5465 72.4662C38.8936 73.5323 39.0034 75.2077 38.8511 76.4262C38.7302 77.3934 38.0388 80.0308 37.6326 81.4523L29.7126 105.517C29.2049 107.345 26.8797 111 21.6403 111ZM31.8456 45.2031C34.4044 45.4468 37.7856 46.9292 39.1564 47.64C39.3087 47.4369 40.0093 46.6043 41.5933 44.8985C42.7841 43.6161 42.212 42.8295 41.5668 41.9423C41.1392 41.3544 40.6794 40.7222 40.6794 39.8723C40.6794 38.1665 42.101 36.6231 42.8118 36.0646C40.3754 35.3879 39.0216 37.2372 38.3228 38.1917C38.2353 38.3113 38.158 38.4168 38.0902 38.5016C38.0218 38.5871 37.9419 38.6937 37.852 38.8136L37.8518 38.8139C37.1407 39.7626 35.8039 41.546 34.5871 40.3293C33.2164 38.9585 31.8456 40.4816 32.1502 42.0046C32.3939 43.2231 32.0487 44.6446 31.8456 45.2031ZM30.3225 48.8585C29.5914 47.64 30.424 46.7262 30.9317 46.4216C36.1102 47.1831 37.9379 48.4016 38.5471 49.1631C39.1564 50.8689 38.0902 51.2954 37.481 51.2954C35.3994 50.5846 31.0536 49.1022 30.3225 48.8585ZM17.3764 107.345C18.9502 107.751 22.4025 106.857 23.621 100.034C20.5241 99.78 13.325 98.2062 9.30408 93.9416C8.81669 93.3323 9.30408 91.6569 9.60869 90.8954L14.4825 75.9692C14.8379 75.4108 15.9447 74.5071 17.5287 75.36L17.6188 75.4085L17.6188 75.4086C19.7666 76.5656 28.5102 81.2758 29.561 79.6246C30.6271 77.9492 33.521 69.42 30.9318 68.6585C29.8492 68.3401 28.4698 68.0633 27.1894 67.8063C26.0199 67.5716 24.933 67.3535 24.2302 67.1354C22.0704 66.4651 23.0789 66.4868 24.7983 66.5237C26.5951 66.5622 29.1685 66.6174 29.7133 65.9169C29.9971 65.5521 30.2739 64.7792 30.6255 63.7971C31.251 62.0504 32.1134 59.6422 33.6733 57.6923C31.8056 63.7623 32.6755 65.7885 33.6226 67.9947C33.9113 68.6671 34.2071 69.3562 34.4348 70.1816C35.4096 73.7151 35.501 78.8123 34.8918 80.5385L34.8412 80.6817C34.572 81.4432 34.4374 81.8241 33.9779 83.4323C33.4905 85.1382 30.4241 94.6016 28.9517 99.12C27.7841 103.182 23.8342 110.513 17.3764 107.345Z"/>
</mask>
<path fill-rule="evenodd" clip-rule="evenodd" d="M21.6403 111C16.3603 110.797 5.40431 108.38 3.82031 100.338C3.82031 98.8763 10.5219 79.2185 13.8726 69.5723C14.5834 68.1 16.9797 64.5766 20.8788 62.2615C24.7779 59.9465 27.9865 52.9708 29.1034 49.7723C28.4942 48.7569 27.824 46.4215 30.0172 45.2031C29.6111 44.3908 28.7988 42.1874 28.7988 39.8723C28.7988 36.9785 30.6265 33.1708 35.5003 30.2769C35.0434 31.5462 34.5255 34.2369 36.1095 34.8462C35.9572 34.44 35.744 33.6277 36.1095 33.6277C36.1678 33.6277 36.236 33.6425 36.3144 33.6596C36.8507 33.7765 37.8657 33.9978 39.4603 30.2769C39.2065 30.1754 38.6074 30.1551 38.2419 30.8862C38.0388 28.9062 38.3637 24.6111 41.288 23.2708C41.1865 24.0831 41.3489 25.7077 42.8111 25.7077C44.2732 25.7077 44.6388 23.2708 44.6388 22.0523C44.6388 20.9354 45.248 18.3969 47.6849 17.1785C47.2788 18.2954 46.9538 20.5292 48.9034 20.5292L47.6849 22.6615C49.1065 22.0015 51.9495 18.9452 51.9495 12C53.4726 13.0154 56.1532 15.8686 54.6911 19.1585C54.3997 19.8142 54.0734 20.4853 53.745 21.1609C52.0138 24.7222 50.2235 28.4052 53.168 30.5815C51.2388 31.0892 47.3803 32.7138 47.3803 35.1508L46.7711 33.6277C46.2126 35.0492 46.2837 37.8923 51.0357 37.8923C49.9695 41.4462 46.2532 48.5538 39.9172 48.5538C39.8931 48.5297 39.9073 48.5861 39.9367 48.703C40.0927 49.3226 40.6763 51.6411 38.2419 52.6662C37.6326 54.0369 36.4142 58.0578 36.4142 63.1754C36.4142 65.3686 37.8357 70.2831 38.5465 72.4662C38.8936 73.5323 39.0034 75.2077 38.8511 76.4262C38.7302 77.3934 38.0388 80.0308 37.6326 81.4523L29.7126 105.517C29.2049 107.345 26.8797 111 21.6403 111ZM31.8456 45.2031C34.4044 45.4468 37.7856 46.9292 39.1564 47.64C39.3087 47.4369 40.0093 46.6043 41.5933 44.8985C42.7841 43.6161 42.212 42.8295 41.5668 41.9423C41.1392 41.3544 40.6794 40.7222 40.6794 39.8723C40.6794 38.1665 42.101 36.6231 42.8118 36.0646C40.3754 35.3879 39.0216 37.2372 38.3228 38.1917C38.2353 38.3113 38.158 38.4168 38.0902 38.5016C38.0218 38.5871 37.9419 38.6937 37.852 38.8136L37.8518 38.8139C37.1407 39.7626 35.8039 41.546 34.5871 40.3293C33.2164 38.9585 31.8456 40.4816 32.1502 42.0046C32.3939 43.2231 32.0487 44.6446 31.8456 45.2031ZM30.3225 48.8585C29.5914 47.64 30.424 46.7262 30.9317 46.4216C36.1102 47.1831 37.9379 48.4016 38.5471 49.1631C39.1564 50.8689 38.0902 51.2954 37.481 51.2954C35.3994 50.5846 31.0536 49.1022 30.3225 48.8585ZM17.3764 107.345C18.9502 107.751 22.4025 106.857 23.621 100.034C20.5241 99.78 13.325 98.2062 9.30408 93.9416C8.81669 93.3323 9.30408 91.6569 9.60869 90.8954L14.4825 75.9692C14.8379 75.4108 15.9447 74.5071 17.5287 75.36L17.6188 75.4085L17.6188 75.4086C19.7666 76.5656 28.5102 81.2758 29.561 79.6246C30.6271 77.9492 33.521 69.42 30.9318 68.6585C29.8492 68.3401 28.4698 68.0633 27.1894 67.8063C26.0199 67.5716 24.933 67.3535 24.2302 67.1354C22.0704 66.4651 23.0789 66.4868 24.7983 66.5237C26.5951 66.5622 29.1685 66.6174 29.7133 65.9169C29.9971 65.5521 30.2739 64.7792 30.6255 63.7971C31.251 62.0504 32.1134 59.6422 33.6733 57.6923C31.8056 63.7623 32.6755 65.7885 33.6226 67.9947C33.9113 68.6671 34.2071 69.3562 34.4348 70.1816C35.4096 73.7151 35.501 78.8123 34.8918 80.5385L34.8412 80.6817C34.572 81.4432 34.4374 81.8241 33.9779 83.4323C33.4905 85.1382 30.4241 94.6016 28.9517 99.12C27.7841 103.182 23.8342 110.513 17.3764 107.345Z" fill="#D1D9EB"/>
<path d="M3.82031 100.338H0.820312V100.631L0.876868 100.918L3.82031 100.338ZM21.6403 111L21.525 113.998L21.5826 114H21.6403V111ZM13.8726 69.5723L11.171 68.2681L11.0956 68.4242L11.0387 68.5879L13.8726 69.5723ZM20.8788 62.2615L19.3472 59.682L19.3472 59.682L20.8788 62.2615ZM29.1034 49.7723L31.9357 50.7614L32.3991 49.4342L31.6759 48.2288L29.1034 49.7723ZM30.0172 45.2031L31.4742 47.8255L33.9851 46.4306L32.7005 43.8614L30.0172 45.2031ZM35.5003 30.2769L38.323 31.2931L41.1531 23.4316L33.9687 27.6974L35.5003 30.2769ZM36.1095 34.8462L35.0326 37.6462L41.2621 40.0421L38.9185 33.7928L36.1095 34.8462ZM36.3144 33.6596L35.6755 36.5908L35.6755 36.5908L36.3144 33.6596ZM39.4603 30.2769L42.2177 31.4587L43.4287 28.6332L40.5745 27.4915L39.4603 30.2769ZM38.2419 30.8862L35.2575 31.1922L36.3104 41.4574L40.9251 32.2278L38.2419 30.8862ZM41.288 23.2708L44.2648 23.6429L44.9327 18.3002L40.038 20.5436L41.288 23.2708ZM47.6849 17.1785L50.5043 18.2037L53.0772 11.1282L46.3433 14.4952L47.6849 17.1785ZM48.9034 20.5292L51.5081 22.0176L54.0729 17.5292H48.9034V20.5292ZM47.6849 22.6615L45.0802 21.1731L40.4094 29.347L48.9483 25.3826L47.6849 22.6615ZM51.9495 12L53.6136 9.50385L48.9495 6.39445V12H51.9495ZM54.6911 19.1585L51.9496 17.94V17.94L54.6911 19.1585ZM53.745 21.1609L56.4431 22.4725L56.4431 22.4725L53.745 21.1609ZM53.168 30.5815L53.9315 33.4828L59.9851 31.8897L54.9512 28.169L53.168 30.5815ZM47.3803 35.1508L44.5949 36.2649L50.3803 35.1508H47.3803ZM46.7711 33.6277L49.5565 32.5135L46.746 25.4871L43.9788 32.5307L46.7711 33.6277ZM51.0357 37.8923L53.9092 38.7544L55.0678 34.8923H51.0357V37.8923ZM39.9172 48.5538L37.7959 50.6752L38.6746 51.5538H39.9172V48.5538ZM39.9367 48.703L42.8459 47.9707L42.8459 47.9706L39.9367 48.703ZM38.2419 52.6662L37.0777 49.9012L35.9829 50.3622L35.5004 51.4477L38.2419 52.6662ZM38.5465 72.4662L41.3991 71.5374L41.3991 71.5374L38.5465 72.4662ZM38.8511 76.4262L41.8279 76.7983V76.7983L38.8511 76.4262ZM37.6326 81.4523L40.4823 82.3902L40.5008 82.3337L40.5172 82.2765L37.6326 81.4523ZM29.7126 105.517L26.863 104.579L26.8409 104.646L26.8221 104.714L29.7126 105.517ZM39.1564 47.64L37.7754 50.3033L40.0315 51.4731L41.5564 49.44L39.1564 47.64ZM31.8456 45.2031L29.0262 44.1779L27.7011 47.822L31.5612 48.1896L31.8456 45.2031ZM41.5933 44.8985L39.3949 42.8571L39.3949 42.8571L41.5933 44.8985ZM41.5668 41.9423L39.1406 43.7068L39.1406 43.7068L41.5668 41.9423ZM42.8118 36.0646L44.6652 38.4236L49.3269 34.7608L43.6147 33.1741L42.8118 36.0646ZM38.3228 38.1917L40.7435 39.9638L40.7435 39.9638L38.3228 38.1917ZM38.0902 38.5016L40.4328 40.3757L40.4328 40.3757L38.0902 38.5016ZM37.852 38.8136L35.4514 37.0144L35.4453 37.0226L37.852 38.8136ZM37.8518 38.8139L40.2523 40.6132L40.2585 40.6049L37.8518 38.8139ZM32.1502 42.0046L29.2085 42.593L32.1502 42.0046ZM30.9317 46.4216L31.3682 43.4535L30.3075 43.2975L29.3882 43.8491L30.9317 46.4216ZM30.3225 48.8585L27.75 50.402L28.321 51.3536L29.3738 51.7045L30.3225 48.8585ZM38.5471 49.1631L41.3724 48.1541L41.2035 47.6812L40.8897 47.289L38.5471 49.1631ZM37.481 51.2954L36.5115 54.1345L36.9829 54.2954H37.481V51.2954ZM23.621 100.034L26.5743 100.561L27.1543 97.3134L23.8661 97.0439L23.621 100.034ZM17.3764 107.345L18.126 104.44L16.0551 110.038L17.3764 107.345ZM9.30408 93.9416L6.96147 95.8156L7.03765 95.9109L7.12131 95.9996L9.30408 93.9416ZM9.60869 90.8954L12.3941 92.0096L12.4303 91.9192L12.4605 91.8266L9.60869 90.8954ZM14.4825 75.9692L11.9515 74.3586L11.7482 74.6781L11.6307 75.038L14.4825 75.9692ZM17.5287 75.36L18.9513 72.7188L18.951 72.7186L17.5287 75.36ZM17.6188 75.4085L16.1962 78.0498L16.3884 78.1533L16.5935 78.2279L17.6188 75.4085ZM17.6188 75.4086L19.0416 72.7674L18.8493 72.6638L18.644 72.5892L17.6188 75.4086ZM29.561 79.6246L27.03 78.014L29.561 79.6246ZM30.9318 68.6585L30.0853 71.5366L30.9318 68.6585ZM27.1894 67.8063L27.7797 64.865L27.7797 64.865L27.1894 67.8063ZM24.2302 67.1354L25.1194 64.2702H25.1194L24.2302 67.1354ZM24.7983 66.5237L24.8626 63.5244H24.8626L24.7983 66.5237ZM29.7133 65.9169L27.3452 64.0751L29.7133 65.9169ZM30.6255 63.7971L33.4499 64.8085L33.4499 64.8085L30.6255 63.7971ZM33.6733 57.6923L36.5406 58.5746L31.3307 55.8182L33.6733 57.6923ZM33.6226 67.9947L36.3793 66.8112L33.6226 67.9947ZM34.4348 70.1816L31.5428 70.9793L34.4348 70.1816ZM34.8918 80.5385L37.7204 81.5378L37.7207 81.5369L34.8918 80.5385ZM34.8412 80.6817L37.6697 81.6814L37.6698 81.681L34.8412 80.6817ZM33.9779 83.4323L36.8625 84.2565V84.2565L33.9779 83.4323ZM28.9517 99.12L26.0994 98.1906L26.0831 98.2406L26.0685 98.2911L28.9517 99.12ZM0.876868 100.918C1.93811 106.306 6.10055 109.521 10.103 111.34C14.1362 113.173 18.597 113.885 21.525 113.998L21.7556 108.002C19.4037 107.912 15.7464 107.314 12.5856 105.878C9.39407 104.427 7.28651 102.413 6.76376 99.7587L0.876868 100.918ZM11.0387 68.5879C9.36072 73.4185 6.84291 80.7582 4.74296 87.0785C3.69378 90.2362 2.74371 93.155 2.05389 95.384C1.70992 96.4954 1.42345 97.4585 1.22041 98.2034C1.11954 98.5735 1.03159 98.9176 0.966562 99.2129C0.922397 99.4135 0.820312 99.8767 0.820312 100.338H6.82031C6.82031 100.617 6.77058 100.756 6.82622 100.503C6.861 100.345 6.9203 100.107 7.00922 99.7813C7.18576 99.1336 7.44902 98.2456 7.78568 97.1578C8.45711 94.9883 9.39184 92.1156 10.4369 88.9703C12.5254 82.6845 15.0338 75.3722 16.7065 70.5567L11.0387 68.5879ZM19.3472 59.682C14.8466 62.3542 12.0856 66.3735 11.171 68.2681L16.5743 70.8766C17.0812 69.8265 19.1127 66.7991 22.4104 64.8411L19.3472 59.682ZM26.2711 48.7833C25.7682 50.2233 24.7652 52.5856 23.4476 54.8288C22.0726 57.1697 20.6133 58.9302 19.3472 59.682L22.4104 64.8411C25.0433 63.2778 27.1378 60.3929 28.6212 57.8676C30.1619 55.2446 31.3216 52.5198 31.9357 50.7614L26.2711 48.7833ZM28.5603 42.5806C26.454 43.7508 25.575 45.6515 25.5113 47.458C25.455 49.0519 26.017 50.4592 26.5309 51.3158L31.6759 48.2288C31.6501 48.1858 31.5958 48.0781 31.5542 47.9393C31.5127 47.8009 31.5062 47.707 31.5075 47.6697C31.5084 47.6445 31.5096 47.7057 31.4572 47.7958C31.433 47.8375 31.4094 47.8636 31.399 47.8736C31.3896 47.8825 31.4075 47.8626 31.4742 47.8255L28.5603 42.5806ZM25.7988 39.8723C25.7988 42.7738 26.7812 45.4392 27.334 46.5447L32.7005 43.8614C32.441 43.3424 31.7988 41.601 31.7988 39.8723H25.7988ZM33.9687 27.6974C28.3877 31.0111 25.7988 35.703 25.7988 39.8723H31.7988C31.7988 38.2539 32.8652 35.3305 37.0319 32.8565L33.9687 27.6974ZM37.1865 32.0461C37.371 32.1171 37.5559 32.233 37.714 32.3886C37.8668 32.539 37.9543 32.6862 38.0001 32.7844C38.0774 32.95 38.042 32.9829 38.0393 32.7713C38.037 32.5833 38.0623 32.326 38.1217 32.029C38.1801 31.7373 38.2578 31.474 38.323 31.2931L32.6777 29.2608C32.3737 30.105 32.0224 31.4653 32.0398 32.8468C32.055 34.0542 32.4238 36.6428 35.0326 37.6462L37.1865 32.0461ZM36.1095 30.6277C35.4725 30.6277 34.7534 30.8192 34.1282 31.3176C33.5396 31.7869 33.2472 32.3582 33.104 32.7651C32.8488 33.4903 32.9055 34.1476 32.9318 34.3979C32.9961 35.0111 33.1825 35.5848 33.3006 35.8995L38.9185 33.7928C38.8842 33.7013 38.8879 33.6658 38.8989 33.7713C38.9035 33.8148 38.9119 33.9141 38.9052 34.0527C38.899 34.1793 38.8759 34.4382 38.7638 34.7569C38.6496 35.0812 38.3994 35.5859 37.8685 36.0091C37.301 36.4616 36.6552 36.6277 36.1095 36.6277V30.6277ZM36.9533 30.7285C36.93 30.7234 36.8244 30.6998 36.7113 30.6804C36.5968 30.6608 36.3786 30.6277 36.1095 30.6277V36.6277C35.8988 36.6277 35.7437 36.602 35.6975 36.5941C35.6527 36.5864 35.6203 36.5788 35.6755 36.5908L36.9533 30.7285ZM36.7029 29.0952C36.3494 29.9199 36.0654 30.437 35.8615 30.7484C35.6529 31.0671 35.579 31.0921 35.6755 31.0187C35.8108 30.9159 36.093 30.7631 36.4882 30.7207C36.8264 30.6845 37.0914 30.7586 36.9532 30.7285L35.6755 36.5908C35.8055 36.6192 36.3985 36.7647 37.1277 36.6866C37.9139 36.6023 38.65 36.2941 39.3055 35.7961C40.4697 34.9115 41.373 33.4297 42.2177 31.4587L36.7029 29.0952ZM40.9251 32.2278C40.7824 32.5133 40.4255 32.9263 39.8177 33.1232C39.3181 33.2851 38.8089 33.2474 38.3461 33.0624L40.5745 27.4915C39.8579 27.2049 38.9223 27.1063 37.9682 27.4154C36.906 27.7596 36.0669 28.5279 35.5586 29.5445L40.9251 32.2278ZM40.038 20.5436C37.4379 21.7353 36.2416 24.1275 35.7056 26.0216C35.1608 27.9464 35.1256 29.9064 35.2575 31.1922L41.2262 30.5801C41.155 29.8859 41.1808 28.7084 41.4788 27.6556C41.7855 26.572 42.2138 26.1465 42.538 25.998L40.038 20.5436ZM42.8111 22.7077C43.0375 22.7077 43.4001 22.7838 43.7459 23.0441C44.059 23.2797 44.1909 23.54 44.234 23.6439C44.2752 23.7431 44.2702 23.7782 44.2656 23.7274C44.2616 23.6822 44.2649 23.6427 44.2648 23.6429L38.3112 22.8987C38.2211 23.6188 38.2161 24.7964 38.6923 25.9438C38.9461 26.5554 39.3864 27.2726 40.1381 27.8382C40.9224 28.4285 41.8535 28.7077 42.8111 28.7077V22.7077ZM41.6388 22.0523C41.6388 22.2187 41.6255 22.4576 41.589 22.7132C41.5516 22.9747 41.4998 23.1839 41.4506 23.3208C41.3918 23.4839 41.3922 23.3924 41.5593 23.22C41.6562 23.12 41.8184 22.9844 42.055 22.8755C42.3001 22.7626 42.5626 22.7077 42.8111 22.7077V28.7077C45.5998 28.7077 46.7451 26.3275 47.0959 25.3531C47.5261 24.1581 47.6388 22.8715 47.6388 22.0523H41.6388ZM46.3433 14.4952C42.5203 16.4067 41.6388 20.2817 41.6388 22.0523H47.6388C47.6388 21.9411 47.6908 21.4828 47.9386 20.9803C48.1642 20.523 48.5015 20.1243 49.0266 19.8617L46.3433 14.4952ZM48.9034 17.5292C49.0169 17.5292 49.4728 17.5797 49.9064 17.9941C50.2925 18.3632 50.3639 18.741 50.3731 18.7987C50.3825 18.8578 50.3671 18.808 50.394 18.6352C50.4187 18.477 50.4633 18.3165 50.5043 18.2037L44.8655 16.1532C44.5818 16.9335 44.2218 18.3299 44.4485 19.7467C44.5694 20.5024 44.8997 21.5085 45.7605 22.3314C46.6687 23.1995 47.8151 23.5292 48.9034 23.5292V17.5292ZM50.2897 24.15L51.5081 22.0176L46.2987 19.0408L45.0802 21.1731L50.2897 24.15ZM48.9495 12C48.9495 15.0606 48.3247 17.0761 47.6866 18.3076C47.0123 19.6089 46.3718 19.9636 46.4216 19.9405L48.9483 25.3826C51.7885 24.0639 54.9495 19.6563 54.9495 12H48.9495ZM57.4325 20.3769C58.6337 17.6742 58.0784 15.1452 57.0777 13.2976C56.121 11.531 54.6927 10.2233 53.6136 9.50385L50.2854 14.4962C50.7294 14.7921 51.403 15.4187 51.8018 16.155C52.1567 16.8103 52.2106 17.3529 51.9496 17.94L57.4325 20.3769ZM56.4431 22.4725C56.7671 21.8061 57.1165 21.0878 57.4325 20.3769L51.9496 17.94C51.6828 18.5405 51.3797 19.1646 51.0469 19.8493L56.4431 22.4725ZM54.9512 28.169C54.6922 27.9776 54.6548 27.8582 54.6379 27.8038C54.6051 27.6981 54.5622 27.4395 54.6553 26.9239C54.8624 25.7774 55.5214 24.3686 56.4431 22.4725L51.0469 19.8493C50.2374 21.5145 49.1356 23.7279 48.7509 25.8572C48.5481 26.9796 48.5015 28.2724 48.907 29.5806C49.3285 30.9402 50.1716 32.0973 51.3848 32.9941L54.9512 28.169ZM50.3803 35.1508C50.3803 35.3792 50.2804 35.4516 50.3798 35.324C50.4938 35.1777 50.7399 34.9443 51.1716 34.6671C52.0435 34.1073 53.1787 33.6809 53.9315 33.4828L52.4045 27.6803C51.228 27.9899 49.4694 28.6297 47.9298 29.6183C46.5747 30.4884 44.3803 32.2853 44.3803 35.1508H50.3803ZM43.9856 34.7419L44.5949 36.2649L50.1657 34.0366L49.5565 32.5135L43.9856 34.7419ZM51.0357 34.8923C50.1286 34.8923 49.6658 34.7542 49.4791 34.6733C49.3269 34.6073 49.3924 34.5986 49.4731 34.7308C49.5395 34.8397 49.5337 34.9108 49.5335 34.8784C49.5333 34.8337 49.547 34.7662 49.5633 34.7246L43.9788 32.5307C43.5004 33.7486 43.146 35.8802 44.3509 37.8554C45.6597 40.0009 48.1262 40.8923 51.0357 40.8923V34.8923ZM39.9172 51.5538C44.312 51.5538 47.5902 49.0722 49.7556 46.4784C51.92 43.8859 53.2844 40.8371 53.9092 38.7544L48.1622 37.0303C47.7209 38.5014 46.694 40.7834 45.1497 42.6331C43.6065 44.4817 41.8585 45.5538 39.9172 45.5538V51.5538ZM42.8459 47.9706C42.8126 47.8383 42.8456 47.9573 42.8674 48.0908C42.8751 48.1373 42.8957 48.2676 42.9026 48.4384C42.9043 48.4816 42.9482 49.0743 42.6592 49.742C42.4866 50.1408 42.0876 50.8093 41.2578 51.2276C40.3972 51.6613 39.5751 51.5752 39.0731 51.4295C38.282 51.1997 37.8202 50.6995 37.7959 50.6752L42.0386 46.4325C42.0082 46.4022 41.5415 45.8984 40.7467 45.6676C40.2429 45.5212 39.4192 45.4352 38.5573 45.8697C37.7262 46.2886 37.3261 46.9583 37.1527 47.359C36.8621 48.0305 36.9054 48.6293 36.9075 48.6808C36.9147 48.8599 36.9366 49.0009 36.9463 49.0602C36.967 49.1868 36.9925 49.293 36.9997 49.3229C37.0101 49.3665 37.0216 49.4122 37.0275 49.4354L42.8459 47.9706ZM39.406 55.4311C41.6384 54.4911 42.7135 52.7585 43.0148 51.0551C43.2756 49.5812 42.9268 48.292 42.8459 47.9707L37.0275 49.4353C37.0625 49.5746 37.0872 49.6794 37.1016 49.7983C37.1164 49.9216 37.11 49.9904 37.1065 50.01C37.1057 50.0146 37.1185 49.9496 37.1767 49.8738C37.2027 49.8401 37.2216 49.8258 37.2189 49.8279C37.2148 49.8309 37.1748 49.8604 37.0777 49.9012L39.406 55.4311ZM39.4142 63.1754C39.4142 58.4675 40.5486 54.8626 40.9833 53.8846L35.5004 51.4477C34.7166 53.2112 33.4142 57.6482 33.4142 63.1754H39.4142ZM41.3991 71.5374C41.0613 70.5 40.5486 68.7933 40.1241 67.0965C39.6733 65.2945 39.4142 63.8539 39.4142 63.1754H33.4142C33.4142 64.6901 33.8658 66.8033 34.3035 68.5527C34.7674 70.4072 35.3209 72.2493 35.6939 73.3949L41.3991 71.5374ZM41.8279 76.7983C42.0233 75.2353 41.909 73.1036 41.3991 71.5374L35.6939 73.3949C35.8782 73.9611 35.9835 75.1801 35.8742 76.0541L41.8279 76.7983ZM40.5172 82.2765C40.9052 80.9184 41.6725 78.0416 41.8279 76.7983L35.8742 76.054C35.7879 76.7452 35.1723 79.1432 34.748 80.6281L40.5172 82.2765ZM32.5623 106.455L40.4823 82.3902L34.783 80.5145L26.863 104.579L32.5623 106.455ZM21.6403 114C28.5676 114 31.8348 109.086 32.6032 106.32L26.8221 104.714C26.575 105.603 25.1918 108 21.6403 108V114ZM40.5373 44.9768C39.098 44.2305 35.2902 42.5176 32.13 42.2166L31.5612 48.1896C33.5185 48.376 36.4731 49.628 37.7754 50.3033L40.5373 44.9768ZM39.3949 42.8571C37.8219 44.5512 37.0167 45.4929 36.7564 45.84L41.5564 49.44C41.5555 49.4411 41.699 49.2602 42.0925 48.8119C42.4625 48.3905 43.0143 47.7769 43.7917 46.9398L39.3949 42.8571ZM39.1406 43.7068C39.2254 43.8235 39.2821 43.9017 39.3319 43.9739C39.3796 44.0432 39.4018 44.0795 39.4104 44.0945C39.4316 44.1313 39.3466 43.9986 39.3062 43.7459C39.2851 43.6142 39.279 43.4675 39.2953 43.3147C39.3116 43.1626 39.3469 43.0346 39.3846 42.9371C39.4562 42.7523 39.5169 42.7257 39.3949 42.8571L43.7917 46.9398C44.7724 45.8837 45.4998 44.4796 45.2309 42.7984C45.0206 41.4834 44.2002 40.4627 43.993 40.1778L39.1406 43.7068ZM37.6794 39.8723C37.6794 41.8353 38.7883 43.2224 39.1406 43.7068L43.993 40.1778C43.8803 40.0228 43.8085 39.9233 43.7457 39.829C43.6867 39.7402 43.6594 39.6907 43.6476 39.6671C43.6372 39.6461 43.6466 39.6606 43.658 39.7036C43.6702 39.7499 43.6794 39.8092 43.6794 39.8723H37.6794ZM40.9583 33.7057C40.3693 34.1684 39.6127 34.9258 38.98 35.8785C38.3579 36.8153 37.6794 38.2077 37.6794 39.8723H43.6794C43.6794 39.8311 43.7118 39.5989 43.9781 39.1979C44.2338 38.8129 44.5434 38.5193 44.6652 38.4236L40.9583 33.7057ZM40.7435 39.9638C40.9226 39.7191 41.0628 39.5304 41.2215 39.3513C41.377 39.1759 41.5043 39.0641 41.6036 38.9966C41.6944 38.9347 41.7394 38.9248 41.7516 38.9224C41.7535 38.9221 41.8246 38.904 42.0088 38.9552L43.6147 33.1741C41.4304 32.5673 39.582 33.1147 38.2278 34.0363C37.0134 34.8628 36.2266 35.9764 35.9021 36.4197L40.7435 39.9638ZM40.4328 40.3757C40.5494 40.2299 40.6686 40.0661 40.7435 39.9638L35.9021 36.4197C35.8019 36.5565 35.7666 36.6037 35.7476 36.6274L40.4328 40.3757ZM40.2525 40.6129C40.352 40.4802 40.4004 40.4162 40.4328 40.3757L35.7477 36.6274C35.6433 36.7579 35.5318 36.9071 35.4514 37.0144L40.2525 40.6129ZM40.2585 40.6049L40.2587 40.6047L35.4453 37.0226L35.4451 37.0229L40.2585 40.6049ZM32.4658 42.4506C33.2693 43.2541 34.3589 43.782 35.6169 43.7373C36.7447 43.6973 37.6185 43.2079 38.157 42.8218C39.1777 42.0901 39.9625 40.9999 40.2523 40.6132L35.4513 37.0146C35.2673 37.2601 35.1109 37.4668 34.9469 37.6559C34.8684 37.7464 34.8015 37.8169 34.7464 37.8699C34.7196 37.8958 34.6983 37.9148 34.6827 37.928C34.6671 37.9412 34.6599 37.9464 34.6611 37.9454C34.6623 37.9446 34.6756 37.9351 34.7011 37.9205C34.7266 37.9059 34.7685 37.8838 34.8267 37.8599C34.9422 37.8124 35.1405 37.7505 35.4042 37.7411C35.6802 37.7313 35.9644 37.782 36.2243 37.8928C36.4753 37.9998 36.633 38.1325 36.7085 38.2079L32.4658 42.4506ZM35.092 41.4163C35.128 41.5965 35.1319 41.9909 34.67 42.3789C34.3872 42.6164 33.9143 42.836 33.338 42.7883C32.7799 42.7422 32.4927 42.4775 32.4658 42.4506L36.7085 38.2079C35.9961 37.4956 35.0236 36.9073 33.8325 36.8088C32.6231 36.7087 31.5695 37.1473 30.8108 37.7846C29.397 38.9722 28.8678 40.8897 29.2085 42.593L35.092 41.4163ZM34.665 46.2283C34.9546 45.4318 35.4896 43.4046 35.092 41.4163L29.2085 42.593C29.2404 42.7527 29.2492 43.0458 29.1947 43.4335C29.1416 43.8107 29.0539 44.1017 29.0262 44.1779L34.665 46.2283ZM29.3882 43.8491C28.7227 44.2484 27.8888 44.9915 27.4069 46.1115C26.8504 47.4048 26.8814 48.9543 27.75 50.402L32.895 47.315C32.9326 47.3776 33.0148 47.5507 33.0317 47.8142C33.0485 48.075 32.9938 48.3077 32.9183 48.4831C32.8481 48.6462 32.7652 48.7504 32.7104 48.809C32.6585 48.8644 32.588 48.9264 32.4752 48.994L29.3882 43.8491ZM40.8897 47.289C39.5267 45.5852 36.6888 44.2359 31.3682 43.4535L30.4953 49.3896C35.5316 50.1303 36.3491 51.2179 36.2045 51.0372L40.8897 47.289ZM37.481 54.2954C38.3118 54.2954 39.7411 54.0309 40.7756 52.7895C41.9685 51.358 41.882 49.5811 41.3724 48.1541L35.7219 50.1721C35.773 50.3152 35.7119 50.2217 35.734 49.9617C35.7593 49.6644 35.884 49.2872 36.1663 48.9484C36.4284 48.6339 36.7245 48.4735 36.9286 48.3963C37.1244 48.3222 37.3072 48.2954 37.481 48.2954V54.2954ZM29.3738 51.7045C30.0913 51.9437 34.4212 53.4207 36.5115 54.1345L38.4504 48.4564C36.3777 47.7486 32.0159 46.2607 31.2712 46.0124L29.3738 51.7045ZM20.6677 99.5065C20.1344 102.493 19.1994 103.683 18.6942 104.11C18.2002 104.528 17.9393 104.392 18.126 104.44L16.6268 110.249C18.3873 110.704 20.6395 110.324 22.5697 108.691C24.4887 107.067 25.8891 104.398 26.5743 100.561L20.6677 99.5065ZM7.12131 95.9996C9.58559 98.6132 12.8829 100.278 15.8021 101.318C18.7456 102.366 21.5763 102.876 23.3759 103.024L23.8661 97.0439C22.5688 96.9376 20.2515 96.5336 17.8159 95.6658C15.3562 94.7894 13.0435 93.5345 11.4868 91.8835L7.12131 95.9996ZM6.82326 89.7812C6.61375 90.305 6.34398 91.1252 6.20072 91.9793C6.1294 92.4045 6.06974 92.9507 6.11076 93.5282C6.14801 94.0526 6.29232 94.9792 6.96147 95.8156L11.6467 92.0675C11.8708 92.3476 11.9787 92.6125 12.0303 92.7791C12.0817 92.9448 12.0928 93.0625 12.0957 93.1031C12.1005 93.1714 12.0904 93.1369 12.118 92.9719C12.1428 92.8242 12.1854 92.6454 12.2409 92.4575C12.2961 92.2711 12.3533 92.1116 12.3941 92.0096L6.82326 89.7812ZM11.6307 75.038L6.75687 89.9642L12.4605 91.8266L17.3343 76.9005L11.6307 75.038ZM18.951 72.7186C17.4338 71.9017 15.8713 71.8235 14.518 72.3166C13.2939 72.7625 12.4325 73.6028 11.9515 74.3586L17.0135 77.5799C16.9324 77.7074 16.8628 77.7757 16.8152 77.8156C16.761 77.8612 16.682 77.914 16.5718 77.9541C16.4519 77.9978 16.319 78.0172 16.1958 78.0073C16.0736 77.9976 16.0396 77.9655 16.1064 78.0014L18.951 72.7186ZM19.0414 72.7673L18.9513 72.7188L16.1061 78.0013L16.1962 78.0498L19.0414 72.7673ZM18.644 72.5892L18.644 72.5892L16.5935 78.2279L16.5936 78.2279L18.644 72.5892ZM27.03 78.014C27.6433 77.0502 28.5592 76.9774 28.5997 76.9742C28.6952 76.9667 28.5994 76.9863 28.2185 76.8997C27.4926 76.7348 26.4374 76.3535 25.1899 75.8152C22.7394 74.7577 20.1232 73.3501 19.0416 72.7674L16.196 78.0497C17.2622 78.6241 20.0917 80.15 22.8127 81.3242C24.1509 81.9016 25.6128 82.4606 26.889 82.7506C27.5092 82.8915 28.2856 83.0173 29.0688 82.9558C29.797 82.8987 31.2159 82.6119 32.092 81.2353L27.03 78.014ZM30.0853 71.5366C28.7877 71.1549 28.9101 69.9707 28.9698 70.7017C29.0099 71.1931 28.9307 72.0413 28.6864 73.1578C28.4531 74.2244 28.113 75.3421 27.7697 76.2862C27.599 76.7557 27.4346 77.1625 27.2921 77.4822C27.221 77.6416 27.1596 77.7699 27.1097 77.8675C27.085 77.9158 27.0651 77.9526 27.0502 77.9791C27.035 78.0063 27.0282 78.0168 27.03 78.014L32.092 81.2353C32.544 80.5249 33.0152 79.4181 33.4084 78.3367C33.8266 77.1866 34.2481 75.8102 34.5478 74.44C34.8367 73.1195 35.0621 71.5879 34.9499 70.2135C34.8572 69.0787 34.3704 66.5428 31.7783 65.7804L30.0853 71.5366ZM26.5991 70.7477C27.9198 71.0127 29.156 71.2633 30.0853 71.5366L31.7783 65.7804C30.5423 65.4169 29.0198 65.1138 27.7797 64.865L26.5991 70.7477ZM23.341 70.0006C24.2281 70.2759 25.5011 70.5273 26.5991 70.7477L27.7797 64.865C26.5387 64.6159 25.6379 64.4311 25.1194 64.2702L23.341 70.0006ZM24.8626 63.5244C24.4506 63.5155 24.0099 63.5057 23.6481 63.5096C23.4672 63.5115 23.2548 63.5172 23.0456 63.5345C22.9196 63.545 22.4776 63.5789 22.0079 63.7547C21.8242 63.8235 21.1245 64.0907 20.5871 64.8259C20.2733 65.2551 20.0313 65.8259 20.0043 66.4949C19.9783 67.141 20.1609 67.6688 20.3502 68.03C20.6833 68.6657 21.1537 69.0136 21.2989 69.1187C21.5051 69.2681 21.6967 69.3709 21.8185 69.4322C22.2508 69.6495 22.8157 69.8376 23.341 70.0006L25.1194 64.2702C24.5648 64.0981 24.4459 64.0375 24.5135 64.0715C24.5442 64.087 24.6646 64.148 24.8184 64.2594C24.9111 64.3266 25.3478 64.6402 25.6648 65.2452C25.8459 65.5909 26.0249 66.1042 25.9994 66.7366C25.973 67.3918 25.7358 67.9497 25.4309 68.3667C24.9112 69.0776 24.2456 69.3237 24.1112 69.374C23.8845 69.4588 23.7085 69.4898 23.6556 69.4987C23.5851 69.5106 23.542 69.514 23.5414 69.514C23.537 69.5144 23.5488 69.5133 23.5818 69.5121C23.6136 69.5109 23.6566 69.5099 23.7127 69.5093C23.9561 69.5066 24.2863 69.5134 24.7339 69.523L24.8626 63.5244ZM27.3452 64.0751C27.6257 63.7145 27.9207 63.5436 28.0365 63.4834C28.1617 63.4184 28.2291 63.4049 28.1914 63.415C28.1082 63.4373 27.8921 63.477 27.5049 63.5056C26.7378 63.562 25.7946 63.5444 24.8626 63.5244L24.7339 69.523C25.5988 69.5415 26.8407 69.5707 27.9456 69.4893C28.4945 69.4489 29.1363 69.3735 29.7449 69.2104C30.2187 69.0834 31.3118 68.7482 32.0813 67.7588L27.3452 64.0751ZM27.8011 62.7857C27.6178 63.2978 27.4859 63.664 27.3692 63.948C27.3132 64.0842 27.2763 64.1626 27.2567 64.2008C27.2323 64.2485 27.2589 64.1861 27.3452 64.0751L32.0813 67.7588C32.4936 67.2288 32.761 66.6126 32.9187 66.229C33.0992 65.7897 33.2816 65.2785 33.4499 64.8085L27.8011 62.7857ZM31.3307 55.8182C29.4114 58.2174 28.4055 61.0979 27.8011 62.7857L33.4499 64.8085C34.0965 63.0029 34.8154 61.067 36.0159 59.5664L31.3307 55.8182ZM36.3793 66.8112C35.9132 65.7253 35.6513 65.0789 35.5858 64.0935C35.5166 63.0525 35.6657 61.418 36.5406 58.5746L30.806 56.8101C29.8132 60.0366 29.4634 62.4502 29.599 64.4913C29.7383 66.5881 30.385 68.0578 30.8659 69.1781L36.3793 66.8112ZM37.3268 69.3838C37.0376 68.3355 36.663 67.472 36.3793 66.8112L30.8659 69.1781C31.1596 69.8621 31.3766 70.3768 31.5428 70.9793L37.3268 69.3838ZM37.7207 81.5369C38.2297 80.0949 38.3248 77.8887 38.2554 75.9314C38.1812 73.8404 37.8935 71.4381 37.3268 69.3838L31.5428 70.9793C31.9509 72.4585 32.1963 74.3717 32.2592 76.1442C32.2902 77.0192 32.2749 77.8111 32.2239 78.4504C32.1985 78.7693 32.1658 79.03 32.131 79.2312C32.1137 79.3307 32.0974 79.4074 32.0837 79.4633C32.0697 79.5205 32.0614 79.5438 32.0628 79.54L37.7207 81.5369ZM37.6698 81.681L37.7204 81.5378L32.0631 79.5392L32.0125 79.6824L37.6698 81.681ZM36.8625 84.2565C37.3057 82.7052 37.4217 82.383 37.6697 81.6814L32.0126 79.682C31.7223 80.5035 31.5691 80.9429 31.0933 82.6082L36.8625 84.2565ZM31.8041 100.049C33.2624 95.5741 36.3553 86.0315 36.8625 84.2565L31.0933 82.6082C30.6257 84.2449 27.5857 93.629 26.0994 98.1906L31.8041 100.049ZM16.0551 110.038C18.2264 111.103 20.3917 111.368 22.4327 110.887C24.4211 110.419 26.0294 109.307 27.2713 108.063C29.6978 105.631 31.1712 102.258 31.835 99.9489L26.0685 98.2911C25.5646 100.044 24.4792 102.367 23.0245 103.824C22.3257 104.524 21.6627 104.905 21.0578 105.047C20.5054 105.177 19.7553 105.17 18.6977 104.651L16.0551 110.038Z" fill="#141823" mask="url(#path-1-outside-1_4149_8183)"/>
<mask id="path-3-inside-2_4149_8183" fill="white">
<path fill-rule="evenodd" clip-rule="evenodd" d="M21.6403 111C16.3603 110.797 5.40431 108.38 3.82031 100.338C3.82031 98.8763 10.5219 79.2185 13.8726 69.5723C14.5834 68.1 16.9797 64.5766 20.8788 62.2615C24.7779 59.9465 27.9865 52.9708 29.1034 49.7723C28.4942 48.7569 27.824 46.4215 30.0172 45.2031C29.6111 44.3908 28.7988 42.1874 28.7988 39.8723C28.7988 36.9785 30.6265 33.1708 35.5003 30.2769C35.0434 31.5462 34.5255 34.2369 36.1095 34.8462C35.9572 34.44 35.744 33.6277 36.1095 33.6277C36.1678 33.6277 36.236 33.6425 36.3144 33.6596C36.8507 33.7765 37.8657 33.9978 39.4603 30.2769C39.2065 30.1754 38.6074 30.1551 38.2419 30.8862C38.0388 28.9062 38.3637 24.6111 41.288 23.2708C41.1865 24.0831 41.3489 25.7077 42.8111 25.7077C44.2732 25.7077 44.6388 23.2708 44.6388 22.0523C44.6388 20.9354 45.248 18.3969 47.6849 17.1785C47.2788 18.2954 46.9538 20.5292 48.9034 20.5292L47.6849 22.6615C49.1065 22.0015 51.9495 18.9452 51.9495 12C53.4726 13.0154 56.1532 15.8686 54.6911 19.1585C54.3997 19.8142 54.0734 20.4853 53.745 21.1609C52.0138 24.7222 50.2235 28.4052 53.168 30.5815C51.2388 31.0892 47.3803 32.7138 47.3803 35.1508L46.7711 33.6277C46.2126 35.0492 46.2837 37.8923 51.0357 37.8923C49.9695 41.4462 46.2532 48.5538 39.9172 48.5538C39.8931 48.5297 39.9073 48.5861 39.9367 48.703C40.0927 49.3226 40.6763 51.6411 38.2419 52.6662C37.6326 54.0369 36.4142 58.0578 36.4142 63.1754C36.4142 65.3686 37.8357 70.2831 38.5465 72.4662C38.8936 73.5323 39.0034 75.2077 38.8511 76.4262C38.7302 77.3934 38.0388 80.0308 37.6326 81.4523L29.7126 105.517C29.2049 107.345 26.8797 111 21.6403 111ZM31.8456 45.2031C34.4044 45.4468 37.7856 46.9292 39.1564 47.64C39.3087 47.4369 40.0093 46.6043 41.5933 44.8985C42.7841 43.6161 42.212 42.8295 41.5668 41.9423C41.1392 41.3544 40.6794 40.7222 40.6794 39.8723C40.6794 38.1665 42.101 36.6231 42.8118 36.0646C40.3754 35.3879 39.0216 37.2372 38.3228 38.1917C38.2353 38.3113 38.158 38.4168 38.0902 38.5016C38.0218 38.5871 37.9419 38.6937 37.852 38.8136L37.8518 38.8139C37.1407 39.7626 35.8039 41.546 34.5871 40.3293C33.2164 38.9585 31.8456 40.4816 32.1502 42.0046C32.3939 43.2231 32.0487 44.6446 31.8456 45.2031ZM30.3225 48.8585C29.5914 47.64 30.424 46.7262 30.9317 46.4216C36.1102 47.1831 37.9379 48.4016 38.5471 49.1631C39.1564 50.8689 38.0902 51.2954 37.481 51.2954C35.3994 50.5846 31.0536 49.1022 30.3225 48.8585ZM17.3764 107.345C18.9502 107.751 22.4025 106.857 23.621 100.034C20.5241 99.78 13.325 98.2062 9.30408 93.9416C8.81669 93.3323 9.30408 91.6569 9.60869 90.8954L14.4825 75.9692C14.8379 75.4108 15.9447 74.5071 17.5287 75.36L17.6188 75.4085L17.6188 75.4086C19.7666 76.5656 28.5102 81.2758 29.561 79.6246C30.6271 77.9492 33.521 69.42 30.9318 68.6585C29.8492 68.3401 28.4698 68.0633 27.1894 67.8063C26.0199 67.5716 24.933 67.3535 24.2302 67.1354C22.0704 66.4651 23.0789 66.4868 24.7983 66.5237C26.5951 66.5622 29.1685 66.6174 29.7133 65.9169C29.9971 65.5521 30.2739 64.7792 30.6255 63.7971C31.251 62.0504 32.1134 59.6422 33.6733 57.6923C31.8056 63.7623 32.6755 65.7885 33.6226 67.9947C33.9113 68.6671 34.2071 69.3562 34.4348 70.1816C35.4096 73.7151 35.501 78.8123 34.8918 80.5385L34.8412 80.6817C34.572 81.4432 34.4374 81.8241 33.9779 83.4323C33.4905 85.1382 30.4241 94.6016 28.9517 99.12C27.7841 103.182 23.8342 110.513 17.3764 107.345Z"/>
</mask>
<path fill-rule="evenodd" clip-rule="evenodd" d="M21.6403 111C16.3603 110.797 5.40431 108.38 3.82031 100.338C3.82031 98.8763 10.5219 79.2185 13.8726 69.5723C14.5834 68.1 16.9797 64.5766 20.8788 62.2615C24.7779 59.9465 27.9865 52.9708 29.1034 49.7723C28.4942 48.7569 27.824 46.4215 30.0172 45.2031C29.6111 44.3908 28.7988 42.1874 28.7988 39.8723C28.7988 36.9785 30.6265 33.1708 35.5003 30.2769C35.0434 31.5462 34.5255 34.2369 36.1095 34.8462C35.9572 34.44 35.744 33.6277 36.1095 33.6277C36.1678 33.6277 36.236 33.6425 36.3144 33.6596C36.8507 33.7765 37.8657 33.9978 39.4603 30.2769C39.2065 30.1754 38.6074 30.1551 38.2419 30.8862C38.0388 28.9062 38.3637 24.6111 41.288 23.2708C41.1865 24.0831 41.3489 25.7077 42.8111 25.7077C44.2732 25.7077 44.6388 23.2708 44.6388 22.0523C44.6388 20.9354 45.248 18.3969 47.6849 17.1785C47.2788 18.2954 46.9538 20.5292 48.9034 20.5292L47.6849 22.6615C49.1065 22.0015 51.9495 18.9452 51.9495 12C53.4726 13.0154 56.1532 15.8686 54.6911 19.1585C54.3997 19.8142 54.0734 20.4853 53.745 21.1609C52.0138 24.7222 50.2235 28.4052 53.168 30.5815C51.2388 31.0892 47.3803 32.7138 47.3803 35.1508L46.7711 33.6277C46.2126 35.0492 46.2837 37.8923 51.0357 37.8923C49.9695 41.4462 46.2532 48.5538 39.9172 48.5538C39.8931 48.5297 39.9073 48.5861 39.9367 48.703C40.0927 49.3226 40.6763 51.6411 38.2419 52.6662C37.6326 54.0369 36.4142 58.0578 36.4142 63.1754C36.4142 65.3686 37.8357 70.2831 38.5465 72.4662C38.8936 73.5323 39.0034 75.2077 38.8511 76.4262C38.7302 77.3934 38.0388 80.0308 37.6326 81.4523L29.7126 105.517C29.2049 107.345 26.8797 111 21.6403 111ZM31.8456 45.2031C34.4044 45.4468 37.7856 46.9292 39.1564 47.64C39.3087 47.4369 40.0093 46.6043 41.5933 44.8985C42.7841 43.6161 42.212 42.8295 41.5668 41.9423C41.1392 41.3544 40.6794 40.7222 40.6794 39.8723C40.6794 38.1665 42.101 36.6231 42.8118 36.0646C40.3754 35.3879 39.0216 37.2372 38.3228 38.1917C38.2353 38.3113 38.158 38.4168 38.0902 38.5016C38.0218 38.5871 37.9419 38.6937 37.852 38.8136L37.8518 38.8139C37.1407 39.7626 35.8039 41.546 34.5871 40.3293C33.2164 38.9585 31.8456 40.4816 32.1502 42.0046C32.3939 43.2231 32.0487 44.6446 31.8456 45.2031ZM30.3225 48.8585C29.5914 47.64 30.424 46.7262 30.9317 46.4216C36.1102 47.1831 37.9379 48.4016 38.5471 49.1631C39.1564 50.8689 38.0902 51.2954 37.481 51.2954C35.3994 50.5846 31.0536 49.1022 30.3225 48.8585ZM17.3764 107.345C18.9502 107.751 22.4025 106.857 23.621 100.034C20.5241 99.78 13.325 98.2062 9.30408 93.9416C8.81669 93.3323 9.30408 91.6569 9.60869 90.8954L14.4825 75.9692C14.8379 75.4108 15.9447 74.5071 17.5287 75.36L17.6188 75.4085L17.6188 75.4086C19.7666 76.5656 28.5102 81.2758 29.561 79.6246C30.6271 77.9492 33.521 69.42 30.9318 68.6585C29.8492 68.3401 28.4698 68.0633 27.1894 67.8063C26.0199 67.5716 24.933 67.3535 24.2302 67.1354C22.0704 66.4651 23.0789 66.4868 24.7983 66.5237C26.5951 66.5622 29.1685 66.6174 29.7133 65.9169C29.9971 65.5521 30.2739 64.7792 30.6255 63.7971C31.251 62.0504 32.1134 59.6422 33.6733 57.6923C31.8056 63.7623 32.6755 65.7885 33.6226 67.9947C33.9113 68.6671 34.2071 69.3562 34.4348 70.1816C35.4096 73.7151 35.501 78.8123 34.8918 80.5385L34.8412 80.6817C34.572 81.4432 34.4374 81.8241 33.9779 83.4323C33.4905 85.1382 30.4241 94.6016 28.9517 99.12C27.7841 103.182 23.8342 110.513 17.3764 107.345Z" fill="#D1D9EB"/>
<path fill-rule="evenodd" clip-rule="evenodd" d="M21.6403 111C16.3603 110.797 5.40431 108.38 3.82031 100.338C3.82031 98.8763 10.5219 79.2185 13.8726 69.5723C14.5834 68.1 16.9797 64.5766 20.8788 62.2615C24.7779 59.9465 27.9865 52.9708 29.1034 49.7723C28.4942 48.7569 27.824 46.4215 30.0172 45.2031C29.6111 44.3908 28.7988 42.1874 28.7988 39.8723C28.7988 36.9785 30.6265 33.1708 35.5003 30.2769C35.0434 31.5462 34.5255 34.2369 36.1095 34.8462C35.9572 34.44 35.744 33.6277 36.1095 33.6277C36.1678 33.6277 36.236 33.6425 36.3144 33.6596C36.8507 33.7765 37.8657 33.9978 39.4603 30.2769C39.2065 30.1754 38.6074 30.1551 38.2419 30.8862C38.0388 28.9062 38.3637 24.6111 41.288 23.2708C41.1865 24.0831 41.3489 25.7077 42.8111 25.7077C44.2732 25.7077 44.6388 23.2708 44.6388 22.0523C44.6388 20.9354 45.248 18.3969 47.6849 17.1785C47.2788 18.2954 46.9538 20.5292 48.9034 20.5292L47.6849 22.6615C49.1065 22.0015 51.9495 18.9452 51.9495 12C53.4726 13.0154 56.1532 15.8686 54.6911 19.1585C54.3997 19.8142 54.0734 20.4853 53.745 21.1609C52.0138 24.7222 50.2235 28.4052 53.168 30.5815C51.2388 31.0892 47.3803 32.7138 47.3803 35.1508L46.7711 33.6277C46.2126 35.0492 46.2837 37.8923 51.0357 37.8923C49.9695 41.4462 46.2532 48.5538 39.9172 48.5538C39.8931 48.5297 39.9073 48.5861 39.9367 48.703C40.0927 49.3226 40.6763 51.6411 38.2419 52.6662C37.6326 54.0369 36.4142 58.0578 36.4142 63.1754C36.4142 65.3686 37.8357 70.2831 38.5465 72.4662C38.8936 73.5323 39.0034 75.2077 38.8511 76.4262C38.7302 77.3934 38.0388 80.0308 37.6326 81.4523L29.7126 105.517C29.2049 107.345 26.8797 111 21.6403 111ZM31.8456 45.2031C34.4044 45.4468 37.7856 46.9292 39.1564 47.64C39.3087 47.4369 40.0093 46.6043 41.5933 44.8985C42.7841 43.6161 42.212 42.8295 41.5668 41.9423C41.1392 41.3544 40.6794 40.7222 40.6794 39.8723C40.6794 38.1665 42.101 36.6231 42.8118 36.0646C40.3754 35.3879 39.0216 37.2372 38.3228 38.1917C38.2353 38.3113 38.158 38.4168 38.0902 38.5016C38.0218 38.5871 37.9419 38.6937 37.852 38.8136L37.8518 38.8139C37.1407 39.7626 35.8039 41.546 34.5871 40.3293C33.2164 38.9585 31.8456 40.4816 32.1502 42.0046C32.3939 43.2231 32.0487 44.6446 31.8456 45.2031ZM30.3225 48.8585C29.5914 47.64 30.424 46.7262 30.9317 46.4216C36.1102 47.1831 37.9379 48.4016 38.5471 49.1631C39.1564 50.8689 38.0902 51.2954 37.481 51.2954C35.3994 50.5846 31.0536 49.1022 30.3225 48.8585ZM17.3764 107.345C18.9502 107.751 22.4025 106.857 23.621 100.034C20.5241 99.78 13.325 98.2062 9.30408 93.9416C8.81669 93.3323 9.30408 91.6569 9.60869 90.8954L14.4825 75.9692C14.8379 75.4108 15.9447 74.5071 17.5287 75.36L17.6188 75.4085L17.6188 75.4086C19.7666 76.5656 28.5102 81.2758 29.561 79.6246C30.6271 77.9492 33.521 69.42 30.9318 68.6585C29.8492 68.3401 28.4698 68.0633 27.1894 67.8063C26.0199 67.5716 24.933 67.3535 24.2302 67.1354C22.0704 66.4651 23.0789 66.4868 24.7983 66.5237C26.5951 66.5622 29.1685 66.6174 29.7133 65.9169C29.9971 65.5521 30.2739 64.7792 30.6255 63.7971C31.251 62.0504 32.1134 59.6422 33.6733 57.6923C31.8056 63.7623 32.6755 65.7885 33.6226 67.9947C33.9113 68.6671 34.2071 69.3562 34.4348 70.1816C35.4096 73.7151 35.501 78.8123 34.8918 80.5385L34.8412 80.6817C34.572 81.4432 34.4374 81.8241 33.9779 83.4323C33.4905 85.1382 30.4241 94.6016 28.9517 99.12C27.7841 103.182 23.8342 110.513 17.3764 107.345Z" fill="url(#paint0_linear_4149_8183)"/>
<path d="M3.82031 100.338H2.82031V100.436L2.83916 100.532L3.82031 100.338ZM21.6403 111L21.6019 111.999L21.6211 112H21.6403V111ZM13.8726 69.5723L12.9721 69.1376L12.9469 69.1896L12.928 69.2442L13.8726 69.5723ZM20.8788 62.2615L20.3682 61.4017H20.3682L20.8788 62.2615ZM29.1034 49.7723L30.0475 50.102L30.202 49.6596L29.9609 49.2578L29.1034 49.7723ZM30.0172 45.2031L30.5029 46.0772L31.3399 45.6122L30.9117 44.7559L30.0172 45.2031ZM35.5003 30.2769L36.4412 30.6156L37.3846 27.9952L34.9898 29.4171L35.5003 30.2769ZM36.1095 34.8462L35.7506 35.7795L37.827 36.5781L37.0459 34.495L36.1095 34.8462ZM36.3144 33.6596L36.1014 34.6367H36.1014L36.3144 33.6596ZM39.4603 30.2769L40.3795 30.6708L40.7831 29.729L39.8317 29.3484L39.4603 30.2769ZM38.2419 30.8862L37.2471 30.9882L37.598 34.4099L39.1363 31.3334L38.2419 30.8862ZM41.288 23.2708L42.2803 23.3948L42.5029 21.6139L40.8713 22.3617L41.288 23.2708ZM47.6849 17.1785L48.6247 17.5202L49.4824 15.1617L47.2377 16.284L47.6849 17.1785ZM48.9034 20.5292L49.7716 21.0254L50.6266 19.5292H48.9034V20.5292ZM47.6849 22.6615L46.8167 22.1654L45.2598 24.89L48.106 23.5685L47.6849 22.6615ZM51.9495 12L52.5042 11.1679L50.9495 10.1315V12H51.9495ZM54.6911 19.1585L53.7773 18.7523V18.7523L54.6911 19.1585ZM53.745 21.1609L54.6444 21.5981V21.5981L53.745 21.1609ZM53.168 30.5815L53.4225 31.5486L55.4404 31.0176L53.7624 29.7774L53.168 30.5815ZM47.3803 35.1508L46.4518 35.5222L48.3803 35.1508H47.3803ZM46.7711 33.6277L47.6996 33.2563L46.7627 30.9142L45.8403 33.262L46.7711 33.6277ZM51.0357 37.8923L51.9935 38.1797L52.3797 36.8923H51.0357V37.8923ZM39.9172 48.5538L39.2101 49.261L39.503 49.5538H39.9172V48.5538ZM39.9367 48.703L40.9064 48.4589L40.9064 48.4589L39.9367 48.703ZM38.2419 52.6662L37.8538 51.7445L37.4889 51.8982L37.328 52.26L38.2419 52.6662ZM38.5465 72.4662L39.4973 72.1566L38.5465 72.4662ZM38.8511 76.4262L39.8434 76.5502L39.8434 76.5502L38.8511 76.4262ZM37.6326 81.4523L38.5825 81.7649L38.5887 81.7461L38.5941 81.727L37.6326 81.4523ZM29.7126 105.517L28.7627 105.204L28.7554 105.227L28.7491 105.249L29.7126 105.517ZM39.1564 47.64L38.696 48.5278L39.4481 48.9177L39.9564 48.24L39.1564 47.64ZM31.8456 45.2031L30.9058 44.8614L30.4641 46.076L31.7508 46.1986L31.8456 45.2031ZM41.5933 44.8985L40.8605 44.218L41.5933 44.8985ZM41.5668 41.9423L40.7581 42.5305L41.5668 41.9423ZM42.8118 36.0646L43.4296 36.851L44.9835 35.63L43.0794 35.1011L42.8118 36.0646ZM38.3228 38.1917L39.1297 38.7824L38.3228 38.1917ZM38.0902 38.5016L38.8711 39.1263L38.8711 39.1263L38.0902 38.5016ZM37.852 38.8136L37.0518 38.2139L37.0497 38.2166L37.852 38.8136ZM37.8518 38.8139L38.652 39.4137L38.654 39.4109L37.8518 38.8139ZM32.1502 42.0046L31.1696 42.2008L32.1502 42.0046ZM30.9317 46.4216L31.0772 45.4322L30.7237 45.3802L30.4172 45.5641L30.9317 46.4216ZM30.3225 48.8585L29.465 49.373L29.6553 49.6902L30.0063 49.8072L30.3225 48.8585ZM38.5471 49.1631L39.4889 48.8268L39.4326 48.6691L39.328 48.5384L38.5471 49.1631ZM37.481 51.2954L37.1578 52.2418L37.315 52.2954H37.481V51.2954ZM23.621 100.034L24.6054 100.21L24.7987 99.1271L23.7027 99.0372L23.621 100.034ZM17.3764 107.345L17.6263 106.376L16.936 108.242L17.3764 107.345ZM9.30408 93.9416L8.52321 94.5663L8.5486 94.598L8.57649 94.6276L9.30408 93.9416ZM9.60869 90.8954L10.5372 91.2668L10.5492 91.2367L10.5593 91.2058L9.60869 90.8954ZM14.4825 75.9692L13.6389 75.4324L13.5711 75.5389L13.5319 75.6588L14.4825 75.9692ZM17.5287 75.36L18.0029 74.4796L18.0028 74.4795L17.5287 75.36ZM17.6188 75.4085L17.1446 76.289L17.2086 76.3235L17.277 76.3483L17.6188 75.4085ZM17.6188 75.4086L18.0931 74.5282L18.029 74.4936L17.9605 74.4688L17.6188 75.4086ZM29.561 79.6246L28.7173 79.0878L29.561 79.6246ZM30.9318 68.6585L30.6496 69.6178L30.9318 68.6585ZM27.1894 67.8063L27.3862 66.8259H27.3862L27.1894 67.8063ZM24.2302 67.1354L24.5266 66.1803L24.2302 67.1354ZM24.7983 66.5237L24.8197 65.5239H24.8197L24.7983 66.5237ZM29.7133 65.9169L28.9239 65.303L29.7133 65.9169ZM30.6255 63.7971L31.567 64.1343V64.1343L30.6255 63.7971ZM33.6733 57.6923L34.6291 57.9864L32.8924 57.0676L33.6733 57.6923ZM33.6226 67.9947L34.5415 67.6002L33.6226 67.9947ZM34.4348 70.1816L33.4708 70.4475L34.4348 70.1816ZM34.8918 80.5385L35.8346 80.8716L35.8347 80.8713L34.8918 80.5385ZM34.8412 80.6817L35.784 81.0149L35.7841 81.0148L34.8412 80.6817ZM33.9779 83.4323L34.9394 83.707L33.9779 83.4323ZM28.9517 99.12L28.001 98.8102L27.9955 98.8269L27.9907 98.8437L28.9517 99.12ZM2.83916 100.532C3.72091 105.008 7.19839 107.823 10.9306 109.519C14.6729 111.22 18.8659 111.894 21.6019 111.999L21.6787 110.001C19.1348 109.903 15.2097 109.267 11.7581 107.698C8.29623 106.125 5.50371 103.71 4.80146 100.145L2.83916 100.532ZM12.928 69.2442C11.2517 74.0698 8.73708 81.4003 6.64094 87.7091C5.59314 90.8626 4.64818 93.7661 3.96449 95.9753C3.62295 97.0788 3.34422 98.0169 3.15001 98.7293C3.05312 99.0848 2.97472 99.3934 2.91978 99.6429C2.87179 99.8609 2.82031 100.124 2.82031 100.338H4.82031C4.82031 100.371 4.82119 100.308 4.873 100.073C4.91786 99.8692 4.98671 99.5961 5.07962 99.2553C5.26499 98.5752 5.53599 97.6622 5.87508 96.5665C6.55264 94.3772 7.49249 91.4891 8.53892 88.3397C10.6312 82.0424 13.1427 74.721 14.8173 69.9004L12.928 69.2442ZM20.3682 61.4017C16.2687 63.8358 13.7508 67.5245 12.9721 69.1376L14.7732 70.0071C15.416 68.6755 17.6907 65.3174 21.3893 63.1214L20.3682 61.4017ZM28.1593 49.4426C27.6194 50.9888 26.5641 53.4719 25.1721 55.8417C23.761 58.2441 22.09 60.3794 20.3682 61.4017L21.3893 63.1214C23.5666 61.8286 25.4494 59.3185 26.8966 56.8547C28.363 54.3582 29.4705 51.7543 30.0475 50.102L28.1593 49.4426ZM29.5316 44.3289C28.0984 45.1251 27.5516 46.351 27.51 47.5286C27.471 48.6352 27.8715 49.6628 28.2459 50.2868L29.9609 49.2578C29.726 48.8664 29.4869 48.2186 29.5088 47.5991C29.5281 47.0505 29.7428 46.4995 30.5029 46.0772L29.5316 44.3289ZM27.7988 39.8723C27.7988 42.3829 28.6678 44.7402 29.1228 45.6503L30.9117 44.7559C30.5544 44.0413 29.7988 41.9919 29.7988 39.8723H27.7988ZM34.9898 29.4171C29.8802 32.4509 27.7988 36.5533 27.7988 39.8723H29.7988C29.7988 37.4036 31.3727 33.8907 36.0108 31.1368L34.9898 29.4171ZM36.4685 33.9128C36.2821 33.8411 36.0497 33.604 36.0395 32.7965C36.0301 32.0469 36.2379 31.1804 36.4412 30.6156L34.5594 29.9382C34.3058 30.6427 34.0262 31.7561 34.0397 32.8216C34.0523 33.8291 34.353 35.242 35.7506 35.7795L36.4685 33.9128ZM36.1095 32.6277C35.8667 32.6277 35.6026 32.7 35.375 32.8815C35.1595 33.0532 35.048 33.2659 34.9906 33.429C34.8862 33.7257 34.9032 34.021 34.9208 34.189C34.96 34.5627 35.0831 34.957 35.1732 35.1973L37.0459 34.495C36.9837 34.3292 36.924 34.1143 36.9099 33.9802C36.907 33.9524 36.908 33.9453 36.9076 33.955C36.9073 33.9607 36.9049 34.0142 36.8772 34.0929C36.8488 34.1736 36.7795 34.3196 36.6217 34.4453C36.4518 34.5808 36.261 34.6277 36.1095 34.6277V32.6277ZM36.5273 32.6826C36.4845 32.6733 36.2989 32.6277 36.1095 32.6277V34.6277C36.0822 34.6277 36.0618 34.626 36.0507 34.6248C36.0395 34.6236 36.0337 34.6226 36.0354 34.6229C36.0372 34.6232 36.0427 34.6242 36.0546 34.6266C36.0604 34.6278 36.067 34.6292 36.0749 34.6309C36.083 34.6327 36.0914 34.6345 36.1014 34.6367L36.5273 32.6826ZM38.5412 29.883C37.7597 31.7065 37.1909 32.3792 36.8855 32.6112C36.8173 32.663 36.7703 32.6864 36.7448 32.6969C36.7205 32.7069 36.7071 32.7087 36.7014 32.7093C36.6838 32.7112 36.6628 32.7121 36.5273 32.6826L36.1014 34.6367C36.2341 34.6656 36.5411 34.738 36.9146 34.698C37.3069 34.6559 37.7036 34.5014 38.0955 34.2037C38.8303 33.6453 39.5663 32.5681 40.3795 30.6708L38.5412 29.883ZM39.1363 31.3334C39.1774 31.2511 39.2093 31.2208 39.2158 31.2151C39.2214 31.2101 39.2163 31.2157 39.2012 31.2206C39.1888 31.2246 39.1769 31.2258 39.1655 31.2253C39.1597 31.225 39.1518 31.2242 39.1411 31.2219C39.131 31.2197 39.1135 31.2152 39.0889 31.2054L39.8317 29.3484C39.5082 29.2191 39.0542 29.1659 38.5847 29.318C38.0792 29.4818 37.6387 29.8564 37.3474 30.4389L39.1363 31.3334ZM40.8713 22.3617C39.0299 23.2057 38.0896 24.9424 37.63 26.5662C37.1674 28.2004 37.1354 29.8996 37.2471 30.9882L39.2366 30.7841C39.1452 29.8927 39.1741 28.4544 39.5544 27.1109C39.9375 25.7572 40.6218 24.6761 41.7047 24.1798L40.8713 22.3617ZM42.8111 24.7077C42.6429 24.7077 42.5742 24.6654 42.5433 24.6421C42.5015 24.6107 42.4426 24.5451 42.3868 24.4105C42.2646 24.1161 42.2426 23.6963 42.2803 23.3948L40.2957 23.1467C40.2319 23.6576 40.2404 24.4562 40.5395 25.1771C40.6944 25.5503 40.944 25.9416 41.3407 26.2402C41.7483 26.5469 42.2482 26.7077 42.8111 26.7077V24.7077ZM43.6388 22.0523C43.6388 22.5916 43.5545 23.3812 43.3323 23.9982C43.0837 24.6888 42.8563 24.7077 42.8111 24.7077V26.7077C44.228 26.7077 44.9144 25.5082 45.2141 24.6756C45.5403 23.7696 45.6388 22.7315 45.6388 22.0523H43.6388ZM47.2377 16.284C44.3388 17.7335 43.6388 20.7175 43.6388 22.0523H45.6388C45.6388 21.1533 46.1573 19.0603 48.1321 18.0729L47.2377 16.284ZM48.9034 19.5292C48.6163 19.5292 48.5381 19.453 48.5244 19.4399C48.4949 19.4116 48.4324 19.3282 48.3982 19.1147C48.3249 18.6562 48.4485 18.0047 48.6247 17.5202L46.7451 16.8367C46.5152 17.4691 46.2733 18.493 46.4233 19.4307C46.5009 19.9153 46.6973 20.4601 47.1424 20.8856C47.6034 21.3263 48.2157 21.5292 48.9034 21.5292V19.5292ZM48.5532 23.1577L49.7716 21.0254L48.0351 20.0331L46.8167 22.1654L48.5532 23.1577ZM50.9495 12C50.9495 18.7082 48.2125 21.3141 47.2638 21.7545L48.106 23.5685C50.0005 22.689 52.9495 19.1822 52.9495 12H50.9495ZM55.6049 19.5646C56.4927 17.5671 56.1045 15.7003 55.3191 14.2501C54.5483 12.8269 53.3716 11.7462 52.5042 11.1679L51.3948 12.8321C52.0505 13.2692 52.9757 14.1228 53.5605 15.2025C54.1306 16.2553 54.3516 17.46 53.7773 18.7523L55.6049 19.5646ZM54.6444 21.5981C54.9713 20.9256 55.3053 20.2387 55.6049 19.5646L53.7773 18.7523C53.494 19.3896 53.1755 20.0451 52.8456 20.7237L54.6444 21.5981ZM53.7624 29.7774C53.1853 29.3508 52.8794 28.8855 52.7276 28.3961C52.5706 27.8895 52.5575 27.2862 52.6872 26.5684C52.9535 25.0942 53.76 23.4173 54.6444 21.5981L52.8456 20.7237C51.9987 22.4659 51.0445 24.4111 50.719 26.2128C50.5528 27.1329 50.536 28.081 50.8173 28.9883C51.104 29.9128 51.6784 30.7241 52.5736 31.3857L53.7624 29.7774ZM48.3803 35.1508C48.3803 34.4813 48.935 33.7264 50.091 32.9842C51.1855 32.2814 52.5285 31.7839 53.4225 31.5486L52.9135 29.6145C51.8783 29.8869 50.3275 30.4555 49.0104 31.3012C47.7549 32.1074 46.3803 33.3833 46.3803 35.1508H48.3803ZM45.8426 33.9991L46.4518 35.5222L48.3088 34.7794L47.6996 33.2563L45.8426 33.9991ZM51.0357 36.8923C48.8375 36.8923 48.052 36.2417 47.7657 35.7723C47.4447 35.2461 47.489 34.5351 47.7018 33.9933L45.8403 33.262C45.4947 34.1418 45.2953 35.5631 46.0583 36.8138C46.8558 38.1213 48.4819 38.8923 51.0357 38.8923V36.8923ZM39.9172 49.5538C43.4942 49.5538 46.2623 47.542 48.2203 45.1966C50.178 42.8517 51.4299 40.0585 51.9935 38.1797L50.0779 37.605C49.5754 39.28 48.436 41.8175 46.685 43.9149C44.9344 46.0118 42.6763 47.5538 39.9172 47.5538V49.5538ZM40.9064 48.4589C40.8855 48.3758 40.8892 48.3866 40.8937 48.4139C40.8956 48.4252 40.902 48.4651 40.9042 48.5192C40.9047 48.5308 40.9195 48.7263 40.8237 48.9477C40.7664 49.08 40.6338 49.3024 40.3576 49.4416C40.0712 49.586 39.7977 49.5572 39.631 49.5088C39.3685 49.4326 39.2162 49.267 39.2101 49.261L40.6243 47.8467C40.6122 47.8346 40.455 47.6655 40.1889 47.5882C40.0203 47.5392 39.7452 47.5106 39.4574 47.6556C39.18 47.7955 39.0463 48.0192 38.9882 48.1533C38.8908 48.3784 38.905 48.58 38.9058 48.6C38.9083 48.6625 38.9161 48.713 38.92 48.7371C38.9329 48.8159 38.9584 48.9133 38.967 48.9471L40.9064 48.4589ZM38.6299 53.5878C40.1855 52.9328 40.8524 51.798 41.0454 50.7067C41.2249 49.692 40.9854 48.7726 40.9064 48.4589L38.9669 48.9471C39.044 49.2531 39.1743 49.8027 39.076 50.3584C38.9912 50.8375 38.7327 51.3745 37.8538 51.7445L38.6299 53.5878ZM37.4142 63.1754C37.4142 58.1944 38.6046 54.3122 39.1557 53.0723L37.328 52.26C36.6606 53.7617 35.4142 57.9213 35.4142 63.1754H37.4142ZM39.4973 72.1566C39.1478 71.0831 38.6215 69.3313 38.1839 67.5819C37.7374 65.7975 37.4142 64.1326 37.4142 63.1754H35.4142C35.4142 64.4114 35.8016 66.3004 36.2437 68.0673C36.6945 69.8692 37.2343 71.6662 37.5956 72.7757L39.4973 72.1566ZM39.8434 76.5502C40.01 75.2169 39.8987 73.3894 39.4973 72.1566L37.5956 72.7757C37.8885 73.6752 37.9968 75.1985 37.8588 76.3021L39.8434 76.5502ZM38.5941 81.727C38.9943 80.3266 39.7109 77.6095 39.8434 76.5502L37.8588 76.3021C37.7494 77.1773 37.0833 79.7349 36.6711 81.1776L38.5941 81.727ZM30.6625 105.83L38.5825 81.7649L36.6827 81.1397L28.7627 105.204L30.6625 105.83ZM21.6403 112C27.4423 112 30.0816 107.925 30.6761 105.785L28.7491 105.249C28.3283 106.764 26.3171 110 21.6403 110V112ZM39.6167 46.7523C38.2231 46.0297 34.6996 44.4704 31.9404 44.2076L31.7508 46.1986C34.1091 46.4232 37.3481 47.8288 38.696 48.5278L39.6167 46.7523ZM40.8605 44.218C39.2802 45.9199 38.5447 46.7889 38.3564 47.04L39.9564 48.24C40.0727 48.085 40.7384 47.2887 42.3261 45.5789L40.8605 44.218ZM40.7581 42.5305C41.1191 43.027 41.2514 43.2446 41.2811 43.4301C41.2912 43.4935 41.3275 43.7151 40.8605 44.218L42.3261 45.5789C43.0499 44.7994 43.3955 43.9865 43.256 43.1143C43.136 42.364 42.6597 41.7448 42.3755 41.3541L40.7581 42.5305ZM39.6794 39.8723C39.6794 41.0932 40.3556 41.977 40.7581 42.5305L42.3755 41.3541C41.9228 40.7317 41.6794 40.3512 41.6794 39.8723H39.6794ZM42.1939 35.2783C41.7607 35.6187 41.1531 36.2215 40.646 36.985C40.1425 37.7432 39.6794 38.7488 39.6794 39.8723H41.6794C41.6794 39.29 41.9272 38.671 42.3121 38.0915C42.6935 37.5172 43.152 37.069 43.4296 36.851L42.1939 35.2783ZM39.1297 38.7824C39.4874 38.2938 39.9093 37.7304 40.4783 37.3431C41.0007 36.9876 41.6479 36.7792 42.5441 37.0282L43.0794 35.1011C41.5392 34.6733 40.2913 35.0511 39.353 35.6897C38.4613 36.2966 37.857 37.1351 37.5159 37.601L39.1297 38.7824ZM38.8711 39.1263C38.9552 39.0212 39.0464 38.8962 39.1297 38.7824L37.5159 37.601C37.4242 37.7264 37.3609 37.8124 37.3094 37.8769L38.8711 39.1263ZM38.6521 39.4134C38.7453 39.2892 38.8147 39.1968 38.8711 39.1263L37.3094 37.8768C37.229 37.9773 37.1385 38.0982 37.0518 38.2139L38.6521 39.4134ZM38.654 39.4109L38.6542 39.4107L37.0497 38.2166L37.0495 38.2169L38.654 39.4109ZM33.88 41.0364C34.3507 41.507 34.9216 41.7607 35.546 41.7386C36.127 41.718 36.6205 41.4625 36.9917 41.1964C37.7154 40.6775 38.3183 39.8588 38.652 39.4137L37.0516 38.2141C36.6742 38.7177 36.2531 39.265 35.8264 39.5709C35.6225 39.7171 35.5092 39.7386 35.4751 39.7398C35.4646 39.7402 35.4561 39.7395 35.4398 39.7325C35.4206 39.7243 35.3705 39.6984 35.2942 39.6221L33.88 41.0364ZM33.1308 41.8085C33.0413 41.3609 33.2202 40.9847 33.3836 40.8475C33.448 40.7934 33.4839 40.7936 33.5028 40.7952C33.5278 40.7972 33.6605 40.8169 33.88 41.0364L35.2942 39.6221C34.8283 39.1562 34.2757 38.8522 33.6677 38.802C33.0535 38.7512 32.5088 38.9703 32.0972 39.316C31.3086 39.9784 30.9545 41.1253 31.1696 42.2008L33.1308 41.8085ZM32.7854 45.5448C33.0173 44.907 33.4258 43.2836 33.1308 41.8085L31.1696 42.2008C31.362 43.1626 31.08 44.3822 30.9058 44.8614L32.7854 45.5448ZM30.4172 45.5641C30.0262 45.7987 29.5248 46.2495 29.244 46.9021C28.9384 47.6124 28.9318 48.4843 29.465 49.373L31.18 48.344C31.0707 48.1618 31.0414 48.0291 31.0358 47.9424C31.0302 47.8548 31.0462 47.7737 31.0811 47.6926C31.1608 47.5075 31.3296 47.349 31.4462 47.2791L30.4172 45.5641ZM39.328 48.5384C38.4675 47.4628 36.3031 46.2007 31.0772 45.4322L30.7862 47.4109C35.9173 48.1655 37.4083 49.3403 37.7663 49.7878L39.328 48.5384ZM37.481 52.2954C37.961 52.2954 38.7167 52.1362 39.2392 51.5091C39.8145 50.8187 39.8618 49.871 39.4889 48.8268L37.6054 49.4994C37.724 49.8314 37.7353 50.0313 37.7268 50.1312C37.7227 50.1794 37.7141 50.2051 37.71 50.2151C37.7061 50.2249 37.7034 50.228 37.7028 50.2288C37.7013 50.2305 37.6857 50.2481 37.6364 50.2668C37.5842 50.2866 37.5246 50.2954 37.481 50.2954V52.2954ZM30.0063 49.8072C30.7328 50.0493 35.0734 51.53 37.1578 52.2418L37.8041 50.3491C35.7255 49.6393 31.3744 48.155 30.6387 47.9098L30.0063 49.8072ZM22.6366 99.8581C22.0526 103.128 20.9625 104.811 19.9861 105.637C19.0133 106.46 18.0886 106.496 17.6263 106.376L17.1265 108.313C18.238 108.6 19.8264 108.392 21.2779 107.164C22.7256 105.939 23.9709 103.763 24.6054 100.21L22.6366 99.8581ZM8.57649 94.6276C10.7382 96.9203 13.7073 98.4482 16.4734 99.4337C19.2476 100.422 21.9071 100.897 23.5393 101.031L23.7027 99.0372C22.2379 98.9171 19.7495 98.4779 17.1447 97.5498C14.5317 96.6188 11.8909 95.2274 10.0317 93.2555L8.57649 94.6276ZM8.68021 90.524C8.50884 90.9525 8.28692 91.632 8.17316 92.3102C8.11639 92.6486 8.08 93.0242 8.10573 93.3865C8.13021 93.7311 8.21893 94.1859 8.52321 94.5663L10.0849 93.3169C10.1455 93.3926 10.1124 93.4095 10.1007 93.2448C10.0903 93.0978 10.1034 92.8928 10.1456 92.641C10.2299 92.1388 10.4039 91.5999 10.5372 91.2668L8.68021 90.524ZM13.5319 75.6588L8.65809 90.585L10.5593 91.2058L15.4331 76.2796L13.5319 75.6588ZM18.0028 74.4795C16.969 73.9229 15.9998 73.9053 15.2026 74.1958C14.4485 74.4705 13.9176 74.9943 13.6389 75.4324L15.3262 76.5061C15.4028 76.3858 15.603 76.1785 15.8872 76.075C16.1282 75.9871 16.5043 75.9442 17.0546 76.2405L18.0028 74.4795ZM18.093 74.5281L18.0029 74.4796L17.0545 76.2404L17.1446 76.289L18.093 74.5281ZM17.9605 74.4688L17.9605 74.4688L17.277 76.3483L17.2771 76.3484L17.9605 74.4688ZM28.7173 79.0878C28.8342 78.9041 28.9718 78.9511 28.7561 78.9681C28.5587 78.9835 28.236 78.9547 27.7753 78.85C26.866 78.6434 25.6752 78.2029 24.3975 77.6515C21.8568 76.5552 19.1695 75.1081 18.0931 74.5282L17.1445 76.2889C18.2159 76.8661 20.9743 78.3526 23.6051 79.4878C24.9131 80.0523 26.2394 80.552 27.3322 80.8003C27.8726 80.9231 28.4221 81.0004 28.9124 80.9619C29.3844 80.9249 30.0251 80.758 30.4046 80.1615L28.7173 79.0878ZM30.6496 69.6178C30.6733 69.6248 30.7162 69.6361 30.7795 69.7537C30.8559 69.8956 30.9311 70.1462 30.9631 70.539C31.0273 71.3247 30.8993 72.4007 30.6402 73.5852C30.3848 74.753 30.0176 75.9569 29.6493 76.9697C29.2727 78.0054 28.922 78.7661 28.7173 79.0878L30.4046 80.1615C30.733 79.6455 31.1439 78.7118 31.5289 77.6532C31.9221 76.5718 32.3164 75.2816 32.594 74.0126C32.868 72.7601 33.0447 71.4563 32.9565 70.3763C32.8749 69.3761 32.5095 68.0802 31.2139 67.6991L30.6496 69.6178ZM26.9927 68.7868C28.2865 69.0464 29.6181 69.3145 30.6496 69.6178L31.2139 67.6991C30.0802 67.3657 28.6531 67.0801 27.3862 66.8259L26.9927 68.7868ZM23.9338 68.0905C24.6981 68.3276 25.847 68.5569 26.9927 68.7868L27.3862 66.8259C26.1929 66.5864 25.168 66.3794 24.5266 66.1803L23.9338 68.0905ZM24.8197 65.5239C24.3958 65.5148 23.992 65.506 23.6697 65.5095C23.5085 65.5112 23.3507 65.5161 23.2108 65.5277C23.0988 65.537 22.8984 65.5569 22.709 65.6278C22.6314 65.6569 22.3868 65.753 22.2017 66.0062C22.0941 66.1533 22.0119 66.3479 22.0027 66.5754C21.9938 66.7954 22.0559 66.9762 22.1217 67.1017C22.2381 67.3239 22.4062 67.4513 22.472 67.499C22.5583 67.5614 22.6459 67.6096 22.7169 67.6453C22.9825 67.7788 23.3988 67.9244 23.9338 68.0905L24.5266 66.1803C23.9818 66.0113 23.7142 65.9082 23.6152 65.8584C23.595 65.8483 23.6114 65.8547 23.6452 65.8792C23.6586 65.8889 23.793 65.982 23.8932 66.1734C23.9509 66.2835 24.0094 66.4498 24.0011 66.656C23.9924 66.8698 23.915 67.0515 23.8163 67.1865C23.649 67.4153 23.4385 67.4903 23.4101 67.5009C23.3192 67.5349 23.278 67.529 23.3761 67.5209C23.4465 67.515 23.5498 67.5109 23.6912 67.5094C23.974 67.5063 24.341 67.5141 24.7768 67.5234L24.8197 65.5239ZM28.9239 65.303C28.9989 65.2067 29.0126 65.2655 28.7092 65.3468C28.4509 65.416 28.0929 65.4677 27.6518 65.5001C26.7721 65.5649 25.7293 65.5434 24.8197 65.5239L24.7768 67.5234C25.6641 67.5425 26.8064 67.5678 27.7987 67.4947C28.2937 67.4583 28.7936 67.3948 29.2271 67.2786C29.6156 67.1744 30.1553 66.9775 30.5026 66.5309L28.9239 65.303ZM29.6841 63.46C29.5057 63.958 29.357 64.3726 29.219 64.7083C29.0734 65.0626 28.9757 65.2364 28.9239 65.303L30.5026 66.5309C30.7346 66.2326 30.9172 65.8376 31.0689 65.4686C31.2281 65.0812 31.3936 64.6183 31.567 64.1343L29.6841 63.46ZM32.8924 57.0676C31.2127 59.1673 30.3025 61.7329 29.6841 63.46L31.567 64.1343C32.1995 62.3679 33.014 60.1172 34.4542 58.317L32.8924 57.0676ZM34.5415 67.6002C34.0704 66.5028 33.6803 65.582 33.5902 64.2261C33.4989 62.8517 33.7149 60.9575 34.6291 57.9864L32.7175 57.3982C31.764 60.4971 31.4811 62.651 31.5946 64.3587C31.7093 66.085 32.2277 67.2803 32.7037 68.3892L34.5415 67.6002ZM35.3988 69.9156C35.1506 69.016 34.8285 68.2687 34.5415 67.6002L32.7037 68.3892C32.994 69.0654 33.2636 69.6964 33.4708 70.4475L35.3988 69.9156ZM35.8347 80.8713C36.2075 79.8152 36.3255 77.9426 36.2567 76.0023C36.1862 74.0175 35.9127 71.7783 35.3988 69.9156L33.4708 70.4475C33.9318 72.1184 34.1913 74.1946 34.2579 76.0732C34.3262 77.9965 34.1853 79.5356 33.9488 80.2057L35.8347 80.8713ZM35.7841 81.0148L35.8346 80.8716L33.9489 80.2054L33.8983 80.3486L35.7841 81.0148ZM34.9394 83.707C35.3935 82.1178 35.5219 81.7565 35.784 81.0149L33.8983 80.3484C33.6221 81.13 33.4813 81.5303 33.0164 83.1576L34.9394 83.707ZM29.9025 99.4298C31.3702 94.9257 34.4455 85.4359 34.9394 83.707L33.0164 83.1576C32.5356 84.8404 29.4779 94.2774 28.001 98.8102L29.9025 99.4298ZM16.936 108.242C18.736 109.125 20.4296 109.304 21.9744 108.941C23.5016 108.581 24.7948 107.713 25.8557 106.65C27.9583 104.543 29.3023 101.52 29.9128 99.3963L27.9907 98.8437C27.4335 100.782 26.2188 103.455 24.4401 105.237C23.5603 106.119 22.5822 106.743 21.5161 106.994C20.4675 107.241 19.2457 107.148 17.8168 106.447L16.936 108.242Z" fill="#EDF2FF" mask="url(#path-3-inside-2_4149_8183)"/>
<path d="M3.82031 100.338H2.82031V100.436L2.83916 100.532L3.82031 100.338ZM21.6403 111L21.6019 111.999L21.6211 112H21.6403V111ZM13.8726 69.5723L12.9721 69.1376L12.9469 69.1896L12.928 69.2442L13.8726 69.5723ZM20.8788 62.2615L20.3682 61.4017H20.3682L20.8788 62.2615ZM29.1034 49.7723L30.0475 50.102L30.202 49.6596L29.9609 49.2578L29.1034 49.7723ZM30.0172 45.2031L30.5029 46.0772L31.3399 45.6122L30.9117 44.7559L30.0172 45.2031ZM35.5003 30.2769L36.4412 30.6156L37.3846 27.9952L34.9898 29.4171L35.5003 30.2769ZM36.1095 34.8462L35.7506 35.7795L37.827 36.5781L37.0459 34.495L36.1095 34.8462ZM36.3144 33.6596L36.1014 34.6367H36.1014L36.3144 33.6596ZM39.4603 30.2769L40.3795 30.6708L40.7831 29.729L39.8317 29.3484L39.4603 30.2769ZM38.2419 30.8862L37.2471 30.9882L37.598 34.4099L39.1363 31.3334L38.2419 30.8862ZM41.288 23.2708L42.2803 23.3948L42.5029 21.6139L40.8713 22.3617L41.288 23.2708ZM47.6849 17.1785L48.6247 17.5202L49.4824 15.1617L47.2377 16.284L47.6849 17.1785ZM48.9034 20.5292L49.7716 21.0254L50.6266 19.5292H48.9034V20.5292ZM47.6849 22.6615L46.8167 22.1654L45.2598 24.89L48.106 23.5685L47.6849 22.6615ZM51.9495 12L52.5042 11.1679L50.9495 10.1315V12H51.9495ZM54.6911 19.1585L53.7773 18.7523V18.7523L54.6911 19.1585ZM53.745 21.1609L54.6444 21.5981V21.5981L53.745 21.1609ZM53.168 30.5815L53.4225 31.5486L55.4404 31.0176L53.7624 29.7774L53.168 30.5815ZM47.3803 35.1508L46.4518 35.5222L48.3803 35.1508H47.3803ZM46.7711 33.6277L47.6996 33.2563L46.7627 30.9142L45.8403 33.262L46.7711 33.6277ZM51.0357 37.8923L51.9935 38.1797L52.3797 36.8923H51.0357V37.8923ZM39.9172 48.5538L39.2101 49.261L39.503 49.5538H39.9172V48.5538ZM39.9367 48.703L40.9064 48.4589L40.9064 48.4589L39.9367 48.703ZM38.2419 52.6662L37.8538 51.7445L37.4889 51.8982L37.328 52.26L38.2419 52.6662ZM38.5465 72.4662L39.4973 72.1566L38.5465 72.4662ZM38.8511 76.4262L39.8434 76.5502L39.8434 76.5502L38.8511 76.4262ZM37.6326 81.4523L38.5825 81.7649L38.5887 81.7461L38.5941 81.727L37.6326 81.4523ZM29.7126 105.517L28.7627 105.204L28.7554 105.227L28.7491 105.249L29.7126 105.517ZM39.1564 47.64L38.696 48.5278L39.4481 48.9177L39.9564 48.24L39.1564 47.64ZM31.8456 45.2031L30.9058 44.8614L30.4641 46.076L31.7508 46.1986L31.8456 45.2031ZM41.5933 44.8985L40.8605 44.218L41.5933 44.8985ZM41.5668 41.9423L40.7581 42.5305L41.5668 41.9423ZM42.8118 36.0646L43.4296 36.851L44.9835 35.63L43.0794 35.1011L42.8118 36.0646ZM38.3228 38.1917L39.1297 38.7824L38.3228 38.1917ZM38.0902 38.5016L38.8711 39.1263L38.8711 39.1263L38.0902 38.5016ZM37.852 38.8136L37.0518 38.2139L37.0497 38.2166L37.852 38.8136ZM37.8518 38.8139L38.652 39.4137L38.654 39.4109L37.8518 38.8139ZM32.1502 42.0046L31.1696 42.2008L32.1502 42.0046ZM30.9317 46.4216L31.0772 45.4322L30.7237 45.3802L30.4172 45.5641L30.9317 46.4216ZM30.3225 48.8585L29.465 49.373L29.6553 49.6902L30.0063 49.8072L30.3225 48.8585ZM38.5471 49.1631L39.4889 48.8268L39.4326 48.6691L39.328 48.5384L38.5471 49.1631ZM37.481 51.2954L37.1578 52.2418L37.315 52.2954H37.481V51.2954ZM23.621 100.034L24.6054 100.21L24.7987 99.1271L23.7027 99.0372L23.621 100.034ZM17.3764 107.345L17.6263 106.376L16.936 108.242L17.3764 107.345ZM9.30408 93.9416L8.52321 94.5663L8.5486 94.598L8.57649 94.6276L9.30408 93.9416ZM9.60869 90.8954L10.5372 91.2668L10.5492 91.2367L10.5593 91.2058L9.60869 90.8954ZM14.4825 75.9692L13.6389 75.4324L13.5711 75.5389L13.5319 75.6588L14.4825 75.9692ZM17.5287 75.36L18.0029 74.4796L18.0028 74.4795L17.5287 75.36ZM17.6188 75.4085L17.1446 76.289L17.2086 76.3235L17.277 76.3483L17.6188 75.4085ZM17.6188 75.4086L18.0931 74.5282L18.029 74.4936L17.9605 74.4688L17.6188 75.4086ZM29.561 79.6246L28.7173 79.0878L29.561 79.6246ZM30.9318 68.6585L30.6496 69.6178L30.9318 68.6585ZM27.1894 67.8063L27.3862 66.8259H27.3862L27.1894 67.8063ZM24.2302 67.1354L24.5266 66.1803L24.2302 67.1354ZM24.7983 66.5237L24.8197 65.5239H24.8197L24.7983 66.5237ZM29.7133 65.9169L28.9239 65.303L29.7133 65.9169ZM30.6255 63.7971L31.567 64.1343V64.1343L30.6255 63.7971ZM33.6733 57.6923L34.6291 57.9864L32.8924 57.0676L33.6733 57.6923ZM33.6226 67.9947L34.5415 67.6002L33.6226 67.9947ZM34.4348 70.1816L33.4708 70.4475L34.4348 70.1816ZM34.8918 80.5385L35.8346 80.8716L35.8347 80.8713L34.8918 80.5385ZM34.8412 80.6817L35.784 81.0149L35.7841 81.0148L34.8412 80.6817ZM33.9779 83.4323L34.9394 83.707L33.9779 83.4323ZM28.9517 99.12L28.001 98.8102L27.9955 98.8269L27.9907 98.8437L28.9517 99.12ZM2.83916 100.532C3.72091 105.008 7.19839 107.823 10.9306 109.519C14.6729 111.22 18.8659 111.894 21.6019 111.999L21.6787 110.001C19.1348 109.903 15.2097 109.267 11.7581 107.698C8.29623 106.125 5.50371 103.71 4.80146 100.145L2.83916 100.532ZM12.928 69.2442C11.2517 74.0698 8.73708 81.4003 6.64094 87.7091C5.59314 90.8626 4.64818 93.7661 3.96449 95.9753C3.62295 97.0788 3.34422 98.0169 3.15001 98.7293C3.05312 99.0848 2.97472 99.3934 2.91978 99.6429C2.87179 99.8609 2.82031 100.124 2.82031 100.338H4.82031C4.82031 100.371 4.82119 100.308 4.873 100.073C4.91786 99.8692 4.98671 99.5961 5.07962 99.2553C5.26499 98.5752 5.53599 97.6622 5.87508 96.5665C6.55264 94.3772 7.49249 91.4891 8.53892 88.3397C10.6312 82.0424 13.1427 74.721 14.8173 69.9004L12.928 69.2442ZM20.3682 61.4017C16.2687 63.8358 13.7508 67.5245 12.9721 69.1376L14.7732 70.0071C15.416 68.6755 17.6907 65.3174 21.3893 63.1214L20.3682 61.4017ZM28.1593 49.4426C27.6194 50.9888 26.5641 53.4719 25.1721 55.8417C23.761 58.2441 22.09 60.3794 20.3682 61.4017L21.3893 63.1214C23.5666 61.8286 25.4494 59.3185 26.8966 56.8547C28.363 54.3582 29.4705 51.7543 30.0475 50.102L28.1593 49.4426ZM29.5316 44.3289C28.0984 45.1251 27.5516 46.351 27.51 47.5286C27.471 48.6352 27.8715 49.6628 28.2459 50.2868L29.9609 49.2578C29.726 48.8664 29.4869 48.2186 29.5088 47.5991C29.5281 47.0505 29.7428 46.4995 30.5029 46.0772L29.5316 44.3289ZM27.7988 39.8723C27.7988 42.3829 28.6678 44.7402 29.1228 45.6503L30.9117 44.7559C30.5544 44.0413 29.7988 41.9919 29.7988 39.8723H27.7988ZM34.9898 29.4171C29.8802 32.4509 27.7988 36.5533 27.7988 39.8723H29.7988C29.7988 37.4036 31.3727 33.8907 36.0108 31.1368L34.9898 29.4171ZM36.4685 33.9128C36.2821 33.8411 36.0497 33.604 36.0395 32.7965C36.0301 32.0469 36.2379 31.1804 36.4412 30.6156L34.5594 29.9382C34.3058 30.6427 34.0262 31.7561 34.0397 32.8216C34.0523 33.8291 34.353 35.242 35.7506 35.7795L36.4685 33.9128ZM36.1095 32.6277C35.8667 32.6277 35.6026 32.7 35.375 32.8815C35.1595 33.0532 35.048 33.2659 34.9906 33.429C34.8862 33.7257 34.9032 34.021 34.9208 34.189C34.96 34.5627 35.0831 34.957 35.1732 35.1973L37.0459 34.495C36.9837 34.3292 36.924 34.1143 36.9099 33.9802C36.907 33.9524 36.908 33.9453 36.9076 33.955C36.9073 33.9607 36.9049 34.0142 36.8772 34.0929C36.8488 34.1736 36.7795 34.3196 36.6217 34.4453C36.4518 34.5808 36.261 34.6277 36.1095 34.6277V32.6277ZM36.5273 32.6826C36.4845 32.6733 36.2989 32.6277 36.1095 32.6277V34.6277C36.0822 34.6277 36.0618 34.626 36.0507 34.6248C36.0395 34.6236 36.0337 34.6226 36.0354 34.6229C36.0372 34.6232 36.0427 34.6242 36.0546 34.6266C36.0604 34.6278 36.067 34.6292 36.0749 34.6309C36.083 34.6327 36.0914 34.6345 36.1014 34.6367L36.5273 32.6826ZM38.5412 29.883C37.7597 31.7065 37.1909 32.3792 36.8855 32.6112C36.8173 32.663 36.7703 32.6864 36.7448 32.6969C36.7205 32.7069 36.7071 32.7087 36.7014 32.7093C36.6838 32.7112 36.6628 32.7121 36.5273 32.6826L36.1014 34.6367C36.2341 34.6656 36.5411 34.738 36.9146 34.698C37.3069 34.6559 37.7036 34.5014 38.0955 34.2037C38.8303 33.6453 39.5663 32.5681 40.3795 30.6708L38.5412 29.883ZM39.1363 31.3334C39.1774 31.2511 39.2093 31.2208 39.2158 31.2151C39.2214 31.2101 39.2163 31.2157 39.2012 31.2206C39.1888 31.2246 39.1769 31.2258 39.1655 31.2253C39.1597 31.225 39.1518 31.2242 39.1411 31.2219C39.131 31.2197 39.1135 31.2152 39.0889 31.2054L39.8317 29.3484C39.5082 29.2191 39.0542 29.1659 38.5847 29.318C38.0792 29.4818 37.6387 29.8564 37.3474 30.4389L39.1363 31.3334ZM40.8713 22.3617C39.0299 23.2057 38.0896 24.9424 37.63 26.5662C37.1674 28.2004 37.1354 29.8996 37.2471 30.9882L39.2366 30.7841C39.1452 29.8927 39.1741 28.4544 39.5544 27.1109C39.9375 25.7572 40.6218 24.6761 41.7047 24.1798L40.8713 22.3617ZM42.8111 24.7077C42.6429 24.7077 42.5742 24.6654 42.5433 24.6421C42.5015 24.6107 42.4426 24.5451 42.3868 24.4105C42.2646 24.1161 42.2426 23.6963 42.2803 23.3948L40.2957 23.1467C40.2319 23.6576 40.2404 24.4562 40.5395 25.1771C40.6944 25.5503 40.944 25.9416 41.3407 26.2402C41.7483 26.5469 42.2482 26.7077 42.8111 26.7077V24.7077ZM43.6388 22.0523C43.6388 22.5916 43.5545 23.3812 43.3323 23.9982C43.0837 24.6888 42.8563 24.7077 42.8111 24.7077V26.7077C44.228 26.7077 44.9144 25.5082 45.2141 24.6756C45.5403 23.7696 45.6388 22.7315 45.6388 22.0523H43.6388ZM47.2377 16.284C44.3388 17.7335 43.6388 20.7175 43.6388 22.0523H45.6388C45.6388 21.1533 46.1573 19.0603 48.1321 18.0729L47.2377 16.284ZM48.9034 19.5292C48.6163 19.5292 48.5381 19.453 48.5244 19.4399C48.4949 19.4116 48.4324 19.3282 48.3982 19.1147C48.3249 18.6562 48.4485 18.0047 48.6247 17.5202L46.7451 16.8367C46.5152 17.4691 46.2733 18.493 46.4233 19.4307C46.5009 19.9153 46.6973 20.4601 47.1424 20.8856C47.6034 21.3263 48.2157 21.5292 48.9034 21.5292V19.5292ZM48.5532 23.1577L49.7716 21.0254L48.0351 20.0331L46.8167 22.1654L48.5532 23.1577ZM50.9495 12C50.9495 18.7082 48.2125 21.3141 47.2638 21.7545L48.106 23.5685C50.0005 22.689 52.9495 19.1822 52.9495 12H50.9495ZM55.6049 19.5646C56.4927 17.5671 56.1045 15.7003 55.3191 14.2501C54.5483 12.8269 53.3716 11.7462 52.5042 11.1679L51.3948 12.8321C52.0505 13.2692 52.9757 14.1228 53.5605 15.2025C54.1306 16.2553 54.3516 17.46 53.7773 18.7523L55.6049 19.5646ZM54.6444 21.5981C54.9713 20.9256 55.3053 20.2387 55.6049 19.5646L53.7773 18.7523C53.494 19.3896 53.1755 20.0451 52.8456 20.7237L54.6444 21.5981ZM53.7624 29.7774C53.1853 29.3508 52.8794 28.8855 52.7276 28.3961C52.5706 27.8895 52.5575 27.2862 52.6872 26.5684C52.9535 25.0942 53.76 23.4173 54.6444 21.5981L52.8456 20.7237C51.9987 22.4659 51.0445 24.4111 50.719 26.2128C50.5528 27.1329 50.536 28.081 50.8173 28.9883C51.104 29.9128 51.6784 30.7241 52.5736 31.3857L53.7624 29.7774ZM48.3803 35.1508C48.3803 34.4813 48.935 33.7264 50.091 32.9842C51.1855 32.2814 52.5285 31.7839 53.4225 31.5486L52.9135 29.6145C51.8783 29.8869 50.3275 30.4555 49.0104 31.3012C47.7549 32.1074 46.3803 33.3833 46.3803 35.1508H48.3803ZM45.8426 33.9991L46.4518 35.5222L48.3088 34.7794L47.6996 33.2563L45.8426 33.9991ZM51.0357 36.8923C48.8375 36.8923 48.052 36.2417 47.7657 35.7723C47.4447 35.2461 47.489 34.5351 47.7018 33.9933L45.8403 33.262C45.4947 34.1418 45.2953 35.5631 46.0583 36.8138C46.8558 38.1213 48.4819 38.8923 51.0357 38.8923V36.8923ZM39.9172 49.5538C43.4942 49.5538 46.2623 47.542 48.2203 45.1966C50.178 42.8517 51.4299 40.0585 51.9935 38.1797L50.0779 37.605C49.5754 39.28 48.436 41.8175 46.685 43.9149C44.9344 46.0118 42.6763 47.5538 39.9172 47.5538V49.5538ZM40.9064 48.4589C40.8855 48.3758 40.8892 48.3866 40.8937 48.4139C40.8956 48.4252 40.902 48.4651 40.9042 48.5192C40.9047 48.5308 40.9195 48.7263 40.8237 48.9477C40.7664 49.08 40.6338 49.3024 40.3576 49.4416C40.0712 49.586 39.7977 49.5572 39.631 49.5088C39.3685 49.4326 39.2162 49.267 39.2101 49.261L40.6243 47.8467C40.6122 47.8346 40.455 47.6655 40.1889 47.5882C40.0203 47.5392 39.7452 47.5106 39.4574 47.6556C39.18 47.7955 39.0463 48.0192 38.9882 48.1533C38.8908 48.3784 38.905 48.58 38.9058 48.6C38.9083 48.6625 38.9161 48.713 38.92 48.7371C38.9329 48.8159 38.9584 48.9133 38.967 48.9471L40.9064 48.4589ZM38.6299 53.5878C40.1855 52.9328 40.8524 51.798 41.0454 50.7067C41.2249 49.692 40.9854 48.7726 40.9064 48.4589L38.9669 48.9471C39.044 49.2531 39.1743 49.8027 39.076 50.3584C38.9912 50.8375 38.7327 51.3745 37.8538 51.7445L38.6299 53.5878ZM37.4142 63.1754C37.4142 58.1944 38.6046 54.3122 39.1557 53.0723L37.328 52.26C36.6606 53.7617 35.4142 57.9213 35.4142 63.1754H37.4142ZM39.4973 72.1566C39.1478 71.0831 38.6215 69.3313 38.1839 67.5819C37.7374 65.7975 37.4142 64.1326 37.4142 63.1754H35.4142C35.4142 64.4114 35.8016 66.3004 36.2437 68.0673C36.6945 69.8692 37.2343 71.6662 37.5956 72.7757L39.4973 72.1566ZM39.8434 76.5502C40.01 75.2169 39.8987 73.3894 39.4973 72.1566L37.5956 72.7757C37.8885 73.6752 37.9968 75.1985 37.8588 76.3021L39.8434 76.5502ZM38.5941 81.727C38.9943 80.3266 39.7109 77.6095 39.8434 76.5502L37.8588 76.3021C37.7494 77.1773 37.0833 79.7349 36.6711 81.1776L38.5941 81.727ZM30.6625 105.83L38.5825 81.7649L36.6827 81.1397L28.7627 105.204L30.6625 105.83ZM21.6403 112C27.4423 112 30.0816 107.925 30.6761 105.785L28.7491 105.249C28.3283 106.764 26.3171 110 21.6403 110V112ZM39.6167 46.7523C38.2231 46.0297 34.6996 44.4704 31.9404 44.2076L31.7508 46.1986C34.1091 46.4232 37.3481 47.8288 38.696 48.5278L39.6167 46.7523ZM40.8605 44.218C39.2802 45.9199 38.5447 46.7889 38.3564 47.04L39.9564 48.24C40.0727 48.085 40.7384 47.2887 42.3261 45.5789L40.8605 44.218ZM40.7581 42.5305C41.1191 43.027 41.2514 43.2446 41.2811 43.4301C41.2912 43.4935 41.3275 43.7151 40.8605 44.218L42.3261 45.5789C43.0499 44.7994 43.3955 43.9865 43.256 43.1143C43.136 42.364 42.6597 41.7448 42.3755 41.3541L40.7581 42.5305ZM39.6794 39.8723C39.6794 41.0932 40.3556 41.977 40.7581 42.5305L42.3755 41.3541C41.9228 40.7317 41.6794 40.3512 41.6794 39.8723H39.6794ZM42.1939 35.2783C41.7607 35.6187 41.1531 36.2215 40.646 36.985C40.1425 37.7432 39.6794 38.7488 39.6794 39.8723H41.6794C41.6794 39.29 41.9272 38.671 42.3121 38.0915C42.6935 37.5172 43.152 37.069 43.4296 36.851L42.1939 35.2783ZM39.1297 38.7824C39.4874 38.2938 39.9093 37.7304 40.4783 37.3431C41.0007 36.9876 41.6479 36.7792 42.5441 37.0282L43.0794 35.1011C41.5392 34.6733 40.2913 35.0511 39.353 35.6897C38.4613 36.2966 37.857 37.1351 37.5159 37.601L39.1297 38.7824ZM38.8711 39.1263C38.9552 39.0212 39.0464 38.8962 39.1297 38.7824L37.5159 37.601C37.4242 37.7264 37.3609 37.8124 37.3094 37.8769L38.8711 39.1263ZM38.6521 39.4134C38.7453 39.2892 38.8147 39.1968 38.8711 39.1263L37.3094 37.8768C37.229 37.9773 37.1385 38.0982 37.0518 38.2139L38.6521 39.4134ZM38.654 39.4109L38.6542 39.4107L37.0497 38.2166L37.0495 38.2169L38.654 39.4109ZM33.88 41.0364C34.3507 41.507 34.9216 41.7607 35.546 41.7386C36.127 41.718 36.6205 41.4625 36.9917 41.1964C37.7154 40.6775 38.3183 39.8588 38.652 39.4137L37.0516 38.2141C36.6742 38.7177 36.2531 39.265 35.8264 39.5709C35.6225 39.7171 35.5092 39.7386 35.4751 39.7398C35.4646 39.7402 35.4561 39.7395 35.4398 39.7325C35.4206 39.7243 35.3705 39.6984 35.2942 39.6221L33.88 41.0364ZM33.1308 41.8085C33.0413 41.3609 33.2202 40.9847 33.3836 40.8475C33.448 40.7934 33.4839 40.7936 33.5028 40.7952C33.5278 40.7972 33.6605 40.8169 33.88 41.0364L35.2942 39.6221C34.8283 39.1562 34.2757 38.8522 33.6677 38.802C33.0535 38.7512 32.5088 38.9703 32.0972 39.316C31.3086 39.9784 30.9545 41.1253 31.1696 42.2008L33.1308 41.8085ZM32.7854 45.5448C33.0173 44.907 33.4258 43.2836 33.1308 41.8085L31.1696 42.2008C31.362 43.1626 31.08 44.3822 30.9058 44.8614L32.7854 45.5448ZM30.4172 45.5641C30.0262 45.7987 29.5248 46.2495 29.244 46.9021C28.9384 47.6124 28.9318 48.4843 29.465 49.373L31.18 48.344C31.0707 48.1618 31.0414 48.0291 31.0358 47.9424C31.0302 47.8548 31.0462 47.7737 31.0811 47.6926C31.1608 47.5075 31.3296 47.349 31.4462 47.2791L30.4172 45.5641ZM39.328 48.5384C38.4675 47.4628 36.3031 46.2007 31.0772 45.4322L30.7862 47.4109C35.9173 48.1655 37.4083 49.3403 37.7663 49.7878L39.328 48.5384ZM37.481 52.2954C37.961 52.2954 38.7167 52.1362 39.2392 51.5091C39.8145 50.8187 39.8618 49.871 39.4889 48.8268L37.6054 49.4994C37.724 49.8314 37.7353 50.0313 37.7268 50.1312C37.7227 50.1794 37.7141 50.2051 37.71 50.2151C37.7061 50.2249 37.7034 50.228 37.7028 50.2288C37.7013 50.2305 37.6857 50.2481 37.6364 50.2668C37.5842 50.2866 37.5246 50.2954 37.481 50.2954V52.2954ZM30.0063 49.8072C30.7328 50.0493 35.0734 51.53 37.1578 52.2418L37.8041 50.3491C35.7255 49.6393 31.3744 48.155 30.6387 47.9098L30.0063 49.8072ZM22.6366 99.8581C22.0526 103.128 20.9625 104.811 19.9861 105.637C19.0133 106.46 18.0886 106.496 17.6263 106.376L17.1265 108.313C18.238 108.6 19.8264 108.392 21.2779 107.164C22.7256 105.939 23.9709 103.763 24.6054 100.21L22.6366 99.8581ZM8.57649 94.6276C10.7382 96.9203 13.7073 98.4482 16.4734 99.4337C19.2476 100.422 21.9071 100.897 23.5393 101.031L23.7027 99.0372C22.2379 98.9171 19.7495 98.4779 17.1447 97.5498C14.5317 96.6188 11.8909 95.2274 10.0317 93.2555L8.57649 94.6276ZM8.68021 90.524C8.50884 90.9525 8.28692 91.632 8.17316 92.3102C8.11639 92.6486 8.08 93.0242 8.10573 93.3865C8.13021 93.7311 8.21893 94.1859 8.52321 94.5663L10.0849 93.3169C10.1455 93.3926 10.1124 93.4095 10.1007 93.2448C10.0903 93.0978 10.1034 92.8928 10.1456 92.641C10.2299 92.1388 10.4039 91.5999 10.5372 91.2668L8.68021 90.524ZM13.5319 75.6588L8.65809 90.585L10.5593 91.2058L15.4331 76.2796L13.5319 75.6588ZM18.0028 74.4795C16.969 73.9229 15.9998 73.9053 15.2026 74.1958C14.4485 74.4705 13.9176 74.9943 13.6389 75.4324L15.3262 76.5061C15.4028 76.3858 15.603 76.1785 15.8872 76.075C16.1282 75.9871 16.5043 75.9442 17.0546 76.2405L18.0028 74.4795ZM18.093 74.5281L18.0029 74.4796L17.0545 76.2404L17.1446 76.289L18.093 74.5281ZM17.9605 74.4688L17.9605 74.4688L17.277 76.3483L17.2771 76.3484L17.9605 74.4688ZM28.7173 79.0878C28.8342 78.9041 28.9718 78.9511 28.7561 78.9681C28.5587 78.9835 28.236 78.9547 27.7753 78.85C26.866 78.6434 25.6752 78.2029 24.3975 77.6515C21.8568 76.5552 19.1695 75.1081 18.0931 74.5282L17.1445 76.2889C18.2159 76.8661 20.9743 78.3526 23.6051 79.4878C24.9131 80.0523 26.2394 80.552 27.3322 80.8003C27.8726 80.9231 28.4221 81.0004 28.9124 80.9619C29.3844 80.9249 30.0251 80.758 30.4046 80.1615L28.7173 79.0878ZM30.6496 69.6178C30.6733 69.6248 30.7162 69.6361 30.7795 69.7537C30.8559 69.8956 30.9311 70.1462 30.9631 70.539C31.0273 71.3247 30.8993 72.4007 30.6402 73.5852C30.3848 74.753 30.0176 75.9569 29.6493 76.9697C29.2727 78.0054 28.922 78.7661 28.7173 79.0878L30.4046 80.1615C30.733 79.6455 31.1439 78.7118 31.5289 77.6532C31.9221 76.5718 32.3164 75.2816 32.594 74.0126C32.868 72.7601 33.0447 71.4563 32.9565 70.3763C32.8749 69.3761 32.5095 68.0802 31.2139 67.6991L30.6496 69.6178ZM26.9927 68.7868C28.2865 69.0464 29.6181 69.3145 30.6496 69.6178L31.2139 67.6991C30.0802 67.3657 28.6531 67.0801 27.3862 66.8259L26.9927 68.7868ZM23.9338 68.0905C24.6981 68.3276 25.847 68.5569 26.9927 68.7868L27.3862 66.8259C26.1929 66.5864 25.168 66.3794 24.5266 66.1803L23.9338 68.0905ZM24.8197 65.5239C24.3958 65.5148 23.992 65.506 23.6697 65.5095C23.5085 65.5112 23.3507 65.5161 23.2108 65.5277C23.0988 65.537 22.8984 65.5569 22.709 65.6278C22.6314 65.6569 22.3868 65.753 22.2017 66.0062C22.0941 66.1533 22.0119 66.3479 22.0027 66.5754C21.9938 66.7954 22.0559 66.9762 22.1217 67.1017C22.2381 67.3239 22.4062 67.4513 22.472 67.499C22.5583 67.5614 22.6459 67.6096 22.7169 67.6453C22.9825 67.7788 23.3988 67.9244 23.9338 68.0905L24.5266 66.1803C23.9818 66.0113 23.7142 65.9082 23.6152 65.8584C23.595 65.8483 23.6114 65.8547 23.6452 65.8792C23.6586 65.8889 23.793 65.982 23.8932 66.1734C23.9509 66.2835 24.0094 66.4498 24.0011 66.656C23.9924 66.8698 23.915 67.0515 23.8163 67.1865C23.649 67.4153 23.4385 67.4903 23.4101 67.5009C23.3192 67.5349 23.278 67.529 23.3761 67.5209C23.4465 67.515 23.5498 67.5109 23.6912 67.5094C23.974 67.5063 24.341 67.5141 24.7768 67.5234L24.8197 65.5239ZM28.9239 65.303C28.9989 65.2067 29.0126 65.2655 28.7092 65.3468C28.4509 65.416 28.0929 65.4677 27.6518 65.5001C26.7721 65.5649 25.7293 65.5434 24.8197 65.5239L24.7768 67.5234C25.6641 67.5425 26.8064 67.5678 27.7987 67.4947C28.2937 67.4583 28.7936 67.3948 29.2271 67.2786C29.6156 67.1744 30.1553 66.9775 30.5026 66.5309L28.9239 65.303ZM29.6841 63.46C29.5057 63.958 29.357 64.3726 29.219 64.7083C29.0734 65.0626 28.9757 65.2364 28.9239 65.303L30.5026 66.5309C30.7346 66.2326 30.9172 65.8376 31.0689 65.4686C31.2281 65.0812 31.3936 64.6183 31.567 64.1343L29.6841 63.46ZM32.8924 57.0676C31.2127 59.1673 30.3025 61.7329 29.6841 63.46L31.567 64.1343C32.1995 62.3679 33.014 60.1172 34.4542 58.317L32.8924 57.0676ZM34.5415 67.6002C34.0704 66.5028 33.6803 65.582 33.5902 64.2261C33.4989 62.8517 33.7149 60.9575 34.6291 57.9864L32.7175 57.3982C31.764 60.4971 31.4811 62.651 31.5946 64.3587C31.7093 66.085 32.2277 67.2803 32.7037 68.3892L34.5415 67.6002ZM35.3988 69.9156C35.1506 69.016 34.8285 68.2687 34.5415 67.6002L32.7037 68.3892C32.994 69.0654 33.2636 69.6964 33.4708 70.4475L35.3988 69.9156ZM35.8347 80.8713C36.2075 79.8152 36.3255 77.9426 36.2567 76.0023C36.1862 74.0175 35.9127 71.7783 35.3988 69.9156L33.4708 70.4475C33.9318 72.1184 34.1913 74.1946 34.2579 76.0732C34.3262 77.9965 34.1853 79.5356 33.9488 80.2057L35.8347 80.8713ZM35.7841 81.0148L35.8346 80.8716L33.9489 80.2054L33.8983 80.3486L35.7841 81.0148ZM34.9394 83.707C35.3935 82.1178 35.5219 81.7565 35.784 81.0149L33.8983 80.3484C33.6221 81.13 33.4813 81.5303 33.0164 83.1576L34.9394 83.707ZM29.9025 99.4298C31.3702 94.9257 34.4455 85.4359 34.9394 83.707L33.0164 83.1576C32.5356 84.8404 29.4779 94.2774 28.001 98.8102L29.9025 99.4298ZM16.936 108.242C18.736 109.125 20.4296 109.304 21.9744 108.941C23.5016 108.581 24.7948 107.713 25.8557 106.65C27.9583 104.543 29.3023 101.52 29.9128 99.3963L27.9907 98.8437C27.4335 100.782 26.2188 103.455 24.4401 105.237C23.5603 106.119 22.5822 106.743 21.5161 106.994C20.4675 107.241 19.2457 107.148 17.8168 106.447L16.936 108.242Z" fill="url(#paint1_linear_4149_8183)" mask="url(#path-3-inside-2_4149_8183)"/>
<g filter="url(#filter0_dd_4149_8183)">
<mask id="path-5-inside-3_4149_8183" fill="white">
<path fill-rule="evenodd" clip-rule="evenodd" d="M30.0153 45.2031C29.6092 44.3908 28.7969 42.1874 28.7969 39.8723C28.7969 36.9785 30.6246 33.1708 35.4984 30.2769C35.0415 31.5462 34.5236 34.2369 36.1076 34.8462C35.9553 34.44 35.7421 33.6277 36.1076 33.6277C36.1659 33.6277 36.2341 33.6426 36.3125 33.6596C36.8488 33.7765 37.8638 33.9978 39.4584 30.2769C39.2046 30.1754 38.6055 30.1551 38.2399 30.8862C38.0369 28.9062 38.3618 24.6111 41.2861 23.2708C41.1846 24.0831 41.347 25.7077 42.8092 25.7077C44.2713 25.7077 44.6369 23.2708 44.6369 22.0523C44.6369 20.9354 45.2461 18.3969 47.683 17.1785C47.2769 18.2954 46.952 20.5292 48.9015 20.5292L47.683 22.6615C49.1046 22.0015 51.9476 18.9452 51.9476 12C53.4707 13.0154 56.1513 15.8686 54.6892 19.1585C54.3978 19.8142 54.0715 20.4853 53.7431 21.1609C52.0119 24.7222 50.2216 28.4052 53.1661 30.5815C51.2369 31.0892 47.3784 32.7138 47.3784 35.1508L46.7692 33.6277C46.2107 35.0492 46.2818 37.8923 51.0338 37.8923C49.9676 41.4462 46.2513 48.5538 39.9153 48.5538C36.7119 45.7159 31.9806 45.1375 30.0153 45.2031ZM39.1549 47.64C37.7841 46.9293 34.4029 45.4468 31.8441 45.2031C32.0472 44.6446 32.3924 43.2231 32.1487 42.0046C31.8441 40.4816 33.2149 38.9585 34.5857 40.3293C35.8024 41.546 37.1392 39.7626 37.8503 38.8139C37.9403 38.6938 38.0203 38.5871 38.0887 38.5016C38.1565 38.4168 38.2338 38.3113 38.3213 38.1917C39.0201 37.2372 40.3739 35.3879 42.8103 36.0646C42.0995 36.6231 40.678 38.1665 40.678 39.8723C40.678 40.7222 41.1377 41.3544 41.5653 41.9423C42.2105 42.8295 42.7826 43.6161 41.5918 44.8985C40.0078 46.6043 39.3072 47.4369 39.1549 47.64Z"/>
</mask>
<path fill-rule="evenodd" clip-rule="evenodd" d="M30.0153 45.2031C29.6092 44.3908 28.7969 42.1874 28.7969 39.8723C28.7969 36.9785 30.6246 33.1708 35.4984 30.2769C35.0415 31.5462 34.5236 34.2369 36.1076 34.8462C35.9553 34.44 35.7421 33.6277 36.1076 33.6277C36.1659 33.6277 36.2341 33.6426 36.3125 33.6596C36.8488 33.7765 37.8638 33.9978 39.4584 30.2769C39.2046 30.1754 38.6055 30.1551 38.2399 30.8862C38.0369 28.9062 38.3618 24.6111 41.2861 23.2708C41.1846 24.0831 41.347 25.7077 42.8092 25.7077C44.2713 25.7077 44.6369 23.2708 44.6369 22.0523C44.6369 20.9354 45.2461 18.3969 47.683 17.1785C47.2769 18.2954 46.952 20.5292 48.9015 20.5292L47.683 22.6615C49.1046 22.0015 51.9476 18.9452 51.9476 12C53.4707 13.0154 56.1513 15.8686 54.6892 19.1585C54.3978 19.8142 54.0715 20.4853 53.7431 21.1609C52.0119 24.7222 50.2216 28.4052 53.1661 30.5815C51.2369 31.0892 47.3784 32.7138 47.3784 35.1508L46.7692 33.6277C46.2107 35.0492 46.2818 37.8923 51.0338 37.8923C49.9676 41.4462 46.2513 48.5538 39.9153 48.5538C36.7119 45.7159 31.9806 45.1375 30.0153 45.2031ZM39.1549 47.64C37.7841 46.9293 34.4029 45.4468 31.8441 45.2031C32.0472 44.6446 32.3924 43.2231 32.1487 42.0046C31.8441 40.4816 33.2149 38.9585 34.5857 40.3293C35.8024 41.546 37.1392 39.7626 37.8503 38.8139C37.9403 38.6938 38.0203 38.5871 38.0887 38.5016C38.1565 38.4168 38.2338 38.3113 38.3213 38.1917C39.0201 37.2372 40.3739 35.3879 42.8103 36.0646C42.0995 36.6231 40.678 38.1665 40.678 39.8723C40.678 40.7222 41.1377 41.3544 41.5653 41.9423C42.2105 42.8295 42.7826 43.6161 41.5918 44.8985C40.0078 46.6043 39.3072 47.4369 39.1549 47.64Z" fill="#E2B617"/>
<path d="M30.0153 45.2031L29.1209 45.6503L29.4077 46.2239L30.0487 46.2025L30.0153 45.2031ZM35.4984 30.2769L36.4393 30.6156L37.3827 27.9952L34.9879 29.4171L35.4984 30.2769ZM36.1076 34.8462L35.7487 35.7795L37.8251 36.5781L37.044 34.495L36.1076 34.8462ZM36.3125 33.6596L36.0995 34.6367H36.0995L36.3125 33.6596ZM39.4584 30.2769L40.3776 30.6708L40.7812 29.729L39.8298 29.3484L39.4584 30.2769ZM38.2399 30.8862L37.2452 30.9882L37.5961 34.4099L39.1344 31.3334L38.2399 30.8862ZM41.2861 23.2708L42.2784 23.3948L42.501 21.6139L40.8694 22.3617L41.2861 23.2708ZM47.683 17.1785L48.6228 17.5202L49.4804 15.1617L47.2358 16.284L47.683 17.1785ZM48.9015 20.5292L49.7697 21.0254L50.6247 19.5292H48.9015V20.5292ZM47.683 22.6615L46.8148 22.1654L45.2578 24.89L48.1041 23.5685L47.683 22.6615ZM51.9476 12L52.5023 11.1679L50.9476 10.1315V12H51.9476ZM54.6892 19.1585L55.603 19.5646V19.5646L54.6892 19.1585ZM53.7431 21.1609L54.6425 21.5981V21.5981L53.7431 21.1609ZM53.1661 30.5815L53.4206 31.5486L55.4385 31.0176L53.7605 29.7774L53.1661 30.5815ZM47.3784 35.1508L46.4499 35.5222L48.3784 35.1508H47.3784ZM46.7692 33.6277L47.6977 33.2563L46.7608 30.9142L45.8384 33.262L46.7692 33.6277ZM51.0338 37.8923L51.9916 38.1797L52.3778 36.8923H51.0338V37.8923ZM39.9153 48.5538L39.2522 49.3024L39.5361 49.5538H39.9153V48.5538ZM31.8441 45.2031L30.9043 44.8614L30.4626 46.076L31.7493 46.1986L31.8441 45.2031ZM39.1549 47.64L38.6946 48.5278L39.4466 48.9177L39.9549 48.24L39.1549 47.64ZM32.1487 42.0046L31.1682 42.2008L32.1487 42.0046ZM34.5857 40.3293L35.2928 39.6221V39.6221L34.5857 40.3293ZM37.8503 38.8139L38.6505 39.4137L38.6505 39.4137L37.8503 38.8139ZM38.0887 38.5016L37.3079 37.8769L37.3079 37.8769L38.0887 38.5016ZM38.3213 38.1917L37.5144 37.601H37.5144L38.3213 38.1917ZM42.8103 36.0646L43.4281 36.851L44.982 35.63L43.0779 35.1011L42.8103 36.0646ZM41.5653 41.9423L40.7566 42.5305H40.7566L41.5653 41.9423ZM41.5918 44.8985L40.859 44.218L41.5918 44.8985ZM27.7969 39.8723C27.7969 42.3829 28.6659 44.7402 29.1209 45.6503L30.9098 44.7559C30.5525 44.0413 29.7969 41.9919 29.7969 39.8723H27.7969ZM34.9879 29.4171C29.8783 32.4509 27.7969 36.5533 27.7969 39.8723H29.7969C29.7969 37.4036 31.3708 33.8907 36.009 31.1368L34.9879 29.4171ZM36.4666 33.9128C36.2802 33.8411 36.0478 33.604 36.0376 32.7965C36.0282 32.0469 36.236 31.1804 36.4393 30.6156L34.5575 29.9382C34.3039 30.6427 34.0243 31.7561 34.0378 32.8216C34.0504 33.8291 34.3511 35.242 35.7487 35.7795L36.4666 33.9128ZM36.1076 32.6277C35.8648 32.6277 35.6007 32.7 35.3731 32.8815C35.1576 33.0532 35.0461 33.2659 34.9887 33.429C34.8843 33.7257 34.9013 34.021 34.9189 34.189C34.9581 34.5627 35.0812 34.957 35.1713 35.1973L37.044 34.495C36.9818 34.3292 36.9221 34.1143 36.908 33.9802C36.9051 33.9524 36.9061 33.9453 36.9057 33.955C36.9054 33.9607 36.903 34.0142 36.8753 34.0929C36.8469 34.1736 36.7776 34.3196 36.6198 34.4453C36.4499 34.5808 36.2591 34.6277 36.1076 34.6277V32.6277ZM36.5254 32.6826C36.4826 32.6733 36.297 32.6277 36.1076 32.6277V34.6277C36.0803 34.6277 36.0599 34.626 36.0488 34.6248C36.0376 34.6236 36.0318 34.6226 36.0335 34.6229C36.0353 34.6232 36.0408 34.6242 36.0527 34.6267C36.0585 34.6278 36.0651 34.6292 36.073 34.6309C36.0811 34.6327 36.0895 34.6345 36.0995 34.6367L36.5254 32.6826ZM38.5393 29.883C37.7578 31.7065 37.189 32.3792 36.8836 32.6112C36.8154 32.663 36.7684 32.6864 36.7429 32.6969C36.7186 32.7069 36.7052 32.7087 36.6995 32.7094C36.6819 32.7112 36.6609 32.7121 36.5254 32.6826L36.0995 34.6367C36.2322 34.6656 36.5392 34.738 36.9126 34.698C37.305 34.6559 37.7017 34.5014 38.0936 34.2037C38.8284 33.6453 39.5644 32.5681 40.3776 30.6708L38.5393 29.883ZM39.1344 31.3334C39.1755 31.2511 39.2074 31.2208 39.2139 31.2151C39.2195 31.2101 39.2144 31.2157 39.1993 31.2206C39.1869 31.2246 39.175 31.2258 39.1636 31.2253C39.1578 31.225 39.1499 31.2242 39.1392 31.2219C39.1291 31.2197 39.1116 31.2152 39.087 31.2054L39.8298 29.3484C39.5063 29.2191 39.0523 29.1659 38.5828 29.318C38.0773 29.4818 37.6368 29.8564 37.3455 30.4389L39.1344 31.3334ZM40.8694 22.3617C39.028 23.2057 38.0877 24.9424 37.6281 26.5662C37.1655 28.2004 37.1335 29.8996 37.2452 30.9882L39.2347 30.7841C39.1433 29.8928 39.1722 28.4544 39.5525 27.1109C39.9356 25.7572 40.6199 24.6761 41.7028 24.1798L40.8694 22.3617ZM42.8092 24.7077C42.641 24.7077 42.5723 24.6654 42.5414 24.6421C42.4996 24.6107 42.4407 24.5451 42.3849 24.4105C42.2627 24.1161 42.2407 23.6963 42.2784 23.3948L40.2938 23.1467C40.23 23.6576 40.2385 24.4562 40.5376 25.1772C40.6925 25.5503 40.9421 25.9416 41.3388 26.2402C41.7464 26.5469 42.2463 26.7077 42.8092 26.7077V24.7077ZM43.6369 22.0523C43.6369 22.5916 43.5526 23.3812 43.3304 23.9982C43.0818 24.6888 42.8544 24.7077 42.8092 24.7077V26.7077C44.2261 26.7077 44.9125 25.5082 45.2122 24.6756C45.5384 23.7696 45.6369 22.7315 45.6369 22.0523H43.6369ZM47.2358 16.284C44.3369 17.7335 43.6369 20.7175 43.6369 22.0523H45.6369C45.6369 21.1533 46.1554 19.0603 48.1302 18.0729L47.2358 16.284ZM48.9015 19.5292C48.6144 19.5292 48.5362 19.453 48.5225 19.4399C48.493 19.4116 48.4305 19.3282 48.3963 19.1147C48.323 18.6562 48.4466 18.0047 48.6228 17.5202L46.7432 16.8367C46.5133 17.4691 46.2714 18.493 46.4214 19.4307C46.499 19.9153 46.6954 20.4601 47.1405 20.8856C47.6015 21.3263 48.2138 21.5292 48.9015 21.5292V19.5292ZM48.5513 23.1577L49.7697 21.0254L48.0332 20.0331L46.8148 22.1654L48.5513 23.1577ZM50.9476 12C50.9476 18.7082 48.2106 21.3141 47.2619 21.7545L48.1041 23.5685C49.9986 22.689 52.9476 19.1822 52.9476 12H50.9476ZM55.603 19.5646C56.4908 17.5671 56.1026 15.7003 55.3172 14.2501C54.5464 12.8269 53.3697 11.7462 52.5023 11.1679L51.3929 12.8321C52.0486 13.2692 52.9738 14.1228 53.5586 15.2025C54.1287 16.2553 54.3497 17.46 53.7754 18.7523L55.603 19.5646ZM54.6425 21.5981C54.9694 20.9256 55.3034 20.2387 55.603 19.5646L53.7754 18.7523C53.4921 19.3896 53.1736 20.0451 52.8437 20.7237L54.6425 21.5981ZM53.7605 29.7774C53.1834 29.3508 52.8775 28.8855 52.7257 28.3961C52.5687 27.8895 52.5556 27.2862 52.6853 26.5684C52.9516 25.0942 53.7581 23.4173 54.6425 21.5981L52.8437 20.7237C51.9968 22.4659 51.0426 24.4111 50.7171 26.2128C50.5509 27.1329 50.5341 28.081 50.8154 28.9883C51.1021 29.9128 51.6765 30.7241 52.5717 31.3857L53.7605 29.7774ZM48.3784 35.1508C48.3784 34.4813 48.9331 33.7264 50.0891 32.9842C51.1836 32.2814 52.5266 31.7839 53.4206 31.5486L52.9116 29.6145C51.8764 29.8869 50.3256 30.4555 49.0085 31.3012C47.753 32.1074 46.3784 33.3833 46.3784 35.1508H48.3784ZM45.8407 33.9991L46.4499 35.5222L48.3069 34.7794L47.6977 33.2563L45.8407 33.9991ZM51.0338 36.8923C48.8356 36.8923 48.0501 36.2417 47.7638 35.7723C47.4428 35.2461 47.4871 34.5351 47.6999 33.9933L45.8384 33.262C45.4928 34.1418 45.2934 35.5632 46.0564 36.8138C46.8539 38.1213 48.48 38.8923 51.0338 38.8923V36.8923ZM39.9153 49.5538C43.4923 49.5538 46.2604 47.542 48.2184 45.1966C50.1761 42.8517 51.428 40.0585 51.9916 38.1797L50.076 37.605C49.5735 39.28 48.4341 41.8175 46.6831 43.9149C44.9325 46.0118 42.6744 47.5538 39.9153 47.5538V49.5538ZM30.0487 46.2025C30.9312 46.1731 32.5068 46.2896 34.2416 46.7554C35.9765 47.2213 37.8029 48.0184 39.2522 49.3024L40.5784 47.8053C38.8243 46.2513 36.6833 45.3403 34.7603 44.8239C32.8374 44.3075 31.0647 44.1675 29.982 44.2036L30.0487 46.2025ZM31.7493 46.1986C34.1076 46.4232 37.3466 47.8288 38.6946 48.5278L39.6152 46.7523C38.2216 46.0297 34.6982 44.4704 31.9389 44.2076L31.7493 46.1986ZM31.1682 42.2008C31.3605 43.1626 31.0786 44.3822 30.9043 44.8614L32.7839 45.5448C33.0158 44.907 33.4243 43.2836 33.1293 41.8085L31.1682 42.2008ZM35.2928 39.6221C34.8269 39.1562 34.2742 38.8522 33.6662 38.802C33.052 38.7512 32.5073 38.9703 32.0957 39.316C31.3072 39.9784 30.9531 41.1253 31.1682 42.2008L33.1293 41.8085C33.0398 41.3609 33.2188 40.9847 33.3821 40.8475C33.4465 40.7934 33.4825 40.7936 33.5013 40.7952C33.5263 40.7972 33.6591 40.8169 33.8786 41.0364L35.2928 39.6221ZM37.0501 38.2141C36.6727 38.7177 36.2516 39.265 35.825 39.5709C35.621 39.7171 35.5078 39.7386 35.4736 39.7398C35.4631 39.7402 35.4546 39.7395 35.4383 39.7325C35.4191 39.7243 35.369 39.6984 35.2928 39.6221L33.8786 41.0364C34.3492 41.507 34.9202 41.7607 35.5445 41.7386C36.1255 41.718 36.619 41.4625 36.9903 41.1963C37.7139 40.6775 38.3168 39.8588 38.6505 39.4137L37.0501 38.2141ZM37.3079 37.8769C37.2274 37.9774 37.1369 38.0983 37.0501 38.2141L38.6505 39.4137C38.7437 39.2893 38.8132 39.1968 38.8696 39.1262L37.3079 37.8769ZM37.5144 37.601C37.4227 37.7264 37.3594 37.8124 37.3079 37.8769L38.8696 39.1263C38.9537 39.0212 39.0449 38.8962 39.1282 38.7824L37.5144 37.601ZM43.0779 35.1011C41.5377 34.6733 40.2899 35.0511 39.3516 35.6897C38.4599 36.2966 37.8555 37.1351 37.5144 37.601L39.1282 38.7824C39.4859 38.2938 39.9078 37.7304 40.4768 37.3431C40.9992 36.9876 41.6465 36.7792 42.5426 37.0282L43.0779 35.1011ZM41.678 39.8723C41.678 39.29 41.9257 38.671 42.3106 38.0915C42.692 37.5172 43.1506 37.069 43.4281 36.851L42.1925 35.2783C41.7592 35.6187 41.1516 36.2215 40.6446 36.985C40.141 37.7432 39.678 38.7488 39.678 39.8723H41.678ZM42.374 41.3541C41.9213 40.7317 41.678 40.3512 41.678 39.8723H39.678C39.678 41.0932 40.3541 41.977 40.7566 42.5305L42.374 41.3541ZM42.3246 45.5789C43.0484 44.7994 43.394 43.9865 43.2545 43.1143C43.1345 42.364 42.6582 41.7448 42.374 41.3541L40.7566 42.5305C41.1177 43.027 41.25 43.2446 41.2796 43.4301C41.2898 43.4935 41.326 43.7151 40.859 44.218L42.3246 45.5789ZM39.9549 48.24C40.0712 48.085 40.737 47.2887 42.3246 45.5789L40.859 44.218C39.2787 45.9199 38.5432 46.7889 38.3549 47.04L39.9549 48.24Z" fill="#FDCD24" mask="url(#path-5-inside-3_4149_8183)"/>
</g>
<defs>
<filter id="filter0_dd_4149_8183" x="16.7969" y="0" width="50.3145" height="60.5537" filterUnits="userSpaceOnUse" color-interpolation-filters="sRGB">
<feFlood flood-opacity="0" result="BackgroundImageFix"/>
<feColorMatrix in="SourceAlpha" type="matrix" values="0 0 0 0 0 0 0 0 0 0 0 0 0 0 0 0 0 0 127 0" result="hardAlpha"/>
<feOffset/>
<feGaussianBlur stdDeviation="6"/>
<feComposite in2="hardAlpha" operator="out"/>
<feColorMatrix type="matrix" values="0 0 0 0 0.745833 0 0 0 0 0.164829 0 0 0 0 0.0372917 0 0 0 0.65 0"/>
<feBlend mode="normal" in2="BackgroundImageFix" result="effect1_dropShadow_4149_8183"/>
<feColorMatrix in="SourceAlpha" type="matrix" values="0 0 0 0 0 0 0 0 0 0 0 0 0 0 0 0 0 0 127 0" result="hardAlpha"/>
<feOffset/>
<feGaussianBlur stdDeviation="2"/>
<feComposite in2="hardAlpha" operator="out"/>
<feColorMatrix type="matrix" values="0 0 0 0 0.745098 0 0 0 0 0.164706 0 0 0 0 0.0392157 0 0 0 0.25 0"/>
<feBlend mode="normal" in2="effect1_dropShadow_4149_8183" result="effect2_dropShadow_4149_8183"/>
<feBlend mode="normal" in="SourceGraphic" in2="effect2_dropShadow_4149_8183" result="shape"/>
</filter>
<linearGradient id="paint0_linear_4149_8183" x1="29.467" y1="111.707" x2="29.467" y2="11.2929" gradientUnits="userSpaceOnUse">
<stop stop-color="#1C2230" stop-opacity="0"/>
<stop offset="1" stop-color="#1C2230" stop-opacity="0.35"/>
</linearGradient>
<linearGradient id="paint1_linear_4149_8183" x1="29.467" y1="111.707" x2="29.467" y2="11.2929" gradientUnits="userSpaceOnUse">
<stop stop-color="#1C2230" stop-opacity="0"/>
<stop offset="1" stop-color="#1C2230" stop-opacity="0.35"/>
</linearGradient>
</defs>
</svg>
