<svg viewBox="0 0 28 28" xmlns="http://www.w3.org/2000/svg">
<path d="M3.05536 11.0086C3.06936 11.0133 4.04469 11.3446 4.49736 12.3013C4.84736 13.0526 4.80069 14.0093 4.34802 15.1433C3.75069 16.6506 3.11602 18.3306 2.47202 20.1413C2.21069 20.8833 2.31802 21.6766 2.77069 22.3206C3.22802 22.9646 3.93736 23.3333 4.72602 23.3333H7.98336C8.98203 23.3333 9.85936 22.624 10.0647 21.6486L11.1427 16.604L14.0874 16.562C15.45 16.5433 16.598 15.596 16.8734 14.2613L17.3167 12.1286H23.8314C24.088 12.1286 24.298 11.9186 24.298 11.662V11.438H25.1987C25.46 11.438 25.6654 11.228 25.6654 10.9713V10.626H2.73802C2.76136 10.7986 2.88269 10.9526 3.05536 11.0086ZM12.664 12.1473C12.636 12.796 12.7527 13.818 13.6207 14.3126C13.6954 14.3546 13.77 14.3733 13.8494 14.3733C14.0127 14.3733 14.1714 14.2893 14.2554 14.1353C14.3814 13.9113 14.302 13.6266 14.078 13.5006C13.616 13.2393 13.574 12.5626 13.5974 12.1333H16.36L15.9587 14.0746C15.772 14.98 14.9974 15.6193 14.0734 15.6333L11.3387 15.6753L11.9594 12.782C12.0387 12.432 12.328 12.1846 12.664 12.1473Z" fill="#10AA7C"/>
<path d="M3.05536 11.0086C3.06936 11.0133 4.04469 11.3446 4.49736 12.3013C4.84736 13.0526 4.80069 14.0093 4.34802 15.1433C3.75069 16.6506 3.11602 18.3306 2.47202 20.1413C2.21069 20.8833 2.31802 21.6766 2.77069 22.3206C3.22802 22.9646 3.93736 23.3333 4.72602 23.3333H7.98336C8.98203 23.3333 9.85936 22.624 10.0647 21.6486L11.1427 16.604L14.0874 16.562C15.45 16.5433 16.598 15.596 16.8734 14.2613L17.3167 12.1286H23.8314C24.088 12.1286 24.298 11.9186 24.298 11.662V11.438H25.1987C25.46 11.438 25.6654 11.228 25.6654 10.9713V10.626H2.73802C2.76136 10.7986 2.88269 10.9526 3.05536 11.0086ZM12.664 12.1473C12.636 12.796 12.7527 13.818 13.6207 14.3126C13.6954 14.3546 13.77 14.3733 13.8494 14.3733C14.0127 14.3733 14.1714 14.2893 14.2554 14.1353C14.3814 13.9113 14.302 13.6266 14.078 13.5006C13.616 13.2393 13.574 12.5626 13.5974 12.1333H16.36L15.9587 14.0746C15.772 14.98 14.9974 15.6193 14.0734 15.6333L11.3387 15.6753L11.9594 12.782C12.0387 12.432 12.328 12.1846 12.664 12.1473Z" fill="url(#paint0_linear_4282_5573)"/>
<path d="M25.199 5.4785H23.057V5.13317C23.057 4.8765 22.847 4.6665 22.5903 4.6665C22.3337 4.6665 22.1237 4.8765 22.1237 5.13317V5.4785H5.43567C5.081 5.4785 4.745 5.5765 4.45567 5.74917C4.185 5.46917 3.751 5.23117 3.107 5.27784C2.85033 5.2965 2.65433 5.5205 2.67767 5.77717C2.69633 6.03384 2.925 6.22517 3.177 6.2065C3.50833 6.1785 3.695 6.2905 3.79767 6.39784C3.695 6.56584 3.61567 6.7525 3.569 6.95317L3.22833 8.41384V8.42317L2.92967 9.68784H25.6657V5.9405C25.6657 5.68384 25.4603 5.4785 25.199 5.4785Z" fill="#10AA7C"/>
<path d="M25.199 5.4785H23.057V5.13317C23.057 4.8765 22.847 4.6665 22.5903 4.6665C22.3337 4.6665 22.1237 4.8765 22.1237 5.13317V5.4785H5.43567C5.081 5.4785 4.745 5.5765 4.45567 5.74917C4.185 5.46917 3.751 5.23117 3.107 5.27784C2.85033 5.2965 2.65433 5.5205 2.67767 5.77717C2.69633 6.03384 2.925 6.22517 3.177 6.2065C3.50833 6.1785 3.695 6.2905 3.79767 6.39784C3.695 6.56584 3.61567 6.7525 3.569 6.95317L3.22833 8.41384V8.42317L2.92967 9.68784H25.6657V5.9405C25.6657 5.68384 25.4603 5.4785 25.199 5.4785Z" fill="url(#paint1_linear_4282_5573)"/>
<defs>
<linearGradient id="paint0_linear_4282_5573" x1="18.2896" y1="10.626" x2="18.2896" y2="23.3333" gradientUnits="userSpaceOnUse">
<stop stop-color="#24FDBC" stop-opacity="0"/>
<stop offset="1" stop-color="#24FDBC" stop-opacity="0.65"/>
</linearGradient>
<linearGradient id="paint1_linear_4282_5573" x1="18.3985" y1="4.6665" x2="18.3985" y2="9.68784" gradientUnits="userSpaceOnUse">
<stop stop-color="#24FDBC" stop-opacity="0"/>
<stop offset="1" stop-color="#24FDBC" stop-opacity="0.65"/>
</linearGradient>
</defs>
</svg>
