<svg width="16" height="16" viewBox="0 0 16 16" fill="none" xmlns="http://www.w3.org/2000/svg">
<path d="M14.0471 3.48659C12.9738 3.37992 11.9004 3.29992 10.8204 3.23992V3.23325L10.6738 2.36659C10.5738 1.75325 10.4271 0.833252 8.8671 0.833252H7.12043C5.5671 0.833252 5.42043 1.71325 5.31376 2.35992L5.17376 3.21325C4.55376 3.25325 3.93376 3.29325 3.31376 3.35325L1.95376 3.48659C1.67376 3.51325 1.47376 3.75992 1.50043 4.03325C1.5271 4.30659 1.7671 4.50659 2.0471 4.47992L3.4071 4.34659C6.90043 3.99992 10.4204 4.13325 13.9538 4.48659C13.9738 4.48659 13.9871 4.48659 14.0071 4.48659C14.2604 4.48659 14.4804 4.29325 14.5071 4.03325C14.5271 3.75992 14.3271 3.51325 14.0471 3.48659Z" fill="#60719A"/>
<path d="M12.8192 5.42675C12.6592 5.26008 12.4392 5.16675 12.2125 5.16675H3.78585C3.55918 5.16675 3.33252 5.26008 3.17918 5.42675C3.02585 5.59341 2.93918 5.82008 2.95252 6.05341L3.36585 12.8934C3.43918 13.9067 3.53252 15.1734 5.85918 15.1734H10.1392C12.4658 15.1734 12.5592 13.9134 12.6325 12.8934L13.0458 6.06008C13.0592 5.82008 12.9725 5.59341 12.8192 5.42675ZM9.10585 11.8334H6.88585C6.61252 11.8334 6.38585 11.6067 6.38585 11.3334C6.38585 11.0601 6.61252 10.8334 6.88585 10.8334H9.10585C9.37918 10.8334 9.60585 11.0601 9.60585 11.3334C9.60585 11.6067 9.37918 11.8334 9.10585 11.8334ZM9.66585 9.16675H6.33252C6.05918 9.16675 5.83252 8.94008 5.83252 8.66675C5.83252 8.39341 6.05918 8.16675 6.33252 8.16675H9.66585C9.93918 8.16675 10.1658 8.39341 10.1658 8.66675C10.1658 8.94008 9.93918 9.16675 9.66585 9.16675Z" fill="#60719A"/>
</svg>
