<svg viewBox="0 0 16 16" xmlns="http://www.w3.org/2000/svg">
<g clip-path="url(#clip0_4356_8134)">
<path d="M14.5 2.5H1.5C1.10218 2.5 0.720644 2.65804 0.43934 2.93934C0.158035 3.22064 0 3.60218 0 4L0 12C0 12.3978 0.158035 12.7794 0.43934 13.0607C0.720644 13.342 1.10218 13.5 1.5 13.5H14.5C14.8978 13.5 15.2794 13.342 15.5607 13.0607C15.842 12.7794 16 12.3978 16 12V4C16 3.60218 15.842 3.22064 15.5607 2.93934C15.2794 2.65804 14.8978 2.5 14.5 2.5ZM5 11.5H3C2.86739 11.5 2.74021 11.4473 2.64645 11.3536C2.55268 11.2598 2.5 11.1326 2.5 11C2.5 10.8674 2.55268 10.7402 2.64645 10.6464C2.74021 10.5527 2.86739 10.5 3 10.5H5C5.13261 10.5 5.25979 10.5527 5.35355 10.6464C5.44732 10.7402 5.5 10.8674 5.5 11C5.5 11.1326 5.44732 11.2598 5.35355 11.3536C5.25979 11.4473 5.13261 11.5 5 11.5ZM5.355 8.645C5.40186 8.69148 5.43906 8.74678 5.46445 8.80771C5.48983 8.86864 5.5029 8.93399 5.5029 9C5.5029 9.06601 5.48983 9.13136 5.46445 9.19229C5.43906 9.25322 5.40186 9.30852 5.355 9.355C5.30852 9.40186 5.25322 9.43906 5.19229 9.46445C5.13136 9.48983 5.06601 9.5029 5 9.5029C4.93399 9.5029 4.86864 9.48983 4.80771 9.46445C4.74678 9.43906 4.69148 9.40186 4.645 9.355L4 8.705L3.355 9.355C3.30852 9.40186 3.25322 9.43906 3.19229 9.46445C3.13136 9.48983 3.06601 9.5029 3 9.5029C2.93399 9.5029 2.86864 9.48983 2.80771 9.46445C2.74678 9.43906 2.69148 9.40186 2.645 9.355C2.59814 9.30852 2.56094 9.25322 2.53555 9.19229C2.51017 9.13136 2.4971 9.06601 2.4971 9C2.4971 8.93399 2.51017 8.86864 2.53555 8.80771C2.56094 8.74678 2.59814 8.69148 2.645 8.645L3.295 8L2.645 7.355C2.59838 7.30838 2.5614 7.25304 2.53617 7.19212C2.51094 7.13121 2.49795 7.06593 2.49795 7C2.49795 6.86685 2.55085 6.73915 2.645 6.645C2.73915 6.55085 2.86685 6.49795 3 6.49795C3.13315 6.49795 3.26085 6.55085 3.355 6.645L4 7.295L4.645 6.645C4.73915 6.55085 4.86685 6.49795 5 6.49795C5.13315 6.49795 5.26085 6.55085 5.355 6.645C5.44915 6.73915 5.50205 6.86685 5.50205 7C5.50205 7.13315 5.44915 7.26085 5.355 7.355L4.705 8L5.355 8.645ZM5 5.5H3C2.86739 5.5 2.74021 5.44732 2.64645 5.35355C2.55268 5.25979 2.5 5.13261 2.5 5C2.5 4.86739 2.55268 4.74021 2.64645 4.64645C2.74021 4.55268 2.86739 4.5 3 4.5H5C5.13261 4.5 5.25979 4.55268 5.35355 4.64645C5.44732 4.74021 5.5 4.86739 5.5 5C5.5 5.13261 5.44732 5.25979 5.35355 5.35355C5.25979 5.44732 5.13261 5.5 5 5.5ZM9.355 8.645C9.40186 8.69148 9.43906 8.74678 9.46445 8.80771C9.48983 8.86864 9.5029 8.93399 9.5029 9C9.5029 9.06601 9.48983 9.13136 9.46445 9.19229C9.43906 9.25322 9.40186 9.30852 9.355 9.355C9.30852 9.40186 9.25322 9.43906 9.19229 9.46445C9.13136 9.48983 9.06601 9.5029 9 9.5029C8.93399 9.5029 8.86864 9.48983 8.80771 9.46445C8.74678 9.43906 8.69148 9.40186 8.645 9.355L8 8.705L7.355 9.355C7.30852 9.40186 7.25322 9.43906 7.19229 9.46445C7.13136 9.48983 7.06601 9.5029 7 9.5029C6.93399 9.5029 6.86864 9.48983 6.80771 9.46445C6.74678 9.43906 6.69148 9.40186 6.645 9.355C6.59814 9.30852 6.56094 9.25322 6.53555 9.19229C6.51017 9.13136 6.4971 9.06601 6.4971 9C6.4971 8.93399 6.51017 8.86864 6.53555 8.80771C6.56094 8.74678 6.59814 8.69148 6.645 8.645L7.295 8L6.645 7.355C6.55085 7.26085 6.49795 7.13315 6.49795 7C6.49795 6.86685 6.55085 6.73915 6.645 6.645C6.73915 6.55085 6.86685 6.49795 7 6.49795C7.13315 6.49795 7.26085 6.55085 7.355 6.645L8 7.295L8.645 6.645C8.69162 6.59838 8.74696 6.5614 8.80788 6.53617C8.86879 6.51094 8.93407 6.49795 9 6.49795C9.06593 6.49795 9.13121 6.51094 9.19212 6.53617C9.25304 6.5614 9.30838 6.59838 9.355 6.645C9.40162 6.69162 9.4386 6.74696 9.46383 6.80788C9.48906 6.86879 9.50205 6.93407 9.50205 7C9.50205 7.06593 9.48906 7.13121 9.46383 7.19212C9.4386 7.25304 9.40162 7.30838 9.355 7.355L8.705 8L9.355 8.645ZM13.355 8.645C13.4019 8.69148 13.4391 8.74678 13.4644 8.80771C13.4898 8.86864 13.5029 8.93399 13.5029 9C13.5029 9.06601 13.4898 9.13136 13.4644 9.19229C13.4391 9.25322 13.4019 9.30852 13.355 9.355C13.3085 9.40186 13.2532 9.43906 13.1923 9.46445C13.1314 9.48983 13.066 9.5029 13 9.5029C12.934 9.5029 12.8686 9.48983 12.8077 9.46445C12.7468 9.43906 12.6915 9.40186 12.645 9.355L12 8.705L11.355 9.355C11.3085 9.40186 11.2532 9.43906 11.1923 9.46445C11.1314 9.48983 11.066 9.5029 11 9.5029C10.934 9.5029 10.8686 9.48983 10.8077 9.46445C10.7468 9.43906 10.6915 9.40186 10.645 9.355C10.5981 9.30852 10.5609 9.25322 10.5356 9.19229C10.5102 9.13136 10.4971 9.06601 10.4971 9C10.4971 8.93399 10.5102 8.86864 10.5356 8.80771C10.5609 8.74678 10.5981 8.69148 10.645 8.645L11.295 8L10.645 7.355C10.5984 7.30838 10.5614 7.25304 10.5362 7.19212C10.5109 7.13121 10.498 7.06593 10.498 7C10.498 6.86685 10.5508 6.73915 10.645 6.645C10.7392 6.55085 10.8668 6.49795 11 6.49795C11.0659 6.49795 11.1312 6.51094 11.1921 6.53617C11.253 6.5614 11.3084 6.59838 11.355 6.645L12 7.295L12.645 6.645C12.6916 6.59838 12.747 6.5614 12.8079 6.53617C12.8688 6.51094 12.9341 6.49795 13 6.49795C13.0659 6.49795 13.1312 6.51094 13.1921 6.53617C13.253 6.5614 13.3084 6.59838 13.355 6.645C13.4016 6.69162 13.4386 6.74696 13.4638 6.80788C13.4891 6.86879 13.502 6.93407 13.502 7C13.502 7.06593 13.4891 7.13121 13.4638 7.19212C13.4386 7.25304 13.4016 7.30838 13.355 7.355L12.705 8L13.355 8.645Z"/>
</g>
<defs>
<clipPath id="clip0_4356_8134">
<rect width="16" height="16" fill="white"/>
</clipPath>
</defs>
</svg>
