<svg width="15" height="19" viewBox="0 0 15 19" fill="none" xmlns="http://www.w3.org/2000/svg">
<path d="M15 12.3457V9.49747H13.125V6.70499C13.125 5.6255 12.26 4.74873 11.195 4.74873H8.44V3.53748C9 3.20806 9.38 2.59989 9.38 1.90051C9.38 0.851427 8.54 0 7.505 0C6.47 0 5.63 0.851427 5.63 1.90051C5.63 2.59989 6.01 3.20806 6.57 3.53748V4.74873H3.815C2.75 4.74873 1.885 5.6255 1.885 6.70499V9.49747H0V12.3508H1.875V17.0995H0V19H15V17.0995H13.125V12.3457H15ZM3.75 9.00587C3.75 8.22033 4.38 7.58682 5.155 7.58682C5.93 7.58682 6.56 8.22539 6.56 9.01094C6.56 9.79648 5.93 10.435 5.155 10.435C4.38 10.435 3.75 9.79141 3.75 9.00587ZM10.315 15.199H4.69V13.2985H10.315V15.199ZM9.84 10.435C9.065 10.435 8.435 9.79648 8.435 9.01094C8.44 8.22033 9.065 7.58682 9.84 7.58682C10.615 7.58682 11.245 8.22539 11.245 9.01094C11.245 9.79648 10.615 10.435 9.84 10.435Z" fill="#60719A"/>
</svg>
