<svg width="16" height="16" viewBox="0 0 16 16" xmlns="http://www.w3.org/2000/svg">
<path d="M7.9987 1.33337C4.3187 1.33337 1.33203 4.32004 1.33203 8.00004C1.33203 11.68 4.3187 14.6667 7.9987 14.6667C11.6787 14.6667 14.6654 11.68 14.6654 8.00004C14.6654 4.32004 11.6787 1.33337 7.9987 1.33337ZM7.9987 13.1667C5.15203 13.1667 2.83203 10.8467 2.83203 8.00004C2.83203 7.09337 3.07203 6.20671 3.5187 5.42671C3.65203 5.18671 3.9587 5.10671 4.1987 5.24004L8.24536 7.56671C8.48536 7.70671 8.56536 8.00671 8.43203 8.24671C8.29203 8.48671 7.99203 8.56671 7.75203 8.43337L4.1587 6.37337C3.94536 6.88671 3.83203 7.44004 3.83203 8.00004C3.83203 10.3 5.6987 12.1667 7.9987 12.1667C10.2987 12.1667 12.1654 10.3 12.1654 8.00004C12.1654 5.70004 10.2987 3.83337 7.9987 3.83337C7.09203 3.83337 6.22536 4.12004 5.4987 4.66671C5.2787 4.83337 4.96536 4.78671 4.7987 4.56671C4.63203 4.34671 4.6787 4.03337 4.8987 3.86671C5.7987 3.19337 6.87203 2.83337 7.9987 2.83337C10.8454 2.83337 13.1654 5.15337 13.1654 8.00004C13.1654 10.8467 10.8454 13.1667 7.9987 13.1667Z"/>
</svg>
