<svg width="30" height="30" viewBox="0 0 30 30" fill="none" xmlns="http://www.w3.org/2000/svg">
<rect width="30" height="30" rx="8" fill="url(#paint0_linear_4193_5224)"/>
<rect x="0.5" y="0.5" width="29" height="29" rx="7.5" stroke="#10AA7C" stroke-opacity="0.15"/>
<rect x="0.5" y="0.5" width="29" height="29" rx="7.5" stroke="url(#paint1_linear_4193_5224)" stroke-opacity="0.15"/>
<path d="M18.1425 7.5H11.8575C9.1275 7.5 7.5 9.1275 7.5 11.8575V18.135C7.5 20.8725 9.1275 22.5 11.8575 22.5H18.135C20.865 22.5 22.4925 20.8725 22.4925 18.1425V11.8575C22.5 9.1275 20.8725 7.5 18.1425 7.5ZM12.135 18.5775C12.12 18.5775 12.0975 18.5775 12.0825 18.5775C11.355 18.51 10.6725 18.1725 10.1625 17.6325C8.9625 16.3725 8.9625 14.325 10.1625 13.065L11.805 11.34C12.39 10.725 13.1775 10.38 14.0175 10.38C14.8575 10.38 15.645 10.7175 16.23 11.34C17.43 12.6 17.43 14.6475 16.23 15.9075L15.4125 16.77C15.195 16.995 14.8425 17.0025 14.6175 16.7925C14.3925 16.575 14.385 16.2225 14.595 15.9975L15.4125 15.135C16.2075 14.3025 16.2075 12.945 15.4125 12.12C14.67 11.34 13.365 11.34 12.615 12.12L10.9725 13.845C10.1775 14.6775 10.1775 16.035 10.9725 16.86C11.295 17.205 11.73 17.415 12.1875 17.46C12.495 17.49 12.72 17.7675 12.69 18.075C12.6675 18.36 12.42 18.5775 12.135 18.5775ZM19.8375 16.9425L18.195 18.6675C17.61 19.2825 16.8225 19.6275 15.9825 19.6275C15.1425 19.6275 14.355 19.29 13.77 18.6675C12.57 17.4075 12.57 15.36 13.77 14.1L14.5875 13.2375C14.805 13.0125 15.1575 13.005 15.3825 13.215C15.6075 13.4325 15.615 13.785 15.405 14.01L14.5875 14.8725C13.7925 15.705 13.7925 17.0625 14.5875 17.8875C15.33 18.6675 16.635 18.675 17.385 17.8875L19.0275 16.1625C19.8225 15.33 19.8225 13.9725 19.0275 13.1475C18.705 12.8025 18.27 12.5925 17.8125 12.5475C17.505 12.5175 17.28 12.24 17.31 11.9325C17.34 11.625 17.61 11.3925 17.925 11.43C18.6525 11.505 19.335 11.835 19.845 12.375C21.0375 13.6275 21.0375 15.6825 19.8375 16.9425Z" fill="#10AA7C"/>
<path d="M18.1425 7.5H11.8575C9.1275 7.5 7.5 9.1275 7.5 11.8575V18.135C7.5 20.8725 9.1275 22.5 11.8575 22.5H18.135C20.865 22.5 22.4925 20.8725 22.4925 18.1425V11.8575C22.5 9.1275 20.8725 7.5 18.1425 7.5ZM12.135 18.5775C12.12 18.5775 12.0975 18.5775 12.0825 18.5775C11.355 18.51 10.6725 18.1725 10.1625 17.6325C8.9625 16.3725 8.9625 14.325 10.1625 13.065L11.805 11.34C12.39 10.725 13.1775 10.38 14.0175 10.38C14.8575 10.38 15.645 10.7175 16.23 11.34C17.43 12.6 17.43 14.6475 16.23 15.9075L15.4125 16.77C15.195 16.995 14.8425 17.0025 14.6175 16.7925C14.3925 16.575 14.385 16.2225 14.595 15.9975L15.4125 15.135C16.2075 14.3025 16.2075 12.945 15.4125 12.12C14.67 11.34 13.365 11.34 12.615 12.12L10.9725 13.845C10.1775 14.6775 10.1775 16.035 10.9725 16.86C11.295 17.205 11.73 17.415 12.1875 17.46C12.495 17.49 12.72 17.7675 12.69 18.075C12.6675 18.36 12.42 18.5775 12.135 18.5775ZM19.8375 16.9425L18.195 18.6675C17.61 19.2825 16.8225 19.6275 15.9825 19.6275C15.1425 19.6275 14.355 19.29 13.77 18.6675C12.57 17.4075 12.57 15.36 13.77 14.1L14.5875 13.2375C14.805 13.0125 15.1575 13.005 15.3825 13.215C15.6075 13.4325 15.615 13.785 15.405 14.01L14.5875 14.8725C13.7925 15.705 13.7925 17.0625 14.5875 17.8875C15.33 18.6675 16.635 18.675 17.385 17.8875L19.0275 16.1625C19.8225 15.33 19.8225 13.9725 19.0275 13.1475C18.705 12.8025 18.27 12.5925 17.8125 12.5475C17.505 12.5175 17.28 12.24 17.31 11.9325C17.34 11.625 17.61 11.3925 17.925 11.43C18.6525 11.505 19.335 11.835 19.845 12.375C21.0375 13.6275 21.0375 15.6825 19.8375 16.9425Z" fill="url(#paint2_linear_4193_5224)"/>
<defs>
<linearGradient id="paint0_linear_4193_5224" x1="37.5" y1="-7.5" x2="-7.5" y2="37.5" gradientUnits="userSpaceOnUse">
<stop stop-color="#12AF80" stop-opacity="0.45"/>
<stop offset="0.5" stop-color="#12B081" stop-opacity="0.05"/>
<stop offset="1" stop-color="#11AE7F" stop-opacity="0.45"/>
</linearGradient>
<linearGradient id="paint1_linear_4193_5224" x1="20.5169" y1="0" x2="20.5169" y2="30" gradientUnits="userSpaceOnUse">
<stop stop-color="#24FDBC" stop-opacity="0"/>
<stop offset="1" stop-color="#24FDBC" stop-opacity="0.65"/>
</linearGradient>
<linearGradient id="paint2_linear_4193_5224" x1="17.7534" y1="7.5" x2="17.7534" y2="22.5" gradientUnits="userSpaceOnUse">
<stop stop-color="#24FDBC" stop-opacity="0"/>
<stop offset="1" stop-color="#24FDBC" stop-opacity="0.65"/>
</linearGradient>
</defs>
</svg>
