<svg width="16" height="20" viewBox="0 0 16 20" fill="none" xmlns="http://www.w3.org/2000/svg">
<mask id="path-1-inside-1_2358_1182" fill="white">
<path fill-rule="evenodd" clip-rule="evenodd" d="M0.32698 1.63803C0 2.27976 0 3.11984 0 4.8V15.2C0 16.8802 0 17.7202 0.32698 18.362C0.614601 18.9265 1.07354 19.3854 1.63803 19.673C2.27976 20 3.11984 20 4.8 20H11.2C12.8802 20 13.7202 20 14.362 19.673C14.9265 19.3854 15.3854 18.9265 15.673 18.362C16 17.7202 16 16.8802 16 15.2V7.8C16 7.51997 16 7.37996 15.9455 7.273C15.8976 7.17892 15.8211 7.10243 15.727 7.0545C15.62 7 15.48 7 15.2 7H13C10.7909 7 9 5.20914 9 3V0.8C9 0.519974 9 0.379961 8.9455 0.273005C8.89757 0.178924 8.82108 0.102433 8.727 0.0544967C8.62004 0 8.48003 0 8.2 0H4.8C3.11984 0 2.27976 0 1.63803 0.32698C1.07354 0.614601 0.614601 1.07354 0.32698 1.63803ZM7 15C7 14.4477 7.44772 14 8 14C8.55229 14 9 14.4477 9 15C9 15.5523 8.55229 16 8 16C7.44772 16 7 15.5523 7 15ZM9 9C9 8.44771 8.55229 8 8 8C7.44772 8 7 8.44771 7 9V11C7 11.5523 7.44772 12 8 12C8.55229 12 9 11.5523 9 11V9Z"/>
<path d="M11 0.707107C11 0.316582 11.3166 0 11.7071 0C11.8946 0 12.0745 0.0744986 12.2071 0.207107L15.7929 3.79289C15.9255 3.9255 16 4.10536 16 4.29289C16 4.68342 15.6834 5 15.2929 5H13C11.8954 5 11 4.10457 11 3V0.707107Z"/>
</mask>
<path fill-rule="evenodd" clip-rule="evenodd" d="M0.32698 1.63803C0 2.27976 0 3.11984 0 4.8V15.2C0 16.8802 0 17.7202 0.32698 18.362C0.614601 18.9265 1.07354 19.3854 1.63803 19.673C2.27976 20 3.11984 20 4.8 20H11.2C12.8802 20 13.7202 20 14.362 19.673C14.9265 19.3854 15.3854 18.9265 15.673 18.362C16 17.7202 16 16.8802 16 15.2V7.8C16 7.51997 16 7.37996 15.9455 7.273C15.8976 7.17892 15.8211 7.10243 15.727 7.0545C15.62 7 15.48 7 15.2 7H13C10.7909 7 9 5.20914 9 3V0.8C9 0.519974 9 0.379961 8.9455 0.273005C8.89757 0.178924 8.82108 0.102433 8.727 0.0544967C8.62004 0 8.48003 0 8.2 0H4.8C3.11984 0 2.27976 0 1.63803 0.32698C1.07354 0.614601 0.614601 1.07354 0.32698 1.63803ZM7 15C7 14.4477 7.44772 14 8 14C8.55229 14 9 14.4477 9 15C9 15.5523 8.55229 16 8 16C7.44772 16 7 15.5523 7 15ZM9 9C9 8.44771 8.55229 8 8 8C7.44772 8 7 8.44771 7 9V11C7 11.5523 7.44772 12 8 12C8.55229 12 9 11.5523 9 11V9Z" fill="#12131A"/>
<path fill-rule="evenodd" clip-rule="evenodd" d="M0.32698 1.63803C0 2.27976 0 3.11984 0 4.8V15.2C0 16.8802 0 17.7202 0.32698 18.362C0.614601 18.9265 1.07354 19.3854 1.63803 19.673C2.27976 20 3.11984 20 4.8 20H11.2C12.8802 20 13.7202 20 14.362 19.673C14.9265 19.3854 15.3854 18.9265 15.673 18.362C16 17.7202 16 16.8802 16 15.2V7.8C16 7.51997 16 7.37996 15.9455 7.273C15.8976 7.17892 15.8211 7.10243 15.727 7.0545C15.62 7 15.48 7 15.2 7H13C10.7909 7 9 5.20914 9 3V0.8C9 0.519974 9 0.379961 8.9455 0.273005C8.89757 0.178924 8.82108 0.102433 8.727 0.0544967C8.62004 0 8.48003 0 8.2 0H4.8C3.11984 0 2.27976 0 1.63803 0.32698C1.07354 0.614601 0.614601 1.07354 0.32698 1.63803ZM7 15C7 14.4477 7.44772 14 8 14C8.55229 14 9 14.4477 9 15C9 15.5523 8.55229 16 8 16C7.44772 16 7 15.5523 7 15ZM9 9C9 8.44771 8.55229 8 8 8C7.44772 8 7 8.44771 7 9V11C7 11.5523 7.44772 12 8 12C8.55229 12 9 11.5523 9 11V9Z" fill="#D1D9EB"/>
<path fill-rule="evenodd" clip-rule="evenodd" d="M0.32698 1.63803C0 2.27976 0 3.11984 0 4.8V15.2C0 16.8802 0 17.7202 0.32698 18.362C0.614601 18.9265 1.07354 19.3854 1.63803 19.673C2.27976 20 3.11984 20 4.8 20H11.2C12.8802 20 13.7202 20 14.362 19.673C14.9265 19.3854 15.3854 18.9265 15.673 18.362C16 17.7202 16 16.8802 16 15.2V7.8C16 7.51997 16 7.37996 15.9455 7.273C15.8976 7.17892 15.8211 7.10243 15.727 7.0545C15.62 7 15.48 7 15.2 7H13C10.7909 7 9 5.20914 9 3V0.8C9 0.519974 9 0.379961 8.9455 0.273005C8.89757 0.178924 8.82108 0.102433 8.727 0.0544967C8.62004 0 8.48003 0 8.2 0H4.8C3.11984 0 2.27976 0 1.63803 0.32698C1.07354 0.614601 0.614601 1.07354 0.32698 1.63803ZM7 15C7 14.4477 7.44772 14 8 14C8.55229 14 9 14.4477 9 15C9 15.5523 8.55229 16 8 16C7.44772 16 7 15.5523 7 15ZM9 9C9 8.44771 8.55229 8 8 8C7.44772 8 7 8.44771 7 9V11C7 11.5523 7.44772 12 8 12C8.55229 12 9 11.5523 9 11V9Z" fill="url(#paint0_linear_2358_1182)"/>
<path d="M11 0.707107C11 0.316582 11.3166 0 11.7071 0C11.8946 0 12.0745 0.0744986 12.2071 0.207107L15.7929 3.79289C15.9255 3.9255 16 4.10536 16 4.29289C16 4.68342 15.6834 5 15.2929 5H13C11.8954 5 11 4.10457 11 3V0.707107Z" fill="#12131A"/>
<path d="M11 0.707107C11 0.316582 11.3166 0 11.7071 0C11.8946 0 12.0745 0.0744986 12.2071 0.207107L15.7929 3.79289C15.9255 3.9255 16 4.10536 16 4.29289C16 4.68342 15.6834 5 15.2929 5H13C11.8954 5 11 4.10457 11 3V0.707107Z" fill="#D1D9EB"/>
<path d="M11 0.707107C11 0.316582 11.3166 0 11.7071 0C11.8946 0 12.0745 0.0744986 12.2071 0.207107L15.7929 3.79289C15.9255 3.9255 16 4.10536 16 4.29289C16 4.68342 15.6834 5 15.2929 5H13C11.8954 5 11 4.10457 11 3V0.707107Z" fill="url(#paint1_linear_2358_1182)"/>
<path d="M0.32698 1.63803L1.21799 2.09202L0.32698 1.63803ZM0.32698 18.362L1.21799 17.908L1.21799 17.908L0.32698 18.362ZM1.63803 19.673L1.18404 20.564H1.18404L1.63803 19.673ZM14.362 19.673L14.816 20.564H14.816L14.362 19.673ZM15.673 18.362L14.782 17.908L14.782 17.908L15.673 18.362ZM1.63803 0.32698L2.09202 1.21799L1.63803 0.32698ZM8.9455 0.273005L8.0545 0.726995L8.9455 0.273005ZM8.727 0.0544967L8.273 0.945503L8.727 0.0544967ZM15.9455 7.273L15.0545 7.72699L15.9455 7.273ZM15.727 7.0545L15.273 7.9455L15.727 7.0545ZM15.7929 3.79289L16.5 3.08579L15.7929 3.79289ZM12.2071 0.207107L11.5 0.914214L12.2071 0.207107ZM1 4.8C1 3.94342 1.00078 3.36113 1.03755 2.91104C1.07337 2.47262 1.1383 2.24842 1.21799 2.09202L-0.564026 1.18404C-0.811317 1.66937 -0.909881 2.18608 -0.955806 2.74817C-1.00078 3.2986 -1 3.97642 -1 4.8H1ZM1 15.2V4.8H-1V15.2H1ZM1.21799 17.908C1.1383 17.7516 1.07337 17.5274 1.03755 17.089C1.00078 16.6389 1 16.0566 1 15.2H-1C-1 16.0236 -1.00078 16.7014 -0.955806 17.2518C-0.909881 17.8139 -0.811317 18.3306 -0.564026 18.816L1.21799 17.908ZM2.09202 18.782C1.71569 18.5903 1.40973 18.2843 1.21799 17.908L-0.564026 18.816C-0.180533 19.5686 0.43139 20.1805 1.18404 20.564L2.09202 18.782ZM4.8 19C3.94342 19 3.36113 18.9992 2.91104 18.9624C2.47262 18.9266 2.24842 18.8617 2.09202 18.782L1.18404 20.564C1.66937 20.8113 2.18608 20.9099 2.74817 20.9558C3.2986 21.0008 3.97642 21 4.8 21V19ZM11.2 19H4.8V21H11.2V19ZM13.908 18.782C13.7516 18.8617 13.5274 18.9266 13.089 18.9624C12.6389 18.9992 12.0566 19 11.2 19V21C12.0236 21 12.7014 21.0008 13.2518 20.9558C13.8139 20.9099 14.3306 20.8113 14.816 20.564L13.908 18.782ZM14.782 17.908C14.5903 18.2843 14.2843 18.5903 13.908 18.782L14.816 20.564C15.5686 20.1805 16.1805 19.5686 16.564 18.816L14.782 17.908ZM15 15.2C15 16.0566 14.9992 16.6389 14.9624 17.089C14.9266 17.5274 14.8617 17.7516 14.782 17.908L16.564 18.816C16.8113 18.3306 16.9099 17.8139 16.9558 17.2518C17.0008 16.7014 17 16.0236 17 15.2H15ZM15 7.8V15.2H17V7.8H15ZM13 8H15.2V6H13V8ZM8 3C8 5.76142 10.2386 8 13 8V6C11.3431 6 10 4.65685 10 3H8ZM8 0.8V3H10V0.8H8ZM4.8 1H8.2V-1H4.8V1ZM2.09202 1.21799C2.24842 1.1383 2.47262 1.07337 2.91104 1.03755C3.36113 1.00078 3.94342 1 4.8 1V-1C3.97642 -1 3.2986 -1.00078 2.74817 -0.955806C2.18608 -0.909881 1.66937 -0.811317 1.18404 -0.564026L2.09202 1.21799ZM1.21799 2.09202C1.40973 1.71569 1.71569 1.40973 2.09202 1.21799L1.18404 -0.564026C0.43139 -0.180533 -0.180533 0.43139 -0.564026 1.18404L1.21799 2.09202ZM8 13C6.89543 13 6 13.8954 6 15H8V13ZM10 15C10 13.8954 9.10457 13 8 13V15H10ZM8 17C9.10457 17 10 16.1046 10 15H8V17ZM6 15C6 16.1046 6.89543 17 8 17V15H6ZM8 9H10C10 7.89543 9.10457 7 8 7V9ZM8 9V7C6.89543 7 6 7.89543 6 9H8ZM8 11V9H6V11H8ZM8 11H6C6 12.1046 6.89543 13 8 13V11ZM8 11V13C9.10457 13 10 12.1046 10 11H8ZM8 9V11H10V9H8ZM10 0.8C10 0.676488 10.0008 0.523712 9.98987 0.390169C9.978 0.244952 9.94756 0.03696 9.83651 -0.180986L8.0545 0.726995C8.02682 0.672669 8.01165 0.624347 8.00364 0.590317C7.99637 0.559459 7.99571 0.543258 7.99651 0.553033C7.99734 0.563194 7.99857 0.585538 7.99927 0.630277C7.99997 0.674988 8 0.72771 8 0.8H10ZM8.2 1C8.27229 1 8.32501 1.00003 8.36972 1.00073C8.41446 1.00143 8.43681 1.00266 8.44697 1.00349C8.45674 1.00429 8.44054 1.00363 8.40968 0.996364C8.37565 0.98835 8.32733 0.973184 8.273 0.945503L9.18099 -0.83651C8.96304 -0.947559 8.75505 -0.978002 8.60983 -0.989867C8.47629 -1.00078 8.32351 -1 8.2 -1V1ZM9.83651 -0.180986C9.6927 -0.463228 9.46323 -0.692699 9.18099 -0.83651L8.273 0.945503C8.17892 0.897566 8.10243 0.821075 8.0545 0.726995L9.83651 -0.180986ZM17 7.8C17 7.67649 17.0008 7.52371 16.9899 7.39017C16.978 7.24495 16.9476 7.03696 16.8365 6.81901L15.0545 7.72699C15.0268 7.67267 15.0117 7.62435 15.0036 7.59032C14.9964 7.55946 14.9957 7.54326 14.9965 7.55303C14.9973 7.56319 14.9986 7.58554 14.9993 7.63028C15 7.67499 15 7.72771 15 7.8H17ZM15.2 8C15.2723 8 15.325 8.00003 15.3697 8.00073C15.4145 8.00143 15.4368 8.00266 15.447 8.00349C15.4567 8.00429 15.4405 8.00363 15.4097 7.99636C15.3757 7.98835 15.3273 7.97318 15.273 7.9455L16.181 6.16349C15.963 6.05244 15.755 6.022 15.6098 6.01013C15.4763 5.99922 15.3235 6 15.2 6V8ZM16.8365 6.81901C16.6927 6.53677 16.4632 6.3073 16.181 6.16349L15.273 7.9455C15.1789 7.89757 15.1024 7.82108 15.0545 7.72699L16.8365 6.81901ZM15.2929 4H13V6H15.2929V4ZM12 3V0.707107H10V3H12ZM11.5 0.914214L15.0858 4.5L16.5 3.08579L12.9142 -0.5L11.5 0.914214ZM15.0858 4.5C15.0309 4.44507 15 4.37057 15 4.29289H17C17 3.84014 16.8201 3.40593 16.5 3.08579L15.0858 4.5ZM13 4C12.4477 4 12 3.55228 12 3H10C10 4.65685 11.3431 6 13 6V4ZM15.2929 6C16.2357 6 17 5.2357 17 4.29289H15C15 4.13113 15.1311 4 15.2929 4V6ZM11.7071 1C11.6294 1 11.5549 0.969142 11.5 0.914214L12.9142 -0.5C12.5941 -0.820145 12.1599 -1 11.7071 -1V1ZM11.7071 -1C10.7643 -1 10 -0.235702 10 0.707107H12C12 0.868867 11.8689 1 11.7071 1V-1Z" fill="#EDF2FF" mask="url(#path-1-inside-1_2358_1182)"/>
<path d="M0.32698 1.63803L1.21799 2.09202L0.32698 1.63803ZM0.32698 18.362L1.21799 17.908L1.21799 17.908L0.32698 18.362ZM1.63803 19.673L1.18404 20.564H1.18404L1.63803 19.673ZM14.362 19.673L14.816 20.564H14.816L14.362 19.673ZM15.673 18.362L14.782 17.908L14.782 17.908L15.673 18.362ZM1.63803 0.32698L2.09202 1.21799L1.63803 0.32698ZM8.9455 0.273005L8.0545 0.726995L8.9455 0.273005ZM8.727 0.0544967L8.273 0.945503L8.727 0.0544967ZM15.9455 7.273L15.0545 7.72699L15.9455 7.273ZM15.727 7.0545L15.273 7.9455L15.727 7.0545ZM15.7929 3.79289L16.5 3.08579L15.7929 3.79289ZM12.2071 0.207107L11.5 0.914214L12.2071 0.207107ZM1 4.8C1 3.94342 1.00078 3.36113 1.03755 2.91104C1.07337 2.47262 1.1383 2.24842 1.21799 2.09202L-0.564026 1.18404C-0.811317 1.66937 -0.909881 2.18608 -0.955806 2.74817C-1.00078 3.2986 -1 3.97642 -1 4.8H1ZM1 15.2V4.8H-1V15.2H1ZM1.21799 17.908C1.1383 17.7516 1.07337 17.5274 1.03755 17.089C1.00078 16.6389 1 16.0566 1 15.2H-1C-1 16.0236 -1.00078 16.7014 -0.955806 17.2518C-0.909881 17.8139 -0.811317 18.3306 -0.564026 18.816L1.21799 17.908ZM2.09202 18.782C1.71569 18.5903 1.40973 18.2843 1.21799 17.908L-0.564026 18.816C-0.180533 19.5686 0.43139 20.1805 1.18404 20.564L2.09202 18.782ZM4.8 19C3.94342 19 3.36113 18.9992 2.91104 18.9624C2.47262 18.9266 2.24842 18.8617 2.09202 18.782L1.18404 20.564C1.66937 20.8113 2.18608 20.9099 2.74817 20.9558C3.2986 21.0008 3.97642 21 4.8 21V19ZM11.2 19H4.8V21H11.2V19ZM13.908 18.782C13.7516 18.8617 13.5274 18.9266 13.089 18.9624C12.6389 18.9992 12.0566 19 11.2 19V21C12.0236 21 12.7014 21.0008 13.2518 20.9558C13.8139 20.9099 14.3306 20.8113 14.816 20.564L13.908 18.782ZM14.782 17.908C14.5903 18.2843 14.2843 18.5903 13.908 18.782L14.816 20.564C15.5686 20.1805 16.1805 19.5686 16.564 18.816L14.782 17.908ZM15 15.2C15 16.0566 14.9992 16.6389 14.9624 17.089C14.9266 17.5274 14.8617 17.7516 14.782 17.908L16.564 18.816C16.8113 18.3306 16.9099 17.8139 16.9558 17.2518C17.0008 16.7014 17 16.0236 17 15.2H15ZM15 7.8V15.2H17V7.8H15ZM13 8H15.2V6H13V8ZM8 3C8 5.76142 10.2386 8 13 8V6C11.3431 6 10 4.65685 10 3H8ZM8 0.8V3H10V0.8H8ZM4.8 1H8.2V-1H4.8V1ZM2.09202 1.21799C2.24842 1.1383 2.47262 1.07337 2.91104 1.03755C3.36113 1.00078 3.94342 1 4.8 1V-1C3.97642 -1 3.2986 -1.00078 2.74817 -0.955806C2.18608 -0.909881 1.66937 -0.811317 1.18404 -0.564026L2.09202 1.21799ZM1.21799 2.09202C1.40973 1.71569 1.71569 1.40973 2.09202 1.21799L1.18404 -0.564026C0.43139 -0.180533 -0.180533 0.43139 -0.564026 1.18404L1.21799 2.09202ZM8 13C6.89543 13 6 13.8954 6 15H8V13ZM10 15C10 13.8954 9.10457 13 8 13V15H10ZM8 17C9.10457 17 10 16.1046 10 15H8V17ZM6 15C6 16.1046 6.89543 17 8 17V15H6ZM8 9H10C10 7.89543 9.10457 7 8 7V9ZM8 9V7C6.89543 7 6 7.89543 6 9H8ZM8 11V9H6V11H8ZM8 11H6C6 12.1046 6.89543 13 8 13V11ZM8 11V13C9.10457 13 10 12.1046 10 11H8ZM8 9V11H10V9H8ZM10 0.8C10 0.676488 10.0008 0.523712 9.98987 0.390169C9.978 0.244952 9.94756 0.03696 9.83651 -0.180986L8.0545 0.726995C8.02682 0.672669 8.01165 0.624347 8.00364 0.590317C7.99637 0.559459 7.99571 0.543258 7.99651 0.553033C7.99734 0.563194 7.99857 0.585538 7.99927 0.630277C7.99997 0.674988 8 0.72771 8 0.8H10ZM8.2 1C8.27229 1 8.32501 1.00003 8.36972 1.00073C8.41446 1.00143 8.43681 1.00266 8.44697 1.00349C8.45674 1.00429 8.44054 1.00363 8.40968 0.996364C8.37565 0.98835 8.32733 0.973184 8.273 0.945503L9.18099 -0.83651C8.96304 -0.947559 8.75505 -0.978002 8.60983 -0.989867C8.47629 -1.00078 8.32351 -1 8.2 -1V1ZM9.83651 -0.180986C9.6927 -0.463228 9.46323 -0.692699 9.18099 -0.83651L8.273 0.945503C8.17892 0.897566 8.10243 0.821075 8.0545 0.726995L9.83651 -0.180986ZM17 7.8C17 7.67649 17.0008 7.52371 16.9899 7.39017C16.978 7.24495 16.9476 7.03696 16.8365 6.81901L15.0545 7.72699C15.0268 7.67267 15.0117 7.62435 15.0036 7.59032C14.9964 7.55946 14.9957 7.54326 14.9965 7.55303C14.9973 7.56319 14.9986 7.58554 14.9993 7.63028C15 7.67499 15 7.72771 15 7.8H17ZM15.2 8C15.2723 8 15.325 8.00003 15.3697 8.00073C15.4145 8.00143 15.4368 8.00266 15.447 8.00349C15.4567 8.00429 15.4405 8.00363 15.4097 7.99636C15.3757 7.98835 15.3273 7.97318 15.273 7.9455L16.181 6.16349C15.963 6.05244 15.755 6.022 15.6098 6.01013C15.4763 5.99922 15.3235 6 15.2 6V8ZM16.8365 6.81901C16.6927 6.53677 16.4632 6.3073 16.181 6.16349L15.273 7.9455C15.1789 7.89757 15.1024 7.82108 15.0545 7.72699L16.8365 6.81901ZM15.2929 4H13V6H15.2929V4ZM12 3V0.707107H10V3H12ZM11.5 0.914214L15.0858 4.5L16.5 3.08579L12.9142 -0.5L11.5 0.914214ZM15.0858 4.5C15.0309 4.44507 15 4.37057 15 4.29289H17C17 3.84014 16.8201 3.40593 16.5 3.08579L15.0858 4.5ZM13 4C12.4477 4 12 3.55228 12 3H10C10 4.65685 11.3431 6 13 6V4ZM15.2929 6C16.2357 6 17 5.2357 17 4.29289H15C15 4.13113 15.1311 4 15.2929 4V6ZM11.7071 1C11.6294 1 11.5549 0.969142 11.5 0.914214L12.9142 -0.5C12.5941 -0.820145 12.1599 -1 11.7071 -1V1ZM11.7071 -1C10.7643 -1 10 -0.235702 10 0.707107H12C12 0.868867 11.8689 1 11.7071 1V-1Z" fill="url(#paint2_linear_2358_1182)" mask="url(#path-1-inside-1_2358_1182)"/>
<defs>
<linearGradient id="paint0_linear_2358_1182" x1="8" y1="20.1429" x2="8" y2="-0.14285" gradientUnits="userSpaceOnUse">
<stop stop-color="#1C2230" stop-opacity="0"/>
<stop offset="1" stop-color="#1C2230" stop-opacity="0.35"/>
</linearGradient>
<linearGradient id="paint1_linear_2358_1182" x1="8" y1="20.1429" x2="8" y2="-0.14285" gradientUnits="userSpaceOnUse">
<stop stop-color="#1C2230" stop-opacity="0"/>
<stop offset="1" stop-color="#1C2230" stop-opacity="0.35"/>
</linearGradient>
<linearGradient id="paint2_linear_2358_1182" x1="8" y1="20.1429" x2="8" y2="-0.14285" gradientUnits="userSpaceOnUse">
<stop stop-color="#1C2230" stop-opacity="0"/>
<stop offset="1" stop-color="#1C2230" stop-opacity="0.35"/>
</linearGradient>
</defs>
</svg>
