<svg width="24" height="26" viewBox="0 0 24 26" fill="none" xmlns="http://www.w3.org/2000/svg">
<path d="M21.3859 5.3125L13.9609 1.025C12.7484 0.325 11.2484 0.325 10.0234 1.025L2.61094 5.3125C1.39844 6.0125 0.648438 7.3125 0.648438 8.725V17.275C0.648438 18.675 1.39844 19.975 2.61094 20.6875L10.0359 24.975C11.2484 25.675 12.7484 25.675 13.9734 24.975L21.3984 20.6875C22.6109 19.9875 23.3609 18.6875 23.3609 17.275V8.725C23.3484 7.3125 22.5984 6.025 21.3859 5.3125ZM11.0609 7.6875C11.0609 7.175 11.4859 6.75 11.9984 6.75C12.5109 6.75 12.9359 7.175 12.9359 7.6875V14.25C12.9359 14.7625 12.5109 15.1875 11.9984 15.1875C11.4859 15.1875 11.0609 14.7625 11.0609 14.25V7.6875ZM13.1484 18.7875C13.0859 18.9375 12.9984 19.075 12.8859 19.2C12.6484 19.4375 12.3359 19.5625 11.9984 19.5625C11.8359 19.5625 11.6734 19.525 11.5234 19.4625C11.3609 19.4 11.2359 19.3125 11.1109 19.2C10.9984 19.075 10.9109 18.9375 10.8359 18.7875C10.7734 18.6375 10.7484 18.475 10.7484 18.3125C10.7484 17.9875 10.8734 17.6625 11.1109 17.425C11.2359 17.3125 11.3609 17.225 11.5234 17.1625C11.9859 16.9625 12.5359 17.075 12.8859 17.425C12.9984 17.55 13.0859 17.675 13.1484 17.8375C13.2109 17.9875 13.2484 18.15 13.2484 18.3125C13.2484 18.475 13.2109 18.6375 13.1484 18.7875Z" fill="#F4AD5C"/>
</svg>
