<svg viewBox="0 0 17 16" xmlns="http://www.w3.org/2000/svg">
<path d="M12.0281 2.75995L11.9815 5.28661C11.9748 5.63328 12.1948 6.09328 12.4748 6.29995L14.1281 7.55328C15.1881 8.35328 15.0148 9.33328 13.7481 9.73328L11.5948 10.4066C11.2348 10.5199 10.8548 10.9133 10.7615 11.2799L10.2481 13.2399C9.84148 14.7866 8.82815 14.9399 7.98815 13.5799L6.81482 11.6799C6.60148 11.3333 6.09482 11.0733 5.69482 11.0933L3.46815 11.2066C1.87482 11.2866 1.42148 10.3666 2.46148 9.15328L3.78148 7.61995C4.02815 7.33328 4.14148 6.79995 4.02815 6.43995L3.34815 4.27995C2.95482 3.01328 3.66148 2.31328 4.92148 2.72661L6.88815 3.37328C7.22148 3.47995 7.72148 3.40661 8.00148 3.19995L10.0548 1.71995C11.1681 0.926614 12.0548 1.39328 12.0281 2.75995Z"/>
<path d="M14.7935 13.6467L12.7735 11.6267C12.5802 11.4334 12.2602 11.4334 12.0669 11.6267C11.8735 11.82 11.8735 12.14 12.0669 12.3334L14.0869 14.3534C14.1869 14.4534 14.3135 14.5 14.4402 14.5C14.5669 14.5 14.6935 14.4534 14.7935 14.3534C14.9869 14.16 14.9869 13.84 14.7935 13.6467Z"/>
</svg>
