<svg viewBox="0 0 16 16" xmlns="http://www.w3.org/2000/svg">
<path d="M13.7332 12.428L11.2597 9.9545C11.8558 9.09398 12.154 8.13467 12.154 7.07708C12.154 6.38958 12.0205 5.73206 11.7536 5.10468C11.4868 4.4772 11.1262 3.93635 10.6719 3.48202C10.2176 3.02769 9.67681 2.66706 9.04946 2.40028C8.42191 2.13342 7.76445 2 7.07696 2C6.38952 2 5.73201 2.13342 5.10464 2.40028C4.47717 2.66706 3.93633 3.02769 3.482 3.48202C3.02762 3.93635 2.66706 4.4773 2.40025 5.10468C2.13342 5.73214 2 6.38958 2 7.07708C2 7.76452 2.13342 8.42181 2.40025 9.04937C2.66703 9.67675 3.02762 10.2175 3.482 10.6719C3.93633 11.1263 4.47727 11.4868 5.10464 11.7537C5.73209 12.0206 6.38952 12.1539 7.07696 12.1539C8.13477 12.1539 9.09391 11.8557 9.95448 11.2597L12.428 13.726C12.6011 13.9086 12.8172 14 13.077 14C13.327 14 13.5435 13.9086 13.726 13.726C13.9086 13.5433 14 13.327 14 13.077C14.0001 12.8223 13.9111 12.6059 13.7332 12.428ZM9.35943 9.35932C8.72723 9.99163 7.96647 10.3078 7.07696 10.3078C6.1876 10.3078 5.42684 9.99156 4.79459 9.35932C4.16234 8.72712 3.84623 7.96644 3.84623 7.07692C3.84623 6.18756 4.16242 5.42666 4.79459 4.79452C5.42671 4.16224 6.1876 3.84615 7.07696 3.84615C7.96637 3.84615 8.72713 4.16237 9.35943 4.79452C9.99173 5.42666 10.3078 6.18756 10.3078 7.07692C10.3078 7.96644 9.99163 8.72712 9.35943 9.35932Z"/>
</svg>
