<svg width="40" height="40" viewBox="0 0 40 40" fill="none" xmlns="http://www.w3.org/2000/svg">
<g filter="url(#filter0_d_4398_7364)">
<path d="M24.9091 9H15.0909C14.0063 9.0013 12.9665 9.43272 12.1996 10.1996C11.4327 10.9665 11.0013 12.0063 11 13.0909V19.6363C11.0012 20.579 11.3273 21.4925 11.9235 22.2228C12.5196 22.953 13.3493 23.4555 14.2727 23.6454V26.1817C14.2727 26.3298 14.3129 26.4752 14.389 26.6023C14.4651 26.7293 14.5743 26.8333 14.7049 26.9032C14.8355 26.9731 14.9827 27.0062 15.1306 26.999C15.2786 26.9918 15.4218 26.9446 15.545 26.8624L20.2455 23.7272H24.9091C25.9937 23.7259 27.0335 23.2945 27.8004 22.5275C28.5673 21.7606 28.9987 20.7209 29 19.6363V13.0909C28.9987 12.0063 28.5673 10.9665 27.8004 10.1996C27.0335 9.43272 25.9937 9.0013 24.9091 9ZM23.2727 18.8181H16.7273C16.5103 18.8181 16.3022 18.7319 16.1487 18.5785C15.9953 18.425 15.9091 18.2169 15.9091 17.9999C15.9091 17.7829 15.9953 17.5748 16.1487 17.4214C16.3022 17.268 16.5103 17.1818 16.7273 17.1818H23.2727C23.4897 17.1818 23.6978 17.268 23.8513 17.4214C24.0047 17.5748 24.0909 17.7829 24.0909 17.9999C24.0909 18.2169 24.0047 18.425 23.8513 18.5785C23.6978 18.7319 23.4897 18.8181 23.2727 18.8181ZM24.9091 15.5454H15.0909C14.8739 15.5454 14.6658 15.4592 14.5124 15.3058C14.3589 15.1523 14.2727 14.9442 14.2727 14.7272C14.2727 14.5102 14.3589 14.3021 14.5124 14.1487C14.6658 13.9953 14.8739 13.9091 15.0909 13.9091H24.9091C25.1261 13.9091 25.3342 13.9953 25.4876 14.1487C25.6411 14.3021 25.7273 14.5102 25.7273 14.7272C25.7273 14.9442 25.6411 15.1523 25.4876 15.3058C25.3342 15.4592 25.1261 15.5454 24.9091 15.5454Z" fill="#E2B617"/>
<path d="M15.0227 23.6454V23.0339L14.4238 22.9107C13.6694 22.7556 12.9915 22.3451 12.5045 21.7485C12.0175 21.1519 11.7511 20.4058 11.75 19.6358V13.0914C11.7512 12.2055 12.1036 11.3563 12.73 10.73C13.3563 10.1036 14.2056 9.75117 15.0914 9.75H24.9086C25.7944 9.75117 26.6437 10.1036 27.27 10.73L27.8004 10.1996L27.27 10.73C27.8965 11.3564 28.2489 12.2058 28.25 13.0918V19.6354C28.2489 20.5214 27.8965 21.3707 27.27 21.9972C26.6437 22.6235 25.7946 22.9759 24.9089 22.9772C24.9087 22.9772 24.9084 22.9772 24.9082 22.9772L20.2455 22.9772H20.0183L19.8293 23.1032L15.1288 26.2385L15.1287 26.2385C15.1185 26.2454 15.1066 26.2493 15.0942 26.2499C15.0819 26.2505 15.0696 26.2478 15.0587 26.2419C15.0479 26.2361 15.0388 26.2274 15.0324 26.2169C15.0261 26.2063 15.0227 26.1942 15.0227 26.1818V26.1817V23.6454ZM13.982 13.6184L14.477 14.1133L13.982 13.6184C13.6879 13.9125 13.5227 14.3113 13.5227 14.7272C13.5227 15.1431 13.6879 15.542 13.982 15.8361L14.477 15.3411L13.982 15.8361C14.2761 16.1302 14.675 16.2954 15.0909 16.2954H24.9091C25.325 16.2954 25.7239 16.1302 26.018 15.8361L25.4876 15.3058L26.018 15.8361C26.3121 15.542 26.4773 15.1431 26.4773 14.7272C26.4773 14.3113 26.3121 13.9125 26.018 13.6184L25.4876 14.1487L26.018 13.6184C25.7239 13.3243 25.325 13.1591 24.9091 13.1591H15.0909C14.675 13.1591 14.2761 13.3243 13.982 13.6184ZM15.6184 16.8911L16.1235 17.3961L15.6184 16.8911C15.3243 17.1852 15.1591 17.584 15.1591 17.9999C15.1591 18.4158 15.3243 18.8147 15.6184 19.1088C15.9125 19.4029 16.3114 19.5681 16.7273 19.5681H23.2727C23.6886 19.5681 24.0875 19.4029 24.3816 19.1088C24.6757 18.8147 24.8409 18.4158 24.8409 17.9999C24.8409 17.584 24.6757 17.1852 24.3816 16.8911C24.0875 16.597 23.6886 16.4318 23.2727 16.4318H16.7273C16.3114 16.4318 15.9125 16.597 15.6184 16.8911Z" stroke="#FDCD24" stroke-width="1.5"/>
</g>
<defs>
<filter id="filter0_d_4398_7364" x="0" y="0" width="40" height="40" filterUnits="userSpaceOnUse" color-interpolation-filters="sRGB">
<feFlood flood-opacity="0" result="BackgroundImageFix"/>
<feColorMatrix in="SourceAlpha" type="matrix" values="0 0 0 0 0 0 0 0 0 0 0 0 0 0 0 0 0 0 127 0" result="hardAlpha"/>
<feOffset dy="2"/>
<feGaussianBlur stdDeviation="5.5"/>
<feComposite in2="hardAlpha" operator="out"/>
<feColorMatrix type="matrix" values="0 0 0 0 0.992157 0 0 0 0 0.243294 0 0 0 0 0.141176 0 0 0 0.66 0"/>
<feBlend mode="normal" in2="BackgroundImageFix" result="effect1_dropShadow_4398_7364"/>
<feBlend mode="normal" in="SourceGraphic" in2="effect1_dropShadow_4398_7364" result="shape"/>
</filter>
</defs>
</svg>
