<svg viewBox="0 0 150 40" fill="none" width="100%" height="100%" xmlns="http://www.w3.org/2000/svg">
<path d="M8.46152 2.27664C9.12561 0.885654 10.5299 0 12.0712 0H137.435C138.976 0 140.379 0.884514 141.044 2.27414L149.132 19.1842C149.678 20.3265 149.651 21.66 149.059 22.7794L141.083 37.8694C140.39 39.18 139.029 40 137.546 40H12.0712C10.5299 40 9.12561 39.1143 8.46152 37.7234L0.82277 21.7234C0.302389 20.6334 0.302388 19.3666 0.822769 18.2766L8.46152 2.27664Z" fill="url(#paint0_linear_2358_2304)" fill-opacity="0.32"/>
<path d="M9.36395 2.70748C9.86202 1.66424 10.9152 1 12.0712 1H137.435C138.591 1 139.643 1.66338 140.142 2.70561L148.229 19.6157C148.639 20.4724 148.619 21.4725 148.175 22.3121L140.198 37.402C139.679 38.385 138.658 39 137.546 39H12.0712C10.9152 39 9.86202 38.3358 9.36395 37.2925L1.7252 21.2925C1.33491 20.475 1.33491 19.525 1.7252 18.7075L9.36395 2.70748Z" stroke="url(#paint1_linear_2358_2304)" stroke-opacity="0.32" stroke-width="2"/>
<defs>
<linearGradient id="paint0_linear_2358_2304" x1="96.2587" y1="0" x2="96.2587" y2="40" gradientUnits="userSpaceOnUse">
<stop stop-color="#E2B617" stop-opacity="0"/>
<stop offset="1" stop-color="#E2B617"/>
</linearGradient>
<linearGradient id="paint1_linear_2358_2304" x1="96.2587" y1="0" x2="96.2587" y2="40" gradientUnits="userSpaceOnUse">
<stop stop-color="#FDCD24" stop-opacity="0"/>
<stop offset="1" stop-color="#FDCD24"/>
</linearGradient>
</defs>
</svg>
