<svg width="12" height="12" viewBox="0 0 12 12" fill="none" xmlns="http://www.w3.org/2000/svg">
<path d="M10.3133 2.42261H1.68673C1.6054 2.42273 1.52744 2.45511 1.46994 2.51263C1.41244 2.57015 1.3801 2.64812 1.38001 2.72945V3.34673C1.38001 3.37517 1.41085 3.40781 1.43605 3.42101L5.97037 6.01097C5.98198 6.01761 5.99515 6.02104 6.00853 6.02093C6.0222 6.02099 6.03564 6.01734 6.04741 6.01037L10.4447 3.42353C10.4694 3.40973 10.5349 3.37325 10.5595 3.35645C10.5893 3.33617 10.62 3.31781 10.62 3.28145V2.72933C10.6199 2.64802 10.5875 2.57008 10.53 2.51258C10.4725 2.45509 10.3946 2.42273 10.3133 2.42261ZM10.5817 4.27745C10.5699 4.27067 10.5566 4.26714 10.543 4.26722C10.5294 4.26731 10.516 4.271 10.5043 4.27793L8.01589 5.74205C8.00597 5.74783 7.99748 5.75576 7.99105 5.76527C7.98462 5.77477 7.98042 5.78561 7.97875 5.79696C7.97707 5.80831 7.97798 5.8199 7.9814 5.83086C7.98482 5.84181 7.99066 5.85186 7.99849 5.86025L10.4873 8.54309C10.4944 8.55085 10.5031 8.55703 10.5127 8.56125C10.5224 8.56546 10.5328 8.56762 10.5433 8.56757C10.5637 8.56754 10.5831 8.55945 10.5975 8.54507C10.6119 8.5307 10.62 8.51121 10.62 8.49089V4.34405C10.62 4.33056 10.6165 4.31731 10.6098 4.30562C10.6031 4.29393 10.5934 4.28421 10.5817 4.27745ZM7.29877 6.23369C7.28695 6.22082 7.27109 6.2124 7.25381 6.20982C7.23654 6.20724 7.2189 6.21067 7.20385 6.21953L6.20641 6.80645C6.14798 6.84025 6.08176 6.85825 6.01426 6.8587C5.94676 6.85914 5.88031 6.842 5.82145 6.80897L4.94365 6.30749C4.92947 6.29942 4.9131 6.29607 4.8969 6.29792C4.8807 6.29978 4.86551 6.30674 4.85353 6.31781L1.52017 9.40973C1.51143 9.4179 1.50472 9.42799 1.50057 9.43922C1.49643 9.45044 1.49496 9.46247 1.49629 9.47436C1.49762 9.48625 1.50171 9.49766 1.50823 9.50769C1.51475 9.51772 1.52352 9.52609 1.53385 9.53213C1.58569 9.56261 1.63573 9.57713 1.68661 9.57713H10.225C10.2399 9.57708 10.2545 9.57269 10.2669 9.56448C10.2794 9.55628 10.2892 9.54462 10.2952 9.53093C10.3011 9.51726 10.3029 9.50216 10.3004 9.48748C10.2979 9.4728 10.2911 9.45917 10.281 9.44825L7.29877 6.23369ZM4.12009 5.95205C4.12889 5.94387 4.13566 5.93375 4.13983 5.92248C4.14401 5.91122 4.14549 5.89913 4.14415 5.88719C4.14281 5.87525 4.13868 5.86379 4.13211 5.85373C4.12553 5.84368 4.11669 5.8353 4.10629 5.82929L1.49437 4.33745C1.48271 4.33083 1.46952 4.32739 1.45612 4.32747C1.44271 4.32755 1.42956 4.33114 1.41799 4.3379C1.40641 4.34465 1.39681 4.35433 1.39014 4.36596C1.38348 4.37759 1.37998 4.39076 1.38001 4.40417V8.31857C1.37992 8.33352 1.38422 8.34816 1.39238 8.36069C1.40053 8.37322 1.41218 8.38309 1.42589 8.38907C1.43959 8.39504 1.45474 8.39687 1.46947 8.39432C1.48421 8.39177 1.49787 8.38496 1.50877 8.37473L4.12009 5.95205Z" fill="currentColor"/>
</svg>
