<svg viewBox="0 0 22 22" xmlns="http://www.w3.org/2000/svg">
<path d="M20.078 7.70202C20.796 6.09421 20.4963 4.14232 19.177 2.823C17.8577 1.50369 15.9058 1.20403 14.298 1.92199L12.376 0L0 12.376L1.92199 14.298C1.20403 15.9058 1.50369 17.8577 2.823 19.177C4.14232 20.4963 6.09421 20.796 7.70202 20.078L9.62401 22L22 9.62401L20.078 7.70202ZM11.9998 3.74971L13.3335 5.08337L12.3189 6.09795L10.9852 4.76429L11.9998 3.74971ZM7.8467 13.9382C7.51089 14.274 7.06436 14.459 6.58939 14.459C6.11441 14.459 5.66788 14.2741 5.33208 13.9382C4.63878 13.2449 4.63878 12.1168 5.33208 11.4236C6.02538 10.7303 7.15339 10.7303 7.8467 11.4236C8.53995 12.1169 8.53995 13.2449 7.8467 13.9382ZM9.07814 16.636L8.23917 8.7722L9.66582 8.61996L10.5048 16.4837L9.07814 16.636ZM13.4186 13.8391C13.072 14.1857 12.6165 14.359 12.1613 14.359C11.7059 14.359 11.2507 14.1857 10.904 13.8391C10.2107 13.1458 10.2107 12.0177 10.904 11.3245C11.2398 10.9886 11.6863 10.8036 12.1613 10.8036C12.6363 10.8036 13.0828 10.9886 13.4186 11.3245C13.7544 11.6603 13.9394 12.1068 13.9394 12.5818C13.9394 13.0567 13.7545 13.5033 13.4186 13.8391ZM14.7773 8.55637L13.4436 7.22266L14.4581 6.20812L15.7918 7.54183L14.7773 8.55637ZM17.2358 11.0148L15.902 9.68107L16.9166 8.66654L18.2503 10.0002L17.2358 11.0148Z" fill="#5A6786"/>
</svg>
