<svg viewBox="0 0 13 14" xmlns="http://www.w3.org/2000/svg">
<path d="M6.81189 13.1992C5.6031 13.1999 4.42127 12.842 3.41597 12.1708C2.41067 11.4996 1.62709 10.5452 1.16442 9.42848C0.701751 8.31174 0.580782 7.08285 0.816825 5.89733C1.05287 4.71181 1.63531 3.62297 2.49044 2.76861C2.68471 2.57956 2.94562 2.47461 3.21669 2.47646C3.48777 2.47832 3.74721 2.58683 3.93888 2.77853C4.13055 2.97022 4.23904 3.22968 4.24086 3.50075C4.24268 3.77183 4.1377 4.03272 3.94862 4.22697C3.38235 4.79327 2.99671 5.51477 2.84048 6.30023C2.68425 7.0857 2.76445 7.89985 3.07093 8.63974C3.37741 9.37963 3.8964 10.012 4.56229 10.4569C5.22817 10.9019 6.01104 11.1393 6.81189 11.1393C7.61274 11.1393 8.39561 10.9019 9.06149 10.4569C9.72738 10.012 10.2464 9.37963 10.5529 8.63974C10.8593 7.89985 10.9395 7.0857 10.7833 6.30023C10.6271 5.51477 10.2414 4.79327 9.67516 4.22697C9.48436 4.03304 9.37792 3.77158 9.37903 3.49953C9.38014 3.22748 9.4887 2.9669 9.68107 2.77453C9.87344 2.58216 10.134 2.4736 10.4061 2.47249C10.6781 2.47138 10.9396 2.57782 11.1335 2.76861C11.9887 3.62298 12.5711 4.71184 12.8071 5.89737C13.0432 7.08291 12.9222 8.31182 12.4595 9.42856C11.9968 10.5453 11.2132 11.4997 10.2079 12.1709C9.20255 12.8421 8.02069 13.2 6.81189 13.1992Z" />
<path d="M6.8125 7.15469C6.539 7.15469 6.27669 7.04604 6.0833 6.85264C5.8899 6.65925 5.78125 6.39694 5.78125 6.12344V1.86094C5.78125 1.58743 5.8899 1.32513 6.0833 1.13174C6.27669 0.938338 6.539 0.829689 6.8125 0.829689C7.086 0.829689 7.34831 0.938338 7.5417 1.13174C7.7351 1.32513 7.84375 1.58743 7.84375 1.86094V6.12344C7.84375 6.39694 7.7351 6.65925 7.5417 6.85264C7.34831 7.04604 7.086 7.15469 6.8125 7.15469Z" />
</svg>
