<svg width="58" height="58" viewBox="0 0 58 58" fill="none" xmlns="http://www.w3.org/2000/svg">
<path d="M27.5 2.02073C28.4282 1.48483 29.5718 1.48483 30.5 2.02073L51.6147 14.2113C52.5429 14.7472 53.1147 15.7376 53.1147 16.8094V41.1906C53.1147 42.2624 52.5429 43.2528 51.6147 43.7887L30.5 55.9793C29.5718 56.5152 28.4282 56.5152 27.5 55.9793L6.38526 43.7887C5.45706 43.2528 4.88526 42.2624 4.88526 41.1906V16.8094C4.88526 15.7376 5.45706 14.7472 6.38526 14.2113L27.5 2.02073Z" stroke="url(#paint0_linear_2358_3573)" stroke-width="2"/>
<mask id="mask0_2358_3573" style="mask-type:alpha" maskUnits="userSpaceOnUse" x="7" y="4" width="44" height="50">
<path d="M28 4.57735C28.6188 4.22009 29.3812 4.22008 30 4.57735L49.6506 15.9226C50.2694 16.2799 50.6506 16.9402 50.6506 17.6547V40.3453C50.6506 41.0598 50.2694 41.7201 49.6506 42.0774L30 53.4226C29.3812 53.7799 28.6188 53.7799 28 53.4226L8.34937 42.0774C7.73056 41.7201 7.34937 41.0598 7.34937 40.3453V17.6547C7.34937 16.9402 7.73056 16.2799 8.34937 15.9226L28 4.57735Z" fill="#D9D9D9"/>
</mask>
<g mask="url(#mask0_2358_3573)">
<path d="M28.5 5.44338C28.8094 5.26474 29.1906 5.26474 29.5 5.44338L49.1506 16.7887C49.46 16.9673 49.6506 17.2974 49.6506 17.6547V40.3453C49.6506 40.7026 49.46 41.0327 49.1506 41.2113L29.5 52.5566C29.1906 52.7353 28.8094 52.7353 28.5 52.5566L8.84937 41.2113C8.53996 41.0327 8.34937 40.7026 8.34937 40.3453V17.6547C8.34937 17.2974 8.53996 16.9673 8.84937 16.7887L28.5 5.44338Z" stroke="white" stroke-opacity="0.25" stroke-width="2"/>
</g>
<defs>
<linearGradient id="paint0_linear_2358_3573" x1="29" y1="7.01613" x2="29" y2="58" gradientUnits="userSpaceOnUse">
<stop stop-color="#FDCD24" stop-opacity="0.19"/>
<stop offset="1" stop-color="#FDCD24"/>
</linearGradient>
</defs>
</svg>
