<svg width="32" height="32" viewBox="0 0 32 32" fill="none" xmlns="http://www.w3.org/2000/svg">
<path d="M15 0.57735C15.6188 0.220085 16.3812 0.220085 17 0.57735L28.8564 7.42265C29.4752 7.77992 29.8564 8.44017 29.8564 9.1547V22.8453C29.8564 23.5598 29.4752 24.2201 28.8564 24.5774L17 31.4226C16.3812 31.7799 15.6188 31.7799 15 31.4226L3.14359 24.5774C2.52479 24.2201 2.14359 23.5598 2.14359 22.8453V9.1547C2.14359 8.44017 2.52479 7.77992 3.14359 7.42265L15 0.57735Z" fill="url(#paint0_linear_0_1)" fill-opacity="0.08"/>
<path d="M15.5 1.44338C15.8094 1.26474 16.1906 1.26474 16.5 1.44338L28.3564 8.28868C28.6658 8.46731 28.8564 8.79743 28.8564 9.1547V22.8453C28.8564 23.2026 28.6658 23.5327 28.3564 23.7113L16.5 30.5566C16.1906 30.7353 15.8094 30.7353 15.5 30.5566L3.64359 23.7113C3.33419 23.5327 3.14359 23.2026 3.14359 22.8453V9.1547C3.14359 8.79743 3.33419 8.46731 3.64359 8.28868L15.5 1.44338Z" stroke="url(#paint1_linear_0_1)" stroke-opacity="0.08" stroke-width="2"/>
<g clip-path="url(#clip0_0_1)">
<path d="M15.7037 12.0192L23 12.0192L23 11.256L15.7037 11.256C15.5301 10.4968 14.851 9.92871 14.0415 9.92871C13.2319 9.92871 12.5529 10.4968 12.3794 11.256L10 11.256L10 12.0192L12.3794 12.0192C12.5528 12.7783 13.2319 13.3465 14.0415 13.3465C14.851 13.3465 15.5301 12.7783 15.7037 12.0192ZM13.0977 11.6376C13.0977 11.1162 13.5211 10.6919 14.0415 10.6919C14.562 10.6919 14.9853 11.1162 14.9853 11.6376C14.9853 12.159 14.562 12.5832 14.0415 12.5832C13.5211 12.5832 13.0977 12.159 13.0977 11.6376Z" fill="#D1D9EB"/>
<path d="M20.9162 15.8884L23 15.8884L23 15.1252L20.9162 15.1252C20.7426 14.3661 20.0635 13.7979 19.254 13.7979C18.4446 13.7979 17.7654 14.3661 17.5919 15.1252L10 15.1252L10 15.8884L17.5918 15.8884C17.7654 16.6475 18.4445 17.2157 19.254 17.2157C20.0635 17.2157 20.7426 16.6475 20.9162 15.8884ZM18.3102 15.5068C18.3102 14.9853 18.7336 14.5611 19.254 14.5611C19.7744 14.5611 20.1978 14.9853 20.1978 15.5068C20.1978 16.0283 19.7744 16.4525 19.254 16.4525C18.7336 16.4525 18.3102 16.0283 18.3102 15.5068Z" fill="#D1D9EB"/>
<path d="M15.5648 21.0852C16.3743 21.0852 17.0534 20.5171 17.227 19.758L23 19.758L23 18.9947L17.227 18.9947C17.0534 18.2357 16.3743 17.6675 15.5649 17.6675C14.7554 17.6675 14.0763 18.2357 13.9027 18.9947L10 18.9947L10 19.758L13.9027 19.758C14.0763 20.5171 14.7554 21.0852 15.5648 21.0852ZM14.621 19.3764C14.621 18.8549 15.0444 18.4307 15.5648 18.4307C16.0852 18.4307 16.5087 18.8549 16.5087 19.3764C16.5087 19.8978 16.0852 20.322 15.5648 20.322C15.0444 20.322 14.621 19.8979 14.621 19.3764Z" fill="#D1D9EB"/>
</g>
<defs>
<linearGradient id="paint0_linear_0_1" x1="16" y1="0" x2="16" y2="32" gradientUnits="userSpaceOnUse">
<stop stop-color="white" stop-opacity="0"/>
<stop offset="1" stop-color="white"/>
</linearGradient>
<linearGradient id="paint1_linear_0_1" x1="16" y1="0" x2="16" y2="32" gradientUnits="userSpaceOnUse">
<stop stop-color="white" stop-opacity="0"/>
<stop offset="1" stop-color="white"/>
</linearGradient>
<clipPath id="clip0_0_1">
<rect width="13" height="13" fill="white" transform="translate(23 9) rotate(90)"/>
</clipPath>
</defs>
</svg>
