<svg viewBox="0 0 22 22" xmlns="http://www.w3.org/2000/svg">
<path d="M19.2238 0.916504H16.5288C15.3646 0.916504 14.668 1.61317 14.668 2.77734V5.47234C14.668 6.6365 15.3646 7.33317 16.5288 7.33317H19.2238C20.388 7.33317 21.0846 6.6365 21.0846 5.47234V2.77734C21.0846 1.61317 20.388 0.916504 19.2238 0.916504ZM17.4271 6.02234C17.3996 6.04984 17.3355 6.0865 17.2896 6.0865L16.3363 6.224C16.3088 6.23317 16.2721 6.23317 16.2446 6.23317C16.1071 6.23317 15.988 6.18734 15.9055 6.09567C15.7955 5.98567 15.7496 5.82984 15.7771 5.66484L15.9146 4.7115C15.9238 4.66567 15.9513 4.6015 15.9788 4.574L17.5371 3.01567C17.5646 3.07984 17.5921 3.15317 17.6196 3.2265C17.6563 3.29984 17.693 3.364 17.7296 3.42817C17.7571 3.48317 17.7938 3.53817 17.8305 3.57484C17.8671 3.62984 17.9038 3.68484 17.9313 3.71234C17.9496 3.73984 17.9588 3.749 17.968 3.75817C18.0505 3.859 18.1421 3.95067 18.2246 4.01484C18.243 4.03317 18.2613 4.0515 18.2705 4.0515C18.3163 4.08817 18.3713 4.134 18.408 4.1615C18.463 4.19817 18.5088 4.23484 18.5638 4.26234C18.628 4.299 18.7013 4.33567 18.7746 4.37234C18.848 4.409 18.9213 4.4365 18.9855 4.45484L17.4271 6.02234ZM19.618 3.8315L19.3246 4.12484C19.3063 4.15234 19.2788 4.1615 19.2513 4.1615C19.2421 4.1615 19.233 4.1615 19.2238 4.1615C18.5638 3.969 18.0413 3.4465 17.8488 2.7865C17.8396 2.74984 17.8488 2.71317 17.8763 2.68567L18.1788 2.38317C18.6738 1.88817 19.1413 1.89734 19.6271 2.38317C19.8746 2.63067 19.9938 2.869 19.9938 3.10734C19.9846 3.34567 19.8655 3.584 19.618 3.8315Z" fill="#495470"/>
<path d="M8.24807 9.51519C9.45297 9.51519 10.4297 8.53842 10.4297 7.33352C10.4297 6.12862 9.45297 5.15186 8.24807 5.15186C7.04317 5.15186 6.06641 6.12862 6.06641 7.33352C6.06641 8.53842 7.04317 9.51519 8.24807 9.51519Z" fill="#495470"/>
<path d="M19.2212 7.3335H18.7904V11.5593L18.6712 11.4585C17.9562 10.8443 16.8012 10.8443 16.0862 11.4585L12.2729 14.731C11.5579 15.3452 10.4029 15.3452 9.68786 14.731L9.3762 14.4743C8.72536 13.906 7.68953 13.851 6.9562 14.346L3.52786 16.6468C3.3262 16.1335 3.20703 15.5377 3.20703 14.841V7.15933C3.20703 4.57433 4.57286 3.2085 7.15786 3.2085H14.6654V2.77766C14.6654 2.411 14.7295 2.09933 14.8762 1.8335H7.15786C3.8212 1.8335 1.83203 3.82266 1.83203 7.15933V14.841C1.83203 15.8402 2.0062 16.711 2.34536 17.4443C3.1337 19.186 4.82036 20.1668 7.15786 20.1668H14.8395C18.1762 20.1668 20.1654 18.1777 20.1654 14.841V7.12266C19.8995 7.26933 19.5879 7.3335 19.2212 7.3335Z" fill="#495470"/>
</svg>
