<svg viewBox="0 0 16 18" fill="none" xmlns="http://www.w3.org/2000/svg">
<path d="M7.32922 0.894426C7.75151 0.683281 8.24857 0.683282 8.67086 0.894428L14.6708 3.89443C15.179 4.14851 15.5 4.66791 15.5 5.23607V12.7639C15.5 13.3321 15.179 13.8515 14.6708 14.1056L8.67086 17.1056C8.24857 17.3167 7.75151 17.3167 7.32922 17.1056L1.32918 14.1056C0.821005 13.8515 0.5 13.3321 0.5 12.7639V5.23607C0.5 4.66791 0.821005 4.14852 1.32918 3.89443L7.32922 0.894426Z" fill="#10AA7C" stroke="#24FDBC"/>
<path d="M11.477 7.47942H9.42375V5.523C9.42375 5.23461 9.18912 5 8.90073 5H7.07991C6.79152 5 6.55691 5.23461 6.55691 5.523V7.47942H4.523C4.23461 7.47942 4 7.71403 4 8.00242V9.82325C4 10.1116 4.23461 10.3463 4.523 10.3463H6.5569V12.477C6.5569 12.7654 6.79151 13 7.0799 13H8.90073C9.18912 13 9.42373 12.7654 9.42373 12.477V10.3463H11.477C11.7654 10.3463 12 10.1116 12 9.82325V8.00242C12 7.71403 11.7654 7.47942 11.477 7.47942Z" fill="white"/>
</svg>
