<svg viewBox="0 0 22 22" xmlns="http://www.w3.org/2000/svg">
<path d="M11.0005 13.75C6.40797 13.75 2.66797 16.83 2.66797 20.625C2.66797 20.8817 2.86964 21.0833 3.1263 21.0833H18.8746C19.1313 21.0833 19.333 20.8817 19.333 20.625C19.333 16.83 15.593 13.75 11.0005 13.75Z"/>
<path d="M11.0005 13.75C6.40797 13.75 2.66797 16.83 2.66797 20.625C2.66797 20.8817 2.86964 21.0833 3.1263 21.0833H18.8746C19.1313 21.0833 19.333 20.8817 19.333 20.625C19.333 16.83 15.593 13.75 11.0005 13.75Z"/>
<path d="M14.4021 3.35516C13.5771 2.42016 12.3488 1.8335 11.0013 1.8335C9.71797 1.8335 8.54464 2.356 7.71047 3.21766C6.91297 4.04266 6.41797 5.17933 6.41797 6.41683C6.41797 7.2785 6.6563 8.08516 7.08714 8.77266C7.3163 9.16683 7.60964 9.52433 7.95797 9.81766C8.75547 10.551 9.8188 11.0002 11.0013 11.0002C12.6788 11.0002 14.1271 10.1018 14.9246 8.77266C15.163 8.3785 15.3463 7.9385 15.4471 7.48016C15.5388 7.141 15.5846 6.7835 15.5846 6.41683C15.5846 5.2435 15.1355 4.171 14.4021 3.35516ZM12.7155 7.26016H11.863V8.14933C11.863 8.626 11.478 9.011 11.0013 9.011C10.5246 9.011 10.1396 8.626 10.1396 8.14933V7.26016H9.28714C8.81047 7.26016 8.42547 6.87516 8.42547 6.3985C8.42547 5.92183 8.81047 5.53683 9.28714 5.53683H10.1396V4.721C10.1396 4.24433 10.5246 3.85933 11.0013 3.85933C11.478 3.85933 11.863 4.24433 11.863 4.721V5.53683H12.7155C13.1921 5.53683 13.5771 5.92183 13.5771 6.3985C13.5771 6.87516 13.1921 7.26016 12.7155 7.26016Z"/>
<path d="M14.4021 3.35516C13.5771 2.42016 12.3488 1.8335 11.0013 1.8335C9.71797 1.8335 8.54464 2.356 7.71047 3.21766C6.91297 4.04266 6.41797 5.17933 6.41797 6.41683C6.41797 7.2785 6.6563 8.08516 7.08714 8.77266C7.3163 9.16683 7.60964 9.52433 7.95797 9.81766C8.75547 10.551 9.8188 11.0002 11.0013 11.0002C12.6788 11.0002 14.1271 10.1018 14.9246 8.77266C15.163 8.3785 15.3463 7.9385 15.4471 7.48016C15.5388 7.141 15.5846 6.7835 15.5846 6.41683C15.5846 5.2435 15.1355 4.171 14.4021 3.35516ZM12.7155 7.26016H11.863V8.14933C11.863 8.626 11.478 9.011 11.0013 9.011C10.5246 9.011 10.1396 8.626 10.1396 8.14933V7.26016H9.28714C8.81047 7.26016 8.42547 6.87516 8.42547 6.3985C8.42547 5.92183 8.81047 5.53683 9.28714 5.53683H10.1396V4.721C10.1396 4.24433 10.5246 3.85933 11.0013 3.85933C11.478 3.85933 11.863 4.24433 11.863 4.721V5.53683H12.7155C13.1921 5.53683 13.5771 5.92183 13.5771 6.3985C13.5771 6.87516 13.1921 7.26016 12.7155 7.26016Z"/>
</svg>
