<svg width="18" height="18" viewBox="0 0 18 18" fill="none" xmlns="http://www.w3.org/2000/svg">
<path d="M5.83764 13.3499L5.46863 13.0126L5.83764 13.3499L9.50627 9.33738C9.68092 9.14636 9.68092 8.85364 9.50627 8.66262L5.83764 4.65005C5.38745 4.15766 5.38745 3.34234 5.83764 2.84995C6.26425 2.38335 6.93575 2.38335 7.36236 2.84995L12.1624 8.09995C12.6125 8.59234 12.6125 9.40766 12.1624 9.90005L7.36236 15.1501C6.93575 15.6166 6.26425 15.6166 5.83764 15.1501L5.46953 15.4866L5.83764 15.1501C5.38745 14.6577 5.38745 13.8423 5.83764 13.3499Z" fill="#D1D9EB"/>
<path d="M5.83764 13.3499L5.46863 13.0126L5.83764 13.3499L9.50627 9.33738C9.68092 9.14636 9.68092 8.85364 9.50627 8.66262L5.83764 4.65005C5.38745 4.15766 5.38745 3.34234 5.83764 2.84995C6.26425 2.38335 6.93575 2.38335 7.36236 2.84995L12.1624 8.09995C12.6125 8.59234 12.6125 9.40766 12.1624 9.90005L7.36236 15.1501C6.93575 15.6166 6.26425 15.6166 5.83764 15.1501L5.46953 15.4866L5.83764 15.1501C5.38745 14.6577 5.38745 13.8423 5.83764 13.3499Z" fill="url(#paint0_linear_4248_5741)"/>
<path d="M5.83764 13.3499L5.46863 13.0126L5.83764 13.3499L9.50627 9.33738C9.68092 9.14636 9.68092 8.85364 9.50627 8.66262L5.83764 4.65005C5.38745 4.15766 5.38745 3.34234 5.83764 2.84995C6.26425 2.38335 6.93575 2.38335 7.36236 2.84995L12.1624 8.09995C12.6125 8.59234 12.6125 9.40766 12.1624 9.90005L7.36236 15.1501C6.93575 15.6166 6.26425 15.6166 5.83764 15.1501L5.46953 15.4866L5.83764 15.1501C5.38745 14.6577 5.38745 13.8423 5.83764 13.3499Z" stroke="#EDF2FF" stroke-linecap="round" stroke-linejoin="round"/>
<path d="M5.83764 13.3499L5.46863 13.0126L5.83764 13.3499L9.50627 9.33738C9.68092 9.14636 9.68092 8.85364 9.50627 8.66262L5.83764 4.65005C5.38745 4.15766 5.38745 3.34234 5.83764 2.84995C6.26425 2.38335 6.93575 2.38335 7.36236 2.84995L12.1624 8.09995C12.6125 8.59234 12.6125 9.40766 12.1624 9.90005L7.36236 15.1501C6.93575 15.6166 6.26425 15.6166 5.83764 15.1501L5.46953 15.4866L5.83764 15.1501C5.38745 14.6577 5.38745 13.8423 5.83764 13.3499Z" stroke="url(#paint1_linear_4248_5741)" stroke-linecap="round" stroke-linejoin="round"/>
<defs>
<linearGradient id="paint0_linear_4248_5741" x1="9" y1="16.1" x2="9" y2="1.9" gradientUnits="userSpaceOnUse">
<stop stop-color="#1C2230" stop-opacity="0"/>
<stop offset="1" stop-color="#1C2230" stop-opacity="0.35"/>
</linearGradient>
<linearGradient id="paint1_linear_4248_5741" x1="9" y1="16.1" x2="9" y2="1.9" gradientUnits="userSpaceOnUse">
<stop stop-color="#1C2230" stop-opacity="0"/>
<stop offset="1" stop-color="#1C2230" stop-opacity="0.35"/>
</linearGradient>
</defs>
</svg>
