<svg width="12" height="12" viewBox="0 0 12 12" fill="none" xmlns="http://www.w3.org/2000/svg">
<path d="M11.268 4.23007L7.76851 0.72957C7.29601 0.25757 6.66851 -0.00292969 6.00051 -0.00292969C5.33251 -0.00292969 4.70451 0.25757 4.23251 0.72957L0.733011 4.23007C-0.241489 5.20457 -0.241489 6.79007 0.733011 7.76457L4.23251 11.2651C4.70451 11.7371 5.33251 11.9976 6.00051 11.9976C6.66851 11.9976 7.29601 11.7371 7.76851 11.2651L11.268 7.76457C11.74 7.29257 12 6.66507 12 5.99757C12 5.33007 11.74 4.70207 11.268 4.23007ZM5.50001 3.50007C5.50001 3.22357 5.72401 3.00007 6.00001 3.00007C6.27601 3.00007 6.50001 3.22357 6.50001 3.50007V6.25007C6.50001 6.52657 6.27601 6.75007 6.00001 6.75007C5.72401 6.75007 5.50001 6.52657 5.50001 6.25007V3.50007ZM6.00001 9.00007C5.58601 9.00007 5.25001 8.66407 5.25001 8.25007C5.25001 7.83607 5.58601 7.50007 6.00001 7.50007C6.41401 7.50007 6.75001 7.83607 6.75001 8.25007C6.75001 8.66407 6.41401 9.00007 6.00001 9.00007Z" fill="currentColor"/>
</svg>
