<svg viewBox="0 0 22 22" fill="none" xmlns="http://www.w3.org/2000/svg">
<path d="M11 0C8.82441 0 6.69767 0.645139 4.88873 1.85383C3.07979 3.06253 1.66989 4.7805 0.83733 6.79048C0.00476615 8.80047 -0.213071 11.0122 0.211367 13.146C0.635804 15.2798 1.68345 17.2398 3.22183 18.7782C4.76021 20.3166 6.72022 21.3642 8.85401 21.7886C10.9878 22.2131 13.1995 21.9952 15.2095 21.1627C17.2195 20.3301 18.9375 18.9202 20.1462 17.1113C21.3549 15.3023 22 13.1756 22 11C21.9968 8.08359 20.8369 5.28753 18.7747 3.22531C16.7125 1.16309 13.9164 0.00315432 11 0ZM14.6667 11.9167H11.9167V14.6667C11.9167 14.9098 11.8201 15.1429 11.6482 15.3148C11.4763 15.4868 11.2431 15.5833 11 15.5833C10.7569 15.5833 10.5237 15.4868 10.3518 15.3148C10.1799 15.1429 10.0833 14.9098 10.0833 14.6667V11.9167H7.33334C7.09022 11.9167 6.85707 11.8201 6.68516 11.6482C6.51325 11.4763 6.41667 11.2431 6.41667 11C6.41667 10.7569 6.51325 10.5237 6.68516 10.3518C6.85707 10.1799 7.09022 10.0833 7.33334 10.0833H10.0833V7.33333C10.0833 7.09022 10.1799 6.85706 10.3518 6.68515C10.5237 6.51324 10.7569 6.41667 11 6.41667C11.2431 6.41667 11.4763 6.51324 11.6482 6.68515C11.8201 6.85706 11.9167 7.09022 11.9167 7.33333V10.0833H14.6667C14.9098 10.0833 15.1429 10.1799 15.3149 10.3518C15.4868 10.5237 15.5833 10.7569 15.5833 11C15.5833 11.2431 15.4868 11.4763 15.3149 11.6482C15.1429 11.8201 14.9098 11.9167 14.6667 11.9167Z" fill="#17E2A5"/>
</svg>
