<svg viewBox="0 0 24 25" xmlns="http://www.w3.org/2000/svg">
<path d="M16.65 6.22021H7.35C4.4 6.22021 2 8.62021 2 11.5702V17.1502C2 20.1002 4.4 22.5002 7.35 22.5002H16.65C19.6 22.5002 22 20.1002 22 17.1502V11.5702C22 8.62021 19.6 6.22021 16.65 6.22021ZM14.5 12.5202C14.5 11.9702 14.95 11.5202 15.5 11.5202C16.05 11.5202 16.5 11.9702 16.5 12.5202C16.5 13.0702 16.05 13.5302 15.5 13.5302C14.95 13.5302 14.5 13.0902 14.5 12.5402V12.5202ZM10.13 16.5702C9.98 16.7202 9.79 16.7902 9.6 16.7902C9.41 16.7902 9.22 16.7202 9.07 16.5702L8.04 15.5402L7.05 16.5302C6.9 16.6802 6.71 16.7502 6.52 16.7502C6.33 16.7502 6.14 16.6802 5.99 16.5302C5.7 16.2402 5.7 15.7602 5.99 15.4702L6.98 14.4802L6.02 13.5202C5.73 13.2302 5.73 12.7502 6.02 12.4602C6.31 12.1702 6.79 12.1702 7.08 12.4602L8.04 13.4202L9.03 12.4302C9.32 12.1402 9.8 12.1402 10.09 12.4302C10.38 12.7202 10.38 13.2002 10.09 13.4902L9.1 14.4802L10.13 15.5102C10.42 15.8002 10.42 16.2802 10.13 16.5702ZM13.54 15.5002C12.99 15.5002 12.53 15.0502 12.53 14.5002C12.53 13.9502 12.97 13.5002 13.52 13.5002H13.54C14.09 13.5002 14.54 13.9502 14.54 14.5002C14.54 15.0502 14.1 15.5002 13.54 15.5002ZM15.5 17.4702C14.95 17.4702 14.5 17.0302 14.5 16.4802V16.4602C14.5 15.9102 14.95 15.4602 15.5 15.4602C16.05 15.4602 16.5 15.9102 16.5 16.4602C16.5 17.0102 16.06 17.4702 15.5 17.4702ZM17.48 15.5002C16.93 15.5002 16.47 15.0502 16.47 14.5002C16.47 13.9502 16.91 13.5002 17.46 13.5002H17.48C18.03 13.5002 18.48 13.9502 18.48 14.5002C18.48 15.0502 18.04 15.5002 17.48 15.5002Z" fill="#5A6786"/>
<path d="M13.6394 3.21L13.6294 4.15C13.6194 5.03 12.8894 5.76 11.9994 5.76C11.8494 5.76 11.7594 5.86 11.7594 5.99C11.7594 6.12 11.8594 6.22 11.9894 6.22H10.3794C10.3694 6.15 10.3594 6.07 10.3594 5.99C10.3594 5.09 11.0894 4.36 11.9794 4.36C12.1294 4.36 12.2294 4.26 12.2294 4.13L12.2394 3.19C12.2494 2.81 12.5594 2.5 12.9394 2.5H12.9494C13.3394 2.5 13.6394 2.82 13.6394 3.21Z" fill="#5A6786"/>
</svg>
