<svg viewBox="0 0 18 18" xmlns="http://www.w3.org/2000/svg">
<path d="M15.3103 5.21996V6.59246C15.3103 7.07246 15.0853 7.52246 14.6953 7.79996L6.44531 13.845C5.91281 14.235 5.18531 14.235 4.66031 13.8375L3.58031 13.0275C3.09281 12.66 2.69531 11.865 2.69531 11.2575V5.21996C2.69531 4.37996 3.34031 3.44996 4.12781 3.15746L8.23031 1.61996C8.65781 1.46246 9.34781 1.46246 9.77531 1.61996L13.8778 3.15746C14.6653 3.44996 15.3103 4.37996 15.3103 5.21996Z"/>
<path d="M14.1181 9.25495C14.6131 8.89495 15.3106 9.24745 15.3106 9.86245V11.2724C15.3106 11.8799 14.9131 12.6674 14.4256 13.0349L10.3231 16.1024C9.96313 16.3649 9.48313 16.4999 9.00313 16.4999C8.52313 16.4999 8.04313 16.3649 7.68313 16.0949L7.06063 15.6299C6.65563 15.3299 6.65563 14.7224 7.06813 14.4224L14.1181 9.25495Z"/>
</svg>
