<svg viewBox="0 0 24 24" xmlns="http://www.w3.org/2000/svg">
<path d="M5.4044 12.6148L5.40547 12.6159L9.4813 16.6477L9.48236 16.6488C9.52776 16.6934 9.56349 16.7462 9.58777 16.804C9.61205 16.8617 9.62448 16.9234 9.62448 16.9856C9.62448 17.0478 9.61205 17.1095 9.58777 17.1673C9.56349 17.225 9.52776 17.2778 9.48236 17.3224L9.48235 17.3224L9.48041 17.3244L8.69683 18.1034C8.69658 18.1036 8.69633 18.1039 8.69608 18.1041C8.60352 18.1949 8.47735 18.2467 8.34474 18.2467C8.21191 18.2467 8.08555 18.1947 7.99295 18.1037C7.99285 18.1036 7.99275 18.1035 7.99265 18.1034L3.9177 14.0724L3.91734 14.072C3.87171 14.027 3.8358 13.9738 3.8114 13.9156C3.787 13.8574 3.77452 13.7952 3.77452 13.7326C3.77452 13.6699 3.787 13.6077 3.8114 13.5495C3.83574 13.4915 3.87154 13.4384 3.91702 13.3934C3.91713 13.3933 3.91723 13.3932 3.91734 13.3931L4.70606 12.6168L4.70606 12.6168L4.70801 12.6148C4.75314 12.5699 4.80709 12.534 4.86691 12.5094C4.92674 12.4848 4.99109 12.472 5.05621 12.472C5.12132 12.472 5.18567 12.4848 5.2455 12.5094C5.30532 12.534 5.35928 12.5699 5.4044 12.6148ZM1.72418 18.1456L3.61349 16.2767L3.64926 16.312L4.52879 17.1808C4.95622 17.6032 5.4017 18.0438 5.71065 18.35L3.82697 20.2134L3.82686 20.2135C3.75548 20.2841 3.67043 20.3405 3.57643 20.379C3.48242 20.4175 3.38147 20.4374 3.2794 20.4374C3.17733 20.4374 3.07638 20.4175 2.98237 20.379C2.88838 20.3405 2.80332 20.2841 2.73194 20.2135L2.73114 20.2127L1.72418 19.2205C1.72386 19.2202 1.72353 19.2198 1.72321 19.2195C1.57959 19.0757 1.5 18.8829 1.5 18.683C1.5 18.4831 1.57969 18.2901 1.72349 18.1463C1.72372 18.1461 1.72395 18.1458 1.72418 18.1456ZM14.9493 3.00041L14.9493 3.00034L14.9493 3.00041ZM18.1617 8.31077L16.759 9.39475L16.4495 9.00276C16.0785 8.53278 15.5814 7.90327 15.0772 7.26524C14.3291 6.31855 13.5591 5.34518 13.166 4.8514L13.8176 4.02956L13.8186 4.02825C13.9505 3.86081 14.1203 3.72561 14.315 3.63378C14.5097 3.54194 14.7237 3.49615 14.9398 3.50027L14.9436 3.50031L18.0103 3.53527L18.0105 3.53527C18.1828 3.53716 18.3465 3.60543 18.4671 3.72396C18.5872 3.84196 18.6553 4.00039 18.6587 4.16546C18.6587 4.16596 18.6587 4.16645 18.6587 4.16695L18.694 7.20116L18.694 7.20116L18.6941 7.2052C18.6983 7.41706 18.6526 7.62716 18.5604 7.81896C18.4682 8.01074 18.3319 8.17919 18.1618 8.31068C18.1618 8.31071 18.1618 8.31074 18.1617 8.31077ZM7.42895 12.1077L7.60857 11.8817L7.76626 12.0036L9.00181 12.9587C9.57293 13.4002 10.163 13.8565 10.5753 14.1754L9.98303 14.6343L9.84813 14.5008L8.83875 13.5023C8.31701 12.9861 7.7732 12.4482 7.42895 12.1077ZM20.1739 20.2755L18.2909 18.4128L18.319 18.3849L19.1979 17.5143L20.3876 16.3358L22.2766 18.2077C22.2768 18.2079 22.2769 18.208 22.2771 18.2081C22.4205 18.3515 22.5 18.5439 22.5 18.7432C22.5 18.9425 22.4206 19.1348 22.2773 19.2781C22.2771 19.2783 22.2769 19.2785 22.2766 19.2788L21.269 20.2755L21.2686 20.2759C21.1973 20.3466 21.1123 20.403 21.0184 20.4415C20.9244 20.4801 20.8235 20.5 20.7214 20.5C20.6194 20.5 20.5185 20.4801 20.4245 20.4415C20.3306 20.403 20.2456 20.3466 20.1743 20.2759L20.1739 20.2755ZM19.3564 12.6155L19.3576 12.6168L20.1438 13.3906C20.1442 13.391 20.1447 13.3914 20.1451 13.3918C20.2361 13.4837 20.2862 13.6061 20.2862 13.7326C20.2862 13.8592 20.236 13.9817 20.1447 14.0737C20.1444 14.074 20.1441 14.0742 20.1438 14.0745L16.072 18.1024C16.0718 18.1026 16.0715 18.1029 16.0713 18.1031C15.9783 18.1938 15.8518 18.2455 15.7189 18.2455C15.5861 18.2455 15.4596 18.1938 15.3666 18.1032C15.3664 18.1029 15.3661 18.1026 15.3658 18.1024L14.5799 17.325C14.5797 17.3248 14.5795 17.3245 14.5793 17.3243C14.4883 17.2332 14.4382 17.1114 14.4382 16.9856C14.4382 16.8598 14.4883 16.738 14.5794 16.6468C14.5796 16.6466 14.5797 16.6465 14.5799 16.6463L18.6543 12.6159L18.6546 12.6155C18.7002 12.5704 18.7546 12.5343 18.8149 12.5095C18.8751 12.4848 18.9399 12.472 19.0055 12.472C19.0711 12.472 19.1359 12.4848 19.1962 12.5095C19.2564 12.5343 19.3108 12.5704 19.3564 12.6155ZM5.90196 8.31077L5.90067 8.30978C5.73085 8.17935 5.5947 8.01182 5.50266 7.82088C5.41064 7.62996 5.36515 7.42069 5.36959 7.20972L5.36965 7.20504L5.40499 4.16755L5.405 4.16643C5.40655 4.00162 5.47323 3.84288 5.59249 3.7245C5.71186 3.60601 5.87448 3.53749 6.04585 3.53527C6.04593 3.53527 6.04602 3.53526 6.04611 3.53526L9.11612 3.50031L9.11658 3.50031C9.33431 3.49763 9.54955 3.54458 9.74558 3.63729C9.94138 3.72991 10.1125 3.86559 10.2461 4.03343C10.2462 4.0336 10.2463 4.03377 10.2465 4.03394L16.6315 12.1106C16.4005 12.3392 16.0907 12.6458 15.7709 12.9624C15.178 13.5494 14.5507 14.1703 14.3275 14.3901L14.3267 14.3909L14.0804 14.6346L5.90196 8.31077Z" />
</svg>
