<svg width="26" height="26" viewBox="0 0 26 26" fill="none" xmlns="http://www.w3.org/2000/svg">
<path d="M23.7286 9.10239C24.5771 7.20225 24.2229 4.89546 22.6637 3.33628C21.1045 1.77709 18.7977 1.42294 16.8976 2.27145L14.6262 0L0 14.6262L2.27145 16.8976C1.42294 18.7977 1.77709 21.1045 3.33628 22.6637C4.89546 24.2229 7.20225 24.5771 9.10239 23.7286L11.3738 26L26 11.3738L23.7286 9.10239ZM14.1815 4.43148L15.7577 6.00763L14.5587 7.20667L12.9825 5.63052L14.1815 4.43148ZM9.27337 16.4724C8.87651 16.8693 8.34879 17.0879 7.78746 17.0879C7.22612 17.0879 6.6984 16.8694 6.30155 16.4724C5.48219 15.6531 5.48219 14.3199 6.30155 13.5006C7.1209 12.6812 8.45401 12.6812 9.27337 13.5006C10.0927 14.32 10.0927 15.6531 9.27337 16.4724ZM10.7287 19.6607L9.7372 10.3671L11.4232 10.1872L12.4147 19.4808L10.7287 19.6607ZM15.8583 16.3553C15.4487 16.7649 14.9104 16.9698 14.3724 16.9698C13.8343 16.9698 13.2963 16.765 12.8865 16.3553C12.0671 15.5359 12.0671 14.2028 12.8865 13.3834C13.2834 12.9865 13.8111 12.7679 14.3724 12.7679C14.9338 12.7679 15.4615 12.9865 15.8583 13.3834C16.2552 13.7803 16.4738 14.308 16.4738 14.8694C16.4738 15.4306 16.2553 15.9584 15.8583 16.3553ZM17.4641 10.1121L15.8879 8.53587L17.0869 7.33687L18.6631 8.91307L17.4641 10.1121ZM20.3695 13.0175L18.7933 11.4413L19.9923 10.2423L21.5685 11.8185L20.3695 13.0175Z" fill="#10AA7C"/>
<path d="M23.7286 9.10239C24.5771 7.20225 24.2229 4.89546 22.6637 3.33628C21.1045 1.77709 18.7977 1.42294 16.8976 2.27145L14.6262 0L0 14.6262L2.27145 16.8976C1.42294 18.7977 1.77709 21.1045 3.33628 22.6637C4.89546 24.2229 7.20225 24.5771 9.10239 23.7286L11.3738 26L26 11.3738L23.7286 9.10239ZM14.1815 4.43148L15.7577 6.00763L14.5587 7.20667L12.9825 5.63052L14.1815 4.43148ZM9.27337 16.4724C8.87651 16.8693 8.34879 17.0879 7.78746 17.0879C7.22612 17.0879 6.6984 16.8694 6.30155 16.4724C5.48219 15.6531 5.48219 14.3199 6.30155 13.5006C7.1209 12.6812 8.45401 12.6812 9.27337 13.5006C10.0927 14.32 10.0927 15.6531 9.27337 16.4724ZM10.7287 19.6607L9.7372 10.3671L11.4232 10.1872L12.4147 19.4808L10.7287 19.6607ZM15.8583 16.3553C15.4487 16.7649 14.9104 16.9698 14.3724 16.9698C13.8343 16.9698 13.2963 16.765 12.8865 16.3553C12.0671 15.5359 12.0671 14.2028 12.8865 13.3834C13.2834 12.9865 13.8111 12.7679 14.3724 12.7679C14.9338 12.7679 15.4615 12.9865 15.8583 13.3834C16.2552 13.7803 16.4738 14.308 16.4738 14.8694C16.4738 15.4306 16.2553 15.9584 15.8583 16.3553ZM17.4641 10.1121L15.8879 8.53587L17.0869 7.33687L18.6631 8.91307L17.4641 10.1121ZM20.3695 13.0175L18.7933 11.4413L19.9923 10.2423L21.5685 11.8185L20.3695 13.0175Z" fill="url(#paint0_linear_321_12648)"/>
<defs>
<linearGradient id="paint0_linear_321_12648" x1="17.7813" y1="0" x2="17.7813" y2="26" gradientUnits="userSpaceOnUse">
<stop stop-color="#24FDBC" stop-opacity="0"/>
<stop offset="1" stop-color="#24FDBC" stop-opacity="0.65"/>
</linearGradient>
</defs>
</svg>
