<svg width="34" height="34" viewBox="0 0 34 34" fill="none" xmlns="http://www.w3.org/2000/svg">
<path d="M32.8453 15C33.5598 16.2376 33.5598 17.7624 32.8453 19L26.6547 29.7224C25.9402 30.96 24.6197 31.7224 23.1906 31.7224L10.8094 31.7224C9.38034 31.7224 8.05983 30.96 7.3453 29.7224L1.1547 19C0.44017 17.7624 0.44017 16.2376 1.1547 15L7.3453 4.27757C8.05983 3.03996 9.38034 2.27757 10.8094 2.27757L23.1906 2.27757C24.6197 2.27757 25.9402 3.03996 26.6547 4.27757L32.8453 15Z" fill="#121722"/>
<path d="M17 24.5C21.14 24.5 24.5 21.14 24.5 17C24.5 12.86 21.14 9.5 17 9.5C12.86 9.5 9.5 12.86 9.5 17C9.5 21.14 12.86 24.5 17 24.5ZM14.375 16.4375L18.2675 16.4375L16.9775 15.1475C16.76 14.93 16.76 14.57 16.9775 14.3525C17.09 14.24 17.2325 14.1875 17.375 14.1875C17.5175 14.1875 17.66 14.24 17.7725 14.3525L20.0225 16.6025C20.24 16.82 20.24 17.18 20.0225 17.3975L17.7725 19.6475C17.555 19.865 17.195 19.865 16.9775 19.6475C16.76 19.43 16.76 19.07 16.9775 18.8525L18.2675 17.5625L14.375 17.5625C14.0675 17.5625 13.8125 17.3075 13.8125 17C13.8125 16.6925 14.0675 16.4375 14.375 16.4375Z" fill="white"/>
</svg>
