<svg viewBox="0 0 25 24" xmlns="http://www.w3.org/2000/svg">
<path d="M11.6789 2.91012C12.0911 2.36655 12.9083 2.36655 13.3204 2.91012L14.6945 4.72223C15.022 5.15415 15.557 5.37578 16.094 5.30195L18.347 4.99218C19.0228 4.89926 19.6006 5.47708 19.5077 6.15288L19.1979 8.40583C19.1241 8.94283 19.3457 9.47788 19.7776 9.80539L21.5897 11.1794C22.1333 11.5916 22.1333 12.4087 21.5897 12.8209L19.7776 14.1949C19.3457 14.5224 19.1241 15.0575 19.1979 15.5945L19.5077 17.8475C19.6006 18.5233 19.0228 19.1011 18.347 19.0082L16.094 18.6984C15.557 18.6246 15.022 18.8462 14.6945 19.2781L13.3204 21.0902C12.9083 21.6338 12.0911 21.6338 11.6789 21.0902L10.3049 19.2781C9.9774 18.8462 9.44234 18.6246 8.90534 18.6984L6.65239 19.0082C5.97659 19.1011 5.39877 18.5233 5.49169 17.8475L5.80146 15.5945C5.87529 15.0575 5.65366 14.5224 5.22174 14.1949L3.40963 12.8209C2.86606 12.4087 2.86606 11.5916 3.40963 11.1794L5.22174 9.80539C5.65366 9.47788 5.87529 8.94282 5.80146 8.40583L5.49169 6.15288C5.39877 5.47708 5.97659 4.89926 6.65239 4.99218L8.90534 5.30195C9.44234 5.37578 9.9774 5.15415 10.3049 4.72223L11.6789 2.91012ZM15.5602 8.9394C14.9744 8.35362 14.0247 8.35362 13.4389 8.9394L11.9321 10.4462C11.976 10.3053 11.9996 10.1554 11.9996 10.0001C11.9996 9.17164 11.328 8.50006 10.4996 8.50006C9.67115 8.50006 8.99957 9.17164 8.99957 10.0001C8.99957 10.8285 9.67115 11.5001 10.4996 11.5001C10.6549 11.5001 10.8048 11.4764 10.9457 11.4326L9.43891 12.9394C8.85313 13.5252 8.85313 14.4749 9.43891 15.0607C10.0247 15.6465 10.9744 15.6465 11.5602 15.0607L13.067 13.5539C13.0232 13.6949 12.9996 13.8447 12.9996 14.0001C12.9996 14.8285 13.6711 15.5001 14.4996 15.5001C15.328 15.5001 15.9996 14.8285 15.9996 14.0001C15.9996 13.1716 15.328 12.5001 14.4996 12.5001C14.3442 12.5001 14.1944 12.5237 14.0534 12.5675L15.5602 11.0607C16.146 10.4749 16.146 9.52519 15.5602 8.9394Z"/>
</svg>
