<svg  viewBox="0 0 25 20" xmlns="http://www.w3.org/2000/svg">
<path d="M9.34568 12.8006C9.42128 12.7198 9.5288 12.6736 9.64166 12.6733H13.0733C13.6066 12.6733 14.0758 12.334 14.2252 11.8404C14.5011 10.9303 15.325 8.8172 16.9009 8.8172H23.3001C23.9227 8.8172 24.4346 8.35998 24.4942 7.77476H23.9891M9.34568 12.8006L8.98136 12.4581M9.34568 12.8006C8.06983 14.1579 6.95396 16.005 7.63788 17.104M9.34568 12.8006L8.98058 12.459C8.98084 12.4587 8.9811 12.4584 8.98136 12.4581M8.98136 12.4581C9.15341 12.2747 9.39335 12.1739 9.64046 12.1733L9.64166 12.1733L13.0733 12.1733C13.3966 12.1733 13.664 11.9685 13.7466 11.6956L13.7467 11.6953C13.8908 11.2201 14.1834 10.4089 14.6624 9.70599C15.1339 9.01389 15.8649 8.3172 16.9009 8.3172H23.3001C23.6588 8.3172 23.9324 8.07183 23.9891 7.77476M8.98136 12.4581C8.32132 13.1603 7.6856 14.006 7.30246 14.8406C6.93103 15.6496 6.73299 16.5957 7.21305 17.3677M23.9891 7.77476H14.9011C14.4214 7.77476 14.0011 7.39534 14.0011 6.88916C14.0011 6.38299 14.4214 6.00356 14.9011 6.00356H24M23.9891 7.77476C23.9963 7.73732 24 7.69906 24 7.66036V7.27476M24 7.27476H14.9011C14.6802 7.27476 14.5011 7.10214 14.5011 6.88916C14.5011 6.67619 14.6802 6.50356 14.9011 6.50356H24V6.00356M24 7.27476L23.3001 1.8762C23.9628 1.8762 24.5 2.39416 24.5 3.03304V6.00356H24M24 7.27476L22.1064 0.500025C22.5102 0.503338 22.8032 0.816696 22.8002 1.16224L22.8001 1.16224V1.16664V1.8762V2.3762H23.3001C23.704 2.3762 24 2.68734 24 3.03304V6.00356M7.63788 17.104L12.8693 8.046L12.8649 7.54602C12.8658 7.54601 12.8666 7.54601 12.8674 7.546C13.3261 7.54288 13.7602 7.77744 13.9981 8.17473L14.0007 8.17902L14.0007 8.17904C14.2333 8.57643 14.2292 9.06517 13.9909 9.45854M7.63788 17.104L7.21337 17.3682C7.21326 17.368 7.21316 17.3679 7.21305 17.3677M7.63788 17.104L7.21305 17.3677M7.21305 17.3677C7.75974 18.2486 7.8042 18.8041 7.65122 19.1354M7.65122 19.1354C7.54214 19.3532 7.30522 19.5021 7.03388 19.5L7.03388 19.5H7.02998L2.40248 19.5L2.40123 19.5C2.20809 19.5004 2.02662 19.4261 1.89621 19.2995M7.65122 19.1354C7.65188 19.1341 7.65254 19.1328 7.65319 19.1314L8.10185 19.3521L7.64925 19.1396C7.64991 19.1382 7.65057 19.1368 7.65122 19.1354ZM1.89621 19.2995C1.28804 18.6502 0.96927 17.8015 1.00234 16.9341L1.0027 16.9246V16.9151C1.0027 16.0773 1.42393 15.2891 1.84281 14.5053C1.85169 14.4887 1.86057 14.4721 1.86944 14.4554L2.20194 13.8595C2.59369 13.2225 2.9243 12.5521 3.18958 11.8566L3.19013 11.8552C3.44718 11.1749 3.53677 10.4456 3.45124 9.7253C3.41171 9.3558 3.25502 9.00948 3.00573 8.733L2.99749 8.72385L2.9888 8.71513C2.84716 8.57279 2.67624 8.46303 2.48849 8.39236C2.33812 8.33421 2.18477 8.28342 2.02892 8.24028L1.79334 8.16955C1.6187 8.11468 1.39489 8.04005 1.21655 7.92507C1.12416 7.86549 1.07028 7.81305 1.03971 7.76703H8.56968M1.89621 19.2995C1.89441 19.2978 1.89263 19.296 1.89085 19.2942L1.53857 19.6491L1.90256 19.3063C1.90044 19.304 1.89832 19.3018 1.89621 19.2995ZM8.56968 7.76703C8.23011 7.99308 8.00174 8.37334 8.00174 8.81725V10.3597C8.00174 11.0788 8.6011 11.6309 9.30167 11.6309H12.2014C12.7668 11.6309 13.2815 11.2702 13.4479 10.7204L13.4489 10.7169C13.5779 10.2788 13.7597 9.8565 13.9909 9.45854M8.56968 7.76703H9.1417C9.19596 7.76703 9.24945 7.76218 9.30167 7.75284C9.46426 7.72374 9.61443 7.65112 9.73639 7.546H9.30167C9.24767 7.546 9.19427 7.54928 9.1417 7.55567C8.93324 7.58098 8.73783 7.6551 8.56968 7.76703ZM13.9909 9.45854C13.9898 9.4604 13.9886 9.46225 13.9875 9.4641L13.5612 9.20284L13.9933 9.45434C13.9925 9.45574 13.9917 9.45714 13.9909 9.45854ZM1.00266 5.99584V3.02532C1.00266 2.67959 1.29864 2.36847 1.70252 2.36847H11.2014V2.6474V3.80424C11.2014 4.31033 11.6216 4.68984 12.1013 4.68984H16.5009C16.9805 4.68984 17.4008 4.31041 17.4008 3.80424V2.6474V2.36847H18.9446H19.3525L19.4344 1.96888C19.5642 1.33604 20.2983 0.729026 22.0079 0.505744C22.0404 0.501674 22.0733 0.499757 22.1064 0.500025L1.00266 5.99584Z" />
</svg>
