<svg viewBox="0 0 24 25" xmlns="http://www.w3.org/2000/svg">
<path d="M19.1709 7.14002C18.7409 4.97002 17.1309 4.02002 14.8909 4.02002H6.11094C3.47094 4.02002 1.71094 5.34002 1.71094 8.42002V13.57C1.71094 15.79 2.62094 17.09 4.12094 17.65C4.34094 17.73 4.58094 17.8 4.83094 17.84C5.23094 17.93 5.66094 17.97 6.11094 17.97H14.9009C17.5409 17.97 19.3009 16.65 19.3009 13.57V8.42002C19.3009 7.95002 19.2609 7.53002 19.1709 7.14002ZM5.53094 12.5C5.53094 12.91 5.19094 13.25 4.78094 13.25C4.37094 13.25 4.03094 12.91 4.03094 12.5V9.50002C4.03094 9.09002 4.37094 8.75002 4.78094 8.75002C5.19094 8.75002 5.53094 9.09002 5.53094 9.50002V12.5ZM10.5009 13.64C9.04094 13.64 7.86094 12.46 7.86094 11C7.86094 9.54002 9.04094 8.36002 10.5009 8.36002C11.9609 8.36002 13.1409 9.54002 13.1409 11C13.1409 12.46 11.9609 13.64 10.5009 13.64ZM16.9609 12.5C16.9609 12.91 16.6209 13.25 16.2109 13.25C15.8009 13.25 15.4609 12.91 15.4609 12.5V9.50002C15.4609 9.09002 15.8009 8.75002 16.2109 8.75002C16.6209 8.75002 16.9609 9.09002 16.9609 9.50002V12.5Z" fill="#5A6786"/>
<path d="M22.3017 11.4198V16.5698C22.3017 19.6498 20.5417 20.9798 17.8917 20.9798H9.11172C8.36172 20.9798 7.69172 20.8698 7.11172 20.6498C6.64172 20.4798 6.23172 20.2298 5.90172 19.9098C5.72172 19.7398 5.86172 19.4698 6.11172 19.4698H14.8917C18.5917 19.4698 20.7917 17.2698 20.7917 13.5798V8.41979C20.7917 8.17979 21.0617 8.02979 21.2317 8.20979C21.9117 8.92979 22.3017 9.97979 22.3017 11.4198Z" fill="#5A6786"/>
</svg>
