<svg width="20" height="20" viewBox="0 0 20 20" fill="none" xmlns="http://www.w3.org/2000/svg">
<path d="M9.99935 1.66675C5.41602 1.66675 1.66602 5.48342 1.66602 10.1501V16.7251C1.66602 17.7751 2.29102 18.0584 3.05768 17.3584L3.89102 16.6001C4.19935 16.3167 4.69935 16.3167 5.00768 16.6001L6.67435 18.1251C6.98268 18.4084 7.48268 18.4084 7.79102 18.1251L9.45768 16.6001C9.76602 16.3167 10.266 16.3167 10.5743 16.6001L12.241 18.1251C12.5493 18.4084 13.0493 18.4084 13.3577 18.1251L15.0243 16.6001C15.3327 16.3167 15.8327 16.3167 16.141 16.6001L16.9743 17.3584C17.741 18.0584 18.366 17.7751 18.366 16.7251V10.1501C18.3327 5.48342 14.5827 1.66675 9.99935 1.66675ZM9.99935 5.51675C11.091 5.51675 11.9827 6.40841 11.9827 7.50008C11.9827 8.59175 11.091 9.48342 9.99935 9.48342C8.90768 9.48342 8.01602 8.59175 8.01602 7.50008C8.01602 6.40841 8.90768 5.51675 9.99935 5.51675ZM13.7077 12.1667C12.616 12.9834 11.3077 13.3917 9.99935 13.3917C8.69102 13.3917 7.38268 12.9834 6.29102 12.1667C6.01602 11.9584 5.95768 11.5667 6.16602 11.2917C6.37435 11.0167 6.76602 10.9584 7.04102 11.1667C8.78268 12.4751 11.216 12.4751 12.9577 11.1667C13.2327 10.9584 13.6243 11.0167 13.8327 11.2917C14.041 11.5667 13.9827 11.9584 13.7077 12.1667Z" fill="#60719A"/>
</svg>
