<svg width="13" height="13" viewBox="0 0 13 13" fill="none" xmlns="http://www.w3.org/2000/svg">
<path d="M10.8327 6.49992V9.74992C10.8327 10.947 9.8631 11.9166 8.66602 11.9166H4.33268C3.1356 11.9166 2.16602 10.947 2.16602 9.74992V6.49992C2.16602 6.202 2.40977 5.95825 2.70768 5.95825H3.77477C4.07268 5.95825 4.31643 6.202 4.31643 6.49992V8.20075C4.31643 8.60159 4.53852 8.96992 4.8906 9.1595C5.04768 9.24617 5.22102 9.2895 5.39977 9.2895C5.6056 9.2895 5.81143 9.22992 5.99018 9.11075L6.50477 8.77492L6.98143 9.0945C7.31185 9.31659 7.73435 9.34367 8.08643 9.15409C8.44393 8.9645 8.66602 8.60159 8.66602 8.19534V6.49992C8.66602 6.202 8.90977 5.95825 9.20768 5.95825H10.291C10.5889 5.95825 10.8327 6.202 10.8327 6.49992Z" fill="#10AA7C"/>
<path d="M10.8327 6.49992V9.74992C10.8327 10.947 9.8631 11.9166 8.66602 11.9166H4.33268C3.1356 11.9166 2.16602 10.947 2.16602 9.74992V6.49992C2.16602 6.202 2.40977 5.95825 2.70768 5.95825H3.77477C4.07268 5.95825 4.31643 6.202 4.31643 6.49992V8.20075C4.31643 8.60159 4.53852 8.96992 4.8906 9.1595C5.04768 9.24617 5.22102 9.2895 5.39977 9.2895C5.6056 9.2895 5.81143 9.22992 5.99018 9.11075L6.50477 8.77492L6.98143 9.0945C7.31185 9.31659 7.73435 9.34367 8.08643 9.15409C8.44393 8.9645 8.66602 8.60159 8.66602 8.19534V6.49992C8.66602 6.202 8.90977 5.95825 9.20768 5.95825H10.291C10.5889 5.95825 10.8327 6.202 10.8327 6.49992Z" fill="url(#paint0_linear_4189_5054)"/>
<path d="M11.6452 3.79159V4.33325C11.6452 4.92909 11.3581 5.41658 10.5619 5.41658H2.43685C1.6081 5.41658 1.35352 4.92909 1.35352 4.33325V3.79159C1.35352 3.19575 1.6081 2.70825 2.43685 2.70825H10.5619C11.3581 2.70825 11.6452 3.19575 11.6452 3.79159Z" fill="#10AA7C"/>
<path d="M11.6452 3.79159V4.33325C11.6452 4.92909 11.3581 5.41658 10.5619 5.41658H2.43685C1.6081 5.41658 1.35352 4.92909 1.35352 4.33325V3.79159C1.35352 3.19575 1.6081 2.70825 2.43685 2.70825H10.5619C11.3581 2.70825 11.6452 3.19575 11.6452 3.79159Z" fill="url(#paint1_linear_4189_5054)"/>
<path d="M6.30582 2.70836H3.31582C3.13165 2.50795 3.13707 2.1992 3.33207 2.0042L4.10124 1.23503C4.30165 1.03461 4.63207 1.03461 4.83249 1.23503L6.30582 2.70836Z" fill="#10AA7C"/>
<path d="M6.30582 2.70836H3.31582C3.13165 2.50795 3.13707 2.1992 3.33207 2.0042L4.10124 1.23503C4.30165 1.03461 4.63207 1.03461 4.83249 1.23503L6.30582 2.70836Z" fill="url(#paint2_linear_4189_5054)"/>
<path d="M9.67945 2.70836H6.68945L8.16279 1.23503C8.3632 1.03461 8.69362 1.03461 8.89404 1.23503L9.6632 2.0042C9.8582 2.1992 9.86362 2.50795 9.67945 2.70836Z" fill="#10AA7C"/>
<path d="M9.67945 2.70836H6.68945L8.16279 1.23503C8.3632 1.03461 8.69362 1.03461 8.89404 1.23503L9.6632 2.0042C9.8582 2.1992 9.86362 2.50795 9.67945 2.70836Z" fill="url(#paint3_linear_4189_5054)"/>
<path d="M7.56638 5.95825C7.8643 5.95825 8.10805 6.202 8.10805 6.49992V8.19534C8.10805 8.62867 7.62596 8.88867 7.26846 8.64492L6.78096 8.31992C6.60221 8.20075 6.3693 8.20075 6.18513 8.31992L5.67596 8.65575C5.31846 8.89408 4.8418 8.63408 4.8418 8.20617V6.49992C4.8418 6.202 5.08555 5.95825 5.38346 5.95825H7.56638Z" fill="#10AA7C"/>
<path d="M7.56638 5.95825C7.8643 5.95825 8.10805 6.202 8.10805 6.49992V8.19534C8.10805 8.62867 7.62596 8.88867 7.26846 8.64492L6.78096 8.31992C6.60221 8.20075 6.3693 8.20075 6.18513 8.31992L5.67596 8.65575C5.31846 8.89408 4.8418 8.63408 4.8418 8.20617V6.49992C4.8418 6.202 5.08555 5.95825 5.38346 5.95825H7.56638Z" fill="url(#paint4_linear_4189_5054)"/>
<defs>
<linearGradient id="paint0_linear_4189_5054" x1="8.09313" y1="5.95825" x2="8.09313" y2="11.9166" gradientUnits="userSpaceOnUse">
<stop stop-color="#24FDBC" stop-opacity="0"/>
<stop offset="1" stop-color="#24FDBC" stop-opacity="0.65"/>
</linearGradient>
<linearGradient id="paint1_linear_4189_5054" x1="8.39196" y1="2.70825" x2="8.39196" y2="5.41659" gradientUnits="userSpaceOnUse">
<stop stop-color="#24FDBC" stop-opacity="0"/>
<stop offset="1" stop-color="#24FDBC" stop-opacity="0.65"/>
</linearGradient>
<linearGradient id="paint2_linear_4189_5054" x1="5.31826" y1="1.08472" x2="5.31826" y2="2.70836" gradientUnits="userSpaceOnUse">
<stop stop-color="#24FDBC" stop-opacity="0"/>
<stop offset="1" stop-color="#24FDBC" stop-opacity="0.65"/>
</linearGradient>
<linearGradient id="paint3_linear_4189_5054" x1="8.82607" y1="1.08472" x2="8.82607" y2="2.70836" gradientUnits="userSpaceOnUse">
<stop stop-color="#24FDBC" stop-opacity="0"/>
<stop offset="1" stop-color="#24FDBC" stop-opacity="0.65"/>
</linearGradient>
<linearGradient id="paint4_linear_4189_5054" x1="7.07558" y1="5.95825" x2="7.07558" y2="8.7464" gradientUnits="userSpaceOnUse">
<stop stop-color="#24FDBC" stop-opacity="0"/>
<stop offset="1" stop-color="#24FDBC" stop-opacity="0.65"/>
</linearGradient>
</defs>
</svg>
