<svg viewBox="0 0 20 20" xmlns="http://www.w3.org/2000/svg">
<path d="M13.5404 18.7502C14.3458 18.7502 14.9987 18.0972 14.9987 17.2918C14.9987 16.4864 14.3458 15.8335 13.5404 15.8335C12.7349 15.8335 12.082 16.4864 12.082 17.2918C12.082 18.0972 12.7349 18.7502 13.5404 18.7502Z" fill="#121722"/>
<path d="M6.8763 18.7502C7.68172 18.7502 8.33464 18.0972 8.33464 17.2918C8.33464 16.4864 7.68172 15.8335 6.8763 15.8335C6.07089 15.8335 5.41797 16.4864 5.41797 17.2918C5.41797 18.0972 6.07089 18.7502 6.8763 18.7502Z" fill="#121722"/>
<path d="M4.03464 3.28317L3.86797 5.32484C3.83464 5.7165 4.14297 6.0415 4.53464 6.0415H17.293C17.643 6.0415 17.9346 5.77484 17.9596 5.42484C18.068 3.94984 16.943 2.74984 15.468 2.74984H5.2263C5.14297 2.38317 4.9763 2.03317 4.71797 1.7415C4.3013 1.29984 3.71797 1.0415 3.11797 1.0415H1.66797C1.3263 1.0415 1.04297 1.32484 1.04297 1.6665C1.04297 2.00817 1.3263 2.2915 1.66797 2.2915H3.11797C3.3763 2.2915 3.61797 2.39984 3.79297 2.58317C3.96797 2.77484 4.0513 3.02484 4.03464 3.28317Z" fill="#121722"/>
<path d="M17.0904 7.2915H4.30708C3.95708 7.2915 3.67374 7.55817 3.64041 7.89984L3.34041 11.5248C3.22374 12.9498 4.34041 14.1665 5.76541 14.1665H15.0321C16.2821 14.1665 17.3821 13.1415 17.4737 11.8915L17.7487 7.99984C17.7821 7.6165 17.4821 7.2915 17.0904 7.2915Z" fill="#121722"/>
</svg>
