<svg viewBox="0 0 24 24" xmlns="http://www.w3.org/2000/svg">
<path d="M3.16667 6.66667C3.16667 6.20643 3.53976 5.83333 4 5.83333H20C20.4602 5.83333 20.8333 6.20643 20.8333 6.66667V20C20.8333 21.933 19.2663 23.5 17.3333 23.5H6.66667C4.73367 23.5 3.16667 21.933 3.16667 20V6.66667ZM13.2964 8.03697C12.5804 7.32101 11.4196 7.32101 10.7036 8.03697L8.03697 10.7036C7.32101 11.4196 7.32101 12.5804 8.03697 13.2964C8.61331 13.8727 9.4779 13.9851 10.1667 13.6335V20C10.1667 21.0125 10.9875 21.8333 12 21.8333C13.0125 21.8333 13.8333 21.0125 13.8333 20V13.6335C14.5221 13.9851 15.3867 13.8727 15.963 13.2964C16.679 12.5804 16.679 11.4196 15.963 10.7036L13.2964 8.03697ZM0.5 1.33333C0.5 0.873096 0.873096 0.5 1.33333 0.5H22.6667C23.1269 0.5 23.5 0.873095 23.5 1.33333C23.5 1.79357 23.1269 2.16667 22.6667 2.16667H1.33333C0.873096 2.16667 0.5 1.79357 0.5 1.33333Z"/>
</svg>
