<svg width="38" height="38" viewBox="0 0 38 38" fill="none" xmlns="http://www.w3.org/2000/svg">
<g filter="url(#filter0_d_0_1)">
<path d="M12.8833 27.0671C12.3658 27.0671 11.9458 26.6471 11.9458 26.1296V25.0562C11.9458 24.5387 12.3658 24.1187 12.8833 24.1187C13.4008 24.1187 13.8208 24.5387 13.8208 25.0562V26.1296C13.8208 26.6471 13.4008 27.0671 12.8833 27.0671Z" fill="#10AA7C" stroke="#24FDBC" stroke-width="0.5"/>
<path d="M24.8209 27.2912C24.3034 27.2912 23.8834 26.8712 23.8834 26.3537V25.0562C23.8834 24.5387 24.3034 24.1187 24.8209 24.1187C25.3384 24.1187 25.7584 24.5387 25.7584 25.0562V26.3537C25.7584 26.8712 25.3389 27.2912 24.8209 27.2912Z" fill="#10AA7C" stroke="#24FDBC" stroke-width="0.5"/>
<path d="M12.8833 25.9937C12.8824 25.9937 12.8814 25.9937 12.8805 25.9937C12.363 25.9923 11.9444 25.5709 11.9458 25.0534C11.951 23.5032 12.5847 22.0942 13.7781 20.979C15.1938 19.6557 17.2928 18.9146 19.2649 19.0398C22.4041 19.2423 25.7472 21.4187 25.7589 25.0539C25.7603 25.5714 25.3422 25.9928 24.8242 25.9942C24.8233 25.9942 24.8224 25.9942 24.8214 25.9942C24.3049 25.9942 23.8853 25.5765 23.8839 25.0595C23.876 22.6534 21.468 21.0606 19.1444 20.911C17.673 20.8135 16.1088 21.3667 15.0588 22.3487C14.4963 22.8742 13.825 23.7709 13.8208 25.0595C13.8189 25.576 13.3994 25.9937 12.8833 25.9937Z" fill="#10AA7C" stroke="#24FDBC" stroke-width="0.5"/>
<path d="M18.9878 20.8896C16.7012 20.8896 14.769 18.9575 14.769 16.6709C14.769 14.3843 16.7012 12.4521 18.9878 12.4521C21.2744 12.4521 23.2065 14.3843 23.2065 16.6709C23.2065 18.9575 21.2748 20.8896 18.9878 20.8896ZM18.9878 14.3271C17.739 14.3271 16.644 15.4221 16.644 16.6709C16.644 17.9196 17.739 19.0146 18.9878 19.0146C20.2365 19.0146 21.3315 17.9196 21.3315 16.6709C21.3315 15.4221 20.2365 14.3271 18.9878 14.3271Z" fill="#10AA7C" stroke="#24FDBC" stroke-width="0.5"/>
<path d="M18.9316 29.2895C17.3711 29.2895 15.8739 28.9501 14.4803 28.2817C9.91609 26.0903 7.60281 20.5759 9.21391 15.7281C10.5869 11.5965 14.6397 8.71045 19.0689 8.71045C19.6403 8.71045 20.2141 8.75967 20.7737 8.8567C25.6352 9.69951 29.3003 14.0664 29.3003 19.0145C29.3003 20.8872 28.7814 22.7345 27.7989 24.3578C25.9581 27.3995 22.5602 29.2895 18.9316 29.2895ZM19.0689 10.5854C15.4361 10.5854 12.115 12.9433 10.9928 16.3192C9.67375 20.2886 11.5619 24.8003 15.2917 26.5909C16.4298 27.1375 17.6547 27.4145 18.9311 27.4145C21.9081 27.4145 24.6911 25.8714 26.1948 23.387C26.9997 22.0567 27.4253 20.545 27.4253 19.0145C27.4253 15.032 24.363 11.3819 20.4531 10.704C19.9989 10.6253 19.5334 10.5854 19.0689 10.5854Z" fill="#10AA7C" stroke="#24FDBC" stroke-width="0.5"/>
</g>
<defs>
<filter id="filter0_d_0_1" x="0.952332" y="0.960449" width="36.098" height="36.0791" filterUnits="userSpaceOnUse" color-interpolation-filters="sRGB">
<feFlood flood-opacity="0" result="BackgroundImageFix"/>
<feColorMatrix in="SourceAlpha" type="matrix" values="0 0 0 0 0 0 0 0 0 0 0 0 0 0 0 0 0 0 127 0" result="hardAlpha"/>
<feOffset/>
<feGaussianBlur stdDeviation="3.75"/>
<feComposite in2="hardAlpha" operator="out"/>
<feColorMatrix type="matrix" values="0 0 0 0 0.141176 0 0 0 0 0.992157 0 0 0 0 0.737255 0 0 0 0.35 0"/>
<feBlend mode="normal" in2="BackgroundImageFix" result="effect1_dropShadow_0_1"/>
<feBlend mode="normal" in="SourceGraphic" in2="effect1_dropShadow_0_1" result="shape"/>
</filter>
</defs>
</svg>
