<svg width="16" height="16" viewBox="0 0 16 16" xmlns="http://www.w3.org/2000/svg">
<path d="M7.41919 10.5867C7.25253 10.5867 7.08586 10.5 6.99253 10.3467C6.85253 10.1133 6.92586 9.8 7.16586 9.66L7.75919 9.30667V8.58667C7.75919 8.31334 7.98586 8.08667 8.25919 8.08667C8.53253 8.08667 8.75919 8.31334 8.75919 8.58667V9.58667C8.75919 9.76 8.66586 9.92667 8.51919 10.0133L7.68586 10.5133C7.59253 10.56 7.50586 10.5867 7.41919 10.5867Z"/>
<path d="M14.0607 4.65326C13.494 4.0266 12.554 3.71327 11.174 3.71327H11.014V3.6866C11.014 2.5666 11.014 1.17993 8.50734 1.17993H7.49401C4.98734 1.17993 4.98734 2.5666 4.98734 3.6866V3.71327H4.82734C3.44734 3.71327 2.50068 4.0266 1.94068 4.65326C1.28068 5.39327 1.30068 6.37326 1.36734 7.0466L1.37401 7.09327L1.41309 7.54924C1.42629 7.70318 1.50971 7.84268 1.63962 7.92633C1.80834 8.03496 1.9845 8.14576 2.15401 8.23993C2.24734 8.29993 2.34734 8.35327 2.44734 8.4066C3.20068 8.81993 4.00734 9.1466 4.83401 9.37327C4.85401 11.0999 6.26734 12.4999 8.00068 12.4999C9.74734 12.4999 11.1673 11.0799 11.1673 9.33327V9.3066C12.0073 9.05327 12.814 8.69993 13.5673 8.25993C13.6073 8.23993 13.634 8.21993 13.6673 8.19993C13.9093 8.06842 14.1596 7.89954 14.392 7.73588C14.5082 7.65408 14.583 7.52592 14.5987 7.38471L14.6007 7.3666L14.634 7.05326C14.6407 7.01326 14.6407 6.97993 14.6473 6.93326C14.7007 6.2666 14.6873 5.3466 14.0607 4.65326ZM5.94068 3.6866C5.94068 2.55327 5.94068 2.1266 7.49401 2.1266H8.50734C10.0607 2.1266 10.0607 2.55327 10.0607 3.6866V3.71327H5.94068V3.6866ZM8.00068 11.4999C6.90068 11.4999 5.98734 10.6733 5.85401 9.6066C5.84068 9.51993 5.83401 9.4266 5.83401 9.33327C5.83401 8.13993 6.80734 7.1666 8.00068 7.1666C9.19401 7.1666 10.1673 8.13993 10.1673 9.33327C10.1673 9.41327 10.1607 9.4866 10.154 9.55993V9.5666C10.034 10.6533 9.11401 11.4999 8.00068 11.4999Z"/>
<path d="M14.0264 9.15333C14.1922 9.06121 14.4073 9.19469 14.39 9.38358L14.1531 11.9733C14.0131 13.3067 13.4664 14.6667 10.5331 14.6667H5.45307C2.51974 14.6667 1.97307 13.3067 1.83974 11.98L1.60916 9.51112C1.59126 9.31943 1.79626 9.18992 1.96641 9.28C2.48641 9.56666 3.02641 9.82 3.57974 10.02C3.78641 10.0933 3.93307 10.2667 3.99307 10.48C4.49307 12.2133 6.10641 13.5 7.99974 13.5C9.92641 13.5 11.5531 12.1867 12.0264 10.3867C12.0797 10.1733 12.2264 10 12.4331 9.92C12.9931 9.7 13.5264 9.44 14.0264 9.15333Z"/>
</svg>
