<svg width="38" height="38" viewBox="0 0 38 38" fill="none" xmlns="http://www.w3.org/2000/svg">
<path d="M0 19C0 29.48 8.52001 38 19.0001 38C29.48 38 38 29.48 38 19C38 8.51999 29.48 0 19.0001 0C8.52001 0 0 8.51999 0 19ZM18.42 11.58L24.4201 17.58C24.8 17.98 25.0001 18.48 25.0001 19C25.0001 19.5201 24.8 20.02 24.4201 20.4201L18.42 26.4201C17.64 27.2001 16.3601 27.2001 15.5801 26.4201C14.8001 25.6401 14.8001 24.36 15.5801 23.58L20.1802 19L15.5801 14.4201C14.8001 13.6401 14.8001 12.36 15.5801 11.58C16.3601 10.8 17.64 10.8 18.42 11.58Z" fill="white"/>
</svg>
