<svg width="24" height="24" viewBox="0 0 24 24" xmlns="http://www.w3.org/2000/svg">
<path d="M19 8.99993H14C12.6744 9.00152 11.4035 9.52881 10.4662 10.4662C9.52883 11.4035 9.00154 12.6743 8.99995 13.9999V18.9999C9.00154 20.3255 9.52883 21.5964 10.4662 22.5337C11.4035 23.4711 12.6744 23.9983 14 23.9999H19C20.3255 23.9983 21.5964 23.4711 22.5337 22.5337C23.4711 21.5964 23.9984 20.3255 24 18.9999V13.9999C23.9984 12.6743 23.4711 11.4035 22.5337 10.4662C21.5964 9.52881 20.3255 9.00152 19 8.99993ZM14 14.9999C13.8022 14.9999 13.6088 14.9413 13.4444 14.8314C13.2799 14.7215 13.1518 14.5653 13.0761 14.3826C13.0004 14.1999 12.9806 13.9988 13.0192 13.8048C13.0578 13.6109 13.153 13.4327 13.2928 13.2928C13.4327 13.153 13.6109 13.0577 13.8049 13.0191C13.9988 12.9806 14.1999 13.0004 14.3826 13.0761C14.5654 13.1517 14.7215 13.2799 14.8314 13.4444C14.9413 13.6088 15 13.8021 15 13.9999C15 14.2651 14.8946 14.5195 14.7071 14.707C14.5195 14.8946 14.2652 14.9999 14 14.9999ZM19 19.9999C18.8022 19.9999 18.6088 19.9413 18.4444 19.8314C18.2799 19.7215 18.1518 19.5653 18.0761 19.3826C18.0004 19.1999 17.9806 18.9988 18.0192 18.8048C18.0578 18.6109 18.153 18.4327 18.2928 18.2928C18.4327 18.153 18.6109 18.0577 18.8049 18.0191C18.9988 17.9806 19.1999 18.0004 19.3826 18.0761C19.5654 18.1517 19.7215 18.2799 19.8314 18.4444C19.9413 18.6088 20 18.8022 20 18.9999C20 19.2651 19.8946 19.5195 19.7071 19.707C19.5195 19.8946 19.2652 19.9999 19 19.9999ZM15.6 4.99993L12.069 1.46193C11.1306 0.526348 9.85954 0.000976563 8.53445 0.000976562C7.20936 0.000976563 5.93833 0.526348 4.99995 1.46193L1.46195 4.99993C0.525758 5.93839 0 7.20985 0 8.53543C0 9.86101 0.525758 11.1325 1.46195 12.0709L4.99995 15.5999C5.55934 16.1615 6.24515 16.5809 6.99995 16.8229V13.9999C7.00207 12.1441 7.74025 10.3648 9.05254 9.05252C10.3648 7.74023 12.1441 7.00205 14 6.99993H16.827C16.5838 6.24474 16.163 5.55889 15.6 4.99993ZM4.99995 9.99993C4.80217 9.99993 4.60883 9.94128 4.44438 9.8314C4.27993 9.72152 4.15176 9.56534 4.07607 9.38262C4.00038 9.19989 3.98058 8.99882 4.01917 8.80484C4.05775 8.61086 4.15299 8.43268 4.29284 8.29282C4.4327 8.15297 4.61088 8.05773 4.80486 8.01915C4.99884 7.98056 5.19991 8.00036 5.38263 8.07605C5.56536 8.15174 5.72154 8.27991 5.83142 8.44436C5.9413 8.60881 5.99995 8.80215 5.99995 8.99993C5.99995 9.26515 5.89459 9.5195 5.70706 9.70704C5.51952 9.89457 5.26517 9.99993 4.99995 9.99993ZM8.99995 5.99993C8.80217 5.99993 8.60883 5.94128 8.44438 5.8314C8.27993 5.72152 8.15176 5.56534 8.07607 5.38261C8.00038 5.19989 7.98058 4.99882 8.01917 4.80484C8.05775 4.61086 8.15299 4.43268 8.29284 4.29282C8.4327 4.15297 8.61088 4.05773 8.80486 4.01915C8.99884 3.98056 9.19991 4.00036 9.38264 4.07605C9.56536 4.15174 9.72154 4.27991 9.83142 4.44436C9.9413 4.60881 9.99995 4.80215 9.99995 4.99993C9.99995 5.26515 9.8946 5.5195 9.70706 5.70704C9.51952 5.89457 9.26517 5.99993 8.99995 5.99993Z"/>
<path d="M19 8.99993H14C12.6744 9.00152 11.4035 9.52881 10.4662 10.4662C9.52883 11.4035 9.00154 12.6743 8.99995 13.9999V18.9999C9.00154 20.3255 9.52883 21.5964 10.4662 22.5337C11.4035 23.4711 12.6744 23.9983 14 23.9999H19C20.3255 23.9983 21.5964 23.4711 22.5337 22.5337C23.4711 21.5964 23.9984 20.3255 24 18.9999V13.9999C23.9984 12.6743 23.4711 11.4035 22.5337 10.4662C21.5964 9.52881 20.3255 9.00152 19 8.99993ZM14 14.9999C13.8022 14.9999 13.6088 14.9413 13.4444 14.8314C13.2799 14.7215 13.1518 14.5653 13.0761 14.3826C13.0004 14.1999 12.9806 13.9988 13.0192 13.8048C13.0578 13.6109 13.153 13.4327 13.2928 13.2928C13.4327 13.153 13.6109 13.0577 13.8049 13.0191C13.9988 12.9806 14.1999 13.0004 14.3826 13.0761C14.5654 13.1517 14.7215 13.2799 14.8314 13.4444C14.9413 13.6088 15 13.8021 15 13.9999C15 14.2651 14.8946 14.5195 14.7071 14.707C14.5195 14.8946 14.2652 14.9999 14 14.9999ZM19 19.9999C18.8022 19.9999 18.6088 19.9413 18.4444 19.8314C18.2799 19.7215 18.1518 19.5653 18.0761 19.3826C18.0004 19.1999 17.9806 18.9988 18.0192 18.8048C18.0578 18.6109 18.153 18.4327 18.2928 18.2928C18.4327 18.153 18.6109 18.0577 18.8049 18.0191C18.9988 17.9806 19.1999 18.0004 19.3826 18.0761C19.5654 18.1517 19.7215 18.2799 19.8314 18.4444C19.9413 18.6088 20 18.8022 20 18.9999C20 19.2651 19.8946 19.5195 19.7071 19.707C19.5195 19.8946 19.2652 19.9999 19 19.9999ZM15.6 4.99993L12.069 1.46193C11.1306 0.526348 9.85954 0.000976563 8.53445 0.000976562C7.20936 0.000976563 5.93833 0.526348 4.99995 1.46193L1.46195 4.99993C0.525758 5.93839 0 7.20985 0 8.53543C0 9.86101 0.525758 11.1325 1.46195 12.0709L4.99995 15.5999C5.55934 16.1615 6.24515 16.5809 6.99995 16.8229V13.9999C7.00207 12.1441 7.74025 10.3648 9.05254 9.05252C10.3648 7.74023 12.1441 7.00205 14 6.99993H16.827C16.5838 6.24474 16.163 5.55889 15.6 4.99993ZM4.99995 9.99993C4.80217 9.99993 4.60883 9.94128 4.44438 9.8314C4.27993 9.72152 4.15176 9.56534 4.07607 9.38262C4.00038 9.19989 3.98058 8.99882 4.01917 8.80484C4.05775 8.61086 4.15299 8.43268 4.29284 8.29282C4.4327 8.15297 4.61088 8.05773 4.80486 8.01915C4.99884 7.98056 5.19991 8.00036 5.38263 8.07605C5.56536 8.15174 5.72154 8.27991 5.83142 8.44436C5.9413 8.60881 5.99995 8.80215 5.99995 8.99993C5.99995 9.26515 5.89459 9.5195 5.70706 9.70704C5.51952 9.89457 5.26517 9.99993 4.99995 9.99993ZM8.99995 5.99993C8.80217 5.99993 8.60883 5.94128 8.44438 5.8314C8.27993 5.72152 8.15176 5.56534 8.07607 5.38261C8.00038 5.19989 7.98058 4.99882 8.01917 4.80484C8.05775 4.61086 8.15299 4.43268 8.29284 4.29282C8.4327 4.15297 8.61088 4.05773 8.80486 4.01915C8.99884 3.98056 9.19991 4.00036 9.38264 4.07605C9.56536 4.15174 9.72154 4.27991 9.83142 4.44436C9.9413 4.60881 9.99995 4.80215 9.99995 4.99993C9.99995 5.26515 9.8946 5.5195 9.70706 5.70704C9.51952 5.89457 9.26517 5.99993 8.99995 5.99993Z"/>
</svg>
