<svg width="30" height="26" viewBox="0 0 30 26" fill="none" xmlns="http://www.w3.org/2000/svg">
<path d="M28.4123 11.25C29.0375 12.3329 29.0375 13.6671 28.4123 14.75L23.2217 23.7404C22.5965 24.8233 21.441 25.4904 20.1906 25.4904L9.8094 25.4904C8.55897 25.4904 7.40353 24.8233 6.77831 23.7404L1.58771 14.75C0.962499 13.6671 0.962499 12.3329 1.58771 11.25L6.77831 2.25962C7.40353 1.17671 8.55897 0.509618 9.8094 0.509618L20.1906 0.509618C21.441 0.509618 22.5965 1.17671 23.2217 2.25962L28.4123 11.25Z" fill="#10AA7C"/>
<path d="M28.4123 11.25C29.0375 12.3329 29.0375 13.6671 28.4123 14.75L23.2217 23.7404C22.5965 24.8233 21.441 25.4904 20.1906 25.4904L9.8094 25.4904C8.55897 25.4904 7.40353 24.8233 6.77831 23.7404L1.58771 14.75C0.962499 13.6671 0.962499 12.3329 1.58771 11.25L6.77831 2.25962C7.40353 1.17671 8.55897 0.509618 9.8094 0.509618L20.1906 0.509618C21.441 0.509618 22.5965 1.17671 23.2217 2.25962L28.4123 11.25Z" fill="url(#paint0_linear_4013_7890)"/>
<path d="M28.4123 11.25C29.0375 12.3329 29.0375 13.6671 28.4123 14.75L23.2217 23.7404C22.5965 24.8233 21.441 25.4904 20.1906 25.4904L9.8094 25.4904C8.55897 25.4904 7.40353 24.8233 6.77831 23.7404L1.58771 14.75C0.962499 13.6671 0.962499 12.3329 1.58771 11.25L6.77831 2.25962C7.40353 1.17671 8.55897 0.509618 9.8094 0.509618L20.1906 0.509618C21.441 0.509618 22.5965 1.17671 23.2217 2.25962L28.4123 11.25Z" stroke="url(#paint1_linear_4013_7890)"/>
<path d="M28.4123 11.25C29.0375 12.3329 29.0375 13.6671 28.4123 14.75L23.2217 23.7404C22.5965 24.8233 21.441 25.4904 20.1906 25.4904L9.8094 25.4904C8.55897 25.4904 7.40353 24.8233 6.77831 23.7404L1.58771 14.75C0.962499 13.6671 0.962499 12.3329 1.58771 11.25L6.77831 2.25962C7.40353 1.17671 8.55897 0.509618 9.8094 0.509618L20.1906 0.509618C21.441 0.509618 22.5965 1.17671 23.2217 2.25962L28.4123 11.25Z" stroke="url(#paint2_linear_4013_7890)"/>
<defs>
<linearGradient id="paint0_linear_4013_7890" x1="30" y1="18.5169" x2="-7.77614e-07" y2="18.5169" gradientUnits="userSpaceOnUse">
<stop stop-color="#24FDBC" stop-opacity="0"/>
<stop offset="1" stop-color="#24FDBC" stop-opacity="0.65"/>
</linearGradient>
<linearGradient id="paint1_linear_4013_7890" x1="15" y1="19.301" x2="15" y2="24.855" gradientUnits="userSpaceOnUse">
<stop offset="0.347781" stop-color="#24FDBC" stop-opacity="0"/>
<stop offset="1" stop-color="#24FDBC"/>
</linearGradient>
<linearGradient id="paint2_linear_4013_7890" x1="15" y1="15.7726" x2="15" y2="10.6107" gradientUnits="userSpaceOnUse">
<stop stop-color="#24FDBC" stop-opacity="0"/>
<stop offset="1" stop-color="#24FDBC"/>
</linearGradient>
</defs>
</svg>
