<svg width="16" height="16" viewBox="0 0 16 16" xmlns="http://www.w3.org/2000/svg">
<path d="M13.3327 7.99992V11.9999C13.3327 13.4733 12.1393 14.6666 10.666 14.6666H5.33268C3.85935 14.6666 2.66602 13.4733 2.66602 11.9999V7.99992C2.66602 7.63325 2.96602 7.33325 3.33268 7.33325H4.64602C5.01268 7.33325 5.31268 7.63325 5.31268 7.99992V10.0933C5.31268 10.5866 5.58602 11.0399 6.01935 11.2733C6.21268 11.3799 6.42602 11.4333 6.64602 11.4333C6.89935 11.4333 7.15268 11.3599 7.37268 11.2133L8.00602 10.7999L8.59268 11.1933C8.99935 11.4666 9.51935 11.4999 9.95268 11.2666C10.3927 11.0333 10.666 10.5866 10.666 10.0866V7.99992C10.666 7.63325 10.966 7.33325 11.3327 7.33325H12.666C13.0327 7.33325 13.3327 7.63325 13.3327 7.99992Z"/>
<path d="M14.3327 4.66659V5.33325C14.3327 6.06659 13.9793 6.66658 12.9993 6.66658H2.99935C1.97935 6.66658 1.66602 6.06659 1.66602 5.33325V4.66659C1.66602 3.93325 1.97935 3.33325 2.99935 3.33325H12.9993C13.9793 3.33325 14.3327 3.93325 14.3327 4.66659Z"/>
<path d="M7.75921 3.33329H4.07921C3.85254 3.08663 3.85921 2.70663 4.09921 2.46663L5.04587 1.51996C5.29254 1.27329 5.69921 1.27329 5.94587 1.51996L7.75921 3.33329Z"/>
<path d="M11.9124 3.33329H8.23242L10.0458 1.51996C10.2924 1.27329 10.6991 1.27329 10.9458 1.51996L11.8924 2.46663C12.1324 2.70663 12.1391 3.08663 11.9124 3.33329Z"/>
<path d="M9.31427 7.33325C9.68094 7.33325 9.98094 7.63325 9.98094 7.99992V10.0866C9.98094 10.6199 9.3876 10.9399 8.9476 10.6399L8.3476 10.2399C8.1276 10.0933 7.84094 10.0933 7.61427 10.2399L6.9876 10.6533C6.5476 10.9466 5.96094 10.6266 5.96094 10.0999V7.99992C5.96094 7.63325 6.26094 7.33325 6.6276 7.33325H9.31427Z"/>
</svg>
