<svg viewBox="0 0 14 18" xmlns="http://www.w3.org/2000/svg">
<path d="M13.6111 6.75H12.4444V5.24999C12.4444 2.35512 10.0021 0 7 0C3.99787 0 1.55557 2.35512 1.55557 5.24999V5.625C1.55557 5.83228 1.72951 6.00001 1.94447 6.00001H3.5C3.71496 6.00001 3.8889 5.83228 3.8889 5.625V5.24999C3.8889 3.59582 5.28456 2.25 7 2.25C8.71544 2.25 10.1111 3.59582 10.1111 5.24999V6.75H0.388901C0.173943 6.75 0 6.91773 0 7.12501V16.5C0 17.3273 0.69763 18 1.55557 18H12.4445C13.3024 18 14 17.3273 14 16.5V7.12501C14 6.91773 13.8261 6.75 13.6111 6.75ZM8.16441 14.5836C8.17655 14.6894 8.14126 14.7956 8.06757 14.8751C7.99389 14.9546 7.88831 15 7.7778 15H6.22223C6.11173 15 6.00615 14.9546 5.93246 14.8751C5.85878 14.7957 5.82345 14.6895 5.83563 14.5836L6.08096 12.4563C5.68258 12.1769 5.44447 11.7349 5.44447 11.25C5.44447 10.4227 6.1421 9.74999 7.00004 9.74999C7.85797 9.74999 8.5556 10.4227 8.5556 11.25C8.5556 11.7349 8.31749 12.1769 7.91911 12.4563L8.16441 14.5836Z" fill="#19D099"/>
</svg>
