<svg viewBox="0 0 24 24" xmlns="http://www.w3.org/2000/svg">
<path fill-rule="evenodd" clip-rule="evenodd" d="M12 22C16.4182 22 19.9999 18.4183 19.9999 14C19.9999 9.58172 16.4182 6 12 6C7.58171 6 4 9.58172 4 14C4 18.4183 7.58171 22 12 22ZM12 10C11.4477 10 11 10.4477 11 11V14C11 14.5523 11.4477 15 12 15C12.5523 15 13 14.5523 13 14V11C13 10.4477 12.5523 10 12 10Z"/>
<path fill-rule="evenodd" clip-rule="evenodd" d="M12 22C16.4182 22 19.9999 18.4183 19.9999 14C19.9999 9.58172 16.4182 6 12 6C7.58171 6 4 9.58172 4 14C4 18.4183 7.58171 22 12 22ZM12 10C11.4477 10 11 10.4477 11 11V14C11 14.5523 11.4477 15 12 15C12.5523 15 13 14.5523 13 14V11C13 10.4477 12.5523 10 12 10Z" />
<path fill-rule="evenodd" clip-rule="evenodd" d="M11 2C10.4477 2 9.99998 2.44772 9.99998 3C9.99998 3.55228 10.4477 4 11 4H13C13.5522 4 14 3.55228 14 3C14 2.44772 13.5522 2 13 2H11ZM18.5999 3.95C18.1581 3.61863 17.5313 3.70817 17.2 4.15C16.8686 4.59183 16.9581 5.21863 17.4 5.55L18.3999 6.3C18.8418 6.63137 19.4686 6.54183 19.7999 6.1C20.1313 5.65817 20.0418 5.03137 19.5999 4.7L18.5999 3.95Z"/>
<path fill-rule="evenodd" clip-rule="evenodd" d="M11 2C10.4477 2 9.99998 2.44772 9.99998 3C9.99998 3.55228 10.4477 4 11 4H13C13.5522 4 14 3.55228 14 3C14 2.44772 13.5522 2 13 2H11ZM18.5999 3.95C18.1581 3.61863 17.5313 3.70817 17.2 4.15C16.8686 4.59183 16.9581 5.21863 17.4 5.55L18.3999 6.3C18.8418 6.63137 19.4686 6.54183 19.7999 6.1C20.1313 5.65817 20.0418 5.03137 19.5999 4.7L18.5999 3.95Z" />
</svg>
