<svg viewBox="0 0 24 24" xmlns="http://www.w3.org/2000/svg">
<path d="M15.7541 8.33896C15.6037 8.55688 15.359 8.67454 15.1101 8.67454C14.9597 8.67454 14.8073 8.63157 14.6735 8.54153L12.1255 6.83296C12.056 6.78794 11.945 6.78896 11.86 6.84319L9.32652 8.54153C8.97185 8.78094 8.48756 8.68988 8.24593 8.33896C8.0043 7.98804 8.09659 7.51127 8.45126 7.27289L10.9993 5.56431C11.6132 5.17042 12.3868 5.17144 12.9873 5.5551L15.5487 7.27289C15.9034 7.51127 15.9957 7.98804 15.7541 8.33896ZM15.7541 12.4314C15.6037 12.6493 15.359 12.7669 15.1101 12.7669C14.9597 12.7669 14.8073 12.724 14.6735 12.6339L12.1255 10.9254C12.056 10.8814 11.945 10.8803 11.86 10.9356L9.32652 12.6339C8.97185 12.8723 8.48756 12.7823 8.24593 12.4314C8.0043 12.0804 8.09659 11.6037 8.45126 11.3653L10.9993 9.65672C11.6132 9.26282 12.3868 9.26384 12.9873 9.64751L15.5487 11.3653C15.9034 11.6037 15.9957 12.0804 15.7541 12.4314ZM18.1973 4.78982L13.0121 1.30923C12.3972 0.896923 11.6018 0.896923 10.9868 1.30923L5.80163 4.78982C5.2997 5.12745 5 5.68913 5 6.29276V17.7055C5 18.3101 5.2997 18.8718 5.80163 19.2094L10.9858 22.688C11.2938 22.8967 11.6474 23 12 23C12.3526 23 12.7052 22.8967 13.0121 22.689L18.1973 19.2094C18.7003 18.8718 19 18.3101 19 17.7055V6.29276C19 5.68913 18.7003 5.12745 18.1973 4.78982Z" />
</svg>
