<svg viewBox="0 0 18 18" xmlns="http://www.w3.org/2000/svg">
<path d="M12.675 3.61919C12.6121 3.42972 12.4451 3.29153 12.2444 3.26294L10.3343 2.9905L9.47983 1.29169C9.39029 1.11312 9.20487 1 9.00174 1C8.79861 1 8.61319 1.11312 8.52362 1.29169L7.66911 2.99053L5.75872 3.26297C5.55801 3.29159 5.391 3.42975 5.32817 3.61922C5.26534 3.80869 5.31776 4.01672 5.46325 4.15575L6.8459 5.47806L6.51919 7.34506C6.4848 7.5415 6.56712 7.74 6.73136 7.85706C6.89596 7.97462 7.11367 7.98909 7.29317 7.89693L9.00187 7.0154L10.7102 7.89693C10.8939 7.99146 11.1107 7.97196 11.272 7.85706C11.4362 7.74003 11.5185 7.54153 11.4842 7.34525L11.1578 5.47806L12.5401 4.15575C12.6854 4.01672 12.7375 3.80865 12.675 3.61919Z" />
<path d="M11.1333 8.97452H6.86666C6.57211 8.97452 6.33332 9.20887 6.33332 9.49793V17H11.6666V9.49793C11.6666 9.20887 11.4279 8.97452 11.1333 8.97452Z" />
<path d="M1.53334 11.0681C1.23879 11.0681 1 11.3025 1 11.5915V16.5862C1 16.8147 1.1888 17 1.42167 17H5.26668V11.0681H1.53334Z" />
<path d="M16.4666 13.1617H12.7333V17H16.5783C16.8112 17 17 16.8147 17 16.5862V13.6851C17 13.3961 16.7612 13.1617 16.4666 13.1617Z" />
</svg>
