<svg width="24" height="24" viewBox="0 0 24 24" xmlns="http://www.w3.org/2000/svg">
<path d="M9.69991 15.3443V8.65656L15.5792 12.0008L9.69991 15.3443ZM22.7769 6.55131C22.5114 5.57556 21.7614 4.82106 20.8082 4.55406L20.7879 4.54956C18.3932 4.24506 15.6234 4.07106 12.8124 4.07106C12.5267 4.07106 12.2417 4.07256 11.9574 4.07631L12.0009 4.07556C11.7594 4.07256 11.4752 4.07031 11.1894 4.07031C8.37841 4.07031 5.60716 4.24431 2.88691 4.58106L3.21241 4.54806C2.23966 4.82031 1.48966 5.57406 1.22941 6.53031L1.22491 6.54981C0.924906 8.13156 0.753906 9.95181 0.753906 11.8118C0.753906 11.8778 0.753906 11.9438 0.754656 12.0091V11.9986C0.754656 12.0541 0.753906 12.1201 0.753906 12.1861C0.753906 14.0461 0.925656 15.8656 1.25341 17.6303L1.22491 17.4473C1.49041 18.4231 2.24041 19.1776 3.19366 19.4446L3.21391 19.4491C5.60866 19.7536 8.37841 19.9276 11.1894 19.9276C11.4744 19.9276 11.7594 19.9261 12.0444 19.9223L12.0009 19.9231C12.2424 19.9261 12.5274 19.9283 12.8124 19.9283C15.6242 19.9283 18.3947 19.7543 21.1149 19.4176L20.7894 19.4506C21.7629 19.1791 22.5129 18.4246 22.7739 17.4683L22.7784 17.4488C23.0777 15.8671 23.2487 14.0468 23.2487 12.1876C23.2487 12.1216 23.2487 12.0556 23.2479 11.9903V12.0001C23.2479 11.9446 23.2487 11.8786 23.2487 11.8126C23.2487 9.95256 23.0769 8.13306 22.7492 6.36831L22.7769 6.55131Z"/>
</svg>
