<svg width="14" height="14" viewBox="0 0 14 14" fill="none" xmlns="http://www.w3.org/2000/svg">
<path d="M0 8.94444C0 11.7366 2.26345 14 5.05556 14C7.84766 14 10.1111 11.7366 10.1111 8.94444C10.1111 6.15234 7.84766 3.88889 5.05556 3.88889C2.26345 3.88889 0 6.15234 0 8.94444Z" fill="#D1D9EB"/>
<path d="M0 8.94444C0 11.7366 2.26345 14 5.05556 14C7.84766 14 10.1111 11.7366 10.1111 8.94444C10.1111 6.15234 7.84766 3.88889 5.05556 3.88889C2.26345 3.88889 0 6.15234 0 8.94444Z" fill="url(#paint0_linear_2358_3798)"/>
<path d="M4.89212 2.03224C4.79738 2.15903 4.89728 2.33333 5.05556 2.33333C8.70677 2.33333 11.6667 5.29323 11.6667 8.94444C11.6667 9.10272 11.841 9.20263 11.9678 9.10788C13.2014 8.18601 14 6.71404 14 5.05556C14 2.26345 11.7366 0 8.94444 0C7.28596 0 5.81399 0.798605 4.89212 2.03224Z" fill="#D1D9EB"/>
<path d="M4.89212 2.03224C4.79738 2.15903 4.89728 2.33333 5.05556 2.33333C8.70677 2.33333 11.6667 5.29323 11.6667 8.94444C11.6667 9.10272 11.841 9.20263 11.9678 9.10788C13.2014 8.18601 14 6.71404 14 5.05556C14 2.26345 11.7366 0 8.94444 0C7.28596 0 5.81399 0.798605 4.89212 2.03224Z" fill="url(#paint1_linear_2358_3798)"/>
<defs>
<linearGradient id="paint0_linear_2358_3798" x1="7" y1="14.1" x2="7" y2="-0.0999953" gradientUnits="userSpaceOnUse">
<stop stop-color="#1C2230" stop-opacity="0"/>
<stop offset="1" stop-color="#1C2230" stop-opacity="0.35"/>
</linearGradient>
<linearGradient id="paint1_linear_2358_3798" x1="7" y1="14.1" x2="7" y2="-0.0999953" gradientUnits="userSpaceOnUse">
<stop stop-color="#1C2230" stop-opacity="0"/>
<stop offset="1" stop-color="#1C2230" stop-opacity="0.35"/>
</linearGradient>
</defs>
</svg>
