<svg viewBox="0 0 24 25" xmlns="http://www.w3.org/2000/svg">
<path d="M17 22.5H7C6.59 22.5 6.25 22.16 6.25 21.75C6.25 21.34 6.59 21 7 21H17C17.41 21 17.75 21.34 17.75 21.75C17.75 22.16 17.41 22.5 17 22.5Z" fill="#5A6786"/>
<path d="M20.3483 6.02004L16.3483 8.88004C15.8183 9.26004 15.0583 9.03004 14.8283 8.42004L12.9383 3.38004C12.6183 2.51004 11.3883 2.51004 11.0683 3.38004L9.16827 8.41004C8.93827 9.03004 8.18827 9.26004 7.65827 8.87004L3.65827 6.01004C2.85827 5.45004 1.79827 6.24004 2.12827 7.17004L6.28827 18.82C6.42827 19.22 6.80827 19.48 7.22827 19.48H16.7583C17.1783 19.48 17.5583 19.21 17.6983 18.82L21.8583 7.17004C22.1983 6.24004 21.1383 5.45004 20.3483 6.02004ZM14.4983 15.25H9.49827C9.08827 15.25 8.74827 14.91 8.74827 14.5C8.74827 14.09 9.08827 13.75 9.49827 13.75H14.4983C14.9083 13.75 15.2483 14.09 15.2483 14.5C15.2483 14.91 14.9083 15.25 14.4983 15.25Z" fill="#5A6786"/>
</svg>
