<svg width="16" height="16" viewBox="0 0 16 16" fill="none" xmlns="http://www.w3.org/2000/svg">
<path d="M2.66675 4.53325C2.66675 3.41315 2.66675 2.85309 2.88473 2.42527C3.07648 2.04895 3.38244 1.74299 3.75877 1.55124C4.18659 1.33325 4.74664 1.33325 5.86675 1.33325H9.78309C10.1092 1.33325 10.2723 1.33325 10.4257 1.37009C10.5618 1.40275 10.6918 1.45663 10.8111 1.52973C10.9457 1.61219 11.061 1.72749 11.2916 1.95809L12.7086 3.37508C12.9392 3.60568 13.0545 3.72098 13.1369 3.85554C13.21 3.97484 13.2639 4.10489 13.2966 4.24094C13.3334 4.39439 13.3334 4.55745 13.3334 4.88357V11.4666C13.3334 12.5867 13.3334 13.1467 13.1154 13.5746C12.9237 13.9509 12.6177 14.2569 12.2414 14.4486C11.8136 14.6666 11.2535 14.6666 10.1334 14.6666H5.86675C4.74664 14.6666 4.18659 14.6666 3.75877 14.4486C3.38244 14.2569 3.07648 13.9509 2.88473 13.5746C2.66675 13.1467 2.66675 12.5867 2.66675 11.4666V4.53325Z" fill="#2F374A" fill-opacity="0.25"/>
<path d="M8.66659 7.33341C8.66659 6.96522 8.36811 6.66675 7.99992 6.66675C7.63173 6.66675 7.33325 6.96522 7.33325 7.33341V8.66675C7.33325 9.03494 7.63173 9.33341 7.99992 9.33341C8.36811 9.33341 8.66659 9.03494 8.66659 8.66675V7.33341Z" fill="#2F374A"/>
<path d="M7.99992 10.6667C7.63173 10.6667 7.33325 10.9652 7.33325 11.3334C7.33325 11.7016 7.63173 12.0001 7.99992 12.0001C8.36811 12.0001 8.66659 11.7016 8.66659 11.3334C8.66659 10.9652 8.36811 10.6667 7.99992 10.6667Z" fill="#2F374A"/>
<path d="M9.33325 2.27606C9.33325 1.75536 9.75536 1.33325 10.2761 1.33325C10.5261 1.33325 10.7659 1.43258 10.9427 1.60939L13.0571 3.72378C13.2339 3.90059 13.3333 4.14039 13.3333 4.39044C13.3333 4.91114 12.9111 5.33325 12.3904 5.33325H10.6666C9.93021 5.33325 9.33325 4.7363 9.33325 3.99992V2.27606Z" fill="#2F374A"/>
</svg>
