<svg viewBox="0 0 21 21" fill="none" xmlns="http://www.w3.org/2000/svg">
<path d="M4.39974 12.5311C2.55807 12.5311 1.06641 14.0228 1.06641 15.8645C1.06641 16.4895 1.24141 17.0811 1.54974 17.5811C2.12474 18.5478 3.18307 19.1978 4.39974 19.1978C5.61641 19.1978 6.67474 18.5478 7.24974 17.5811C7.55807 17.0811 7.73307 16.4895 7.73307 15.8645C7.73307 14.0228 6.24141 12.5311 4.39974 12.5311ZM5.64141 16.4728H5.02474V17.1228C5.02474 17.4645 4.74141 17.7478 4.39974 17.7478C4.05807 17.7478 3.77474 17.4645 3.77474 17.1228V16.4728H3.15807C2.81641 16.4728 2.53307 16.1895 2.53307 15.8478C2.53307 15.5061 2.81641 15.2228 3.15807 15.2228H3.77474V14.6311C3.77474 14.2895 4.05807 14.0061 4.39974 14.0061C4.74141 14.0061 5.02474 14.2895 5.02474 14.6311V15.2228H5.64141C5.98307 15.2228 6.26641 15.5061 6.26641 15.8478C6.26641 16.1895 5.99141 16.4728 5.64141 16.4728Z" fill="#10AA7C"/>
<path d="M4.39974 12.5311C2.55807 12.5311 1.06641 14.0228 1.06641 15.8645C1.06641 16.4895 1.24141 17.0811 1.54974 17.5811C2.12474 18.5478 3.18307 19.1978 4.39974 19.1978C5.61641 19.1978 6.67474 18.5478 7.24974 17.5811C7.55807 17.0811 7.73307 16.4895 7.73307 15.8645C7.73307 14.0228 6.24141 12.5311 4.39974 12.5311ZM5.64141 16.4728H5.02474V17.1228C5.02474 17.4645 4.74141 17.7478 4.39974 17.7478C4.05807 17.7478 3.77474 17.4645 3.77474 17.1228V16.4728H3.15807C2.81641 16.4728 2.53307 16.1895 2.53307 15.8478C2.53307 15.5061 2.81641 15.2228 3.15807 15.2228H3.77474V14.6311C3.77474 14.2895 4.05807 14.0061 4.39974 14.0061C4.74141 14.0061 5.02474 14.2895 5.02474 14.6311V15.2228H5.64141C5.98307 15.2228 6.26641 15.5061 6.26641 15.8478C6.26641 16.1895 5.99141 16.4728 5.64141 16.4728Z" fill="url(#paint0_linear_4313_30115)"/>
<path d="M18.1523 10.4478H16.069C15.1523 10.4478 14.4023 11.1978 14.4023 12.1144C14.4023 13.0311 15.1523 13.7811 16.069 13.7811H18.1523C18.3857 13.7811 18.569 13.5978 18.569 13.3644V10.8644C18.569 10.6311 18.3857 10.4478 18.1523 10.4478Z" fill="#10AA7C"/>
<path d="M18.1523 10.4478H16.069C15.1523 10.4478 14.4023 11.1978 14.4023 12.1144C14.4023 13.0311 15.1523 13.7811 16.069 13.7811H18.1523C18.3857 13.7811 18.569 13.5978 18.569 13.3644V10.8644C18.569 10.6311 18.3857 10.4478 18.1523 10.4478Z" fill="url(#paint1_linear_4313_30115)"/>
<path d="M14.0094 4.53118C14.2594 4.77284 14.051 5.14784 13.701 5.14784L6.80105 5.13951C6.40105 5.13951 6.20105 4.65618 6.48438 4.37284L7.94272 2.90618C9.17605 1.68118 11.1677 1.68118 12.4011 2.90618L13.976 4.49784C13.9844 4.50618 14.0011 4.52284 14.0094 4.53118Z" fill="#10AA7C"/>
<path d="M14.0094 4.53118C14.2594 4.77284 14.051 5.14784 13.701 5.14784L6.80105 5.13951C6.40105 5.13951 6.20105 4.65618 6.48438 4.37284L7.94272 2.90618C9.17605 1.68118 11.1677 1.68118 12.4011 2.90618L13.976 4.49784C13.9844 4.50618 14.0011 4.52284 14.0094 4.53118Z" fill="url(#paint2_linear_4313_30115)"/>
<path d="M18.4589 15.5812C17.9505 17.2978 16.4839 18.3645 14.4839 18.3645H9.06719C8.74219 18.3645 8.53385 18.0062 8.66719 17.7062C8.91719 17.1228 9.07552 16.4645 9.07552 15.8645C9.07552 13.3395 7.01719 11.2812 4.49219 11.2812C3.85885 11.2812 3.24219 11.4145 2.67552 11.6645C2.36719 11.7978 1.99219 11.5895 1.99219 11.2562V10.0312C1.99219 7.7645 3.35885 6.18117 5.48385 5.9145C5.69219 5.88117 5.91719 5.8645 6.15052 5.8645H14.4839C14.7005 5.8645 14.9089 5.87284 15.1089 5.90617C16.7922 6.09784 18.0089 7.12284 18.4589 8.64784C18.5422 8.92284 18.3422 9.19784 18.0589 9.19784H16.1505C14.3422 9.19784 12.9089 10.8478 13.3005 12.7228C13.5755 14.0895 14.8422 15.0312 16.2339 15.0312H18.0589C18.3505 15.0312 18.5422 15.3145 18.4589 15.5812Z" fill="#10AA7C"/>
<path d="M18.4589 15.5812C17.9505 17.2978 16.4839 18.3645 14.4839 18.3645H9.06719C8.74219 18.3645 8.53385 18.0062 8.66719 17.7062C8.91719 17.1228 9.07552 16.4645 9.07552 15.8645C9.07552 13.3395 7.01719 11.2812 4.49219 11.2812C3.85885 11.2812 3.24219 11.4145 2.67552 11.6645C2.36719 11.7978 1.99219 11.5895 1.99219 11.2562V10.0312C1.99219 7.7645 3.35885 6.18117 5.48385 5.9145C5.69219 5.88117 5.91719 5.8645 6.15052 5.8645H14.4839C14.7005 5.8645 14.9089 5.87284 15.1089 5.90617C16.7922 6.09784 18.0089 7.12284 18.4589 8.64784C18.5422 8.92284 18.3422 9.19784 18.0589 9.19784H16.1505C14.3422 9.19784 12.9089 10.8478 13.3005 12.7228C13.5755 14.0895 14.8422 15.0312 16.2339 15.0312H18.0589C18.3505 15.0312 18.5422 15.3145 18.4589 15.5812Z" fill="url(#paint3_linear_4313_30115)"/>
<defs>
<linearGradient id="paint0_linear_4313_30115" x1="5.62572" y1="12.5311" x2="5.62572" y2="19.1978" gradientUnits="userSpaceOnUse">
<stop stop-color="#24FDBC" stop-opacity="0"/>
<stop offset="1" stop-color="#24FDBC" stop-opacity="0.65"/>
</linearGradient>
<linearGradient id="paint1_linear_4313_30115" x1="17.2519" y1="10.4478" x2="17.2519" y2="13.7811" gradientUnits="userSpaceOnUse">
<stop stop-color="#24FDBC" stop-opacity="0"/>
<stop offset="1" stop-color="#24FDBC" stop-opacity="0.65"/>
</linearGradient>
<linearGradient id="paint2_linear_4313_30115" x1="11.6638" y1="1.98743" x2="11.6638" y2="5.14784" gradientUnits="userSpaceOnUse">
<stop stop-color="#24FDBC" stop-opacity="0"/>
<stop offset="1" stop-color="#24FDBC" stop-opacity="0.65"/>
</linearGradient>
<linearGradient id="paint3_linear_4313_30115" x1="13.2671" y1="5.8645" x2="13.2671" y2="18.3645" gradientUnits="userSpaceOnUse">
<stop stop-color="#24FDBC" stop-opacity="0"/>
<stop offset="1" stop-color="#24FDBC" stop-opacity="0.65"/>
</linearGradient>
</defs>
</svg>
