<svg width="10" height="8" viewBox="0 0 10 8" fill="none" xmlns="http://www.w3.org/2000/svg">
<path d="M6.70711 7.70711C6.31658 8.09763 5.68342 8.09763 5.29289 7.70711C4.90237 7.31658 4.90237 6.68342 5.29289 6.29289L6.58579 5L1 5C0.447715 5 -1.50704e-07 4.55228 -1.74846e-07 4C-1.98987e-07 3.44772 0.447715 3 1 3L6.58579 3L5.29289 1.70711C4.90237 1.31658 4.90237 0.683417 5.29289 0.292893C5.68342 -0.0976317 6.31658 -0.0976317 6.70711 0.292893L9.70711 3.29289C10.0976 3.68342 10.0976 4.31658 9.70711 4.70711L6.70711 7.70711Z" fill="currentColor"/>
</svg>
