<svg xmlns="http://www.w3.org/2000/svg" width="36" height="40" viewBox="0 0 36 40" fill="none">
  <path d="M16.5 2.02073C17.4282 1.48483 18.5718 1.48483 19.5 2.02073L32.8205 9.71132C33.7487 10.2472 34.3205 11.2376 34.3205 12.3094V27.6906C34.3205 28.7624 33.7487 29.7528 32.8205 30.2887L19.5 37.9793C18.5718 38.5152 17.4282 38.5152 16.5 37.9793L3.17949 30.2887C2.25129 29.7528 1.67949 28.7624 1.67949 27.6906V12.3094C1.67949 11.2376 2.25129 10.2472 3.17949 9.71132L16.5 2.02073Z" stroke="#E2B617" stroke-width="2"/>
  <path d="M16.5 2.02073C17.4282 1.48483 18.5718 1.48483 19.5 2.02073L32.8205 9.71132C33.7487 10.2472 34.3205 11.2376 34.3205 12.3094V27.6906C34.3205 28.7624 33.7487 29.7528 32.8205 30.2887L19.5 37.9793C18.5718 38.5152 17.4282 38.5152 16.5 37.9793L3.17949 30.2887C2.25129 29.7528 1.67949 28.7624 1.67949 27.6906V12.3094C1.67949 11.2376 2.25129 10.2472 3.17949 9.71132L16.5 2.02073Z" stroke="url(#paint0_linear_4425_17790)" stroke-width="2"/>
  <defs>
    <linearGradient id="paint0_linear_4425_17790" x1="41.1563" y1="3.41562e-09" x2="41.1563" y2="40" gradientUnits="userSpaceOnUse">
      <stop stop-color="#FDCD24" stop-opacity="0"/>
      <stop offset="1" stop-color="#FDCD24" stop-opacity="0.65"/>
    </linearGradient>
  </defs>
</svg>