<svg width="18" height="21" viewBox="0 0 18 21" fill="none" xmlns="http://www.w3.org/2000/svg">
<g filter="url(#filter0_d_4168_5455)">
<path d="M17.3469 11.2493H14.7593C14.4233 11.2493 14.1646 11.5056 14.126 11.8293C13.7848 14.6867 10.9539 16.8154 7.79982 16.1141C5.94086 15.7004 4.43078 14.2367 4.00208 12.433C3.2258 9.16439 5.77479 6.2495 9.01124 6.2495V8.12443C9.01124 8.37692 9.16829 8.60566 9.40903 8.70191C9.64977 8.79815 9.92527 8.74441 10.1106 8.56566L13.9728 4.8158C14.2238 4.57206 14.2238 4.17582 13.9728 3.93208L10.1106 0.182219C9.92527 0.00472573 9.64977 -0.0490223 9.40903 0.0472242C9.16829 0.143471 9.01124 0.372212 9.01124 0.624703V2.49963C3.99822 2.49963 -0.0711493 6.49324 0.000943335 11.3768C0.0691739 16.0191 4.09349 19.929 8.87477 19.999C13.6779 20.069 17.6482 16.4691 17.9984 11.9068C18.0254 11.5506 17.7151 11.2493 17.3469 11.2493Z" fill="#121722"/>
</g>
<defs>
<filter id="filter0_d_4168_5455" x="0" y="0" width="18" height="21" filterUnits="userSpaceOnUse" color-interpolation-filters="sRGB">
<feFlood flood-opacity="0" result="BackgroundImageFix"/>
<feColorMatrix in="SourceAlpha" type="matrix" values="0 0 0 0 0 0 0 0 0 0 0 0 0 0 0 0 0 0 127 0" result="hardAlpha"/>
<feOffset dy="1"/>
<feComposite in2="hardAlpha" operator="out"/>
<feColorMatrix type="matrix" values="0 0 0 0 1 0 0 0 0 0.834733 0 0 0 0 0.24751 0 0 0 1 0"/>
<feBlend mode="normal" in2="BackgroundImageFix" result="effect1_dropShadow_4168_5455"/>
<feBlend mode="normal" in="SourceGraphic" in2="effect1_dropShadow_4168_5455" result="shape"/>
</filter>
</defs>
</svg>
