<svg width="22" height="20" viewBox="0 0 22 20" fill="none" xmlns="http://www.w3.org/2000/svg">
<path d="M6.2775 3.39484H5.12864V2.02652C5.12864 1.18499 5.81343 0.500015 6.66575 0.500015L15.3385 0.500019L15.3404 0.500011C16.1909 0.496782 16.88 1.18463 16.88 2.02652V3.39484H15.7311V2.61651C15.7311 2.07284 15.2899 1.63768 14.7498 1.63768H7.25884C6.7187 1.63768 6.2775 2.07284 6.2775 2.61651V3.39484ZM2.52706 19.5L2.52553 19.5C1.40504 19.5034 0.5 18.5984 0.5 17.4861V6.75075C0.5 5.63987 1.40398 4.73686 2.52706 4.73686H19.4729C20.596 4.73686 21.5 5.63987 21.5 6.75075V17.4861C21.5 18.597 20.596 19.5 19.4729 19.5L2.52706 19.5Z" fill="black"/>
<path d="M6.2775 3.39484H5.12864V2.02652C5.12864 1.18499 5.81343 0.500015 6.66575 0.500015L15.3385 0.500019L15.3404 0.500011C16.1909 0.496782 16.88 1.18463 16.88 2.02652V3.39484H15.7311V2.61651C15.7311 2.07284 15.2899 1.63768 14.7498 1.63768H7.25884C6.7187 1.63768 6.2775 2.07284 6.2775 2.61651V3.39484ZM2.52706 19.5L2.52553 19.5C1.40504 19.5034 0.5 18.5984 0.5 17.4861V6.75075C0.5 5.63987 1.40398 4.73686 2.52706 4.73686H19.4729C20.596 4.73686 21.5 5.63987 21.5 6.75075V17.4861C21.5 18.597 20.596 19.5 19.4729 19.5L2.52706 19.5Z" fill="#D1D9EB"/>
<path d="M6.2775 3.39484H5.12864V2.02652C5.12864 1.18499 5.81343 0.500015 6.66575 0.500015L15.3385 0.500019L15.3404 0.500011C16.1909 0.496782 16.88 1.18463 16.88 2.02652V3.39484H15.7311V2.61651C15.7311 2.07284 15.2899 1.63768 14.7498 1.63768H7.25884C6.7187 1.63768 6.2775 2.07284 6.2775 2.61651V3.39484ZM2.52706 19.5L2.52553 19.5C1.40504 19.5034 0.5 18.5984 0.5 17.4861V6.75075C0.5 5.63987 1.40398 4.73686 2.52706 4.73686H19.4729C20.596 4.73686 21.5 5.63987 21.5 6.75075V17.4861C21.5 18.597 20.596 19.5 19.4729 19.5L2.52706 19.5Z" fill="url(#paint0_linear_2358_4178)"/>
<path d="M6.2775 3.39484H5.12864V2.02652C5.12864 1.18499 5.81343 0.500015 6.66575 0.500015L15.3385 0.500019L15.3404 0.500011C16.1909 0.496782 16.88 1.18463 16.88 2.02652V3.39484H15.7311V2.61651C15.7311 2.07284 15.2899 1.63768 14.7498 1.63768H7.25884C6.7187 1.63768 6.2775 2.07284 6.2775 2.61651V3.39484ZM2.52706 19.5L2.52553 19.5C1.40504 19.5034 0.5 18.5984 0.5 17.4861V6.75075C0.5 5.63987 1.40398 4.73686 2.52706 4.73686H19.4729C20.596 4.73686 21.5 5.63987 21.5 6.75075V17.4861C21.5 18.597 20.596 19.5 19.4729 19.5L2.52706 19.5Z" stroke="#EDF2FF"/>
<path d="M6.2775 3.39484H5.12864V2.02652C5.12864 1.18499 5.81343 0.500015 6.66575 0.500015L15.3385 0.500019L15.3404 0.500011C16.1909 0.496782 16.88 1.18463 16.88 2.02652V3.39484H15.7311V2.61651C15.7311 2.07284 15.2899 1.63768 14.7498 1.63768H7.25884C6.7187 1.63768 6.2775 2.07284 6.2775 2.61651V3.39484ZM2.52706 19.5L2.52553 19.5C1.40504 19.5034 0.5 18.5984 0.5 17.4861V6.75075C0.5 5.63987 1.40398 4.73686 2.52706 4.73686H19.4729C20.596 4.73686 21.5 5.63987 21.5 6.75075V17.4861C21.5 18.597 20.596 19.5 19.4729 19.5L2.52706 19.5Z" stroke="url(#paint1_linear_2358_4178)"/>
<defs>
<linearGradient id="paint0_linear_2358_4178" x1="11" y1="20.1429" x2="11" y2="-0.14285" gradientUnits="userSpaceOnUse">
<stop stop-color="#1C2230" stop-opacity="0"/>
<stop offset="1" stop-color="#1C2230" stop-opacity="0.35"/>
</linearGradient>
<linearGradient id="paint1_linear_2358_4178" x1="11" y1="20.1429" x2="11" y2="-0.14285" gradientUnits="userSpaceOnUse">
<stop stop-color="#1C2230" stop-opacity="0"/>
<stop offset="1" stop-color="#1C2230" stop-opacity="0.35"/>
</linearGradient>
</defs>
</svg>
