<svg width="22" height="18" viewBox="0 0 22 18" fill="none" xmlns="http://www.w3.org/2000/svg">
<path d="M15.9604 0.432129C13.1472 0.432129 10.8523 2.69677 10.8305 5.48895L7.63597 10.0476C6.74478 9.96695 5.97615 10.1509 5.2966 10.5634L0.921875 8.80186V13.6126L3.50906 14.6483C3.88287 16.361 5.4226 17.6521 7.24452 17.6521C9.22524 17.6521 10.8666 16.1376 11.0472 14.2089L15.9654 10.6314C18.787 10.6314 21.0819 8.35413 21.0819 5.53013L21.0811 5.52922C21.0811 2.71859 18.7861 0.432129 15.9604 0.432129ZM7.24452 16.6374C6.16351 16.6374 5.23278 16.0318 4.75987 15.1489C5.21851 15.3237 5.68215 15.516 6.14161 15.6958C7.28988 16.1661 8.59442 15.6059 9.05306 14.4627C9.51678 13.3194 8.95397 12.0291 7.80733 11.5714L6.63724 11.1009C6.83657 11.0562 7.04023 11.0337 7.24452 11.0338C8.80614 11.0338 10.0569 12.2795 10.0569 13.8351C10.0569 15.3917 8.80614 16.6374 7.24452 16.6374ZM15.9654 8.9464C14.0662 8.9464 12.5231 7.42177 12.5231 5.53013C12.5231 3.64677 14.062 2.11377 15.9654 2.11377C17.8512 2.11377 19.3943 3.64677 19.3943 5.53013C19.3943 7.42677 17.8504 8.9514 15.9654 8.9464Z" fill="#8792B7"/>
<path d="M15.9747 2.78906C14.4586 2.78906 13.2305 4.01297 13.2305 5.52333C13.2305 7.03361 14.4543 8.25751 15.9747 8.25751C17.4817 8.25751 18.719 7.03779 18.719 5.52333C18.719 4.00879 17.4817 2.78906 15.9747 2.78906Z" fill="#8792B7"/>
</svg>
