<svg width="18" height="18" viewBox="0 0 18 18" xmlns="http://www.w3.org/2000/svg">
<g clip-path="url(#clip0_4211_3999)">
<path fill-rule="evenodd" clip-rule="evenodd" d="M2.25 0H15.75C16.9909 0 18 1.00912 18 2.25V15.75C18 16.9909 16.9909 18 15.75 18H12.375V11.8125H14.0625L15.1875 9H12.375V6.75C12.375 6.17919 12.8008 6.18248 13.3519 6.18674C13.4004 6.18712 13.4498 6.1875 13.5 6.1875H14.625V3.375H12.375C10.5109 3.375 9 4.88588 9 6.75V9H6.75V11.8125H9V18H2.25C1.00912 18 0 16.9909 0 15.75V2.25C0 1.00912 1.00912 0 2.25 0Z"/>
</g>
<defs>
<clipPath id="clip0_4211_3999">
<rect width="18" height="18" fill="white"/>
</clipPath>
</defs>
</svg>
