<svg width="22" height="22" viewBox="0 0 22 22" fill="none" xmlns="http://www.w3.org/2000/svg">
<path d="M20.8453 9C21.5598 10.2376 21.5598 11.7624 20.8453 13L17.6547 18.5263C16.9402 19.7639 15.6197 20.5263 14.1906 20.5263L7.8094 20.5263C6.38034 20.5263 5.05983 19.7639 4.3453 18.5263L1.1547 13C0.440168 11.7624 0.44017 10.2376 1.1547 9L4.3453 3.47372C5.05983 2.23612 6.38034 1.47372 7.8094 1.47372L14.1906 1.47372C15.6197 1.47372 16.9402 2.23612 17.6547 3.47372L20.8453 9Z" fill="#242C3C"/>
<g clip-path="url(#clip0_4303_24240)">
<path d="M14.7942 11.019C14.9783 10.8349 14.9783 10.5364 14.7942 10.3523L11.794 7.35219C11.6099 7.16809 11.3114 7.16809 11.1273 7.35219C10.9432 7.5363 10.9432 7.83479 11.1273 8.01889L13.7941 10.6857L11.1273 13.3525C10.9432 13.5366 10.9432 13.8351 11.1273 14.0192C11.3114 14.2033 11.6099 14.2033 11.794 14.0192L14.7942 11.019ZM6.91797 11.1571H14.4608V10.2143H6.91797V11.1571Z" fill="#60719A"/>
</g>
<defs>
<clipPath id="clip0_4303_24240">
<rect width="8.01429" height="7.54286" fill="white" transform="translate(6.91797 6.91431)"/>
</clipPath>
</defs>
</svg>
