<svg viewBox="0 0 16 16" xmlns="http://www.w3.org/2000/svg">
<path d="M9.40062 5.90214H15V3.81983C15 3.4365 14.6866 3.12572 14.3001 3.12572V2.69999C14.3034 2.31666 13.9927 2.00328 13.6061 2.00002C13.5737 1.99975 13.5413 2.00171 13.5092 2.00588C12.492 2.1424 11.876 2.53571 11.7594 3.12108H1.70147C1.31493 3.12108 1.00155 3.43183 1.00155 3.81519V5.8975H6.04099C6.16985 5.8975 6.27429 6.00108 6.27429 6.12886C6.27429 6.25665 6.16985 6.36022 6.04099 6.36022H1.00155V6.59158C1.00155 6.9687 1.46817 7.12373 1.6688 7.18851L1.81111 7.23246C1.89417 7.25599 1.97592 7.28381 2.05608 7.31575C2.12752 7.34322 2.19202 7.38587 2.24506 7.44069C2.35038 7.56083 2.41558 7.71036 2.43172 7.86873C2.47642 8.25344 2.43007 8.6432 2.29641 9.00706C2.14745 9.40875 1.96159 9.79598 1.74114 10.1639L1.54284 10.5295C1.30254 10.9922 1.00158 11.5452 1.00158 12.149C0.979184 12.7531 1.19608 13.3419 1.60583 13.7894C1.73808 13.9245 1.91995 14.0005 2.10978 14H4.80916C5.07608 14.0021 5.32002 13.8505 5.43441 13.6113C5.59072 13.2689 5.4974 12.8154 5.16376 12.2624C4.76481 11.603 5.41574 10.4948 6.15998 9.68034C6.20408 9.63186 6.2668 9.60416 6.33263 9.60399H8.33441C8.6455 9.60399 8.91923 9.4004 9.00634 9.10424C9.16732 8.5582 9.64794 7.29032 10.5672 7.29032H14.3001C14.6866 7.29032 15 6.97957 15 6.59622V6.36486H9.40062C9.27176 6.36486 9.16732 6.26128 9.16732 6.1335C9.16732 6.00571 9.27176 5.90214 9.40062 5.90214ZM8.61903 7.52171C8.4718 7.78191 8.3559 8.05836 8.27374 8.34539C8.21567 8.54283 8.03317 8.67856 7.82579 8.67856H6.13431C5.87659 8.67856 5.66768 8.47138 5.66768 8.21581V7.29035C5.66768 7.03478 5.87659 6.8276 6.13431 6.8276H8.2154C8.3836 6.82611 8.53958 6.9145 8.62368 7.05896C8.70562 7.20296 8.70384 7.37936 8.61903 7.52171ZM7.76745 4.5139C7.63859 4.5139 7.53415 4.4103 7.53415 4.28254V3.58844H10.5671V4.28254C10.5671 4.41033 10.4627 4.5139 10.3338 4.5139H7.76745Z" />
</svg>
