<svg viewBox="0 0 16 16" xmlns="http://www.w3.org/2000/svg">
<path d="M5.20797 14.6665L10.7946 14.6665C13.2213 14.6665 14.668 13.2198 14.668 10.7932L14.668 5.21317C14.668 2.77984 13.2213 1.33317 10.7946 1.33317L5.21464 1.33317C2.78797 1.33317 1.3413 2.77984 1.3413 5.2065L1.3413 10.7932C1.33463 13.2198 2.7813 14.6665 5.20797 14.6665ZM10.3546 10.0132L8.35464 12.0132C8.30797 12.0598 8.25464 12.0932 8.19464 12.1198C8.07464 12.1732 7.93464 12.1732 7.81464 12.1198C7.75464 12.0932 7.7013 12.0598 7.65464 12.0132L5.65463 10.0132C5.4613 9.81984 5.4613 9.49984 5.65463 9.3065C5.75464 9.2065 5.8813 9.15984 6.00797 9.15984C6.13464 9.15984 6.2613 9.2065 6.3613 9.3065L7.50797 10.4532L7.50797 6.3265C7.50797 6.05317 7.73464 5.8265 8.00797 5.8265C8.2813 5.8265 8.50797 6.05317 8.50797 6.3265L8.50797 10.4532L9.65464 9.3065C9.84797 9.11317 10.168 9.11317 10.3613 9.3065C10.5546 9.49984 10.548 9.81317 10.3546 10.0132ZM3.8413 4.51984C5.1813 4.07317 6.58797 3.8465 8.0013 3.8465C9.41464 3.8465 10.8213 4.07317 12.1613 4.51984C12.4213 4.60651 12.5613 4.89317 12.4746 5.15317C12.388 5.41317 12.1013 5.55984 11.8413 5.4665C9.3613 4.63984 6.63464 4.63984 4.15464 5.4665C3.89464 5.55317 3.60797 5.41317 3.5213 5.15317C3.4413 4.8865 3.5813 4.6065 3.8413 4.51984Z" fill="#132560"/>
</svg>
