<svg width="24" height="24" viewBox="0 0 24 24" fill="none" xmlns="http://www.w3.org/2000/svg">
<path fill-rule="evenodd" clip-rule="evenodd" d="M24 12C24 18.6274 18.6274 24 12 24C5.37258 24 0 18.6274 0 12C0 5.37258 5.37258 0 12 0C18.6274 0 24 5.37258 24 12ZM12.4292 8.85906C11.262 9.3445 8.92928 10.3493 5.43105 11.8735C4.86297 12.0993 4.56541 12.3203 4.53832 12.5365C4.49251 12.9017 4.94991 13.0455 5.57274 13.2413C5.65741 13.2679 5.74513 13.2955 5.83507 13.3248C6.44777 13.5239 7.27193 13.7569 7.70041 13.7662C8.08905 13.7746 8.52283 13.6143 9.00175 13.2855C12.2703 11.0792 13.9575 9.96395 14.0634 9.93991C14.1381 9.92294 14.2417 9.90166 14.3118 9.964C14.382 10.0263 14.3751 10.1445 14.3677 10.1762C14.3224 10.3693 12.5265 12.0389 11.5977 12.9024C11.3083 13.1714 11.1031 13.3622 11.0612 13.4058C10.9671 13.5035 10.8712 13.596 10.779 13.6848C10.2098 14.2335 9.78301 14.645 10.8027 15.3169C11.293 15.6401 11.6853 15.9072 12.0768 16.1738C12.5038 16.4645 12.9297 16.7546 13.4807 17.1158C13.6212 17.2079 13.7554 17.3035 13.886 17.3967C14.3832 17.7511 14.8299 18.0695 15.3817 18.0188C15.7023 17.9893 16.0335 17.6877 16.2018 16.7885C16.5993 14.6633 17.3807 10.0586 17.5613 8.16109C17.585 7.91247 17.5838 7.53681 17.3705 7.36375C17.2267 7.24708 17.0048 7.22247 16.9055 7.2242C16.4542 7.23217 15.7617 7.47297 12.4292 8.85906Z" fill="#60719A"/>
</svg>
