<svg width="12" height="12" viewBox="0 0 12 12" fill="none" xmlns="http://www.w3.org/2000/svg">
<path d="M8.69499 7.835L6.67499 6H5.31999L3.29999 7.835C2.73499 8.345 2.54999 9.13 2.82499 9.84C3.09999 10.545 3.76999 11 4.52499 11H7.46999C8.22999 11 8.89499 10.545 9.16999 9.84C9.44499 9.13 9.25999 8.345 8.69499 7.835ZM6.90999 9.07H5.08999C4.89999 9.07 4.74999 8.915 4.74999 8.73C4.74999 8.545 4.90499 8.39 5.08999 8.39H6.90999C7.09999 8.39 7.24999 8.545 7.24999 8.73C7.24999 8.915 7.09499 9.07 6.90999 9.07Z" fill="currentColor"/>
<path d="M9.17502 2.16C8.90002 1.455 8.23002 1 7.47502 1H4.52502C3.77002 1 3.10002 1.455 2.82502 2.16C2.55502 2.87 2.74002 3.655 3.30502 4.165L5.32502 6H6.68002L8.70002 4.165C9.26002 3.655 9.44502 2.87 9.17502 2.16ZM6.91002 3.615H5.09002C4.90002 3.615 4.75002 3.46 4.75002 3.275C4.75002 3.09 4.90502 2.935 5.09002 2.935H6.91002C7.10002 2.935 7.25002 3.09 7.25002 3.275C7.25002 3.46 7.09502 3.615 6.91002 3.615Z" fill="currentColor"/>
</svg>
