<svg width="24" height="24" viewBox="0 0 24 24" xmlns="http://www.w3.org/2000/svg">
<path fill-rule="evenodd" clip-rule="evenodd" d="M1.68413 1.68413C0 3.36825 0 6.07884 0 11.5V12.5C0 17.9212 0 20.6318 1.68417 22.3159C3.3683 24 6.07889 24 11.5 24H12.5C17.9212 24 20.6318 24 22.3158 22.3158C24 20.6317 24 17.9211 24 12.5V11.5C24 6.07884 24 3.36825 22.3158 1.68413C20.6317 0 17.9211 0 12.5 0H11.5C6.07884 0 3.36825 0 1.68413 1.68413ZM4.75053 7.5H6.50094C6.94831 7.5 7.11659 7.69575 7.28427 8.1803C8.14034 10.6735 9.58381 12.8524 10.1772 12.8524C10.3997 12.8524 10.5018 12.75 10.5018 12.185V9.60787C10.4616 8.87431 10.2053 8.55707 10.0155 8.32209C9.89822 8.17699 9.80633 8.06325 9.80633 7.90223C9.80633 7.70648 9.97362 7.5 10.2517 7.5H13.0024C13.3733 7.5 13.5025 7.69833 13.5025 8.14331V11.6103C13.5025 11.981 13.6635 12.1108 13.7748 12.1108C13.9973 12.1108 14.1828 11.981 14.5908 11.5732C15.8517 10.1641 16.7419 7.99491 16.7419 7.99491C16.8531 7.73541 17.0584 7.5 17.5034 7.5H19.2538C19.7832 7.5 19.8944 7.77248 19.7832 8.14331C19.5606 9.16294 17.428 12.1665 17.428 12.1665C17.2426 12.463 17.1684 12.6114 17.428 12.9451C17.5194 13.0731 17.7145 13.2641 17.9377 13.4827C18.1672 13.7075 18.4265 13.9614 18.6334 14.2058C19.3853 15.0515 19.952 15.7649 20.1098 16.2566C20.2541 16.75 20.004 17 19.5039 17H17.7535C17.2847 17 17.0486 16.7374 16.5385 16.1701C16.3222 15.9296 16.0568 15.6343 15.7034 15.2811C14.665 14.28 14.2199 14.1502 13.9603 14.1502C13.608 14.1502 13.5026 14.25 13.5026 14.75V16.3193C13.5026 16.75 13.3649 17 12.2523 17C10.3978 17 8.35995 15.8744 6.91348 13.7979C4.74383 10.7574 4.15039 8.45845 4.15039 7.99491C4.15039 7.73541 4.25042 7.5 4.75053 7.5Z"/>
</svg>
