<svg viewBox="0 0 24 24" xmlns="http://www.w3.org/2000/svg">
<path d="M16.25 22.5002C17.2165 22.5002 18 21.7167 18 20.7502C18 19.7837 17.2165 19.0002 16.25 19.0002C15.2835 19.0002 14.5 19.7837 14.5 20.7502C14.5 21.7167 15.2835 22.5002 16.25 22.5002Z"/>
<path d="M8.25 22.5002C9.2165 22.5002 10 21.7167 10 20.7502C10 19.7837 9.2165 19.0002 8.25 19.0002C7.2835 19.0002 6.5 19.7837 6.5 20.7502C6.5 21.7167 7.2835 22.5002 8.25 22.5002Z"/>
<path d="M4.84 3.94018L4.64 6.39018C4.6 6.86018 4.97 7.25018 5.44 7.25018H20.75C21.17 7.25018 21.52 6.93018 21.55 6.51018C21.68 4.74018 20.33 3.30018 18.56 3.30018H6.27C6.17 2.86018 5.97 2.44018 5.66 2.09018C5.16 1.56018 4.46 1.25018 3.74 1.25018H2C1.59 1.25018 1.25 1.59018 1.25 2.00018C1.25 2.41018 1.59 2.75018 2 2.75018H3.74C4.05 2.75018 4.34 2.88018 4.55 3.10018C4.76 3.33018 4.86 3.63018 4.84 3.94018Z"/>
<path d="M20.5101 8.75018H5.17005C4.75005 8.75018 4.41005 9.07018 4.37005 9.48018L4.01005 13.8302C3.87005 15.5402 5.21005 17.0002 6.92005 17.0002H18.0401C19.5401 17.0002 20.8601 15.7702 20.9701 14.2702L21.3001 9.60018C21.3401 9.14018 20.9801 8.75018 20.5101 8.75018Z"/>
</svg>
