<svg width="28" height="28" viewBox="0 0 28 28" fill="none" xmlns="http://www.w3.org/2000/svg">
<path d="M0.5 14C0.5 6.54416 6.54416 0.5 14 0.5C21.4558 0.5 27.5 6.54416 27.5 14C27.5 21.4558 21.4558 27.5 14 27.5C6.54416 27.5 0.5 21.4558 0.5 14ZM13.9435 8.4565C13.2015 7.7145 11.9985 7.7145 11.2565 8.4565C10.5145 9.19849 10.5145 10.4015 11.2565 11.1435L14.113 14L11.2565 16.8565C10.5145 17.5985 10.5145 18.8015 11.2565 19.5435C11.9985 20.2855 13.2015 20.2855 13.9435 19.5435L18.1435 15.3435C18.8855 14.6015 18.8855 13.3985 18.1435 12.6565L13.9435 8.4565Z" fill="#17E2A5" stroke="#24FDBC"/>
</svg>
