<svg width="12" height="22" viewBox="0 0 12 22" fill="none" xmlns="http://www.w3.org/2000/svg">
<path d="M10.2467 0.919922H7.3823C4.48028 0.919922 1.55217 3.06282 1.55217 7.85017C1.55217 10.3299 2.60324 12.2612 4.52974 13.3596L1.00354 19.7419C0.836365 20.0438 0.832017 20.3859 0.991896 20.657C1.14792 20.9218 1.43314 21.0799 1.75495 21.0799H3.53847C3.94371 21.0799 4.25969 20.884 4.4112 20.541L7.71739 14.0743H7.95865V20.274C7.95865 20.7109 8.32729 21.0799 8.7637 21.0799H10.322C10.8113 21.0799 11.153 20.7382 11.153 20.2489V1.80209C11.1531 1.28266 10.7804 0.919922 10.2467 0.919922ZM7.95873 11.2018H7.53307C5.88268 11.2018 4.89732 9.8546 4.89732 7.59809C4.89732 4.79221 6.14206 3.79249 7.30691 3.79249H7.95873V11.2018Z" fill="#8792B7"/>
</svg>
