<svg viewBox="0 0 20 20" xmlns="http://www.w3.org/2000/svg">
<path d="M20 12.5001C20 13.0142 19.8 13.4976 19.435 13.8617L17.7083 15.5892C17.5458 15.7517 17.3325 15.8334 17.1192 15.8334C16.9058 15.8334 16.6925 15.7517 16.53 15.5892C16.2042 15.2634 16.2042 14.7367 16.53 14.4109L17.6067 13.3334H12.5C12.0392 13.3334 11.6667 12.9609 11.6667 12.5001C11.6667 12.0392 12.0392 11.6667 12.5 11.6667H17.6067L16.53 10.5892C16.2042 10.2634 16.2042 9.73672 16.53 9.41088C16.8558 9.08505 17.3825 9.08505 17.7083 9.41088L19.4358 11.1392C19.8 11.5026 20 11.9859 20 12.5001ZM11.6667 9.16672V5.00005C11.6667 4.08088 10.9192 3.33338 10 3.33338V18.3326H10.8333C11.2933 18.3326 11.6667 17.9592 11.6667 17.4992V15.8326C11.6667 15.3717 12.0392 14.9992 12.5 14.9992C12.9608 14.9992 13.3333 15.3717 13.3333 15.8326V17.4992C13.3333 18.8776 12.2117 19.9992 10.8333 19.9992H2.5C1.12167 19.9992 0 18.8776 0 17.4992V4.68422C0 2.70505 1.40833 0.986718 3.34917 0.598384L6.01333 0.0658844C6.9975 -0.130782 8.00583 0.120884 8.78083 0.756718C9.09333 1.01255 9.335 1.32755 9.5325 1.66672H10C11.8383 1.66672 13.3333 3.16172 13.3333 5.00005V9.16672C13.3333 9.62755 12.9608 10.0001 12.5 10.0001C12.0392 10.0001 11.6667 9.62755 11.6667 9.16672ZM7.5 10.4167C7.5 9.72672 6.94 9.16672 6.25 9.16672C5.56 9.16672 5 9.72672 5 10.4167C5 11.1067 5.56 11.6667 6.25 11.6667C6.94 11.6667 7.5 11.1067 7.5 10.4167Z" />
</svg>
