<svg width="16" height="16" viewBox="0 0 16 16" fill="none" xmlns="http://www.w3.org/2000/svg">
<path d="M2.66675 4.53325C2.66675 3.41315 2.66675 2.85309 2.88473 2.42527C3.07648 2.04895 3.38244 1.74299 3.75877 1.55124C4.18659 1.33325 4.74664 1.33325 5.86675 1.33325H9.78309C10.1092 1.33325 10.2723 1.33325 10.4257 1.37009C10.5618 1.40275 10.6918 1.45663 10.8111 1.52973C10.9457 1.61219 11.061 1.72749 11.2916 1.95809L12.7086 3.37508C12.9392 3.60568 13.0545 3.72098 13.1369 3.85554C13.21 3.97484 13.2639 4.10489 13.2966 4.24094C13.3334 4.39439 13.3334 4.55745 13.3334 4.88357V11.4666C13.3334 12.5867 13.3334 13.1467 13.1154 13.5746C12.9237 13.9509 12.6177 14.2569 12.2414 14.4486C11.8136 14.6666 11.2535 14.6666 10.1334 14.6666H5.86675C4.74664 14.6666 4.18659 14.6666 3.75877 14.4486C3.38244 14.2569 3.07648 13.9509 2.88473 13.5746C2.66675 13.1467 2.66675 12.5867 2.66675 11.4666V4.53325Z" fill="#2F374A" fill-opacity="0.25"/>
<path d="M9.33325 2.27606C9.33325 1.75536 9.75536 1.33325 10.2761 1.33325C10.5261 1.33325 10.7659 1.43258 10.9427 1.60939L13.0571 3.72378C13.2339 3.90059 13.3333 4.14039 13.3333 4.39044C13.3333 4.91114 12.9111 5.33325 12.3904 5.33325H10.6666C9.93021 5.33325 9.33325 4.7363 9.33325 3.99992V2.27606Z" fill="#2F374A"/>
<path d="M7.69236 6.87354C7.80622 6.59977 8.19404 6.59977 8.3079 6.87354L8.83417 8.13882C8.88187 8.25352 8.98939 8.33217 9.11315 8.3429L10.3628 8.45124C10.649 8.47605 10.7719 8.82704 10.5637 9.02493L9.61435 9.92727C9.52822 10.0091 9.49219 10.1306 9.51976 10.2462L9.84008 11.5891C9.90887 11.8775 9.59512 12.1054 9.34209 11.9509L8.17388 11.2374C8.06721 11.1722 7.93305 11.1722 7.82638 11.2374L6.65817 11.9509C6.40514 12.1054 6.09139 11.8775 6.16018 11.5891L6.48061 10.2458C6.50812 10.1304 6.47228 10.0092 6.38649 9.9273L5.44035 9.02448C5.23279 8.82642 5.35578 8.47609 5.6416 8.45124L6.88717 8.34294C7.0109 8.33219 7.11838 8.25354 7.16607 8.13887L7.69236 6.87354Z" fill="#2F374A"/>
</svg>
