<svg width="20" height="20" viewBox="0 0 20 20" fill="none" xmlns="http://www.w3.org/2000/svg">
<path d="M10.0013 19.1665C15.0521 19.1665 19.168 15.0507 19.168 9.99984C19.168 4.949 15.0521 0.83317 10.0013 0.833169C4.95047 0.833169 0.834636 4.949 0.834636 9.99984C0.834635 15.0507 4.95047 19.1665 10.0013 19.1665ZM10.6888 13.6665C10.6888 14.0423 10.3771 14.354 10.0013 14.354C9.62547 14.354 9.3138 14.0423 9.3138 13.6665L9.3138 9.08317C9.3138 8.70734 9.62547 8.39567 10.0013 8.39567C10.3771 8.39567 10.6888 8.70734 10.6888 9.08317L10.6888 13.6665ZM9.15797 5.98484C9.2038 5.86567 9.26797 5.774 9.35047 5.68234C9.44214 5.59984 9.54297 5.53567 9.65297 5.48984C9.76297 5.444 9.88214 5.4165 10.0013 5.4165C10.1205 5.4165 10.2396 5.444 10.3496 5.48984C10.4596 5.53567 10.5605 5.59984 10.6521 5.68234C10.7346 5.774 10.7988 5.86567 10.8446 5.98484C10.8905 6.09484 10.918 6.214 10.918 6.33317C10.918 6.45234 10.8905 6.5715 10.8446 6.6815C10.7988 6.7915 10.7346 6.89234 10.6521 6.984C10.5605 7.0665 10.4596 7.13067 10.3496 7.1765C10.1296 7.26817 9.87297 7.26817 9.65297 7.1765C9.54297 7.13067 9.44214 7.0665 9.35047 6.984C9.26797 6.89234 9.2038 6.7915 9.15797 6.6815C9.11214 6.5715 9.08464 6.45234 9.08464 6.33317C9.08464 6.214 9.11214 6.09484 9.15797 5.98484Z" fill="#10AA7C"/>
<path d="M10.0013 19.1665C15.0521 19.1665 19.168 15.0507 19.168 9.99984C19.168 4.949 15.0521 0.83317 10.0013 0.833169C4.95047 0.833169 0.834636 4.949 0.834636 9.99984C0.834635 15.0507 4.95047 19.1665 10.0013 19.1665ZM10.6888 13.6665C10.6888 14.0423 10.3771 14.354 10.0013 14.354C9.62547 14.354 9.3138 14.0423 9.3138 13.6665L9.3138 9.08317C9.3138 8.70734 9.62547 8.39567 10.0013 8.39567C10.3771 8.39567 10.6888 8.70734 10.6888 9.08317L10.6888 13.6665ZM9.15797 5.98484C9.2038 5.86567 9.26797 5.774 9.35047 5.68234C9.44214 5.59984 9.54297 5.53567 9.65297 5.48984C9.76297 5.444 9.88214 5.4165 10.0013 5.4165C10.1205 5.4165 10.2396 5.444 10.3496 5.48984C10.4596 5.53567 10.5605 5.59984 10.6521 5.68234C10.7346 5.774 10.7988 5.86567 10.8446 5.98484C10.8905 6.09484 10.918 6.214 10.918 6.33317C10.918 6.45234 10.8905 6.5715 10.8446 6.6815C10.7988 6.7915 10.7346 6.89234 10.6521 6.984C10.5605 7.0665 10.4596 7.13067 10.3496 7.1765C10.1296 7.26817 9.87297 7.26817 9.65297 7.1765C9.54297 7.13067 9.44214 7.0665 9.35047 6.984C9.26797 6.89234 9.2038 6.7915 9.15797 6.6815C9.11214 6.5715 9.08464 6.45234 9.08464 6.33317C9.08464 6.214 9.11214 6.09484 9.15797 5.98484Z" fill="url(#paint0_linear_668_9026)"/>
<defs>
<linearGradient id="paint0_linear_668_9026" x1="6.62984" y1="19.1665" x2="6.62985" y2="0.833168" gradientUnits="userSpaceOnUse">
<stop stop-color="#24FDBC" stop-opacity="0"/>
<stop offset="1" stop-color="#24FDBC" stop-opacity="0.65"/>
</linearGradient>
</defs>
</svg>
