<svg viewBox="0 0 28 28" xmlns="http://www.w3.org/2000/svg">
<path d="M18.887 2.3335H9.11036C4.8637 2.3335 2.33203 4.86516 2.33203 9.11183V18.8768C2.33203 23.1352 4.8637 25.6668 9.11036 25.6668H18.8754C23.122 25.6668 25.6537 23.1352 25.6537 18.8885V9.11183C25.6654 4.86516 23.1337 2.3335 18.887 2.3335ZM20.8237 16.4502C20.777 16.5552 20.7187 16.6485 20.637 16.7302L17.0904 20.2768C16.9154 20.4518 16.6937 20.5335 16.472 20.5335C16.2504 20.5335 16.0287 20.4518 15.8537 20.2768C15.5154 19.9385 15.5154 19.3785 15.8537 19.0402L17.907 16.9868H7.99036C7.51203 16.9868 7.11536 16.5902 7.11536 16.1118C7.11536 15.6335 7.51203 15.2368 7.99036 15.2368H20.0187C20.1354 15.2368 20.2404 15.2602 20.357 15.3068C20.567 15.4002 20.742 15.5635 20.8354 15.7852C20.9054 15.9952 20.9054 16.2402 20.8237 16.4502ZM20.007 12.7518H7.99036C7.8737 12.7518 7.7687 12.7285 7.65203 12.6818C7.44203 12.5885 7.26703 12.4252 7.1737 12.2035C7.08036 11.9935 7.08036 11.7485 7.1737 11.5385C7.22036 11.4335 7.2787 11.3402 7.36036 11.2585L10.907 7.71183C11.2454 7.3735 11.8054 7.3735 12.1437 7.71183C12.482 8.05016 12.482 8.61016 12.1437 8.9485L10.102 11.0018H20.0187C20.497 11.0018 20.8937 11.3985 20.8937 11.8768C20.8937 12.3552 20.497 12.7518 20.007 12.7518Z" fill="#10AA7C"/>
<path d="M18.887 2.3335H9.11036C4.8637 2.3335 2.33203 4.86516 2.33203 9.11183V18.8768C2.33203 23.1352 4.8637 25.6668 9.11036 25.6668H18.8754C23.122 25.6668 25.6537 23.1352 25.6537 18.8885V9.11183C25.6654 4.86516 23.1337 2.3335 18.887 2.3335ZM20.8237 16.4502C20.777 16.5552 20.7187 16.6485 20.637 16.7302L17.0904 20.2768C16.9154 20.4518 16.6937 20.5335 16.472 20.5335C16.2504 20.5335 16.0287 20.4518 15.8537 20.2768C15.5154 19.9385 15.5154 19.3785 15.8537 19.0402L17.907 16.9868H7.99036C7.51203 16.9868 7.11536 16.5902 7.11536 16.1118C7.11536 15.6335 7.51203 15.2368 7.99036 15.2368H20.0187C20.1354 15.2368 20.2404 15.2602 20.357 15.3068C20.567 15.4002 20.742 15.5635 20.8354 15.7852C20.9054 15.9952 20.9054 16.2402 20.8237 16.4502ZM20.007 12.7518H7.99036C7.8737 12.7518 7.7687 12.7285 7.65203 12.6818C7.44203 12.5885 7.26703 12.4252 7.1737 12.2035C7.08036 11.9935 7.08036 11.7485 7.1737 11.5385C7.22036 11.4335 7.2787 11.3402 7.36036 11.2585L10.907 7.71183C11.2454 7.3735 11.8054 7.3735 12.1437 7.71183C12.482 8.05016 12.482 8.61016 12.1437 8.9485L10.102 11.0018H20.0187C20.497 11.0018 20.8937 11.3985 20.8937 11.8768C20.8937 12.3552 20.497 12.7518 20.007 12.7518Z" fill="url(#paint0_linear_4282_10176)"/>
<defs>
<linearGradient id="paint0_linear_4282_10176" x1="18.2817" y1="2.3335" x2="18.2817" y2="25.6668" gradientUnits="userSpaceOnUse">
<stop stop-color="#24FDBC" stop-opacity="0"/>
<stop offset="1" stop-color="#24FDBC" stop-opacity="0.65"/>
</linearGradient>
</defs>
</svg>
