<svg viewBox="0 0 20 20" xmlns="http://www.w3.org/2000/svg">
<path fill-rule="evenodd" clip-rule="evenodd" d="M0.567653 12.8723C1.79724 16.9079 5.54965 19.8461 9.98728 19.8461C15.4251 19.8461 19.8334 15.4378 19.8334 9.99996C19.8334 4.56212 15.4251 0.153809 9.98728 0.153809C4.76943 0.153809 0.499584 4.21319 0.162354 9.34581C0.163778 9.3482 0.1652 9.35058 0.16662 9.35297C0.166668 9.35215 0.166693 9.35174 0.166693 9.35174L5.45746 11.5324C5.6021 11.4345 5.75658 11.352 5.91839 11.2862C6.29008 11.1333 6.68146 11.0647 7.07162 11.0825L9.48085 7.58251L9.47992 7.53389H9.47685C9.47685 5.46805 11.1547 3.78805 13.2168 3.78805C15.283 3.79235 16.9568 5.46805 16.9568 7.53389C16.9568 9.59974 15.2799 11.2816 13.2168 11.2816L13.1322 11.28L9.68823 13.7431C9.69818 14.1287 9.62646 14.5121 9.47777 14.868C9.19907 15.5363 8.66653 16.0666 7.99714 16.3424C7.32774 16.6183 6.57622 16.6172 5.90762 16.3394C5.05777 15.9856 4.47931 15.2496 4.29469 14.4102L0.567653 12.8723ZM6.14669 15.7628C7.21962 16.2099 8.45408 15.7031 8.90146 14.6262H8.899C9.115 14.1074 9.11623 13.533 8.90208 13.012C8.68792 12.4911 8.28792 12.0837 7.76485 11.8674C7.24854 11.653 6.69654 11.6591 6.211 11.8437L7.47254 12.3653C7.85249 12.524 8.15389 12.8271 8.31053 13.2079C8.46717 13.5888 8.46623 14.0162 8.30792 14.3964C8.22975 14.5845 8.11527 14.7554 7.97102 14.8992C7.82678 15.0431 7.6556 15.1572 7.46727 15.2349C7.27893 15.3125 7.07714 15.3524 6.87341 15.352C6.66968 15.3517 6.46801 15.3113 6.27992 15.233L5.06239 14.7284C5.28465 15.1945 5.67058 15.5627 6.14669 15.7628ZM11.4587 9.29741C11.9257 9.7653 12.5591 10.029 13.2202 10.0308C13.8814 10.0292 14.515 9.76553 14.9822 9.29762C15.4493 8.82971 15.712 8.1957 15.7125 7.53451C15.7118 6.87342 15.4491 6.23957 14.982 5.77179C14.5148 5.30401 13.8813 5.04044 13.2202 5.03882C12.5593 5.04061 11.9259 5.30425 11.4589 5.77201C10.9919 6.23977 10.7293 6.87352 10.7285 7.53451C10.7291 8.1956 10.9917 8.82951 11.4587 9.29741ZM11.9004 6.20559C11.5496 6.55725 11.3527 7.0338 11.3532 7.53051C11.3529 8.02716 11.5495 8.5036 11.9004 8.85513C12.2512 9.20667 12.7273 9.40454 13.2239 9.40528C13.7207 9.40479 14.197 9.20702 14.5481 8.85546C14.8991 8.5039 15.0962 8.02732 15.0959 7.53051C15.0959 6.49512 14.2562 5.65512 13.2239 5.65512C12.7272 5.65594 12.2512 5.85393 11.9004 6.20559Z" />
</svg>
