<svg viewBox="0 0 22 22" xmlns="http://www.w3.org/2000/svg">
<path d="M20.1665 11.5683V13.4566C20.1665 13.97 19.7449 14.3916 19.2224 14.3916H17.4532C16.4632 14.3916 15.5557 13.6675 15.4732 12.6775C15.4182 12.1 15.6382 11.5591 16.0232 11.1833C16.3624 10.835 16.8299 10.6333 17.3432 10.6333H19.2224C19.7449 10.6333 20.1665 11.055 20.1665 11.5683Z" />
<path d="M14.097 12.7969C14.0145 11.8344 14.3629 10.8902 15.0595 10.2027C15.6462 9.60686 16.462 9.25853 17.342 9.25853H17.8645C18.1212 9.25853 18.332 9.0477 18.2954 8.79103C18.0479 7.0127 16.5079 5.6377 14.6654 5.6377H5.4987C3.47286 5.6377 1.83203 7.27853 1.83203 9.30436V15.721C1.83203 17.7469 3.47286 19.3877 5.4987 19.3877H14.6654C16.517 19.3877 18.0479 18.0127 18.2954 16.2344C18.332 15.9777 18.1212 15.7669 17.8645 15.7669H17.452C15.7104 15.7669 14.2437 14.4652 14.097 12.7969ZM11.9154 10.9085H6.41536C6.03953 10.9085 5.72786 10.606 5.72786 10.221C5.72786 9.83603 6.03953 9.53353 6.41536 9.53353H11.9154C12.2912 9.53353 12.6029 9.84519 12.6029 10.221C12.6029 10.5969 12.2912 10.9085 11.9154 10.9085Z" />
<path d="M13.0267 3.64814C13.2651 3.89564 13.0542 4.2623 12.7059 4.2623H5.52841C4.52925 4.2623 3.59425 4.55564 2.81508 5.0598C2.45758 5.28897 1.97175 5.04147 2.14591 4.6473C2.65925 3.44647 3.86008 2.6123 5.24425 2.6123H10.3959C11.4592 2.6123 12.4034 2.98814 13.0267 3.64814Z" />
</svg>
