<svg width="24" height="24" viewBox="0 0 24 24" fill="none" xmlns="http://www.w3.org/2000/svg">
<mask id="path-1-inside-1_2358_4670" fill="white">
<path d="M12.0015 4.96345L16.2703 7.44652C17.7433 3.75573 18.2416 2.50726 18.3889 2.13834C18.3886 2.13906 18.3891 2.13786 18.3903 2.13478C18.3905 2.13422 18.3908 2.13354 18.391 2.13298C18.3924 2.12938 18.3947 2.12362 18.3978 2.11594C18.3956 2.12138 18.3937 2.12622 18.3922 2.1299C18.3976 2.11622 18.4027 2.1037 18.4071 2.0925C18.4057 2.09598 18.4044 2.0993 18.4031 2.10254C18.406 2.09542 18.4093 2.0871 18.4132 2.07742C18.4112 2.08222 18.4093 2.08722 18.4071 2.0925C18.4105 2.0841 18.414 2.07526 18.4175 2.06646C18.4183 2.06458 18.4191 2.0625 18.4198 2.06074C18.4214 2.05666 18.4228 2.05314 18.4243 2.0495C18.4236 2.05122 18.4229 2.05298 18.4222 2.0547C18.4233 2.05194 18.4244 2.0493 18.4256 2.04634C18.4252 2.04738 18.4247 2.04846 18.4243 2.0495C18.4252 2.04734 18.426 2.04522 18.4268 2.04322C18.4307 2.03354 18.4341 2.02494 18.437 2.01778C18.4371 2.01738 18.4374 2.01666 18.4376 2.0163C18.4379 2.01542 18.4382 2.0147 18.4385 2.0139C18.4439 2.00022 18.4451 1.99746 18.4432 2.00206H5.55681C5.64423 2.2209 6.78975 5.08829 7.73146 7.44552L12.0015 4.96345Z"/>
<path d="M12.0016 5.70817C11.2854 6.12485 14.5955 4.19893 5 9.78192V17.9262L12.0016 22L19 17.9263V9.78196C9.40938 4.19925 12.7172 6.12473 12.0016 5.70817ZM13.8201 16.6758L12.0012 15.7117L10.1821 16.6758L10.5287 14.6341L9.0573 13.1875L11.0916 12.8905L12.0011 11.0324L12.9106 12.8905L14.944 13.1875L13.4726 14.6341L13.8201 16.6758Z"/>
</mask>
<path d="M12.0015 4.96345L16.2703 7.44652C17.7433 3.75573 18.2416 2.50726 18.3889 2.13834C18.3886 2.13906 18.3891 2.13786 18.3903 2.13478C18.3905 2.13422 18.3908 2.13354 18.391 2.13298C18.3924 2.12938 18.3947 2.12362 18.3978 2.11594C18.3956 2.12138 18.3937 2.12622 18.3922 2.1299C18.3976 2.11622 18.4027 2.1037 18.4071 2.0925C18.4057 2.09598 18.4044 2.0993 18.4031 2.10254C18.406 2.09542 18.4093 2.0871 18.4132 2.07742C18.4112 2.08222 18.4093 2.08722 18.4071 2.0925C18.4105 2.0841 18.414 2.07526 18.4175 2.06646C18.4183 2.06458 18.4191 2.0625 18.4198 2.06074C18.4214 2.05666 18.4228 2.05314 18.4243 2.0495C18.4236 2.05122 18.4229 2.05298 18.4222 2.0547C18.4233 2.05194 18.4244 2.0493 18.4256 2.04634C18.4252 2.04738 18.4247 2.04846 18.4243 2.0495C18.4252 2.04734 18.426 2.04522 18.4268 2.04322C18.4307 2.03354 18.4341 2.02494 18.437 2.01778C18.4371 2.01738 18.4374 2.01666 18.4376 2.0163C18.4379 2.01542 18.4382 2.0147 18.4385 2.0139C18.4439 2.00022 18.4451 1.99746 18.4432 2.00206H5.55681C5.64423 2.2209 6.78975 5.08829 7.73146 7.44552L12.0015 4.96345Z" fill="black"/>
<path d="M12.0015 4.96345L16.2703 7.44652C17.7433 3.75573 18.2416 2.50726 18.3889 2.13834C18.3886 2.13906 18.3891 2.13786 18.3903 2.13478C18.3905 2.13422 18.3908 2.13354 18.391 2.13298C18.3924 2.12938 18.3947 2.12362 18.3978 2.11594C18.3956 2.12138 18.3937 2.12622 18.3922 2.1299C18.3976 2.11622 18.4027 2.1037 18.4071 2.0925C18.4057 2.09598 18.4044 2.0993 18.4031 2.10254C18.406 2.09542 18.4093 2.0871 18.4132 2.07742C18.4112 2.08222 18.4093 2.08722 18.4071 2.0925C18.4105 2.0841 18.414 2.07526 18.4175 2.06646C18.4183 2.06458 18.4191 2.0625 18.4198 2.06074C18.4214 2.05666 18.4228 2.05314 18.4243 2.0495C18.4236 2.05122 18.4229 2.05298 18.4222 2.0547C18.4233 2.05194 18.4244 2.0493 18.4256 2.04634C18.4252 2.04738 18.4247 2.04846 18.4243 2.0495C18.4252 2.04734 18.426 2.04522 18.4268 2.04322C18.4307 2.03354 18.4341 2.02494 18.437 2.01778C18.4371 2.01738 18.4374 2.01666 18.4376 2.0163C18.4379 2.01542 18.4382 2.0147 18.4385 2.0139C18.4439 2.00022 18.4451 1.99746 18.4432 2.00206H5.55681C5.64423 2.2209 6.78975 5.08829 7.73146 7.44552L12.0015 4.96345Z" fill="#E2B617"/>
<path d="M12.0016 5.70817C11.2854 6.12485 14.5955 4.19893 5 9.78192V17.9262L12.0016 22L19 17.9263V9.78196C9.40938 4.19925 12.7172 6.12473 12.0016 5.70817ZM13.8201 16.6758L12.0012 15.7117L10.1821 16.6758L10.5287 14.6341L9.0573 13.1875L11.0916 12.8905L12.0011 11.0324L12.9106 12.8905L14.944 13.1875L13.4726 14.6341L13.8201 16.6758Z" fill="black"/>
<path d="M12.0016 5.70817C11.2854 6.12485 14.5955 4.19893 5 9.78192V17.9262L12.0016 22L19 17.9263V9.78196C9.40938 4.19925 12.7172 6.12473 12.0016 5.70817ZM13.8201 16.6758L12.0012 15.7117L10.1821 16.6758L10.5287 14.6341L9.0573 13.1875L11.0916 12.8905L12.0011 11.0324L12.9106 12.8905L14.944 13.1875L13.4726 14.6341L13.8201 16.6758Z" fill="#E2B617"/>
<path d="M17.9597 1.86496C17.9596 1.86514 17.9587 1.86769 17.9593 1.86596C17.9595 1.86544 17.9603 1.86348 17.9613 1.86095C17.9635 1.85534 17.9669 1.84678 17.9716 1.83654L18.8809 2.25286C18.8858 2.24209 18.8895 2.23306 18.8919 2.22697C18.893 2.2242 18.8938 2.222 18.8941 2.22124C18.8942 2.2209 18.8944 2.22048 18.8943 2.22064C18.8943 2.22066 18.8942 2.22101 18.894 2.22147L17.9597 1.86496ZM12.0015 4.96345L12.5043 4.09905L12.0016 3.80668L11.4989 4.0989L12.0015 4.96345ZM16.2703 7.44652L15.7675 8.31092L16.7694 8.89371L17.199 7.8172L16.2703 7.44652ZM18.3889 2.13834L19.3218 2.49829L17.4601 1.7676L18.3889 2.13834ZM18.3903 2.13478L17.47 1.74349L17.4657 1.75363L17.4616 1.76385L18.3903 2.13478ZM18.391 2.13298L19.3113 2.52427L19.316 2.51311L19.3205 2.50184L18.391 2.13298ZM18.3978 2.11594L19.3269 2.48563L17.4697 1.74357L18.3978 2.11594ZM18.3922 2.1299L17.4629 1.76057L19.3175 2.50908L18.3922 2.1299ZM18.4071 2.0925L17.4791 1.71985L17.4784 1.72181L18.4071 2.0925ZM18.4031 2.10254L17.4751 1.73011L19.3302 2.47728L18.4031 2.10254ZM18.4132 2.07742L19.3426 2.44628L17.4839 1.7079L18.4132 2.07742ZM18.4175 2.06646L17.4894 1.69421L17.488 1.6976L18.4175 2.06646ZM18.4198 2.06074L19.3464 2.43681L19.3487 2.43116L18.4198 2.06074ZM18.4222 2.0547L17.4913 1.68955L19.3499 2.42816L18.4222 2.0547ZM18.4256 2.04634L19.3599 2.40284L17.4978 1.67318L18.4256 2.04634ZM18.4268 2.04322L17.4989 1.67042L17.4974 1.67436L18.4268 2.04322ZM18.437 2.01778L19.3657 2.38842L19.3664 2.38664L18.437 2.01778ZM18.4376 2.0163L19.3526 2.41975L19.3586 2.40615L19.3641 2.39237L18.4376 2.0163ZM18.4385 2.0139L17.5092 1.64457L17.509 1.64504L18.4385 2.0139ZM18.4432 2.00206V3.00206H19.1168L19.37 2.37781L18.4432 2.00206ZM5.55681 2.00206V1.00206H4.08047L4.62817 2.37304L5.55681 2.00206ZM7.73146 7.44552L6.80282 7.81651L7.23255 8.8922L8.234 8.31007L7.73146 7.44552ZM12.0016 5.70817L12.5047 4.84393L12.0017 4.55115L11.4987 4.84382L12.0016 5.70817ZM5 9.78192L4.4971 8.91757L4 9.2068V9.78192H5ZM5 17.9262H4V18.5013L4.49709 18.7906L5 17.9262ZM12.0016 22L11.4987 22.8643L12.0017 23.157L12.5047 22.8642L12.0016 22ZM19 17.9263L19.5031 18.7905L20 18.5012V17.9263H19ZM19 9.78196H20V9.20697L19.5031 8.91771L19 9.78196ZM13.8201 16.6758L13.3518 17.5593L15.1469 18.5108L14.8059 16.508L13.8201 16.6758ZM12.0012 15.7117L12.4695 14.8281L12.0012 14.5799L11.5329 14.8281L12.0012 15.7117ZM10.1821 16.6758L9.19625 16.5084L8.85646 18.5102L10.6504 17.5593L10.1821 16.6758ZM10.5287 14.6341L11.5146 14.8015L11.602 14.2869L11.2298 13.921L10.5287 14.6341ZM9.0573 13.1875L8.91282 12.198L6.92035 12.489L8.35623 13.9006L9.0573 13.1875ZM11.0916 12.8905L11.2361 13.88L11.758 13.8038L11.9898 13.3301L11.0916 12.8905ZM12.0011 11.0324L12.8993 10.5928L12.0011 8.75774L11.1029 10.5928L12.0011 11.0324ZM12.9106 12.8905L12.0124 13.3301L12.2442 13.8038L12.766 13.88L12.9106 12.8905ZM14.944 13.1875L15.645 13.9006L17.0808 12.4891L15.0885 12.198L14.944 13.1875ZM13.4726 14.6341L12.7715 13.921L12.3991 14.2872L12.4867 14.802L13.4726 14.6341ZM11.4987 5.82785L15.7675 8.31092L16.7731 6.58212L12.5043 4.09905L11.4987 5.82785ZM17.199 7.8172C18.6721 4.12638 19.1703 2.87796 19.3176 2.50908L17.4601 1.7676C17.3128 2.13656 16.8145 3.38509 15.3415 7.07584L17.199 7.8172ZM17.4559 1.77838C17.4557 1.77892 17.4553 1.77999 17.4548 1.78132C17.4545 1.78195 17.4531 1.78564 17.4514 1.79034C17.4509 1.79166 17.4481 1.79914 17.4447 1.80873C17.4438 1.81144 17.4385 1.82658 17.4325 1.8461C17.4308 1.85171 17.4213 1.88238 17.4125 1.92224C17.4097 1.93456 17.3959 1.99551 17.3908 2.0748C17.3889 2.1236 17.3963 2.26058 17.4109 2.34777C17.466 2.52381 17.7941 2.94252 18.1095 3.09873C18.4236 3.13793 18.8744 3.01271 19.0029 2.92773C19.0611 2.87876 19.1446 2.79336 19.1722 2.75998C19.2173 2.70319 19.2458 2.65398 19.2524 2.64273C19.272 2.60913 19.2853 2.58162 19.2879 2.57619C19.2967 2.55828 19.3029 2.54394 19.3041 2.54127C19.3081 2.53209 19.3112 2.52481 19.3117 2.5235C19.3136 2.5189 19.3151 2.51526 19.3154 2.51464C19.3159 2.51332 19.3163 2.51226 19.3165 2.51173C19.317 2.51064 19.3173 2.50973 19.3175 2.50939C19.3178 2.50866 19.3188 2.50605 19.319 2.5057L17.4616 1.76385C17.4613 1.76477 17.461 1.76554 17.4607 1.76607C17.4605 1.76676 17.4605 1.76674 17.4605 1.76658C17.4606 1.76653 17.4608 1.76587 17.4612 1.76495C17.4614 1.76451 17.4618 1.76353 17.4623 1.76227C17.4625 1.7617 17.464 1.7581 17.4659 1.75354C17.4664 1.75224 17.4694 1.74497 17.4735 1.7358C17.4746 1.73313 17.4809 1.7188 17.4896 1.70089C17.4923 1.69546 17.5056 1.66795 17.5252 1.63435C17.5318 1.6231 17.5603 1.57389 17.6053 1.5171C17.633 1.48372 17.7164 1.39832 17.7746 1.34935C17.9032 1.26437 18.3539 1.13915 18.6681 1.17835C18.9834 1.33456 19.3116 1.75327 19.3667 1.92931C19.3813 2.0165 19.3887 2.15348 19.3868 2.20228C19.3817 2.28157 19.3678 2.34252 19.3651 2.35484C19.3563 2.3947 19.3468 2.42537 19.3451 2.43097C19.3391 2.4505 19.3338 2.46563 19.3328 2.46834C19.3295 2.47792 19.3267 2.48539 19.3262 2.48669C19.3245 2.49136 19.3231 2.49501 19.3229 2.49558C19.3224 2.49686 19.322 2.49785 19.3218 2.49829L17.4559 1.77838ZM19.3106 2.52607C19.3154 2.51469 19.319 2.50553 19.321 2.50067C19.322 2.49805 19.3228 2.49593 19.3233 2.49465C19.3236 2.49399 19.3238 2.49346 19.3239 2.49312C19.324 2.49294 19.324 2.4928 19.3241 2.4927C19.3241 2.49262 19.3241 2.49254 19.3241 2.49253C19.3245 2.49167 19.323 2.4954 19.3213 2.49974C19.3195 2.5043 19.316 2.51317 19.3113 2.52427L17.4707 1.74169C17.4659 1.75307 17.4623 1.76223 17.4603 1.76709C17.4593 1.7697 17.4585 1.77183 17.458 1.7731C17.4577 1.77376 17.4575 1.7743 17.4574 1.77464C17.4573 1.77481 17.4573 1.77496 17.4572 1.77505C17.4572 1.77514 17.4572 1.77522 17.4572 1.77523C17.4568 1.77608 17.4583 1.77235 17.46 1.76801C17.4618 1.76345 17.4653 1.75459 17.47 1.74349L19.3106 2.52607ZM19.3205 2.50184C19.3219 2.49837 19.323 2.49564 19.3269 2.48563L17.4686 1.74625C17.4665 1.75159 17.463 1.76039 17.4615 1.76412L19.3205 2.50184ZM17.4697 1.74357C17.4681 1.74752 17.4663 1.75206 17.4659 1.75306C17.4656 1.75394 17.4655 1.75407 17.4656 1.75386C17.4657 1.75368 17.4661 1.7525 17.4669 1.75072L19.3175 2.50908C19.319 2.50546 19.3203 2.50229 19.3212 2.49999C19.3221 2.49768 19.323 2.49557 19.3236 2.4941C19.325 2.49039 19.3253 2.4898 19.3259 2.4883L17.4697 1.74357ZM19.3215 2.49922C19.3238 2.49352 19.326 2.48794 19.3285 2.48157C19.3309 2.4756 19.3338 2.4684 19.3366 2.46136L17.4776 1.72364C17.4689 1.74574 17.475 1.73009 17.4629 1.76057L19.3215 2.49922ZM17.4784 1.72181C17.4775 1.72397 17.4761 1.72744 17.476 1.72773C17.4755 1.72892 17.4756 1.72863 17.476 1.7278L19.3302 2.47728C19.3319 2.4732 19.3333 2.46964 19.3342 2.46748C19.3354 2.46444 19.3354 2.4645 19.3359 2.46319L17.4784 1.72181ZM19.3312 2.47497C19.3342 2.46745 19.338 2.45803 19.3424 2.44694L17.4839 1.7079C17.4806 1.71617 17.4777 1.72339 17.4751 1.73011L19.3312 2.47497ZM17.4837 1.70856C17.4816 1.71378 17.481 1.71529 17.4805 1.71643L19.3337 2.46857C19.3375 2.45915 19.3409 2.45066 19.3426 2.44628L17.4837 1.70856ZM19.3351 2.46514C19.3389 2.4556 19.343 2.44549 19.347 2.43532L17.488 1.6976C17.4851 1.70503 17.4821 1.7126 17.4791 1.71985L19.3351 2.46514ZM19.3457 2.4387C19.3466 2.43636 19.3466 2.43629 19.3464 2.43681L17.4932 1.68467C17.4916 1.6887 17.49 1.69279 17.4894 1.69422L19.3457 2.4387ZM19.3487 2.43116C19.3497 2.42866 19.351 2.42524 19.3513 2.42457C19.3518 2.42321 19.3519 2.42317 19.3517 2.42359L17.4969 1.6754C17.4953 1.67947 17.4939 1.68301 17.4929 1.68533C17.4917 1.68836 17.4916 1.68874 17.491 1.69032L19.3487 2.43116ZM17.4934 1.68435C17.4942 1.68207 17.495 1.68023 17.4944 1.68158C17.4943 1.68197 17.4929 1.68555 17.4913 1.68955L19.3532 2.41984C19.3523 2.42213 19.3516 2.42396 19.3521 2.42262C19.3523 2.42222 19.3537 2.41865 19.3553 2.41464L17.4934 1.68435ZM19.3499 2.42816C19.3515 2.42406 19.353 2.42037 19.3534 2.41936C19.354 2.41773 19.3538 2.41845 19.3533 2.41949L17.4978 1.67318C17.4962 1.67718 17.4948 1.68071 17.4944 1.68183C17.4937 1.68356 17.4941 1.68258 17.4946 1.68123L19.3499 2.42816ZM17.4913 1.68983C17.4943 1.68194 17.4968 1.6757 17.4982 1.67222C17.4995 1.66901 17.5006 1.66631 17.5003 1.66709C17.5003 1.66709 17.4999 1.66796 17.4995 1.66895C17.4991 1.67003 17.4984 1.67173 17.4975 1.6738C17.4959 1.67782 17.4932 1.68458 17.49 1.69299L19.3586 2.406C19.3556 2.41389 19.3531 2.42013 19.3517 2.42362C19.3504 2.42682 19.3493 2.42953 19.3496 2.42875C19.3496 2.42874 19.3499 2.42787 19.3503 2.42688C19.3508 2.42581 19.3515 2.42411 19.3523 2.42203C19.3539 2.41802 19.3567 2.41125 19.3599 2.40284L17.4913 1.68983ZM19.3514 2.42424C19.3512 2.4247 19.3511 2.42495 19.3512 2.42469C19.3513 2.42454 19.3514 2.42441 19.3515 2.42408C19.3516 2.4238 19.3518 2.42337 19.352 2.4229C19.3526 2.42129 19.3543 2.41711 19.3563 2.41208L17.4974 1.67436L17.4972 1.67476L19.3514 2.42424ZM19.3548 2.41602C19.3576 2.40897 19.3601 2.40267 19.3619 2.39797C19.3641 2.39245 19.3649 2.39052 19.3657 2.38842L17.5082 1.64714C17.5062 1.6522 17.5038 1.65814 17.5026 1.66114C17.5011 1.66495 17.5 1.66779 17.4989 1.67042L19.3548 2.41602ZM19.3664 2.38664C19.3672 2.38479 19.3679 2.38286 19.3677 2.38355C19.3677 2.38355 19.3675 2.38387 19.3674 2.3843C19.3672 2.38473 19.3669 2.38544 19.3666 2.38631C19.366 2.3878 19.3647 2.39113 19.3629 2.39538C19.362 2.39759 19.3607 2.40067 19.3592 2.40434C19.3577 2.40785 19.3554 2.41322 19.3526 2.41975L17.5226 1.61284C17.5196 1.61946 17.5173 1.62494 17.5158 1.62856C17.5142 1.63234 17.5129 1.63554 17.5119 1.63787C17.5101 1.64237 17.5086 1.64598 17.5079 1.64774C17.5072 1.64961 17.5066 1.65114 17.5065 1.65131C17.5062 1.65225 17.5068 1.65056 17.5075 1.64892L19.3664 2.38664ZM19.3641 2.39237C19.3662 2.38738 19.3677 2.38341 19.3684 2.38161C19.3686 2.38121 19.3691 2.37986 19.3689 2.38057C19.3688 2.38072 19.3685 2.38159 19.368 2.38276L17.509 1.64504C17.5084 1.6466 17.5079 1.64787 17.5077 1.64841C17.5073 1.6495 17.5076 1.64854 17.5076 1.64852C17.508 1.6475 17.5093 1.64433 17.511 1.64023L19.3641 2.39237ZM19.3678 2.38322C19.369 2.38033 19.3698 2.37817 19.3704 2.37668C19.3707 2.37594 19.3709 2.37538 19.3711 2.37498C19.3713 2.37458 19.3713 2.3744 19.3713 2.37442C19.3713 2.37442 19.3713 2.37452 19.3712 2.3747C19.3712 2.37483 19.371 2.37523 19.3708 2.37579C19.3707 2.37605 19.3704 2.3766 19.3701 2.37731C19.37 2.37767 19.3698 2.37826 19.3695 2.37899C19.3692 2.37952 19.3686 2.38108 19.3678 2.38307C19.3674 2.38399 19.3665 2.38608 19.3654 2.38874C19.3649 2.39006 19.3639 2.39236 19.3627 2.39521C19.3618 2.39722 19.3591 2.40353 19.3555 2.41154C19.3534 2.41599 19.348 2.42761 19.3446 2.43477C19.3379 2.44836 19.3118 2.49708 19.2911 2.53151C19.0675 2.78187 17.8141 2.77662 17.4523 1.87226C17.4635 1.80385 17.4851 1.71657 17.4911 1.69687C17.4941 1.68749 17.4991 1.67269 17.501 1.66724C17.5023 1.66367 17.5045 1.65758 17.5054 1.65506C17.5073 1.65 17.5088 1.64603 17.5095 1.64424C17.5109 1.64041 17.5121 1.63742 17.5125 1.6364C17.5131 1.635 17.5135 1.63388 17.5138 1.63321C17.5143 1.63188 17.5147 1.63084 17.5149 1.63036C17.5162 1.62704 17.5171 1.62479 17.5165 1.6263L19.37 2.37781C19.3703 2.37703 19.3717 2.3734 19.3732 2.36973C19.3734 2.36922 19.3738 2.36816 19.3744 2.36682C19.3746 2.36615 19.3751 2.36502 19.3756 2.36362C19.376 2.36259 19.3772 2.3596 19.3786 2.35576C19.3793 2.35397 19.3808 2.35 19.3827 2.34494C19.3836 2.34242 19.3858 2.33633 19.3871 2.33276C19.389 2.32731 19.394 2.31251 19.397 2.30313C19.4031 2.28344 19.4246 2.19615 19.4359 2.12774C19.074 1.22338 17.8206 1.21813 17.597 1.46849C17.5764 1.50292 17.5502 1.55164 17.5435 1.56523C17.5401 1.57239 17.5347 1.58402 17.5327 1.58846C17.5291 1.59648 17.5263 1.60278 17.5255 1.60479C17.5242 1.60765 17.5233 1.60995 17.5227 1.61127C17.5216 1.61393 17.5207 1.61602 17.5203 1.61695C17.519 1.62016 17.5179 1.62279 17.5179 1.62282C17.5176 1.62359 17.5174 1.62421 17.5172 1.62456C17.5167 1.62586 17.5162 1.62706 17.5159 1.62783C17.5145 1.6313 17.5123 1.63677 17.5092 1.64457L19.3678 2.38322ZM18.4432 1.00206H5.55681V3.00206H18.4432V1.00206ZM4.62817 2.37304C4.71559 2.59188 5.86112 5.45929 6.80282 7.81651L8.6601 7.07454C7.71839 4.71729 6.57287 1.84991 6.48545 1.63108L4.62817 2.37304ZM8.234 8.31007L12.504 5.828L11.4989 4.0989L7.22891 6.58097L8.234 8.31007ZM11.4987 4.84382C11.4539 4.86986 11.4249 4.88674 11.4075 4.89688C11.3988 4.90196 11.393 4.90533 11.3895 4.90732C11.3878 4.90832 11.3868 4.90894 11.3863 4.90924C11.3854 4.90971 11.3863 4.90921 11.3872 4.90871C11.3902 4.90693 12.7542 5.27358 12.3942 6.63668C12.3934 6.63716 12.3923 6.63776 12.3921 6.63788C12.3919 6.638 12.3918 6.63808 12.3919 6.63802C12.3949 6.63625 12.4277 6.61716 12.4577 6.5997C12.4727 6.59102 12.4868 6.58281 12.4959 6.57747C12.5005 6.5748 12.5039 6.57284 12.5055 6.5719C12.5059 6.57167 12.5062 6.57148 12.5064 6.57136C12.5065 6.57133 12.5067 6.57121 12.5069 6.5711C12.5072 6.57094 12.8684 5.20486 11.5032 4.84119C11.5022 4.84176 11.5011 4.84241 11.501 4.84249C11.5007 4.84267 11.4998 4.84316 11.4987 4.8438C11.489 4.84945 11.443 4.87622 11.3276 4.94333C10.8662 5.21181 9.29484 6.12608 4.4971 8.91757L5.5029 10.6463C10.3007 7.85477 11.872 6.9405 12.3334 6.67202C12.4488 6.60489 12.4948 6.57815 12.5045 6.57252C12.5058 6.57176 12.5062 6.5715 12.5062 6.57151C12.5061 6.57157 12.505 6.57221 12.504 6.57278C11.1388 6.20911 11.5 4.84303 11.5003 4.84288C11.5004 4.8428 11.5005 4.84275 11.5004 4.84282C11.5003 4.8429 11.5 4.84305 11.4996 4.84328C11.498 4.8442 11.4947 4.84614 11.4901 4.84881C11.4809 4.85415 11.4668 4.86236 11.4519 4.87104C11.4222 4.88831 11.3889 4.9077 11.3855 4.90969C11.3854 4.90975 11.3851 4.90991 11.3848 4.91008C11.3846 4.91022 11.3835 4.91084 11.3827 4.91132C11.0226 6.27443 12.3866 6.64108 12.3897 6.63929C12.3901 6.63908 12.3906 6.63878 12.3908 6.63868C12.3909 6.63862 12.391 6.63853 12.3911 6.63848C12.3913 6.63838 12.3914 6.63828 12.3916 6.63818C12.3923 6.63779 12.3935 6.63709 12.3952 6.6361C12.3987 6.63408 12.4045 6.63068 12.4132 6.62561C12.4307 6.61546 12.4597 6.59856 12.5045 6.57252L11.4987 4.84382ZM4 9.78192V17.9262H6V9.78192H4ZM4.49709 18.7906L11.4987 22.8643L12.5045 21.1357L5.50291 17.0619L4.49709 18.7906ZM12.5047 22.8642L19.5031 18.7905L18.4969 17.062L11.4985 21.1358L12.5047 22.8642ZM20 17.9263V9.78196H18V17.9263H20ZM19.5031 8.91771C14.7078 6.12636 13.1371 5.21206 12.6757 4.94352C12.5604 4.87637 12.5144 4.84961 12.5047 4.84397C12.5041 4.84362 12.5037 4.84335 12.5033 4.84316C12.503 4.84295 12.5029 4.84289 12.5029 4.84292C12.503 4.84296 12.5037 4.84337 12.5043 4.84373C12.8636 6.21052 11.4971 6.57158 11.4968 6.57145C11.4967 6.57139 11.4967 6.57135 11.4968 6.57142C11.4969 6.5715 11.4972 6.57165 11.4976 6.57189C11.4992 6.5728 11.5025 6.57474 11.5071 6.57741C11.5162 6.58274 11.5303 6.59094 11.5452 6.59962C11.5749 6.61688 11.6082 6.63626 11.6116 6.63824C11.6117 6.6383 11.6119 6.63844 11.6122 6.6386C11.6124 6.63873 11.6134 6.63927 11.6141 6.6397C12.9775 6.27946 12.6221 4.91233 12.6192 4.91061C12.6189 4.91041 12.6184 4.91013 12.6182 4.91004C12.6181 4.90999 12.618 4.9099 12.6179 4.90985C12.6178 4.90976 12.6176 4.90966 12.6174 4.90956C12.6167 4.90918 12.6156 4.90849 12.6139 4.90749C12.6104 4.90548 12.6046 4.90208 12.5959 4.89701C12.5784 4.88686 12.5494 4.86997 12.5047 4.84393L11.4985 6.5724C11.5432 6.59844 11.5722 6.61532 11.5896 6.62546C11.5983 6.63053 11.6041 6.6339 11.6076 6.63589C11.6093 6.63689 11.6103 6.63751 11.6109 6.63781C11.6116 6.63826 11.6109 6.63781 11.6101 6.63735C11.6072 6.63564 11.2518 5.26851 12.6152 4.90826C12.6159 4.90868 12.6168 4.90921 12.617 4.90932C12.6172 4.90942 12.6173 4.90949 12.6172 4.90943C12.6141 4.90765 12.5813 4.88855 12.5514 4.87111C12.5365 4.86244 12.5224 4.85423 12.5132 4.8489C12.5086 4.84624 12.5053 4.84428 12.5037 4.84335C12.5033 4.84312 12.5029 4.84293 12.5027 4.84282C12.5027 4.84278 12.5025 4.84268 12.5024 4.84259C12.5021 4.84245 11.1356 5.2035 11.4949 6.57029C11.4955 6.57066 11.4962 6.57108 11.4963 6.57114C11.4966 6.5713 11.4974 6.57176 11.4985 6.57242C11.5082 6.57809 11.5543 6.60487 11.6696 6.672C12.1309 6.94054 13.7016 7.85485 18.4969 10.6462L19.5031 8.91771ZM14.2884 15.7922L12.4695 14.8281L11.5328 16.5953L13.3518 17.5593L14.2884 15.7922ZM11.5329 14.8281L9.71385 15.7922L10.6504 17.5593L12.4694 16.5953L11.5329 14.8281ZM11.168 16.8431L11.5146 14.8015L9.54281 14.4668L9.19625 16.5084L11.168 16.8431ZM11.2298 13.921L9.75837 12.4745L8.35623 13.9006L9.82764 15.3472L11.2298 13.921ZM9.20179 14.1771L11.2361 13.88L10.9471 11.901L8.91282 12.198L9.20179 14.1771ZM11.9898 13.3301L12.8993 11.472L11.1029 10.5928L10.1934 12.4509L11.9898 13.3301ZM11.1029 11.472L12.0124 13.3301L13.8088 12.4509L12.8993 10.5928L11.1029 11.472ZM12.766 13.88L14.7994 14.177L15.0885 12.198L13.0551 11.901L12.766 13.88ZM14.2429 12.4745L12.7715 13.921L14.1736 15.3472L15.645 13.9006L14.2429 12.4745ZM12.4867 14.802L12.8343 16.8436L14.8059 16.508L14.4584 14.4663L12.4867 14.802Z" fill="#FDCD24" mask="url(#path-1-inside-1_2358_4670)"/>
</svg>
