<svg  viewBox="0 0 56 56" xmlns="http://www.w3.org/2000/svg">
<g clip-path="url(#clip0_13_9314)">
<path d="M52.8909 21.2012H48.2412V24.5054H52.8909V21.2012Z" />
<path d="M7.42897 21.2012H3.10986V24.5054H7.42897V21.2012Z" />
<path d="M48.6023 44.0058H7.39793C6.48531 44.0058 5.74561 43.2661 5.74561 42.3535V5.80639C5.74561 2.60477 8.35026 0 11.5518 0H44.4484C47.6499 0 50.2547 2.60477 50.2547 5.80639V42.3535C50.2547 43.2661 49.515 44.0058 48.6023 44.0058ZM9.05015 40.7012H46.95V5.80639C46.95 4.42684 45.8277 3.30466 44.4484 3.30466H11.5518C10.1724 3.30466 9.05015 4.42695 9.05015 5.80639V40.7012Z" />
<path d="M48.5859 54.3475H7.41412C4.68445 54.3475 2.47168 52.1347 2.47168 49.4051V24.0957C2.47168 23.0099 3.67776 22.3585 4.58579 22.9538L26.8298 37.5351C27.5404 38.001 28.4596 38.001 29.1703 37.5351L51.4144 22.9538C52.3225 22.3585 53.5285 23.01 53.5285 24.0957V49.4051C53.5284 52.1347 51.3155 54.3475 48.5859 54.3475Z" fill="#141925"/>
<path d="M48.5859 56.0004H7.4141C3.77771 56.0004 0.819336 53.0421 0.819336 49.4056V24.0962C0.819336 22.4309 2.17471 21.0762 3.84071 21.0762C4.42543 21.0762 4.99637 21.2479 5.49151 21.5724L27.7355 36.154C27.835 36.2192 27.9343 36.2329 27.9999 36.2329C28.0655 36.2329 28.1648 36.2192 28.2643 36.154L50.5084 21.5724C51.0036 21.2479 51.5745 21.0762 52.1592 21.0762C53.8252 21.0762 55.1806 22.4309 55.1806 24.0962V49.4056C55.1806 53.0421 52.2223 56.0004 48.5859 56.0004ZM4.12399 24.6271V49.4056C4.12399 51.2197 5.60001 52.6957 7.4141 52.6957H48.5859C50.4 52.6957 51.876 51.2197 51.876 49.4056V24.6271L30.0762 38.9175C29.4575 39.323 28.7398 39.5374 28 39.5374C27.2603 39.5374 26.5425 39.3231 25.9239 38.9175L4.12399 24.6271Z" />
<path d="M4.58723 54.5361C4.04878 54.5361 3.52104 54.2734 3.20374 53.7894C2.70346 53.0261 2.91653 52.0019 3.67975 51.5016L11.3919 46.4459C12.1552 45.9457 13.1794 46.1587 13.6797 46.9219C14.18 47.6852 13.9669 48.7094 13.2037 49.2097L5.49154 54.2654C5.2122 54.4485 4.89785 54.5361 4.58723 54.5361Z" />
<path d="M51.4127 54.5361C51.1018 54.5361 50.7876 54.4485 50.5083 54.2654L28.2643 39.6841C28.1037 39.5786 27.896 39.5786 27.7356 39.6841L20.6444 44.3325C19.8808 44.8328 18.8569 44.6197 18.3566 43.8565C17.8563 43.0933 18.0694 42.069 18.8326 41.5687L25.9238 36.9203C27.185 36.0936 28.815 36.0936 30.0761 36.9203L52.32 51.5016C53.0832 52.0019 53.2964 53.0262 52.796 53.7894C52.4788 54.2732 51.9511 54.5361 51.4127 54.5361Z" />
<path d="M36.2614 13.2715H19.7383C18.8256 13.2715 18.0859 12.5317 18.0859 11.6191C18.0859 10.7065 18.8256 9.9668 19.7383 9.9668H36.2614C37.1741 9.9668 37.9138 10.7065 37.9138 11.6191C37.9138 12.5317 37.1741 13.2715 36.2614 13.2715Z" />
<path d="M38.9056 21.9091H17.0947C16.1821 21.9091 15.4424 21.1694 15.4424 20.2568C15.4424 19.3442 16.1821 18.6045 17.0947 18.6045H38.9056C39.8182 18.6045 40.5579 19.3442 40.5579 20.2568C40.5579 21.1694 39.8182 21.9091 38.9056 21.9091Z" />
</g>

</svg>
