<svg width="12" height="12" viewBox="0 0 12 12" fill="none" xmlns="http://www.w3.org/2000/svg">
<path d="M9.375 0.75H0.375V9.75C0.375 10.1478 0.533035 10.5294 0.81434 10.8107C1.09564 11.092 1.47718 11.25 1.875 11.25H10.125C10.2671 11.2511 10.4085 11.231 10.5446 11.1904C10.8031 11.1079 11.0357 10.9598 11.2197 10.7605C11.4038 10.5612 11.533 10.3176 11.5946 10.0534C11.6158 9.95366 11.626 9.85193 11.625 9.75V6H9.375V0.75ZM1.875 10.5C1.67627 10.4994 1.48585 10.4202 1.34533 10.2797C1.2048 10.1392 1.12559 9.94873 1.125 9.75V1.5H8.625V9.75C8.62527 10.0135 8.69513 10.2722 8.8275 10.5H1.875ZM10.875 6.75V9.75C10.875 9.94891 10.796 10.1397 10.6553 10.2803C10.5147 10.421 10.3239 10.5 10.125 10.5C9.92609 10.5 9.73532 10.421 9.59467 10.2803C9.45402 10.1397 9.375 9.94891 9.375 9.75V6.75H10.875Z" fill="currentColor"/>
<path d="M1.875 5.25H7.875V2.25H1.875V5.25ZM2.625 3H7.125V4.5H2.625V3Z" fill="currentColor"/>
<path d="M1.875 9H7.875V9.75H1.875V9Z" fill="currentColor"/>
<path d="M1.875 7.5H7.875V8.25H1.875V7.5Z" fill="currentColor"/>
<path d="M1.875 6H7.875V6.75H1.875V6Z" fill="currentColor"/>
</svg>
