<svg viewBox="0 0 34 38" fill="none" xmlns="http://www.w3.org/2000/svg">
<g clip-path="url(#clip0_4202_6774)">
<path d="M20.0148 1.49835L30.563 7.73764C32.3561 8.79823 33.4608 10.7584 33.4608 12.8797V25.3582C33.4608 27.4795 32.3561 29.4396 30.563 30.5003L20.0148 36.7396C18.2217 37.8001 16.0125 37.8001 14.2194 36.7396L3.67116 30.5003C1.87805 29.4396 0.773438 27.4795 0.773438 25.3582V12.8797C0.773438 10.7584 1.87805 8.79823 3.67117 7.73764L14.2194 1.49835C16.0125 0.437724 18.2217 0.437724 20.0148 1.49835Z" fill="#10AA7C"/>
<path d="M20.0148 1.49835L30.563 7.73764C32.3561 8.79823 33.4608 10.7584 33.4608 12.8797V25.3582C33.4608 27.4795 32.3561 29.4396 30.563 30.5003L20.0148 36.7396C18.2217 37.8001 16.0125 37.8001 14.2194 36.7396L3.67116 30.5003C1.87805 29.4396 0.773438 27.4795 0.773438 25.3582V12.8797C0.773438 10.7584 1.87805 8.79823 3.67117 7.73764L14.2194 1.49835C16.0125 0.437724 18.2217 0.437724 20.0148 1.49835Z" fill="url(#paint0_linear_4202_6774)"/>
<g clip-path="url(#clip1_4202_6774)">
<path d="M16.0721 23.4255C15.1458 24.3862 13.6371 24.4748 12.6047 23.6292C11.9899 23.0968 11.6758 22.2964 11.7646 21.4879C11.8414 20.8919 12.12 20.3401 12.554 19.9243L14.232 18.2452C14.5736 17.9034 14.5736 17.3494 14.232 17.0077C13.8902 16.6661 13.3362 16.6661 12.9945 17.0077L11.3521 18.6507C10.6034 19.3726 10.1313 20.3339 10.0177 21.3677C9.80559 23.6962 11.5212 25.7557 13.8496 25.9679C15.1 26.0818 16.3365 25.6348 17.225 24.7476L18.98 22.9932C19.3216 22.6515 19.3216 22.0975 18.98 21.7557C18.6382 21.4141 18.0843 21.4141 17.7425 21.7557L16.0721 23.4255Z" fill="#10151E"/>
<path d="M22.3449 12.8558C20.6025 11.5757 18.1831 11.7764 16.6755 13.3261L15.0238 14.9784C14.6822 15.3201 14.6822 15.8741 15.0238 16.2159C15.3656 16.5575 15.9195 16.5575 16.2613 16.2159L17.9393 14.5396C18.8454 13.6025 20.3115 13.4969 21.3425 14.2946C22.4037 15.1648 22.5586 16.7305 21.6884 17.7917C21.6375 17.8538 21.5836 17.9134 21.5269 17.9703L19.7718 19.7253C19.4302 20.067 19.4302 20.621 19.7718 20.9628C20.1136 21.3044 20.6676 21.3044 21.0093 20.9628L22.7643 19.2077C24.4166 17.5502 24.4123 14.8672 22.7548 13.215C22.626 13.0866 22.4891 12.9666 22.3449 12.8558Z" fill="#10151E"/>
<path d="M15.0239 19.7267L17.7431 17.0076C18.0849 16.6658 18.639 16.6658 18.9807 17.0076C19.3225 17.3493 19.3225 17.9034 18.9807 18.2452L16.2616 20.9644C15.9198 21.3062 15.3657 21.3062 15.0239 20.9644C14.6821 20.6226 14.6821 20.0685 15.0239 19.7267Z" fill="#10151E"/>
</g>
<path d="M20.0148 1.49835L30.563 7.73764C32.3561 8.79823 33.4608 10.7584 33.4608 12.8797V25.3582C33.4608 27.4795 32.3561 29.4396 30.563 30.5003L20.0148 36.7396C18.2217 37.8001 16.0125 37.8001 14.2194 36.7396L3.67116 30.5003C1.87805 29.4396 0.773438 27.4795 0.773438 25.3582V12.8797C0.773438 10.7584 1.87805 8.79823 3.67117 7.73764L14.2194 1.49835C16.0125 0.437724 18.2217 0.437724 20.0148 1.49835Z" stroke="url(#paint1_linear_4202_6774)"/>
<path d="M20.0148 1.49835L30.563 7.73764C32.3561 8.79823 33.4608 10.7584 33.4608 12.8797V25.3582C33.4608 27.4795 32.3561 29.4396 30.563 30.5003L20.0148 36.7396C18.2217 37.8001 16.0125 37.8001 14.2194 36.7396L3.67116 30.5003C1.87805 29.4396 0.773438 27.4795 0.773438 25.3582V12.8797C0.773438 10.7584 1.87805 8.79823 3.67117 7.73764L14.2194 1.49835C16.0125 0.437724 18.2217 0.437724 20.0148 1.49835Z" stroke="url(#paint2_linear_4202_6774)"/>
</g>
<defs>
<linearGradient id="paint0_linear_4202_6774" x1="24.2223" y1="-0.672721" x2="24.2223" y2="38.9106" gradientUnits="userSpaceOnUse">
<stop stop-color="#24FDBC" stop-opacity="0"/>
<stop offset="1" stop-color="#24FDBC" stop-opacity="0.65"/>
</linearGradient>
<linearGradient id="paint1_linear_4202_6774" x1="25.2321" y1="19.119" x2="32.3849" y2="19.119" gradientUnits="userSpaceOnUse">
<stop offset="0.347781" stop-color="#24FDBC" stop-opacity="0"/>
<stop offset="1" stop-color="#24FDBC"/>
</linearGradient>
<linearGradient id="paint2_linear_4202_6774" x1="20.6879" y1="19.119" x2="14.04" y2="19.119" gradientUnits="userSpaceOnUse">
<stop stop-color="#24FDBC" stop-opacity="0"/>
<stop offset="1" stop-color="#24FDBC"/>
</linearGradient>
<clipPath id="clip0_4202_6774">
<rect width="34" height="38" fill="white"/>
</clipPath>
<clipPath id="clip1_4202_6774">
<rect width="14" height="14" fill="white" transform="translate(10 12)"/>
</clipPath>
</defs>
</svg>
