<svg width="16" height="18" viewBox="0 0 16 18" fill="none" xmlns="http://www.w3.org/2000/svg">
<path fill-rule="evenodd" clip-rule="evenodd" d="M0 9.57617C0 7.18689 2.00089 5.25 4.46911 5.25C5.75069 5.25 6.89171 5.81369 7.875 6.89828C8.85829 5.81369 9.99932 5.25 11.2809 5.25C13.7491 5.25 15.75 7.18689 15.75 9.57617C15.75 11.971 14.7605 13.1697 10.6188 16.288L8.71583 17.7207C8.22127 18.0931 7.52873 18.0931 7.03417 17.7207L5.13123 16.288C0.989496 13.1697 0 11.971 0 9.57617ZM8.625 10.5C8.625 10.0858 8.28921 9.75 7.875 9.75C7.46079 9.75 7.125 10.0858 7.125 10.5V12C7.125 12.4142 7.46079 12.75 7.875 12.75C8.28921 12.75 8.625 12.4142 8.625 12V10.5Z" fill="#151A26"/>
<path fill-rule="evenodd" clip-rule="evenodd" d="M3.75 4.125C3.75 1.84683 5.59683 0 7.875 0C8.28921 0 8.625 0.335786 8.625 0.75C8.625 1.16421 8.28921 1.5 7.875 1.5C6.42525 1.5 5.25 2.67525 5.25 4.125V6C5.25 6.41421 4.91421 6.75 4.5 6.75C4.08579 6.75 3.75 6.41421 3.75 6V4.125Z" fill="#151A26"/>
<path fill-rule="evenodd" clip-rule="evenodd" d="M12 4.125C12 1.84683 10.1532 0 7.875 0C7.46079 0 7.125 0.335786 7.125 0.75C7.125 1.16421 7.46079 1.5 7.875 1.5C9.32475 1.5 10.5 2.67525 10.5 4.125V6C10.5 6.41421 10.8358 6.75 11.25 6.75C11.6642 6.75 12 6.41421 12 6V4.125Z" fill="#151A26"/>
</svg>
