<svg width="18" height="18" viewBox="0 0 18 18" fill="none" xmlns="http://www.w3.org/2000/svg">
<path d="M8.91801 7.79244H8.92384L11.7823 6.81828C11.794 6.76578 11.794 6.71328 11.794 6.66662C11.794 6.61412 11.7881 6.56745 11.7706 6.52079C11.724 6.38662 11.6365 6.24079 11.514 6.13579V4.8583C11.514 3.91331 11.1756 3.53998 10.8256 3.32415C10.6448 2.77583 9.89222 2 8.41632 2C6.66624 2 5.34785 3.73248 5.34785 4.8583C5.34785 5.32497 5.33035 5.69246 5.31285 5.97246C5.31285 6.03079 5.30701 6.08329 5.30701 6.12996C5.17867 6.24662 5.09117 6.40412 5.05034 6.55579C5.0445 6.59079 5.03867 6.62578 5.03867 6.66662C5.03867 7.12161 5.29535 7.78077 5.33035 7.85661C5.36535 7.95577 5.44119 8.03744 5.54036 8.0841C5.54619 8.10744 5.55203 8.14244 5.55203 8.21243C5.55203 8.83076 6.08288 9.41409 6.37456 9.69409C6.34539 10.3357 6.16455 10.7791 5.90787 10.8899L3.6211 11.6482C2.97357 11.8641 2.48939 12.3891 2.32021 13.0541L2.01103 14.2907C1.98186 14.419 2.01103 14.559 2.0927 14.664C2.17437 14.769 2.30271 14.8332 2.43688 14.8332H8.97635C8.80134 14.6115 8.638 14.3665 8.48632 14.104C8.10131 13.4215 7.83296 12.5932 7.83296 11.6541V9.31492C7.83296 8.6266 8.27048 8.01994 8.91801 7.79244Z" fill="#D1D9EB"/>
<path d="M8.91801 7.79244H8.92384L11.7823 6.81828C11.794 6.76578 11.794 6.71328 11.794 6.66662C11.794 6.61412 11.7881 6.56745 11.7706 6.52079C11.724 6.38662 11.6365 6.24079 11.514 6.13579V4.8583C11.514 3.91331 11.1756 3.53998 10.8256 3.32415C10.6448 2.77583 9.89222 2 8.41632 2C6.66624 2 5.34785 3.73248 5.34785 4.8583C5.34785 5.32497 5.33035 5.69246 5.31285 5.97246C5.31285 6.03079 5.30701 6.08329 5.30701 6.12996C5.17867 6.24662 5.09117 6.40412 5.05034 6.55579C5.0445 6.59079 5.03867 6.62578 5.03867 6.66662C5.03867 7.12161 5.29535 7.78077 5.33035 7.85661C5.36535 7.95577 5.44119 8.03744 5.54036 8.0841C5.54619 8.10744 5.55203 8.14244 5.55203 8.21243C5.55203 8.83076 6.08288 9.41409 6.37456 9.69409C6.34539 10.3357 6.16455 10.7791 5.90787 10.8899L3.6211 11.6482C2.97357 11.8641 2.48939 12.3891 2.32021 13.0541L2.01103 14.2907C1.98186 14.419 2.01103 14.559 2.0927 14.664C2.17437 14.769 2.30271 14.8332 2.43688 14.8332H8.97635C8.80134 14.6115 8.638 14.3665 8.48632 14.104C8.10131 13.4215 7.83296 12.5932 7.83296 11.6541V9.31492C7.83296 8.6266 8.27048 8.01994 8.91801 7.79244Z" fill="url(#paint0_linear_4249_31329)"/>
<path d="M15.7031 8.89843L12.6404 7.85661C12.5494 7.82511 12.4503 7.82511 12.3593 7.85661L9.29661 8.89843C9.11869 8.95851 8.99968 9.12476 8.99968 9.31259V11.6564C8.99968 14.517 12.193 15.9077 12.3289 15.9654C12.4386 16.0115 12.5611 16.0115 12.6708 15.9654C12.8067 15.9071 16 14.517 16 11.6564V9.31259C16 9.12476 15.881 8.95851 15.7031 8.89843ZM14.4168 11.1104L12.8125 13.1521C12.6083 13.4128 12.2257 13.4507 11.9742 13.2349L10.9534 12.3599C10.7083 12.1505 10.6798 11.7818 10.8904 11.5374C11.0998 11.293 11.4685 11.265 11.7123 11.4744L12.2712 11.9533L13.4991 10.3906C13.6981 10.1374 14.0644 10.0925 14.3182 10.2926C14.5719 10.4903 14.6163 10.8572 14.4168 11.1104Z" fill="#D1D9EB"/>
<path d="M15.7031 8.89843L12.6404 7.85661C12.5494 7.82511 12.4503 7.82511 12.3593 7.85661L9.29661 8.89843C9.11869 8.95851 8.99968 9.12476 8.99968 9.31259V11.6564C8.99968 14.517 12.193 15.9077 12.3289 15.9654C12.4386 16.0115 12.5611 16.0115 12.6708 15.9654C12.8067 15.9071 16 14.517 16 11.6564V9.31259C16 9.12476 15.881 8.95851 15.7031 8.89843ZM14.4168 11.1104L12.8125 13.1521C12.6083 13.4128 12.2257 13.4507 11.9742 13.2349L10.9534 12.3599C10.7083 12.1505 10.6798 11.7818 10.8904 11.5374C11.0998 11.293 11.4685 11.265 11.7123 11.4744L12.2712 11.9533L13.4991 10.3906C13.6981 10.1374 14.0644 10.0925 14.3182 10.2926C14.5719 10.4903 14.6163 10.8572 14.4168 11.1104Z" fill="url(#paint1_linear_4249_31329)"/>
<defs>
<linearGradient id="paint0_linear_4249_31329" x1="9" y1="16.1" x2="9" y2="1.9" gradientUnits="userSpaceOnUse">
<stop stop-color="#1C2230" stop-opacity="0"/>
<stop offset="1" stop-color="#1C2230" stop-opacity="0.35"/>
</linearGradient>
<linearGradient id="paint1_linear_4249_31329" x1="9" y1="16.1" x2="9" y2="1.9" gradientUnits="userSpaceOnUse">
<stop stop-color="#1C2230" stop-opacity="0"/>
<stop offset="1" stop-color="#1C2230" stop-opacity="0.35"/>
</linearGradient>
</defs>
</svg>
