<svg width="26" height="30" viewBox="0 0 26 30" fill="none" xmlns="http://www.w3.org/2000/svg">
<path d="M11.25 1.58771C12.3329 0.962498 13.6671 0.962498 14.75 1.58771L23.7404 6.77831C24.8233 7.40353 25.4904 8.55897 25.4904 9.8094L25.4904 20.1906C25.4904 21.441 24.8233 22.5965 23.7404 23.2217L14.75 28.4123C13.6671 29.0375 12.3329 29.0375 11.25 28.4123L2.25962 23.2217C1.17672 22.5965 0.509619 21.441 0.509619 20.1906L0.509619 9.8094C0.509619 8.55897 1.17671 7.40353 2.25962 6.77831L11.25 1.58771Z" fill="#10AA7C"/>
<path d="M11.25 1.58771C12.3329 0.962498 13.6671 0.962498 14.75 1.58771L23.7404 6.77831C24.8233 7.40353 25.4904 8.55897 25.4904 9.8094L25.4904 20.1906C25.4904 21.441 24.8233 22.5965 23.7404 23.2217L14.75 28.4123C13.6671 29.0375 12.3329 29.0375 11.25 28.4123L2.25962 23.2217C1.17672 22.5965 0.509619 21.441 0.509619 20.1906L0.509619 9.8094C0.509619 8.55897 1.17671 7.40353 2.25962 6.77831L11.25 1.58771Z" fill="url(#paint0_linear_4013_7914)"/>
<path d="M11.25 1.58771C12.3329 0.962498 13.6671 0.962498 14.75 1.58771L23.7404 6.77831C24.8233 7.40353 25.4904 8.55897 25.4904 9.8094L25.4904 20.1906C25.4904 21.441 24.8233 22.5965 23.7404 23.2217L14.75 28.4123C13.6671 29.0375 12.3329 29.0375 11.25 28.4123L2.25962 23.2217C1.17672 22.5965 0.509619 21.441 0.509619 20.1906L0.509619 9.8094C0.509619 8.55897 1.17671 7.40353 2.25962 6.77831L11.25 1.58771Z" stroke="url(#paint1_linear_4013_7914)"/>
<path d="M11.25 1.58771C12.3329 0.962498 13.6671 0.962498 14.75 1.58771L23.7404 6.77831C24.8233 7.40353 25.4904 8.55897 25.4904 9.8094L25.4904 20.1906C25.4904 21.441 24.8233 22.5965 23.7404 23.2217L14.75 28.4123C13.6671 29.0375 12.3329 29.0375 11.25 28.4123L2.25962 23.2217C1.17672 22.5965 0.509619 21.441 0.509619 20.1906L0.509619 9.8094C0.509619 8.55897 1.17671 7.40353 2.25962 6.77831L11.25 1.58771Z" stroke="url(#paint2_linear_4013_7914)"/>
<defs>
<linearGradient id="paint0_linear_4013_7914" x1="18.5169" y1="0" x2="18.5169" y2="30" gradientUnits="userSpaceOnUse">
<stop stop-color="#24FDBC" stop-opacity="0"/>
<stop offset="1" stop-color="#24FDBC" stop-opacity="0.65"/>
</linearGradient>
<linearGradient id="paint1_linear_4013_7914" x1="19.301" y1="15" x2="24.855" y2="15" gradientUnits="userSpaceOnUse">
<stop offset="0.347781" stop-color="#24FDBC" stop-opacity="0"/>
<stop offset="1" stop-color="#24FDBC"/>
</linearGradient>
<linearGradient id="paint2_linear_4013_7914" x1="15.7726" y1="15" x2="10.6107" y2="15" gradientUnits="userSpaceOnUse">
<stop stop-color="#24FDBC" stop-opacity="0.5"/>
<stop offset="1" stop-color="#24FDBC"/>
</linearGradient>
</defs>
</svg>
