<svg viewBox="0 0 32 32" fill="none" xmlns="http://www.w3.org/2000/svg">
<rect x="0.5" y="0.5" width="31" height="31" rx="7.5" fill="url(#paint0_linear_4553_12470)" stroke="url(#paint1_linear_4553_12470)"/>
<path d="M9.82297 20V14.51L8.60297 14.81L8.28297 13.55L10.293 12.95H11.343V20H9.82297ZM15.4117 20.1C13.8617 20.1 12.7117 19.3 12.7117 18.08V18.06C12.7117 17.21 13.0917 16.72 13.8417 16.37C13.2917 16.04 12.9517 15.6 12.9517 14.84V14.82C12.9517 13.75 13.9317 12.9 15.4117 12.9C16.8917 12.9 17.8717 13.74 17.8717 14.82V14.84C17.8717 15.6 17.5317 16.04 16.9817 16.37C17.6917 16.74 18.1117 17.19 18.1117 18.02V18.04C18.1117 19.34 16.9617 20.1 15.4117 20.1ZM15.4117 15.86C16.0217 15.86 16.4117 15.5 16.4117 15.01V14.99C16.4117 14.56 16.0517 14.17 15.4117 14.17C14.7717 14.17 14.4117 14.55 14.4117 14.98V15C14.4117 15.49 14.8017 15.86 15.4117 15.86ZM15.4117 18.83C16.1717 18.83 16.6217 18.45 16.6217 17.96V17.94C16.6217 17.39 16.1217 17.08 15.4117 17.08C14.7017 17.08 14.2017 17.39 14.2017 17.94V17.96C14.2017 18.44 14.6517 18.83 15.4117 18.83ZM21.0505 18.97V17.17H19.2405V15.79H21.0505V13.99H22.4705V15.79H24.2805V17.17H22.4705V18.97H21.0505Z" fill="white"/>
<defs>
<linearGradient id="paint0_linear_4553_12470" x1="16" y1="0" x2="16" y2="32" gradientUnits="userSpaceOnUse">
<stop stop-color="#F26040"/>
<stop offset="1" stop-color="#BA2727"/>
</linearGradient>
<linearGradient id="paint1_linear_4553_12470" x1="16" y1="0" x2="16" y2="32" gradientUnits="userSpaceOnUse">
<stop stop-color="#FA8068"/>
<stop offset="1" stop-color="#D44133"/>
</linearGradient>
</defs>
</svg>
