 <svg width="32" height="32" viewBox="0 0 32 32" fill="none" xmlns="http://www.w3.org/2000/svg">
<path d="M24.3135 4.26433C24.3757 4.13472 24.4156 4.00617 24.4347 3.88047L24.9792 5.11344L24.9793 5.1136C25.2636 5.75692 25.2787 6.44454 25.0364 7.07147H19.4819C19.5033 6.91432 19.5145 6.75389 19.5145 6.59092C19.5145 6.38919 19.4975 6.19137 19.4649 5.9988H21.5782C22.7391 5.9988 23.8102 5.31696 24.3135 4.26433ZM7.02225 5.11329L7.56687 3.88293C7.58623 4.00761 7.62593 4.13504 7.68767 4.26347C8.19293 5.31532 9.26351 5.99826 10.425 5.99826H12.5367C12.5041 6.19082 12.4871 6.38864 12.4871 6.59037C12.4871 6.75335 12.4983 6.91377 12.5197 7.07092H6.96508C6.72243 6.44407 6.73751 5.75656 7.02225 5.11329ZM28.5 10.1284V10.1287V12.8384C28.5 13.4 28.1275 13.8732 27.6235 14.0228H18.0161V8.89452H27.2814C27.9489 8.89452 28.5004 9.44474 28.5 10.1284ZM17.697 6.59037C17.697 6.75716 17.6731 6.91837 17.6288 7.07092H14.3711C14.3268 6.91852 14.3028 6.75737 14.3025 6.59017C14.3026 5.64111 15.0695 4.87388 15.9997 4.87388C16.9301 4.87388 17.697 5.64122 17.697 6.59037ZM3.5 12.839V10.1292C3.5 9.44464 4.0518 8.89452 4.71909 8.89452H13.9856V14.0234H4.37655C3.8728 13.8737 3.5 13.4004 3.5 12.839ZM6.59269 29.5C5.61465 29.5 4.81087 28.6955 4.81087 27.6982V15.8464H13.9861V29.5H6.59269ZM25.4078 29.5H18.0161V15.8464H27.1897V27.6982C27.1897 28.6955 26.3859 29.5 25.4078 29.5Z" fill="black"/>
<path d="M24.3135 4.26433C24.3757 4.13472 24.4156 4.00617 24.4347 3.88047L24.9792 5.11344L24.9793 5.1136C25.2636 5.75692 25.2787 6.44454 25.0364 7.07147H19.4819C19.5033 6.91432 19.5145 6.75389 19.5145 6.59092C19.5145 6.38919 19.4975 6.19137 19.4649 5.9988H21.5782C22.7391 5.9988 23.8102 5.31696 24.3135 4.26433ZM7.02225 5.11329L7.56687 3.88293C7.58623 4.00761 7.62593 4.13504 7.68767 4.26347C8.19293 5.31532 9.26351 5.99826 10.425 5.99826H12.5367C12.5041 6.19082 12.4871 6.38864 12.4871 6.59037C12.4871 6.75335 12.4983 6.91377 12.5197 7.07092H6.96508C6.72243 6.44407 6.73751 5.75656 7.02225 5.11329ZM28.5 10.1284V10.1287V12.8384C28.5 13.4 28.1275 13.8732 27.6235 14.0228H18.0161V8.89452H27.2814C27.9489 8.89452 28.5004 9.44474 28.5 10.1284ZM17.697 6.59037C17.697 6.75716 17.6731 6.91837 17.6288 7.07092H14.3711C14.3268 6.91852 14.3028 6.75737 14.3025 6.59017C14.3026 5.64111 15.0695 4.87388 15.9997 4.87388C16.9301 4.87388 17.697 5.64122 17.697 6.59037ZM3.5 12.839V10.1292C3.5 9.44464 4.0518 8.89452 4.71909 8.89452H13.9856V14.0234H4.37655C3.8728 13.8737 3.5 13.4004 3.5 12.839ZM6.59269 29.5C5.61465 29.5 4.81087 28.6955 4.81087 27.6982V15.8464H13.9861V29.5H6.59269ZM25.4078 29.5H18.0161V15.8464H27.1897V27.6982C27.1897 28.6955 26.3859 29.5 25.4078 29.5Z" fill="#545778"/>
<path d="M24.3135 4.26433C24.3757 4.13472 24.4156 4.00617 24.4347 3.88047L24.9792 5.11344L24.9793 5.1136C25.2636 5.75692 25.2787 6.44454 25.0364 7.07147H19.4819C19.5033 6.91432 19.5145 6.75389 19.5145 6.59092C19.5145 6.38919 19.4975 6.19137 19.4649 5.9988H21.5782C22.7391 5.9988 23.8102 5.31696 24.3135 4.26433ZM7.02225 5.11329L7.56687 3.88293C7.58623 4.00761 7.62593 4.13504 7.68767 4.26347C8.19293 5.31532 9.26351 5.99826 10.425 5.99826H12.5367C12.5041 6.19082 12.4871 6.38864 12.4871 6.59037C12.4871 6.75335 12.4983 6.91377 12.5197 7.07092H6.96508C6.72243 6.44407 6.73751 5.75656 7.02225 5.11329ZM28.5 10.1284V10.1287V12.8384C28.5 13.4 28.1275 13.8732 27.6235 14.0228H18.0161V8.89452H27.2814C27.9489 8.89452 28.5004 9.44474 28.5 10.1284ZM17.697 6.59037C17.697 6.75716 17.6731 6.91837 17.6288 7.07092H14.3711C14.3268 6.91852 14.3028 6.75737 14.3025 6.59017C14.3026 5.64111 15.0695 4.87388 15.9997 4.87388C16.9301 4.87388 17.697 5.64122 17.697 6.59037ZM3.5 12.839V10.1292C3.5 9.44464 4.0518 8.89452 4.71909 8.89452H13.9856V14.0234H4.37655C3.8728 13.8737 3.5 13.4004 3.5 12.839ZM6.59269 29.5C5.61465 29.5 4.81087 28.6955 4.81087 27.6982V15.8464H13.9861V29.5H6.59269ZM25.4078 29.5H18.0161V15.8464H27.1897V27.6982C27.1897 28.6955 26.3859 29.5 25.4078 29.5Z" stroke="#696C93"/>
</svg>
