<svg viewBox="0 0 16 16" xmlns="http://www.w3.org/2000/svg">
<path d="M13.3346 8.00016V12.0002C13.3346 13.4735 12.1413 14.6668 10.668 14.6668H5.33464C3.8613 14.6668 2.66797 13.4735 2.66797 12.0002V8.00016C2.66797 7.6335 2.96797 7.3335 3.33464 7.3335H4.64797C5.01464 7.3335 5.31464 7.6335 5.31464 8.00016V10.0935C5.31464 10.5868 5.58797 11.0402 6.0213 11.2735C6.21464 11.3802 6.42797 11.4335 6.64797 11.4335C6.9013 11.4335 7.15464 11.3602 7.37464 11.2135L8.00797 10.8002L8.59464 11.1935C9.0013 11.4668 9.5213 11.5002 9.95464 11.2668C10.3946 11.0335 10.668 10.5868 10.668 10.0868V8.00016C10.668 7.6335 10.968 7.3335 11.3346 7.3335H12.668C13.0346 7.3335 13.3346 7.6335 13.3346 8.00016Z" fill="white"/>
<path d="M14.3346 4.66683V5.3335C14.3346 6.06683 13.9813 6.66683 13.0013 6.66683H3.0013C1.9813 6.66683 1.66797 6.06683 1.66797 5.3335V4.66683C1.66797 3.9335 1.9813 3.3335 3.0013 3.3335H13.0013C13.9813 3.3335 14.3346 3.9335 14.3346 4.66683Z" fill="white"/>
<path d="M7.75921 3.33329H4.07921C3.85254 3.08663 3.85921 2.70663 4.09921 2.46663L5.04587 1.51996C5.29254 1.27329 5.69921 1.27329 5.94587 1.51996L7.75921 3.33329Z" fill="white"/>
<path d="M11.9144 3.33329H8.23438L10.0477 1.51996C10.2944 1.27329 10.701 1.27329 10.9477 1.51996L11.8944 2.46663C12.1344 2.70663 12.141 3.08663 11.9144 3.33329Z" fill="white"/>
<path d="M9.31427 7.3335C9.68094 7.3335 9.98094 7.6335 9.98094 8.00016V10.0868C9.98094 10.6202 9.3876 10.9402 8.9476 10.6402L8.3476 10.2402C8.1276 10.0935 7.84094 10.0935 7.61427 10.2402L6.9876 10.6535C6.5476 10.9468 5.96094 10.6268 5.96094 10.1002V8.00016C5.96094 7.6335 6.26094 7.3335 6.6276 7.3335H9.31427Z" fill="white"/>
</svg>
