<svg viewBox="0 0 59 66" fill="none" xmlns="http://www.w3.org/2000/svg">
<path d="M34.4341 2.38222L52.7628 13.2237C55.8786 15.0666 57.7979 18.4726 57.7979 22.1586V43.8415C57.7979 47.5274 55.8786 50.9333 52.7628 52.7764L34.4341 63.6178C31.3184 65.4607 27.4796 65.4607 24.3639 63.6178L6.03512 52.7764C2.91938 50.9333 1 47.5274 1 43.8415V22.1586C1 18.4726 2.91938 15.0666 6.03514 13.2237L24.3639 2.38222C27.4796 0.539259 31.3184 0.539259 34.4341 2.38222Z" fill="url(#paint0_linear_4152_9516)" stroke="url(#paint1_linear_4152_9516)"/>
<path d="M21.1964 33.3255C21.0816 33.2113 20.9451 33.1206 20.7947 33.0587C20.6443 32.9969 20.4831 32.965 20.3203 32.965C20.1574 32.965 19.9962 32.9969 19.8458 33.0587C19.6955 33.1206 19.5589 33.2113 19.4441 33.3255L18.4576 34.2966C18.3421 34.4106 18.2504 34.5461 18.1879 34.6952C18.1253 34.8444 18.0931 35.0042 18.0931 35.1657C18.0931 35.3271 18.1253 35.487 18.1879 35.6361C18.2504 35.7853 18.3421 35.9207 18.4576 36.0348L23.5523 41.0746C23.7857 41.3044 24.1016 41.4334 24.4309 41.4334C24.7602 41.4334 25.0761 41.3044 25.3095 41.0746L26.2912 40.0987C26.4067 39.9851 26.4983 39.8501 26.5609 39.7014C26.6234 39.5526 26.6556 39.3931 26.6556 39.232C26.6556 39.0709 26.6234 38.9114 26.5609 38.7627C26.4983 38.614 26.4067 38.4789 26.2912 38.3653L21.1964 33.3255Z" fill="#5B6D96"/>
<path d="M18.5165 37.4671L15.7138 40.2395C15.4167 40.5359 15.25 40.9364 15.25 41.3538C15.25 41.7712 15.4167 42.1717 15.7138 42.4681L16.9753 43.7111C17.1228 43.8571 17.2981 43.973 17.4909 44.0521C17.6838 44.1311 17.8905 44.1718 18.0993 44.1718C18.308 44.1718 18.5147 44.1311 18.7076 44.0521C18.9004 43.973 19.0757 43.8571 19.2232 43.7111L22.0259 40.9387C21.5703 40.4816 18.5165 37.4671 18.5165 37.4671Z" fill="#5B6D96"/>
<path d="M39.622 34.2966L38.6355 33.3255C38.5202 33.2112 38.3832 33.1206 38.2325 33.0587C38.0817 32.9969 37.9201 32.965 37.7569 32.965C37.5937 32.965 37.4321 32.9969 37.2813 33.0587C37.1306 33.1206 36.9936 33.2112 36.8783 33.3255L31.7835 38.3653C31.5524 38.5959 31.4228 38.9074 31.4228 39.232C31.4228 39.5567 31.5524 39.8682 31.7835 40.0987L32.7701 41.0746C33.0039 41.3035 33.3197 41.4319 33.6487 41.4319C33.9777 41.4319 34.2934 41.3035 34.5272 41.0746L39.622 36.0348C39.8532 35.8033 39.9828 35.4911 39.9828 35.1657C39.9828 34.8403 39.8532 34.5281 39.622 34.2966Z" fill="#5B6D96"/>
<path d="M20.9951 28.8829L31.651 37.1224L32.348 36.4329C32.8631 35.9256 35.1607 33.6489 35.6267 33.1896L27.2974 22.6535C27.0705 22.3681 26.7803 22.1382 26.4492 21.9816C26.1181 21.825 25.755 21.7459 25.388 21.7504L21.5498 21.7941C21.1742 21.7989 20.8154 21.9489 20.5503 22.2121C20.2852 22.4752 20.1348 22.8306 20.1313 23.2022L20.0871 26.999C20.0795 27.3613 20.1577 27.7204 20.3153 28.0475C20.473 28.3746 20.7058 28.6607 20.9951 28.8829Z" fill="#5B6D96"/>
<path d="M23.4051 31.9806L22.448 33.1847C22.9029 33.6344 26.4286 37.1224 26.4286 37.1224L28.2397 35.7192C27.7387 35.3299 23.4051 31.9806 23.4051 31.9806Z" fill="#5B6D96"/>
<path d="M34.8414 30.6163L37.0845 28.8829C37.3736 28.6594 37.6061 28.3723 37.7637 28.0445C37.9213 27.7167 37.9996 27.3571 37.9925 26.9942L37.9483 23.1973C37.9416 22.8256 37.7886 22.4711 37.5219 22.2091C37.2552 21.9471 36.8958 21.7983 36.52 21.7941L32.6866 21.7504C32.3205 21.7435 31.9577 21.821 31.6271 21.9769C31.2966 22.1329 31.0073 22.3629 30.7822 22.6487L29.6582 24.0664C29.9417 24.407 34.8414 30.6163 34.8414 30.6163Z" fill="#5B6D96"/>
<path d="M42.2872 40.3172L39.4846 37.5399C39.025 37.9951 35.9752 41.0164 35.9752 41.0164L38.7778 43.7887C38.9253 43.935 39.1005 44.051 39.2934 44.1301C39.4862 44.2093 39.693 44.25 39.9018 44.25C40.1106 44.25 40.3174 44.2093 40.5102 44.1301C40.7031 44.051 40.8783 43.935 41.0258 43.7887L42.2872 42.5409C42.5837 42.2452 42.75 41.8455 42.75 41.4291C42.75 41.0126 42.5837 40.6129 42.2872 40.3172Z" fill="#5B6D96"/>
<defs>
<linearGradient id="paint0_linear_4152_9516" x1="29.399" y1="1" x2="29.399" y2="65" gradientUnits="userSpaceOnUse">
<stop stop-color="#191F2D"/>
<stop offset="1" stop-color="#232C40"/>
</linearGradient>
<linearGradient id="paint1_linear_4152_9516" x1="29.399" y1="1" x2="29.399" y2="65" gradientUnits="userSpaceOnUse">
<stop stop-color="#1F2534"/>
<stop offset="1" stop-color="#1F2534" stop-opacity="0.25"/>
</linearGradient>
</defs>
</svg>
