<svg viewBox="0 0 20 20" fill="none" xmlns="http://www.w3.org/2000/svg">
<path d="M17.24 3.58006H16.84L13.46 0.200059C13.19 -0.0699414 12.75 -0.0699414 12.47 0.200059C12.2 0.470059 12.2 0.910059 12.47 1.19006L14.86 3.58006H5.14L7.53 1.19006C7.8 0.920059 7.8 0.480059 7.53 0.200059C7.26 -0.0699414 6.82 -0.0699414 6.54 0.200059L3.17 3.58006H2.77C1.87 3.58006 0 3.58006 0 6.14006C0 7.11006 0.2 7.75006 0.62 8.17006C0.86 8.42006 1.15 8.55006 1.46 8.62006C1.75 8.69006 2.06 8.70006 2.36 8.70006H17.64C17.95 8.70006 18.24 8.68006 18.52 8.62006C19.36 8.42006 20 7.82006 20 6.14006C20 3.58006 18.13 3.58006 17.24 3.58006Z" fill="#10151E"/>
<path d="M17.0497 10H2.86967C2.24967 10 1.77967 10.55 1.87967 11.16L2.71967 16.3C2.99967 18.02 3.74967 20 7.07967 20H12.6897C16.0597 20 16.6597 18.31 17.0197 16.42L18.0297 11.19C18.1497 10.57 17.6797 10 17.0497 10ZM9.99967 17.5C7.65967 17.5 5.74967 15.59 5.74967 13.25C5.74967 12.84 6.08967 12.5 6.49967 12.5C6.90967 12.5 7.24967 12.84 7.24967 13.25C7.24967 14.77 8.47967 16 9.99967 16C11.5197 16 12.7497 14.77 12.7497 13.25C12.7497 12.84 13.0897 12.5 13.4997 12.5C13.9097 12.5 14.2497 12.84 14.2497 13.25C14.2497 15.59 12.3397 17.5 9.99967 17.5Z" fill="#10151E"/>
</svg>
