<svg width="22" height="21" viewBox="0 0 22 21" xmlns="http://www.w3.org/2000/svg">
<path d="M9.67056 17.3295C8.34242 18.7067 6.17949 18.8338 4.69928 17.6214C3.81775 16.8582 3.36746 15.7106 3.49473 14.5515C3.60495 13.697 4.00435 12.9058 4.62651 12.3097L7.03228 9.90231C7.5221 9.41233 7.5221 8.61808 7.03228 8.12811C6.5423 7.63829 5.74805 7.63829 5.25807 8.12811L2.90336 10.4837C1.83001 11.5187 1.15311 12.897 0.990271 14.3792C0.686114 17.7175 3.14576 20.6703 6.48407 20.9745C8.27682 21.1378 10.0496 20.4969 11.3234 19.225L13.8396 16.7097C14.3295 16.2197 14.3295 15.4254 13.8396 14.9355C13.3497 14.4456 12.5554 14.4456 12.0654 14.9355L9.67056 17.3295Z"/>
<path d="M18.6645 2.17585C16.1665 0.340559 12.6977 0.628287 10.5363 2.85008L8.16815 5.21903C7.67833 5.709 7.67833 6.50326 8.16815 6.99323C8.65812 7.48305 9.45237 7.48305 9.94235 6.99323L12.3481 4.58997C13.6472 3.24634 15.7492 3.09499 17.2274 4.23865C18.7489 5.48625 18.9709 7.73102 17.7233 9.25251C17.6503 9.34156 17.573 9.427 17.4917 9.50855L14.9755 12.0247C14.4857 12.5147 14.4857 13.309 14.9755 13.7989C15.4655 14.2888 16.2597 14.2888 16.7497 13.7989L19.2659 11.2828C21.6347 8.90636 21.6286 5.0596 19.2522 2.69077C19.0676 2.50671 18.8712 2.33473 18.6645 2.17585Z"/>
<path d="M8.16829 12.0268L12.0668 8.12825C12.5568 7.63824 13.3513 7.63824 13.8413 8.12825C14.3313 8.61827 14.3313 9.41272 13.8413 9.90273L9.94277 13.8012C9.45275 14.2913 8.65831 14.2913 8.16829 13.8012C7.67828 13.3112 7.67828 12.5168 8.16829 12.0268Z"/>
</svg>
