<svg viewBox="0 0 167 44" xmlns="http://www.w3.org/2000/svg">
<path fill-rule="evenodd" clip-rule="evenodd" d="M6.7057 28.7865C6.704 28.7848 6.7039 28.7848 6.7039 28.7848 5.0971 27.178 5.3389 24.3194 5.8174 18.6244 6.0557 15.8104 6.3507 12.3087 6.517 7.9581 6.5205 7.9033 6.517 7.8621 6.517 7.8278 6.5085 7.6066 6.4862 7.015 6.9852 6.5331 7.4928 6.0392 8.117 6.0838 8.3519 6.0993L32.2464 7.7215C32.766 7.7575 33.2256 8.0662 33.4554 8.5326L34.215 10.0845 40.9801 10.5424 41.7397 9.4123C42.0296 8.9819 42.5286 8.7367 43.0447 8.7727L48.1069 9.1157 53.3903 4.5045C53.6801 4.2524 54.0591 4.1238 54.445 4.1495L90.261 6.5811 92.1576 4.928C92.4474 4.6725 92.8281 4.5456 93.2122 4.5731L103.981 5.3036C104.367 5.3293 104.727 5.5076 104.979 5.7974L106.535 7.5792 126.127 8.9082C126.511 8.9356 126.869 9.1122 127.125 9.4055 127.379 9.6935 127.506 10.0742 127.48 10.4601L126.674 22.3267C126.621 23.1276 125.926 23.7329 125.124 23.678L103.614 22.2187 103.349 26.144C103.292 26.9448 102.599 27.5518 101.798 27.4952L98.624 27.2809C98.24 27.2535 97.882 27.0768 97.628 26.7853L95.191 23.9953 51.9807 21.0629C36.0551 23.462 25.7781 26.156 18.9685 27.9411 11.6221 29.8652 8.5817 30.663 6.7057 28.7865Z"/>
<path fill-rule="evenodd" clip-rule="evenodd" d="M50.1741 38.547C49.5808 37.954 49.2738 37.136 49.3304 36.301L50.145 24.2885C50.7966 24.1856 51.45 24.0844 52.1016 23.985L61.9893 24.6572 61.1422 37.103C61.0908 37.875 60.7409 38.582 60.1562 39.091 59.5714 39.6 58.8238 39.854 58.0538 39.801L52.0261 39.391C51.3282 39.345 50.6714 39.045 50.1741 38.547Z"/>
<path fill-rule="evenodd" clip-rule="evenodd" d="M82.9696 43.004C82.949 42.984 82.9267 42.961 82.9078 42.939 77.6776 37.03 75.8598 30.273 75.2614 25.5592L86.5347 26.324C87.579 30.647 90.9264 35.387 92.5092 36.63 93.0836 37.085 93.3409 37.613 93.2791 38.206 93.1848 39.089 92.4423 39.454 92.1954 39.575L84.6364 43.282C84.0773 43.556 83.4068 43.441 82.9696 43.004Z"/>
<path fill-rule="evenodd" clip-rule="evenodd" d="M64.8916 24.8544 69.6434 25.1785 69.5851 26.029C69.532 26.8161 69.2147 27.5518 68.6917 28.0988 68.1086 28.7059 67.3147 29.0231 66.5156 28.9682L64.6207 28.8396 64.8916 24.8544Z"/>
<path fill-rule="evenodd" clip-rule="evenodd" d="M130.096 14.9187 164.178 17.232C164.981 17.2869 165.586 17.9814 165.531 18.7805L165.223 23.3146C165.197 23.7004 165.02 24.0588 164.729 24.3126 164.437 24.5664 164.06 24.6933 163.674 24.6676L129.592 22.3542 130.096 14.9187Z"/>
<path fill-rule="evenodd" clip-rule="evenodd" d="M130.377 10.7962 141.541 11.5542C141.872 11.5765 142.184 11.7102 142.429 11.9349L147.277 16.4054C147.726 16.817 147.872 17.4841 147.628 18.05 147.383 18.6176 146.809 18.9691 146.193 18.9263L129.901 17.8202 130.377 10.7962Z"/>
<path fill-rule="evenodd" clip-rule="evenodd" d="M157.871 13.8864 159.946 9.3455C160.157 8.8842 160.575 8.5584 161.064 8.4709 161.555 8.3818 162.062 8.543 162.421 8.9014 162.609 9.09 162.753 9.3335 162.836 9.601L164.271 14.3219 157.871 13.8864Z"/>
</svg>
