<svg viewBox="0 0 24 25" xmlns="http://www.w3.org/2000/svg">
<path d="M18.9381 5.91994L13.7681 2.92994C12.7781 2.35994 11.2281 2.35994 10.2381 2.92994L5.01813 5.93994C2.94813 7.33994 2.82812 7.54994 2.82812 9.77994V15.2099C2.82812 17.4399 2.94813 17.6599 5.05813 19.0799L10.2281 22.0699C10.7281 22.3599 11.3681 22.4999 11.9981 22.4999C12.6281 22.4999 13.2681 22.3599 13.7581 22.0699L18.9781 19.0599C21.0481 17.6599 21.1681 17.4499 21.1681 15.2199V9.77994C21.1681 7.54994 21.0481 7.33994 18.9381 5.91994ZM11.9981 15.7499C10.2081 15.7499 8.74813 14.2899 8.74813 12.4999C8.74813 10.7099 10.2081 9.24994 11.9981 9.24994C13.7881 9.24994 15.2481 10.7099 15.2481 12.4999C15.2481 14.2899 13.7881 15.7499 11.9981 15.7499Z" fill="#5A6786"/>
</svg>
