<svg viewBox="0 0 20 18" xmlns="http://www.w3.org/2000/svg">
<path d="M14.6487 0.859863H7.90865V3.87986C7.90865 4.26986 7.58865 4.57986 7.20865 4.57986C6.82865 4.57986 6.50865 4.26986 6.50865 3.87986V0.859863H5.34865C1.39865 0.859863 0.0986528 2.03986 0.00865282 5.72986C-0.00134718 5.90986 0.0786529 6.09986 0.208653 6.22986C0.338653 6.36986 0.508653 6.43986 0.708653 6.43986C2.10865 6.43986 3.25865 7.59986 3.25865 8.99986C3.25865 10.3999 2.10865 11.5599 0.708653 11.5599C0.518653 11.5599 0.338653 11.6299 0.208653 11.7699C0.0786529 11.8999 -0.00134718 12.0899 0.00865282 12.2699C0.0986528 15.9599 1.39865 17.1399 5.34865 17.1399H6.50865V14.1199C6.50865 13.7299 6.82865 13.4199 7.20865 13.4199C7.58865 13.4199 7.90865 13.7299 7.90865 14.1199V17.1399H14.6487C18.7487 17.1399 19.9987 15.8899 19.9987 11.7899V6.20986C19.9987 2.10986 18.7487 0.859863 14.6487 0.859863ZM16.4687 8.89986L15.5387 9.79986C15.4987 9.82986 15.4887 9.88986 15.4987 9.93986L15.7187 11.2099C15.7587 11.4399 15.6687 11.6799 15.4687 11.8199C15.2787 11.9599 15.0287 11.9799 14.8187 11.8699L13.6687 11.2699C13.6287 11.2499 13.5687 11.2499 13.5287 11.2699L12.3787 11.8699C12.2887 11.9199 12.1887 11.9399 12.0887 11.9399C11.9587 11.9399 11.8387 11.8999 11.7287 11.8199C11.5387 11.6799 11.4387 11.4499 11.4787 11.2099L11.6987 9.93986C11.7087 9.88986 11.6887 9.83986 11.6587 9.79986L10.7287 8.89986C10.5587 8.73986 10.4987 8.48986 10.5687 8.26986C10.6387 8.03986 10.8287 7.87986 11.0687 7.84986L12.3487 7.65986C12.3987 7.64986 12.4387 7.61986 12.4687 7.57986L13.0387 6.41986C13.1487 6.20986 13.3587 6.07986 13.5987 6.07986C13.8387 6.07986 14.0487 6.20986 14.1487 6.41986L14.7187 7.57986C14.7387 7.62986 14.7787 7.65986 14.8287 7.65986L16.1087 7.84986C16.3487 7.87986 16.5387 8.04986 16.6087 8.26986C16.6987 8.48986 16.6387 8.72986 16.4687 8.89986Z" fill="#5A6786"/>
</svg>
