<svg  viewBox="0 0 20 20" fill="none" xmlns="http://www.w3.org/2000/svg">
<path d="M15.5535 5.005C14.5178 4.5355 13.4104 4.19429 12.2526 4C12.1104 4.24907 11.9443 4.58408 11.8298 4.85057C10.599 4.67124 9.37956 4.67124 8.17144 4.85057C8.05693 4.58408 7.88704 4.24907 7.74357 4C6.58454 4.19429 5.47584 4.53675 4.44013 5.00748C2.3511 8.06602 1.78479 11.0486 2.06794 13.9888C3.4535 14.9913 4.79627 15.6003 6.11638 15.9988C6.44233 15.5641 6.73302 15.1021 6.98345 14.6152C6.5065 14.4396 6.04969 14.2229 5.61805 13.9714C5.73256 13.8892 5.84457 13.8032 5.95279 13.7148C8.58546 14.9079 11.4459 14.9079 14.0472 13.7148C14.1566 13.8032 14.2686 13.8892 14.3819 13.9714C13.949 14.2242 13.4909 14.4408 13.014 14.6165C13.2644 15.1021 13.5538 15.5654 13.881 16C15.2024 15.6015 16.5464 14.9925 17.932 13.9888C18.2642 10.5803 17.3644 7.62516 15.5535 5.005ZM7.34212 12.1806C6.55181 12.1806 5.9037 11.4658 5.9037 10.5953C5.9037 9.72479 6.53797 9.00873 7.34212 9.00873C8.14628 9.00873 8.79437 9.72354 8.78053 10.5953C8.78178 11.4658 8.14628 12.1806 7.34212 12.1806ZM12.6578 12.1806C11.8675 12.1806 11.2194 11.4658 11.2194 10.5953C11.2194 9.72479 11.8537 9.00873 12.6578 9.00873C13.462 9.00873 14.1101 9.72354 14.0962 10.5953C14.0962 11.4658 13.462 12.1806 12.6578 12.1806Z" fill="#2F374A"/>
</svg>
