<svg width="24" height="24" viewBox="0 0 24 24" xmlns="http://www.w3.org/2000/svg">
<path d="M7.68162 8.75H7.68164H16.3184H16.3184C16.9229 8.74998 17.3969 8.75062 17.7776 8.78465C18.1701 8.81973 18.4952 8.89209 18.792 9.05754C19.2814 9.33034 19.6915 9.77282 19.9523 10.3327C20.1146 10.6813 20.1845 11.0632 20.2177 11.5081C20.2496 11.9351 20.25 12.4634 20.25 13.1218V18.8783C20.25 19.5367 20.2496 20.0649 20.2177 20.4919C20.1845 20.9368 20.1146 21.3187 19.9523 21.6673C19.6915 22.2272 19.2814 22.6697 18.792 22.9425C18.4952 23.1079 18.1701 23.1803 17.7776 23.2154C17.3969 23.2494 16.9229 23.25 16.3184 23.25H7.68163C7.0771 23.25 6.60314 23.2494 6.22237 23.2154C5.82994 23.1803 5.50476 23.1079 5.20795 22.9425C4.71856 22.6697 4.30848 22.2272 4.04774 21.6673C3.88536 21.3187 3.81554 20.9368 3.78231 20.4919C3.75042 20.0649 3.74998 19.5366 3.75 18.8783V13.1217V13.1217C3.74998 12.4634 3.75042 11.9351 3.78231 11.5081C3.81554 11.0632 3.88536 10.6813 4.04774 10.3327C4.30848 9.77282 4.71856 9.33034 5.20796 9.05754C5.50476 8.89209 5.82994 8.81973 6.22237 8.78465C6.60312 8.75062 7.07714 8.74998 7.68162 8.75ZM16.25 5V7.25H15.25V5C15.25 3.33369 13.6301 2.25 12 2.25C10.3699 2.25 8.75 3.33369 8.75 5C8.75 5.00749 8.74817 5.05521 8.66536 5.12146C8.58118 5.1888 8.43681 5.25 8.25 5.25C8.06319 5.25 7.91882 5.1888 7.83464 5.12146C7.75183 5.05521 7.75 5.00749 7.75 5C7.75 3.3526 9.48797 1.75 12 1.75C14.512 1.75 16.25 3.3526 16.25 5ZM12 14.6346C10.9025 14.6346 10.125 15.5863 10.125 16.6154V17.8462C10.125 18.8752 10.9025 19.8269 12 19.8269C13.0975 19.8269 13.875 18.8752 13.875 17.8462V16.6154C13.875 15.5863 13.0975 14.6346 12 14.6346Z" stroke-width="1.5"/>
</svg>
