<svg viewBox="0 0 12 12" fill="none" xmlns="http://www.w3.org/2000/svg">
<path d="M1.61219 7.7225C1.4095 6.35434 1.2067 4.98618 1.00379 3.61802C0.99389 3.55079 1.0035 3.48202 1.03139 3.42048C1.05928 3.35893 1.10419 3.3074 1.16039 3.27244C1.2166 3.23748 1.28156 3.22068 1.347 3.22418C1.41244 3.22767 1.47539 3.25131 1.52784 3.29207L3.42338 4.7675C3.47264 4.80585 3.52891 4.83338 3.58877 4.84839C3.64862 4.8634 3.7108 4.86558 3.77149 4.8548C3.83218 4.84401 3.89012 4.82049 3.94175 4.78566C3.99339 4.75084 4.03763 4.70545 4.07179 4.65227L5.64996 2.19415C5.68843 2.13441 5.7405 2.08545 5.80156 2.05158C5.86261 2.01772 5.93077 2 6 2C6.06923 2 6.13738 2.01772 6.19844 2.05158C6.2595 2.08545 6.31157 2.13441 6.35004 2.19415L7.92821 4.65089C7.96237 4.70407 8.00661 4.74946 8.05825 4.78428C8.10988 4.8191 8.16782 4.84263 8.22851 4.85341C8.2892 4.8642 8.35138 4.86202 8.41123 4.84701C8.47109 4.832 8.52736 4.80447 8.57662 4.76611L10.4722 3.29069C10.5246 3.24992 10.5876 3.22629 10.653 3.22279C10.7184 3.2193 10.7834 3.2361 10.8396 3.27106C10.8958 3.30602 10.9407 3.35755 10.9686 3.41909C10.9965 3.48064 11.0061 3.5494 10.9962 3.61664C10.7933 4.9848 10.5905 6.35296 10.3878 7.72112L1.61219 7.7225Z" fill="#D1D9EB"/>
<path d="M1.61219 7.7225C1.4095 6.35434 1.2067 4.98618 1.00379 3.61802C0.99389 3.55079 1.0035 3.48202 1.03139 3.42048C1.05928 3.35893 1.10419 3.3074 1.16039 3.27244C1.2166 3.23748 1.28156 3.22068 1.347 3.22418C1.41244 3.22767 1.47539 3.25131 1.52784 3.29207L3.42338 4.7675C3.47264 4.80585 3.52891 4.83338 3.58877 4.84839C3.64862 4.8634 3.7108 4.86558 3.77149 4.8548C3.83218 4.84401 3.89012 4.82049 3.94175 4.78566C3.99339 4.75084 4.03763 4.70545 4.07179 4.65227L5.64996 2.19415C5.68843 2.13441 5.7405 2.08545 5.80156 2.05158C5.86261 2.01772 5.93077 2 6 2C6.06923 2 6.13738 2.01772 6.19844 2.05158C6.2595 2.08545 6.31157 2.13441 6.35004 2.19415L7.92821 4.65089C7.96237 4.70407 8.00661 4.74946 8.05825 4.78428C8.10988 4.8191 8.16782 4.84263 8.22851 4.85341C8.2892 4.8642 8.35138 4.86202 8.41123 4.84701C8.47109 4.832 8.52736 4.80447 8.57662 4.76611L10.4722 3.29069C10.5246 3.24992 10.5876 3.22629 10.653 3.22279C10.7184 3.2193 10.7834 3.2361 10.8396 3.27106C10.8958 3.30602 10.9407 3.35755 10.9686 3.41909C10.9965 3.48064 11.0061 3.5494 10.9962 3.61664C10.7933 4.9848 10.5905 6.35296 10.3878 7.72112L1.61219 7.7225Z" fill="url(#paint0_linear_4249_30103)"/>
<path d="M1.61219 8.48167H10.3885V9.52492C10.3885 9.58731 10.3766 9.64908 10.3536 9.70672C10.3306 9.76436 10.2969 9.81674 10.2544 9.86085C10.2119 9.90497 10.1615 9.93996 10.1059 9.96384C10.0504 9.98771 9.99087 10 9.93076 10H2.0699C1.94851 10 1.83209 9.94995 1.74625 9.86085C1.66041 9.77176 1.61219 9.65092 1.61219 9.52492V8.48167Z" fill="#D1D9EB"/>
<path d="M1.61219 8.48167H10.3885V9.52492C10.3885 9.58731 10.3766 9.64908 10.3536 9.70672C10.3306 9.76436 10.2969 9.81674 10.2544 9.86085C10.2119 9.90497 10.1615 9.93996 10.1059 9.96384C10.0504 9.98771 9.99087 10 9.93076 10H2.0699C1.94851 10 1.83209 9.94995 1.74625 9.86085C1.66041 9.77176 1.61219 9.65092 1.61219 9.52492V8.48167Z" fill="url(#paint1_linear_4249_30103)"/>
<defs>
<linearGradient id="paint0_linear_4249_30103" x1="6" y1="10.0571" x2="6" y2="1.94286" gradientUnits="userSpaceOnUse">
<stop stop-color="#1C2230" stop-opacity="0"/>
<stop offset="1" stop-color="#1C2230" stop-opacity="0.35"/>
</linearGradient>
<linearGradient id="paint1_linear_4249_30103" x1="6" y1="10.0571" x2="6" y2="1.94286" gradientUnits="userSpaceOnUse">
<stop stop-color="#1C2230" stop-opacity="0"/>
<stop offset="1" stop-color="#1C2230" stop-opacity="0.35"/>
</linearGradient>
</defs>
</svg>
