<svg width="24" height="24" viewBox="0 0 24 24" xmlns="http://www.w3.org/2000/svg">
<path d="M8.08008 7.04199V14.6067H10.4327V16.1715L12.0006 14.6067H14.8759L16.7059 12.7894V7.04199H8.08008ZM12.0006 12.2604H10.9553V9.13094H12.0006V12.2604ZM14.8743 12.2604H13.829V9.13094H14.8743V12.2604Z"/>
<path d="M12 0C9.62663 0 7.30655 0.703788 5.33316 2.02236C3.35977 3.34094 1.8217 5.21509 0.913451 7.4078C0.00519938 9.60051 -0.232441 12.0133 0.230582 14.3411C0.693605 16.6689 1.83649 18.8071 3.51472 20.4853C5.19295 22.1635 7.33115 23.3064 9.65892 23.7694C11.9867 24.2324 14.3995 23.9948 16.5922 23.0866C18.7849 22.1783 20.6591 20.6402 21.9776 18.6668C23.2962 16.6935 24 14.3734 24 12C24 8.8174 22.7357 5.76516 20.4853 3.51472C18.2348 1.26428 15.1826 0 12 0ZM17.7505 13.3042L14.6132 16.4337H12.2605L10.6942 18H9.12474V16.4337H6.24948V8.08737L7.03895 6H17.7568L17.7505 13.3042Z"/>
</svg>
