<svg width="15" height="15" viewBox="0 0 15 15" fill="none" xmlns="http://www.w3.org/2000/svg">
<path d="M11.8325 8.8939L11.2325 7.8979C11.1065 7.6759 10.9925 7.2559 10.9925 7.0099V5.4919C10.9925 4.0819 10.1645 2.8639 8.97052 2.2939C8.65852 1.7419 8.08252 1.3999 7.42252 1.3999C6.76852 1.3999 6.18052 1.7539 5.86852 2.3119C4.69852 2.8939 3.88852 4.0999 3.88852 5.4919V7.0099C3.88852 7.2559 3.77452 7.6759 3.64852 7.8919L3.04252 8.8939C2.80252 9.2959 2.74852 9.7399 2.89852 10.1479C3.04252 10.5499 3.38452 10.8619 3.82852 11.0119C4.99252 11.4079 6.21652 11.5999 7.44052 11.5999C8.66452 11.5999 9.88852 11.4079 11.0525 11.0179C11.4725 10.8799 11.7965 10.5619 11.9525 10.1479C12.1085 9.7339 12.0665 9.2779 11.8325 8.8939Z" fill="currentColor"/>
<path d="M11.8325 8.8939L11.2325 7.8979C11.1065 7.6759 10.9925 7.2559 10.9925 7.0099V5.4919C10.9925 4.0819 10.1645 2.8639 8.97052 2.2939C8.65852 1.7419 8.08252 1.3999 7.42252 1.3999C6.76852 1.3999 6.18052 1.7539 5.86852 2.3119C4.69852 2.8939 3.88852 4.0999 3.88852 5.4919V7.0099C3.88852 7.2559 3.77452 7.6759 3.64852 7.8919L3.04252 8.8939C2.80252 9.2959 2.74852 9.7399 2.89852 10.1479C3.04252 10.5499 3.38452 10.8619 3.82852 11.0119C4.99252 11.4079 6.21652 11.5999 7.44052 11.5999C8.66452 11.5999 9.88852 11.4079 11.0525 11.0179C11.4725 10.8799 11.7965 10.5619 11.9525 10.1479C12.1085 9.7339 12.0665 9.2779 11.8325 8.8939Z" fill="currentColor"/>
<path d="M9.12651 12.206C8.87451 12.902 8.20851 13.4 7.42851 13.4C6.95451 13.4 6.48651 13.208 6.15651 12.866C5.96451 12.686 5.82051 12.446 5.73651 12.2C5.81451 12.212 5.89251 12.218 5.97651 12.23C6.11451 12.248 6.25851 12.266 6.40251 12.278C6.74451 12.308 7.09251 12.326 7.44051 12.326C7.78251 12.326 8.12451 12.308 8.46051 12.278C8.58651 12.266 8.71251 12.26 8.83251 12.242C8.92851 12.23 9.02451 12.218 9.12651 12.206Z" fill="currentColor"/>
<path d="M9.12651 12.206C8.87451 12.902 8.20851 13.4 7.42851 13.4C6.95451 13.4 6.48651 13.208 6.15651 12.866C5.96451 12.686 5.82051 12.446 5.73651 12.2C5.81451 12.212 5.89251 12.218 5.97651 12.23C6.11451 12.248 6.25851 12.266 6.40251 12.278C6.74451 12.308 7.09251 12.326 7.44051 12.326C7.78251 12.326 8.12451 12.308 8.46051 12.278C8.58651 12.266 8.71251 12.26 8.83251 12.242C8.92851 12.23 9.02451 12.218 9.12651 12.206Z" fill="currentColor"/>
</svg>
