<svg width="16" height="16" viewBox="0 0 16 16" fill="none" xmlns="http://www.w3.org/2000/svg">
<path d="M4.00001 5.33325C3.8762 5.33325 3.75484 5.36773 3.64952 5.43282C3.54421 5.49791 3.45909 5.59104 3.40373 5.70178C3.34836 5.81251 3.32492 5.93648 3.33604 6.05979C3.34716 6.1831 3.39239 6.30087 3.46668 6.39992L7.46668 11.7333C7.52878 11.816 7.6093 11.8833 7.70187 11.9295C7.79444 11.9758 7.89651 11.9999 8.00001 11.9999C8.10351 11.9999 8.20558 11.9758 8.29815 11.9295C8.39072 11.8833 8.47125 11.816 8.53334 11.7333L12.5333 6.39992C12.6076 6.30087 12.6529 6.1831 12.664 6.05979C12.6751 5.93648 12.6517 5.81251 12.5963 5.70178C12.5409 5.59104 12.4558 5.49791 12.3505 5.43282C12.2452 5.36773 12.1238 5.33325 12 5.33325H4.00001Z" fill="black"/>
</svg>
