<svg viewBox="0 0 12 12" fill="none" xmlns="http://www.w3.org/2000/svg">
<path d="M7.58582 2C7.47365 1.99999 7.36441 1.99997 7.2719 2.00753C7.1703 2.01583 7.05042 2.03542 6.92979 2.09689C6.76253 2.18211 6.62655 2.31809 6.54133 2.48534C6.47986 2.60598 6.46028 2.72586 6.45198 2.82746C6.44442 2.91997 6.44443 3.02921 6.44444 3.14138V4.41418C6.44443 4.52635 6.44442 4.63559 6.45198 4.7281C6.46028 4.8297 6.47986 4.94958 6.54133 5.07021C6.62655 5.23747 6.76253 5.37345 6.92979 5.45867C7.05042 5.52014 7.1703 5.53972 7.2719 5.54802C7.36441 5.55558 7.47364 5.55557 7.58581 5.55556H8.85862C8.97078 5.55557 9.08003 5.55558 9.17254 5.54802C9.27414 5.53972 9.39402 5.52014 9.51466 5.45867C9.68191 5.37345 9.81789 5.23747 9.90312 5.07021C9.96458 4.94958 9.98417 4.8297 9.99247 4.7281C10 4.63559 10 4.52635 10 4.41418V3.14138C10 3.02921 10 2.91997 9.99247 2.82746C9.98417 2.72586 9.96458 2.60598 9.90312 2.48534C9.81789 2.31809 9.68191 2.18211 9.51466 2.09689C9.39402 2.03542 9.27414 2.01583 9.17254 2.00753C9.08003 1.99997 8.97079 1.99999 8.85863 2L7.58582 2Z" fill="#D1D9EB"/>
<path d="M7.58582 2C7.47365 1.99999 7.36441 1.99997 7.2719 2.00753C7.1703 2.01583 7.05042 2.03542 6.92979 2.09689C6.76253 2.18211 6.62655 2.31809 6.54133 2.48534C6.47986 2.60598 6.46028 2.72586 6.45198 2.82746C6.44442 2.91997 6.44443 3.02921 6.44444 3.14138V4.41418C6.44443 4.52635 6.44442 4.63559 6.45198 4.7281C6.46028 4.8297 6.47986 4.94958 6.54133 5.07021C6.62655 5.23747 6.76253 5.37345 6.92979 5.45867C7.05042 5.52014 7.1703 5.53972 7.2719 5.54802C7.36441 5.55558 7.47364 5.55557 7.58581 5.55556H8.85862C8.97078 5.55557 9.08003 5.55558 9.17254 5.54802C9.27414 5.53972 9.39402 5.52014 9.51466 5.45867C9.68191 5.37345 9.81789 5.23747 9.90312 5.07021C9.96458 4.94958 9.98417 4.8297 9.99247 4.7281C10 4.63559 10 4.52635 10 4.41418V3.14138C10 3.02921 10 2.91997 9.99247 2.82746C9.98417 2.72586 9.96458 2.60598 9.90312 2.48534C9.81789 2.31809 9.68191 2.18211 9.51466 2.09689C9.39402 2.03542 9.27414 2.01583 9.17254 2.00753C9.08003 1.99997 8.97079 1.99999 8.85863 2L7.58582 2Z" fill="url(#paint0_linear_4249_30372)"/>
<path d="M3.14138 6.44444C3.02921 6.44443 2.91997 6.44442 2.82746 6.45198C2.72586 6.46028 2.60598 6.47986 2.48534 6.54133C2.31809 6.62655 2.18211 6.76253 2.09689 6.92979C2.03542 7.05042 2.01583 7.1703 2.00753 7.2719C1.99997 7.36441 1.99999 7.47365 2 7.58582L2 8.85862C1.99999 8.97079 1.99997 9.08003 2.00753 9.17254C2.01583 9.27414 2.03542 9.39402 2.09689 9.51466C2.18211 9.68191 2.31809 9.81789 2.48534 9.90312C2.60598 9.96458 2.72586 9.98417 2.82746 9.99247C2.91997 10 3.02921 10 3.14138 10H4.41418C4.52635 10 4.63559 10 4.7281 9.99247C4.8297 9.98417 4.94958 9.96458 5.07021 9.90312C5.23747 9.81789 5.37345 9.68191 5.45867 9.51466C5.52014 9.39402 5.53972 9.27414 5.54802 9.17254C5.55558 9.08003 5.55557 8.9708 5.55556 8.85863V7.58582C5.55557 7.47366 5.55558 7.36441 5.54802 7.2719C5.53972 7.1703 5.52014 7.05042 5.45867 6.92979C5.37345 6.76253 5.23747 6.62655 5.07021 6.54133C4.94958 6.47986 4.8297 6.46028 4.7281 6.45198C4.63559 6.44442 4.52635 6.44443 4.41418 6.44444H3.14138Z" fill="#D1D9EB"/>
<path d="M3.14138 6.44444C3.02921 6.44443 2.91997 6.44442 2.82746 6.45198C2.72586 6.46028 2.60598 6.47986 2.48534 6.54133C2.31809 6.62655 2.18211 6.76253 2.09689 6.92979C2.03542 7.05042 2.01583 7.1703 2.00753 7.2719C1.99997 7.36441 1.99999 7.47365 2 7.58582L2 8.85862C1.99999 8.97079 1.99997 9.08003 2.00753 9.17254C2.01583 9.27414 2.03542 9.39402 2.09689 9.51466C2.18211 9.68191 2.31809 9.81789 2.48534 9.90312C2.60598 9.96458 2.72586 9.98417 2.82746 9.99247C2.91997 10 3.02921 10 3.14138 10H4.41418C4.52635 10 4.63559 10 4.7281 9.99247C4.8297 9.98417 4.94958 9.96458 5.07021 9.90312C5.23747 9.81789 5.37345 9.68191 5.45867 9.51466C5.52014 9.39402 5.53972 9.27414 5.54802 9.17254C5.55558 9.08003 5.55557 8.9708 5.55556 8.85863V7.58582C5.55557 7.47366 5.55558 7.36441 5.54802 7.2719C5.53972 7.1703 5.52014 7.05042 5.45867 6.92979C5.37345 6.76253 5.23747 6.62655 5.07021 6.54133C4.94958 6.47986 4.8297 6.46028 4.7281 6.45198C4.63559 6.44442 4.52635 6.44443 4.41418 6.44444H3.14138Z" fill="url(#paint1_linear_4249_30372)"/>
<path d="M7.58582 6.44444C7.47365 6.44443 7.36441 6.44442 7.2719 6.45198C7.1703 6.46028 7.05042 6.47986 6.92979 6.54133C6.76253 6.62655 6.62655 6.76253 6.54133 6.92979C6.47986 7.05042 6.46028 7.1703 6.45198 7.2719C6.44442 7.36441 6.44443 7.47365 6.44444 7.58582V8.85862C6.44443 8.97079 6.44442 9.08003 6.45198 9.17254C6.46028 9.27414 6.47986 9.39402 6.54133 9.51466C6.62655 9.68191 6.76253 9.81789 6.92979 9.90312C7.05042 9.96458 7.1703 9.98417 7.2719 9.99247C7.36441 10 7.47365 10 7.58582 10H8.85862C8.97079 10 9.08003 10 9.17254 9.99247C9.27414 9.98417 9.39402 9.96458 9.51466 9.90312C9.68191 9.81789 9.81789 9.68191 9.90312 9.51466C9.96458 9.39402 9.98417 9.27414 9.99247 9.17254C10 9.08003 10 8.97079 10 8.85862V7.58582C10 7.47365 10 7.36441 9.99247 7.2719C9.98417 7.1703 9.96458 7.05042 9.90312 6.92979C9.81789 6.76253 9.68191 6.62655 9.51466 6.54133C9.39402 6.47986 9.27414 6.46028 9.17254 6.45198C9.08003 6.44442 8.97079 6.44443 8.85862 6.44444H7.58582Z" fill="#D1D9EB"/>
<path d="M7.58582 6.44444C7.47365 6.44443 7.36441 6.44442 7.2719 6.45198C7.1703 6.46028 7.05042 6.47986 6.92979 6.54133C6.76253 6.62655 6.62655 6.76253 6.54133 6.92979C6.47986 7.05042 6.46028 7.1703 6.45198 7.2719C6.44442 7.36441 6.44443 7.47365 6.44444 7.58582V8.85862C6.44443 8.97079 6.44442 9.08003 6.45198 9.17254C6.46028 9.27414 6.47986 9.39402 6.54133 9.51466C6.62655 9.68191 6.76253 9.81789 6.92979 9.90312C7.05042 9.96458 7.1703 9.98417 7.2719 9.99247C7.36441 10 7.47365 10 7.58582 10H8.85862C8.97079 10 9.08003 10 9.17254 9.99247C9.27414 9.98417 9.39402 9.96458 9.51466 9.90312C9.68191 9.81789 9.81789 9.68191 9.90312 9.51466C9.96458 9.39402 9.98417 9.27414 9.99247 9.17254C10 9.08003 10 8.97079 10 8.85862V7.58582C10 7.47365 10 7.36441 9.99247 7.2719C9.98417 7.1703 9.96458 7.05042 9.90312 6.92979C9.81789 6.76253 9.68191 6.62655 9.51466 6.54133C9.39402 6.47986 9.27414 6.46028 9.17254 6.45198C9.08003 6.44442 8.97079 6.44443 8.85862 6.44444H7.58582Z" fill="url(#paint2_linear_4249_30372)"/>
<path d="M3.14138 2C3.02921 1.99999 2.91997 1.99997 2.82746 2.00753C2.72586 2.01583 2.60598 2.03542 2.48534 2.09689C2.31809 2.18211 2.18211 2.31809 2.09689 2.48534C2.03542 2.60598 2.01583 2.72586 2.00753 2.82746C1.99997 2.91997 1.99999 3.02921 2 3.14137L2 4.41418C1.99999 4.52635 1.99997 4.63559 2.00753 4.7281C2.01583 4.8297 2.03542 4.94958 2.09689 5.07021C2.18211 5.23747 2.31809 5.37345 2.48534 5.45867C2.60598 5.52014 2.72586 5.53972 2.82746 5.54802C2.91997 5.55558 3.0292 5.55557 3.14137 5.55556H4.41418C4.52634 5.55557 4.63559 5.55558 4.7281 5.54802C4.8297 5.53972 4.94958 5.52014 5.07021 5.45867C5.23747 5.37345 5.37345 5.23747 5.45867 5.07021C5.52014 4.94958 5.53972 4.8297 5.54802 4.7281C5.55558 4.63559 5.55557 4.52636 5.55556 4.41419V3.14138C5.55557 3.02922 5.55558 2.91997 5.54802 2.82746C5.53972 2.72586 5.52014 2.60598 5.45867 2.48534C5.37345 2.31809 5.23747 2.18211 5.07021 2.09689C4.94958 2.03542 4.8297 2.01583 4.7281 2.00753C4.63559 1.99997 4.52635 1.99999 4.41418 2L3.14138 2Z" fill="#D1D9EB"/>
<path d="M3.14138 2C3.02921 1.99999 2.91997 1.99997 2.82746 2.00753C2.72586 2.01583 2.60598 2.03542 2.48534 2.09689C2.31809 2.18211 2.18211 2.31809 2.09689 2.48534C2.03542 2.60598 2.01583 2.72586 2.00753 2.82746C1.99997 2.91997 1.99999 3.02921 2 3.14137L2 4.41418C1.99999 4.52635 1.99997 4.63559 2.00753 4.7281C2.01583 4.8297 2.03542 4.94958 2.09689 5.07021C2.18211 5.23747 2.31809 5.37345 2.48534 5.45867C2.60598 5.52014 2.72586 5.53972 2.82746 5.54802C2.91997 5.55558 3.0292 5.55557 3.14137 5.55556H4.41418C4.52634 5.55557 4.63559 5.55558 4.7281 5.54802C4.8297 5.53972 4.94958 5.52014 5.07021 5.45867C5.23747 5.37345 5.37345 5.23747 5.45867 5.07021C5.52014 4.94958 5.53972 4.8297 5.54802 4.7281C5.55558 4.63559 5.55557 4.52636 5.55556 4.41419V3.14138C5.55557 3.02922 5.55558 2.91997 5.54802 2.82746C5.53972 2.72586 5.52014 2.60598 5.45867 2.48534C5.37345 2.31809 5.23747 2.18211 5.07021 2.09689C4.94958 2.03542 4.8297 2.01583 4.7281 2.00753C4.63559 1.99997 4.52635 1.99999 4.41418 2L3.14138 2Z" fill="url(#paint3_linear_4249_30372)"/>
<defs>
<linearGradient id="paint0_linear_4249_30372" x1="6" y1="10.0571" x2="6" y2="1.94286" gradientUnits="userSpaceOnUse">
<stop stop-color="#1C2230" stop-opacity="0"/>
<stop offset="1" stop-color="#1C2230" stop-opacity="0.35"/>
</linearGradient>
<linearGradient id="paint1_linear_4249_30372" x1="6" y1="10.0571" x2="6" y2="1.94286" gradientUnits="userSpaceOnUse">
<stop stop-color="#1C2230" stop-opacity="0"/>
<stop offset="1" stop-color="#1C2230" stop-opacity="0.35"/>
</linearGradient>
<linearGradient id="paint2_linear_4249_30372" x1="6" y1="10.0571" x2="6" y2="1.94286" gradientUnits="userSpaceOnUse">
<stop stop-color="#1C2230" stop-opacity="0"/>
<stop offset="1" stop-color="#1C2230" stop-opacity="0.35"/>
</linearGradient>
<linearGradient id="paint3_linear_4249_30372" x1="6" y1="10.0571" x2="6" y2="1.94286" gradientUnits="userSpaceOnUse">
<stop stop-color="#1C2230" stop-opacity="0"/>
<stop offset="1" stop-color="#1C2230" stop-opacity="0.35"/>
</linearGradient>
</defs>
</svg>
