<svg width="14" height="20" viewBox="0 0 14 20" fill="none" xmlns="http://www.w3.org/2000/svg">
<path fill-rule="evenodd" clip-rule="evenodd" d="M7.00016 0.625C10.6225 0.625 13.5862 3.58867 13.5862 7.21102C13.5862 10.8266 13.5863 14.4422 13.5863 18.0578C13.5863 18.7823 12.9935 19.375 12.269 19.375C11.5446 19.375 10.9518 18.7823 10.9518 18.0578V16.2893C10.9518 15.5648 10.3591 14.9721 9.63461 14.9721C8.91016 14.9721 8.31734 15.5648 8.31734 16.2893V16.6027C8.31734 17.3271 7.72461 17.9199 7.0002 17.9199C6.2757 17.9199 5.68297 17.3271 5.68297 16.6027V16.4441C5.68297 15.7196 5.09016 15.1269 4.36574 15.1269C3.64125 15.1269 3.04852 15.7196 3.04852 16.4441V18.0578C3.04852 18.7823 2.45578 19.375 1.73129 19.375C1.00684 19.375 0.414062 18.7823 0.414062 18.0578C0.414062 14.4422 0.414062 10.8266 0.414062 7.21102C0.414141 3.58871 3.37789 0.625 7.00016 0.625ZM4.40484 12.9462L5.56672 11.8206L6.72863 12.9462C6.8807 13.0941 7.12047 13.0927 7.27254 12.9455L8.43371 11.8206L9.59562 12.9461C9.7498 13.0961 9.99648 13.0927 10.1464 12.9385C10.2965 12.7843 10.293 12.5377 10.1389 12.3877L8.70535 10.9989C8.55477 10.8523 8.31379 10.8515 8.16215 10.9989L7.00031 12.1245L5.83836 10.9989C5.68777 10.8523 5.44684 10.8515 5.2952 10.9989L3.86172 12.3877C3.7075 12.5377 3.7041 12.7843 3.8541 12.9385C4.00398 13.0927 4.25059 13.0962 4.40484 12.9462ZM8.90766 7.95187L9.55031 7.30922L10.193 7.95187C10.3455 8.10437 10.5928 8.10437 10.7454 7.95187C10.8979 7.79934 10.8979 7.55203 10.7454 7.39949L10.1027 6.75684L10.7454 6.11418C10.8979 5.96168 10.8979 5.71438 10.7454 5.5618C10.5928 5.4093 10.3455 5.4093 10.193 5.5618L9.55031 6.20449L8.90766 5.5618C8.75516 5.4093 8.50785 5.4093 8.35527 5.5618C8.20277 5.71434 8.20277 5.96164 8.35527 6.11418L8.99793 6.75684L8.35527 7.39949C8.20277 7.55199 8.20277 7.7993 8.35527 7.95187C8.50785 8.10441 8.75516 8.10441 8.90766 7.95187ZM3.80742 7.95187L4.45008 7.30922L5.09273 7.95187C5.24523 8.10437 5.49254 8.10437 5.64512 7.95187C5.79762 7.79934 5.79762 7.55203 5.64512 7.39949L5.00246 6.75684L5.64512 6.11418C5.79762 5.96168 5.79762 5.71438 5.64512 5.5618C5.49258 5.4093 5.24527 5.4093 5.09273 5.5618L4.45008 6.20449L3.80742 5.5618C3.65492 5.4093 3.40762 5.4093 3.25504 5.5618C3.10254 5.71434 3.10254 5.96164 3.25504 6.11418L3.8977 6.75684L3.25504 7.39949C3.10254 7.55199 3.10254 7.7993 3.25504 7.95187C3.40758 8.10441 3.65488 8.10441 3.80742 7.95187Z" fill="#60719A"/>
</svg>
