<svg viewBox="0 0 18 18" fill="none" xmlns="http://www.w3.org/2000/svg">
<path d="M4.79545 13.3908V13.187L4.59581 13.146C3.93395 13.0098 3.33925 12.6497 2.91194 12.1263C2.48467 11.6029 2.25089 10.9482 2.25 10.2725V5.18195C2.25097 4.40465 2.56018 3.65946 3.10983 3.10982C3.65947 2.56018 4.40466 2.25097 5.18197 2.25H12.818C13.5953 2.25097 14.3405 2.56018 14.8902 3.10982C15.4399 3.65949 15.7491 4.40474 15.75 5.1821V10.2724C15.7491 11.0497 15.4399 11.795 14.8902 12.3446C14.3405 12.8943 13.5952 13.2035 12.8179 13.2045H9.19091H9.11518L9.05218 13.2465L5.39628 15.685L5.39625 15.685C5.33806 15.7239 5.27043 15.7462 5.20056 15.7495C5.1307 15.7529 5.06122 15.7373 4.99955 15.7043C4.93787 15.6713 4.88631 15.6222 4.85037 15.5622C4.81442 15.5022 4.79544 15.4335 4.79545 15.3636V15.3635V13.3908ZM6.45455 9.88631H11.5455C11.7805 9.88631 12.006 9.79293 12.1722 9.6267C12.3384 9.46048 12.4318 9.23503 12.4318 8.99995C12.4318 8.76487 12.3384 8.53943 12.1722 8.3732C12.006 8.20698 11.7805 8.11359 11.5455 8.11359H6.45455C6.21947 8.11359 5.99402 8.20698 5.82779 8.3732C5.66157 8.53942 5.56818 8.76487 5.56818 8.99995C5.56818 9.23503 5.66157 9.46048 5.82779 9.6267C5.99402 9.79293 6.21947 9.88631 6.45455 9.88631ZM5.18182 7.34087H12.8182C13.0533 7.34087 13.2787 7.24749 13.4449 7.08127C13.6112 6.91504 13.7045 6.68959 13.7045 6.45451C13.7045 6.21944 13.6112 5.99399 13.4449 5.82776C13.2787 5.66154 13.0533 5.56816 12.8182 5.56816H5.18182C4.94674 5.56816 4.72129 5.66154 4.55507 5.82776C4.38884 5.99399 4.29545 6.21944 4.29545 6.45451C4.29545 6.68959 4.38884 6.91504 4.55506 7.08127C4.72129 7.24749 4.94674 7.34087 5.18182 7.34087Z" fill="#D1D9EB"/>
<path d="M4.79545 13.3908V13.187L4.59581 13.146C3.93395 13.0098 3.33925 12.6497 2.91194 12.1263C2.48467 11.6029 2.25089 10.9482 2.25 10.2725V5.18195C2.25097 4.40465 2.56018 3.65946 3.10983 3.10982C3.65947 2.56018 4.40466 2.25097 5.18197 2.25H12.818C13.5953 2.25097 14.3405 2.56018 14.8902 3.10982C15.4399 3.65949 15.7491 4.40474 15.75 5.1821V10.2724C15.7491 11.0497 15.4399 11.795 14.8902 12.3446C14.3405 12.8943 13.5952 13.2035 12.8179 13.2045H9.19091H9.11518L9.05218 13.2465L5.39628 15.685L5.39625 15.685C5.33806 15.7239 5.27043 15.7462 5.20056 15.7495C5.1307 15.7529 5.06122 15.7373 4.99955 15.7043C4.93787 15.6713 4.88631 15.6222 4.85037 15.5622C4.81442 15.5022 4.79544 15.4335 4.79545 15.3636V15.3635V13.3908ZM6.45455 9.88631H11.5455C11.7805 9.88631 12.006 9.79293 12.1722 9.6267C12.3384 9.46048 12.4318 9.23503 12.4318 8.99995C12.4318 8.76487 12.3384 8.53943 12.1722 8.3732C12.006 8.20698 11.7805 8.11359 11.5455 8.11359H6.45455C6.21947 8.11359 5.99402 8.20698 5.82779 8.3732C5.66157 8.53942 5.56818 8.76487 5.56818 8.99995C5.56818 9.23503 5.66157 9.46048 5.82779 9.6267C5.99402 9.79293 6.21947 9.88631 6.45455 9.88631ZM5.18182 7.34087H12.8182C13.0533 7.34087 13.2787 7.24749 13.4449 7.08127C13.6112 6.91504 13.7045 6.68959 13.7045 6.45451C13.7045 6.21944 13.6112 5.99399 13.4449 5.82776C13.2787 5.66154 13.0533 5.56816 12.8182 5.56816H5.18182C4.94674 5.56816 4.72129 5.66154 4.55507 5.82776C4.38884 5.99399 4.29545 6.21944 4.29545 6.45451C4.29545 6.68959 4.38884 6.91504 4.55506 7.08127C4.72129 7.24749 4.94674 7.34087 5.18182 7.34087Z" fill="url(#paint0_linear_4248_5869)"/>
<path d="M4.79545 13.3908V13.187L4.59581 13.146C3.93395 13.0098 3.33925 12.6497 2.91194 12.1263C2.48467 11.6029 2.25089 10.9482 2.25 10.2725V5.18195C2.25097 4.40465 2.56018 3.65946 3.10983 3.10982C3.65947 2.56018 4.40466 2.25097 5.18197 2.25H12.818C13.5953 2.25097 14.3405 2.56018 14.8902 3.10982C15.4399 3.65949 15.7491 4.40474 15.75 5.1821V10.2724C15.7491 11.0497 15.4399 11.795 14.8902 12.3446C14.3405 12.8943 13.5952 13.2035 12.8179 13.2045H9.19091H9.11518L9.05218 13.2465L5.39628 15.685L5.39625 15.685C5.33806 15.7239 5.27043 15.7462 5.20056 15.7495C5.1307 15.7529 5.06122 15.7373 4.99955 15.7043C4.93787 15.6713 4.88631 15.6222 4.85037 15.5622C4.81442 15.5022 4.79544 15.4335 4.79545 15.3636V15.3635V13.3908ZM6.45455 9.88631H11.5455C11.7805 9.88631 12.006 9.79293 12.1722 9.6267C12.3384 9.46048 12.4318 9.23503 12.4318 8.99995C12.4318 8.76487 12.3384 8.53943 12.1722 8.3732C12.006 8.20698 11.7805 8.11359 11.5455 8.11359H6.45455C6.21947 8.11359 5.99402 8.20698 5.82779 8.3732C5.66157 8.53942 5.56818 8.76487 5.56818 8.99995C5.56818 9.23503 5.66157 9.46048 5.82779 9.6267C5.99402 9.79293 6.21947 9.88631 6.45455 9.88631ZM5.18182 7.34087H12.8182C13.0533 7.34087 13.2787 7.24749 13.4449 7.08127C13.6112 6.91504 13.7045 6.68959 13.7045 6.45451C13.7045 6.21944 13.6112 5.99399 13.4449 5.82776C13.2787 5.66154 13.0533 5.56816 12.8182 5.56816H5.18182C4.94674 5.56816 4.72129 5.66154 4.55507 5.82776C4.38884 5.99399 4.29545 6.21944 4.29545 6.45451C4.29545 6.68959 4.38884 6.91504 4.55506 7.08127C4.72129 7.24749 4.94674 7.34087 5.18182 7.34087Z" stroke="#EDF2FF" stroke-width="0.5"/>
<path d="M4.79545 13.3908V13.187L4.59581 13.146C3.93395 13.0098 3.33925 12.6497 2.91194 12.1263C2.48467 11.6029 2.25089 10.9482 2.25 10.2725V5.18195C2.25097 4.40465 2.56018 3.65946 3.10983 3.10982C3.65947 2.56018 4.40466 2.25097 5.18197 2.25H12.818C13.5953 2.25097 14.3405 2.56018 14.8902 3.10982C15.4399 3.65949 15.7491 4.40474 15.75 5.1821V10.2724C15.7491 11.0497 15.4399 11.795 14.8902 12.3446C14.3405 12.8943 13.5952 13.2035 12.8179 13.2045H9.19091H9.11518L9.05218 13.2465L5.39628 15.685L5.39625 15.685C5.33806 15.7239 5.27043 15.7462 5.20056 15.7495C5.1307 15.7529 5.06122 15.7373 4.99955 15.7043C4.93787 15.6713 4.88631 15.6222 4.85037 15.5622C4.81442 15.5022 4.79544 15.4335 4.79545 15.3636V15.3635V13.3908ZM6.45455 9.88631H11.5455C11.7805 9.88631 12.006 9.79293 12.1722 9.6267C12.3384 9.46048 12.4318 9.23503 12.4318 8.99995C12.4318 8.76487 12.3384 8.53943 12.1722 8.3732C12.006 8.20698 11.7805 8.11359 11.5455 8.11359H6.45455C6.21947 8.11359 5.99402 8.20698 5.82779 8.3732C5.66157 8.53942 5.56818 8.76487 5.56818 8.99995C5.56818 9.23503 5.66157 9.46048 5.82779 9.6267C5.99402 9.79293 6.21947 9.88631 6.45455 9.88631ZM5.18182 7.34087H12.8182C13.0533 7.34087 13.2787 7.24749 13.4449 7.08127C13.6112 6.91504 13.7045 6.68959 13.7045 6.45451C13.7045 6.21944 13.6112 5.99399 13.4449 5.82776C13.2787 5.66154 13.0533 5.56816 12.8182 5.56816H5.18182C4.94674 5.56816 4.72129 5.66154 4.55507 5.82776C4.38884 5.99399 4.29545 6.21944 4.29545 6.45451C4.29545 6.68959 4.38884 6.91504 4.55506 7.08127C4.72129 7.24749 4.94674 7.34087 5.18182 7.34087Z" stroke="url(#paint1_linear_4248_5869)" stroke-width="0.5"/>
<defs>
<linearGradient id="paint0_linear_4248_5869" x1="9" y1="16.1" x2="9" y2="1.9" gradientUnits="userSpaceOnUse">
<stop stop-color="#1C2230" stop-opacity="0"/>
<stop offset="1" stop-color="#1C2230" stop-opacity="0.35"/>
</linearGradient>
<linearGradient id="paint1_linear_4248_5869" x1="9" y1="16.1" x2="9" y2="1.9" gradientUnits="userSpaceOnUse">
<stop stop-color="#1C2230" stop-opacity="0"/>
<stop offset="1" stop-color="#1C2230" stop-opacity="0.35"/>
</linearGradient>
</defs>
</svg>
