<svg width="35" height="35" viewBox="0 0 35 35" fill="none" xmlns="http://www.w3.org/2000/svg">
<g filter="url(#filter0_d_2252_6828)">
<path d="M22.8542 17.8415C23.0447 17.651 23.0447 17.3461 22.8542 17.1556L22.4936 16.795C22.3529 16.6543 22.3119 16.4462 22.3881 16.2644L22.5845 15.7954C22.6871 15.5492 22.5728 15.2648 22.3265 15.1593L21.8223 14.9482C21.6435 14.872 21.5262 14.6961 21.5262 14.4997V13.9545C21.5262 13.6877 21.3093 13.4679 21.0396 13.4679H20.5325C20.3361 13.4679 20.1573 13.3477 20.084 13.166L19.8935 12.6969C19.7938 12.4478 19.5095 12.3305 19.2603 12.4302L18.7532 12.6354C18.5714 12.7087 18.3662 12.6676 18.2255 12.5298L17.8386 12.1429C17.648 11.9524 17.3402 11.9524 17.1526 12.1429L16.795 12.5035C16.6543 12.6442 16.4462 12.6852 16.2644 12.609L15.7954 12.4126C15.5492 12.31 15.2648 12.4243 15.1593 12.6706L14.9482 13.1748C14.872 13.3536 14.6961 13.4708 14.4997 13.4708H13.9545C13.6877 13.4708 13.4679 13.6877 13.4679 13.9574V14.4646C13.4679 14.661 13.3477 14.8398 13.166 14.9131L12.6969 15.1036C12.4478 15.2033 12.3305 15.4876 12.4302 15.7368L12.6354 16.2439C12.7087 16.4256 12.6676 16.6308 12.5298 16.7716L12.1429 17.1585C11.9524 17.349 11.9524 17.6539 12.1429 17.8444L12.5035 18.2021C12.6442 18.3428 12.6852 18.5509 12.609 18.7326L12.4126 19.2017C12.31 19.4479 12.4243 19.7322 12.6706 19.8378L13.1748 20.0488C13.3536 20.1251 13.4708 20.3009 13.4708 20.4973V21.0426C13.4708 21.3093 13.6877 21.5292 13.9574 21.5292H14.4646C14.661 21.5292 14.8398 21.6494 14.9131 21.8311L15.1036 22.3031C15.2033 22.5522 15.4876 22.6695 15.7368 22.5698L16.2439 22.3646C16.4256 22.2913 16.6308 22.3324 16.7716 22.4702L17.1585 22.8571C17.349 23.0476 17.6539 23.0476 17.8444 22.8571L18.205 22.4965C18.3457 22.3558 18.5538 22.3148 18.7356 22.391L19.2046 22.5874C19.4508 22.69 19.7352 22.5757 19.8407 22.3294L20.0518 21.8252C20.128 21.6464 20.3039 21.5292 20.5003 21.5292H21.0455C21.3123 21.5292 21.5321 21.3123 21.5321 21.0426V20.5354C21.5321 20.339 21.6523 20.1602 21.834 20.0869L22.3031 19.8964C22.5522 19.7967 22.6695 19.5124 22.5698 19.2632L22.3646 18.7561C22.2913 18.5744 22.3324 18.3692 22.4702 18.2284L22.8542 17.8415ZM17.4985 21.4852C15.2971 21.4852 13.5119 19.7 13.5119 17.4985C13.5119 15.2971 15.2971 13.5119 17.4985 13.5119C19.7 13.5119 21.4852 15.2971 21.4852 17.4985C21.4852 19.7 19.7 21.4852 17.4985 21.4852Z" fill="#17E2A5"/>
<path d="M15.3768 21.6441C15.3312 21.5311 15.2659 21.4299 15.186 21.3439C15.5403 21.5575 15.9265 21.7235 16.3358 21.833C16.2417 21.8418 16.1478 21.8642 16.0569 21.9009L16.0564 21.9011L15.5614 22.1014M15.3768 21.6441L14.9131 21.8311L15.3767 21.6439L15.3768 21.6441ZM15.3768 21.6441L15.5614 22.1014M15.5614 22.1014L15.5511 22.1056C15.5512 22.1055 15.5522 22.1053 15.5536 22.1053C15.5548 22.1053 15.556 22.1055 15.5572 22.106C15.5584 22.1065 15.5604 22.1077 15.5627 22.11C15.5647 22.112 15.5662 22.1142 15.5672 22.1159C15.5674 22.1164 15.5676 22.1169 15.5678 22.1173L15.5672 22.1159L15.5614 22.1014ZM21.3915 15.2668C21.5941 15.6193 21.7501 16.002 21.8513 16.4063C21.8565 16.2932 21.8814 16.1798 21.927 16.0711M21.3915 15.2668L21.927 16.0711M21.3915 15.2668C21.4618 15.3238 21.5405 15.3716 21.6263 15.4082L21.6263 15.4082L21.6293 15.4095L22.1183 15.6142M21.3915 15.2668L22.1183 15.6142M21.927 16.0711L22.1183 15.6142M21.927 16.0711L22.1183 15.6142M22.1401 17.1486L22.4901 17.4986L22.1153 17.8762L22.1153 17.8762L22.1129 17.8786C22.0446 17.9484 21.9881 18.0263 21.9439 18.1096C21.9711 17.9098 21.9852 17.7058 21.9852 17.4985C21.9852 17.2826 21.9699 17.0702 21.9404 16.8624C21.9886 16.9668 22.0555 17.064 22.1401 17.1486ZM21.3359 19.8244C21.5532 19.4667 21.7219 19.0761 21.8328 18.662C21.8415 18.7568 21.864 18.8515 21.9009 18.9431L21.9011 18.9436L22.1014 19.4386L21.6471 19.6232C21.6468 19.6233 21.6466 19.6234 21.6463 19.6235C21.5287 19.6711 21.424 19.7399 21.3359 19.8244ZM22.1222 19.4443L22.5698 19.2632L22.1056 19.4489L22.1063 19.4508L22.1198 19.4453L22.1222 19.4443ZM20.2114 21.0723C20.5489 20.8157 20.8489 20.5124 21.1019 20.172C21.0566 20.2857 21.0321 20.4088 21.0321 20.5354V21.0292H20.5003C20.4005 21.0292 20.3034 21.0441 20.2114 21.0723ZM18.581 21.8537C18.9928 21.7517 19.3823 21.5927 19.7404 21.3857C19.6802 21.4581 19.6299 21.5399 19.5918 21.6292L19.5918 21.6292L19.5905 21.6322L19.3858 22.1212L18.9289 21.9299C18.8161 21.8826 18.6983 21.8576 18.581 21.8537ZM17.4985 21.9852C17.7193 21.9852 17.9363 21.9693 18.1485 21.9385C18.0399 21.9869 17.9389 22.0555 17.8514 22.143L17.5015 22.493L17.1251 22.1166L17.1251 22.1166L17.1214 22.1129C17.0519 22.0449 16.9743 21.9886 16.8914 21.9445C17.0899 21.9713 17.2926 21.9852 17.4985 21.9852ZM13.9311 20.2196C14.1835 20.55 14.4807 20.8442 14.8137 21.0934C14.704 21.0516 14.5859 21.0292 14.4646 21.0292H13.9708V20.4973C13.9708 20.4016 13.9571 20.3083 13.9311 20.2196ZM13.1458 18.5907C13.2469 18.9951 13.403 19.3777 13.6056 19.7303C13.5353 19.6733 13.4565 19.6254 13.3708 19.5889L13.3708 19.5889L13.3678 19.5876L12.8788 19.3829L13.0701 18.926C13.0701 18.9259 13.0702 18.9259 13.0702 18.9258C13.1157 18.8171 13.1406 18.7038 13.1458 18.5907ZM13.0119 17.4985C13.0119 17.7145 13.0271 17.9269 13.0566 18.1347C13.0085 18.0302 12.9416 17.9331 12.857 17.8485L12.8556 17.8471L12.5071 17.5014L12.8834 17.1251L12.8834 17.1251L12.8871 17.1214C12.9531 17.054 13.0081 16.9789 13.0516 16.8987C13.0254 17.0949 13.0119 17.2951 13.0119 17.4985ZM13.6531 15.186C13.441 15.538 13.2757 15.9215 13.1662 16.3278C13.1569 16.2364 13.1347 16.1453 13.0991 16.0569L13.0989 16.0564L12.8986 15.5614L13.3529 15.3768C13.3532 15.3767 13.3534 15.3766 13.3536 15.3765C13.4664 15.3309 13.5673 15.2658 13.6531 15.186ZM14.7775 13.9311C14.4471 14.1835 14.1528 14.4807 13.9037 14.8137C13.9454 14.704 13.9679 14.5859 13.9679 14.4646V13.9708H14.4997C14.5954 13.9708 14.6888 13.9571 14.7775 13.9311ZM16.4063 13.1458C16.002 13.2469 15.6193 13.403 15.2668 13.6056C15.3238 13.5353 15.3716 13.4565 15.4082 13.3708L15.4082 13.3708L15.4095 13.3678L15.6142 12.8788L16.0711 13.0701C16.0711 13.0701 16.0711 13.0701 16.0712 13.0701C16.0712 13.0702 16.0713 13.0702 16.0713 13.0702C16.18 13.1157 16.2933 13.1406 16.4063 13.1458ZM17.4985 13.0119C17.2826 13.0119 17.0702 13.0271 16.8624 13.0566C16.9668 13.0085 17.064 12.9416 17.1486 12.857L17.15 12.8556L17.4956 12.5071L17.872 12.8834L17.8719 12.8834L17.8757 12.8871C17.9431 12.9531 18.0182 13.0081 18.0984 13.0516C17.9022 13.0254 17.7019 13.0119 17.4985 13.0119ZM19.8111 13.6531C19.4591 13.441 19.0756 13.2757 18.6693 13.1662C18.7607 13.1569 18.8518 13.1347 18.9401 13.0991L18.9407 13.0989L19.4357 12.8986L19.6203 13.3529C19.6204 13.3532 19.6205 13.3534 19.6206 13.3537C19.6662 13.4664 19.7313 13.5673 19.8111 13.6531ZM19.4414 12.8778L19.2603 12.4302L19.446 12.8944L19.4478 12.8937L19.4424 12.8802L19.4414 12.8778ZM21.066 14.7775C20.8136 14.4471 20.5164 14.1528 20.1834 13.9037C20.2931 13.9454 20.4111 13.9679 20.5325 13.9679H21.0262V14.4997C21.0262 14.5954 21.04 14.6888 21.066 14.7775ZM15.7368 22.5698L15.5575 22.1215L15.5569 22.1201L15.5511 22.1056L15.5492 22.1063L15.5551 22.1208L15.5557 22.1222L15.7368 22.5698Z" stroke="#24FDBC"/>
</g>
<g filter="url(#filter1_d_2252_6828)">
<path d="M17.5016 14.6494C15.9275 14.6494 14.6523 15.9246 14.6523 17.4987C14.6523 19.0729 15.9275 20.348 17.5016 20.348C19.0758 20.348 20.3509 19.0729 20.3509 17.4987C20.3509 15.9246 19.0758 14.6494 17.5016 14.6494ZM17.0795 19.5067L15.221 17.6482L16.0272 16.8421L17.0795 17.8945L18.8882 16.0858L19.6943 16.8919L17.0795 19.5067Z" fill="#17E2A5"/>
<path d="M17.5016 19.848C17.483 19.848 17.4645 19.8478 17.446 19.8474L19.8503 17.443C19.8507 17.4615 19.8509 17.4801 19.8509 17.4987C19.8509 18.7967 18.7997 19.848 17.5016 19.848ZM16.4815 19.6157C16.0033 19.385 15.6153 18.9971 15.3846 18.5189L16.4815 19.6157ZM15.2181 16.944C15.4673 15.9139 16.3947 15.1494 17.5016 15.1494C17.9628 15.1494 18.3927 15.2821 18.7555 15.5114L18.5346 15.7322L17.0795 17.1873L16.3807 16.4885L16.0272 16.135L15.6736 16.4885L15.2181 16.944Z" stroke="#24FDBC"/>
</g>
<defs>
<filter id="filter0_d_2252_6828" x="0" y="0" width="34.9961" height="35" filterUnits="userSpaceOnUse" color-interpolation-filters="sRGB">
<feFlood flood-opacity="0" result="BackgroundImageFix"/>
<feColorMatrix in="SourceAlpha" type="matrix" values="0 0 0 0 0 0 0 0 0 0 0 0 0 0 0 0 0 0 127 0" result="hardAlpha"/>
<feOffset/>
<feGaussianBlur stdDeviation="6"/>
<feComposite in2="hardAlpha" operator="out"/>
<feColorMatrix type="matrix" values="0 0 0 0 0 0 0 0 0 0.604167 0 0 0 0 0.386667 0 0 0 0.65 0"/>
<feBlend mode="normal" in2="BackgroundImageFix" result="effect1_dropShadow_2252_6828"/>
<feBlend mode="normal" in="SourceGraphic" in2="effect1_dropShadow_2252_6828" result="shape"/>
</filter>
<filter id="filter1_d_2252_6828" x="2.65234" y="2.64941" width="29.6992" height="29.6987" filterUnits="userSpaceOnUse" color-interpolation-filters="sRGB">
<feFlood flood-opacity="0" result="BackgroundImageFix"/>
<feColorMatrix in="SourceAlpha" type="matrix" values="0 0 0 0 0 0 0 0 0 0 0 0 0 0 0 0 0 0 127 0" result="hardAlpha"/>
<feOffset/>
<feGaussianBlur stdDeviation="6"/>
<feComposite in2="hardAlpha" operator="out"/>
<feColorMatrix type="matrix" values="0 0 0 0 0 0 0 0 0 0.604167 0 0 0 0 0.386667 0 0 0 0.65 0"/>
<feBlend mode="normal" in2="BackgroundImageFix" result="effect1_dropShadow_2252_6828"/>
<feBlend mode="normal" in="SourceGraphic" in2="effect1_dropShadow_2252_6828" result="shape"/>
</filter>
</defs>
</svg>
