<svg viewBox="0 0 34 34" xmlns="http://www.w3.org/2000/svg">
<path d="M10.9805 2.8335V7.0835H9.91797C9.54964 7.0835 9.19547 7.09766 8.85547 7.15433V2.8335C8.85547 2.25266 9.33714 1.771 9.91797 1.771C10.4988 1.771 10.9805 2.25266 10.9805 2.8335Z"/>
<path d="M24.082 7.0835H9.91537C9.54703 7.0835 9.19286 7.09766 8.85286 7.15433C5.19786 7.57933 2.83203 10.2852 2.83203 14.1668V24.0835C2.83203 28.3335 5.66536 31.1668 9.91537 31.1668H24.082C28.332 31.1668 31.1654 28.3335 31.1654 24.0835V14.1668C31.1654 9.91683 28.332 7.0835 24.082 7.0835ZM11.162 22.6668C9.20703 22.6668 7.62037 21.0802 7.62037 19.1252C7.62037 17.1702 9.20703 15.5835 11.162 15.5835C13.117 15.5835 14.7037 17.1702 14.7037 19.1252C14.7037 21.0802 13.117 22.6668 11.162 22.6668ZM20.3704 23.021H19.662C19.0812 23.021 18.5995 22.5393 18.5995 21.9585C18.5995 21.3777 19.0812 20.896 19.662 20.896H20.3704C20.9512 20.896 21.4329 21.3777 21.4329 21.9585C21.4329 22.5393 20.9512 23.021 20.3704 23.021ZM25.3287 23.021H24.6204C24.0395 23.021 23.5579 22.5393 23.5579 21.9585C23.5579 21.3777 24.0395 20.896 24.6204 20.896H25.3287C25.9095 20.896 26.3912 21.3777 26.3912 21.9585C26.3912 22.5393 25.9095 23.021 25.3287 23.021ZM25.3287 17.3543H19.662C19.0812 17.3543 18.5995 16.8727 18.5995 16.2918C18.5995 15.711 19.0812 15.2293 19.662 15.2293H25.3287C25.9095 15.2293 26.3912 15.711 26.3912 16.2918C26.3912 16.8727 25.9095 17.3543 25.3287 17.3543Z"/>
</svg>
