<svg width="32" height="32" viewBox="0 0 32 32" fill="none" xmlns="http://www.w3.org/2000/svg">
<path d="M28 8C27.448 8 27 8.448 27 9C27 9.552 27.448 10 28 10C29.104 10 30 10.898 30 12V28.918L26.624 26.218C26.448 26.078 26.226 26 26 26H12C10.896 26 10 25.102 10 24V23C10 22.448 9.552 22 9 22C8.448 22 8 22.448 8 23V24C8 26.206 9.794 28 12 28H25.648L30.374 31.782C30.556 31.926 30.778 32 31 32C31.146 32 31.294 31.968 31.434 31.902C31.78 31.734 32 31.384 32 31V12C32 9.794 30.206 8 28 8Z"/>
<path d="M22 0H4C1.794 0 0 1.794 0 4V24C0 24.388 0.224 24.742 0.576 24.906C0.71 24.968 0.856 25 1 25C1.23 25 1.458 24.92 1.64 24.768L7.362 20H22C24.206 20 26 18.206 26 16V4C26 1.794 24.206 0 22 0ZM24 16C24 17.102 23.104 18 22 18H7C6.766 18 6.54 18.082 6.36 18.232L2 21.866V4C2 2.898 2.896 2 4 2H22C23.104 2 24 2.898 24 4V16Z"/>
<path d="M15 10H7C6.448 10 6 10.448 6 11C6 11.552 6.448 12 7 12H15C15.552 12 16 11.552 16 11C16 10.448 15.552 10 15 10Z"/>
<path d="M19 6H7C6.448 6 6 6.448 6 7C6 7.552 6.448 8 7 8H19C19.552 8 20 7.552 20 7C20 6.448 19.552 6 19 6Z"/>
</svg>
