<svg width="29" height="28" viewBox="0 0 29 28" fill="none" xmlns="http://www.w3.org/2000/svg">
<g clip-path="url(#clip0_4540_12111)">
<path d="M27.0363 0.628738C26.9645 0.338949 26.7422 0.110246 26.4545 0.0302927C26.1669 -0.0497151 25.8584 0.0313865 25.6473 0.242535L9.85156 16.0383L15.9435 22.1302L23.0272 15.0465C24.8775 13.1962 26.226 10.8857 26.927 8.36461C27.6281 5.84357 27.6659 3.16854 27.0363 0.628738Z" fill="#10AA7C"/>
<path d="M27.0363 0.628738C26.9645 0.338949 26.7422 0.110246 26.4545 0.0302927C26.1669 -0.0497151 25.8584 0.0313865 25.6473 0.242535L9.85156 16.0383L15.9435 22.1302L23.0272 15.0465C24.8775 13.1962 26.226 10.8857 26.927 8.36461C27.6281 5.84357 27.6659 3.16854 27.0363 0.628738Z" fill="url(#paint0_linear_4540_12111)"/>
<path d="M8.67896 17.2092L2.2704 23.6178C1.26924 24.619 1.26924 26.248 2.2704 27.2493C2.77101 27.7498 3.42858 28.0001 4.08608 28.0001C4.74359 28.0001 5.40121 27.7498 5.90176 27.2493L12.3104 20.8406L8.67896 17.2092Z" fill="#10AA7C"/>
<path d="M8.67896 17.2092L2.2704 23.6178C1.26924 24.619 1.26924 26.248 2.2704 27.2493C2.77101 27.7498 3.42858 28.0001 4.08608 28.0001C4.74359 28.0001 5.40121 27.7498 5.90176 27.2493L12.3104 20.8406L8.67896 17.2092Z" fill="url(#paint1_linear_4540_12111)"/>
</g>
<defs>
<linearGradient id="paint0_linear_4540_12111" x1="21.9091" y1="0" x2="21.9091" y2="22.1302" gradientUnits="userSpaceOnUse">
<stop stop-color="#24FDBC" stop-opacity="0"/>
<stop offset="1" stop-color="#24FDBC" stop-opacity="0.65"/>
</linearGradient>
<linearGradient id="paint1_linear_4540_12111" x1="8.89936" y1="17.2092" x2="8.89936" y2="28.0001" gradientUnits="userSpaceOnUse">
<stop stop-color="#24FDBC" stop-opacity="0"/>
<stop offset="1" stop-color="#24FDBC" stop-opacity="0.65"/>
</linearGradient>
<clipPath id="clip0_4540_12111">
<rect width="28" height="28" fill="white" transform="translate(0.5)"/>
</clipPath>
</defs>
</svg>
