<svg width="20" height="20" viewBox="0 0 20 20" fill="none" xmlns="http://www.w3.org/2000/svg">
<path d="M17.1666 15.535L14.0746 12.4431C14.8197 11.3675 15.1925 10.1683 15.1925 8.84634C15.1925 7.98697 15.0257 7.16508 14.692 6.38085C14.3586 5.5965 13.9078 4.92044 13.3399 4.35252C12.772 3.78461 12.096 3.33383 11.3118 3.00035C10.5274 2.66677 9.70556 2.5 8.8462 2.5C7.9869 2.5 7.16502 2.66677 6.3808 3.00035C5.59646 3.33383 4.92041 3.78461 4.3525 4.35252C3.78453 4.92044 3.33382 5.59662 3.00031 6.38085C2.66677 7.16517 2.5 7.98697 2.5 8.84634C2.5 9.70565 2.66677 10.5273 3.00031 11.3117C3.33379 12.0959 3.78453 12.7719 4.3525 13.3398C4.92041 13.9079 5.59658 14.3585 6.3808 14.6922C7.16511 15.0257 7.9869 15.1924 8.8462 15.1924C10.1685 15.1924 11.3674 14.8196 12.4431 14.0746L15.535 17.1575C15.7514 17.3858 16.0215 17.5 16.3462 17.5C16.6587 17.5 16.9293 17.3858 17.1575 17.1575C17.3858 16.9292 17.5 16.6587 17.5 16.3462C17.5001 16.0279 17.3889 15.7574 17.1666 15.535ZM11.6993 11.6992C10.909 12.4895 9.95809 12.8847 8.8462 12.8847C7.73451 12.8847 6.78355 12.4894 5.99324 11.6992C5.20293 10.9089 4.80779 9.95805 4.80779 8.84615C4.80779 7.73444 5.20302 6.78332 5.99324 5.99316C6.78339 5.2028 7.73451 4.80769 8.8462 4.80769C9.95796 4.80769 10.9089 5.20296 11.6993 5.99316C12.4897 6.78332 12.8848 7.73444 12.8848 8.84615C12.8848 9.95805 12.4895 10.9089 11.6993 11.6992Z" fill="#60719A"/>
</svg>
