<svg xmlns="http://www.w3.org/2000/svg" width="108" height="98" viewBox="0 0 166 98" fill="none">
  <g filter="url(#filter0_dd_4338_11002)">
    <path d="M37.1111 24H128.889L142 49L128.889 74H37.1111L24 49L37.1111 24Z" fill="#E2B617"/>
    <path d="M37.1111 24H128.889L142 49L128.889 74H37.1111L24 49L37.1111 24Z" fill="url(#paint0_linear_4338_11002)"/>
    <path d="M24.5646 49L37.4135 24.5H128.587L141.435 49L128.587 73.5H37.4135L24.5646 49Z" stroke="url(#paint1_linear_4338_11002)"/>
    <path d="M24.5646 49L37.4135 24.5H128.587L141.435 49L128.587 73.5H37.4135L24.5646 49Z" stroke="url(#paint2_linear_4338_11002)"/>
  </g>
  <defs>
    <filter id="filter0_dd_4338_11002" x="0" y="0" width="166" height="98" filterUnits="userSpaceOnUse" color-interpolation-filters="sRGB">
      <feFlood flood-opacity="0" result="BackgroundImageFix"/>
      <feColorMatrix in="SourceAlpha" type="matrix" values="0 0 0 0 0 0 0 0 0 0 0 0 0 0 0 0 0 0 127 0" result="hardAlpha"/>
      <feOffset/>
      <feGaussianBlur stdDeviation="12"/>
      <feComposite in2="hardAlpha" operator="out"/>
      <feColorMatrix type="matrix" values="0 0 0 0 0.992157 0 0 0 0 0.243294 0 0 0 0 0.141176 0 0 0 0.35 0"/>
      <feBlend mode="normal" in2="BackgroundImageFix" result="effect1_dropShadow_4338_11002"/>
      <feColorMatrix in="SourceAlpha" type="matrix" values="0 0 0 0 0 0 0 0 0 0 0 0 0 0 0 0 0 0 127 0" result="hardAlpha"/>
      <feOffset/>
      <feGaussianBlur stdDeviation="6"/>
      <feComposite in2="hardAlpha" operator="out"/>
      <feColorMatrix type="matrix" values="0 0 0 0 0.992157 0 0 0 0 0.243294 0 0 0 0 0.141176 0 0 0 0.25 0"/>
      <feBlend mode="normal" in2="effect1_dropShadow_4338_11002" result="effect2_dropShadow_4338_11002"/>
      <feBlend mode="normal" in="SourceGraphic" in2="effect2_dropShadow_4338_11002" result="shape"/>
    </filter>
    <linearGradient id="paint0_linear_4338_11002" x1="151.311" y1="24" x2="151.311" y2="74" gradientUnits="userSpaceOnUse">
      <stop stop-color="#FDCD24" stop-opacity="0"/>
      <stop offset="1" stop-color="#FDCD24" stop-opacity="0.65"/>
    </linearGradient>
    <linearGradient id="paint1_linear_4338_11002" x1="156.177" y1="49" x2="190.64" y2="49" gradientUnits="userSpaceOnUse">
      <stop offset="0.347781" stop-color="#FDCD24" stop-opacity="0"/>
      <stop offset="1" stop-color="#FDCD24"/>
    </linearGradient>
    <linearGradient id="paint2_linear_4338_11002" x1="134.282" y1="49" x2="102.252" y2="49" gradientUnits="userSpaceOnUse">
      <stop stop-color="#FDCD24" stop-opacity="0"/>
      <stop offset="1" stop-color="#FDCD24"/>
    </linearGradient>
  </defs>
</svg>