<svg viewBox="0 0 32 32" xmlns="http://www.w3.org/2000/svg">
<path d="M16 0C7.1776 0 0 7.1776 0 16C0 24.8224 7.1776 32 16 32C24.8225 32 32 24.8224 32 16C32 7.1776 24.8225 0 16 0ZM7.85455 12.897C7.85455 12.3869 8.06206 11.8865 8.42269 11.5257C8.78351 11.1651 9.28291 10.9576 9.79394 10.9576C10.304 10.9576 10.8044 11.1651 11.1651 11.5257C11.5267 11.8865 11.7333 12.3869 11.7333 12.897C11.7333 13.407 11.5267 13.9074 11.1651 14.2681C10.8044 14.6288 10.304 14.8364 9.79394 14.8364C9.28388 14.8364 8.78351 14.6288 8.42269 14.2681C8.06206 13.9074 7.85455 13.407 7.85455 12.897ZM21.9654 21.9654C21.3974 22.5333 20.4764 22.5333 19.9084 21.9654C18.8643 20.9214 17.4764 20.3466 16 20.3466C14.5234 20.3466 13.1356 20.9215 12.0915 21.9654C11.8075 22.2494 11.4352 22.3915 11.0631 22.3915C10.6909 22.3915 10.3185 22.2494 10.0345 21.9654C9.46647 21.3974 9.46647 20.4764 10.0344 19.9084C11.6278 18.315 13.7465 17.4374 15.9999 17.4374C15.9999 17.4374 15.9998 17.4374 16 17.4374C18.2534 17.4374 20.372 18.315 21.9654 19.9084C22.5333 20.4763 22.5333 21.3973 21.9654 21.9654ZM23.5772 14.2681C23.2165 14.6288 22.7161 14.8364 22.2061 14.8364C21.696 14.8364 21.1956 14.6288 20.8348 14.2681C20.4732 13.9074 20.2667 13.407 20.2667 12.897C20.2667 12.3869 20.4732 11.8865 20.8348 11.5257C21.1956 11.1651 21.695 10.9576 22.2061 10.9576C22.7161 10.9576 23.2165 11.1651 23.5772 11.5257C23.9389 11.8865 24.1455 12.3869 24.1455 12.897C24.1455 13.407 23.9388 13.9074 23.5772 14.2681Z"/>
</svg>
