<svg width="52" height="52" viewBox="0 0 52 52" fill="none" xmlns="http://www.w3.org/2000/svg">
<path d="M35.592 9.77879L35.5922 9.77881C35.8258 9.81211 36.0088 9.971 36.0756 10.1721C36.141 10.3716 36.0877 10.5928 35.929 10.7447L31.7821 14.7116L31.3964 15.0806L31.4883 15.6064L32.4675 21.2079L32.4675 21.2082C32.5032 21.4116 32.4197 21.6256 32.2359 21.7567C32.0512 21.8883 31.8006 21.9109 31.5883 21.8017L26.4642 19.1575L26.0056 18.9209L25.5471 19.1575L20.4228 21.8012C20.4226 21.8013 20.4225 21.8013 20.4224 21.8014C20.2122 21.9091 19.9602 21.8895 19.7753 21.7574L19.7745 21.7568C19.5905 21.6257 19.5069 21.4117 19.5426 21.2076L19.5426 21.2076L20.5227 15.6066L20.6148 15.0806L20.2289 14.7115L16.0809 10.7445L16.0806 10.7443C15.9204 10.5911 15.8682 10.37 15.9337 10.1724C16.0003 9.97144 16.1832 9.81229 16.4173 9.77889C16.4173 9.77889 16.4173 9.77888 16.4173 9.77888L22.1485 8.96157L22.6659 8.8878L22.9007 8.42094L25.4642 3.32441L25.4647 3.32345C25.5602 3.13305 25.7661 3 26.0052 3C26.2444 3 26.4502 3.13306 26.5456 3.32332L26.5461 3.32442L29.1097 8.42085L29.3445 8.88769L29.8618 8.96148L35.592 9.77879ZM19.6 26.9236H32.3999C32.7491 26.9236 32.9999 27.1965 32.9999 27.4938V49H19V27.4938C19 27.1965 19.2508 26.9236 19.6 26.9236ZM3 33.7745C3 33.4773 3.25085 33.2043 3.60002 33.2043H13.8V48.9999H3.265C3.10082 48.9999 3 48.8742 3 48.7585V33.7745ZM38.2 49V39.4852H48.3999C48.749 39.4852 48.9999 39.7581 49 40.0554C49 40.0554 49 40.0555 49 40.0555V48.7586C49 48.8743 48.8992 49 48.735 49H38.2Z" fill="#D1D9EB"/>
<path d="M35.592 9.77879L35.5922 9.77881C35.8258 9.81211 36.0088 9.971 36.0756 10.1721C36.141 10.3716 36.0877 10.5928 35.929 10.7447L31.7821 14.7116L31.3964 15.0806L31.4883 15.6064L32.4675 21.2079L32.4675 21.2082C32.5032 21.4116 32.4197 21.6256 32.2359 21.7567C32.0512 21.8883 31.8006 21.9109 31.5883 21.8017L26.4642 19.1575L26.0056 18.9209L25.5471 19.1575L20.4228 21.8012C20.4226 21.8013 20.4225 21.8013 20.4224 21.8014C20.2122 21.9091 19.9602 21.8895 19.7753 21.7574L19.7745 21.7568C19.5905 21.6257 19.5069 21.4117 19.5426 21.2076L19.5426 21.2076L20.5227 15.6066L20.6148 15.0806L20.2289 14.7115L16.0809 10.7445L16.0806 10.7443C15.9204 10.5911 15.8682 10.37 15.9337 10.1724C16.0003 9.97144 16.1832 9.81229 16.4173 9.77889C16.4173 9.77889 16.4173 9.77888 16.4173 9.77888L22.1485 8.96157L22.6659 8.8878L22.9007 8.42094L25.4642 3.32441L25.4647 3.32345C25.5602 3.13305 25.7661 3 26.0052 3C26.2444 3 26.4502 3.13306 26.5456 3.32332L26.5461 3.32442L29.1097 8.42085L29.3445 8.88769L29.8618 8.96148L35.592 9.77879ZM19.6 26.9236H32.3999C32.7491 26.9236 32.9999 27.1965 32.9999 27.4938V49H19V27.4938C19 27.1965 19.2508 26.9236 19.6 26.9236ZM3 33.7745C3 33.4773 3.25085 33.2043 3.60002 33.2043H13.8V48.9999H3.265C3.10082 48.9999 3 48.8742 3 48.7585V33.7745ZM38.2 49V39.4852H48.3999C48.749 39.4852 48.9999 39.7581 49 40.0554C49 40.0554 49 40.0555 49 40.0555V48.7586C49 48.8743 48.8992 49 48.735 49H38.2Z" fill="url(#paint0_linear_2358_3674)"/>
<path d="M35.592 9.77879L35.5922 9.77881C35.8258 9.81211 36.0088 9.971 36.0756 10.1721C36.141 10.3716 36.0877 10.5928 35.929 10.7447L31.7821 14.7116L31.3964 15.0806L31.4883 15.6064L32.4675 21.2079L32.4675 21.2082C32.5032 21.4116 32.4197 21.6256 32.2359 21.7567C32.0512 21.8883 31.8006 21.9109 31.5883 21.8017L26.4642 19.1575L26.0056 18.9209L25.5471 19.1575L20.4228 21.8012C20.4226 21.8013 20.4225 21.8013 20.4224 21.8014C20.2122 21.9091 19.9602 21.8895 19.7753 21.7574L19.7745 21.7568C19.5905 21.6257 19.5069 21.4117 19.5426 21.2076L19.5426 21.2076L20.5227 15.6066L20.6148 15.0806L20.2289 14.7115L16.0809 10.7445L16.0806 10.7443C15.9204 10.5911 15.8682 10.37 15.9337 10.1724C16.0003 9.97144 16.1832 9.81229 16.4173 9.77889C16.4173 9.77889 16.4173 9.77888 16.4173 9.77888L22.1485 8.96157L22.6659 8.8878L22.9007 8.42094L25.4642 3.32441L25.4647 3.32345C25.5602 3.13305 25.7661 3 26.0052 3C26.2444 3 26.4502 3.13306 26.5456 3.32332L26.5461 3.32442L29.1097 8.42085L29.3445 8.88769L29.8618 8.96148L35.592 9.77879ZM19.6 26.9236H32.3999C32.7491 26.9236 32.9999 27.1965 32.9999 27.4938V49H19V27.4938C19 27.1965 19.2508 26.9236 19.6 26.9236ZM3 33.7745C3 33.4773 3.25085 33.2043 3.60002 33.2043H13.8V48.9999H3.265C3.10082 48.9999 3 48.8742 3 48.7585V33.7745ZM38.2 49V39.4852H48.3999C48.749 39.4852 48.9999 39.7581 49 40.0554C49 40.0554 49 40.0555 49 40.0555V48.7586C49 48.8743 48.8992 49 48.735 49H38.2Z" stroke="#EDF2FF" stroke-width="2"/>
<path d="M35.592 9.77879L35.5922 9.77881C35.8258 9.81211 36.0088 9.971 36.0756 10.1721C36.141 10.3716 36.0877 10.5928 35.929 10.7447L31.7821 14.7116L31.3964 15.0806L31.4883 15.6064L32.4675 21.2079L32.4675 21.2082C32.5032 21.4116 32.4197 21.6256 32.2359 21.7567C32.0512 21.8883 31.8006 21.9109 31.5883 21.8017L26.4642 19.1575L26.0056 18.9209L25.5471 19.1575L20.4228 21.8012C20.4226 21.8013 20.4225 21.8013 20.4224 21.8014C20.2122 21.9091 19.9602 21.8895 19.7753 21.7574L19.7745 21.7568C19.5905 21.6257 19.5069 21.4117 19.5426 21.2076L19.5426 21.2076L20.5227 15.6066L20.6148 15.0806L20.2289 14.7115L16.0809 10.7445L16.0806 10.7443C15.9204 10.5911 15.8682 10.37 15.9337 10.1724C16.0003 9.97144 16.1832 9.81229 16.4173 9.77889C16.4173 9.77889 16.4173 9.77888 16.4173 9.77888L22.1485 8.96157L22.6659 8.8878L22.9007 8.42094L25.4642 3.32441L25.4647 3.32345C25.5602 3.13305 25.7661 3 26.0052 3C26.2444 3 26.4502 3.13306 26.5456 3.32332L26.5461 3.32442L29.1097 8.42085L29.3445 8.88769L29.8618 8.96148L35.592 9.77879ZM19.6 26.9236H32.3999C32.7491 26.9236 32.9999 27.1965 32.9999 27.4938V49H19V27.4938C19 27.1965 19.2508 26.9236 19.6 26.9236ZM3 33.7745C3 33.4773 3.25085 33.2043 3.60002 33.2043H13.8V48.9999H3.265C3.10082 48.9999 3 48.8742 3 48.7585V33.7745ZM38.2 49V39.4852H48.3999C48.749 39.4852 48.9999 39.7581 49 40.0554C49 40.0554 49 40.0555 49 40.0555V48.7586C49 48.8743 48.8992 49 48.735 49H38.2Z" stroke="url(#paint1_linear_2358_3674)" stroke-width="2"/>
<defs>
<linearGradient id="paint0_linear_2358_3674" x1="26" y1="50.3429" x2="26" y2="1.65716" gradientUnits="userSpaceOnUse">
<stop stop-color="#1C2230" stop-opacity="0"/>
<stop offset="1" stop-color="#1C2230" stop-opacity="0.35"/>
</linearGradient>
<linearGradient id="paint1_linear_2358_3674" x1="26" y1="50.3429" x2="26" y2="1.65716" gradientUnits="userSpaceOnUse">
<stop stop-color="#1C2230" stop-opacity="0"/>
<stop offset="1" stop-color="#1C2230" stop-opacity="0.35"/>
</linearGradient>
</defs>
</svg>
