<svg width="52" height="52" viewBox="0 0 52 52" fill="none" xmlns="http://www.w3.org/2000/svg">
<path d="M23.4318 4.25705L23.4316 4.25728L20.8994 7.58822C20.8991 7.58866 20.8987 7.5891 20.8984 7.58953C20.3911 8.25954 19.5353 8.44629 18.8286 8.22583C18.8283 8.22574 18.828 8.22564 18.8277 8.22555L14.7306 6.95359C14.7306 6.95358 14.7305 6.95356 14.7305 6.95355C13.7635 6.65354 12.7085 6.81817 11.894 7.38443L11.8934 7.38483C11.0493 7.97076 10.5684 8.9026 10.5684 9.88093V14.0022C10.5684 14.8587 9.94168 15.4422 9.31456 15.6409L9.30897 15.6427L9.30896 15.6427L5.21025 16.9151C5.21016 16.9152 5.21007 16.9152 5.20999 16.9152C4.22419 17.2217 3.47182 17.9632 3.15908 18.8846C2.83992 19.8254 3.00518 20.856 3.61778 21.6621L3.61811 21.6626L6.14787 24.9954C6.14825 24.9959 6.14863 24.9964 6.14901 24.9969C6.60224 25.5914 6.60224 26.4086 6.14901 27.0031C6.14863 27.0036 6.14825 27.0041 6.14787 27.0046L3.61811 30.3374L3.61778 30.3379C3.0052 31.144 2.83994 32.1745 3.15904 33.1153L23.4318 4.25705ZM23.4318 4.25705C24.0239 3.47771 24.9757 3 26 3C27.0243 3 27.9761 3.47771 28.5682 4.25704L28.5684 4.25728L31.1006 7.58822C31.1009 7.58866 31.1013 7.5891 31.1016 7.58953C31.6089 8.25954 32.4647 8.44629 33.1714 8.22583C33.1717 8.22574 33.172 8.22564 33.1723 8.22555L37.2694 6.95359C37.2694 6.95358 37.2695 6.95356 37.2695 6.95355C38.2365 6.65355 39.2915 6.81817 40.106 7.38443L40.1066 7.38483C40.9507 7.97076 41.4316 8.9026 41.4316 9.88093V14.0022C41.4316 14.8587 42.0583 15.4422 42.6854 15.6409L42.691 15.6427L46.7897 16.9151C46.7898 16.9152 46.7899 16.9152 46.79 16.9152C47.7758 17.2217 48.5282 17.9632 48.8409 18.8846C49.1601 19.8254 48.9948 20.856 48.3822 21.6621L48.3819 21.6626L45.8521 24.9954C45.8517 24.996 45.8513 24.9965 45.8509 24.9971C45.3978 25.5915 45.3978 26.4085 45.8509 27.0029C45.8513 27.0035 45.8517 27.004 45.8521 27.0046L48.3819 30.3374L48.3822 30.3379C48.9948 31.144 49.1601 32.1746 48.8409 33.1154C48.5282 34.0368 47.7757 34.7785 46.7897 35.0849L42.691 36.3573L42.6854 36.3591C42.0583 36.5578 41.4316 37.1413 41.4316 37.9978V42.1191C41.4316 43.0974 40.9507 44.0292 40.1066 44.6152L40.106 44.6156C39.2915 45.1819 38.2364 45.3465 37.2694 45.0464L33.1723 43.7744C32.4652 43.5535 31.6086 43.7403 31.1012 44.411C31.101 44.4113 31.1008 44.4115 31.1006 44.4118L28.5684 47.7427L28.5682 47.743C27.9761 48.5223 27.0243 49 26 49C24.9757 49 24.0239 48.5223 23.4318 47.743L23.4316 47.7427L20.8994 44.4118C20.8992 44.4115 20.899 44.4113 20.8988 44.411C20.3914 43.7403 19.5348 43.5535 18.8277 43.7744L14.7306 45.0464C13.7636 45.3465 12.7085 45.1819 11.894 44.6156L11.8934 44.6152C11.0493 44.0292 10.5684 43.0974 10.5684 42.1191V37.9978C10.5684 37.1413 9.94169 36.5578 9.31456 36.3591L9.30896 36.3573M23.4318 4.25705L9.30896 36.3573M9.30896 36.3573L5.21025 35.0849M9.30896 36.3573L5.21025 35.0849M5.21025 35.0849C4.22432 34.7785 3.47185 34.0369 3.15908 33.1154L5.21025 35.0849ZM35.1194 29.5102L35.1188 29.5096C33.4201 27.8138 30.667 27.8138 28.9683 29.5096L28.9677 29.5102C27.2711 31.2068 27.2711 33.9631 28.9677 35.6597C30.6665 37.3585 33.4206 37.3585 35.1194 35.6597C36.816 33.9631 36.816 31.2068 35.1194 29.5102ZM16.8806 22.4898L16.8812 22.4904C18.5799 24.1862 21.333 24.1862 23.0317 22.4904L23.0323 22.4898C24.7289 20.7932 24.7289 18.0369 23.0323 16.3403C21.3335 14.6415 18.5794 14.6415 16.8806 16.3403C15.184 18.0369 15.184 20.7932 16.8806 22.4898ZM32.0017 16.2153L16.2153 32.0017C15.1706 33.0464 15.1706 34.74 16.2153 35.7847C17.26 36.8294 18.9536 36.8294 19.9983 35.7847L35.7847 19.9983C36.8294 18.9536 36.8294 17.26 35.7847 16.2153C34.74 15.1706 33.0464 15.1706 32.0017 16.2153Z" fill="#D1D9EB"/>
<path d="M23.4318 4.25705L23.4316 4.25728L20.8994 7.58822C20.8991 7.58866 20.8987 7.5891 20.8984 7.58953C20.3911 8.25954 19.5353 8.44629 18.8286 8.22583C18.8283 8.22574 18.828 8.22564 18.8277 8.22555L14.7306 6.95359C14.7306 6.95358 14.7305 6.95356 14.7305 6.95355C13.7635 6.65354 12.7085 6.81817 11.894 7.38443L11.8934 7.38483C11.0493 7.97076 10.5684 8.9026 10.5684 9.88093V14.0022C10.5684 14.8587 9.94168 15.4422 9.31456 15.6409L9.30897 15.6427L9.30896 15.6427L5.21025 16.9151C5.21016 16.9152 5.21007 16.9152 5.20999 16.9152C4.22419 17.2217 3.47182 17.9632 3.15908 18.8846C2.83992 19.8254 3.00518 20.856 3.61778 21.6621L3.61811 21.6626L6.14787 24.9954C6.14825 24.9959 6.14863 24.9964 6.14901 24.9969C6.60224 25.5914 6.60224 26.4086 6.14901 27.0031C6.14863 27.0036 6.14825 27.0041 6.14787 27.0046L3.61811 30.3374L3.61778 30.3379C3.0052 31.144 2.83994 32.1745 3.15904 33.1153L23.4318 4.25705ZM23.4318 4.25705C24.0239 3.47771 24.9757 3 26 3C27.0243 3 27.9761 3.47771 28.5682 4.25704L28.5684 4.25728L31.1006 7.58822C31.1009 7.58866 31.1013 7.5891 31.1016 7.58953C31.6089 8.25954 32.4647 8.44629 33.1714 8.22583C33.1717 8.22574 33.172 8.22564 33.1723 8.22555L37.2694 6.95359C37.2694 6.95358 37.2695 6.95356 37.2695 6.95355C38.2365 6.65355 39.2915 6.81817 40.106 7.38443L40.1066 7.38483C40.9507 7.97076 41.4316 8.9026 41.4316 9.88093V14.0022C41.4316 14.8587 42.0583 15.4422 42.6854 15.6409L42.691 15.6427L46.7897 16.9151C46.7898 16.9152 46.7899 16.9152 46.79 16.9152C47.7758 17.2217 48.5282 17.9632 48.8409 18.8846C49.1601 19.8254 48.9948 20.856 48.3822 21.6621L48.3819 21.6626L45.8521 24.9954C45.8517 24.996 45.8513 24.9965 45.8509 24.9971C45.3978 25.5915 45.3978 26.4085 45.8509 27.0029C45.8513 27.0035 45.8517 27.004 45.8521 27.0046L48.3819 30.3374L48.3822 30.3379C48.9948 31.144 49.1601 32.1746 48.8409 33.1154C48.5282 34.0368 47.7757 34.7785 46.7897 35.0849L42.691 36.3573L42.6854 36.3591C42.0583 36.5578 41.4316 37.1413 41.4316 37.9978V42.1191C41.4316 43.0974 40.9507 44.0292 40.1066 44.6152L40.106 44.6156C39.2915 45.1819 38.2364 45.3465 37.2694 45.0464L33.1723 43.7744C32.4652 43.5535 31.6086 43.7403 31.1012 44.411C31.101 44.4113 31.1008 44.4115 31.1006 44.4118L28.5684 47.7427L28.5682 47.743C27.9761 48.5223 27.0243 49 26 49C24.9757 49 24.0239 48.5223 23.4318 47.743L23.4316 47.7427L20.8994 44.4118C20.8992 44.4115 20.899 44.4113 20.8988 44.411C20.3914 43.7403 19.5348 43.5535 18.8277 43.7744L14.7306 45.0464C13.7636 45.3465 12.7085 45.1819 11.894 44.6156L11.8934 44.6152C11.0493 44.0292 10.5684 43.0974 10.5684 42.1191V37.9978C10.5684 37.1413 9.94169 36.5578 9.31456 36.3591L9.30896 36.3573M23.4318 4.25705L9.30896 36.3573M9.30896 36.3573L5.21025 35.0849M9.30896 36.3573L5.21025 35.0849M5.21025 35.0849C4.22432 34.7785 3.47185 34.0369 3.15908 33.1154L5.21025 35.0849ZM35.1194 29.5102L35.1188 29.5096C33.4201 27.8138 30.667 27.8138 28.9683 29.5096L28.9677 29.5102C27.2711 31.2068 27.2711 33.9631 28.9677 35.6597C30.6665 37.3585 33.4206 37.3585 35.1194 35.6597C36.816 33.9631 36.816 31.2068 35.1194 29.5102ZM16.8806 22.4898L16.8812 22.4904C18.5799 24.1862 21.333 24.1862 23.0317 22.4904L23.0323 22.4898C24.7289 20.7932 24.7289 18.0369 23.0323 16.3403C21.3335 14.6415 18.5794 14.6415 16.8806 16.3403C15.184 18.0369 15.184 20.7932 16.8806 22.4898ZM32.0017 16.2153L16.2153 32.0017C15.1706 33.0464 15.1706 34.74 16.2153 35.7847C17.26 36.8294 18.9536 36.8294 19.9983 35.7847L35.7847 19.9983C36.8294 18.9536 36.8294 17.26 35.7847 16.2153C34.74 15.1706 33.0464 15.1706 32.0017 16.2153Z" fill="url(#paint0_linear_2358_3629)"/>
<path d="M23.4318 4.25705L23.4316 4.25728L20.8994 7.58822C20.8991 7.58866 20.8987 7.5891 20.8984 7.58953C20.3911 8.25954 19.5353 8.44629 18.8286 8.22583C18.8283 8.22574 18.828 8.22564 18.8277 8.22555L14.7306 6.95359C14.7306 6.95358 14.7305 6.95356 14.7305 6.95355C13.7635 6.65354 12.7085 6.81817 11.894 7.38443L11.8934 7.38483C11.0493 7.97076 10.5684 8.9026 10.5684 9.88093V14.0022C10.5684 14.8587 9.94168 15.4422 9.31456 15.6409L9.30897 15.6427L9.30896 15.6427L5.21025 16.9151C5.21016 16.9152 5.21007 16.9152 5.20999 16.9152C4.22419 17.2217 3.47182 17.9632 3.15908 18.8846C2.83992 19.8254 3.00518 20.856 3.61778 21.6621L3.61811 21.6626L6.14787 24.9954C6.14825 24.9959 6.14863 24.9964 6.14901 24.9969C6.60224 25.5914 6.60224 26.4086 6.14901 27.0031C6.14863 27.0036 6.14825 27.0041 6.14787 27.0046L3.61811 30.3374L3.61778 30.3379C3.0052 31.144 2.83994 32.1745 3.15904 33.1153L23.4318 4.25705ZM23.4318 4.25705C24.0239 3.47771 24.9757 3 26 3C27.0243 3 27.9761 3.47771 28.5682 4.25704L28.5684 4.25728L31.1006 7.58822C31.1009 7.58866 31.1013 7.5891 31.1016 7.58953C31.6089 8.25954 32.4647 8.44629 33.1714 8.22583C33.1717 8.22574 33.172 8.22564 33.1723 8.22555L37.2694 6.95359C37.2694 6.95358 37.2695 6.95356 37.2695 6.95355C38.2365 6.65355 39.2915 6.81817 40.106 7.38443L40.1066 7.38483C40.9507 7.97076 41.4316 8.9026 41.4316 9.88093V14.0022C41.4316 14.8587 42.0583 15.4422 42.6854 15.6409L42.691 15.6427L46.7897 16.9151C46.7898 16.9152 46.7899 16.9152 46.79 16.9152C47.7758 17.2217 48.5282 17.9632 48.8409 18.8846C49.1601 19.8254 48.9948 20.856 48.3822 21.6621L48.3819 21.6626L45.8521 24.9954C45.8517 24.996 45.8513 24.9965 45.8509 24.9971C45.3978 25.5915 45.3978 26.4085 45.8509 27.0029C45.8513 27.0035 45.8517 27.004 45.8521 27.0046L48.3819 30.3374L48.3822 30.3379C48.9948 31.144 49.1601 32.1746 48.8409 33.1154C48.5282 34.0368 47.7757 34.7785 46.7897 35.0849L42.691 36.3573L42.6854 36.3591C42.0583 36.5578 41.4316 37.1413 41.4316 37.9978V42.1191C41.4316 43.0974 40.9507 44.0292 40.1066 44.6152L40.106 44.6156C39.2915 45.1819 38.2364 45.3465 37.2694 45.0464L33.1723 43.7744C32.4652 43.5535 31.6086 43.7403 31.1012 44.411C31.101 44.4113 31.1008 44.4115 31.1006 44.4118L28.5684 47.7427L28.5682 47.743C27.9761 48.5223 27.0243 49 26 49C24.9757 49 24.0239 48.5223 23.4318 47.743L23.4316 47.7427L20.8994 44.4118C20.8992 44.4115 20.899 44.4113 20.8988 44.411C20.3914 43.7403 19.5348 43.5535 18.8277 43.7744L14.7306 45.0464C13.7636 45.3465 12.7085 45.1819 11.894 44.6156L11.8934 44.6152C11.0493 44.0292 10.5684 43.0974 10.5684 42.1191V37.9978C10.5684 37.1413 9.94169 36.5578 9.31456 36.3591L9.30896 36.3573M23.4318 4.25705L9.30896 36.3573M9.30896 36.3573L5.21025 35.0849M9.30896 36.3573L5.21025 35.0849M5.21025 35.0849C4.22432 34.7785 3.47185 34.0369 3.15908 33.1154L5.21025 35.0849ZM35.1194 29.5102L35.1188 29.5096C33.4201 27.8138 30.667 27.8138 28.9683 29.5096L28.9677 29.5102C27.2711 31.2068 27.2711 33.9631 28.9677 35.6597C30.6665 37.3585 33.4206 37.3585 35.1194 35.6597C36.816 33.9631 36.816 31.2068 35.1194 29.5102ZM16.8806 22.4898L16.8812 22.4904C18.5799 24.1862 21.333 24.1862 23.0317 22.4904L23.0323 22.4898C24.7289 20.7932 24.7289 18.0369 23.0323 16.3403C21.3335 14.6415 18.5794 14.6415 16.8806 16.3403C15.184 18.0369 15.184 20.7932 16.8806 22.4898ZM32.0017 16.2153L16.2153 32.0017C15.1706 33.0464 15.1706 34.74 16.2153 35.7847C17.26 36.8294 18.9536 36.8294 19.9983 35.7847L35.7847 19.9983C36.8294 18.9536 36.8294 17.26 35.7847 16.2153C34.74 15.1706 33.0464 15.1706 32.0017 16.2153Z" stroke="#EDF2FF" stroke-width="2"/>
<path d="M23.4318 4.25705L23.4316 4.25728L20.8994 7.58822C20.8991 7.58866 20.8987 7.5891 20.8984 7.58953C20.3911 8.25954 19.5353 8.44629 18.8286 8.22583C18.8283 8.22574 18.828 8.22564 18.8277 8.22555L14.7306 6.95359C14.7306 6.95358 14.7305 6.95356 14.7305 6.95355C13.7635 6.65354 12.7085 6.81817 11.894 7.38443L11.8934 7.38483C11.0493 7.97076 10.5684 8.9026 10.5684 9.88093V14.0022C10.5684 14.8587 9.94168 15.4422 9.31456 15.6409L9.30897 15.6427L9.30896 15.6427L5.21025 16.9151C5.21016 16.9152 5.21007 16.9152 5.20999 16.9152C4.22419 17.2217 3.47182 17.9632 3.15908 18.8846C2.83992 19.8254 3.00518 20.856 3.61778 21.6621L3.61811 21.6626L6.14787 24.9954C6.14825 24.9959 6.14863 24.9964 6.14901 24.9969C6.60224 25.5914 6.60224 26.4086 6.14901 27.0031C6.14863 27.0036 6.14825 27.0041 6.14787 27.0046L3.61811 30.3374L3.61778 30.3379C3.0052 31.144 2.83994 32.1745 3.15904 33.1153L23.4318 4.25705ZM23.4318 4.25705C24.0239 3.47771 24.9757 3 26 3C27.0243 3 27.9761 3.47771 28.5682 4.25704L28.5684 4.25728L31.1006 7.58822C31.1009 7.58866 31.1013 7.5891 31.1016 7.58953C31.6089 8.25954 32.4647 8.44629 33.1714 8.22583C33.1717 8.22574 33.172 8.22564 33.1723 8.22555L37.2694 6.95359C37.2694 6.95358 37.2695 6.95356 37.2695 6.95355C38.2365 6.65355 39.2915 6.81817 40.106 7.38443L40.1066 7.38483C40.9507 7.97076 41.4316 8.9026 41.4316 9.88093V14.0022C41.4316 14.8587 42.0583 15.4422 42.6854 15.6409L42.691 15.6427L46.7897 16.9151C46.7898 16.9152 46.7899 16.9152 46.79 16.9152C47.7758 17.2217 48.5282 17.9632 48.8409 18.8846C49.1601 19.8254 48.9948 20.856 48.3822 21.6621L48.3819 21.6626L45.8521 24.9954C45.8517 24.996 45.8513 24.9965 45.8509 24.9971C45.3978 25.5915 45.3978 26.4085 45.8509 27.0029C45.8513 27.0035 45.8517 27.004 45.8521 27.0046L48.3819 30.3374L48.3822 30.3379C48.9948 31.144 49.1601 32.1746 48.8409 33.1154C48.5282 34.0368 47.7757 34.7785 46.7897 35.0849L42.691 36.3573L42.6854 36.3591C42.0583 36.5578 41.4316 37.1413 41.4316 37.9978V42.1191C41.4316 43.0974 40.9507 44.0292 40.1066 44.6152L40.106 44.6156C39.2915 45.1819 38.2364 45.3465 37.2694 45.0464L33.1723 43.7744C32.4652 43.5535 31.6086 43.7403 31.1012 44.411C31.101 44.4113 31.1008 44.4115 31.1006 44.4118L28.5684 47.7427L28.5682 47.743C27.9761 48.5223 27.0243 49 26 49C24.9757 49 24.0239 48.5223 23.4318 47.743L23.4316 47.7427L20.8994 44.4118C20.8992 44.4115 20.899 44.4113 20.8988 44.411C20.3914 43.7403 19.5348 43.5535 18.8277 43.7744L14.7306 45.0464C13.7636 45.3465 12.7085 45.1819 11.894 44.6156L11.8934 44.6152C11.0493 44.0292 10.5684 43.0974 10.5684 42.1191V37.9978C10.5684 37.1413 9.94169 36.5578 9.31456 36.3591L9.30896 36.3573M23.4318 4.25705L9.30896 36.3573M9.30896 36.3573L5.21025 35.0849M9.30896 36.3573L5.21025 35.0849M5.21025 35.0849C4.22432 34.7785 3.47185 34.0369 3.15908 33.1154L5.21025 35.0849ZM35.1194 29.5102L35.1188 29.5096C33.4201 27.8138 30.667 27.8138 28.9683 29.5096L28.9677 29.5102C27.2711 31.2068 27.2711 33.9631 28.9677 35.6597C30.6665 37.3585 33.4206 37.3585 35.1194 35.6597C36.816 33.9631 36.816 31.2068 35.1194 29.5102ZM16.8806 22.4898L16.8812 22.4904C18.5799 24.1862 21.333 24.1862 23.0317 22.4904L23.0323 22.4898C24.7289 20.7932 24.7289 18.0369 23.0323 16.3403C21.3335 14.6415 18.5794 14.6415 16.8806 16.3403C15.184 18.0369 15.184 20.7932 16.8806 22.4898ZM32.0017 16.2153L16.2153 32.0017C15.1706 33.0464 15.1706 34.74 16.2153 35.7847C17.26 36.8294 18.9536 36.8294 19.9983 35.7847L35.7847 19.9983C36.8294 18.9536 36.8294 17.26 35.7847 16.2153C34.74 15.1706 33.0464 15.1706 32.0017 16.2153Z" stroke="url(#paint1_linear_2358_3629)" stroke-width="2"/>
<defs>
<linearGradient id="paint0_linear_2358_3629" x1="26" y1="50.3429" x2="26" y2="1.65716" gradientUnits="userSpaceOnUse">
<stop stop-color="#1C2230" stop-opacity="0"/>
<stop offset="1" stop-color="#1C2230" stop-opacity="0.35"/>
</linearGradient>
<linearGradient id="paint1_linear_2358_3629" x1="26" y1="50.3429" x2="26" y2="1.65716" gradientUnits="userSpaceOnUse">
<stop stop-color="#1C2230" stop-opacity="0"/>
<stop offset="1" stop-color="#1C2230" stop-opacity="0.35"/>
</linearGradient>
</defs>
</svg>
