<svg width="52" height="52" viewBox="0 0 52 52" fill="none" xmlns="http://www.w3.org/2000/svg">
<path d="M48.3426 20.1564L38.2735 27.5318L37.3761 28.1891L36.8177 27.227L26.3555 9.19876L26.3553 9.19844C26.2021 8.9343 25.7985 8.9333 25.6443 9.19876C25.6443 9.19878 25.6443 9.1988 25.6443 9.19882L15.1821 27.227L14.6238 28.1891L13.7263 27.5318L3.65698 20.1563C3.65694 20.1562 3.65691 20.1562 3.65687 20.1562C3.50183 20.0427 3.32885 20.0479 3.17882 20.147C3.02997 20.2453 2.97185 20.3881 3.01418 20.5527C3.0142 20.5528 3.01422 20.5529 3.01424 20.553L6.66381 34.6921H14.7512C16.0651 34.6921 17.1573 35.7457 17.1573 37.0767C17.1573 38.4078 16.0651 39.4614 14.7512 39.4614H7.89437L8.73211 42.7067L48.3426 20.1564ZM48.3426 20.1564C48.4971 20.0434 48.6711 20.0481 48.8217 20.1473C48.97 20.245 49.0283 20.3867 48.9857 20.5525L48.3426 20.1564ZM48.9856 20.5528L45.336 34.6921H37.2486C35.9347 34.6921 34.8425 35.7457 34.8425 37.0767C34.8425 38.4078 35.9347 39.4614 37.2486 39.4614H44.1055L43.2677 42.7067C43.2257 42.8692 43.0695 43 42.8729 43H9.12689C8.93046 43 8.77429 42.8693 8.73219 42.7069L48.9856 20.5528ZM23.9405 38.3097L23.9405 38.3098C24.8795 39.8504 27.1278 39.8389 28.0594 38.3097C28.0594 38.3096 28.0594 38.3096 28.0594 38.3095L32.2776 31.3864C32.7395 30.6284 32.7395 29.6785 32.2776 28.9205L28.0594 21.9972L28.0593 21.9971C27.1203 20.4565 24.872 20.468 23.9405 21.9972C23.9404 21.9973 23.9404 21.9973 23.9404 21.9973L19.7222 28.9205C19.2603 29.6785 19.2603 30.6284 19.7222 31.3864L23.9405 38.3097ZM39.7314 14.6974L39.7315 14.6972C39.8334 14.5633 39.9869 14.5124 40.1533 14.5496C40.3189 14.5866 40.428 14.6944 40.4596 14.8499C40.4596 14.8499 40.4597 14.85 40.4597 14.8501L41.3699 19.3328L38.8561 21.1743L37.1013 18.1507L39.7314 14.6974ZM25.9999 32.464L24.5921 30.1534L25.9999 27.8429L27.4077 30.1534L25.9999 32.464ZM12.2687 14.6977L14.8985 18.1507L13.1436 21.1743L10.6299 19.3328L11.5401 14.8501C11.5718 14.6942 11.6809 14.5865 11.8462 14.5496C12.0121 14.5125 12.166 14.5631 12.2686 14.6976C12.2686 14.6977 12.2686 14.6977 12.2687 14.6977Z" fill="#D1D9EB"/>
<path d="M48.3426 20.1564L38.2735 27.5318L37.3761 28.1891L36.8177 27.227L26.3555 9.19876L26.3553 9.19844C26.2021 8.9343 25.7985 8.9333 25.6443 9.19876C25.6443 9.19878 25.6443 9.1988 25.6443 9.19882L15.1821 27.227L14.6238 28.1891L13.7263 27.5318L3.65698 20.1563C3.65694 20.1562 3.65691 20.1562 3.65687 20.1562C3.50183 20.0427 3.32885 20.0479 3.17882 20.147C3.02997 20.2453 2.97185 20.3881 3.01418 20.5527C3.0142 20.5528 3.01422 20.5529 3.01424 20.553L6.66381 34.6921H14.7512C16.0651 34.6921 17.1573 35.7457 17.1573 37.0767C17.1573 38.4078 16.0651 39.4614 14.7512 39.4614H7.89437L8.73211 42.7067L48.3426 20.1564ZM48.3426 20.1564C48.4971 20.0434 48.6711 20.0481 48.8217 20.1473C48.97 20.245 49.0283 20.3867 48.9857 20.5525L48.3426 20.1564ZM48.9856 20.5528L45.336 34.6921H37.2486C35.9347 34.6921 34.8425 35.7457 34.8425 37.0767C34.8425 38.4078 35.9347 39.4614 37.2486 39.4614H44.1055L43.2677 42.7067C43.2257 42.8692 43.0695 43 42.8729 43H9.12689C8.93046 43 8.77429 42.8693 8.73219 42.7069L48.9856 20.5528ZM23.9405 38.3097L23.9405 38.3098C24.8795 39.8504 27.1278 39.8389 28.0594 38.3097C28.0594 38.3096 28.0594 38.3096 28.0594 38.3095L32.2776 31.3864C32.7395 30.6284 32.7395 29.6785 32.2776 28.9205L28.0594 21.9972L28.0593 21.9971C27.1203 20.4565 24.872 20.468 23.9405 21.9972C23.9404 21.9973 23.9404 21.9973 23.9404 21.9973L19.7222 28.9205C19.2603 29.6785 19.2603 30.6284 19.7222 31.3864L23.9405 38.3097ZM39.7314 14.6974L39.7315 14.6972C39.8334 14.5633 39.9869 14.5124 40.1533 14.5496C40.3189 14.5866 40.428 14.6944 40.4596 14.8499C40.4596 14.8499 40.4597 14.85 40.4597 14.8501L41.3699 19.3328L38.8561 21.1743L37.1013 18.1507L39.7314 14.6974ZM25.9999 32.464L24.5921 30.1534L25.9999 27.8429L27.4077 30.1534L25.9999 32.464ZM12.2687 14.6977L14.8985 18.1507L13.1436 21.1743L10.6299 19.3328L11.5401 14.8501C11.5718 14.6942 11.6809 14.5865 11.8462 14.5496C12.0121 14.5125 12.166 14.5631 12.2686 14.6976C12.2686 14.6977 12.2686 14.6977 12.2687 14.6977Z" fill="url(#paint0_linear_2358_3706)"/>
<path d="M48.3426 20.1564L38.2735 27.5318L37.3761 28.1891L36.8177 27.227L26.3555 9.19876L26.3553 9.19844C26.2021 8.9343 25.7985 8.9333 25.6443 9.19876C25.6443 9.19878 25.6443 9.1988 25.6443 9.19882L15.1821 27.227L14.6238 28.1891L13.7263 27.5318L3.65698 20.1563C3.65694 20.1562 3.65691 20.1562 3.65687 20.1562C3.50183 20.0427 3.32885 20.0479 3.17882 20.147C3.02997 20.2453 2.97185 20.3881 3.01418 20.5527C3.0142 20.5528 3.01422 20.5529 3.01424 20.553L6.66381 34.6921H14.7512C16.0651 34.6921 17.1573 35.7457 17.1573 37.0767C17.1573 38.4078 16.0651 39.4614 14.7512 39.4614H7.89437L8.73211 42.7067L48.3426 20.1564ZM48.3426 20.1564C48.4971 20.0434 48.6711 20.0481 48.8217 20.1473C48.97 20.245 49.0283 20.3867 48.9857 20.5525L48.3426 20.1564ZM48.9856 20.5528L45.336 34.6921H37.2486C35.9347 34.6921 34.8425 35.7457 34.8425 37.0767C34.8425 38.4078 35.9347 39.4614 37.2486 39.4614H44.1055L43.2677 42.7067C43.2257 42.8692 43.0695 43 42.8729 43H9.12689C8.93046 43 8.77429 42.8693 8.73219 42.7069L48.9856 20.5528ZM23.9405 38.3097L23.9405 38.3098C24.8795 39.8504 27.1278 39.8389 28.0594 38.3097C28.0594 38.3096 28.0594 38.3096 28.0594 38.3095L32.2776 31.3864C32.7395 30.6284 32.7395 29.6785 32.2776 28.9205L28.0594 21.9972L28.0593 21.9971C27.1203 20.4565 24.872 20.468 23.9405 21.9972C23.9404 21.9973 23.9404 21.9973 23.9404 21.9973L19.7222 28.9205C19.2603 29.6785 19.2603 30.6284 19.7222 31.3864L23.9405 38.3097ZM39.7314 14.6974L39.7315 14.6972C39.8334 14.5633 39.9869 14.5124 40.1533 14.5496C40.3189 14.5866 40.428 14.6944 40.4596 14.8499C40.4596 14.8499 40.4597 14.85 40.4597 14.8501L41.3699 19.3328L38.8561 21.1743L37.1013 18.1507L39.7314 14.6974ZM25.9999 32.464L24.5921 30.1534L25.9999 27.8429L27.4077 30.1534L25.9999 32.464ZM12.2687 14.6977L14.8985 18.1507L13.1436 21.1743L10.6299 19.3328L11.5401 14.8501C11.5718 14.6942 11.6809 14.5865 11.8462 14.5496C12.0121 14.5125 12.166 14.5631 12.2686 14.6976C12.2686 14.6977 12.2686 14.6977 12.2687 14.6977Z" stroke="#EDF2FF" stroke-width="2"/>
<path d="M48.3426 20.1564L38.2735 27.5318L37.3761 28.1891L36.8177 27.227L26.3555 9.19876L26.3553 9.19844C26.2021 8.9343 25.7985 8.9333 25.6443 9.19876C25.6443 9.19878 25.6443 9.1988 25.6443 9.19882L15.1821 27.227L14.6238 28.1891L13.7263 27.5318L3.65698 20.1563C3.65694 20.1562 3.65691 20.1562 3.65687 20.1562C3.50183 20.0427 3.32885 20.0479 3.17882 20.147C3.02997 20.2453 2.97185 20.3881 3.01418 20.5527C3.0142 20.5528 3.01422 20.5529 3.01424 20.553L6.66381 34.6921H14.7512C16.0651 34.6921 17.1573 35.7457 17.1573 37.0767C17.1573 38.4078 16.0651 39.4614 14.7512 39.4614H7.89437L8.73211 42.7067L48.3426 20.1564ZM48.3426 20.1564C48.4971 20.0434 48.6711 20.0481 48.8217 20.1473C48.97 20.245 49.0283 20.3867 48.9857 20.5525L48.3426 20.1564ZM48.9856 20.5528L45.336 34.6921H37.2486C35.9347 34.6921 34.8425 35.7457 34.8425 37.0767C34.8425 38.4078 35.9347 39.4614 37.2486 39.4614H44.1055L43.2677 42.7067C43.2257 42.8692 43.0695 43 42.8729 43H9.12689C8.93046 43 8.77429 42.8693 8.73219 42.7069L48.9856 20.5528ZM23.9405 38.3097L23.9405 38.3098C24.8795 39.8504 27.1278 39.8389 28.0594 38.3097C28.0594 38.3096 28.0594 38.3096 28.0594 38.3095L32.2776 31.3864C32.7395 30.6284 32.7395 29.6785 32.2776 28.9205L28.0594 21.9972L28.0593 21.9971C27.1203 20.4565 24.872 20.468 23.9405 21.9972C23.9404 21.9973 23.9404 21.9973 23.9404 21.9973L19.7222 28.9205C19.2603 29.6785 19.2603 30.6284 19.7222 31.3864L23.9405 38.3097ZM39.7314 14.6974L39.7315 14.6972C39.8334 14.5633 39.9869 14.5124 40.1533 14.5496C40.3189 14.5866 40.428 14.6944 40.4596 14.8499C40.4596 14.8499 40.4597 14.85 40.4597 14.8501L41.3699 19.3328L38.8561 21.1743L37.1013 18.1507L39.7314 14.6974ZM25.9999 32.464L24.5921 30.1534L25.9999 27.8429L27.4077 30.1534L25.9999 32.464ZM12.2687 14.6977L14.8985 18.1507L13.1436 21.1743L10.6299 19.3328L11.5401 14.8501C11.5718 14.6942 11.6809 14.5865 11.8462 14.5496C12.0121 14.5125 12.166 14.5631 12.2686 14.6976C12.2686 14.6977 12.2686 14.6977 12.2687 14.6977Z" stroke="url(#paint1_linear_2358_3706)" stroke-width="2"/>
<defs>
<linearGradient id="paint0_linear_2358_3706" x1="26" y1="44.2572" x2="26" y2="7.74287" gradientUnits="userSpaceOnUse">
<stop stop-color="#1C2230" stop-opacity="0"/>
<stop offset="1" stop-color="#1C2230" stop-opacity="0.35"/>
</linearGradient>
<linearGradient id="paint1_linear_2358_3706" x1="26" y1="44.2572" x2="26" y2="7.74287" gradientUnits="userSpaceOnUse">
<stop stop-color="#1C2230" stop-opacity="0"/>
<stop offset="1" stop-color="#1C2230" stop-opacity="0.35"/>
</linearGradient>
</defs>
</svg>
