<svg width="24" height="24" viewBox="0 0 24 24" fill="none" xmlns="http://www.w3.org/2000/svg">
<g clip-path="url(#clip0_4286_11965)">
<path d="M8.84212 0H0V1.87284L8.84212 7.66594V0Z" fill="#41479B"/>
<path d="M0 6.40283V8.84193H3.72277L0 6.40283Z" fill="#41479B"/>
<path d="M0 15.1577V17.5968L3.72277 15.1577H0Z" fill="#41479B"/>
<path d="M23.9984 1.87284V0H15.1562V7.66594L23.9984 1.87284Z" fill="#41479B"/>
<path d="M24.0001 17.5968V15.1577H20.2773L24.0001 17.5968Z" fill="#41479B"/>
<path d="M15.1562 16.334V23.9999H23.9984V22.1271L15.1562 16.334Z" fill="#41479B"/>
<path d="M24.0001 8.84193V6.40283L20.2773 8.84193H24.0001Z" fill="#41479B"/>
<path d="M0 22.1271V23.9999H8.84212V16.334L0 22.1271Z" fill="#41479B"/>
<path d="M23.9998 22.127V20.2553L16.1466 15.1577H18.4667L23.9998 18.7493V17.5968L20.277 15.1577H23.9998V13.8945H13.8945V23.9998H15.1577V16.3339L23.9998 22.127Z" fill="#F5F5F5"/>
<path d="M0 13.8945V15.1577H3.72277L0 17.5968V19.3687L6.48727 15.1577H8.80739L0 20.8747V22.127L8.84212 16.3339V23.9998H10.1053V13.8945H0Z" fill="#F5F5F5"/>
<path d="M10.1053 0H8.84212V7.66594L0 1.87284V3.92245L7.57894 8.84212H5.25881L0 5.42845V6.40303L3.72277 8.84212H0V10.1053H10.1053V0Z" fill="#F5F5F5"/>
<path d="M23.9998 10.1053V8.84212H20.277L23.9998 6.40303V4.60847L17.4778 8.84212H15.1577L23.9998 3.10242V1.87284L15.1577 7.66594V0H13.8945V10.1053H23.9998Z" fill="#F5F5F5"/>
<path d="M24 13.8947V10.1053H13.8947V0H10.1053V10.1053H0V13.8947H10.1053V24H13.8947V13.8947H24Z" fill="#FF4B55"/>
<path d="M6.48727 15.1577L0 19.3687V20.8747L8.80739 15.1577H6.48727Z" fill="#FF4B55"/>
<path d="M16.1484 15.1577L24.0016 20.2553V18.7493L18.4686 15.1577H16.1484Z" fill="#FF4B55"/>
<path d="M7.57894 8.84204L0 3.92236V5.42836L5.25881 8.84204H7.57894Z" fill="#FF4B55"/>
<path d="M17.4764 8.84224L23.9984 4.60859V3.10254L15.1562 8.84224H17.4764Z" fill="#FF4B55"/>
</g>
<defs>
<clipPath id="clip0_4286_11965">
<rect width="24" height="24" rx="6" fill="white"/>
</clipPath>
</defs>
</svg>
