<svg width="16" height="16" viewBox="0 0 16 16" fill="none" xmlns="http://www.w3.org/2000/svg">
<g clip-path="url(#clip0_2151_9586)">
<path d="M0 4.02617V5.77772H2.50133L0 4.02617ZM2.07289 13.7777H5.77778V11.1835L2.07289 13.7777ZM10.2222 11.1839V13.7777H13.9267L10.2222 11.1839ZM0 10.2222V11.9737L2.50222 10.2222H0ZM13.9276 2.22217H10.2222V4.81639L13.9276 2.22217ZM16 11.9742V10.2222H13.4973L16 11.9742ZM16 5.77772V4.02617L13.4982 5.77772H16ZM5.77778 2.22217H2.07289L5.77778 4.81639V2.22217Z" fill="#00247D"/>
<path d="M11.1733 10.2223L15.4898 13.245C15.7002 13.0276 15.8517 12.76 15.9298 12.4677L12.7231 10.2223H11.1733ZM5.77778 10.2223H4.82622L0.510223 13.2445C0.741778 13.4801 1.03867 13.6485 1.37156 13.7268L5.77778 10.6414V10.2223ZM10.2222 5.77788H11.1738L15.4898 2.75566C15.2541 2.51691 14.9556 2.34972 14.6289 2.27344L10.2222 5.35877V5.77788ZM4.82622 5.77788L0.510223 2.75566C0.299631 2.97305 0.148028 3.24061 0.0697784 3.53299L3.27645 5.77788H4.82622Z" fill="#CF1B2B"/>
<path d="M16 9.33328H9.33333V13.7777H10.2222V11.1839L13.9267 13.7777H14.2222C14.4583 13.7775 14.692 13.7303 14.9096 13.6388C15.1272 13.5473 15.3245 13.4134 15.4898 13.2448L11.1733 10.2222H12.7231L15.9298 12.4675C15.9711 12.3177 16 12.1626 16 11.9999V11.9742L13.4973 10.2222H16V9.33328ZM0 9.33328V10.2222H2.50222L0 11.9737V11.9999C0 12.4848 0.195111 12.9235 0.510222 13.2444L4.82622 10.2222H5.77778V10.6413L1.37156 13.7262C1.50222 13.7573 1.63733 13.7777 1.77778 13.7777H2.07289L5.77778 11.1835V13.7777H6.66667V9.33328H0ZM16 3.99995C16.0004 3.53413 15.8171 3.08695 15.4898 2.7555L11.1738 5.77772H10.2222V5.35861L14.6289 2.27328C14.4958 2.24062 14.3593 2.22347 14.2222 2.22217H13.9276L10.2222 4.81639V2.22217H9.33333V6.66661H16V5.77772H13.4982L16 4.02617V3.99995ZM5.77778 2.22217V4.81639L2.07289 2.22217H1.77778C1.54167 2.22244 1.30797 2.26974 1.09034 2.36131C0.872711 2.45288 0.6755 2.58688 0.510222 2.7555L4.82622 5.77772H3.27644L0.0697778 3.53283C0.0258474 3.68474 0.00238115 3.84183 0 3.99995L0 4.02617L2.50133 5.77772H0V6.66661H6.66667V2.22217H5.77778Z" fill="#EEEEEE"/>
<path d="M9.33333 6.66661V2.22217H6.66667V6.66661H0V9.33328H6.66667V13.7777H9.33333V9.33328H16V6.66661H9.33333Z" fill="#CF1B2B"/>
</g>
<defs>
<clipPath id="clip0_2151_9586">
<rect width="16" height="16" fill="white"/>
</clipPath>
</defs>
</svg>
