<svg width="16" height="16" viewBox="0 0 16 16" fill="none" xmlns="http://www.w3.org/2000/svg">
<g clip-path="url(#clip0_2151_9582)">
<path d="M16 11.9999C16 12.4714 15.8127 12.9236 15.4793 13.257C15.1459 13.5904 14.6937 13.7777 14.2222 13.7777H1.77778C1.30628 13.7777 0.854097 13.5904 0.520699 13.257C0.187301 12.9236 0 12.4714 0 11.9999V10.2222H16V11.9999Z" fill="#CE2028"/>
<path d="M0 5.77783H16V10.2223H0V5.77783Z" fill="#22408C"/>
<path d="M14.2222 2.22217H1.77778C1.30628 2.22217 0.854097 2.40947 0.520699 2.74287C0.187301 3.07626 0 3.52845 0 3.99995L0 5.77772H16V3.99995C16 3.52845 15.8127 3.07626 15.4793 2.74287C15.1459 2.40947 14.6937 2.22217 14.2222 2.22217Z" fill="#EEEEEE"/>
</g>
<defs>
<clipPath id="clip0_2151_9582">
<rect width="16" height="16" fill="white"/>
</clipPath>
</defs>
</svg>
