<svg width="198" height="66" viewBox="0 0 198 66" fill="none" xmlns="http://www.w3.org/2000/svg">
<path d="M14.9359 104.272C14.2799 101.824 15.8561 99.2757 18.4469 98.5815C21.0378 97.8873 23.6771 99.3064 24.3331 101.755C24.989 104.203 23.4129 106.751 20.8221 107.446C18.2312 108.14 15.5919 106.721 14.9359 104.272ZM138.385 13.1421C141.749 12.2407 143.783 8.91492 142.925 5.71013C142.066 2.50533 138.641 0.642408 135.277 1.54376C131.913 2.44512 129.879 5.77091 130.737 8.97571C131.596 12.1805 135.021 14.0434 138.385 13.1421ZM49.8111 135.07C52.3657 134.385 53.9056 131.846 53.2496 129.398C52.5937 126.95 49.9906 125.521 47.436 126.206C44.8813 126.89 43.3414 129.429 43.9974 131.877C44.6534 134.325 47.2564 135.754 49.8111 135.07ZM24.008 126.969C26.8284 126.214 28.5729 123.593 27.9067 121.106C27.2405 118.62 24.4192 117.223 21.5988 117.978C18.7785 118.734 17.034 121.355 17.7002 123.841C18.3664 126.328 21.1877 127.725 24.008 126.969ZM75.3801 164.98C78.9735 164.017 81.0904 160.274 80.109 156.611C79.1276 152.949 75.4227 150.766 71.8293 151.728C68.2359 152.691 66.119 156.434 67.1003 160.097C68.0817 163.76 71.7867 165.943 75.3801 164.98ZM35.9696 46.1863C38.8745 45.4079 40.6871 42.7754 40.026 40.3083C39.365 37.8411 36.4729 36.4692 33.5741 37.2459C30.6752 38.0227 28.8566 40.6568 29.5176 43.124C30.1787 45.5912 33.0708 46.963 35.9696 46.1863ZM103.361 -13.3556C106.036 -14.0724 107.638 -16.7915 106.932 -19.424C106.227 -22.0566 103.486 -23.6121 100.805 -22.8937C98.1235 -22.1752 96.5279 -19.4577 97.2333 -16.8252C97.9386 -14.1927 100.679 -12.6371 103.361 -13.3556ZM150.906 32.332C153.497 31.6377 155.082 29.1479 154.445 26.7697C153.808 24.3916 151.19 23.028 148.599 23.7222C146.008 24.4165 144.423 26.9063 145.06 29.2845C145.697 31.6626 148.315 33.0262 150.906 32.332ZM4.71601 11.5359C7.4941 10.7916 9.20077 8.12611 8.51924 5.58262C7.83771 3.03913 5.03131 1.57615 2.24719 2.32215C-0.536938 3.06816 -2.23756 5.73198 -1.55433 8.28183C-0.871103 10.8317 1.93189 12.2819 4.71601 11.5359ZM36.1097 115.146C38.6764 114.459 40.259 112.031 39.6405 109.723C39.0221 107.415 36.4376 106.103 33.8709 106.791C31.3042 107.479 29.7215 109.907 30.34 112.215C30.9585 114.523 33.543 115.834 36.1097 115.146ZM94.9037 12.2868C97.9173 11.4793 99.7949 8.72718 99.1015 6.13918C98.408 3.55118 95.4059 2.10657 92.3922 2.91406C89.3786 3.72156 87.501 6.4737 88.1945 9.0617C88.8879 11.6497 91.8901 13.0943 94.9037 12.2868ZM68.7887 88.1525C71.7358 87.3628 73.5617 84.6109 72.8632 82.0038C72.1646 79.3967 69.2074 77.9265 66.2602 78.7162C63.313 79.5059 61.4871 82.2578 62.1857 84.8648C62.8842 87.4719 65.8415 88.9422 68.7887 88.1525ZM1.48155 39.7591C4.4227 38.971 6.14793 35.8917 5.34032 32.8776C4.53271 29.8636 1.49291 28.061 -1.44219 28.8475C-4.3773 29.634 -6.10856 32.7149 -5.30095 35.7289C-4.49334 38.743 -1.45355 40.5455 1.48155 39.7591ZM137.163 30.9029C139.748 30.2103 141.291 27.5886 140.61 25.0451C139.928 22.5016 137.281 21.0029 134.696 21.6955C132.111 22.3881 130.567 25.0099 131.249 27.5533C131.93 30.0968 134.578 31.5955 137.163 30.9029ZM37.9994 168.194C40.5661 167.507 42.1726 165.168 41.5831 162.968C40.9936 160.768 38.4329 159.546 35.8662 160.233C33.2995 160.921 31.693 163.26 32.2825 165.46C32.8721 167.66 35.4327 168.882 37.9994 168.194ZM163.549 144.667C166.303 143.93 167.936 141.113 167.204 138.379C166.471 135.645 163.648 134.023 160.894 134.761C158.14 135.498 156.506 138.315 157.239 141.049C157.972 143.783 160.795 145.405 163.549 144.667ZM77.9158 121.201C81.2978 120.295 83.3786 117.093 82.5607 114.041C81.7429 110.988 78.34 109.256 74.958 110.162C71.5759 111.068 69.4952 114.27 70.313 117.322C71.1308 120.374 74.5338 122.107 77.9158 121.201ZM41.4823 17.9865C44.5624 17.1612 46.451 14.2085 45.6962 11.3916C44.9414 8.57469 41.8295 6.96185 38.7494 7.78714C35.6694 8.61244 33.7808 11.5652 34.5355 14.3821C35.2903 17.199 38.4023 18.8118 41.4823 17.9865ZM5.37746 120.635C8.38503 119.829 10.2218 116.924 9.4772 114.145C8.73263 111.366 5.6896 109.769 2.68203 110.575C-0.325552 111.381 -2.16229 114.286 -1.41772 117.064C-0.673151 119.843 2.36988 121.44 5.37746 120.635ZM119.115 35.8751C122.117 35.0708 123.965 32.2313 123.24 29.5288C122.516 26.8264 119.496 25.2911 116.495 26.0954C113.493 26.8996 111.646 29.7392 112.37 32.4416C113.094 35.1441 116.114 36.6793 119.115 35.8751ZM16.8308 74.9635C19.5545 74.2337 21.2589 71.7528 20.6336 69.4192C20.0083 67.0855 17.2919 65.7893 14.5681 66.5191C11.8444 67.2489 10.14 69.7297 10.7653 72.0634C11.3906 74.397 14.1071 75.6933 16.8308 74.9635ZM73.3292 34.9695C76.5723 34.1005 78.4668 30.6624 77.562 27.2859C76.6573 23.9094 73.2976 21.8791 70.0545 22.7481C66.8113 23.6171 64.9169 27.0552 65.8216 30.4317C66.7263 33.8082 70.0861 35.8385 73.3292 34.9695ZM75.5917 64.0437C78.5027 63.2637 80.2813 60.4563 79.564 57.7793C78.8467 55.1023 75.9027 53.5603 72.9917 54.3403C70.0808 55.1203 68.3021 57.9277 69.0194 60.6047C69.7367 63.2818 72.6808 64.8237 75.5917 64.0437ZM129.712 81.9215C132.327 81.2208 133.86 78.4384 133.127 75.7041C132.395 72.9699 129.682 71.325 127.061 72.0273C124.44 72.7297 122.913 75.5105 123.646 78.2447C124.378 80.979 127.091 82.6238 129.712 81.9215ZM143.723 145.638C146.278 144.954 147.86 142.574 147.257 140.323C146.654 138.072 144.094 136.802 141.539 137.486C138.984 138.171 137.402 140.551 138.005 142.802C138.608 145.053 141.169 146.323 143.723 145.638ZM57.0849 183.812C59.9657 183.041 61.6409 179.968 60.8315 176.947C60.0222 173.927 57.0351 172.104 54.1543 172.875C51.2736 173.647 49.5984 176.72 50.4077 179.741C51.217 182.761 54.2042 184.584 57.0849 183.812ZM71.0487 176.813C73.6093 176.127 75.1791 173.676 74.5521 171.336C73.9251 168.995 71.3399 167.657 68.7792 168.343C66.2185 169.03 64.6487 171.481 65.2757 173.821C65.9027 176.161 68.488 177.499 71.0487 176.813ZM130.243 47.7642C132.985 47.0296 134.598 44.1576 133.846 41.3535C133.095 38.5493 130.262 36.8683 127.521 37.603C124.779 38.3377 123.166 41.2096 123.918 44.0138C124.669 46.818 127.501 48.4989 130.243 47.7642ZM171.821 157.881C175.034 157.02 176.941 153.701 176.073 150.464C175.206 147.228 171.895 145.307 168.682 146.168C165.469 147.029 163.562 150.348 164.43 153.584C165.297 156.821 168.608 158.742 171.821 157.881ZM39.8839 3.15547C42.6016 2.42726 44.2658 -0.179105 43.598 -2.67172C42.9301 -5.16434 40.1856 -6.58941 37.4679 -5.8612C34.7502 -5.133 33.086 -2.52663 33.7539 -0.0340138C34.4218 2.45861 37.1662 3.88367 39.8839 3.15547ZM68.7558 143.181C71.4614 142.456 73.1562 140.012 72.5411 137.716C71.926 135.421 69.2362 134.151 66.5306 134.876C63.825 135.601 62.1303 138.046 62.7453 140.341C63.3604 142.637 66.0502 143.906 68.7558 143.181ZM84.6398 88.8735C87.2911 88.1631 88.9385 85.7112 88.3183 83.3966C87.6981 81.0821 85.0455 79.7823 82.3942 80.4927C79.7429 81.2031 78.0956 83.655 78.7158 85.9696C79.336 88.2842 81.9886 89.5839 84.6398 88.8735ZM107.118 113.819C109.811 113.097 111.395 110.261 110.652 107.488C109.909 104.716 107.119 103.051 104.426 103.772C101.732 104.494 100.149 107.331 100.892 110.103C101.635 112.876 104.424 114.541 107.118 113.819ZM170.915 120.728C174.001 119.901 175.858 116.807 175.057 113.818C174.257 110.83 171.107 109.077 168.015 109.906C164.923 110.734 163.072 113.827 163.873 116.815C164.673 119.804 167.823 121.557 170.915 120.728ZM36.6669 156.482C39.1672 155.812 40.6733 153.316 40.0259 150.9C39.3784 148.483 36.8261 147.075 34.3259 147.745C31.8256 148.415 30.3195 150.911 30.9669 153.327C31.6144 155.743 34.1666 157.152 36.6669 156.482ZM27.8043 62.7953C30.685 62.0234 32.3705 58.9888 31.5731 56.0129C30.7757 53.037 27.7927 51.2533 24.918 52.0236C22.0433 52.7939 20.3518 55.8301 21.1492 58.806C21.9466 61.7819 24.9296 63.5656 27.8043 62.7953ZM142.666 78.3279C145.855 77.4734 147.751 74.2119 146.903 71.0453C146.054 67.8786 142.781 66.0023 139.592 66.8567C136.404 67.7112 134.507 70.9727 135.356 74.1393C136.204 77.306 139.477 79.1823 142.666 78.3279ZM66.1992 16.332C69.0558 15.5666 70.7197 12.5241 69.9172 9.52915C69.1147 6.53419 66.1525 4.7313 63.2959 5.49673C60.4393 6.26215 58.7754 9.3046 59.5779 12.2996C60.3804 15.2945 63.3426 17.0974 66.1992 16.332ZM6.45483 90.8835C9.1544 90.1602 10.7562 87.3933 10.0372 84.71C9.3182 82.0266 6.54756 80.4313 3.84799 81.1547C1.14842 81.878 -0.453408 84.6449 0.265602 87.3283C0.984611 90.0116 3.75526 91.6069 6.45483 90.8835ZM121.948 152.257C125.101 151.412 126.959 148.106 126.094 144.876C125.228 141.646 121.972 139.71 118.813 140.557C115.655 141.403 113.802 144.707 114.668 147.937C115.533 151.168 118.79 153.103 121.948 152.257ZM-1.27772 66.8326C1.46413 66.0979 3.12697 63.3897 2.4284 60.7826C1.72984 58.1755 -1.05829 56.6599 -3.80618 57.3962C-6.55407 58.1325 -8.21087 60.8391 -7.5123 63.4462C-6.81374 66.0533 -4.0256 67.5689 -1.27772 66.8326ZM143.201 90.9768C145.864 90.2632 147.462 87.5791 146.769 84.9911C146.075 82.4031 143.349 80.8777 140.686 81.5913C138.023 82.305 136.424 84.989 137.118 87.577C137.811 90.165 140.537 91.6905 143.201 90.9768ZM151.376 7.2007C154.245 6.43204 155.951 3.5215 155.194 0.698231C154.438 -2.12504 151.499 -3.79116 148.637 -3.02412C145.774 -2.25708 144.062 0.655074 144.819 3.47835C145.575 6.30162 148.514 7.96774 151.376 7.2007ZM47.5646 91.1747C50.1012 90.4951 51.617 87.9148 50.9474 85.4158C50.2779 82.9168 47.6749 81.4402 45.1384 82.1199C42.6019 82.7995 41.086 85.3798 41.7556 87.8788C42.4252 90.3777 45.0281 91.8544 47.5646 91.1747ZM69.1438 -1.25663C72.393 -2.12723 74.3276 -5.43986 73.4671 -8.65101C72.6067 -11.8622 69.275 -13.7637 66.0258 -12.8931C62.7767 -12.0225 60.8421 -8.70986 61.7025 -5.4987C62.563 -2.28755 65.8947 -0.386018 69.1438 -1.25663ZM102.979 134.658C106.059 133.833 107.859 130.57 107.002 127.372C106.144 124.173 102.955 122.247 99.875 123.073C96.795 123.898 94.9959 127.161 95.8529 130.359C96.7099 133.557 99.8993 135.483 102.979 134.658ZM116.823 -18.0942C119.366 -18.7755 120.918 -21.2429 120.286 -23.602C119.654 -25.9611 117.076 -27.3216 114.533 -26.6403C111.991 -25.9591 110.438 -23.4916 111.07 -21.1326C111.702 -18.7735 114.281 -17.4129 116.823 -18.0942ZM67.6986 105.101C70.3257 104.397 71.9695 101.98 71.3612 99.7102C70.753 97.4402 68.127 96.1674 65.4939 96.8729C62.8607 97.5785 61.2229 99.9937 61.8312 102.264C62.4395 104.534 65.0654 105.807 67.6986 105.101ZM164.914 80.0679C167.861 79.2782 169.656 76.4118 168.92 73.6648C168.184 70.9179 165.196 69.3331 162.249 70.1228C159.302 70.9125 157.506 73.7789 158.242 76.5259C158.979 79.2728 161.966 80.8576 164.914 80.0679ZM0.204096 54.0999C2.70437 53.43 4.21392 50.9468 3.57158 48.5496C2.92924 46.1523 0.380368 44.7567 -2.11991 45.4266C-4.62018 46.0966 -6.12973 48.5797 -5.48739 50.9769C-4.84505 53.3742 -2.29618 54.7698 0.204096 54.0999ZM47.5958 111.462C50.3437 110.726 51.9562 107.854 51.2048 105.05C50.4534 102.246 47.6149 100.566 44.8731 101.301C42.1312 102.036 40.5127 104.909 41.2641 107.713C42.0155 110.518 44.8539 112.197 47.5958 111.462ZM145.7 -15.9633C148.261 -16.6494 149.79 -19.2536 149.112 -21.7844C148.434 -24.3151 145.808 -25.806 143.247 -25.1198C140.686 -24.4337 139.157 -21.8295 139.835 -19.2988C140.514 -16.768 143.14 -15.2772 145.7 -15.9633ZM48.1331 74.8157C50.8628 74.0843 52.4632 71.2156 51.7102 68.405C50.9571 65.5945 48.1367 63.9103 45.407 64.6418C42.6772 65.3732 41.0768 68.2419 41.8298 71.0524C42.5829 73.863 45.4033 75.5472 48.1331 74.8157ZM158.277 91.9464C160.838 91.2602 162.336 88.5416 161.622 85.8773C160.908 83.213 158.251 81.6077 155.691 82.2938C153.13 82.9799 151.632 85.6986 152.346 88.3629C153.06 91.0272 155.716 92.6325 158.277 91.9464ZM115.036 71.4534C117.905 70.6847 119.602 67.7424 118.835 64.8809C118.068 62.0195 115.121 60.3216 112.259 61.0886C109.396 61.8557 107.693 64.7996 108.46 67.6611C109.226 70.5225 112.173 72.2204 115.036 71.4534ZM61.7903 157.649C64.2906 156.979 65.8359 154.629 65.2396 152.404C64.6432 150.178 62.1302 148.916 59.6299 149.586C57.1296 150.256 55.5843 152.605 56.1806 154.831C56.777 157.057 59.29 158.319 61.7903 157.649ZM11.0482 48.1887C13.5666 47.5139 15.0473 44.8749 14.3556 42.2933C13.6638 39.7116 11.062 38.1666 8.54358 38.8414C6.02519 39.5162 4.54446 42.1552 5.23621 44.7368C5.92796 47.3184 8.5298 48.8635 11.0482 48.1887ZM85.7924 0.531986C88.3591 -0.155761 89.9622 -2.50721 89.371 -4.71369C88.7798 -6.92017 86.2157 -8.15503 83.649 -7.46729C81.0823 -6.77954 79.4792 -4.42809 80.0704 -2.22161C80.6617 -0.0151365 83.2257 1.21973 85.7924 0.531986ZM13.4276 24.2634C15.9702 23.5821 17.5185 21.1227 16.8897 18.7763C16.261 16.4299 13.6905 15.0741 11.1479 15.7554C8.60539 16.4367 7.05712 18.8961 7.68583 21.2425C8.31454 23.5889 10.8851 24.9447 13.4276 24.2634ZM39.8026 141.418C42.3935 140.724 43.9286 138.07 43.2368 135.489C42.5451 132.907 39.8828 131.378 37.298 132.071C34.7132 132.763 33.172 135.418 33.8638 138C34.5555 140.582 37.2178 142.111 39.8026 141.418ZM82.9776 53.7296C85.4779 53.0597 86.9653 50.4939 86.2974 48.0013C85.6295 45.5087 83.0585 44.0303 80.5582 44.7002C78.0579 45.3702 76.5705 47.936 77.2384 50.4286C77.9063 52.9212 80.4773 54.3996 82.9776 53.7296ZM140.813 111.102C144.177 110.2 146.278 107.122 145.502 104.229C144.727 101.336 141.369 99.721 138.005 100.622C134.641 101.524 132.54 104.602 133.315 107.495C134.09 110.388 137.449 112.003 140.813 111.102ZM95.1571 49.1304C98.5029 48.2339 100.538 44.9829 99.7033 41.8671C98.8684 38.7513 95.4803 36.9535 92.1346 37.85C88.7888 38.7465 86.7535 41.9975 87.5884 45.1132C88.4233 48.229 91.8113 50.0269 95.1571 49.1304ZM84.4409 24.8634C87.0016 24.1773 88.5986 21.8274 88.0074 19.621C87.4162 17.4145 84.8582 16.178 82.2975 16.8641C79.7369 17.5502 78.1398 19.9001 78.731 22.1065C79.3223 24.313 81.8803 25.5495 84.4409 24.8634ZM186.749 133.946C189.34 133.252 190.948 130.824 190.333 128.529C189.718 126.233 187.117 124.933 184.52 125.629C181.923 126.325 180.321 128.751 180.936 131.046C181.551 133.342 184.152 134.642 186.749 133.946ZM148.402 59.2483C151.67 58.3729 153.66 55.1953 152.842 52.1431C152.024 49.0909 148.712 47.3341 145.444 48.2096C142.177 49.0851 140.187 52.2627 141.005 55.3148C141.823 58.367 145.135 60.1238 148.402 59.2483ZM99.3169 85.2611C102.071 84.5232 103.721 81.7434 103 79.0537C102.28 76.3639 99.4606 74.7817 96.7067 75.5196C93.9528 76.2575 92.3026 79.0373 93.0233 81.727C93.744 84.4167 96.563 85.999 99.3169 85.2611ZM32.4493 26.6224C35.0281 25.9315 36.6364 23.5513 36.035 21.3067C35.4335 19.0621 32.8567 17.8034 30.2718 18.496C27.687 19.1886 26.0847 21.5671 26.6861 23.8117C27.2876 26.0564 29.8645 27.3151 32.4493 26.6224ZM94.7876 106.478C97.3241 105.798 98.8621 103.3 98.2181 100.897C97.5741 98.4931 94.9933 97.0992 92.4568 97.7788C89.9203 98.4585 88.3822 100.956 89.0263 103.36C89.6703 105.763 92.2511 107.157 94.7876 106.478ZM157.493 124.12C160.132 123.413 161.72 120.765 161.036 118.209C160.351 115.653 157.657 114.153 155.012 114.862C152.367 115.571 150.784 118.216 151.469 120.773C152.154 123.329 154.848 124.829 157.493 124.12ZM113.1 53.646C115.769 52.9307 117.33 50.1068 116.585 47.328C115.84 44.5492 113.077 42.8839 110.408 43.5992C107.738 44.3144 106.184 47.1368 106.928 49.9155C107.673 52.6943 110.436 54.3596 113.1 53.646ZM93.2433 143.714C96.263 142.905 98.1169 140.016 97.3774 137.256C96.638 134.497 93.594 132.92 90.5683 133.731C87.5426 134.542 85.6948 137.429 86.4342 140.189C87.1737 142.948 90.2176 144.525 93.2433 143.714ZM127.453 104.629C130.491 103.815 132.299 100.706 131.489 97.686C130.68 94.6656 127.56 92.8778 124.522 93.6917C121.485 94.5057 119.677 97.6141 120.486 100.634C121.295 103.655 124.415 105.443 127.453 104.629ZM163.032 45.6507C165.538 44.9791 167.031 42.4324 166.37 39.9652C165.708 37.4981 163.143 36.0388 160.636 36.7103C158.13 37.3819 156.637 39.9286 157.299 42.3958C157.96 44.863 160.526 46.3223 163.032 45.6507ZM160.472 66.4144C163.286 65.6603 164.971 62.8167 164.233 60.0634C163.496 57.31 160.615 55.6898 157.8 56.4439C154.986 57.198 153.301 60.0416 154.039 62.7949C154.777 65.5483 157.658 67.1685 160.472 66.4144ZM33.3687 87.1614C35.8931 86.485 37.3723 83.7919 36.6652 81.153C35.9581 78.5141 33.3366 76.9198 30.8062 77.5979C28.2757 78.2759 26.8025 80.9674 27.5096 83.6062C28.2167 86.2451 30.8382 87.8394 33.3687 87.1614ZM68.2695 74.1363C70.8664 73.4405 72.4476 70.9109 71.7968 68.4818C71.1459 66.0528 68.5117 64.6527 65.9148 65.3486C63.3179 66.0444 61.7367 68.574 62.3875 71.003C63.0384 73.4321 65.6726 74.8322 68.2695 74.1363ZM145.441 45.0822C147.942 44.4123 149.412 41.7829 148.724 39.2139C148.035 36.645 145.447 35.1031 142.947 35.773C140.447 36.443 138.976 39.0724 139.665 41.6413C140.353 44.2102 142.941 45.7522 145.441 45.0822ZM111.837 22.7705C114.633 22.0212 116.383 19.4941 115.748 17.1223C115.112 14.7505 112.333 13.437 109.537 14.1862C106.74 14.9354 104.99 17.4626 105.626 19.8344C106.261 22.2062 109.04 23.5197 111.837 22.7705ZM169.836 102.786C172.439 102.089 173.989 99.4449 173.303 96.8823C172.616 94.3197 169.951 92.8052 167.348 93.5026C164.745 94.2001 163.195 96.8442 163.881 99.4067C164.568 101.969 167.233 103.484 169.836 102.786ZM18.4602 162.962C20.9665 162.29 22.5247 159.964 21.9386 157.777C21.3525 155.59 18.8401 154.354 16.3338 155.026C13.8275 155.698 12.2693 158.023 12.8554 160.211C13.4416 162.398 15.9539 163.633 18.4602 162.962ZM107.103 10.2722C109.603 9.6022 111.133 7.19537 110.516 4.89351C109.899 2.59166 107.369 1.26592 104.869 1.93586C102.369 2.60581 100.839 5.01264 101.457 7.32086C102.076 9.62907 104.602 10.9421 107.103 10.2722ZM83.7496 179.305C86.6967 178.516 88.492 175.649 87.7542 172.896C87.0165 170.142 84.0286 168.558 81.0814 169.347C78.1342 170.137 76.339 173.004 77.0767 175.757C77.8145 178.51 80.8024 180.095 83.7496 179.305ZM42.1146 183.407C44.6209 182.736 46.1331 180.238 45.489 177.835C44.845 175.431 42.2867 174.024 39.7803 174.696C37.274 175.368 35.7619 177.865 36.4059 180.269C37.0499 182.672 39.6083 184.079 42.1146 183.407ZM20.7422 37.7196C23.3995 37.0076 24.995 34.3378 24.3032 31.7562C23.6115 29.1745 20.8949 27.6602 18.2376 28.3723C15.5803 29.0843 13.9848 31.754 14.6766 34.3356C15.3683 36.9173 18.0849 38.4316 20.7422 37.7196ZM129.225 -13.6273C131.924 -14.3507 133.554 -17.0365 132.861 -19.6245C132.168 -22.2125 129.413 -23.7234 126.713 -23.0001C124.014 -22.2767 122.384 -19.591 123.077 -17.003C123.771 -14.415 126.525 -12.904 129.225 -13.6273ZM177.596 88.1193C180.096 87.4493 181.58 84.8708 180.905 82.3528C180.231 79.8347 177.656 78.3437 175.156 79.0136C172.656 79.6836 171.174 82.2684 171.847 84.7801C172.52 87.2918 175.096 88.7892 177.596 88.1193ZM-20.4092 18.793C-17.4862 18.0098 -15.7159 15.1228 -16.4587 12.3504C-17.2016 9.57802 -20.1782 7.96299 -23.1012 8.74621C-26.0242 9.52944 -27.7945 12.4164 -27.0517 15.1888C-26.3088 17.9612 -23.3322 19.5762 -20.4092 18.793ZM125.346 138.22C127.865 137.545 129.362 134.943 128.682 132.406C128.002 129.869 125.41 128.362 122.886 129.038C120.361 129.714 118.87 132.315 119.55 134.852C120.23 137.39 122.822 138.896 125.346 138.22ZM111.081 161.486C113.816 160.753 115.528 158.25 114.899 155.904C114.27 153.557 111.537 152.245 108.801 152.978C106.065 153.711 104.354 156.215 104.983 158.561C105.611 160.907 108.345 162.219 111.081 161.486ZM175.261 135.28C177.761 134.61 179.235 131.993 178.548 129.43C177.861 126.868 175.277 125.339 172.776 126.009C170.276 126.679 168.802 129.295 169.489 131.858C170.176 134.42 172.76 135.95 175.261 135.28ZM51.0392 150.307C54.0589 149.497 55.9537 146.761 55.2671 144.199C54.5804 141.636 51.5713 140.214 48.5517 141.023C45.532 141.832 43.6372 144.568 44.3238 147.131C45.0105 149.693 48.0196 151.116 51.0392 150.307ZM24.0734 48.9922C26.5737 48.3223 28.1156 45.96 27.5141 43.7153C26.9127 41.4707 24.3962 40.1958 21.8959 40.8658C19.3956 41.5357 17.8537 43.898 18.4552 46.1427C19.0566 48.3873 21.5731 49.6622 24.0734 48.9922ZM53.8152 16.1336C56.3154 15.4637 57.8096 12.9233 57.1486 10.4561C56.4875 7.98894 53.9233 6.53602 51.423 7.20597C48.9227 7.87591 47.4285 10.4163 48.0896 12.8835C48.7507 15.3506 51.3149 16.8036 53.8152 16.1336ZM124.151 57.5204C126.652 56.8504 128.192 54.4817 127.59 52.2371C126.989 49.9925 124.471 48.7113 121.97 49.3812C119.47 50.0511 117.93 52.4198 118.531 54.6645C119.133 56.9091 121.651 58.1903 124.151 57.5204ZM90.5089 63.8155C93.2689 63.076 94.9497 60.4107 94.2647 57.8545C93.5798 55.2983 90.7915 53.8304 88.0316 54.5699C85.2716 55.3095 83.5908 57.9748 84.2757 60.531C84.9607 63.0872 87.7489 64.5551 90.5089 63.8155ZM124.986 122.887C127.607 122.185 129.231 119.766 128.619 117.483C128.007 115.201 125.386 113.92 122.771 114.621C120.156 115.321 118.525 117.741 119.137 120.024C119.749 122.307 122.37 123.588 124.986 122.887ZM52.3103 58.8801C54.8347 58.2036 56.3913 55.8237 55.7865 53.5664C55.1816 51.3091 52.6436 50.0263 50.1192 50.7027C47.5947 51.3792 46.0381 53.7591 46.6429 56.0164C47.2478 58.2737 49.7858 59.5565 52.3103 58.8801ZM57.6081 34.0092C60.1204 33.336 61.6769 31.0039 61.0857 28.7974C60.4945 26.5909 57.9804 25.3495 55.4681 26.0226C52.9557 26.6958 51.3993 29.028 51.9905 31.2345C52.5817 33.4409 55.0957 34.6824 57.6081 34.0092ZM70.6595 47.7138C73.4013 46.9791 75.0019 44.0627 74.2335 41.1949C73.4651 38.3271 70.6207 36.6017 67.8788 37.3364C65.137 38.071 63.5364 40.9875 64.3048 43.8553C65.0733 46.7231 67.9176 48.4485 70.6595 47.7138ZM64.5823 121.373C67.0826 120.703 68.5529 118.073 67.8629 115.498C67.1729 112.923 64.5848 111.381 62.0845 112.051C59.5843 112.721 58.1139 115.35 58.8039 117.925C59.494 120.501 62.082 122.043 64.5823 121.373ZM27.6539 190.267C30.3353 189.549 32.0034 187.078 31.3798 184.75C30.7562 182.423 28.0761 181.117 25.3946 181.836C22.7131 182.554 21.045 185.025 21.6686 187.353C22.2922 189.68 24.9724 190.986 27.6539 190.267ZM152.23 161.297C155.268 160.483 157.04 157.241 156.185 154.049C155.329 150.857 152.174 148.935 149.136 149.749C146.098 150.563 144.326 153.805 145.181 156.997C146.036 160.189 149.192 162.111 152.23 161.297ZM162.797 26.222C165.406 25.5229 166.93 22.7564 166.203 20.0412C165.475 17.326 162.772 15.6923 160.163 16.3914C157.554 17.0904 156.03 19.8569 156.757 22.5721C157.485 25.2873 160.188 26.921 162.797 26.222ZM97.6039 175.811C101.179 174.853 103.356 171.38 102.465 168.055C101.573 164.729 97.9522 162.81 94.3769 163.768C90.8016 164.726 88.6252 168.198 89.5162 171.524C90.4073 174.85 94.0286 176.769 97.6039 175.811ZM111.035 84.4247C113.536 83.7548 115.098 81.4688 114.52 79.3132C113.943 77.1576 111.447 75.959 108.946 76.629C106.446 77.2989 104.884 79.5849 105.461 81.7405C106.039 83.8961 108.535 85.0947 111.035 84.4247ZM52.0943 46.5751C54.7032 45.876 56.328 43.4846 55.7249 41.2337C55.1217 38.9827 52.5189 37.7241 49.91 38.4232C47.301 39.1223 45.6762 41.5136 46.2794 43.7646C46.8825 46.0156 49.4853 47.2741 52.0943 46.5751ZM182.751 149.173C185.372 148.47 186.991 146.012 186.366 143.679C185.741 141.345 183.109 140.026 180.488 140.728C177.867 141.431 176.247 143.889 176.872 146.222C177.498 148.556 180.129 149.875 182.751 149.173ZM-11.4788 43.2318C-8.41084 42.4097 -6.61098 39.1741 -7.45948 36.0074C-8.30798 32.8408 -11.4845 30.9386 -14.5525 31.7606C-17.6205 32.5827 -19.4203 35.8183 -18.5718 38.985C-17.7233 42.1516 -14.5468 44.0538 -11.4788 43.2318ZM138.189 168.828C140.84 168.118 142.383 165.278 141.637 162.493C140.891 159.707 138.134 158.02 135.483 158.73C132.832 159.441 131.288 162.28 132.035 165.066C132.781 167.851 135.537 169.538 138.189 168.828ZM24.5137 173.934C27.014 173.264 28.5082 170.724 27.8506 168.269C27.1929 165.815 24.6287 164.362 22.1284 165.032C19.6281 165.702 18.1339 168.242 18.7916 170.697C19.4493 173.151 22.0135 174.604 24.5137 173.934ZM18.1565 9.95188C21.4178 9.07804 23.3798 5.81941 22.5364 2.67184C21.693 -0.475731 18.3645 -2.3168 15.1033 -1.44295C11.8421 -0.56911 9.88009 2.68952 10.7235 5.83709C11.5669 8.98466 14.8953 10.8257 18.1565 9.95188ZM108.161 100.659C110.704 99.9774 112.258 97.5163 111.63 95.1699C111.001 92.8236 108.43 91.4678 105.882 92.1507C103.333 92.8335 101.785 95.293 102.414 97.6393C103.042 99.9857 105.613 101.342 108.161 100.659ZM-6.41206 22.9823C-3.02401 22.0744 -0.978863 18.6913 -1.85292 15.4293C-2.72698 12.1672 -6.18365 10.2583 -9.57775 11.1677C-12.9718 12.0772 -15.0109 15.4587 -14.1369 18.7207C-13.2628 21.9828 -9.80615 23.8917 -6.41206 22.9823ZM126.19 163.353C128.691 162.683 130.19 160.162 129.536 157.72C128.881 155.279 126.322 153.845 123.822 154.515C121.322 155.185 119.822 157.706 120.477 160.148C121.131 162.59 123.69 164.023 126.19 163.353ZM141.94 132.411C144.482 131.729 145.974 129.06 145.272 126.44C144.57 123.821 141.944 122.255 139.401 122.936C136.858 123.618 135.366 126.287 136.068 128.907C136.77 131.526 139.397 133.092 141.94 132.411ZM24.0866 140.477C26.6594 139.787 28.1714 137.072 27.4575 134.408C26.7436 131.743 24.0764 130.148 21.5036 130.837C18.9309 131.526 17.4189 134.242 18.1328 136.906C18.8467 139.57 21.5139 141.166 24.0866 140.477ZM123.362 15.2456C126.315 14.4543 128.134 11.6769 127.427 9.03807C126.72 6.3992 123.756 4.90349 120.803 5.6948C117.849 6.48612 116.03 9.26347 116.737 11.9023C117.444 14.5412 120.408 16.0369 123.362 15.2456ZM105.315 40.1998C107.815 39.5299 109.276 36.8623 108.574 34.2425C107.872 31.6227 105.273 30.0426 102.773 30.7126C100.273 31.3825 98.8127 34.0501 99.5146 36.6699C100.217 39.2897 102.815 40.8698 105.315 40.1998ZM103.919 63.1802C106.643 62.4503 108.279 59.7152 107.57 57.07C106.861 54.4247 104.077 52.8741 101.353 53.6039C98.6292 54.3338 96.993 57.0689 97.7018 59.7141C98.4105 62.3594 101.195 63.91 103.919 63.1802ZM58.2647 79.8703C60.765 79.2004 62.3325 76.9335 61.7617 74.8033C61.1909 72.6731 58.7 71.4936 56.1997 72.1636C53.6994 72.8335 52.1319 75.1005 52.7027 77.2306C53.2735 79.3608 55.7644 80.5403 58.2647 79.8703ZM51.1563 170.407C53.874 169.679 55.5042 166.946 54.7971 164.307C54.09 161.668 51.3115 160.116 48.5938 160.844C45.8761 161.572 44.2459 164.306 44.953 166.945C45.6601 169.583 48.4386 171.136 51.1563 170.407ZM171.036 57.5728C174.025 56.7717 175.84 53.8591 175.094 51.074C174.348 48.2889 171.32 46.6741 168.33 47.4751C165.341 48.2761 163.525 51.1888 164.272 53.9739C165.018 56.759 168.046 58.3738 171.036 57.5728ZM85.2299 37.2534C87.7664 36.5737 89.3206 34.1604 88.7038 31.8586C88.087 29.5567 85.5344 28.2438 82.9979 28.9235C80.4614 29.6031 78.9073 32.0164 79.524 34.3183C80.1408 36.6201 82.6934 37.933 85.2299 37.2534ZM80.0667 103.259C82.9535 102.486 84.6817 99.5623 83.9252 96.739C83.1687 93.9157 80.2104 92.2481 77.3236 93.0216C74.4368 93.7951 72.7086 96.7185 73.4651 99.5418C74.2216 102.365 77.1799 104.033 80.0667 103.259ZM91.1112 157.643C93.6779 156.956 95.2426 154.485 94.6088 152.12C93.9749 149.754 91.3846 148.397 88.8179 149.085C86.2512 149.772 84.6865 152.243 85.3203 154.608C85.9541 156.974 88.5445 158.331 91.1112 157.643ZM12.3534 140.533C14.8537 139.863 16.3547 137.348 15.7039 134.919C15.053 132.49 12.4956 131.063 9.99535 131.733C7.49507 132.403 5.99405 134.918 6.64491 137.347C7.29576 139.776 9.85315 141.203 12.3534 140.533ZM31.8482 103.639C34.3485 102.969 35.8853 100.588 35.2771 98.3178C34.6688 96.0477 32.1472 94.7538 29.6469 95.4237C27.1466 96.0937 25.6098 98.4751 26.2181 100.745C26.8264 103.015 29.348 104.309 31.8482 103.639ZM105.565 -1.33787C108.065 -2.00782 109.544 -4.60541 108.864 -7.14254C108.184 -9.67967 105.605 -11.1898 103.104 -10.5199C100.604 -9.84992 99.1251 -7.25232 99.8049 -4.71519C100.485 -2.17806 103.064 -0.667924 105.565 -1.33787ZM35.8562 128.961C38.3565 128.291 39.8899 125.897 39.2783 123.614C38.6666 121.331 36.1399 120.018 33.6396 120.688C31.1393 121.358 29.6059 123.752 30.2193 126.041C30.8327 128.33 33.356 129.631 35.8562 128.961ZM41.2066 61.8416C43.7069 61.1717 45.1892 58.5868 44.5127 56.0624C43.8363 53.538 41.2602 52.0406 38.7599 52.7105C36.2596 53.3805 34.7774 55.9653 35.4538 58.4898C36.1302 61.0142 38.7063 62.5116 41.2066 61.8416ZM15.2408 61.2751C17.7411 60.6052 19.2779 58.2238 18.6713 55.9601C18.0648 53.6964 15.5432 52.4024 13.0429 53.0724C10.5426 53.7423 9.00581 56.1237 9.61237 58.3874C10.2189 60.6511 12.7405 61.9451 15.2408 61.2751ZM46.1565 30.6236C48.9406 29.8776 50.6157 27.1184 49.9018 24.4541C49.1879 21.7898 46.3577 20.2378 43.5735 20.9838C40.7894 21.7298 39.1144 24.489 39.8283 27.1533C40.5422 29.8176 43.3724 31.3696 46.1565 30.6236ZM184.598 114.588C187.327 113.856 189.001 111.261 188.338 108.788C187.675 106.314 184.928 104.903 182.199 105.635C179.469 106.366 177.795 108.962 178.458 111.435C179.121 113.909 181.868 115.319 184.598 114.588ZM80.7085 137.252C84.0603 136.354 86.134 133.222 85.34 130.259C84.546 127.296 81.1843 125.62 77.8325 126.519C74.4807 127.417 72.407 130.548 73.201 133.512C73.995 136.475 77.3567 138.15 80.7085 137.252ZM98.6262 24.3678C101.127 23.6979 102.682 21.3864 102.098 19.2054C101.513 17.0244 99.0104 15.8004 96.5101 16.4703C94.0098 17.1403 92.4543 19.4517 93.0387 21.6328C93.6231 23.8138 96.126 25.0378 98.6262 24.3678ZM152.172 19.7594C154.672 19.0894 156.193 16.6508 155.566 14.3108C154.939 11.9708 152.402 10.6196 149.902 11.2896C147.402 11.9595 145.88 14.3981 146.507 16.7382C147.134 19.0782 149.671 20.4293 152.172 19.7594ZM176.452 75.6608C178.952 74.9909 180.469 72.5332 179.835 70.1677C179.201 67.8023 176.659 66.432 174.159 67.102C171.658 67.7719 170.142 70.2296 170.776 72.5951C171.41 74.9605 173.952 76.3308 176.452 75.6608ZM153.55 104.26C156.075 103.584 157.624 101.179 157.011 98.8896C156.398 96.6004 153.853 95.2923 151.328 95.9687C148.804 96.6451 147.254 99.0504 147.868 101.34C148.481 103.629 151.026 104.937 153.55 104.26ZM0.650489 101.012C3.15076 100.342 4.67394 97.9102 4.04864 95.5765C3.42334 93.2429 0.888098 91.8981 -1.61218 92.568C-4.11245 93.238 -5.63562 95.6702 -5.01032 98.0039C-4.38502 100.338 -1.84979 101.682 0.650489 101.012ZM132.232 -1.19778C134.762 -1.87582 136.257 -4.51168 135.568 -7.08061C134.88 -9.64953 132.268 -11.185 129.737 -10.507C127.207 -9.82892 125.712 -7.19306 126.401 -4.62413C127.089 -2.05521 129.701 -0.519746 132.232 -1.19778ZM79.9262 74.0117C82.1003 73.4291 83.4318 71.3685 82.9087 69.4164C82.3857 67.4642 80.2023 66.3455 78.0281 66.928C75.854 67.5106 74.5225 69.5712 75.0456 71.5233C75.5686 73.4754 77.752 74.5942 79.9262 74.0117ZM143.615 120.498C145.282 120.052 146.276 118.348 145.833 116.694C145.39 115.041 143.677 114.062 142.01 114.509C140.344 114.955 139.35 116.659 139.793 118.313C140.236 119.966 141.949 120.945 143.615 120.498ZM22.9558 152.079C25.4077 151.422 26.9288 149.127 26.3461 146.952C25.7634 144.778 23.3045 143.549 20.8465 144.207C18.3885 144.866 16.8735 147.16 17.4562 149.334C18.0389 151.509 20.4978 152.738 22.9558 152.079ZM29.4938 75.2848C31.1606 74.8381 32.1743 73.2103 31.7569 71.6524C31.3395 70.0945 29.6476 69.1916 27.9808 69.6382C26.3139 70.0848 25.3002 71.7127 25.7176 73.2706C26.135 74.8285 27.8269 75.7314 29.4938 75.2848ZM118.831 0.0280001C120.727 -0.480124 121.834 -2.48719 121.306 -4.4584C120.777 -6.4296 118.81 -7.61299 116.919 -7.10649C115.029 -6.59998 113.917 -4.5913 114.445 -2.62009C114.973 -0.648887 116.941 0.534506 118.831 0.0280001ZM75.8673 8.03705C77.6308 7.56453 78.7221 5.93632 78.3081 4.39115C77.8941 2.84598 76.1349 1.98157 74.3714 2.45409C72.6079 2.92662 71.5166 4.55483 71.9306 6.1C72.3446 7.64517 74.1039 8.50958 75.8673 8.03705ZM120.169 -9.71508C121.836 -10.1617 122.848 -11.7959 122.427 -13.3665C122.006 -14.9371 120.313 -15.8464 118.646 -15.3998C116.979 -14.9531 115.967 -13.3189 116.388 -11.7483C116.808 -10.1777 118.502 -9.26845 120.169 -9.71508ZM129.617 67.3146C131.677 66.7628 132.933 64.7837 132.425 62.8888C131.917 60.9939 129.84 59.9081 127.781 60.4599C125.721 61.0117 124.465 62.9908 124.973 64.8857C125.48 66.7806 127.558 67.8664 129.617 67.3146ZM191.186 142.558C192.853 142.111 193.897 140.598 193.517 139.18C193.137 137.762 191.476 136.973 189.809 137.42C188.142 137.866 187.098 139.38 187.478 140.798C187.858 142.216 189.519 143.004 191.186 142.558ZM151.358 -6.13173C153.085 -6.59454 154.134 -8.30691 153.693 -9.95382C153.252 -11.6007 151.493 -12.5606 149.759 -12.0962C148.026 -11.6318 146.983 -9.92102 147.424 -8.27411C147.865 -6.6272 149.624 -5.6673 151.358 -6.13173ZM59.7968 3.38107C61.4637 2.93444 62.4604 1.24299 62.0225 -0.391204C61.5846 -2.0254 59.8757 -2.99189 58.2088 -2.54525C56.542 -2.09862 55.5453 -0.407167 55.9832 1.22702C56.4211 2.86122 58.13 3.8277 59.7968 3.38107ZM112.129 126.891C113.795 126.444 114.828 124.886 114.433 123.411C114.037 121.936 112.364 121.103 110.697 121.549C109.031 121.996 107.998 123.554 108.393 125.029C108.789 126.504 110.462 127.337 112.129 126.891ZM-11.22 58.6195C-8.52649 57.8977 -6.87696 55.3089 -7.53975 52.8354C-8.20253 50.3618 -10.9255 48.9446 -13.619 49.6664C-16.3125 50.3881 -17.9621 52.9769 -17.2993 55.4504C-16.6365 57.924 -13.9136 59.3412 -11.22 58.6195ZM184.313 100.12C186.337 99.5781 187.517 97.4355 186.953 95.3307C186.389 93.226 184.295 91.9604 182.272 92.5025C180.249 93.0446 179.069 95.1873 179.633 97.292C180.197 99.3968 182.29 100.662 184.313 100.12ZM16.5983 116.878C18.549 116.356 19.69 114.285 19.1465 112.256C18.603 110.228 16.5794 109.005 14.6287 109.528C12.678 110.05 11.537 112.121 12.0805 114.15C12.624 116.178 14.6476 117.401 16.5983 116.878ZM56.5668 94.6714C58.4813 94.1584 59.6756 92.4072 59.2326 90.7539C58.7896 89.1007 56.8797 88.1812 54.9653 88.6942C53.0508 89.2072 51.8565 90.9584 52.2995 92.6117C52.7425 94.2649 54.6524 95.1844 56.5668 94.6714ZM5.99148 130.85C7.7006 130.392 8.70288 128.576 8.2241 126.789C7.74533 125.003 5.96952 123.931 4.2604 124.389C2.55127 124.847 1.549 126.663 2.02777 128.45C2.50654 130.236 4.28235 131.308 5.99148 130.85ZM167.727 89.4552C169.394 89.0086 170.429 87.4634 170.038 86.0009C169.646 84.5384 167.976 83.7181 166.309 84.1648C164.642 84.6114 163.606 86.1566 163.998 87.6191C164.39 89.0816 166.06 89.9019 167.727 89.4552ZM76.201 16.9642C77.8678 16.5176 78.8867 14.9088 78.4744 13.37C78.0621 11.8312 76.3753 10.9474 74.7084 11.394C73.0416 11.8406 72.0227 13.4494 72.4351 14.9882C72.8474 16.527 74.5341 17.4109 76.201 16.9642ZM134.851 59.3559C136.518 58.9093 137.509 57.1988 137.061 55.5264C136.613 53.8541 134.899 52.8685 133.232 53.3152C131.565 53.7618 130.574 55.4723 131.022 57.1447C131.47 58.817 133.184 59.8026 134.851 59.3559ZM110.688 175.433C112.79 174.87 114.006 172.622 113.415 170.416C112.824 168.209 110.64 166.873 108.545 167.434C106.449 167.996 105.226 170.245 105.818 172.452C106.409 174.658 108.592 175.995 110.688 175.433ZM61.8384 52.8649C63.783 52.3438 64.9828 50.5162 64.5176 48.7802C64.0525 47.0443 62.0997 46.0614 60.155 46.5824C58.2103 47.1035 57.0106 48.9311 57.4758 50.6671C57.9409 52.403 59.8937 53.3859 61.8384 52.8649ZM31.3967 8.75545C33.1904 8.27484 34.2446 6.41124 33.759 4.599C33.2734 2.78676 31.4286 1.69992 29.635 2.18053C27.8413 2.66115 26.7872 4.52474 27.2727 6.33698C27.7583 8.14921 29.603 9.23607 31.3967 8.75545ZM90.5984 75.7932C92.8812 75.1815 94.2122 72.7326 93.5682 70.329C92.9242 67.9254 90.547 66.4701 88.2641 67.0818C85.9813 67.6935 84.6503 70.1424 85.2943 72.546C85.9384 74.9496 88.3155 76.4049 90.5984 75.7932ZM132.098 -26.0717C134 -26.5815 135.157 -28.4248 134.683 -30.1925C134.21 -31.9603 132.286 -32.9783 130.384 -32.4686C128.481 -31.9588 127.325 -30.1155 127.798 -28.3478C128.272 -26.58 130.196 -25.562 132.098 -26.0717ZM88.1928 113.077C89.8597 112.63 90.8615 110.958 90.4304 109.349C89.9993 107.74 88.2956 106.793 86.6287 107.239C84.9619 107.686 83.96 109.358 84.3911 110.967C84.8222 112.576 86.526 113.523 88.1928 113.077ZM79.8576 147.846C81.7781 147.331 82.9196 145.383 82.4119 143.488C81.9041 141.593 79.9414 140.477 78.0209 140.991C76.1004 141.506 74.9589 143.454 75.4667 145.349C75.9744 147.244 77.9371 148.361 79.8576 147.846ZM55.0668 -5.79249C56.9571 -6.29899 58.1461 -8.02154 57.715 -9.6303C57.284 -11.2391 55.399 -12.1379 53.5027 -11.6298C51.6063 -11.1217 50.4233 -9.40075 50.8544 -7.79199C51.2854 -6.18323 53.1704 -5.28436 55.0668 -5.79249ZM38.1173 191.56C39.7902 191.111 40.7937 189.445 40.3626 187.837C39.9316 186.228 38.2295 185.287 36.5566 185.735C34.8837 186.183 33.8802 187.849 34.3112 189.458C34.7423 191.067 36.4444 192.008 38.1173 191.56ZM43.2473 99.1468C44.9141 98.7002 45.9091 97.0024 45.4678 95.3554C45.0266 93.7085 43.3159 92.7357 41.6491 93.1823C39.9822 93.6289 38.9872 95.3268 39.4285 96.9737C39.8698 98.6206 41.5804 99.5934 43.2473 99.1468ZM-4.42291 81.0877C-1.66899 80.3498 0.0160055 77.7243 -0.655298 75.2189C-1.3266 72.7136 -4.10033 71.2759 -6.85425 72.0139C-9.60818 72.7518 -11.2932 75.3773 -10.6202 77.889C-9.94715 80.4007 -7.17684 81.8257 -4.42291 81.0877ZM102.558 73.3451C104.376 72.858 105.45 70.9482 104.951 69.0851C104.452 67.222 102.574 66.1098 100.75 66.5985C98.9265 67.0872 97.8584 68.9954 98.3559 70.8522C98.8534 72.7089 100.734 73.8338 102.558 73.3451ZM-14.6961 28.9299C-13.0292 28.4833 -12.0035 26.8999 -12.4056 25.3992C-12.8077 23.8986 -14.4877 23.0402 -16.1545 23.4868C-17.8214 23.9335 -18.847 25.5168 -18.4449 27.0175C-18.0428 28.5181 -16.3629 29.3765 -14.6961 28.9299ZM117.468 168.246C119.135 167.8 120.169 166.248 119.777 164.785C119.386 163.323 117.714 162.496 116.047 162.943C114.38 163.39 113.346 164.941 113.738 166.404C114.13 167.866 115.801 168.693 117.468 168.246ZM160.514 10.3339C162.314 9.8517 163.426 8.15655 162.995 6.54779C162.564 4.93903 160.753 4.02711 158.953 4.50934C157.154 4.99157 156.042 6.68672 156.473 8.29548C156.904 9.90423 158.714 10.8162 160.514 10.3339ZM139.68 -9.32058C141.347 -9.76722 142.392 -11.2806 142.012 -12.6986C141.632 -14.1166 139.971 -14.9051 138.304 -14.4584C136.637 -14.0118 135.592 -12.4984 135.972 -11.0804C136.352 -9.6624 138.014 -8.87395 139.68 -9.32058ZM119.348 93.1766C121.106 92.7057 122.187 91.0394 121.761 89.4497C121.335 87.86 119.566 86.9575 117.808 87.4284C116.051 87.8993 114.97 89.5656 115.396 91.1553C115.822 92.745 117.591 93.6476 119.348 93.1766ZM165.578 128.687C167.245 128.241 168.229 126.505 167.775 124.807C167.32 123.109 165.599 122.098 163.932 122.545C162.265 122.991 161.28 124.727 161.735 126.425C162.19 128.123 163.911 129.134 165.578 128.687ZM107.175 147.273C108.975 146.791 110.032 144.913 109.539 143.076C109.047 141.238 107.193 140.14 105.393 140.622C103.593 141.104 102.537 142.982 103.029 144.82C103.521 146.658 105.376 147.756 107.175 147.273ZM88.751 -11.1584C91.4989 -11.8947 93.1634 -14.5965 92.4666 -17.1972C91.7697 -19.798 88.9773 -21.3056 86.2294 -20.5693C83.4815 -19.833 81.8169 -17.1311 82.5138 -14.5304C83.2106 -11.9297 86.0031 -10.4221 88.751 -11.1584ZM153.063 76.9323C154.73 76.4857 155.742 74.8514 155.321 73.2808C154.9 71.7102 153.207 70.801 151.54 71.2476C149.873 71.6942 148.861 73.3285 149.282 74.8991C149.703 76.4697 151.396 77.3789 153.063 76.9323ZM94.9115 122.522C96.832 122.007 98.0127 120.205 97.5544 118.494C97.0961 116.784 95.1725 115.814 93.252 116.328C91.3315 116.843 90.1508 118.645 90.6092 120.355C91.0675 122.066 92.991 123.036 94.9115 122.522ZM98.9042 159.719C100.136 159.389 100.912 158.275 100.633 157.232C100.353 156.189 99.1302 155.611 97.8921 155.942C96.654 156.274 95.8842 157.387 96.1636 158.43C96.443 159.472 97.6661 160.051 98.9042 159.719ZM136.754 95.5667C137.889 95.2625 138.589 94.2026 138.318 93.1915C138.047 92.1805 136.911 91.6126 135.776 91.9168C134.64 92.221 133.94 93.2809 134.211 94.2919C134.482 95.303 135.618 95.8709 136.754 95.5667ZM140.867 156.743C141.978 156.445 142.679 155.439 142.427 154.498C142.175 153.557 141.071 153.035 139.953 153.334C138.836 153.634 138.141 154.638 138.393 155.579C138.645 156.52 139.749 157.042 140.867 156.743ZM26.2272 112.254C27.3807 111.945 28.079 110.831 27.7928 109.762C27.5065 108.694 26.3387 108.08 25.1912 108.388C24.0438 108.695 23.3394 109.811 23.6256 110.879C23.9119 111.947 25.0737 112.563 26.2272 112.254ZM83.8007 12.0382C85.377 11.6159 86.3599 10.1871 86.0004 8.84538C85.6409 7.50369 84.0753 6.7578 82.499 7.18016C80.9228 7.60251 79.9398 9.0313 80.2993 10.373C80.6588 11.7147 82.2305 12.459 83.8007 12.0382ZM149.321 135.681C150.704 135.31 151.531 133.903 151.166 132.542C150.802 131.181 149.382 130.376 147.999 130.746C146.616 131.117 145.789 132.524 146.154 133.885C146.518 135.246 147.938 136.051 149.321 135.681ZM7.53902 69.0091C8.65026 68.7113 9.31762 67.5784 9.02286 66.4783C8.7281 65.3783 7.58971 64.7292 6.47243 65.0285C5.35516 65.3279 4.69384 66.4592 4.9886 67.5593C5.28336 68.6594 6.42175 69.3085 7.53902 69.0091ZM28.8294 162.453C30.0976 162.113 30.8816 160.908 30.5749 159.763C30.2682 158.619 28.9928 157.965 27.7185 158.307C26.4442 158.648 25.6663 159.852 25.9729 160.996C26.2796 162.141 27.5551 162.794 28.8294 162.453ZM125.13 23.9452C126.688 23.5277 127.635 22.0132 127.245 20.557C126.854 19.1009 125.277 18.2627 123.719 18.6802C122.161 19.0977 121.214 20.6123 121.604 22.0684C121.994 23.5246 123.571 24.3627 125.13 23.9452ZM22.1489 88.4094C23.3447 88.089 24.0452 86.8381 23.7181 85.6172C23.391 84.3964 22.1589 83.6633 20.9631 83.9837C19.7673 84.3041 19.0668 85.555 19.3939 86.7759C19.7211 87.9968 20.9531 88.7298 22.1489 88.4094ZM74.4053 183.083C75.5165 182.786 76.1907 181.678 75.9027 180.604C75.6148 179.529 74.4832 178.905 73.3659 179.205C72.2487 179.504 71.5805 180.61 71.8685 181.685C72.1564 182.759 73.288 183.383 74.4053 183.083ZM178.406 124.214C179.596 123.895 180.32 122.733 180.022 121.621C179.724 120.508 178.516 119.864 177.326 120.182C176.136 120.501 175.412 121.663 175.71 122.776C176.008 123.889 177.216 124.533 178.406 124.214ZM8.29502 103.96C9.57536 103.617 10.3228 102.251 9.96326 100.909C9.60375 99.5675 8.27364 98.7585 6.9933 99.1016C5.71297 99.4446 4.96556 100.81 5.32506 102.152C5.68457 103.494 7.01469 104.303 8.29502 103.96ZM39.9116 77.6388C41.0711 77.3281 41.7585 76.1489 41.4501 74.998C41.1417 73.8471 39.9568 73.1695 38.7973 73.4802C37.6377 73.7909 36.9504 74.9701 37.2588 76.1211C37.5672 77.272 38.752 77.9495 39.9116 77.6388ZM-12.6581 66.8287C-11.5167 66.5229 -10.8142 65.4486 -11.0885 64.4249C-11.3628 63.4011 -12.5083 62.8221 -13.6498 63.1279C-14.7912 63.4338 -15.4937 64.508 -15.2194 65.5318C-14.9451 66.5555 -13.7996 67.1346 -12.6581 66.8287ZM128.042 31.5273C129.153 31.2296 129.813 30.0712 129.512 28.9457C129.21 27.8202 128.065 27.1456 126.948 27.445C125.83 27.7444 125.176 28.9012 125.478 30.0266C125.779 31.1521 126.924 31.8267 128.042 31.5273ZM139.282 -29.1417C140.394 -29.4395 141.066 -30.5534 140.778 -31.628C140.49 -32.7026 139.357 -33.3326 138.24 -33.0333C137.122 -32.7339 136.456 -31.6216 136.744 -30.547C137.032 -29.4724 138.165 -28.8424 139.282 -29.1417ZM57.6297 129.342C58.8195 129.023 59.52 127.772 59.1928 126.552C58.8657 125.331 57.6336 124.598 56.4439 124.916C55.2541 125.235 54.5536 126.486 54.8808 127.707C55.2079 128.928 56.44 129.661 57.6297 129.342ZM115.515 134.843C116.723 134.52 117.477 133.418 117.201 132.388C116.925 131.358 115.721 130.781 114.513 131.104C113.306 131.428 112.552 132.529 112.828 133.559C113.104 134.59 114.307 135.167 115.515 134.843ZM134.553 150.767C136.534 150.236 137.698 148.18 137.158 146.164C136.618 144.148 134.575 142.951 132.601 143.48C130.626 144.009 129.455 146.067 129.996 148.083C130.536 150.099 132.578 151.296 134.553 150.767ZM49.4896 157.81C50.6008 157.512 51.2801 156.423 51.0024 155.387C50.7247 154.351 49.5982 153.746 48.4809 154.045C47.3637 154.345 46.6904 155.432 46.9681 156.468C47.2459 157.504 48.3723 158.109 49.4896 157.81ZM33.5021 67.7294C34.8126 67.3783 35.6029 66.0761 35.2655 64.817C34.9282 63.558 33.5927 62.8254 32.2821 63.1766C30.9716 63.5277 30.1813 64.8299 30.5186 66.089C30.856 67.348 32.1915 68.0806 33.5021 67.7294ZM126.883 90.5443C127.994 90.2466 128.694 89.2345 128.44 88.287C128.186 87.3396 127.08 86.8113 125.963 87.1106C124.846 87.41 124.152 88.4205 124.406 89.368C124.66 90.3154 125.766 90.8437 126.883 90.5443ZM22.8987 25.0651C24.01 24.7673 24.6739 23.6217 24.374 22.5025C24.0742 21.3834 22.9324 20.7216 21.8151 21.021C20.6978 21.3203 20.0399 22.4644 20.3398 23.5835C20.6397 24.7026 21.7815 25.3645 22.8987 25.0651ZM132.943 124.394C134.067 124.093 134.738 122.952 134.443 121.852C134.149 120.752 132.997 120.1 131.873 120.401C130.75 120.702 130.078 121.843 130.373 122.943C130.668 124.043 131.82 124.695 132.943 124.394ZM114.396 118.105C115.96 117.686 116.914 116.197 116.534 114.779C116.154 113.361 114.578 112.55 113.019 112.967C111.461 113.385 110.501 114.875 110.881 116.293C111.261 117.711 112.838 118.522 114.396 118.105ZM11.8369 152.496C13.7756 151.977 14.9428 150.076 14.4538 148.251C13.9648 146.426 11.9976 145.365 10.065 145.883C8.1324 146.401 6.95917 148.303 7.44816 150.128C7.93716 151.953 9.90436 153.014 11.8369 152.496ZM195.909 153.709C197.376 153.316 198.254 151.834 197.871 150.403C197.487 148.972 195.986 148.128 194.518 148.521C193.051 148.914 192.173 150.396 192.556 151.827C192.94 153.258 194.441 154.103 195.909 153.709ZM158.749 110.16C160.066 109.807 160.865 108.537 160.537 107.316C160.21 106.095 158.883 105.394 157.567 105.747C156.25 106.1 155.451 107.37 155.779 108.591C156.106 109.812 157.433 110.512 158.749 110.16ZM131.765 18.4871C132.876 18.1894 133.543 17.0564 133.25 15.9627C132.957 14.869 131.819 14.2199 130.702 14.5193C129.584 14.8186 128.923 15.95 129.216 17.0437C129.509 18.1374 130.647 18.7865 131.765 18.4871ZM79.1404 -8.76042C80.608 -9.15365 81.4876 -10.6297 81.1043 -12.0604C80.7209 -13.4911 79.2211 -14.3296 77.7535 -13.9364C76.286 -13.5432 75.4063 -12.0671 75.7897 -10.6364C76.173 -9.20568 77.6729 -8.36719 79.1404 -8.76042ZM94.2616 -1.29432C95.3728 -1.59208 96.0453 -2.70596 95.7573 -3.78058C95.4694 -4.8552 94.3344 -5.49159 93.2171 -5.19222C92.0999 -4.89285 91.4334 -3.78059 91.7231 -2.6996C92.0127 -1.61862 93.1443 -0.994952 94.2616 -1.29432ZM186.694 121.325C187.805 121.028 188.49 119.958 188.215 118.934C187.941 117.911 186.82 117.325 185.702 117.624C184.585 117.924 183.907 118.992 184.181 120.015C184.455 121.039 185.577 121.625 186.694 121.325ZM48.3842 -0.607914C49.4955 -0.905669 50.1748 -1.99411 49.8953 -3.03694C49.6159 -4.07977 48.4894 -4.68437 47.3722 -4.385C46.2549 -4.08562 45.5817 -2.9988 45.8611 -1.95597C46.1405 -0.913138 47.267 -0.308542 48.3842 -0.607914ZM25.8931 0.511588C27.0526 0.200889 27.7647 -0.909985 27.4802 -1.97189C27.1957 -3.0338 26.0235 -3.63978 24.864 -3.32908C23.7044 -3.01838 22.9923 -1.90751 23.2768 -0.845603C23.5614 0.216303 24.7335 0.822288 25.8931 0.511588ZM157.33 149.626C158.441 149.328 159.095 148.144 158.783 146.98C158.471 145.817 157.319 145.117 156.202 145.416C155.085 145.715 154.437 146.898 154.749 148.061C155.06 149.225 156.212 149.925 157.33 149.626ZM168.253 67.771C169.365 67.4733 170.039 66.3658 169.753 65.2975C169.466 64.2293 168.335 63.6056 167.217 63.9049C166.1 64.2043 165.432 65.3102 165.718 66.3785C166.005 67.4468 167.136 68.0704 168.253 67.771ZM-5.41602 7.95351C-4.30478 7.65576 -3.62379 6.57367 -3.8998 5.54356C-4.17582 4.51345 -5.30059 3.91521 -6.41786 4.21458C-7.53513 4.51395 -8.21008 5.59442 -7.93406 6.62454C-7.65805 7.65465 -6.53329 8.25288 -5.41602 7.95351ZM166.256 34.4685C167.893 34.0299 168.889 32.434 168.477 30.8952C168.064 29.3564 166.404 28.4724 164.767 28.911C163.13 29.3495 162.134 30.9455 162.546 32.4843C162.958 34.0231 164.619 34.907 166.256 34.4685ZM120.429 82.2076C121.54 81.9098 122.192 80.7197 121.879 79.5497C121.565 78.3797 120.412 77.6733 119.294 77.9727C118.177 78.2721 117.531 79.4606 117.844 80.6306C118.158 81.8006 119.312 82.507 120.429 82.2076ZM59.7411 110.287C60.9429 109.964 61.6692 108.761 61.3574 107.598C61.0456 106.434 59.8211 105.753 58.6132 106.077C57.4053 106.401 56.6852 107.602 56.997 108.766C57.3088 109.93 58.5333 110.61 59.7411 110.287ZM66.0002 131.447C67.1114 131.15 67.789 130.055 67.5062 128.999C67.2233 127.944 66.0952 127.333 64.9779 127.632C63.8606 127.931 63.1891 129.025 63.4719 130.08C63.7547 131.136 64.8829 131.747 66.0002 131.447ZM23.906 199.688C25.2709 199.323 26.1 197.996 25.7593 196.725C25.4185 195.453 24.0373 194.719 22.6724 195.085C21.3075 195.45 20.4783 196.777 20.8191 198.048C21.1599 199.32 22.5411 200.054 23.906 199.688ZM132.261 130.881C133.372 130.583 134.051 129.495 133.772 128.452C133.492 127.409 132.366 126.805 131.248 127.104C130.131 127.403 129.458 128.49 129.737 129.533C130.017 130.576 131.143 131.18 132.261 130.881ZM112.779 141.035C113.891 140.738 114.592 139.732 114.341 138.797C114.091 137.862 112.987 137.34 111.869 137.64C110.752 137.939 110.057 138.943 110.307 139.878C110.558 140.813 111.662 141.335 112.779 141.035ZM118.539 43.0015C119.669 42.6988 120.374 41.6851 120.119 40.7313C119.863 39.7775 118.745 39.2524 117.616 39.555C116.486 39.8576 115.781 40.8714 116.036 41.8252C116.292 42.779 117.41 43.3041 118.539 43.0015ZM103.248 119.62C104.359 119.322 105.052 118.285 104.79 117.305C104.527 116.326 103.414 115.772 102.297 116.072C101.18 116.371 100.493 117.407 100.755 118.386C101.018 119.366 102.131 119.919 103.248 119.62ZM15.6189 87.3989C16.7301 87.1012 17.4247 86.07 17.1623 85.0907C16.9 84.1115 15.7888 83.5641 14.6716 83.8635C13.5543 84.1628 12.8657 85.1924 13.1281 86.1717C13.3905 87.1509 14.5016 87.6983 15.6189 87.3989ZM150.541 66.9628C151.845 66.6132 152.649 65.4096 152.342 64.2651C152.035 63.1205 150.732 62.4817 149.433 62.8296C148.135 63.1775 147.325 64.3827 147.631 65.5273C147.938 66.6719 149.242 67.3107 150.541 66.9628ZM151.842 111.05C152.953 110.752 153.654 109.746 153.404 108.811C153.153 107.877 152.049 107.355 150.932 107.654C149.814 107.953 149.119 108.958 149.37 109.892C149.62 110.827 150.724 111.349 151.842 111.05ZM9.38708 36.2641C10.1299 36.0651 10.5737 35.3055 10.3778 34.5743C10.1818 33.843 9.41772 33.4071 8.67489 33.6062C7.93205 33.8052 7.48828 34.5647 7.68422 35.296C7.88016 36.0272 8.64425 36.4631 9.38708 36.2641ZM64.1046 35.5466C64.8474 35.3476 65.2997 34.6198 65.114 33.9267C64.9283 33.2336 64.1727 32.8295 63.4299 33.0286C62.687 33.2276 62.2347 33.9554 62.4204 34.6485C62.6062 35.3416 63.3617 35.7457 64.1046 35.5466ZM153.668 139.682C154.593 139.434 155.169 138.591 154.956 137.796C154.743 137.002 153.822 136.56 152.898 136.808C151.974 137.055 151.398 137.898 151.611 138.693C151.823 139.488 152.744 139.929 153.668 139.682ZM91.5035 129.998C92.9468 129.611 93.8366 128.221 93.4788 126.886C93.121 125.55 91.6614 124.79 90.212 125.178C88.7625 125.566 87.8788 126.955 88.2366 128.29C88.5944 129.626 90.054 130.386 91.5035 129.998ZM94.1884 30.9001C95.4205 30.57 96.1862 29.4175 95.8948 28.3302C95.6035 27.2428 94.3641 26.6276 93.1321 26.9577C91.9001 27.2878 91.1344 28.4403 91.4257 29.5276C91.7171 30.615 92.9564 31.2302 94.1884 30.9001ZM130.194 114.063C130.937 113.864 131.378 113.091 131.177 112.341C130.975 111.591 130.208 111.142 129.465 111.341C128.722 111.54 128.282 112.312 128.483 113.063C128.684 113.813 129.452 114.262 130.194 114.063ZM179.062 158.21C179.804 158.011 180.248 157.251 180.052 156.52C179.856 155.789 179.092 155.353 178.349 155.552C177.607 155.751 177.163 156.511 177.359 157.242C177.555 157.973 178.319 158.409 179.062 158.21ZM52.6465 191.067C54.1443 190.666 55.0294 189.114 54.6238 187.6C54.2183 186.087 52.6756 185.185 51.1778 185.586C49.6801 185.987 48.795 187.54 49.2005 189.053C49.6061 190.567 51.1488 191.469 52.6465 191.067ZM144.681 -3.96796C145.424 -4.167 145.878 -4.88839 145.694 -5.57514C145.51 -6.26188 144.756 -6.65962 144.013 -6.46058C143.27 -6.26154 142.816 -5.54015 143 -4.85341C143.185 -4.16666 143.938 -3.76892 144.681 -3.96796ZM63.2842 189.362C64.2565 189.101 64.8364 188.101 64.5757 187.128C64.315 186.155 63.3126 185.579 62.3402 185.839C61.3679 186.1 60.788 187.1 61.0487 188.073C61.3094 189.046 62.3118 189.622 63.2842 189.362ZM98.4136 152.961C99.1565 152.762 99.6173 152.066 99.4401 151.404C99.2629 150.743 98.5158 150.371 97.773 150.57C97.0302 150.769 96.5693 151.465 96.7465 152.126C96.9237 152.787 97.6708 153.16 98.4136 152.961ZM104.962 26.1256C105.705 25.9266 106.165 25.2306 105.988 24.5693C105.811 23.908 105.064 23.5357 104.321 23.7347C103.578 23.9338 103.117 24.6297 103.295 25.291C103.472 25.9523 104.219 26.3246 104.962 26.1256ZM3.54931 21.4104C4.83568 21.0657 5.6325 19.8844 5.33434 18.7716C5.03617 17.6589 3.75547 17.0343 2.46909 17.3789C1.18272 17.7236 0.3859 18.9049 0.684068 20.0177C0.982235 21.1304 2.26294 21.7551 3.54931 21.4104ZM20.4682 18.7239C21.211 18.5249 21.6548 17.7653 21.4554 17.0214C21.2561 16.2774 20.492 15.8415 19.7492 16.0405C19.0063 16.2396 18.5626 16.9991 18.7619 17.7431C18.9612 18.4871 19.7253 18.923 20.4682 18.7239ZM114.571 6.90804C115.313 6.709 115.761 5.96216 115.566 5.23727C115.372 4.51238 114.611 4.0892 113.869 4.28824C113.126 4.48728 112.679 5.23411 112.873 5.959C113.067 6.6839 113.828 7.10708 114.571 6.90804ZM91.8574 89.1886C92.6002 88.9896 93.0457 88.2364 92.8515 87.5115C92.6573 86.7866 91.8949 86.3571 91.152 86.5561C90.4092 86.7551 89.9637 87.5083 90.158 88.2332C90.3522 88.9581 91.1146 89.3877 91.8574 89.1886ZM164.082 106.339C164.825 106.14 165.291 105.463 165.12 104.827C164.95 104.191 164.208 103.838 163.465 104.037C162.722 104.236 162.256 104.913 162.427 105.549C162.597 106.184 163.339 106.538 164.082 106.339ZM61.2583 164.457C62.2307 164.196 62.796 163.165 62.5251 162.154C62.2542 161.143 61.2493 160.533 60.2769 160.794C59.3046 161.054 58.7393 162.085 59.0102 163.096C59.2811 164.107 60.286 164.717 61.2583 164.457ZM-7.60414 30.5395C-6.70428 30.2984 -6.14995 29.4683 -6.36123 28.6798C-6.5725 27.8913 -7.46759 27.4497 -8.36745 27.6908C-9.26731 27.9319 -9.82165 28.7619 -9.61037 29.5504C-9.3991 30.3389 -8.504 30.7806 -7.60414 30.5395ZM43.321 121.236C45.0422 120.775 46.1067 119.167 45.6995 117.647C45.2923 116.128 43.5667 115.268 41.8454 115.729C40.1242 116.19 39.0597 117.798 39.4669 119.317C39.8741 120.837 41.5997 121.697 43.321 121.236ZM148.144 -31.2165C149.407 -31.5547 150.168 -32.8217 149.842 -34.0363C149.517 -35.2508 148.224 -35.9676 146.962 -35.6294C145.7 -35.2912 144.939 -34.0241 145.264 -32.8096C145.59 -31.5951 146.882 -30.8783 148.144 -31.2165ZM-6.18885 86.9382C-5.44601 86.7391 -5.01076 85.9478 -5.21862 85.172C-5.42649 84.3963 -6.1991 83.9286 -6.94193 84.1276C-7.68477 84.3267 -8.12002 85.118 -7.91216 85.8938C-7.70429 86.6695 -6.93168 87.1372 -6.18885 86.9382ZM33.1878 176.81C34.4258 176.478 35.1898 175.32 34.895 174.219C34.6003 173.119 33.3592 172.498 32.1212 172.83C30.8831 173.161 30.1191 174.32 30.4139 175.42C30.7086 176.52 31.9497 177.142 33.1878 176.81ZM92.3302 94.7459C93.218 94.508 93.7638 93.6461 93.544 92.8259C93.3242 92.0056 92.4267 91.5305 91.5328 91.77C90.639 92.0095 90.0992 92.8697 90.319 93.69C90.5388 94.5103 91.4364 94.9854 92.3302 94.7459ZM11.6112 108.557C12.3843 108.35 12.8308 107.529 12.6162 106.727C12.4015 105.926 11.5979 105.44 10.8309 105.645C10.0639 105.851 9.61131 106.674 9.82599 107.475C10.0407 108.276 10.8443 108.763 11.6112 108.557ZM111.828 -9.32015C112.818 -9.58554 113.421 -10.5718 113.169 -11.5129C112.917 -12.454 111.906 -13.0145 110.909 -12.7475C109.913 -12.4805 109.316 -11.4959 109.57 -10.5484C109.823 -9.60096 110.831 -9.05314 111.828 -9.32015ZM118.245 109.277C119.942 108.822 120.931 107.031 120.459 105.269C119.987 103.508 118.235 102.451 116.537 102.906C114.84 103.36 113.851 105.152 114.323 106.913C114.795 108.675 116.548 109.732 118.245 109.277ZM170.315 41.7431C171.058 41.544 171.521 40.8545 171.345 40.1995C171.17 39.5446 170.424 39.1786 169.682 39.3776C168.939 39.5767 168.476 40.2663 168.652 40.9212C168.827 41.5762 169.573 41.9421 170.315 41.7431ZM98.7896 114.456C99.5384 114.255 100.003 113.572 99.8323 112.936C99.6619 112.3 98.9183 111.941 98.1694 112.141C97.4205 112.342 96.9563 113.025 97.1267 113.661C97.2971 114.297 98.0407 114.657 98.7896 114.456ZM137.044 36.6665C137.877 36.4432 138.378 35.607 138.16 34.7931C137.942 33.9792 137.09 33.5055 136.257 33.7288C135.423 33.9521 134.922 34.7883 135.14 35.6022C135.358 36.4161 136.21 36.8898 137.044 36.6665ZM14.7513 93.7515C15.7357 93.4877 16.314 92.4331 16.0363 91.3967C15.7586 90.3602 14.7365 89.7345 13.746 89.9998C12.7556 90.2652 12.1833 91.3182 12.461 92.3547C12.7388 93.3911 13.7608 94.0169 14.7513 93.7515ZM53.4907 123.799C55.2119 123.338 56.2159 121.529 55.7422 119.761C55.2686 117.994 53.4884 116.93 51.7733 117.39C50.0581 117.849 49.0481 119.66 49.5217 121.428C49.9954 123.196 51.7755 124.259 53.4907 123.799ZM59.0864 63.0073C60.3607 62.6658 61.149 61.4528 60.8389 60.2955C60.5288 59.1382 59.2456 58.4802 57.9653 58.8233C56.685 59.1663 55.9027 60.3778 56.2128 61.5351C56.5229 62.6923 57.8061 63.3504 59.0864 63.0073ZM18.4702 185.538C19.2131 185.339 19.6654 184.611 19.4797 183.918C19.2939 183.225 18.5384 182.821 17.7955 183.02C17.0527 183.219 16.6004 183.947 16.7861 184.64C16.9718 185.333 17.7274 185.737 18.4702 185.538ZM87.0929 120.929C87.9927 120.688 88.5403 119.833 88.3205 119.013C88.1007 118.192 87.1988 117.725 86.2989 117.966C85.399 118.207 84.8515 119.063 85.0713 119.883C85.2911 120.703 86.193 121.171 87.0929 120.929ZM58.5718 170.833C59.3146 170.634 59.7601 169.881 59.5659 169.156C59.3717 168.431 58.6093 168.002 57.8664 168.201C57.1236 168.4 56.6781 169.153 56.8724 169.878C57.0666 170.603 57.829 171.032 58.5718 170.833ZM44.3008 188.499C45.0437 188.3 45.484 187.527 45.2813 186.771C45.0785 186.014 44.311 185.565 43.5682 185.765C42.8254 185.964 42.385 186.736 42.5878 187.493C42.7905 188.249 43.558 188.698 44.3008 188.499ZM121.437 72.805C122.186 72.6043 122.646 71.8813 122.462 71.1946C122.278 70.5078 121.518 70.1117 120.769 70.3124C120.021 70.513 119.56 71.236 119.744 71.9228C119.929 72.6095 120.688 73.0056 121.437 72.805ZM117.331 76.3723C118.074 76.1732 118.511 75.3883 118.305 74.6189C118.099 73.8495 117.328 73.3881 116.585 73.5872C115.842 73.7862 115.405 74.5712 115.611 75.3406C115.818 76.11 116.589 76.5713 117.331 76.3723ZM148.805 125.541C149.705 125.3 150.252 124.418 150.025 123.572C149.799 122.726 148.884 122.235 147.984 122.477C147.084 122.718 146.537 123.6 146.764 124.446C146.99 125.292 147.905 125.783 148.805 125.541ZM103.696 50.8497C104.439 50.6507 104.874 49.8594 104.666 49.0836C104.458 48.3078 103.686 47.8401 102.943 48.0392C102.2 48.2382 101.765 49.0296 101.973 49.8053C102.181 50.5811 102.953 51.0488 103.696 50.8497ZM18.8113 178.597C19.844 178.321 20.4679 177.315 20.2106 176.355C19.9533 175.395 18.9103 174.836 17.8776 175.113C16.8449 175.389 16.221 176.395 16.4783 177.355C16.7356 178.315 17.7786 178.874 18.8113 178.597ZM56.6516 100.81C57.5334 100.573 58.0799 99.7386 57.867 98.9438C57.654 98.1489 56.7632 97.6993 55.8815 97.9355C54.9998 98.1718 54.4532 99.0066 54.6661 99.8014C54.8791 100.596 55.7699 101.046 56.6516 100.81ZM136.696 136.951C137.439 136.752 137.895 136.037 137.711 135.35C137.527 134.663 136.775 134.272 136.032 134.471C135.289 134.67 134.833 135.385 135.017 136.072C135.201 136.758 135.953 137.15 136.696 136.951ZM55.0089 137.848C55.7517 137.649 56.2176 136.972 56.0472 136.336C55.8768 135.7 55.1349 135.347 54.3921 135.546C53.6492 135.745 53.1833 136.422 53.3537 137.058C53.5241 137.694 54.266 138.047 55.0089 137.848ZM153.357 37.4205C154.1 37.2214 154.552 36.4937 154.365 35.7942C154.177 35.0948 153.422 34.6907 152.679 34.8897C151.936 35.0888 151.484 35.8165 151.671 36.516C151.858 37.2154 152.614 37.6195 153.357 37.4205ZM70.8263 94.4286C71.5692 94.2295 72.0368 93.559 71.8664 92.9232C71.696 92.2873 70.9558 91.9404 70.213 92.1395C69.4701 92.3385 69.0025 93.009 69.1729 93.6449C69.3433 94.2808 70.0835 94.6276 70.8263 94.4286ZM151.348 146.24C152.272 145.992 152.809 145.003 152.549 144.03C152.288 143.057 151.328 142.469 150.404 142.717C149.48 142.965 148.942 143.954 149.203 144.927C149.464 145.899 150.424 146.487 151.348 146.24ZM22.8916 78.2328C23.7794 77.995 24.3345 77.192 24.1335 76.4416C23.9324 75.6913 23.0502 75.2734 22.1624 75.5113C21.2746 75.7492 20.7195 76.5522 20.9205 77.3025C21.1216 78.0528 22.0038 78.4707 22.8916 78.2328ZM150.141 -26.3265C150.884 -26.5255 151.324 -27.2978 151.123 -28.0481C150.922 -28.7984 150.154 -29.247 149.412 -29.048C148.669 -28.8489 148.228 -28.0767 148.429 -27.3264C148.631 -26.576 149.398 -26.1274 150.141 -26.3265ZM12.9553 127.198C14.2356 126.855 15.0145 125.631 14.701 124.461C14.3875 123.291 13.0949 122.622 11.8206 122.963C10.5463 123.305 9.76138 124.53 10.0749 125.7C10.3884 126.87 11.681 127.54 12.9553 127.198ZM86.537 167.218C87.2798 167.019 87.7185 166.24 87.5157 165.483C87.313 164.727 86.5438 164.272 85.801 164.471C85.0581 164.67 84.6195 165.448 84.8222 166.205C85.025 166.962 85.7942 167.417 86.537 167.218ZM59.3679 135.201C60.3463 134.939 60.9142 133.894 60.6399 132.87C60.3656 131.846 59.3512 131.225 58.3729 131.487C57.3945 131.75 56.8266 132.795 57.1009 133.818C57.3752 134.842 58.3895 135.463 59.3679 135.201ZM46.0898 -7.45582C46.8386 -7.65648 47.2936 -8.39857 47.101 -9.1171C46.9085 -9.83564 46.1435 -10.2508 45.3946 -10.0502C44.6457 -9.84952 44.1908 -9.10744 44.3833 -8.3889C44.5759 -7.67036 45.3409 -7.25516 46.0898 -7.45582ZM33.1654 52.1718C33.9746 51.955 34.4847 51.2254 34.3007 50.5386C34.1167 49.8519 33.3102 49.4751 32.5009 49.6919C31.6916 49.9087 31.1816 50.6383 31.3656 51.3251C31.5496 52.0118 32.3561 52.3887 33.1654 52.1718Z" fill="url(#paint0_radial_4148_2806)" fill-opacity="0.1" style="mix-blend-mode:multiply"/>
<defs>
<radialGradient id="paint0_radial_4148_2806" cx="0" cy="0" r="1" gradientUnits="userSpaceOnUse" gradientTransform="translate(54.1295 7.08056) rotate(61.2089) scale(112.066 106.642)">
<stop stop-color="#13B585"/>
<stop offset="1" stop-color="#19CD97" stop-opacity="0"/>
</radialGradient>
</defs>
</svg>
