<svg width="240" height="265" viewBox="0 0 240 265" fill="none" xmlns="http://www.w3.org/2000/svg">
<g style="opacity: 0.01" opacity="0.15">
<path d="M315 121.344C315 121.344 309.768 118.053 299.737 106.732C284.256 89.5061 264.725 75.5564 243.521 64.9542C196.09 41.518 130.803 60.4904 116.853 114.617C119.643 97.319 127.455 81.1366 139.731 68.8599C183.256 25.3356 253.007 45.4236 294.275 81.6732C305.746 91.3437 311.372 93.7902 311.372 93.7902L305.339 71.2723C305.339 71.2723 299.431 69.4322 286.824 61.0885C241.289 30.3584 171.538 17.5243 131.362 64.9551C119.086 79.4637 112.389 97.3198 112.389 116.292C110.157 86.1595 121.318 54.9111 148.66 38.1713C188.278 13.6187 235.151 20.8734 275.042 38.2695C288.617 44.6475 294.703 45.5966 294.703 45.5966L283.047 25.4071C283.047 25.4071 276.826 25.0968 262.494 20.2944C213.389 3.57385 150.334 6.36395 118.528 54.9111C105.694 74.4417 104.577 97.3198 108.484 118.524C101.788 101.784 100.672 83.9276 105.694 66.6296C121.318 7.48032 191.626 -9.25941 245.175 1.28704C259.937 3.93821 266.129 3.35757 266.129 3.35757L249.644 -13.1268C249.644 -13.1268 243.461 -11.9006 228.372 -12.8323C188.278 -15.3978 145.311 -4.23824 116.295 26.4528C91.7422 52.6792 89.5103 90.6241 105.134 121.314C83.372 92.2978 82.8138 51.0054 106.808 21.989C131.918 -9.25941 169.305 -22.6517 206.689 -26.7062C221.638 -27.9649 227.594 -30.0454 227.594 -30.0454L207.404 -41.7015C207.404 -41.7015 201.596 -38.9913 186.776 -35.9849C147.542 -27.1163 108.482 -6.47015 88.9513 30.9166C72.2108 62.7232 80.0229 100.11 102.902 125.778C66.0733 97.878 62.1668 45.4244 90.0677 8.0385C109.04 -17.0723 134.15 -33.2539 162.212 -43.7538C176.332 -48.844 181.728 -52.337 181.728 -52.337L159.21 -58.3705C159.21 -58.3705 154.102 -54.2877 140.558 -47.5388C98.438 -26 61.0513 14.1769 61.6095 63.8395C62.1676 91.1823 80.0237 114.619 101.228 130.243C51.0073 109.597 38.1732 47.0998 67.1897 1.90096C80.0237 -18.7452 96.2061 -34.3694 114.807 -48.6526C127.133 -57.2384 131.656 -62 131.656 -62H108.344C108.344 -62 104.245 -56.716 92.906 -46.6769C51.0081 -10.3774 19.7598 57.6995 59.9357 106.805C71.0961 120.197 85.0457 129.683 101.786 134.705C75.0017 130.241 48.2172 113.501 38.1732 87.2742C20.8754 42.6335 38.7314 -6.47099 67.747 -41.0535C77.4324 -52.5516 80.789 -58.3722 80.789 -58.3722L58.2712 -52.3387C58.2712 -52.3387 55.4669 -46.0963 47.115 -33.446C19.2016 8.03683 6.92493 66.628 40.406 110.152C55.472 129.125 79.4664 138.052 102.903 139.169C60.4939 145.307 20.8754 116.848 11.9469 73.3237C4.69302 39.8434 11.3887 8.03683 24.2893 -21.4738C30.6631 -35.1073 32.5939 -41.7032 32.5939 -41.7032L12.4044 -30.047C12.4044 -30.047 11.1367 -23.1675 6.35259 -8.76612C-6.46733 30.9149 -7.5837 76.1138 18.6426 112.942C39.2888 141.959 73.8853 149.771 105.134 143.633C70.5371 156.467 30.9185 148.655 8.04046 115.732C-14.8376 83.3677 -18.1859 44.8654 -12.5641 8.7198C-9.94788 -6.11744 -9.64424 -13.1284 -9.64424 -13.1284L-26.1286 3.3559C-26.1286 3.3559 -25.691 10.4751 -26.5703 25.6417C-30.4618 80.5776 -5.3518 146.423 54.9129 156.467C73.3272 159.258 91.7414 154.794 108.482 146.982C94.5315 156.467 78.9073 162.606 62.1677 163.722C1.34475 165.954 -36.0419 102.341 -40.2803 47.4251C-41.6113 32.4015 -43.0471 25.4063 -43.0471 25.4063L-54.7032 45.5958C-54.7032 45.5958 -52.4971 52.4961 -49.4017 67.385C-39.3894 114.618 -9.25742 162.607 43.1952 172.092C69.4215 177.115 93.9742 164.28 112.947 148.656C100.113 163.722 83.9302 176.556 63.8422 179.905C5.80939 189.949 -39.3894 140.844 -56.9784 91.9534C-62.1718 77.7775 -65.3387 71.2723 -65.3387 71.2723L-71.3722 93.7902C-71.3722 93.7902 -67.4674 99.9843 -60.6037 113.57C-37.7148 160.374 11.9477 202.225 67.7487 188.275C88.953 183.253 105.135 167.07 117.411 149.773C107.925 168.745 93.4168 187.718 72.7706 194.971C20.8762 213.944 -32.1346 181.021 -61.5495 139.23C-70.2542 126.879 -75 121.344 -75 121.344V144.657C-75 144.657 -69.6153 149.673 -59.4524 161.018C-29.3454 193.854 13.6215 217.849 60.4939 208.92C91.7422 203.34 112.947 178.23 121.875 149.771C116.853 179.346 98.4388 207.246 68.306 216.732C24.7818 230.683 -20.4169 213.384 -53.7283 186.013C-65.347 176.34 -71.3722 172.211 -71.3722 172.211L-65.3387 194.729C-65.3387 194.729 -58.8393 198.165 -46.0743 206.488C-0.887154 236.262 67.7478 247.981 106.808 201.665C119.642 186.599 125.222 167.627 126.339 148.655C128.013 170.417 124.107 194.412 109.598 211.71C72.7698 253.56 11.3887 250.212 -34.097 229.121C-47.832 222.791 -54.7032 220.405 -54.7032 220.405L-43.0471 240.595C-43.0471 240.595 -35.9171 242.169 -21.4277 246.899C27.0137 262.489 87.8366 259.698 120.759 212.268C134.151 192.18 135.266 168.185 130.244 146.423C137.498 166.511 139.73 189.39 130.803 209.478C108.482 260.257 45.9853 274.206 -4.03329 265.648C-18.9404 263.093 -26.1286 262.643 -26.1286 262.643L-9.64424 279.128C-9.64424 279.128 -2.44275 278.721 12.7755 279.536C67.1897 283.135 133.593 258.024 143.637 197.202C146.427 178.787 142.52 159.815 133.593 143.633C150.333 167.069 157.029 198.317 144.195 225.102C124.107 267.511 78.35 289.273 34.3957 293.148C19.3389 294.539 12.4053 296.047 12.4053 296.047L32.5947 307.703C32.5947 307.703 39.2921 305.372 54.1983 302.224C89.5103 294.295 121.875 277.555 144.196 246.306C168.19 212.268 164.284 167.627 135.825 139.169C160.935 159.815 175.444 193.853 164.842 226.218C152.566 267.511 116.295 294.853 78.5763 309.797C64.3987 315.032 58.272 318.339 58.272 318.339L80.7899 324.372C80.7899 324.372 86.4566 320.352 100.033 313.461C131.919 297.085 159.262 271.416 172.096 237.378C187.162 199.433 172.096 154.792 136.941 134.146C155.355 144.19 173.211 157.582 181.023 177.113C202.228 229.566 168.189 284.25 125.526 314.5C113.191 323.213 108.344 328 108.344 328H131.656C131.656 328 135.869 322.669 147.196 312.516C183.256 280.903 208.366 230.125 192.742 181.019C184.372 155.909 162.052 138.052 137.499 129.682C160.935 135.82 184.93 146.423 197.206 169.301C221.758 215.615 202.786 269.742 172.092 306.955C162.434 318.546 159.21 324.372 159.21 324.372L181.728 318.339C181.728 318.339 184.205 312.179 192.521 299.458C222.874 254.118 234.592 184.925 188.277 145.306C173.769 132.472 154.797 125.776 135.266 125.218C168.188 122.986 202.228 136.379 217.852 167.627C237.382 205.572 231.802 250.213 215.151 287.671C208.815 301.348 207.404 307.702 207.404 307.702L227.594 296.046C227.594 296.046 228.218 289.58 232.967 275.16C245.752 234.588 246.868 187.157 218.41 150.328C197.764 122.986 164.284 114.058 133.035 121.312C152.565 115.173 174.885 112.942 194.416 120.754C246.868 142.516 260.819 206.687 251.807 257.932C249.215 272.764 249.643 279.127 249.643 279.127L266.128 262.642C266.128 262.642 264.938 256.382 265.807 241.242C266.957 207.245 260.819 172.648 239.056 143.632C213.388 107.361 166.515 97.8747 129.686 117.964C149.217 106.245 172.653 97.3173 196.089 102.898C249.1 116.29 274.768 169.859 279.581 219.721C280.898 234.703 283.046 240.594 283.046 240.594L294.702 220.404C294.702 220.404 291.872 214.802 288.813 199.964C278.675 153.118 250.217 105.687 198.88 93.9682C172.096 87.8298 145.869 98.432 126.339 115.731C145.311 92.2945 175.443 78.9022 206.134 86.1561C251.891 96.7583 280.908 134.703 296.576 175.591C301.707 189.713 305.339 194.727 305.339 194.727L311.372 172.209C311.372 172.209 307.174 167.63 300.398 154.096C278.675 110.709 235.709 71.6483 183.813 74.9957C158.145 76.6695 135.266 93.41 121.317 114.614C129.129 98.9902 140.289 85.0397 155.913 76.1121C209.482 45.4219 271.421 82.8087 301.603 128.512C310.195 140.823 315 144.655 315 144.655V121.343V121.344Z" fill="url(#paint0_radial_4129_5951)" style="mix-blend-mode:screen"/>
</g>
<defs>
<radialGradient id="paint0_radial_4129_5951" cx="0" cy="0" r="1" gradientUnits="userSpaceOnUse" gradientTransform="translate(120 133) scale(164.197 164.197)">
<stop stop-color="white"/>
<stop offset="1" stop-color="white" stop-opacity="0"/>
</radialGradient>
</defs>
</svg>
