<svg width="168" height="38" viewBox="0 0 168 38" fill="none" xmlns="http://www.w3.org/2000/svg">
<path d="M9.01587 2.41073C9.61345 1.23821 10.8182 0.5 12.1342 0.5H155.365C156.681 0.5 157.885 1.2372 158.483 2.40848L166.578 18.2638C167.112 19.3094 167.086 20.553 166.509 21.5754L158.527 35.7201C157.906 36.8198 156.741 37.5 155.479 37.5H12.1342C10.8182 37.5 9.61345 36.7618 9.01587 35.5893L1.37116 20.5893C0.862317 19.5909 0.862317 18.4091 1.37116 17.4107L9.01587 2.41073Z" fill="#10AA7C"/>
<path d="M9.01587 2.41073C9.61345 1.23821 10.8182 0.5 12.1342 0.5H155.365C156.681 0.5 157.885 1.2372 158.483 2.40848L166.578 18.2638C167.112 19.3094 167.086 20.553 166.509 21.5754L158.527 35.7201C157.906 36.8198 156.741 37.5 155.479 37.5H12.1342C10.8182 37.5 9.61345 36.7618 9.01587 35.5893L1.37116 20.5893C0.862317 19.5909 0.862317 18.4091 1.37116 17.4107L9.01587 2.41073Z" fill="url(#paint0_linear_4306_27658)"/>
<path d="M9.01587 2.41073C9.61345 1.23821 10.8182 0.5 12.1342 0.5H155.365C156.681 0.5 157.885 1.2372 158.483 2.40848L166.578 18.2638C167.112 19.3094 167.086 20.553 166.509 21.5754L158.527 35.7201C157.906 36.8198 156.741 37.5 155.479 37.5H12.1342C10.8182 37.5 9.61345 36.7618 9.01587 35.5893L1.37116 20.5893C0.862317 19.5909 0.862317 18.4091 1.37116 17.4107L9.01587 2.41073Z" stroke="url(#paint1_linear_4306_27658)"/>
<path d="M9.01587 2.41073C9.61345 1.23821 10.8182 0.5 12.1342 0.5H155.365C156.681 0.5 157.885 1.2372 158.483 2.40848L166.578 18.2638C167.112 19.3094 167.086 20.553 166.509 21.5754L158.527 35.7201C157.906 36.8198 156.741 37.5 155.479 37.5H12.1342C10.8182 37.5 9.61345 36.7618 9.01587 35.5893L1.37116 20.5893C0.862317 19.5909 0.862317 18.4091 1.37116 17.4107L9.01587 2.41073Z" stroke="url(#paint2_linear_4306_27658)"/>
<defs>
<linearGradient id="paint0_linear_4306_27658" x1="114.895" y1="0" x2="114.895" y2="38" gradientUnits="userSpaceOnUse">
<stop stop-color="#24FDBC" stop-opacity="0"/>
<stop offset="1" stop-color="#24FDBC" stop-opacity="0.65"/>
</linearGradient>
<linearGradient id="paint1_linear_4306_27658" x1="119.286" y1="19" x2="150.388" y2="19" gradientUnits="userSpaceOnUse">
<stop offset="0.347781" stop-color="#24FDBC" stop-opacity="0"/>
<stop offset="1" stop-color="#24FDBC"/>
</linearGradient>
<linearGradient id="paint2_linear_4306_27658" x1="99.5267" y1="19" x2="70.6201" y2="19" gradientUnits="userSpaceOnUse">
<stop stop-color="#24FDBC" stop-opacity="0"/>
<stop offset="1" stop-color="#24FDBC"/>
</linearGradient>
</defs>
</svg>
